G04 Layer_Physical_Order=1*
G04 Layer_Color=255*
%FSLAX44Y44*%
%MOMM*%
G71*
G01*
G75*
%ADD10R,0.4500X1.8000*%
%ADD11R,1.8000X0.4500*%
%ADD12O,2.2000X0.6000*%
%ADD13R,2.4000X1.9000*%
%ADD14R,0.6000X1.0000*%
%ADD15R,1.4500X1.3500*%
%ADD16R,1.3500X1.4500*%
%ADD17R,0.8890X1.0160*%
%ADD18R,0.9000X1.3000*%
%ADD19R,1.3000X0.9000*%
%ADD20C,0.2540*%
%ADD21C,1.5000*%
%ADD22R,1.5000X1.5000*%
%ADD23C,0.8000*%
G36*
X466063Y240187D02*
X240049D01*
Y447451D01*
X466063D01*
Y240187D01*
D02*
G37*
%LPC*%
G36*
X368300Y444957D02*
X365959Y444492D01*
X363974Y443165D01*
X363312Y442174D01*
X327361D01*
X326085Y441920D01*
X325004Y441197D01*
X323320Y439514D01*
X319300D01*
Y443180D01*
X309300D01*
Y434166D01*
X308127Y433680D01*
X303269Y438537D01*
X302188Y439260D01*
X300912Y439514D01*
X300300D01*
Y443180D01*
X290300D01*
Y439514D01*
X283780D01*
X282504Y439260D01*
X281422Y438537D01*
X277069Y434184D01*
X273410D01*
Y439600D01*
X254910D01*
Y422100D01*
X273410D01*
Y427516D01*
X278450D01*
X279726Y427770D01*
X280807Y428493D01*
X285161Y432846D01*
X290300D01*
Y429180D01*
X300300D01*
Y430417D01*
X301473Y430903D01*
X307364Y425013D01*
X308446Y424290D01*
X309722Y424036D01*
X318878D01*
X320154Y424290D01*
X321236Y425013D01*
X322939Y426716D01*
X326939D01*
Y424030D01*
X331625D01*
Y408010D01*
X330355Y407625D01*
X330062Y408063D01*
X328077Y409389D01*
X325736Y409855D01*
X323395Y409389D01*
X321410Y408063D01*
X320570Y406805D01*
X319300Y407191D01*
Y419180D01*
X310340D01*
Y419720D01*
X306070D01*
Y412180D01*
X303530D01*
Y419720D01*
X299260D01*
Y419180D01*
X290300D01*
Y405180D01*
X292249D01*
X293275Y404590D01*
X293275Y403910D01*
Y400844D01*
X289560D01*
X288284Y400590D01*
X287202Y399868D01*
X284662Y397327D01*
X283940Y396246D01*
X283686Y394970D01*
Y386330D01*
X273020D01*
Y370524D01*
X265580D01*
Y375690D01*
X252580D01*
Y358690D01*
X265580D01*
Y363856D01*
X273020D01*
Y363330D01*
X301020D01*
Y386330D01*
X290354D01*
Y393589D01*
X290941Y394176D01*
X293275D01*
Y390430D01*
X306165D01*
X306165Y404432D01*
X307340Y404622D01*
X308515Y404432D01*
X308515Y403370D01*
Y390430D01*
X317325D01*
X323083Y384672D01*
X323959Y384086D01*
Y382364D01*
X311720D01*
X310444Y382110D01*
X309362Y381387D01*
X304293Y376317D01*
X303570Y375236D01*
X303316Y373960D01*
Y354841D01*
X293805Y345330D01*
X280235D01*
X276658Y348908D01*
X275576Y349630D01*
X274300Y349884D01*
X265580D01*
Y355050D01*
X252580D01*
Y338050D01*
X265580D01*
Y343216D01*
X271792D01*
X273020Y341988D01*
Y323310D01*
X273020Y322330D01*
X271870Y322040D01*
X267390D01*
X267210Y322040D01*
X266120Y322475D01*
Y325280D01*
X260350D01*
Y317510D01*
X265940D01*
X266120Y317510D01*
X267210Y317076D01*
Y316270D01*
X276250D01*
X285290D01*
X285290Y322040D01*
X286440Y322330D01*
X286824D01*
X287750Y321500D01*
Y308500D01*
X292416D01*
Y301150D01*
X292464Y300907D01*
X291555Y299431D01*
X291409Y299402D01*
X289424Y298076D01*
X288098Y296091D01*
X287633Y293750D01*
X288098Y291409D01*
X289424Y289424D01*
X291409Y288098D01*
X293750Y287633D01*
X296091Y288098D01*
X298076Y289424D01*
X299402Y291409D01*
X299867Y293750D01*
X299848Y293846D01*
X299961Y294065D01*
X301209Y294495D01*
X302339Y293740D01*
X304290Y293352D01*
X320290D01*
X322241Y293740D01*
X323895Y294845D01*
X325000Y296499D01*
X325388Y298450D01*
X325000Y300401D01*
X323895Y302055D01*
X322241Y303160D01*
X320290Y303548D01*
X304290D01*
X302339Y303160D01*
X300685Y302055D01*
X299395Y302220D01*
X299084Y302531D01*
Y308500D01*
X304750D01*
Y311869D01*
X304806Y311880D01*
X305888Y312603D01*
X307158Y313873D01*
X307880Y314954D01*
X308134Y316230D01*
Y318780D01*
X313690D01*
Y327820D01*
Y336860D01*
X310374D01*
X309888Y338033D01*
X311175Y339320D01*
X321460D01*
Y356320D01*
X320784D01*
X320298Y357493D01*
X322501Y359696D01*
X323959D01*
Y350780D01*
Y342780D01*
Y334780D01*
X345043D01*
X346003Y334574D01*
X346209Y333613D01*
Y312530D01*
X401669D01*
Y311990D01*
X405189D01*
Y323530D01*
X406459D01*
Y324800D01*
X411249D01*
Y334780D01*
X421494D01*
X422116Y334158D01*
Y332648D01*
X421124Y331986D01*
X419798Y330001D01*
X419333Y327660D01*
X419798Y325319D01*
X421124Y323334D01*
X423109Y322008D01*
X425450Y321543D01*
X427791Y322008D01*
X429776Y323334D01*
X431102Y325319D01*
X431567Y327660D01*
X431102Y330001D01*
X429776Y331986D01*
X428784Y332648D01*
Y334780D01*
X432959D01*
Y342780D01*
Y350780D01*
Y358780D01*
Y366780D01*
Y374780D01*
Y383695D01*
X435819D01*
X441818Y377697D01*
X441611Y376108D01*
X440265Y375075D01*
X438742Y373091D01*
X437785Y370780D01*
X437458Y368300D01*
X437785Y365820D01*
X438742Y363509D01*
X440265Y361525D01*
X442249Y360002D01*
X444560Y359044D01*
X447040Y358718D01*
X449520Y359044D01*
X451831Y360002D01*
X453815Y361525D01*
X455136Y363245D01*
X456275Y362990D01*
X456406Y362917D01*
Y356981D01*
X450977Y351552D01*
X449520Y352155D01*
X447040Y352482D01*
X444560Y352155D01*
X442249Y351198D01*
X440265Y349675D01*
X438742Y347691D01*
X437785Y345380D01*
X437458Y342900D01*
X437785Y340420D01*
X438742Y338109D01*
X440265Y336124D01*
X442249Y334602D01*
X444560Y333644D01*
X447040Y333318D01*
X449520Y333644D01*
X451831Y334602D01*
X453815Y336124D01*
X455338Y338109D01*
X456296Y340420D01*
X456622Y342900D01*
X456296Y345380D01*
X455692Y346837D01*
X462098Y353242D01*
X462820Y354324D01*
X463074Y355600D01*
Y426720D01*
X462820Y427996D01*
X462098Y429077D01*
X454478Y436698D01*
X453396Y437420D01*
X452120Y437674D01*
X441868D01*
X441206Y438666D01*
X439221Y439992D01*
X436880Y440457D01*
X434539Y439992D01*
X432554Y438666D01*
X432460Y438525D01*
X431942Y438484D01*
X430710Y439620D01*
Y441050D01*
X413210D01*
Y422550D01*
X430710D01*
Y428641D01*
X431106Y428720D01*
X432188Y429442D01*
X432677Y429932D01*
X434539Y428688D01*
X436880Y428223D01*
X439221Y428688D01*
X441206Y430014D01*
X441868Y431006D01*
X450739D01*
X456115Y425630D01*
X456115Y425625D01*
X456002Y425112D01*
X454635Y424808D01*
X453815Y425875D01*
X451831Y427398D01*
X449520Y428355D01*
X447040Y428682D01*
X444560Y428355D01*
X442249Y427398D01*
X440265Y425875D01*
X438742Y423891D01*
X437785Y421580D01*
X437458Y419100D01*
X437785Y416620D01*
X438742Y414309D01*
X440265Y412325D01*
X442249Y410802D01*
X444560Y409845D01*
X447040Y409518D01*
X449520Y409845D01*
X451831Y410802D01*
X453815Y412325D01*
X455136Y414045D01*
X456275Y413790D01*
X456406Y413717D01*
Y399083D01*
X456275Y399010D01*
X455136Y398755D01*
X453815Y400475D01*
X451831Y401998D01*
X449520Y402956D01*
X447040Y403282D01*
X444560Y402956D01*
X442249Y401998D01*
X440265Y400475D01*
X438742Y398491D01*
X438689Y398364D01*
X432959D01*
Y399280D01*
X411876D01*
X410915Y399486D01*
X410709Y400446D01*
Y421530D01*
X408821D01*
X407750Y422010D01*
X407750Y422800D01*
Y430530D01*
X398460D01*
Y431800D01*
D01*
Y430530D01*
X389170D01*
Y422800D01*
X389170Y422010D01*
X388099Y421530D01*
X355249D01*
Y422070D01*
X351729D01*
Y410530D01*
X350459D01*
Y409260D01*
X345669D01*
Y399280D01*
X338293D01*
Y403750D01*
Y424030D01*
X343939D01*
Y435506D01*
X346399D01*
Y431800D01*
X355439D01*
X364479D01*
Y432829D01*
X365599Y433428D01*
X365959Y433188D01*
X368300Y432722D01*
X370641Y433188D01*
X372626Y434514D01*
X373952Y436498D01*
X374417Y438840D01*
X373952Y441181D01*
X372626Y443165D01*
X370641Y444492D01*
X368300Y444957D01*
D02*
G37*
G36*
X407750Y441590D02*
X399730D01*
Y433070D01*
X407750D01*
Y441590D01*
D02*
G37*
G36*
X397190D02*
X389170D01*
Y433070D01*
X397190D01*
Y441590D01*
D02*
G37*
G36*
X364479Y429260D02*
X356709D01*
Y423490D01*
X364479D01*
Y429260D01*
D02*
G37*
G36*
X354169D02*
X346399D01*
Y423490D01*
X354169D01*
Y429260D01*
D02*
G37*
G36*
X349189Y422070D02*
X345669D01*
Y411800D01*
X349189D01*
Y422070D01*
D02*
G37*
G36*
X273950Y416640D02*
X265430D01*
Y408620D01*
X273950D01*
Y416640D01*
D02*
G37*
G36*
X262890D02*
X254370D01*
Y408620D01*
X262890D01*
Y416640D01*
D02*
G37*
G36*
X273950Y406080D02*
X265430D01*
Y398060D01*
X273950D01*
Y406080D01*
D02*
G37*
G36*
X262890D02*
X254370D01*
Y398060D01*
X262890D01*
Y406080D01*
D02*
G37*
G36*
X266120Y396230D02*
X260350D01*
Y388460D01*
X266120D01*
Y396230D01*
D02*
G37*
G36*
X257810D02*
X252040D01*
Y388460D01*
X257810D01*
Y396230D01*
D02*
G37*
G36*
X266120Y385920D02*
X260350D01*
Y378150D01*
X266120D01*
Y385920D01*
D02*
G37*
G36*
X257810D02*
X252040D01*
Y378150D01*
X257810D01*
Y385920D01*
D02*
G37*
G36*
X322000Y336860D02*
X316230D01*
Y329090D01*
X322000D01*
Y336860D01*
D02*
G37*
G36*
X266120Y335590D02*
X260350D01*
Y327820D01*
X266120D01*
Y335590D01*
D02*
G37*
G36*
X257810D02*
X252040D01*
Y327820D01*
X257810D01*
Y335590D01*
D02*
G37*
G36*
X322000Y326550D02*
X316230D01*
Y318780D01*
X322000D01*
Y326550D01*
D02*
G37*
G36*
X448310Y327459D02*
Y318770D01*
X456999D01*
X456822Y320121D01*
X455810Y322563D01*
X454201Y324661D01*
X452103Y326270D01*
X449661Y327282D01*
X448310Y327459D01*
D02*
G37*
G36*
X445770D02*
X444419Y327282D01*
X441977Y326270D01*
X439879Y324661D01*
X438270Y322563D01*
X437258Y320121D01*
X437081Y318770D01*
X445770D01*
Y327459D01*
D02*
G37*
G36*
X257810Y325280D02*
X252040D01*
Y317510D01*
X257810D01*
Y325280D01*
D02*
G37*
G36*
X411249Y322260D02*
X407729D01*
Y311990D01*
X411249D01*
Y322260D01*
D02*
G37*
G36*
X285290Y313730D02*
X277520D01*
Y307960D01*
X285290D01*
Y313730D01*
D02*
G37*
G36*
X274980D02*
X267210D01*
Y307960D01*
X274980D01*
Y313730D01*
D02*
G37*
G36*
X456999Y316230D02*
X448310D01*
Y307541D01*
X449661Y307718D01*
X452103Y308730D01*
X454201Y310339D01*
X455810Y312437D01*
X456822Y314879D01*
X456999Y316230D01*
D02*
G37*
G36*
X445770D02*
X437081D01*
X437258Y314879D01*
X438270Y312437D01*
X439879Y310339D01*
X441977Y308730D01*
X444419Y307718D01*
X445770Y307541D01*
Y316230D01*
D02*
G37*
G36*
X396240Y304568D02*
X393899Y304102D01*
X391914Y302776D01*
X391252Y301784D01*
X384026D01*
X383845Y302055D01*
X382191Y303160D01*
X380240Y303548D01*
X364240D01*
X362289Y303160D01*
X360635Y302055D01*
X359530Y300401D01*
X359142Y298450D01*
X359530Y296499D01*
X360635Y294845D01*
X362289Y293740D01*
X364240Y293352D01*
X380240D01*
X382191Y293740D01*
X383845Y294845D01*
X384026Y295116D01*
X391252D01*
X391914Y294124D01*
X393899Y292798D01*
X396240Y292332D01*
X398581Y292798D01*
X400566Y294124D01*
X401892Y296109D01*
X402357Y298450D01*
X401892Y300791D01*
X400566Y302776D01*
X398581Y304102D01*
X396240Y304568D01*
D02*
G37*
G36*
X272290Y304098D02*
X265560D01*
Y299720D01*
X277686D01*
X277509Y300612D01*
X276284Y302444D01*
X274452Y303669D01*
X272290Y304098D01*
D02*
G37*
G36*
X263020D02*
X256290D01*
X254128Y303669D01*
X252296Y302444D01*
X251071Y300612D01*
X250894Y299720D01*
X263020D01*
Y304098D01*
D02*
G37*
G36*
X277686Y297180D02*
X265560D01*
Y292801D01*
X272290D01*
X274452Y293231D01*
X276284Y294456D01*
X277509Y296288D01*
X277686Y297180D01*
D02*
G37*
G36*
X263020D02*
X250894D01*
X251071Y296288D01*
X252296Y294456D01*
X254128Y293231D01*
X256290Y292801D01*
X263020D01*
Y297180D01*
D02*
G37*
G36*
X380240Y291399D02*
X373510D01*
Y287020D01*
X385636D01*
X385459Y287912D01*
X384234Y289744D01*
X382402Y290969D01*
X380240Y291399D01*
D02*
G37*
G36*
X272290D02*
X265560D01*
Y287020D01*
X277686D01*
X277509Y287912D01*
X276284Y289744D01*
X274452Y290969D01*
X272290Y291399D01*
D02*
G37*
G36*
X370970D02*
X364240D01*
X362078Y290969D01*
X360246Y289744D01*
X359021Y287912D01*
X358844Y287020D01*
X370970D01*
Y291399D01*
D02*
G37*
G36*
X263020D02*
X256290D01*
X254128Y290969D01*
X252296Y289744D01*
X251071Y287912D01*
X250894Y287020D01*
X263020D01*
Y291399D01*
D02*
G37*
G36*
X357040Y294040D02*
X351270D01*
Y286270D01*
X357040D01*
Y294040D01*
D02*
G37*
G36*
X348730D02*
X342960D01*
Y286270D01*
X348730D01*
Y294040D01*
D02*
G37*
G36*
X428240Y303548D02*
X412240D01*
X410289Y303160D01*
X408635Y302055D01*
X407530Y300401D01*
X407142Y298450D01*
X407530Y296499D01*
X407968Y295843D01*
X397410Y285285D01*
X396240Y285518D01*
X393899Y285052D01*
X391914Y283726D01*
X390588Y281741D01*
X390122Y279400D01*
X390588Y277059D01*
X391914Y275074D01*
X393899Y273748D01*
X396240Y273283D01*
X398581Y273748D01*
X400566Y275074D01*
X401892Y277059D01*
X402357Y279400D01*
X402125Y280570D01*
X406217Y284662D01*
X407432Y284293D01*
X407530Y283799D01*
X408635Y282145D01*
X410289Y281040D01*
X412240Y280652D01*
X428240D01*
X430191Y281040D01*
X431845Y282145D01*
X432026Y282416D01*
X440690D01*
X441966Y282670D01*
X443047Y283393D01*
X443103Y283448D01*
X444560Y282845D01*
X447040Y282518D01*
X449520Y282845D01*
X451831Y283802D01*
X453815Y285324D01*
X455338Y287309D01*
X456296Y289620D01*
X456622Y292100D01*
X456296Y294580D01*
X455338Y296891D01*
X453815Y298875D01*
X451831Y300398D01*
X449520Y301355D01*
X447040Y301682D01*
X444560Y301355D01*
X442249Y300398D01*
X440265Y298875D01*
X438742Y296891D01*
X437785Y294580D01*
X437458Y292100D01*
X437688Y290354D01*
X436739Y289084D01*
X432026D01*
X431845Y289355D01*
X430191Y290460D01*
X428240Y290848D01*
X414062D01*
X413576Y292021D01*
X414907Y293352D01*
X428240D01*
X430191Y293740D01*
X431845Y294845D01*
X432950Y296499D01*
X433338Y298450D01*
X432950Y300401D01*
X431845Y302055D01*
X430191Y303160D01*
X428240Y303548D01*
D02*
G37*
G36*
X385636Y284480D02*
X373510D01*
Y280102D01*
X380240D01*
X382402Y280531D01*
X384234Y281756D01*
X385459Y283588D01*
X385636Y284480D01*
D02*
G37*
G36*
X370970D02*
X358844D01*
X359021Y283588D01*
X360246Y281756D01*
X362078Y280531D01*
X364240Y280102D01*
X370970D01*
Y284480D01*
D02*
G37*
G36*
X277686D02*
X265560D01*
Y280102D01*
X272290D01*
X274452Y280531D01*
X276284Y281756D01*
X277509Y283588D01*
X277686Y284480D01*
D02*
G37*
G36*
X263020D02*
X250894D01*
X251071Y283588D01*
X252296Y281756D01*
X254128Y280531D01*
X256290Y280102D01*
X263020D01*
Y284480D01*
D02*
G37*
G36*
X320290Y290848D02*
X304290D01*
X302339Y290460D01*
X300685Y289355D01*
X299580Y287701D01*
X299192Y285750D01*
X299580Y283799D01*
X300685Y282145D01*
X302339Y281040D01*
X304290Y280652D01*
X320290D01*
X322241Y281040D01*
X323895Y282145D01*
X324076Y282416D01*
X326780D01*
X327088Y280869D01*
X328414Y278884D01*
X328593Y278765D01*
Y277495D01*
X328414Y277376D01*
X327752Y276384D01*
X324076D01*
X323895Y276655D01*
X322241Y277760D01*
X320290Y278148D01*
X304290D01*
X302339Y277760D01*
X300685Y276655D01*
X299580Y275001D01*
X299192Y273050D01*
X299580Y271099D01*
X300685Y269445D01*
X302339Y268340D01*
X304290Y267952D01*
X320290D01*
X322241Y268340D01*
X323895Y269445D01*
X324076Y269716D01*
X327752D01*
X328414Y268724D01*
X328593Y268605D01*
Y267335D01*
X328414Y267216D01*
X327088Y265231D01*
X326780Y263684D01*
X324076D01*
X323895Y263955D01*
X322241Y265060D01*
X320290Y265448D01*
X304290D01*
X302339Y265060D01*
X300685Y263955D01*
X299580Y262301D01*
X299192Y260350D01*
X299580Y258399D01*
X300685Y256745D01*
X302339Y255640D01*
X304290Y255252D01*
X320290D01*
X322241Y255640D01*
X323895Y256745D01*
X324076Y257016D01*
X330200D01*
X330858Y257147D01*
X332740Y256772D01*
X335081Y257238D01*
X337066Y258564D01*
X338392Y260549D01*
X338857Y262890D01*
X338392Y265231D01*
X337066Y267216D01*
X336887Y267335D01*
Y268605D01*
X337066Y268724D01*
X338392Y270709D01*
X338857Y273050D01*
X338392Y275391D01*
X337066Y277376D01*
X336887Y277495D01*
Y278765D01*
X337066Y278884D01*
X338392Y280869D01*
X338857Y283210D01*
X338392Y285551D01*
X337066Y287536D01*
X335081Y288862D01*
X332740Y289328D01*
X330858Y288953D01*
X330200Y289084D01*
X324076D01*
X323895Y289355D01*
X322241Y290460D01*
X320290Y290848D01*
D02*
G37*
G36*
X348730Y283730D02*
X342960D01*
Y275960D01*
X348730D01*
Y283730D01*
D02*
G37*
G36*
X272290Y278699D02*
X265560D01*
Y274320D01*
X277686D01*
X277509Y275212D01*
X276284Y277044D01*
X274452Y278269D01*
X272290Y278699D01*
D02*
G37*
G36*
X263020D02*
X256290D01*
X254128Y278269D01*
X252296Y277044D01*
X251071Y275212D01*
X250894Y274320D01*
X263020D01*
Y278699D01*
D02*
G37*
G36*
X357040Y283730D02*
X351270D01*
Y275960D01*
X354449D01*
X354975Y274690D01*
X353785Y273500D01*
X343500D01*
Y256500D01*
X351285D01*
X356615Y251170D01*
X356382Y250000D01*
X356848Y247659D01*
X358174Y245674D01*
X360159Y244348D01*
X362500Y243883D01*
X364841Y244348D01*
X366826Y245674D01*
X368152Y247659D01*
X368618Y250000D01*
X368152Y252341D01*
X367055Y253982D01*
X367551Y255252D01*
X380240D01*
X382191Y255640D01*
X383845Y256745D01*
X384026Y257016D01*
X391252D01*
X391914Y256024D01*
X393899Y254698D01*
X396240Y254233D01*
X398581Y254698D01*
X400566Y256024D01*
X401892Y258009D01*
X402357Y260350D01*
X401892Y262691D01*
X400566Y264676D01*
X398581Y266002D01*
X396240Y266467D01*
X393899Y266002D01*
X391914Y264676D01*
X391252Y263684D01*
X384026D01*
X383845Y263955D01*
X382191Y265060D01*
X380240Y265448D01*
X364240D01*
X362289Y265060D01*
X360635Y263955D01*
X359530Y262301D01*
X359142Y260350D01*
X359261Y259750D01*
X358091Y259124D01*
X356500Y260715D01*
Y266785D01*
X359287Y269572D01*
X360607Y269488D01*
X360635Y269445D01*
X362289Y268340D01*
X364240Y267952D01*
X380240D01*
X382191Y268340D01*
X383845Y269445D01*
X384950Y271099D01*
X385338Y273050D01*
X384950Y275001D01*
X383845Y276655D01*
X382191Y277760D01*
X380240Y278148D01*
X364240D01*
X362289Y277760D01*
X360635Y276655D01*
X360454Y276384D01*
X358050D01*
X358022Y276378D01*
X357040Y277184D01*
Y283730D01*
D02*
G37*
G36*
X277686Y271780D02*
X265560D01*
Y267402D01*
X272290D01*
X274452Y267831D01*
X276284Y269056D01*
X277509Y270888D01*
X277686Y271780D01*
D02*
G37*
G36*
X263020D02*
X250894D01*
X251071Y270888D01*
X252296Y269056D01*
X254128Y267831D01*
X256290Y267402D01*
X263020D01*
Y271780D01*
D02*
G37*
G36*
X272290Y265998D02*
X265560D01*
Y261620D01*
X277686D01*
X277509Y262512D01*
X276284Y264344D01*
X274452Y265569D01*
X272290Y265998D01*
D02*
G37*
G36*
X263020D02*
X256290D01*
X254128Y265569D01*
X252296Y264344D01*
X251071Y262512D01*
X250894Y261620D01*
X263020D01*
Y265998D01*
D02*
G37*
G36*
X428240Y278148D02*
X412240D01*
X410289Y277760D01*
X408635Y276655D01*
X407530Y275001D01*
X407142Y273050D01*
X407530Y271099D01*
X408635Y269445D01*
X410289Y268340D01*
X412240Y267952D01*
X428240D01*
X430191Y268340D01*
X431845Y269445D01*
X432026Y269716D01*
X437540D01*
Y257200D01*
X456540D01*
Y276200D01*
X447965D01*
X447040Y276384D01*
X432026D01*
X431845Y276655D01*
X430191Y277760D01*
X428240Y278148D01*
D02*
G37*
G36*
Y265448D02*
X412240D01*
X410289Y265060D01*
X408635Y263955D01*
X407530Y262301D01*
X407142Y260350D01*
X407530Y258399D01*
X408635Y256745D01*
X410289Y255640D01*
X412240Y255252D01*
X428240D01*
X430191Y255640D01*
X431845Y256745D01*
X432950Y258399D01*
X433338Y260350D01*
X432950Y262301D01*
X431845Y263955D01*
X430191Y265060D01*
X428240Y265448D01*
D02*
G37*
G36*
X277686Y259080D02*
X265560D01*
Y254701D01*
X272290D01*
X274452Y255131D01*
X276284Y256356D01*
X277509Y258188D01*
X277686Y259080D01*
D02*
G37*
G36*
X263020D02*
X250894D01*
X251071Y258188D01*
X252296Y256356D01*
X254128Y255131D01*
X256290Y254701D01*
X263020D01*
Y259080D01*
D02*
G37*
%LPD*%
G36*
X394345Y387955D02*
X393101Y386094D01*
X392636Y383753D01*
X393101Y381412D01*
X394427Y379427D01*
X396412Y378101D01*
X397739Y377837D01*
X398323Y376426D01*
X398101Y376094D01*
X397636Y373753D01*
X398101Y371412D01*
X399156Y369834D01*
X398608Y368564D01*
X389535D01*
X388989Y369381D01*
X387005Y370707D01*
X384663Y371173D01*
X382322Y370707D01*
X380338Y369381D01*
X379011Y367396D01*
X378821Y366440D01*
X377443Y366022D01*
X374584Y368881D01*
Y378469D01*
X374330Y379745D01*
X373607Y380826D01*
X372347Y382087D01*
X372972Y383257D01*
X373517Y383149D01*
X386362D01*
X387638Y383403D01*
X388719Y384126D01*
X393358Y388764D01*
X394345Y387955D01*
D02*
G37*
G36*
X323959Y374780D02*
Y366780D01*
Y366364D01*
X321120D01*
X319844Y366110D01*
X318762Y365387D01*
X312603Y359228D01*
X311880Y358146D01*
X311626Y356870D01*
Y356320D01*
X309984D01*
Y372579D01*
X313101Y375696D01*
X323959D01*
Y374780D01*
D02*
G37*
G36*
X397363Y336672D02*
X398445Y335949D01*
X399197Y335800D01*
X399072Y334530D01*
X377793D01*
Y350204D01*
X378076Y350393D01*
X379402Y352378D01*
X379513Y352938D01*
X380729Y353306D01*
X397363Y336672D01*
D02*
G37*
D10*
X350459Y410530D02*
D03*
X358459D02*
D03*
X366459D02*
D03*
X374459D02*
D03*
X382459D02*
D03*
X390459D02*
D03*
X398459D02*
D03*
X406459D02*
D03*
Y323530D02*
D03*
X398459D02*
D03*
X390459D02*
D03*
X382459D02*
D03*
X374459D02*
D03*
X366459D02*
D03*
X358459D02*
D03*
X350459D02*
D03*
D11*
X421959Y395030D02*
D03*
Y387030D02*
D03*
Y379030D02*
D03*
Y371030D02*
D03*
Y363030D02*
D03*
Y355030D02*
D03*
Y347030D02*
D03*
Y339030D02*
D03*
X334959D02*
D03*
Y347030D02*
D03*
Y355030D02*
D03*
Y363030D02*
D03*
Y371030D02*
D03*
Y379030D02*
D03*
Y387030D02*
D03*
Y395030D02*
D03*
D12*
X264290Y298450D02*
D03*
Y285750D02*
D03*
Y273050D02*
D03*
Y260350D02*
D03*
X312290Y298450D02*
D03*
Y285750D02*
D03*
Y273050D02*
D03*
Y260350D02*
D03*
X420240D02*
D03*
Y273050D02*
D03*
Y285750D02*
D03*
Y298450D02*
D03*
X372240Y260350D02*
D03*
Y273050D02*
D03*
Y285750D02*
D03*
Y298450D02*
D03*
D13*
X287020Y374830D02*
D03*
Y333830D02*
D03*
D14*
X295300Y412180D02*
D03*
X304800D02*
D03*
X314300D02*
D03*
Y436180D02*
D03*
X295300D02*
D03*
D15*
X264160Y407350D02*
D03*
Y430850D02*
D03*
D16*
X421960Y431800D02*
D03*
X398460D02*
D03*
D17*
X299720Y397510D02*
D03*
X314960D02*
D03*
D18*
X259080Y326550D02*
D03*
Y346550D02*
D03*
Y367190D02*
D03*
Y387190D02*
D03*
X350000Y285000D02*
D03*
Y265000D02*
D03*
X314960Y327820D02*
D03*
Y347820D02*
D03*
D19*
X276250Y315000D02*
D03*
X296250D02*
D03*
X335439Y430530D02*
D03*
X355439D02*
D03*
D20*
X277500Y420690D02*
X282260Y425450D01*
X277500Y410000D02*
Y420690D01*
X274850Y407350D02*
X277500Y410000D01*
X264160Y407350D02*
X274850D01*
X248920Y330200D02*
X252570Y326550D01*
X248920Y330200D02*
Y405170D01*
Y387190D02*
X259080D01*
X248920Y405170D02*
X251100Y407350D01*
X264160D01*
X432370Y434340D02*
X436880D01*
X429830Y431800D02*
X432370Y434340D01*
X418150Y431800D02*
X429830D01*
X411940Y423195D02*
Y429310D01*
X409450Y431800D02*
X411940Y429310D01*
X398460Y431800D02*
X409450D01*
X373517Y386483D02*
X386362D01*
X368750Y391250D02*
X373517Y386483D01*
X349410Y285750D02*
X372240D01*
X330200D02*
X332740Y283210D01*
X312290Y285750D02*
X330200D01*
Y260350D02*
X332740Y262890D01*
X312290Y260350D02*
X330200D01*
X334959Y403750D02*
Y430050D01*
Y395030D02*
Y403750D01*
X334947Y403737D02*
X334959Y403750D01*
X325736Y403737D02*
X334947D01*
X378753Y392503D02*
X384473D01*
X386362Y386483D02*
X398459Y398581D01*
Y410530D01*
X390459Y398489D02*
Y410530D01*
X384473Y392503D02*
X390459Y398489D01*
X378753Y392503D02*
Y393753D01*
X385000Y435000D02*
X389470Y430530D01*
X376930Y435000D02*
X385000D01*
X372460Y430530D02*
X376930Y435000D01*
X389470Y430530D02*
X397190D01*
X355439D02*
X372460D01*
X406477Y371030D02*
X421959D01*
X405659Y365230D02*
X407859Y363030D01*
X421959D01*
X403860Y393700D02*
X406459Y396299D01*
X397190Y430530D02*
X398460Y431800D01*
X411940Y423195D02*
X413856Y421280D01*
X419460D01*
X327361Y438840D02*
X368300D01*
X402119Y355250D02*
X421739D01*
X421959Y355030D01*
X401898D02*
X402119Y355250D01*
X401018Y355030D02*
X401898D01*
X421009Y347980D02*
X421959Y347030D01*
X311720Y379030D02*
X334959D01*
X306650Y373960D02*
X311720Y379030D01*
X306650Y353460D02*
Y373960D01*
X420240Y273050D02*
X447040D01*
X396240Y279400D02*
X415290Y298450D01*
X420240D01*
X275590Y307340D02*
Y314800D01*
X275750Y314960D01*
X349250Y285590D02*
Y308610D01*
X345439D02*
X403859D01*
X252570Y326550D02*
X259080D01*
X304800Y337660D02*
X314960Y347820D01*
X372240Y260350D02*
X396240D01*
X420240Y285750D02*
X440690D01*
X447040Y292100D01*
Y266700D02*
Y273050D01*
X349250Y285590D02*
X349410Y285750D01*
X403859Y308610D02*
X406459Y311210D01*
Y323530D01*
X350459Y410530D02*
Y429200D01*
X351789Y430530D01*
X355439D01*
X334959Y395030D02*
X349189D01*
X355599Y388620D01*
X314960Y347820D02*
Y356870D01*
X303530Y314960D02*
X304800Y316230D01*
X295750Y314960D02*
X303530D01*
X304800Y316230D02*
Y337660D01*
X289560Y397510D02*
X299720D01*
X287020Y394970D02*
X289560Y397510D01*
X287020Y374830D02*
Y394970D01*
Y333830D02*
X306650Y353460D01*
X334643Y378714D02*
X334959Y379030D01*
X259080Y316230D02*
Y326550D01*
Y316230D02*
X260350Y314960D01*
X275750D01*
X259080Y346550D02*
X274300D01*
X287020Y333830D01*
X259080Y367190D02*
X279380D01*
X287020Y374830D01*
X264160Y430850D02*
X278450D01*
X283780Y436180D01*
X295300D01*
X304800Y412180D02*
Y422910D01*
X302260Y425450D02*
X304800Y422910D01*
X282260Y425450D02*
X302260D01*
X314960Y327820D02*
X326228D01*
X345439Y308610D01*
X321120Y363030D02*
X334959D01*
X314960Y356870D02*
X321120Y363030D01*
X325440Y387030D02*
X334959D01*
X314960Y397510D02*
X325440Y387030D01*
X295300Y436180D02*
X300912D01*
X309722Y427370D01*
X318878D01*
X321558Y430050D01*
X334959D01*
X314300Y436180D02*
X324701D01*
X327361Y438840D01*
X284480Y273050D02*
Y298450D01*
X275590Y307340D02*
X284480Y298450D01*
X264290Y260350D02*
X281940D01*
X284480Y262890D01*
Y273050D01*
X295750Y301150D02*
Y314960D01*
Y301150D02*
X298450Y298450D01*
X312290D01*
Y273050D02*
X332740D01*
X264290Y260350D02*
Y273050D01*
Y285750D01*
Y298450D01*
X372240D02*
X396240D01*
X406459Y323530D02*
X414340D01*
X420370Y317500D01*
X447040D01*
X425450Y327660D02*
Y335539D01*
X421959Y339030D02*
X425450Y335539D01*
X447040Y342900D02*
X459740Y355600D01*
X421959Y395030D02*
X445710D01*
X447040Y393700D01*
X421959Y387030D02*
X437200D01*
X447040Y377190D01*
Y368300D02*
Y377190D01*
X419460Y421280D02*
X424180Y416560D01*
Y405130D02*
Y416560D01*
X436880Y434340D02*
X452120D01*
X459740Y426720D01*
Y355600D02*
Y426720D01*
X406459Y396299D02*
Y410530D01*
X293750Y293750D02*
X298450Y298450D01*
X350000Y262500D02*
Y265000D01*
Y262500D02*
X362500Y250000D01*
X334959Y363030D02*
X346129D01*
X398544Y357503D02*
X401018Y355030D01*
X398753Y383753D02*
X404035D01*
X408758Y379030D01*
X421959D01*
X403753Y373753D02*
X406477Y371030D01*
X384838Y365230D02*
X405659D01*
X405130Y347980D02*
X421009D01*
X384663Y365055D02*
X384838Y365230D01*
X392503Y357503D02*
X398544D01*
X399720Y339030D02*
X421959D01*
X346129Y363030D02*
X350599Y367500D01*
X371250D02*
X399720Y339030D01*
X334959Y371030D02*
X347280D01*
X351250Y375000D01*
X350599Y367500D02*
X371250D01*
X361099Y388620D02*
X371250Y378469D01*
X355599Y388620D02*
X361099D01*
X371250Y367500D02*
Y378469D01*
X351250Y375000D02*
X363750D01*
X358459Y323530D02*
Y348519D01*
X350459Y356709D02*
X351250Y357500D01*
X350459Y323530D02*
Y356709D01*
X374459Y323530D02*
Y354010D01*
X363750Y357500D02*
X366459Y354791D01*
Y323530D02*
Y354791D01*
X358050Y273050D02*
X372240D01*
X350000Y265000D02*
X358050Y273050D01*
D21*
X447040Y317500D02*
D03*
Y292100D02*
D03*
Y342900D02*
D03*
Y368300D02*
D03*
Y393700D02*
D03*
Y419100D02*
D03*
D22*
Y266700D02*
D03*
D23*
X435000Y405000D02*
D03*
X442500Y330000D02*
D03*
X285000Y285000D02*
D03*
Y255000D02*
D03*
X325736Y403737D02*
D03*
X378753Y393753D02*
D03*
X398753Y383753D02*
D03*
X403860Y393700D02*
D03*
X368300Y438840D02*
D03*
X332740Y262890D02*
D03*
Y283210D02*
D03*
X396240Y279400D02*
D03*
Y260350D02*
D03*
X284480Y273050D02*
D03*
X332740D02*
D03*
X396240Y298450D02*
D03*
X355599Y388620D02*
D03*
X425450Y327660D02*
D03*
X424180Y405130D02*
D03*
X436880Y434340D02*
D03*
X293750Y293750D02*
D03*
X362500Y250000D02*
D03*
X403753Y373753D02*
D03*
X405130Y347980D02*
D03*
X384663Y365055D02*
D03*
X392503Y357503D02*
D03*
X368750Y391250D02*
D03*
X363750Y375000D02*
D03*
X358750Y348810D02*
D03*
X351250Y357500D02*
D03*
X373750Y354719D02*
D03*
X363750Y357500D02*
D03*
M02*
