M48
;Layer_Color=9474304
;FILE_FORMAT=2:4
INCH,LZ
;TYPE=PLATED
T1F00S00C0.0157
T2F00S00C0.0315
T3F00S00C0.0354
T4F00S00C0.0394
T5F00S00C0.0429
T6F00S00C0.0433
T7F00S00C0.0472
T8F00S00C0.0512
T9F00S00C0.0591
T10F00S00C0.0630
T11F00S00C0.0787
T12F00S00C0.1181
T13F00S00C0.1201
T14F00S00C0.1283
%
T01
X-003346Y-003689
Y-00172
X-002854Y-000736
X-00187
X-000886
X-001378Y-00172
X-000394
X000591
X001575
X002559
X002067Y-002705
X001083
X000098
X-000886
X-001378Y-003689
X-000394
X000591
X001575
X002559
X003051Y-002705
Y-000736
X002067
X001083
X008465Y-002705
X009449
X0145Y-004
X01625Y-0037
X015846Y-00172
X016831
X016339Y-000736
X020276
X02126
X020768Y-00172
X019783
X021752
X02372
X024705
X025689
X025197Y-000736
X026181
X027165
X02815
X027657Y-00172
X03061
X031594
X031102Y-000736
X034055
X033563Y-00172
X034547
X02925Y-0037
X02475Y-0033
X04275Y-00325
Y-00365
Y-00275
Y-00225
X04725Y-003
X051772Y-002705
X052756
X05128Y-00172
X053248
X057185
X059646Y-002705
X061614
X062598
X064567
X065551
X066535
X066043Y-00172
X065059
X065551Y-000736
X066535
X06752
X068504
X067028Y-00172
X06075Y-00025
X05575Y-004
X069488Y-000736
X068996Y000248
X06998
X069488Y001232
X068996Y002217
X06998
X069488Y003201
X068996Y004185
X06998
X069488Y005169
X068996Y006154
X06998
X069488Y007138
X068996Y008122
X06998
X069488Y009106
X068996Y010091
X06998
X069488Y011075
X068996Y012059
X06998
X069488Y013043
X068996Y014028
X06998
X069488Y015012
X064567
X063689Y014911
X062598Y015012
X0637Y0125
X064075Y012059
X065059
X065Y008
X064075Y008122
X063583Y007138
X062598
X061614
X06175Y008
X061122Y008122
X060138
X059154
X058169
X057185
X056201
X0555Y00875
X056201Y010091
X058169
X058Y0106
X057677Y009106
X06063
X062598
X063583
X06175Y0112
X058Y0136
X058661Y015012
X056693
X0552Y01475
X05425Y01525
X0545Y013
X05395Y01265
X053248Y008122
Y006154
X0552Y00585
X05575Y00575
X055709Y005169
X05675Y005
X057677Y005169
X058661
X059646
X06063
X061614
X062598
X062106Y004185
X061122
X060138
X059154
X058169
X057185
X057677Y003201
X058661
X059646
X06063
X062598
X063583
X06375Y00375
X064075Y004185
X064567Y005169
X065551
X066043Y004185
X065551Y003201
X064075Y002217
X063583Y001232
X061614
X062106Y002217
X056201
X055709Y003201
X066043Y000248
X06725Y00025
X068012Y000248
X048327Y004185
X04845Y00515
X048
X04755
X04685Y003201
X045866Y007138
X045374Y008122
X046358
X045866Y009106
X046Y01025
X045374Y010091
X045866Y011075
X04685
X04625Y01325
X04825
X049803Y013043
X05025Y01325
X051772Y013043
X05225Y01325
X052264Y012059
X050295Y008122
X04975Y0075
X050787Y007138
X050295Y006154
X048Y0078
Y0082
Y0086
X043406Y008122
X042421
X041929Y007138
X040945
X040453Y006154
X041437
X042421
X043406
X042913Y007138
Y009106
X041929
X041437Y010091
X042421
X041929Y011075
X040945
X041437Y012059
X042421
X043406
X042913Y011075
X043898
X042913Y013043
X041929
X040945
X038976
X037992
X0375Y014028
X038484
X039469
Y012059
X038484
X037992Y011075
X038976
X038484Y010091
X037992Y009106
X038976
X038484Y008122
X0375
Y006154
X038484
X038976Y007138
X039469Y008122
X039961Y005169
X040945
X038Y00475
X042421Y014028
X043406
X04415Y0157
X036024Y015012
X03525Y015
X03375Y0147
X033752Y014048
X033482Y01185
X033068
X031594Y012059
X03061
X030118Y013043
X0296Y01305
X028708Y01355
X028293
X02725Y01425
X0265Y015
X02425
X024213Y013043
X024705Y012059
X025689
X026673
X026181Y011075
X025197
X024705Y010091
X025689
X026673
X026181Y009106
X025197
X023228
X022244
X022736Y008122
X022244Y007138
X023228
X025197
X024213Y005169
X02372Y004185
X022736
X022244Y005169
X024705Y004185
X025689Y002217
X024705Y000248
X03061
X031594
X032579Y004185
Y006154
X03061
X031102Y007138
X03061Y008122
X031594
X031102Y009106
Y011075
X027165
X027657Y008122
X02815Y005169
X02775Y0045
X023228Y011075
X022244
X022736Y012059
X03025Y0147
X036024Y013043
Y011075
X035039
X036516Y010091
X036024Y009106
X035531Y008122
X02126Y007138
X020276
X019291
X019783Y006154
Y008122
X019291Y009106
X020276
X02126
X021752Y010091
X0216Y011226
X02126Y011075
X020276
X019291
X019783Y012059
X017815
X016831
X016339Y011075
X017323
X017815Y010091
X016339Y009106
X016831Y008122
X016339Y007138
X017323
X016831Y006154
X016339Y005169
X015846Y004185
X014862
X0135Y00425
X012894Y004185
X0125Y003
X01437Y003201
X015354
X016831Y002217
X017815
X018307Y001232
X019291
X019783Y000248
X020768
X021752
Y004185
X020768
X02125Y00525
X016831Y004185
X01437Y005169
Y007138
X013878Y008122
X014862
X01437Y009106
X013386
X013878Y010091
X013386Y011075
X013374Y0115
X013878Y012059
X014862
X01437Y011075
Y013043
X016339
X017323
X018307
X017815Y014028
X016831
X0185Y0157
X01975Y015
X0136Y0157
X0115
X010433Y015012
X008465
X00748
X008465Y013043
X007972Y012059
X00748Y011075
X008465
X009449
X00975Y0115
X009941Y012059
X01065Y011
X01105Y0105
X01145Y01
X01185Y00825
X008957Y008122
X008465Y007138
X009449
X008957Y006154
X008465Y005169
X009449
X010433Y003201
X008957Y002217
X007972
X008465Y001232
X009449
X01025Y0005
X012894Y000248
X013386Y001232
X01437
X016339
X016831Y000248
X002067Y001232
X001575Y002217
X002067Y003201
X001575Y004185
X-000394
X-001378
X-002362
X-003346
X-002854Y003201
X-00187
X-000886
X000098
X-000394Y002217
X-001378
X-002362
X-003346
X-002854Y001232
X-00187
X-000886
X000098
X-001378Y000248
X-002362
X-003346
X-002854Y005169
X-00187
X-000886
X-002362Y006154
X-003346
X-002854Y007138
X-00187
X-002362Y008122
X-003346
X-002854Y009106
X-003346Y010091
X-002362
X-001378
X-00187Y011075
X-002854
X-003346Y012059
X-002362
X-001378
X-000394
X000591
X000098Y013043
X-000886
X-00187
X-002854
X-003346Y014028
X-002362
X-001378
X-000394
X000591
X000098Y015012
X-000886
X001083
Y013043
X002559Y014028
X00502Y015012
X001575Y010091
Y008122
X000591
X-000394
X000098Y007138
X001083
X000591Y006154
X001575
X000098Y009106
X-000886Y011075
X-000394Y015996
X000591
X000098Y01698
X-00187
X-002854
X-003346Y017965
X-002854Y018949
X-00245Y02125
X00025Y02075
X00075
X000591Y021902
X001575
X002559
X003543
X003051Y020917
X002067
X004035
X003543Y019933
X00425Y01925
Y01875
X00502Y018949
X004528Y017965
X003543
X00325Y01825
X003051Y018949
X002559Y017965
X002067Y01698
X003051
X00375Y01725
X00425
X003543Y015996
X002559
X00125Y01825
X001154Y019
X00025Y01925
Y01975
X000098Y022886
X-000886
X-003346Y02387
X-00325Y02525
X-000886Y026823
X000098
X-00025Y0264
X000591Y027807
X0005Y0295
X001
X-001378Y029776
X-002362
X-00187Y03076
X-000886
X003051Y028791
X002559Y027807
X003543
X003051Y026823
X002067
X00405Y0258
X00375Y0255
X004035Y024854
X003543Y02387
X002559
X001575
X004528
X005512
X00502Y022886
X005Y027
Y0275
X00535Y02985
X00575Y03025
X006496Y029776
X008465
X00775Y0305
Y0288
X008957Y028791
Y026823
X008465Y025839
X009449
X010433
X011417
X012402
Y02387
X011417
X010433
X009449
X008465
X00748
X00675Y02375
X00625
X007972Y022886
X008957
X009941
X009449Y021902
X008465
X00775Y02185
X00745Y0215
X006988Y020917
X007972
X008957
X00748Y019933
X006496
X00748Y01698
X008465
X009449
X0095Y016
X008957Y015996
X007972
X008957Y017965
X011417Y01698
X012402
X015354
X015846Y017965
X017323Y01698
Y021902
X018307
X020276
X02025Y02255
X020276Y02387
X01975Y024
X02126Y02387
X020768Y024854
X021752
X0215Y02795
X02025Y0275
Y0285
X019783Y026823
X017815
X016831
X0175Y0275
X016339Y027807
X01525Y02825
Y02725
Y02625
Y02525
X01475Y0245
X01437Y02387
X0135Y0225
X012
X0115Y0229
X011417Y021902
X012402
X0155Y0224
X0165Y02225
X015846Y020917
X017Y0245
X016831Y024854
X016339Y025839
X017323
X018307
X01825Y0245
X02126Y021902
X0165Y03015
X01525Y03025
Y0297
X01437Y029776
X0137Y02875
X01205Y02795
X010925Y024854
X009941
X0065Y027
Y0275
X02315Y02795
X02405
X0246Y02905
X025
X0255
Y03
X026Y03085
X02635Y0305
X0276Y02925
Y028836
X028041
X029Y02925
X0296
X0301
X03145Y029126
X03195Y02935
X03175Y02825
X03305Y0286
X034496Y029
X0353Y02905
Y0294
X03535Y0274
X03575
X0336Y0271
X0329Y02675
X0324
X032475Y024725
X03175Y025
X0305Y0265
X0299Y026
Y0276
X03035Y028
X028923Y028027
X02855Y0277
X02815Y025839
X02675Y02675
X025689Y026823
X025197Y02387
X024213
X023228
X02225Y02375
X0227Y022563
X0237Y02255
X023228Y021902
X022736Y020917
Y017965
X02725Y0183
X02735Y01735
X02785
X0285
X0295Y01755
X029626Y017965
X0305Y01825
X0303Y01735
X0313
X0318
X03295Y01755
X033563Y017965
X034055Y01698
X0345Y017
X036024Y01698
Y021902
X035Y02275
X03325Y0228
X0325Y02175
X031
X030118Y021902
X0292Y02175
X02825Y02225
X02775
Y0217
X027165Y021902
X027657Y020917
X028642Y022886
X02975Y0228
X029134Y02387
X027165
X026181
X02585Y02255
X025197Y021902
X03061Y020917
X03175Y021
X0335
X03675Y02325
X036516Y024854
X037008Y025839
X03287Y03133
X02415Y03135
X0237
X0233
X022244Y025839
X037992
X038976
X038484Y024854
X0375
Y026823
X038484
X03855Y02875
X039469Y028791
X040453
X039961Y029776
X039469Y03076
X039Y03125
X0375Y03076
X04439
X044882Y029776
X04439Y028791
X044882Y027807
X044Y02725
X04265Y027
X0415Y02675
X04155Y02475
X042421Y024854
X04275Y0242
X04225Y02325
X04125
X04225Y02225
X041929Y021902
X042913
X043898
X044882
Y02387
X0436Y02525
X042913Y025839
X04065Y0249
X039469Y024854
X039Y0233
X038484Y022886
X03825Y02225
X0375
X038484Y020917
X0402Y02215
X041929Y01698
X04525Y0165
X045374Y017965
X047835Y01698
Y018949
X047343Y019933
X048327
X049311
X048819Y020917
X049803
X049311Y021902
X048327
X049411Y024161
X050295Y02387
X05Y028
Y0284
X0505Y0285
X048819Y028791
X05Y03025
X049803Y03076
Y018949
Y01698
X051772Y018949
X052756Y020917
X037992Y01698
X05475Y01725
X05415Y01875
X05475Y021
Y0215
Y022
X053248Y021902
X05375Y02375
X0545Y02355
Y024
Y02525
X053248Y025839
X056201
X0565Y02475
X058169Y025839
X059154
X05935Y0253
X060138Y025839
X061122
X062106
X063091
X064075
X06375Y02515
X062598Y024854
X063583Y022886
X064075Y021902
X065059
X066043
X0663Y02255
X06775Y0215
X06725Y02
X06825Y018
X06575Y01845
X065059Y017965
X064075
X063091
X062106
X061614Y01698
X062598
X063583
X064567
X064075Y015996
X063091
X062106
X060138
X059646Y01698
X060138Y017965
X059646Y018949
X060138Y019933
X059646Y020917
X060138Y021902
X06075Y022
X062106Y021902
X061614Y020917
X06125Y0205
X062106Y019933
X063091
X064075
X063583Y018949
X062598
X061614
X062598Y020917
X064567
Y018949
X065059Y015996
X06675Y016
X058169Y015996
X0575Y01875
X058169Y019933
X0585Y02025
Y02245
X059Y023
X058169Y027807
X057185
X0565Y02775
X057677Y028791
X057185Y029776
X056201
X054232
X05425Y0291
X057677Y03076
X06545Y0255
X068996Y02387
X069488Y022886
X068996Y021902
X06998
X069488Y020917
X068996Y019933
X06998
X069488Y018949
X068996Y017965
X06998
X069488Y01698
X068996Y015996
X06998
X057185Y031744
X056201
X055709Y032728
X054724
X056693
X057677
Y034697
X056693
X055709
X05435Y03435
X055709Y036665
X056693
X057677
Y038634
X057185Y039618
X056201
Y041587
X055217
X057185
X057677Y040602
Y046508
X056693
X054724
X053248Y045524
X0532Y043
X052756Y040602
X050787
X051061Y03975
X050295Y039618
X04975Y0405
Y04275
Y04375
X0498Y04475
X04875
X04795Y045
Y0425
X0455
X04525Y04375
X04425Y04325
Y0445
X04439Y046508
X04525Y04625
X043Y0455
X042421Y042571
X041437
X0415Y0415
X04195Y04065
X0431Y041
X043406Y040602
X04425Y041
X0433Y042
X04375Y0425
X044Y039
X04405Y0373
X044882Y03765
Y035681
X04375Y03525
Y0335
X04265Y034
Y03275
X041437Y032728
X040453
Y034697
Y036665
Y038634
X04125Y03875
X038484Y038634
X037992Y039618
X03825Y04
X038976Y039618
X039469Y040602
X038484Y042571
X040945Y043555
X0398Y046
X0395Y0463
Y0469
X0398Y0466
X04875Y04675
X0498
X051Y04525
Y04425
X052756Y046508
Y036665
Y034697
X05055Y03345
Y03175
Y03675
X050561Y03775
X049311Y03765
Y035681
X048327
X04265Y03625
X03825Y036135
Y0366
X0375Y034697
X0365Y0342
X035788Y034213
X0359Y03565
X0362Y0367
X0373Y03675
X03625Y03825
X036024Y039618
X03475Y03885
X03435Y0392
X03405Y039724
X03335Y0399
X033Y0395
X03195Y0397
X03165Y03925
X03225Y04025
X032661Y0405
X0315Y04075
X03115Y0411
X0308Y04075
X0301
X02975Y0411
X03045
X02945Y0396
X02935Y0391
X02725Y03925
Y038728
X026673Y038634
X02775Y04
X026673Y042571
X025689
X024705
X025197Y041587
X02425Y04385
X024Y04425
X02372Y044539
Y046508
X024705
X025689
X026673
X027657
X029134Y045524
X029Y04475
X031594Y042571
X032579
X033071Y043555
X033563Y044539
X03515Y0444
X0345Y0435
X034055Y041587
X033776Y0367
X03295
Y0371
X0322Y037026
X03045
X0287
X028224Y03595
Y03395
X0282Y0319
X0293Y031474
X0313
X03625Y0321
X03695Y03225
X0338Y035
X02615Y03545
X0256Y0356
X02555Y034
X0261
X025Y03405
Y0335
X02525Y03315
X0241Y0327
X0244Y0324
X02405Y03525
X0238Y0356
X02405Y036
X02435Y03635
X02475Y0364
X02505Y0367
X023Y0381
Y0385
X022736Y042571
X022244Y043555
Y045524
Y033713
X02126
X020276
X019291
X018307
X017815Y032728
X017323Y031744
X019291
X019783Y032728
X020768
X020276Y035681
X019291
X018307
X016339
X015354
X01437
X013878Y036665
X012402Y035681
Y033713
X011909Y032728
X010925
X009941
X008957
X0095Y032
Y0335
X008465Y033713
X00748
X006988Y034697
X00748Y035681
X008465
X008957Y034697
X0095Y035
Y0365
X008957Y036665
X009941Y038634
X010925
X0115Y03875
X011909Y038634
X0125Y03925
X013
X0135
X014
X011417Y039618
X010433
X009449
X008957Y040602
X007972
X0075Y04025
X006496Y041587
X006988Y042571
X007972
X008957
X009941
X010925
X0115Y043
X01215Y0433
X012894Y042571
X013878
X013386Y043555
X01325Y04585
X012894Y046508
X013878
X014862
Y044539
X017815
X017323Y043555
Y041587
X01635Y04085
X0195Y042
Y04425
X02025Y04435
X020276Y043555
Y045524
X020768Y046508
X017815
X017323Y045524
X0106Y04575
Y04615
Y04655
X008967Y04635
Y046783
X008533
Y04635
Y045917
X008967
X008957Y044539
X00925Y0439
X009449Y043555
X010433
Y041587
X009449
X009941Y040602
X010925
X011909
X016831Y036665
X016339Y033713
X015846Y032728
X014862
X01437Y033713
X019291Y03765
X020276
X02125Y03775
X02126Y035681
X00645Y03225
X0069Y04635
X004528Y045524
X004035Y044539
X005Y04425
X004528Y043555
X003543
X002559
X002067Y042571
X001083
X000098
X-000886
X-00187
X-001378Y041587
X-000394
X000591
X0005Y041
X000098Y040602
X-000886
X-002854
X-003346Y039618
X-002362
X-002854Y038634
X-00187
X-000886
X-001378Y03765
X-002362
X-003346
X-002854Y036665
X-00187
X-002362Y035681
X-003346
X-000886Y034697
X000098
X001083
X002067
X003051
X004035
Y032728
X003051
X00235Y0324
X002
X00165
Y03205
X002
X00235
X003543Y031744
X004528
X005Y0315
X005512Y031744
X00502Y032728
Y036665
Y038634
X004035
X00275Y04025
X003051Y040602
X002067
X001083
X000591Y039618
X-000394Y03765
X001575
X00155Y0357
X002
X00245
X-000394Y033713
X-001378
X-000886Y032728
X-000394Y031744
X000591
X-002362
X-003346Y041587
Y043555
Y045524
X-001378
X-00187Y044539
X-000886
X000098
X000591Y043555
X-001378
X-00187Y046508
X-000886
X000098
X001083
X003051
Y042571
X004035
X00502
X004528Y041587
X003543
X005512Y043555
X003543Y047492
X002559
X001575
X000591
X000098Y048476
X-000886
X-00187
X-001378Y047492
X-003346
Y049461
X-002854Y050445
X-00187
X-002362Y051429
X-003346
X-001378
X-000394
X000591
X000098Y052413
X-000886
X001083
X000591Y053398
X001083Y054382
X000591Y055366
X001575
X002559
X003543
X004528
X005512
X006004Y054382
Y052413
X00502
X004528Y051429
X003543
X002559
X003051Y050445
X002559Y049461
X003543
X004528
X004035Y048476
X003051
X002067
X001083
Y050445
X003051Y052413
X005512Y051429
X00502Y050445
X006004
X0067Y05175
X007972Y052413
X008957
X009941
X010925
X011909
X01285Y05265
X011417Y053398
X010433
X009449
X008465
X00748
X006988Y054382
X007972
X008957
X009941
X010925
X011909
X011417Y055366
X010433
X009449
X008465
X00748
X006496
X012402
X01375Y05475
X01437Y055366
X015354
X016339
X015846Y054382
X017815
X018307Y053398
X017815Y052413
X017Y05225
X017323Y051429
X018307
X017815Y050445
X017323Y049461
X018307
X017815Y048476
X017323Y047492
X01575Y04875
X01525
X014862Y048476
X013878
X01285Y04845
X010574Y048485
X0106Y04715
X008967Y047217
Y04765
Y048083
X008533
Y04765
Y047217
X0069Y04765
X009449Y049461
X00915Y0501
X008957Y050445
X009941
X010925
X013878
X01425Y05
X0144Y0511
X016
Y052
X0165Y05025
X019783Y050445
X02126Y049461
X020768Y048476
X021752
X02126Y055366
X020276
X01437Y053398
X02372Y052413
X024705
X025689
X026673
X0265Y0515
X026
X0255
X025
X0245
Y051
X025
X0255
X026
X0265
X027
Y0515
Y0505
X0265
X026
X0255
X025
X0245
Y05
X025
X0255
X026
X0265
X027
Y0495
X0265
X026
X0255
X025
X0245
Y049
X025
X0255
X026
X0265
X027
Y0485
X0265
X026
X0255
X025
X0245
X02372Y048476
X024213Y047492
X025197
X026181
X027165
X02815
X0295Y0475
X029226Y049286
X03Y04975
Y05075
Y05175
X031102Y051429
X033071
X03375Y05175
X033563Y050445
X032579
X033071Y049461
X034055
X035039
X034547Y050445
X035531
X036Y05075
X035531Y048476
X03525Y04775
X03375
X03325
X03275
X027657Y048476
Y050445
X02372
X022244Y049461
X029134Y053398
X030118
X03061Y054382
X030118Y055366
X035039
X03625Y0555
X037008Y055366
X034547Y054382
X035039Y053398
X038976
X039961
Y055366
X038976
X037992
X040945
X041929
X042913
X043898
X044882
X04525Y05375
X045374Y052413
X04525Y05125
X044882Y051429
X043898
X042913
X04275Y052
Y053
X042913Y053398
X04275Y0545
X041437Y054382
X04035Y051
X040453Y048476
X0395Y0481
Y0475
X0398Y0472
X038484Y048476
X03775Y05025
X04275Y0505
X042913Y049461
X0437Y0489
X04425Y048
Y047
X04525Y04875
X047945Y05
X04875Y0495
X05075
X05085Y0505
X04975
Y0515
X051
X0509Y05275
X051Y05325
Y0545
X05128Y055366
X05075Y0555
X052264Y055366
X052756Y054382
X05305Y0525
X052756Y050445
X052264Y049461
X052756Y048476
X051Y0485
Y04775
X04795Y0475
X04875Y0525
X049616Y053022
X04975Y0545
X0485Y0555
X053248Y055366
X054232
X055217
X056201
X057185
Y053398
X056201
X055217
X054724Y054382
X05525Y05125
X056201Y051429
X057185
X056693Y050445
Y048476
X057677
X054724
X054232Y049461
X053248
X05345Y04985
X05525
T02
X03975Y035289
Y037211
T03
X00975Y01775
X01075
X012
X013
X01425
X01525
X0165
X0175
X01875
X01975
X021
Y02075
X01975
X01875
X0175
X0165
X01525
X01425
X013
X012
X01075
X00975
X022
X02325
X02425
X0255
X0265
Y01775
X0255
X02425
X02325
X022
X0345
X0355
X03675
Y02075
X0355
X0345
X03775
X039
X04
X04125
X04225
X0435
X0445
X0455Y0225
Y0235
Y02475
Y02575
Y027
Y028
Y02925
Y03025
X0485
Y02925
Y028
Y027
Y02575
Y02475
Y0235
Y0225
X0445Y01775
X0435
X04225
X04125
X04
X039
X03775
X0455Y0315
Y0325
Y034
Y035
Y03625
Y03725
Y0385
Y0395
X0485
Y0385
Y03725
Y03625
Y035
Y034
Y0325
Y0315
T04
X00725Y0026
X01025Y0019
X00375
X00075Y0026
X000734Y009
X-001234
X0045Y009984
Y008016
X006Y0065
X00453Y0143
X00197
X-00225Y0195
X0235Y0245
X0245
X0255
X0265
X0275
Y0255
X0265
X0255
X0245
X0235
X003984Y05005
X002016
X0385Y054
X0395
X0405
T05
X011864Y-001319
X012955
X014045
X015136
X015681Y-000201
X014591
X0135
X012409
X011319
X025569
X026659
X02775
X028841
X029931
X029386Y-001319
X028295
X027205
X026114
T06
X039138Y005537
X043862
X035862
X031138
X027612
X022888
X019612
X014888
T07
X040732Y-00095
X041682
X042632
X043582
X044532
X045482
X046432
X047382
X048332
X049282
X050232
X051182
X052132
X053082
X052606Y0
X051656
X050706
X049756
X048806
X047856
X046906
X045956
X045006
X044056
X043106
X042156
X041206
X040256
X053556
X054506
X055456
X056406
X057356
X058306
X059256
X058782Y-00095
X057832
X056882
X055932
X054982
X054032
Y000949
X054982
X055932
X056882
X057832
X058782
X059732
X053082
X052132
X051182
X050232
X049282
X048332
X047382
X046432
X045482
X044532
X043582
X042632
X041682
X040732
X040191Y0135
X044309
X035059
X030941
X026559
X022441
X019809
X015691
X04Y025313
Y033187
T08
X0415Y00475
X039138Y010341
X043862
X035862
X031138
X027612
X022888
X02525Y00475
X0335
X01725
X019612Y010341
X014888
X008Y01
Y009
Y008
T09
X031766Y053516
X03275Y0545
X033734Y053516
Y055484
X031766
T10
X0Y0
X002
X004
X006
X067Y02775
Y02975
Y03175
Y03375
Y0365
Y0385
Y0405
Y0425
Y0445
Y0465
X-00025Y04575
Y04375
Y04775
Y04975
X067Y0505
Y0485
T11
X05825Y0297
X0645Y0345
T12
X-002362Y-002705
X068504
X064567Y028791
X05374Y038634
X-002362Y054382
X05374Y047492
X064567Y053398
X068504Y054382
T13
X0375Y0
X0625
T14
X008581Y-00076
X018419
X022831
X032669
M30
