M48
;Layer_Color=9474304
;FILE_FORMAT=2:4
INCH,LZ
;TYPE=PLATED
T1F00S00C0.0157
T2F00S00C0.0315
T3F00S00C0.0354
T4F00S00C0.0394
T5F00S00C0.0429
T6F00S00C0.0433
T7F00S00C0.0472
T8F00S00C0.0512
T9F00S00C0.0591
T10F00S00C0.0630
T11F00S00C0.0787
T12F00S00C0.1181
T13F00S00C0.1283
%
T01
X-003346Y-003689
X-001378
X-000394
X000591
X001575
X002559
X003051Y-002705
X002067
X001083
X000098
X-000886
X-000394Y-00172
X000591
X001575
X002559
X003051Y-000736
X002067
X001083
X-000886
X-00187
X-002854
X-003346Y-00172
X-001378
X008465Y-002705
X009449
X0145Y-004
X015846Y-00172
X016831
X016339Y-000736
X020276
X02126
X021752Y-00172
X020768
X019783
X02372
X024705
X025689
X026181Y-000736
X027165
X02815
X027657Y-00172
X03061
X031594
X031102Y-000736
X034055
X034547Y-00172
X033563
X02925Y-0037
X025197Y-000736
X04275Y-00225
Y-00275
Y-00325
Y-00365
X04725Y-003
X051772Y-002705
X052756
X05128Y-00172
X053248
X057185
X059646Y-002705
X061614
X062598
X064567
X065551
X066535
X067028Y-00172
X066043
X065059
X065551Y-000736
X066535
X06752
X068504
X05575Y-004
X069488Y-000736
X06998Y000248
X068996
X069488Y001232
X06998Y002217
X068996
X069488Y003201
X06998Y004185
X068996
X069488Y005169
X06998Y006154
X068996
X069488Y007138
X06998Y008122
X068996
X069488Y009106
X06998Y010091
X068996
X069488Y011075
X06998Y012059
X068996
X069488Y013043
X06998Y014028
X068996
X069488Y015012
X06515Y0144
X065059Y012059
X064075
X063091
X063583Y013043
X063091Y014028
X06175Y01545
Y01225
X061614Y011075
X062598
X062106Y010091
X061122
X060138
X059154
X058169
X057185
X057677Y011075
X058661
X059646
X06063
Y013043
X059154Y014028
X058169
X057185
X057677Y013043
X056693
X0555Y013
X0545Y015
Y0154
X058Y01485
X056693Y011075
X055217Y010091
X054232
X053248
Y008122
X054232
X055217
X056201
X057185
X057677Y009106
X058661
X059646
X06063
X060138Y008122
X059154
X057677Y007138
X056693
X055709
X05575Y00525
X055
X054232Y006154
X053248Y004185
Y002217
X057185
X058169
X059154
X060138
X06063Y003201
X061614
X062598
X063583
X06375Y00375
X064075Y004185
X065059
X066043
X065551Y005169
X064567
X063583
X062598
X061614
X062106Y006154
X063091
X064075
X065059
X066043
X065551Y007138
X064567
X063583
X062598
X064075Y008122
X065059
X066043
X065551Y009106
X064567
X066043Y010091
X065551Y003201
X064567
X064075Y002217
X063091
X062106
X062598Y001232
X063583
X061614
X06063
X060138Y000248
Y004185
X059154
X058169
X057185
X056201
X056693Y003201
X057677
X058661
X062106Y004185
X063091
X066043Y000248
X06725Y00025
X068012Y000248
X055709Y009106
X052264Y010091
X05128
X050295
X049311
X048327
X047343
X046358
X045374
Y008122
X047343
X048327
X049311
X050295
X05128
X052264
X05128Y006154
X051772Y005169
X052756
X052264Y004185
X05128
X050295
X050787Y005169
Y003201
X051772
X052756
X050295Y002217
X047343
X04685Y003201
X047343Y004185
X04685Y005169
X048327Y006154
X043406
X042421
X041437
X040453
X040945Y007138
X041929
X042913
X043898
X043406Y008122
X042421
X041437
X041929Y009106
X040945
Y011075
X041929
X042913
X043898
X043406Y012059
X042421
X041437
X041929Y013043
X042913
X043406Y014028
X042421
X040945Y013043
X038976
X037992
X038484Y014028
X039469
Y012059
X038484
X038976Y011075
X037992
X038484Y010091
X038976Y009106
X037992
X038484Y008122
X039469
X038976Y007138
X038484Y006154
X0375
X038Y00475
X039961Y005169
X040945
X0375Y008122
Y014028
X04415Y0157
X04625Y01325
X04825
X049803Y013043
X05025Y01325
X051772Y013043
X05225Y01325
X036024Y013043
Y015012
X03525Y015
X03375Y0147
X033752Y014048
X033482Y01185
X033068
X031594Y012059
X03061
X031102Y011075
Y009106
X031594Y008122
X03061
X031102Y007138
X03061Y006154
X032579
Y004185
X031594Y000248
X03061
X024705
X025689Y002217
X024705Y004185
X02372
X022736
X022244Y005169
X024213
X025197Y007138
Y009106
X026181
X026673Y010091
X025689
X024705
X025197Y011075
X026181
X027165
X026673Y012059
X025689
X024705
X024213Y013043
X02425Y015
X0265
X02725Y01425
X028293Y01355
X028708
X0296Y01305
X030118Y013043
X03025Y0147
X035039Y011075
X036024
X036516Y010091
X036024Y009106
X035531Y008122
X027657
X02815Y005169
X02775Y0045
X023228Y007138
X022244
X022736Y008122
X023228Y009106
X022244
Y011075
X023228
X022736Y012059
X0216Y011226
X02126Y011075
X020276
X019291
X019783Y012059
X017815
X016831
X017323Y013043
X018307
X017815Y014028
X016831
X016339Y013043
Y011075
X017323
X017815Y010091
X019291Y009106
X020276
X02126
X021752Y010091
X02126Y007138
X020276
X019291
X019783Y008122
Y006154
X02125Y00525
X020768Y004185
X021752
Y000248
X020768
X019783
X019291Y001232
X018307
X017815Y002217
X016831
X016339Y001232
X016831Y000248
X01437Y001232
X013386
X012894Y000248
X01025Y0005
X009449Y001232
X008465
X008957Y002217
X007972
X010433Y003201
X0125Y003
X012894Y004185
X0135Y00425
X014862Y004185
X015846
X016831
X016339Y005169
X016831Y006154
X017323Y007138
X016339
X016831Y008122
X016339Y009106
X01437
X013386
X013878Y010091
X01437Y011075
X013386
X013374Y0115
X013878Y012059
X014862
X01437Y013043
X0136Y0157
X0115
X010433Y015012
X008465
X00748
X008465Y013043
X007972Y012059
X008465Y011075
X009449
X00975Y0115
X009941Y012059
X01065Y011
X01105Y0105
X01145Y01
X01185Y00825
X013878Y008122
X014862
X01437Y007138
Y005169
Y003201
X015354
X009449Y005169
X008465
X008957Y006154
X009449Y007138
X008465
X008957Y008122
X00748Y011075
X0185Y0157
X01975Y015
X00502Y015012
X002559Y014028
X000591
X-000394
X-001378
X-002362
X-003346
X-002854Y013043
X-00187
X-000886
X000098
X001083
X000591Y012059
X-000394
X-001378
X-002362
X-003346
X-002854Y011075
X-00187
X-000886
X-001378Y010091
X-002362
X-003346
X-002854Y009106
X-002362Y008122
X-003346
X-002854Y007138
X-00187
X-002362Y006154
X-003346
X-002854Y005169
X-00187
X-000886
X-000394Y004185
X-001378
X-002362
X-003346
X-002854Y003201
X-00187
X-000886
X000098
X-000394Y002217
X-001378
X-002362
X-003346
X-002854Y001232
X-00187
X-000886
X000098
X002067
X001575Y002217
X002067Y003201
X001575Y004185
Y006154
X000591
X001083Y007138
X000098
X000591Y008122
X001575
Y010091
X000098Y009106
X-000394Y008122
X000098Y015012
X001083
X-000886
X-001378Y000248
X-002362
X-003346
X-002854Y01698
X-00187
X000098
X000591Y015996
X-000394
X002559
X003543
X00375Y01725
X00425
X004528Y017965
X003543
X00325Y01825
X003051Y018949
X00425Y01875
Y01925
X00502Y018949
X003543Y019933
X004035Y020917
X003051
X002067
X002559Y021902
X003543
Y02387
X004528
X005512
X00502Y022886
X004035Y024854
X00375Y0255
X00405Y0258
X003051Y026823
X002067
X002559Y027807
X003543
X003051Y028791
X001Y0295
X0005
X000591Y027807
X000098Y026823
X-00025Y0264
X-000886Y026823
X-001378Y029776
X-002362
X-00187Y03076
X-000886
X00575Y03025
X00535Y02985
X005Y0275
Y027
X002559Y02387
X001575
Y021902
X000591
X00075Y02075
X00025
Y01975
Y01925
X001154Y019
X00125Y01825
X002559Y017965
X003051Y01698
X002067
X-003346Y017965
X-002854Y018949
X-00245Y02125
X-000886Y022886
X000098
X-003346Y02387
X-00325Y02525
X00625Y02375
X00675
X00748Y02387
X008465
X009449
X010433
X011417
X012402
X012Y0225
X0115Y0229
X011417Y021902
X012402
X0135Y0225
X0155Y0224
X0165Y02225
X017323Y021902
X018307
X020276
X02025Y02255
X020276Y02387
X01975Y024
X02126Y02387
X021752Y024854
X020768
X01825Y0245
X017
X016831Y024854
X017323Y025839
X018307
X017815Y026823
X016831
X0175Y0275
X016339Y027807
X01525Y02825
Y02725
Y02625
Y02525
X01475Y0245
X01437Y02387
X016339Y025839
X012402
X011417
X010433
X009449
X008465
X008957Y026823
Y028791
X00775Y0288
X008465Y029776
X00775Y0305
X006496Y029776
X0065Y0275
Y027
X009941Y024854
X010925
X009941Y022886
X008957
X007972
X00775Y02185
X00745Y0215
X006988Y020917
X007972
X008957
X009449Y021902
X008465
X00748Y019933
X006496
X00748Y01698
X008465
X009449
X0095Y016
X008957Y015996
X007972
X008957Y017965
X011417Y01698
X012402
X015354
X015846Y017965
X017323Y01698
X015846Y020917
X02126Y021902
X0215Y02795
X02025Y0275
Y0285
X019783Y026823
X0165Y03015
X01525Y03025
Y0297
X01437Y029776
X0137Y02875
X01205Y02795
X02315
X02405
X0246Y02905
X025
X0255
Y03
X02635Y0305
X026Y03085
X02415Y03135
X0237
X0233
X0276Y02925
Y028836
X028041
X029Y02925
X0296
X0301
X03145Y0293
X03195Y02935
X03175Y02825
X03305Y0286
X034496Y029
X0353Y02905
Y0294
X03535Y0274
X03575
X0336Y0271
X0329Y02675
X0324
X032475Y024725
X03175Y025
X03325Y0228
X035Y02275
X036024Y021902
X03675Y02325
X036516Y024854
X037008Y025839
X0335Y021
X03175
X03061Y020917
X031Y02175
X030118Y021902
X0292Y02175
X02825Y02225
X02775
Y0217
X027165Y021902
X027657Y020917
X028642Y022886
X02975Y0228
X029134Y02387
X027165
X026181
X025197
X024213
X023228
X02225Y02375
X0227Y022563
X0237Y02255
X023228Y021902
X022736Y020917
Y017965
X02725Y0183
X02735Y01735
X02785
X0285
X0295Y01755
X029626Y017965
X0305Y01825
X0303Y01735
X0313
X0318
X03295Y01755
X033563Y017965
X034055Y01698
X0345Y017
X036024Y01698
X0325Y02175
X02585Y02255
X025197Y021902
X025689Y026823
X02675Y02675
X02815Y025839
X02855Y0277
X028923Y028027
X030118Y027807
X03287Y03133
X022244Y025839
X037992
X038976
X039469Y024854
X038484
X0375
Y026823
X038484
X03855Y02875
X039469Y028791
X040453
X039961Y029776
X039469Y03076
X039Y03125
X0375Y03076
X04439
X044882Y029776
X04439Y028791
X044882Y027807
X044Y02725
X04265Y027
X0415Y02675
X04155Y02475
X042421Y024854
X04275Y0242
X04225Y02325
Y02225
X041929Y021902
X042913
X043898
X044882
Y02387
X0436Y02525
X042913Y025839
X04065Y0249
X04125Y02325
X0402Y02215
X03825Y02225
X0375
X038484Y022886
X039Y0233
X038484Y020917
X037992Y01698
X041929
X04525Y0165
X045374Y017965
X047835Y018949
X048327Y019933
X049311
X049803Y020917
X048819
X049311Y021902
X048327
X047343Y019933
X049803Y018949
Y01698
X047835
X052264Y019933
X052756Y020917
X050295Y02387
X049411Y024161
X05Y028
Y0284
X0505Y0285
X048819Y028791
X05Y03025
X049803Y03076
X054232Y029776
X05425Y0291
X056201Y029776
X057185
X057677Y03076
Y028791
X058169Y027807
X057185
X0565Y02775
X056201Y025839
X0565Y02475
X0545Y02525
Y024
Y02355
X05375Y02375
X053248Y021902
X05475Y022
Y0215
Y021
X054724Y018949
X0545Y0184
Y018
X054952Y016752
X056201Y015996
X058661Y01698
X059646
X058Y01785
X058169Y019933
X060138
X061122
X06063Y020917
X06075Y0216
X062106Y021902
X063091
X0643Y02175
X065059Y021902
X066043
X065551Y022886
X066043Y02387
X065059
X065551Y024854
X064567
X062106Y025839
X061122
X060138
X059154
X05935Y0253
X058169Y025839
X059Y023
X0585Y02245
X059646Y020917
X062598
X063583
X064075Y019933
X065059
X065551Y020917
Y018949
X06625Y01925
X06725Y02
X06775Y0215
X06825Y018
X06675Y016
X065059Y015996
X064075
X0637Y01675
X065551Y01698
X063689Y019161
X062598Y018949
X063091Y019933
X056693Y018949
X053248Y025839
X068996
X06998
X069488Y024854
X06998Y02387
X068996
X069488Y022886
X06998Y021902
X068996
X069488Y020917
X06998Y019933
X068996
X069488Y018949
X06998Y017965
X068996
X069488Y01698
X06998Y015996
X068996
X057185Y031744
X056201
X056693Y032728
X057677
Y034697
X056693
X055709
X05435Y03435
X054724Y032728
X055709
X054232Y031744
X055709Y036665
X056693
X057677
Y038634
X057185Y039618
X056201
Y041587
X057185
X057677Y040602
X055217Y041587
X054Y043
X053248Y045524
X054724Y046508
X056693
X057677
X052756
X051Y04525
Y04425
X0498Y04475
X04975Y04375
Y04275
X04795Y0425
X0455
X04525Y04375
X04425Y04325
X04375Y0425
X0433Y042
X0431Y041
X043406Y040602
X04425Y041
X044Y039
X04405Y0373
X044882Y03765
Y035681
X04375Y03525
Y0335
X04265Y034
Y03275
X041437Y032728
X040453
Y034697
Y036665
Y038634
X04125Y03875
X04195Y04065
X0415Y0415
X041437Y042571
X042421
X040945Y043555
X038484Y042571
X03825Y04
X037992Y039618
X038976
X039469Y040602
X038484Y038634
X03825Y0366
Y036135
X0375Y034697
X04265Y03625
X048327Y035681
X049311
Y03765
X050561Y03775
X05055Y03675
X052756Y036665
Y034697
X05055Y03345
Y03175
X050295Y039618
X051061Y03975
X050787Y040602
X04975Y0405
X052756Y040602
X04875Y04475
X04795Y045
X04875Y04675
X0498
X04525Y04625
X04439Y046508
X04425Y0445
X043Y0455
X0398Y046
Y0466
X0395Y0463
Y0469
X03515Y0444
X0345Y0435
X033071Y043555
X033563Y044539
X032579Y042571
X031594
X0315Y04075
X0308
X03045Y0411
X0301Y04075
X02975Y0411
X03115
X03225Y04025
X032661Y0405
X03335Y0399
X033Y0395
X03195Y0397
X03165Y03925
X02935Y0391
X02945Y0396
X02775Y04
X02725Y03925
Y038728
X026673Y038634
X026181Y03765
X02505Y0367
X02475Y0364
X02435Y03635
X02405Y036
X0238Y0356
X02405Y03525
X0246Y034
X025Y03405
Y0335
X02525Y03315
X02555Y034
X0261
X02615Y03545
X0256Y0356
X028224Y03595
X0287Y037026
X03045
X0322
X03295Y0371
Y0367
X033776
X0338Y035
X0359Y03565
X0362Y0367
X0373Y03675
X03625Y03825
X036024Y039618
X03475Y03885
X03435Y0392
X03405Y039724
X034055Y041587
X029Y04475
X029134Y045524
X027657Y046508
X026673
X025689
X024705
X02372
Y044539
X024Y04425
X02425Y04385
X024705Y042571
X025689
X026673
X025197Y041587
X022736Y042571
X022244Y043555
Y045524
X02305Y037
X0228Y0365
X022244Y033713
X0241Y0327
X0244Y0324
X0282Y0319
X0293Y031474
X0313
X028224Y03395
X035788Y034213
X0365Y0342
X03625Y0321
X03695Y03225
X020768Y032728
X020276Y033713
X019291
X018307
X018799Y032728
X017815
X018307Y031744
X017323
X015846Y032728
X014862
X01437Y033713
X016339
Y035681
X015354
X01437
X013878Y036665
X012402Y035681
Y033713
X011909Y032728
X010925
X009941
X008957
X0095Y032
Y0335
X008465Y033713
X00748
X006988Y034697
X00748Y035681
X008465
X008957Y036665
X0095Y0365
Y035
X008957Y034697
X009941Y038634
X010925
X011909
X012894
X014862
X015354Y039618
X01437
X014862Y040602
X015846
X015354Y041587
X01437
X013386
X013878Y042571
X014862
X015354Y043555
X016339
X017323
X017815Y044539
X016831
X017323Y045524
X016339
X015354
X01437
X01325Y04585
X012894Y046508
X013878
X014862
X016831
X017815
X020768
X020276Y045524
X02025Y04435
X020276Y043555
X0195Y04425
Y042
X019783Y040602
X020768
X021752
Y038634
X020768
X019783
Y036665
X020768
X02125Y03625
X020276Y035681
X019291
X018307
X018799Y036665
X017815
X016831
Y038634
X017815
X017323Y041587
X016831Y042571
X01437Y043555
X013386
X012894Y042571
X01215Y0433
X0115Y043
X010925Y042571
X009941
X008957
X007972
X006988
X006496Y041587
X0075Y04025
X007972Y040602
X008957
X009941
X010925
X011417Y039618
X010433
X009449
Y041587
X010433
Y043555
X009449
X00925Y0439
X008957Y044539
X008967Y045917
X008533
Y04635
Y046783
X008967
Y04635
X0106Y04655
Y04615
Y04575
X0069Y04635
X014862Y044539
X013878Y040602
X012894
X00645Y03225
X005512Y031744
X005Y0315
X004528Y031744
X003543
X004035Y032728
X00502
X004528Y033713
X004035Y034697
X003051
X002067
X001083
X000098
X-000886
X-000394Y033713
X-001378
X-000886Y032728
X-000394Y031744
X000591
X00165Y03205
X002
X00235
Y0324
X002
X00165
X003051Y032728
X00245Y0357
X002
X00155
X001575Y03765
X-000394
X-001378
X-002362
X-003346
X-002854Y038634
X-00187
X-000886
Y040602
X000098
X0005Y041
X000591Y041587
X-000394
X-001378
X-000886Y042571
X000098
X001083
X002067
X003051
X004035
X00502
X005512Y043555
X004528
X003543
X002559
X000591
X000098Y044539
X-000886
X-00187
X-001378Y045524
X-000886Y046508
X000098
X001083
X003051
X004528Y045524
X004035Y044539
X005Y04425
X004528Y041587
X003543
X003051Y040602
X00275Y04025
X002067Y040602
X001083
X000591Y039618
X-002362
X-003346
X-002854Y040602
X-003346Y041587
Y043555
X-001378
X-00187Y042571
Y046508
X-003346Y045524
X-002854Y036665
X-00187
X-002362Y035681
X-003346
X-002362Y031744
X00502Y036665
Y038634
X004035
X003543Y047492
X002559
X001575
X000591
X001083Y048476
X002067
X003051
X004035
X004528Y049461
X003543
X002559
X003051Y050445
X003543Y051429
X004528
X005512
X006004Y052413
X00502
Y050445
X006004
Y054382
X005512Y055366
X004528
X003543
X002559
X001575
X000591
X001083Y054382
X000591Y053398
X001083Y052413
X000098
X-000886
X-000394Y051429
X000591
X001083Y050445
X002559Y051429
X003051Y052413
X-001378Y051429
X-002362
X-003346
X-002854Y050445
X-00187
Y048476
X-000886
X000098
X-001378Y047492
X-003346
Y049461
X0069Y04765
X008533Y04765
Y047217
X008967
Y04765
Y048083
X008533
X009449Y049461
X00915Y0501
X008957Y050445
X009941
X010925
Y052413
X011909
X012894
X013878
X014862
X015846
X016831
X017815
X018307Y053398
X017323
X016339
X015354
X01437
X013386
X012402
X011417
X010433
X009449
X008465
X00748
X007972Y054382
X008957
X009941
X010925
X011909
X012894
X013878
X014862
X015846
X016831
X017815
X017323Y055366
X016339
X015354
X01437
X013386
X012402
X011417
X010433
X009449
X008465
X00748
X006496
X006988Y054382
X0067Y05175
X007972Y052413
X008957
X009941
X012402Y051429
X013386
X01437
X015354
X016339
X017323
X018307
X017815Y050445
X016831
X015846
X014862
X013878
Y048476
X01285Y04845
X010574Y048485
X0106Y04715
X01437Y047492
X015354
X016339
X017323
X017815Y048476
X016831
X015846
X016339Y049461
X017323
X018307
X019783Y050445
X02126Y049461
X021752Y048476
X020768
X015354Y049461
X020276Y055366
X02126
X02372Y052413
X024705
X025689
X026673
X0265Y0515
Y051
Y0505
Y05
Y0495
Y049
Y0485
X026
X0255
X025
X0245
Y049
X025
X0255
X026
Y0495
X0255
X025
X0245
Y05
X025
X0255
X026
Y0505
X0255
X025
X0245
Y051
X025
X0255
X026
Y0515
X0255
X025
X0245
X02372Y050445
Y048476
X024213Y047492
X025197
X026181
X027165
X02815
X0295Y0475
X029226Y049286
X03Y04975
Y05075
Y05175
X031102Y051429
X033071
X03375Y05175
X033563Y050445
X034547
X035531
X036Y05075
X035039Y049461
X034055
X033071
X032579Y050445
X03275Y04775
X03325
X03375
X03525
X035531Y048476
X035039Y053398
X034547Y054382
X035039Y055366
X03625Y0555
X037008Y055366
X030118
X03061Y054382
X030118Y053398
X029134
X027Y0515
Y051
Y0505
Y05
Y0495
Y049
Y0485
X027657Y048476
Y050445
X022244Y049461
X03775Y04925
Y05025
X038484Y048476
X0395Y0481
Y0475
X0398Y0472
X040453Y048476
X04035Y051
X039961Y053398
X038976
Y055366
X039961
X040945
X041929
X042913
X043898
X044882
X04525Y05375
X045374Y052413
X04525Y05125
X044882Y051429
X043898
X042913
X04275Y052
Y053
X042913Y053398
X04275Y0545
X041437Y054382
X037992Y055366
X04275Y0505
X042913Y049461
X0437Y0489
X04425Y048
Y047
X04525Y04875
X047945Y05
X04875Y0495
X04975Y0505
Y0515
X051
X05085Y0505
X05075Y0495
X051Y0485
Y04775
X052756Y048476
X052264Y049461
X052756Y050445
X05305Y0525
X052756Y054382
X052264Y055366
X05128
X05075Y0555
X051Y0545
X04975
X049616Y053022
X04875Y0525
X0509Y05275
X051Y05325
X0485Y0555
X04795Y0475
X053248Y049461
X05345Y04985
X054232Y049461
X05525Y04985
X055217Y051429
X056201
X057185
X057677Y052413
X057185Y053398
X056201
Y055366
X057185
X057677Y054382
X054724
X055217Y055366
X054232
X053248
X056693Y050445
X057677
Y048476
X056693
X054724
T02
X03975Y035289
Y037211
T03
X00975Y01775
X01075
X012
X013
X01425
X01525
X0165
X0175
X01875
X01975
X021
Y02075
X01975
X01875
X0175
X0165
X01525
X01425
X013
X012
X01075
X00975
X022
X02325
X02425
X0255
X0265
Y01775
X0255
X02425
X02325
X022
X0345
X0355
X03675
Y02075
X0355
X0345
X03775
X039
X04
X04125
X04225
X0435
X0445
X0455Y0225
Y0235
Y02475
Y02575
Y027
Y028
Y02925
Y03025
X0485
Y02925
Y028
Y027
Y02575
Y02475
Y0235
Y0225
X0445Y01775
X0435
X04225
X04125
X04
X039
X03775
X0455Y0315
Y0325
Y034
Y035
Y03625
Y03725
Y0385
Y0395
X0485
Y0385
Y03725
Y03625
Y035
Y034
Y0325
Y0315
T04
X00725Y0026
X01025Y0019
X00375
X00075Y0026
X000734Y009
X-001234
X0045Y008016
Y009984
X00453Y0143
X00197
X006Y0065
X-00225Y0195
X0235Y0245
Y0255
X0245
Y0245
X0255
Y0255
X0265
Y0245
X0275
Y0255
X003984Y05005
X002016
X0385Y054
X0395
X0405
T05
X011864Y-001319
X012955
X014045
X015136
X015681Y-000201
X014591
X0135
X012409
X011319
X025569
X026659
X02775
X028841
X029931
X029386Y-001319
X028295
X027205
X026114
T06
X039138Y005537
X043862
X035862
X031138
X027612
X022888
X019612
X014888
T07
X040732Y-00095
X041682
X042632
X043582
X044532
X045482
X046432
X047382
X048332
X049282
X050232
X051182
X052132
X053082
X052606Y0
X051656
X050706
X049756
X048806
X047856
X046906
X045956
X045006
X044056
X043106
X042156
X041206
X040256
X053556
X054506
X055456
X056406
X057356
X058306
X059256
X058782Y-00095
X057832
X056882
X055932
X054982
X054032
Y000949
X054982
X055932
X056882
X057832
X058782
X059732
X053082
X052132
X051182
X050232
X049282
X048332
X047382
X046432
X045482
X044532
X043582
X042632
X041682
X040732
X040191Y0135
X044309
X035059
X030941
X026559
X022441
X019809
X015691
X04Y025313
Y033187
T08
X0415Y00475
X043862Y010341
X039138
X035862
X031138
X027612
X022888
X02525Y00475
X0335
X01725
X014888Y010341
X019612
X008Y01
Y009
Y008
T09
X031766Y053516
Y055484
X033734
Y053516
X03275Y0545
T10
X0Y0
X002
X004
X006
X067Y02775
Y02975
Y03175
Y03375
Y0365
Y0385
Y0405
Y0425
Y0445
Y0465
X-00025Y04575
Y04375
Y04775
Y04975
X067Y0505
Y0485
T11
X05825Y0297
X0645Y0345
T12
X-002362Y-002705
X068504
X064567Y028791
X05374Y038634
X-002362Y054382
X05374Y047492
X064567Y053398
X068504Y054382
T13
X008581Y-00076
X018419
X022831
X032669
M30
