G04 Layer_Color=128*
%FSLAX25Y25*%
%MOIN*%
G70*
G01*
G75*
%ADD10R,0.03740X0.02953*%
%ADD17R,0.03500X0.04000*%
%ADD18R,0.03543X0.05118*%
%ADD20O,0.08661X0.02362*%
%ADD31R,0.10630X0.04724*%
%ADD32R,0.04000X0.03500*%
%ADD33R,0.05906X0.10236*%
%ADD34R,0.09843X0.07874*%
%ADD35R,0.03937X0.02756*%
%ADD36R,0.05118X0.03347*%
D10*
X-82500Y66043D02*
D03*
Y58957D02*
D03*
D17*
X-58429Y-1654D02*
D03*
X-52429D02*
D03*
Y4252D02*
D03*
X-58429D02*
D03*
X-26500Y4500D02*
D03*
X-32500D02*
D03*
D18*
X-53256Y20563D02*
D03*
Y28437D02*
D03*
X-8677Y31319D02*
D03*
Y39193D02*
D03*
D20*
X-26945Y29000D02*
D03*
Y24000D02*
D03*
Y19000D02*
D03*
Y14000D02*
D03*
X-45842Y29000D02*
D03*
Y24000D02*
D03*
Y19000D02*
D03*
Y14000D02*
D03*
D31*
X12303Y33315D02*
D03*
Y22685D02*
D03*
D32*
X-69217Y47000D02*
D03*
Y53000D02*
D03*
X-51500D02*
D03*
Y47000D02*
D03*
X-63311D02*
D03*
Y53000D02*
D03*
X-57406D02*
D03*
Y47000D02*
D03*
X-6709Y7744D02*
D03*
Y1744D02*
D03*
X-30500Y55000D02*
D03*
Y61000D02*
D03*
X-25000D02*
D03*
Y55000D02*
D03*
D33*
X-73146Y38209D02*
D03*
X-61335D02*
D03*
Y21772D02*
D03*
X-73146D02*
D03*
D34*
X12303Y62402D02*
D03*
Y45866D02*
D03*
D35*
X7579Y4921D02*
D03*
X17028Y1181D02*
D03*
Y8661D02*
D03*
D36*
X-82500Y1634D02*
D03*
Y-6634D02*
D03*
M02*
