G04 Layer_Color=65535*
%FSLAX25Y25*%
%MOIN*%
G70*
G01*
G75*
%ADD21C,0.01000*%
%ADD37C,0.00984*%
%ADD38C,0.02362*%
%ADD39C,0.00787*%
%ADD40C,0.00500*%
D21*
X-57823Y32152D02*
X-63821D01*
Y35151D01*
X-62822Y36150D01*
X-60822D01*
X-59823Y35151D01*
Y32152D01*
Y34151D02*
X-57823Y36150D01*
X-62822Y38150D02*
X-63821Y39149D01*
Y41149D01*
X-62822Y42148D01*
X-61822D01*
X-60822Y41149D01*
X-59823Y42148D01*
X-58823D01*
X-57823Y41149D01*
Y39149D01*
X-58823Y38150D01*
X-59823D01*
X-60822Y39149D01*
X-61822Y38150D01*
X-62822D01*
X-60822Y39149D02*
Y41149D01*
D37*
X-62594Y57276D02*
G03*
X-62594Y57276I-492J0D01*
G01*
X-43634Y53575D02*
G03*
X-43634Y53575I-492J0D01*
G01*
X-55224Y47295D02*
G03*
X-55224Y47295I-492J0D01*
G01*
X-71457Y15846D02*
G03*
X-71457Y15846I-492J0D01*
G01*
X-28957D02*
G03*
X-28957Y15846I-492J0D01*
G01*
D38*
X-34087Y47768D02*
G03*
X-34087Y47768I-1181J0D01*
G01*
D39*
X-50197Y36811D02*
Y37992D01*
X-53150Y36811D02*
Y37992D01*
X-87500Y5000D02*
X-77500D01*
X-87500D02*
Y55000D01*
X-77500Y5000D02*
Y55000D01*
X-87500D02*
X-77500D01*
X-61905Y63181D02*
X-50094D01*
X-61905Y60819D02*
X-50094D01*
Y63181D01*
X-61905Y60819D02*
Y63181D01*
X-69539Y59606D02*
Y60394D01*
X-74461Y59606D02*
Y60394D01*
X-14894Y67461D02*
X-14106D01*
X-14894Y62539D02*
X-14106D01*
X-5000Y-5000D02*
Y65000D01*
Y-5000D02*
X5000D01*
Y65000D01*
X-5000D02*
X5000D01*
X-39205Y27295D02*
Y51705D01*
X-14796Y27295D02*
Y51705D01*
X-39205D02*
X-14796D01*
X-39205Y27295D02*
X-14796D01*
X-69693Y24264D02*
Y44736D01*
X-56307Y24264D02*
Y44736D01*
X-66043Y-4843D02*
X-58957D01*
X-66043Y14842D02*
X-58957D01*
Y-4843D02*
Y14842D01*
X-66043Y-4843D02*
Y14842D01*
X-23543Y-4843D02*
Y14842D01*
X-16457Y-4843D02*
Y14842D01*
X-23543D02*
X-16457D01*
X-23543Y-4843D02*
X-16457D01*
X-81024Y61910D02*
Y63090D01*
X-83976Y61910D02*
Y63090D01*
X-81024Y-3091D02*
Y-1909D01*
X-83976Y-3091D02*
Y-1909D01*
D40*
X-85500Y56500D02*
X-88649D01*
Y58074D01*
X-88124Y58599D01*
X-87074D01*
X-86550Y58074D01*
Y56500D01*
X-85500Y61748D02*
Y59649D01*
X-87599Y61748D01*
X-88124D01*
X-88649Y61223D01*
Y60173D01*
X-88124Y59649D01*
X-66255Y64000D02*
X-63959D01*
X-63500Y64459D01*
Y65377D01*
X-63959Y65837D01*
X-66255D01*
X-63500Y68133D02*
X-66255D01*
X-64877Y66755D01*
Y68592D01*
X-67296Y56837D02*
X-67755Y56378D01*
Y55459D01*
X-67296Y55000D01*
X-65459D01*
X-65000Y55459D01*
Y56378D01*
X-65459Y56837D01*
Y57755D02*
X-65000Y58214D01*
Y59132D01*
X-65459Y59592D01*
X-67296D01*
X-67755Y59132D01*
Y58214D01*
X-67296Y57755D01*
X-66837D01*
X-66378Y58214D01*
Y59592D01*
X-9163Y60296D02*
X-9623Y60755D01*
X-10541D01*
X-11000Y60296D01*
Y58459D01*
X-10541Y58000D01*
X-9623D01*
X-9163Y58459D01*
X-8245Y60296D02*
X-7786Y60755D01*
X-6867D01*
X-6408Y60296D01*
Y59837D01*
X-6867Y59377D01*
X-6408Y58918D01*
Y58459D01*
X-6867Y58000D01*
X-7786D01*
X-8245Y58459D01*
Y58918D01*
X-7786Y59377D01*
X-8245Y59837D01*
Y60296D01*
X-7786Y59377D02*
X-6867D01*
X-5000Y66500D02*
Y69255D01*
X-3622D01*
X-3163Y68796D01*
Y67878D01*
X-3622Y67418D01*
X-5000D01*
X-2245Y66500D02*
X-1327D01*
X-1786D01*
Y69255D01*
X-2245Y68796D01*
X-44126Y59755D02*
Y57459D01*
X-43667Y57000D01*
X-42749D01*
X-42290Y57459D01*
Y59755D01*
X-41371Y57000D02*
X-40453D01*
X-40912D01*
Y59755D01*
X-41371Y59296D01*
X-53500Y46979D02*
X-51663Y44224D01*
Y46979D02*
X-53500Y44224D01*
X-50745D02*
X-49827D01*
X-50286D01*
Y46979D01*
X-50745Y46520D01*
X-64500Y50500D02*
Y53255D01*
X-63122D01*
X-62663Y52796D01*
Y51877D01*
X-63122Y51418D01*
X-64500D01*
X-63582D02*
X-62663Y50500D01*
X-61745D02*
X-60827D01*
X-61286D01*
Y53255D01*
X-61745Y52796D01*
X-74754Y19343D02*
X-75213Y19802D01*
X-76131D01*
X-76591Y19343D01*
Y17506D01*
X-76131Y17047D01*
X-75213D01*
X-74754Y17506D01*
X-73835Y19802D02*
X-71999D01*
Y19343D01*
X-73835Y17506D01*
Y17047D01*
X-68663Y50296D02*
X-69122Y50755D01*
X-70041D01*
X-70500Y50296D01*
Y48459D01*
X-70041Y48000D01*
X-69122D01*
X-68663Y48459D01*
X-65908Y50755D02*
X-66827Y50296D01*
X-67745Y49378D01*
Y48459D01*
X-67286Y48000D01*
X-66368D01*
X-65908Y48459D01*
Y48918D01*
X-66368Y49378D01*
X-67745D01*
X-46663Y19796D02*
X-47122Y20255D01*
X-48041D01*
X-48500Y19796D01*
Y17959D01*
X-48041Y17500D01*
X-47122D01*
X-46663Y17959D01*
X-43908Y20255D02*
X-45745D01*
Y18878D01*
X-44827Y19337D01*
X-44368D01*
X-43908Y18878D01*
Y17959D01*
X-44368Y17500D01*
X-45286D01*
X-45745Y17959D01*
X-38100Y13953D02*
X-38559Y14412D01*
X-39478D01*
X-39937Y13953D01*
Y12117D01*
X-39478Y11658D01*
X-38559D01*
X-38100Y12117D01*
X-35805Y11658D02*
Y14412D01*
X-37182Y13035D01*
X-35345D01*
X-46663Y24296D02*
X-47122Y24755D01*
X-48041D01*
X-48500Y24296D01*
Y22459D01*
X-48041Y22000D01*
X-47122D01*
X-46663Y22459D01*
X-45745Y24296D02*
X-45286Y24755D01*
X-44368D01*
X-43908Y24296D01*
Y23837D01*
X-44368Y23378D01*
X-44827D01*
X-44368D01*
X-43908Y22918D01*
Y22459D01*
X-44368Y22000D01*
X-45286D01*
X-45745Y22459D01*
X-29664Y65296D02*
X-30123Y65755D01*
X-31041D01*
X-31500Y65296D01*
Y63459D01*
X-31041Y63000D01*
X-30123D01*
X-29664Y63459D01*
X-26909Y63000D02*
X-28745D01*
X-26909Y64837D01*
Y65296D01*
X-27368Y65755D01*
X-28286D01*
X-28745Y65296D01*
X-47063Y14287D02*
Y11991D01*
X-46604Y11531D01*
X-45685D01*
X-45226Y11991D01*
Y14287D01*
X-42471Y11531D02*
X-44308D01*
X-42471Y13368D01*
Y13827D01*
X-42930Y14287D01*
X-43849D01*
X-44308Y13827D01*
X-13000Y18755D02*
Y16459D01*
X-12541Y16000D01*
X-11622D01*
X-11163Y16459D01*
Y18755D01*
X-10245Y18296D02*
X-9786Y18755D01*
X-8867D01*
X-8408Y18296D01*
Y17837D01*
X-8867Y17378D01*
X-9327D01*
X-8867D01*
X-8408Y16918D01*
Y16459D01*
X-8867Y16000D01*
X-9786D01*
X-10245Y16459D01*
X-76500Y59500D02*
X-79649D01*
Y61074D01*
X-79124Y61599D01*
X-78074D01*
X-77549Y61074D01*
Y59500D01*
Y60549D02*
X-76500Y61599D01*
Y62649D02*
Y63698D01*
Y63173D01*
X-79649D01*
X-79124Y62649D01*
Y65272D02*
X-79649Y65797D01*
Y66847D01*
X-79124Y67371D01*
X-77025D01*
X-76500Y66847D01*
Y65797D01*
X-77025Y65272D01*
X-79124D01*
X-85500Y-6500D02*
X-88649D01*
Y-4926D01*
X-88124Y-4401D01*
X-87074D01*
X-86550Y-4926D01*
Y-6500D01*
Y-5451D02*
X-85500Y-4401D01*
Y-3351D02*
Y-2302D01*
Y-2827D01*
X-88649D01*
X-88124Y-3351D01*
X-85500Y1371D02*
Y-728D01*
X-87599Y1371D01*
X-88124D01*
X-88649Y847D01*
Y-203D01*
X-88124Y-728D01*
M02*
