G04 Layer_Physical_Order=2*
G04 Layer_Color=16711680*
%FSLAX44Y44*%
%MOMM*%
G71*
G01*
G75*
%ADD10O,2.2000X0.6000*%
%ADD12R,0.9000X1.3000*%
%ADD13R,0.8890X1.0160*%
%ADD20C,0.2540*%
%ADD21C,1.5000*%
%ADD22R,1.5000X1.5000*%
%ADD23C,0.8000*%
%ADD24R,1.0160X0.8890*%
%ADD25R,1.5000X2.6000*%
G36*
X466063Y240187D02*
X240049D01*
Y447451D01*
X466063D01*
Y240187D01*
D02*
G37*
%LPC*%
G36*
X368300Y444957D02*
X365959Y444492D01*
X363974Y443165D01*
X362648Y441181D01*
X362183Y438840D01*
X362336Y438070D01*
X362112Y437752D01*
X361233Y437104D01*
X360330Y437284D01*
X265200D01*
X263924Y437030D01*
X262843Y436307D01*
X246562Y420028D01*
X245840Y418946D01*
X245586Y417670D01*
Y334330D01*
X245840Y333054D01*
X246562Y331973D01*
X251750Y326785D01*
Y307000D01*
X270750D01*
Y337000D01*
X252254D01*
Y348750D01*
X270750D01*
Y378750D01*
X262484D01*
Y385395D01*
X267480D01*
Y392380D01*
X270020D01*
Y385395D01*
X282480D01*
Y392380D01*
X285020D01*
Y385395D01*
X297480D01*
Y392380D01*
X300020D01*
Y385395D01*
X312480D01*
Y392380D01*
X315020D01*
Y385395D01*
X321370D01*
X322402Y384821D01*
Y372117D01*
X305143Y354857D01*
X304420Y353776D01*
X304166Y352500D01*
Y348328D01*
X303268Y347430D01*
X302683D01*
X302602Y347430D01*
X302206Y347455D01*
X301357Y348155D01*
X301309Y348497D01*
X301290Y348723D01*
X301290Y349188D01*
Y362480D01*
X292520D01*
Y348210D01*
X300067D01*
X300148Y348210D01*
X300543Y348185D01*
X301393Y347485D01*
X301441Y347143D01*
X301460Y346917D01*
X301460Y346452D01*
Y338740D01*
X301290Y337540D01*
X300190Y337540D01*
X292520D01*
Y322000D01*
Y306460D01*
X301290D01*
Y309890D01*
X306690D01*
Y318930D01*
Y327970D01*
X301290D01*
Y329230D01*
X301460Y330430D01*
X302560Y330430D01*
X314460D01*
Y337026D01*
X318814D01*
X318995Y336755D01*
X320649Y335650D01*
X322600Y335262D01*
X327266D01*
Y332758D01*
X322600D01*
X320649Y332370D01*
X318995Y331265D01*
X317890Y329611D01*
X317502Y327660D01*
X317890Y325709D01*
X318995Y324055D01*
X320649Y322950D01*
X322600Y322562D01*
X338600D01*
X340551Y322950D01*
X342205Y324055D01*
X343310Y325709D01*
X343698Y327660D01*
X343310Y329611D01*
X342205Y331265D01*
X340551Y332370D01*
X338600Y332758D01*
X333934D01*
Y335262D01*
X338600D01*
X340551Y335650D01*
X342205Y336755D01*
X343310Y338409D01*
X343698Y340360D01*
X343310Y342311D01*
X342205Y343965D01*
X340551Y345070D01*
X338600Y345458D01*
X322600D01*
X320649Y345070D01*
X318995Y343965D01*
X318814Y343694D01*
X314460D01*
Y347430D01*
X310834D01*
Y351119D01*
X328094Y368378D01*
X328816Y369460D01*
X329070Y370736D01*
Y398749D01*
X330062Y399412D01*
X330121Y399499D01*
X331336Y399131D01*
Y376858D01*
X331375Y376661D01*
Y373271D01*
X331629Y371995D01*
X332352Y370914D01*
X339296Y363969D01*
Y355839D01*
X339550Y354563D01*
X340272Y353481D01*
X345881Y347873D01*
X346963Y347150D01*
X348239Y346896D01*
X353013D01*
X353098Y346469D01*
X354424Y344484D01*
X356409Y343158D01*
X358750Y342692D01*
X361091Y343158D01*
X363076Y344484D01*
X364402Y346469D01*
X364868Y348810D01*
X364581Y350253D01*
X365435Y351717D01*
X366091Y351848D01*
X367348Y352688D01*
X368098Y352378D01*
X369424Y350393D01*
X371409Y349067D01*
X373750Y348601D01*
X376091Y349067D01*
X378076Y350393D01*
X379402Y352378D01*
X379868Y354719D01*
X379402Y357060D01*
X378076Y359044D01*
X377084Y359707D01*
Y362500D01*
X376830Y363776D01*
X376108Y364857D01*
X370877Y370088D01*
X370416Y370396D01*
X370801Y371666D01*
X372569D01*
X373845Y371920D01*
X374927Y372643D01*
X381743Y379458D01*
X382916Y378972D01*
Y373750D01*
X383170Y372474D01*
X383349Y372206D01*
X382764Y370795D01*
X382322Y370707D01*
X380338Y369381D01*
X379011Y367396D01*
X378546Y365055D01*
X379011Y362714D01*
X380338Y360729D01*
X381385Y360030D01*
Y347860D01*
X378983Y345458D01*
X370600D01*
X368649Y345070D01*
X366995Y343965D01*
X366814Y343694D01*
X365360D01*
X364084Y343440D01*
X363003Y342718D01*
X348893Y328607D01*
X348170Y327526D01*
X347916Y326250D01*
Y307424D01*
X344998Y304506D01*
X343538Y304842D01*
X342594Y306254D01*
X340762Y307479D01*
X338600Y307908D01*
X331870D01*
Y302260D01*
X330600D01*
Y300990D01*
X317204D01*
X317381Y300098D01*
X318560Y298335D01*
X311513Y291287D01*
X310790Y290206D01*
X310536Y288930D01*
Y284580D01*
X307425D01*
Y270850D01*
X307425Y270420D01*
X307425D01*
Y269580D01*
X307425D01*
Y255420D01*
X316235D01*
X319013Y252642D01*
X320094Y251920D01*
X321370Y251666D01*
X340000D01*
X341276Y251920D01*
X342357Y252642D01*
X344608Y254893D01*
X345330Y255974D01*
X345584Y257250D01*
Y271500D01*
X345330Y272776D01*
X344608Y273857D01*
X343058Y275408D01*
X341976Y276130D01*
X340700Y276384D01*
X337728D01*
X337066Y277376D01*
X336887Y277495D01*
Y278765D01*
X337066Y278884D01*
X337728Y279876D01*
X341960D01*
X343236Y280130D01*
X344318Y280853D01*
X363452Y299988D01*
X363958Y300744D01*
X365280Y300609D01*
X365381Y300098D01*
X366606Y298266D01*
X368438Y297041D01*
X370600Y296611D01*
X377330D01*
Y302260D01*
X379870D01*
Y296611D01*
X386600D01*
X388762Y297041D01*
X389260Y297374D01*
X390433Y296888D01*
X390588Y296109D01*
X391914Y294124D01*
X393899Y292798D01*
X396240Y292332D01*
X398581Y292798D01*
X400566Y294124D01*
X401892Y296109D01*
X402357Y298450D01*
X402125Y299620D01*
X412593Y310088D01*
X413766Y309601D01*
Y282591D01*
X397410Y266235D01*
X396240Y266467D01*
X393899Y266002D01*
X391914Y264676D01*
X390588Y262691D01*
X390122Y260350D01*
X390588Y258009D01*
X391914Y256024D01*
X393899Y254698D01*
X396240Y254233D01*
X398581Y254698D01*
X400566Y256024D01*
X401892Y258009D01*
X402357Y260350D01*
X402125Y261520D01*
X419458Y278853D01*
X420180Y279934D01*
X420434Y281210D01*
Y322268D01*
X421704Y322947D01*
X423109Y322008D01*
X425450Y321543D01*
X427791Y322008D01*
X429776Y323334D01*
X431102Y325319D01*
X431567Y327660D01*
X431102Y330001D01*
X429776Y331986D01*
X428784Y332648D01*
Y337750D01*
X431500D01*
Y354750D01*
X420434D01*
Y357210D01*
X423730D01*
Y366250D01*
Y375290D01*
X417960D01*
Y372164D01*
X416787Y371678D01*
X412355Y376111D01*
X411273Y376833D01*
X409997Y377087D01*
X408742D01*
X408079Y378079D01*
X406094Y379405D01*
X404768Y379669D01*
X404183Y381080D01*
X404405Y381412D01*
X404871Y383753D01*
X404405Y386094D01*
X404227Y386361D01*
X404812Y387772D01*
X406201Y388048D01*
X408186Y389374D01*
X409512Y391359D01*
X409977Y393700D01*
X409512Y396041D01*
X408186Y398026D01*
X406201Y399352D01*
X403892Y399811D01*
X403523Y400345D01*
X403212Y400928D01*
X418050Y415766D01*
X438138D01*
X438742Y414309D01*
X440265Y412325D01*
X442249Y410802D01*
X444560Y409845D01*
X447040Y409518D01*
X449520Y409845D01*
X451831Y410802D01*
X453815Y412325D01*
X455338Y414309D01*
X456296Y416620D01*
X456622Y419100D01*
X456296Y421580D01*
X455338Y423891D01*
X453815Y425875D01*
X451831Y427398D01*
X449520Y428355D01*
X447040Y428682D01*
X444560Y428355D01*
X442249Y427398D01*
X440265Y425875D01*
X438742Y423891D01*
X438138Y422434D01*
X416669D01*
X415393Y422180D01*
X414312Y421457D01*
X385986Y393132D01*
X385351Y393472D01*
X384861Y393803D01*
X384405Y396094D01*
X383079Y398079D01*
X382576Y398415D01*
X382961Y399685D01*
X385830D01*
Y412575D01*
X371670D01*
Y412575D01*
X370830D01*
Y412575D01*
X356670D01*
Y399685D01*
X360416D01*
Y396250D01*
X360670Y394974D01*
X361393Y393893D01*
X362865Y392420D01*
X362632Y391250D01*
X363098Y388909D01*
X364424Y386924D01*
X366409Y385598D01*
X368750Y385132D01*
X371091Y385598D01*
X373076Y386924D01*
X374012Y388326D01*
X375552Y388676D01*
X376412Y388101D01*
X378704Y387645D01*
X379035Y387155D01*
X379374Y386520D01*
X371188Y378334D01*
X368738D01*
X368076Y379326D01*
X366091Y380652D01*
X363750Y381118D01*
X361409Y380652D01*
X359424Y379326D01*
X358098Y377341D01*
X357861Y376150D01*
X356483Y375732D01*
X351663Y380552D01*
Y382686D01*
X352783Y383285D01*
X353258Y382968D01*
X355599Y382502D01*
X357940Y382968D01*
X359925Y384294D01*
X361251Y386278D01*
X361717Y388620D01*
X361251Y390961D01*
X359925Y392945D01*
X357940Y394272D01*
X355599Y394737D01*
X353258Y394272D01*
X352783Y393954D01*
X351663Y394553D01*
Y396250D01*
X351624Y396447D01*
Y410727D01*
X351370Y412002D01*
X350648Y413084D01*
X338829Y424903D01*
X339315Y426076D01*
X354329D01*
X356670Y423735D01*
Y414925D01*
X370830D01*
X370830Y414925D01*
X371670D01*
Y414925D01*
X372100Y414925D01*
X385830D01*
Y427815D01*
X377020D01*
X372477Y432357D01*
X372081Y432622D01*
X372070Y434142D01*
X372626Y434514D01*
X373288Y435506D01*
X429993D01*
X430799Y434524D01*
X430762Y434340D01*
X431228Y431999D01*
X432554Y430014D01*
X434539Y428688D01*
X436880Y428223D01*
X439221Y428688D01*
X441206Y430014D01*
X442532Y431999D01*
X442998Y434340D01*
X442532Y436681D01*
X441206Y438666D01*
X439221Y439992D01*
X436880Y440457D01*
X435710Y440225D01*
X434738Y441197D01*
X433656Y441920D01*
X432380Y442174D01*
X373288D01*
X372626Y443165D01*
X370641Y444492D01*
X368300Y444957D01*
D02*
G37*
G36*
X447040Y403282D02*
X444560Y402956D01*
X442249Y401998D01*
X440265Y400475D01*
X438742Y398491D01*
X437785Y396180D01*
X437458Y393700D01*
X437785Y391220D01*
X438742Y388909D01*
X440265Y386925D01*
X442249Y385402D01*
X444560Y384445D01*
X447040Y384118D01*
X449520Y384445D01*
X451831Y385402D01*
X453815Y386925D01*
X455338Y388909D01*
X456296Y391220D01*
X456622Y393700D01*
X456296Y396180D01*
X455338Y398491D01*
X453815Y400475D01*
X451831Y401998D01*
X449520Y402956D01*
X447040Y403282D01*
D02*
G37*
G36*
X432040Y375290D02*
X426270D01*
Y367520D01*
X432040D01*
Y375290D01*
D02*
G37*
G36*
X301290Y379290D02*
X292520D01*
Y365020D01*
X301290D01*
Y379290D01*
D02*
G37*
G36*
X289980D02*
X281210D01*
Y365020D01*
X289980D01*
Y379290D01*
D02*
G37*
G36*
X447040Y377882D02*
X444560Y377556D01*
X442249Y376598D01*
X440265Y375075D01*
X438742Y373091D01*
X437785Y370780D01*
X437458Y368300D01*
X437785Y365820D01*
X438742Y363509D01*
X440265Y361525D01*
X442249Y360002D01*
X444560Y359044D01*
X447040Y358718D01*
X449520Y359044D01*
X451831Y360002D01*
X453815Y361525D01*
X455338Y363509D01*
X456296Y365820D01*
X456622Y368300D01*
X456296Y370780D01*
X455338Y373091D01*
X453815Y375075D01*
X451831Y376598D01*
X449520Y377556D01*
X447040Y377882D01*
D02*
G37*
G36*
X432040Y364980D02*
X426270D01*
Y357210D01*
X432040D01*
Y364980D01*
D02*
G37*
G36*
X289980Y362480D02*
X281210D01*
Y348210D01*
X289980D01*
Y362480D01*
D02*
G37*
G36*
X447040Y352482D02*
X444560Y352155D01*
X442249Y351198D01*
X440265Y349675D01*
X438742Y347691D01*
X437785Y345380D01*
X437458Y342900D01*
X437785Y340420D01*
X438742Y338109D01*
X440265Y336124D01*
X442249Y334602D01*
X444560Y333644D01*
X447040Y333318D01*
X449520Y333644D01*
X450977Y334248D01*
X456406Y328819D01*
Y323873D01*
X455136Y323442D01*
X454201Y324661D01*
X452103Y326270D01*
X449661Y327282D01*
X448310Y327459D01*
Y317500D01*
Y307541D01*
X449661Y307718D01*
X452103Y308730D01*
X454201Y310339D01*
X455136Y311558D01*
X456406Y311127D01*
Y297483D01*
X456275Y297410D01*
X455136Y297155D01*
X453815Y298875D01*
X451831Y300398D01*
X449520Y301355D01*
X447040Y301682D01*
X444560Y301355D01*
X442249Y300398D01*
X440265Y298875D01*
X438742Y296891D01*
X438138Y295434D01*
X436880D01*
X435604Y295180D01*
X434523Y294457D01*
X432880Y292815D01*
X422920D01*
Y279925D01*
X437080D01*
Y286651D01*
X437495Y287000D01*
X437713Y287054D01*
X439156Y286769D01*
X440265Y285324D01*
X442249Y283802D01*
X444560Y282845D01*
X447040Y282518D01*
X449520Y282845D01*
X451831Y283802D01*
X453815Y285324D01*
X455136Y287045D01*
X456275Y286790D01*
X456406Y286717D01*
Y276200D01*
X437540D01*
X437080Y277279D01*
Y277575D01*
X422920D01*
Y264685D01*
X434180D01*
X434523Y264342D01*
X435604Y263620D01*
X436880Y263366D01*
X437540D01*
Y257200D01*
X454576D01*
X455062Y256027D01*
X448019Y248984D01*
X389961D01*
X386587Y252358D01*
X385505Y253080D01*
X384230Y253334D01*
X367488D01*
X366826Y254326D01*
X364841Y255652D01*
X362500Y256117D01*
X360159Y255652D01*
X358174Y254326D01*
X356848Y252341D01*
X356382Y250000D01*
X356848Y247659D01*
X358174Y245674D01*
X360159Y244348D01*
X362500Y243883D01*
X364841Y244348D01*
X366826Y245674D01*
X367488Y246666D01*
X382849D01*
X386222Y243293D01*
X387304Y242570D01*
X388579Y242316D01*
X449400D01*
X450676Y242570D01*
X451758Y243293D01*
X462098Y253633D01*
X462820Y254714D01*
X463074Y255990D01*
Y330200D01*
X462820Y331476D01*
X462098Y332557D01*
X455692Y338963D01*
X456296Y340420D01*
X456622Y342900D01*
X456296Y345380D01*
X455338Y347691D01*
X453815Y349675D01*
X451831Y351198D01*
X449520Y352155D01*
X447040Y352482D01*
D02*
G37*
G36*
X289980Y337540D02*
X281210D01*
Y323270D01*
X289980D01*
Y337540D01*
D02*
G37*
G36*
X315000Y327970D02*
X309230D01*
Y320200D01*
X315000D01*
Y327970D01*
D02*
G37*
G36*
X445770Y327459D02*
X444419Y327282D01*
X441977Y326270D01*
X439879Y324661D01*
X438270Y322563D01*
X437258Y320121D01*
X437081Y318770D01*
X445770D01*
Y327459D01*
D02*
G37*
G36*
X338600Y320608D02*
X331870D01*
Y316230D01*
X343996D01*
X343819Y317122D01*
X342594Y318954D01*
X340762Y320179D01*
X338600Y320608D01*
D02*
G37*
G36*
X329330D02*
X322600D01*
X320438Y320179D01*
X318606Y318954D01*
X317381Y317122D01*
X317204Y316230D01*
X329330D01*
Y320608D01*
D02*
G37*
G36*
X315000Y317660D02*
X309230D01*
Y309890D01*
X315000D01*
Y317660D01*
D02*
G37*
G36*
X343996Y313690D02*
X331870D01*
Y309312D01*
X338600D01*
X340762Y309741D01*
X342594Y310966D01*
X343819Y312798D01*
X343996Y313690D01*
D02*
G37*
G36*
X329330D02*
X317204D01*
X317381Y312798D01*
X318606Y310966D01*
X320438Y309741D01*
X322600Y309312D01*
X329330D01*
Y313690D01*
D02*
G37*
G36*
X445770Y316230D02*
X437081D01*
X437258Y314879D01*
X438270Y312437D01*
X439879Y310339D01*
X441977Y308730D01*
X444419Y307718D01*
X445770Y307541D01*
Y316230D01*
D02*
G37*
G36*
X289980Y320730D02*
X281210D01*
Y306460D01*
X289980D01*
Y320730D01*
D02*
G37*
G36*
X329330Y307908D02*
X322600D01*
X320438Y307479D01*
X318606Y306254D01*
X317381Y304422D01*
X317204Y303530D01*
X329330D01*
Y307908D01*
D02*
G37*
G36*
X396240Y285518D02*
X393899Y285052D01*
X391914Y283726D01*
X391252Y282734D01*
X386175D01*
Y285210D01*
X373285D01*
Y271050D01*
X386175D01*
Y276066D01*
X391252D01*
X391914Y275074D01*
X393899Y273748D01*
X396240Y273283D01*
X398581Y273748D01*
X400566Y275074D01*
X401892Y277059D01*
X402357Y279400D01*
X401892Y281741D01*
X400566Y283726D01*
X398581Y285052D01*
X396240Y285518D01*
D02*
G37*
G36*
X371475Y285750D02*
X365760D01*
Y279400D01*
X371475D01*
Y285750D01*
D02*
G37*
G36*
X363220D02*
X357505D01*
Y279400D01*
X363220D01*
Y285750D01*
D02*
G37*
G36*
X371475Y276860D02*
X365760D01*
Y270510D01*
X371475D01*
Y276860D01*
D02*
G37*
G36*
X363220D02*
X357505D01*
Y270510D01*
X363220D01*
Y276860D01*
D02*
G37*
G36*
X293750Y299867D02*
X291409Y299402D01*
X289424Y298076D01*
X288098Y296091D01*
X287633Y293750D01*
X288098Y291409D01*
X289424Y289424D01*
X291409Y288098D01*
X293750Y287633D01*
X294116Y287705D01*
X295296Y286705D01*
Y284580D01*
X292185D01*
Y270420D01*
X292185D01*
Y269580D01*
X292185D01*
Y255420D01*
X305075D01*
Y269580D01*
X305075D01*
Y270420D01*
X305075D01*
Y284580D01*
X301964D01*
Y288870D01*
X301710Y290146D01*
X300987Y291227D01*
X299635Y292580D01*
X299867Y293750D01*
X299402Y296091D01*
X298076Y298076D01*
X296091Y299402D01*
X293750Y299867D01*
D02*
G37*
%LPD*%
G36*
X318830Y400000D02*
X313750Y402540D01*
X308670Y400000D01*
Y405080D01*
X318830D01*
Y400000D01*
D02*
G37*
G36*
X303830D02*
X298750Y402540D01*
X293670Y400000D01*
Y405080D01*
X303830D01*
Y400000D01*
D02*
G37*
G36*
X288830D02*
X283750Y402540D01*
X278670Y400000D01*
Y405080D01*
X288830D01*
Y400000D01*
D02*
G37*
G36*
X273830D02*
X268750Y402540D01*
X263670Y400000D01*
Y405080D01*
X273830D01*
Y400000D01*
D02*
G37*
G36*
X318830Y396190D02*
X308670D01*
X313750Y398730D01*
X318830Y396190D01*
D02*
G37*
G36*
X303830D02*
X293670D01*
X298750Y398730D01*
X303830Y396190D01*
D02*
G37*
G36*
X288830D02*
X278670D01*
X283750Y398730D01*
X288830Y396190D01*
D02*
G37*
G36*
X273830D02*
X263670D01*
X268750Y398730D01*
X273830Y396190D01*
D02*
G37*
G36*
X394526Y324700D02*
Y320501D01*
X392319Y318294D01*
X390386D01*
X390205Y318565D01*
X388551Y319670D01*
X386600Y320058D01*
X370600D01*
X368649Y319670D01*
X366995Y318565D01*
X365890Y316911D01*
X365502Y314960D01*
X365849Y313214D01*
X365230Y311944D01*
X363220D01*
X361944Y311690D01*
X360863Y310968D01*
X360297Y310402D01*
X359124Y310889D01*
Y322389D01*
X361061Y324326D01*
X366814D01*
X366995Y324055D01*
X368649Y322950D01*
X370600Y322562D01*
X386600D01*
X388551Y322950D01*
X390205Y324055D01*
X390386Y324326D01*
X391160D01*
X392436Y324580D01*
X393256Y325128D01*
X394526Y324700D01*
D02*
G37*
D10*
X330600Y302260D02*
D03*
Y314960D02*
D03*
Y327660D02*
D03*
Y340360D02*
D03*
X378600Y302260D02*
D03*
Y314960D02*
D03*
Y327660D02*
D03*
Y340360D02*
D03*
D12*
X425000Y366250D02*
D03*
Y346250D02*
D03*
X307960Y338930D02*
D03*
Y318930D02*
D03*
D13*
X364490Y278130D02*
D03*
X379730D02*
D03*
X298630Y277500D02*
D03*
X313870D02*
D03*
Y262500D02*
D03*
X298630D02*
D03*
D20*
X348329Y379171D02*
Y396250D01*
X334147Y424870D02*
X348290Y410727D01*
Y396289D02*
Y410727D01*
Y396289D02*
X348329Y396250D01*
X343789Y377290D02*
Y391250D01*
X332266Y420330D02*
X343750Y408846D01*
Y391289D02*
Y408846D01*
Y391289D02*
X343789Y391250D01*
X330386Y415790D02*
X339210Y406965D01*
Y378739D02*
Y406965D01*
X328505Y411250D02*
X334670Y405085D01*
Y376858D02*
Y405085D01*
X363750Y396250D02*
Y406130D01*
Y396250D02*
X368750Y391250D01*
X378750Y393756D02*
X378753Y393753D01*
X378750Y393756D02*
Y406130D01*
X397690Y393700D02*
X403860D01*
X395003Y383753D02*
X398753D01*
X368300Y438840D02*
X432380D01*
X325470Y286221D02*
X330619Y291370D01*
X325470Y273970D02*
Y286221D01*
Y273970D02*
X326390Y273050D01*
X393700Y314960D02*
X397860Y319120D01*
X391160Y327660D02*
X393320Y329820D01*
X425450Y348140D02*
Y349411D01*
X416560Y250190D02*
X421640Y255270D01*
X307500Y339390D02*
X307960Y338930D01*
X436880Y266700D02*
X447040D01*
X431800Y271780D02*
X436880Y266700D01*
Y292100D02*
X447040D01*
X431800Y287020D02*
X436880Y292100D01*
X379730Y278130D02*
X381000Y279400D01*
X396240D01*
X326390Y273050D02*
X332740D01*
X378600Y327660D02*
X391160D01*
X330600Y302260D02*
Y314960D01*
X284480Y300990D02*
X285750Y302260D01*
X284480Y273050D02*
Y300990D01*
X330600Y327660D02*
Y340360D01*
X309390D02*
X330600D01*
X307960Y338930D02*
X309390Y340360D01*
X378600Y293510D02*
Y302260D01*
X374650Y289560D02*
X378600Y293510D01*
X365760Y289560D02*
X374650D01*
X364490Y288290D02*
X365760Y289560D01*
X364490Y278130D02*
Y288290D01*
X432380Y438840D02*
X436880Y434340D01*
X378600Y314960D02*
X393700D01*
X363220Y308610D02*
X396240D01*
X284480Y251770D02*
Y273050D01*
Y251770D02*
X286060Y250190D01*
X313870Y262500D02*
X321370Y255000D01*
X340000D01*
X342250Y257250D01*
Y271500D01*
X340700Y273050D02*
X342250Y271500D01*
X332740Y273050D02*
X340700D01*
X330130Y262890D02*
X332740D01*
X322169Y270850D02*
X330130Y262890D01*
X318750Y270850D02*
X322169D01*
X313870Y275730D02*
X318750Y270850D01*
X313870Y275730D02*
Y277500D01*
Y288930D01*
X320930Y295990D01*
X298630Y262500D02*
Y277500D01*
Y288870D01*
X293750Y293750D02*
X298630Y288870D01*
X342500Y250190D02*
X354810Y262500D01*
X378150D01*
X390460Y250190D01*
X286060D02*
X342500D01*
X390460D02*
X416560D01*
X362500Y250000D02*
X384230D01*
X388579Y245650D01*
X449400D01*
X459740Y255990D01*
Y330200D01*
X447040Y342900D02*
X459740Y330200D01*
X361095Y306485D02*
X363220Y308610D01*
X320930Y295990D02*
X341197D01*
X351250Y306043D01*
Y326250D01*
X330619Y291370D02*
X342998D01*
X355790Y304162D01*
Y323770D01*
X332740Y283210D02*
X341960D01*
X361095Y302345D01*
Y306485D01*
X403753Y373753D02*
X409997D01*
X401989Y365230D02*
X406979D01*
X416669Y419100D02*
X447040D01*
X392503Y381253D02*
X395003Y383753D01*
X386250Y382260D02*
X397690Y393700D01*
X392503Y374715D02*
X401989Y365230D01*
X392503Y374715D02*
Y381253D01*
X386250Y373750D02*
Y382260D01*
X355790Y323770D02*
X359680Y327660D01*
X378600D01*
X351250Y326250D02*
X365360Y340360D01*
X378600D01*
X396240Y308610D02*
X405130Y317500D01*
Y347980D01*
X384663Y365055D02*
X384719Y365000D01*
X378600Y340360D02*
X384719Y346479D01*
Y365000D01*
X386250Y373750D02*
X395227Y364773D01*
X395514D01*
X399773Y360514D01*
Y354492D02*
Y360514D01*
X397860Y352578D02*
X399773Y354492D01*
X397860Y319120D02*
Y352578D01*
X392503Y357503D02*
X393320Y356686D01*
Y329820D02*
Y356686D01*
X372569Y375000D02*
X416669Y419100D01*
X363750Y375000D02*
X372569D01*
X334709Y373271D02*
X342630Y365350D01*
Y355839D02*
X348239Y350230D01*
X342630Y355839D02*
Y365350D01*
X334709Y373271D02*
Y376819D01*
X334670Y376858D02*
X334709Y376819D01*
X348239Y350230D02*
X357330D01*
X358750Y348810D01*
X339249Y375152D02*
X351250Y363151D01*
X339210Y378739D02*
X339249Y378700D01*
Y375152D02*
Y378700D01*
X351250Y357500D02*
Y363151D01*
X348329Y379171D02*
X359770Y367730D01*
X368520D01*
X373750Y362500D01*
Y354719D02*
Y362500D01*
X343789Y377290D02*
X363579Y357500D01*
X363750D01*
X325736Y370736D02*
Y403737D01*
X307500Y352500D02*
X325736Y370736D01*
X307500Y339390D02*
Y352500D01*
X317380Y411250D02*
X328505D01*
X296460Y420330D02*
X332266D01*
X286000Y424870D02*
X334147D01*
X283750Y392380D02*
X298750D01*
X313750D01*
X285750Y302260D02*
X291250D01*
X330600D01*
X294320Y318930D02*
X307960D01*
X248920Y334330D02*
Y417670D01*
X265200Y433950D01*
X259150Y419150D02*
X269410Y429410D01*
X259150Y363350D02*
Y419150D01*
Y363350D02*
X261250Y361250D01*
X248920Y334330D02*
X261250Y322000D01*
X276250Y392380D02*
X276250Y392380D01*
X268750D02*
X276250D01*
X283750D01*
X396240Y260350D02*
X417100Y281210D01*
X421640Y255270D02*
Y308610D01*
X430530Y317500D01*
X396240Y298450D02*
X412560Y314770D01*
Y359649D01*
X417100Y281210D02*
Y366650D01*
X409997Y373753D02*
X417100Y366650D01*
X406979Y365230D02*
X412560Y359649D01*
X313750Y407620D02*
Y408750D01*
X291250Y302260D02*
Y322000D01*
X294320Y318930D01*
X425450Y327660D02*
Y345800D01*
X425000Y346250D02*
X425450Y345800D01*
X425000Y366250D02*
Y404310D01*
X424180Y405130D02*
X425000Y404310D01*
Y366250D02*
X431250D01*
X434340Y363160D01*
Y317500D02*
Y363160D01*
X430530Y317500D02*
X434340D01*
X447040D01*
X360330Y433950D02*
X364280Y430000D01*
X370120D01*
X378750Y421370D01*
X265200Y433950D02*
X360330D01*
X355710Y429410D02*
X363750Y421370D01*
X269410Y429410D02*
X355710D01*
X313750Y407620D02*
X317380Y411250D01*
X306920Y415790D02*
X330386D01*
X298750Y407620D02*
X306920Y415790D01*
X283750Y407620D02*
X296460Y420330D01*
X268750Y407620D02*
X286000Y424870D01*
X276250Y363750D02*
Y392380D01*
Y363750D02*
X291250D01*
Y322000D02*
Y363750D01*
D21*
X447040Y317500D02*
D03*
Y292100D02*
D03*
Y342900D02*
D03*
Y368300D02*
D03*
Y393700D02*
D03*
Y419100D02*
D03*
D22*
Y266700D02*
D03*
D23*
X435000Y405000D02*
D03*
X442500Y330000D02*
D03*
X285000Y285000D02*
D03*
Y255000D02*
D03*
X325736Y403737D02*
D03*
X378753Y393753D02*
D03*
X398753Y383753D02*
D03*
X403860Y393700D02*
D03*
X368300Y438840D02*
D03*
X332740Y262890D02*
D03*
Y283210D02*
D03*
X396240Y279400D02*
D03*
Y260350D02*
D03*
X284480Y273050D02*
D03*
X332740D02*
D03*
X396240Y298450D02*
D03*
X355599Y388620D02*
D03*
X425450Y327660D02*
D03*
X424180Y405130D02*
D03*
X436880Y434340D02*
D03*
X293750Y293750D02*
D03*
X362500Y250000D02*
D03*
X403753Y373753D02*
D03*
X405130Y347980D02*
D03*
X384663Y365055D02*
D03*
X392503Y357503D02*
D03*
X368750Y391250D02*
D03*
X363750Y375000D02*
D03*
X358750Y348810D02*
D03*
X351250Y357500D02*
D03*
X373750Y354719D02*
D03*
X363750Y357500D02*
D03*
D24*
X378750Y406130D02*
D03*
Y421370D02*
D03*
X363750D02*
D03*
Y406130D02*
D03*
X430000Y271130D02*
D03*
Y286370D02*
D03*
X298750Y392380D02*
D03*
Y407620D02*
D03*
X283750D02*
D03*
Y392380D02*
D03*
X313750D02*
D03*
Y407620D02*
D03*
X268750D02*
D03*
Y392380D02*
D03*
D25*
X261250Y322000D02*
D03*
X291250D02*
D03*
Y363750D02*
D03*
X261250D02*
D03*
M02*
