G04 Layer_Physical_Order=1*
G04 Layer_Color=255*
%FSLAX25Y25*%
%MOIN*%
G70*
G01*
G75*
%ADD10R,0.03740X0.02953*%
%ADD11R,0.02362X0.03937*%
%ADD12R,0.05709X0.05315*%
%ADD13R,0.05315X0.05709*%
%ADD14R,0.07087X0.01772*%
%ADD15R,0.01772X0.07087*%
%ADD16R,0.09449X0.07480*%
%ADD17R,0.03500X0.04000*%
%ADD18R,0.03543X0.05118*%
%ADD19R,0.05118X0.03543*%
%ADD20O,0.08661X0.02362*%
%ADD21C,0.01000*%
%ADD22C,0.03937*%
%ADD23C,0.01969*%
%ADD24C,0.05906*%
%ADD25R,0.05906X0.05906*%
%ADD26C,0.03150*%
G36*
X-61709Y68037D02*
X-64276D01*
X-64778Y67937D01*
X-65204Y67653D01*
X-66918Y65939D01*
X-68358D01*
Y68071D01*
X-75642D01*
Y65939D01*
X-76248D01*
X-76750Y65839D01*
X-77176Y65554D01*
X-77913Y64817D01*
X-78374Y64908D01*
X-79296Y64725D01*
X-79401Y64654D01*
X-79843Y64890D01*
Y66844D01*
X-78000Y68687D01*
X-61709D01*
Y68037D01*
D02*
G37*
G36*
X21088Y-10438D02*
X4489D01*
X4390Y-9938D01*
X4465Y-9907D01*
X5040Y-9465D01*
X9465Y-5040D01*
X9907Y-4465D01*
X10185Y-3794D01*
X10280Y-3075D01*
Y16349D01*
X14269Y20338D01*
X14710Y20913D01*
X14988Y21584D01*
X15083Y22303D01*
Y54000D01*
Y59500D01*
X14988Y60219D01*
X14710Y60890D01*
X14269Y61466D01*
X7769Y67966D01*
X7193Y68407D01*
X6523Y68685D01*
X5803Y68780D01*
X-4000D01*
X-4719Y68685D01*
X-5390Y68407D01*
X-5929Y67993D01*
X-6068Y68019D01*
X-6429Y68209D01*
Y68642D01*
X-13319D01*
Y61358D01*
X-6429D01*
Y62220D01*
X-5000D01*
X-4281Y62315D01*
X-3610Y62593D01*
X-3285Y62212D01*
X-3453Y61993D01*
X-3851Y61032D01*
X-3921Y60500D01*
X0D01*
X3921D01*
X3851Y61032D01*
X3453Y61993D01*
X2895Y62720D01*
X3048Y63220D01*
X4652D01*
X9523Y58349D01*
Y54000D01*
Y23455D01*
X5534Y19466D01*
X5093Y18890D01*
X4815Y18219D01*
X4720Y17500D01*
Y-1923D01*
X4202Y-2442D01*
X3740Y-2250D01*
Y3740D01*
X-2136D01*
X-2500Y3813D01*
X-5911D01*
X-5982Y3919D01*
X-6634Y4354D01*
X-7402Y4507D01*
X-13701D01*
X-14469Y4354D01*
X-15120Y3919D01*
X-15555Y3268D01*
X-15708Y2500D01*
X-15555Y1732D01*
X-15120Y1081D01*
X-14469Y646D01*
X-13701Y493D01*
X-7402D01*
X-6634Y646D01*
X-5982Y1081D01*
X-5911Y1187D01*
X-3740D01*
Y-3740D01*
X2250D01*
X2442Y-4202D01*
X1923Y-4720D01*
X-6281D01*
X-6433Y-4220D01*
X-5982Y-3919D01*
X-5547Y-3268D01*
X-5395Y-2500D01*
X-5547Y-1732D01*
X-5982Y-1081D01*
X-6634Y-646D01*
X-7402Y-493D01*
X-13701D01*
X-14469Y-646D01*
X-15120Y-1081D01*
X-15555Y-1732D01*
X-15708Y-2500D01*
X-15555Y-3268D01*
X-15120Y-3919D01*
X-14669Y-4220D01*
X-14821Y-4720D01*
X-18210D01*
X-18355Y-4242D01*
X-18297Y-4203D01*
X-17775Y-3422D01*
X-17592Y-2500D01*
X-17775Y-1578D01*
X-18297Y-797D01*
X-19078Y-275D01*
X-20000Y-91D01*
X-20922Y-275D01*
X-21703Y-797D01*
X-21964Y-1187D01*
X-24809D01*
X-24880Y-1081D01*
X-25531Y-646D01*
X-26299Y-493D01*
X-32598D01*
X-33367Y-646D01*
X-34018Y-1081D01*
X-34453Y-1732D01*
X-34606Y-2500D01*
X-34453Y-3268D01*
X-34018Y-3919D01*
X-33567Y-4220D01*
X-33719Y-4720D01*
X-34849D01*
X-35425Y-4144D01*
Y-669D01*
X-35520Y50D01*
X-35552Y127D01*
X-34549Y1131D01*
X-34029Y1098D01*
X-34018Y1081D01*
X-33367Y646D01*
X-32598Y493D01*
X-26299D01*
X-25531Y646D01*
X-24880Y1081D01*
X-24445Y1732D01*
X-24292Y2500D01*
X-24445Y3268D01*
X-24880Y3919D01*
X-25531Y4354D01*
X-26299Y4507D01*
X-32598D01*
X-33367Y4354D01*
X-34018Y3919D01*
X-34089Y3813D01*
X-35035D01*
X-35047Y3810D01*
X-35433Y4128D01*
Y6705D01*
X-37705D01*
Y3646D01*
X-36453D01*
X-36246Y3146D01*
X-36715Y2677D01*
X-40764D01*
Y354D01*
X-40890Y50D01*
X-40984Y-669D01*
Y-4237D01*
X-44088D01*
X-44138Y-3737D01*
X-44078Y-3725D01*
X-43297Y-3203D01*
X-42775Y-2422D01*
X-42592Y-1500D01*
X-42775Y-578D01*
X-43297Y203D01*
X-43367Y250D01*
Y750D01*
X-43297Y797D01*
X-42775Y1578D01*
X-42592Y2500D01*
X-42775Y3422D01*
X-43297Y4203D01*
X-43367Y4250D01*
Y4750D01*
X-43297Y4797D01*
X-42775Y5578D01*
X-42592Y6500D01*
X-42775Y7422D01*
X-43297Y8203D01*
X-44078Y8725D01*
X-45000Y8908D01*
X-45741Y8761D01*
X-46000Y8813D01*
X-48411D01*
X-48482Y8919D01*
X-49134Y9354D01*
X-49902Y9507D01*
X-56201D01*
X-56969Y9354D01*
X-57620Y8919D01*
X-58055Y8268D01*
X-58208Y7500D01*
X-58055Y6732D01*
X-57620Y6081D01*
X-56969Y5646D01*
X-56201Y5493D01*
X-49902D01*
X-49134Y5646D01*
X-48482Y6081D01*
X-48411Y6187D01*
X-47346D01*
X-47225Y5578D01*
X-46703Y4797D01*
X-46633Y4750D01*
Y4250D01*
X-46703Y4203D01*
X-46964Y3813D01*
X-48411D01*
X-48482Y3919D01*
X-49134Y4354D01*
X-49902Y4507D01*
X-56201D01*
X-56969Y4354D01*
X-57620Y3919D01*
X-58055Y3268D01*
X-58208Y2500D01*
X-58055Y1732D01*
X-57620Y1081D01*
X-56969Y646D01*
X-56201Y493D01*
X-49902D01*
X-49134Y646D01*
X-48482Y1081D01*
X-48411Y1187D01*
X-46964D01*
X-46703Y797D01*
X-46633Y750D01*
Y250D01*
X-46703Y203D01*
X-47225Y-578D01*
X-47346Y-1187D01*
X-48411D01*
X-48482Y-1081D01*
X-49134Y-646D01*
X-49902Y-493D01*
X-56201D01*
X-56969Y-646D01*
X-57620Y-1081D01*
X-58055Y-1732D01*
X-58208Y-2500D01*
X-58055Y-3268D01*
X-57742Y-3737D01*
X-57976Y-4237D01*
X-66735D01*
X-67002Y-3737D01*
X-66745Y-3351D01*
X-66675Y-3000D01*
X-71949D01*
X-77223D01*
X-77153Y-3351D01*
X-76895Y-3737D01*
X-77162Y-4237D01*
X-79843D01*
Y-3779D01*
X-85158D01*
Y-8307D01*
X-79843D01*
Y-7850D01*
X-39581D01*
X-37966Y-9465D01*
X-37390Y-9907D01*
X-37315Y-9938D01*
X-37414Y-10438D01*
X-90040D01*
Y71162D01*
X-79945D01*
X-79738Y70662D01*
X-82092Y68307D01*
X-85158D01*
Y65242D01*
X-87668Y62731D01*
X-87953Y62305D01*
X-88053Y61803D01*
Y44240D01*
X-87953Y43738D01*
X-87668Y43312D01*
X-85906Y41550D01*
X-86144Y40976D01*
X-86272Y40000D01*
X-86144Y39024D01*
X-85767Y38114D01*
X-85167Y37332D01*
X-84386Y36733D01*
X-83476Y36356D01*
X-82500Y36228D01*
X-81524Y36356D01*
X-80614Y36733D01*
X-79833Y37332D01*
X-79233Y38114D01*
X-78856Y39024D01*
X-78728Y40000D01*
X-78856Y40976D01*
X-79233Y41886D01*
X-79833Y42667D01*
X-80614Y43267D01*
X-81524Y43644D01*
X-82500Y43772D01*
X-83476Y43644D01*
X-84050Y43406D01*
X-85427Y44784D01*
Y46634D01*
X-84927Y46880D01*
X-84493Y46547D01*
X-83532Y46149D01*
X-83000Y46079D01*
Y50000D01*
Y53921D01*
X-83532Y53851D01*
X-84493Y53453D01*
X-84927Y53120D01*
X-85427Y53366D01*
Y56305D01*
X-85158Y56693D01*
X-79843D01*
Y59175D01*
X-78835Y60183D01*
X-78374Y60092D01*
X-77452Y60275D01*
X-76671Y60797D01*
X-76149Y61578D01*
X-76142Y61614D01*
X-75642Y61565D01*
Y61181D01*
X-68358D01*
Y63313D01*
X-66374D01*
X-65872Y63413D01*
X-65446Y63698D01*
X-63732Y65412D01*
X-61709D01*
Y63968D01*
X-57772D01*
Y65248D01*
X-57272Y65400D01*
X-57203Y65297D01*
X-56422Y64775D01*
X-55500Y64591D01*
X-54728Y64745D01*
X-54228Y64453D01*
Y63968D01*
X-50291D01*
Y68687D01*
X-35044D01*
X-34090Y67733D01*
X-34281Y67272D01*
X-35563D01*
Y64500D01*
Y61728D01*
X-33037D01*
Y60957D01*
X-36138D01*
Y61169D01*
X-37524D01*
Y56626D01*
X-38024D01*
Y56126D01*
X-39910D01*
Y52197D01*
X-42625D01*
Y61941D01*
X-40591D01*
Y67059D01*
X-47284D01*
Y61941D01*
X-45250D01*
Y52197D01*
X-48457D01*
Y50467D01*
X-48919Y50275D01*
X-49463Y50819D01*
Y54287D01*
X-49888D01*
X-50291Y54520D01*
X-50291Y54787D01*
Y60031D01*
X-53819D01*
Y60244D01*
X-55500D01*
Y57276D01*
X-56500D01*
Y60244D01*
X-58181D01*
Y60031D01*
X-61709D01*
Y54520D01*
X-60941D01*
X-60537Y54287D01*
X-60537Y54020D01*
Y52813D01*
X-62000D01*
X-62502Y52713D01*
X-62928Y52428D01*
X-63928Y51428D01*
X-64213Y51002D01*
X-64313Y50500D01*
Y47098D01*
X-68512D01*
Y40876D01*
X-71441D01*
Y42909D01*
X-76559D01*
Y36217D01*
X-71441D01*
Y38250D01*
X-68512D01*
Y38043D01*
X-57529D01*
X-57488Y38043D01*
X-57029Y37944D01*
Y34256D01*
X-60329Y30957D01*
X-65671D01*
X-67080Y32365D01*
X-67506Y32650D01*
X-68008Y32750D01*
X-71441D01*
Y34784D01*
X-76559D01*
Y28091D01*
X-71441D01*
Y30124D01*
X-68995D01*
X-68512Y29641D01*
Y22287D01*
X-68512Y21902D01*
X-68964Y21787D01*
X-70728D01*
X-70799Y21787D01*
X-71228Y21958D01*
Y23063D01*
X-73500D01*
Y20004D01*
X-71299D01*
X-71228Y20004D01*
X-70799Y19833D01*
Y19516D01*
X-67240D01*
X-63681D01*
X-63681Y21787D01*
X-63228Y21902D01*
X-63077D01*
X-62713Y21575D01*
Y16457D01*
X-60876D01*
Y13563D01*
X-60857Y13467D01*
X-61215Y12886D01*
X-61272Y12875D01*
X-62053Y12353D01*
X-62576Y11571D01*
X-62759Y10650D01*
X-62576Y9728D01*
X-62053Y8947D01*
X-61272Y8424D01*
X-60350Y8241D01*
X-59429Y8424D01*
X-58647Y8947D01*
X-58125Y9728D01*
X-57942Y10650D01*
X-57949Y10687D01*
X-57905Y10773D01*
X-57414Y10943D01*
X-56969Y10646D01*
X-56201Y10493D01*
X-49902D01*
X-49134Y10646D01*
X-48482Y11081D01*
X-48047Y11732D01*
X-47894Y12500D01*
X-48047Y13268D01*
X-48482Y13919D01*
X-48856Y14169D01*
X-48902Y14650D01*
X-48902Y14650D01*
Y17709D01*
X-51673D01*
Y18209D01*
X-52173D01*
Y21768D01*
X-53479D01*
X-53670Y22230D01*
X-53163Y22736D01*
X-49114D01*
Y29429D01*
X-50361D01*
Y31594D01*
X-49016D01*
Y36122D01*
X-49016Y36122D01*
X-48992Y36612D01*
X-48457D01*
Y33102D01*
Y29953D01*
Y26803D01*
X-40156D01*
X-39778Y26722D01*
X-39697Y26344D01*
Y18043D01*
X-17863D01*
Y17831D01*
X-16477D01*
Y22374D01*
Y26917D01*
X-17863D01*
Y26705D01*
X-26290D01*
X-26483Y27205D01*
X-26287Y27498D01*
X-26187Y28000D01*
Y32536D01*
X-25797Y32797D01*
X-25275Y33578D01*
X-25091Y34500D01*
X-25275Y35422D01*
X-25710Y36072D01*
X-25625Y36229D01*
X-25379Y36477D01*
X-24558Y36314D01*
X-24176Y36390D01*
X-23822Y36036D01*
X-23880Y35749D01*
X-23696Y34828D01*
X-23174Y34046D01*
X-22393Y33524D01*
X-21471Y33341D01*
X-20549Y33524D01*
X-19768Y34046D01*
X-19293Y34093D01*
X-19047Y33847D01*
X-18813Y33691D01*
X-18790Y33671D01*
X-18613Y33090D01*
X-18725Y32922D01*
X-18909Y32000D01*
X-18725Y31078D01*
X-18203Y30297D01*
X-17422Y29775D01*
X-16500Y29592D01*
X-15578Y29775D01*
X-14797Y30297D01*
X-14705Y30435D01*
X-14205Y30283D01*
Y26917D01*
X-15477D01*
Y22874D01*
X-14091D01*
Y26803D01*
X-10057D01*
X-9813Y26558D01*
Y25964D01*
X-10203Y25703D01*
X-10725Y24922D01*
X-10909Y24000D01*
X-10725Y23078D01*
X-10203Y22297D01*
X-9422Y21775D01*
X-8500Y21591D01*
X-7578Y21775D01*
X-6797Y22297D01*
X-6275Y23078D01*
X-6092Y24000D01*
X-6275Y24922D01*
X-6797Y25703D01*
X-7187Y25964D01*
Y26803D01*
X-5544D01*
Y29953D01*
Y33102D01*
Y36252D01*
Y39401D01*
Y42551D01*
Y46061D01*
X-4918D01*
X-2289Y43432D01*
X-2321Y42933D01*
X-2668Y42667D01*
X-3267Y41886D01*
X-3644Y40976D01*
X-3772Y40000D01*
X-3644Y39024D01*
X-3267Y38114D01*
X-2668Y37332D01*
X-1886Y36733D01*
X-976Y36356D01*
X0Y36228D01*
X976Y36356D01*
X1886Y36733D01*
X2668Y37332D01*
X3267Y38114D01*
X3644Y39024D01*
X3772Y40000D01*
X3644Y40976D01*
X3267Y41886D01*
X2668Y42667D01*
X1886Y43267D01*
X1172Y43563D01*
X928Y43928D01*
X-998Y45855D01*
X-765Y46328D01*
X0Y46228D01*
X976Y46356D01*
X1886Y46733D01*
X2668Y47333D01*
X3267Y48114D01*
X3644Y49024D01*
X3772Y50000D01*
X3644Y50976D01*
X3267Y51886D01*
X2668Y52667D01*
X1886Y53267D01*
X976Y53644D01*
X0Y53772D01*
X-976Y53644D01*
X-1886Y53267D01*
X-2668Y52667D01*
X-3267Y51886D01*
X-3288Y51836D01*
X-5544D01*
Y52197D01*
X-13844D01*
X-14222Y52278D01*
X-14303Y52656D01*
Y60957D01*
X-15047D01*
X-15469Y61146D01*
X-15469Y61457D01*
Y64500D01*
X-19126D01*
Y65000D01*
D01*
Y64500D01*
X-22783D01*
Y61457D01*
X-22783Y61146D01*
X-23205Y60957D01*
X-27262D01*
Y67348D01*
X-26775Y68078D01*
X-26592Y69000D01*
X-26775Y69922D01*
X-27269Y70662D01*
X-27152Y71162D01*
X21088D01*
Y-10438D01*
D02*
G37*
G36*
X-28481Y51795D02*
X-28588Y51724D01*
X-28956Y51172D01*
X-29563Y51034D01*
X-29901Y51261D01*
X-30823Y51444D01*
X-31745Y51261D01*
X-32526Y50739D01*
X-33048Y49957D01*
X-33231Y49035D01*
X-33048Y48114D01*
X-32526Y47332D01*
X-31745Y46810D01*
X-30823Y46627D01*
X-30362Y46719D01*
X-29874Y46231D01*
X-29449Y45946D01*
X-28946Y45846D01*
X-23889D01*
X-23387Y45946D01*
X-22961Y46231D01*
X-21135Y48057D01*
X-20746Y47738D01*
X-21236Y47006D01*
X-21419Y46084D01*
X-21236Y45162D01*
X-20714Y44381D01*
X-19932Y43859D01*
X-19410Y43755D01*
X-19180Y43199D01*
X-19267Y43069D01*
X-19451Y42147D01*
X-19267Y41225D01*
X-18852Y40604D01*
X-19068Y40104D01*
X-22640D01*
X-22855Y40426D01*
X-23636Y40948D01*
X-24558Y41131D01*
X-25479Y40948D01*
X-26261Y40426D01*
X-26783Y39644D01*
X-26966Y38723D01*
X-26783Y37801D01*
X-26348Y37150D01*
X-26433Y36994D01*
X-26679Y36745D01*
X-27500Y36909D01*
X-28422Y36725D01*
X-28746Y36508D01*
X-29187Y36744D01*
Y37536D01*
X-28797Y37797D01*
X-28275Y38578D01*
X-28091Y39500D01*
X-28275Y40422D01*
X-28797Y41203D01*
X-29578Y41725D01*
X-30500Y41908D01*
X-31422Y41725D01*
X-32203Y41203D01*
X-32725Y40422D01*
X-32908Y39500D01*
X-32725Y38578D01*
X-32203Y37797D01*
X-31813Y37536D01*
Y29544D01*
X-32653Y28703D01*
X-32937Y28278D01*
X-33037Y27775D01*
Y26705D01*
X-33562D01*
Y27295D01*
X-33662Y27797D01*
X-33946Y28223D01*
X-34640Y28917D01*
X-34608Y29432D01*
X-34297Y29640D01*
X-33775Y30421D01*
X-33591Y31343D01*
X-33775Y32264D01*
X-34297Y33046D01*
X-34485Y33171D01*
Y33671D01*
X-34297Y33797D01*
X-33775Y34578D01*
X-33591Y35500D01*
X-33775Y36422D01*
X-34297Y37203D01*
X-34367Y37250D01*
Y37750D01*
X-34297Y37797D01*
X-33775Y38578D01*
X-33591Y39500D01*
X-33775Y40422D01*
X-34297Y41203D01*
X-35078Y41725D01*
X-36000Y41908D01*
X-36922Y41725D01*
X-37703Y41203D01*
X-38225Y40422D01*
X-38408Y39500D01*
X-38325Y39079D01*
X-39296Y38109D01*
X-39796Y38316D01*
Y42551D01*
Y45701D01*
Y49211D01*
X-39068D01*
X-38317Y48460D01*
X-38409Y48000D01*
X-38225Y47078D01*
X-37703Y46297D01*
X-36922Y45775D01*
X-36000Y45591D01*
X-35079Y45775D01*
X-34297Y46297D01*
X-33775Y47078D01*
X-33592Y48000D01*
X-33775Y48921D01*
X-34297Y49703D01*
X-35079Y50225D01*
X-36000Y50408D01*
X-36461Y50317D01*
X-37596Y51452D01*
X-37792Y51582D01*
X-37640Y52083D01*
X-36138D01*
Y52295D01*
X-28633D01*
X-28481Y51795D01*
D02*
G37*
G36*
X-54537Y54225D02*
X-54537Y53807D01*
Y48713D01*
X-51069D01*
X-48802Y46446D01*
X-48457Y46215D01*
Y45537D01*
X-54898D01*
X-55400Y45437D01*
X-55826Y45152D01*
X-56645Y44334D01*
X-56929Y43908D01*
X-56988Y43611D01*
X-57488Y43661D01*
Y47098D01*
X-61687D01*
Y49956D01*
X-61456Y50187D01*
X-60537D01*
Y48713D01*
X-55463D01*
X-55463Y54225D01*
X-55000Y54300D01*
X-54537Y54225D01*
D02*
G37*
G36*
X-54653Y32721D02*
X-54331Y32569D01*
Y31594D01*
X-52986D01*
Y29429D01*
X-54232D01*
Y25380D01*
X-56928Y22684D01*
X-56988Y22594D01*
X-57488Y22746D01*
Y30085D01*
X-54831Y32742D01*
X-54653Y32721D01*
D02*
G37*
%LPC*%
G36*
X-15469Y68854D02*
X-18626D01*
Y65500D01*
X-15469D01*
Y68854D01*
D02*
G37*
G36*
X-19626D02*
X-22783D01*
Y65500D01*
X-19626D01*
Y68854D01*
D02*
G37*
G36*
X-36563Y67272D02*
X-39622D01*
Y65000D01*
X-36563D01*
Y67272D01*
D02*
G37*
G36*
Y64000D02*
X-39622D01*
Y61728D01*
X-36563D01*
Y64000D01*
D02*
G37*
G36*
X-38524Y61169D02*
X-39910D01*
Y57126D01*
X-38524D01*
Y61169D01*
D02*
G37*
G36*
X3921Y59500D02*
X500D01*
Y56079D01*
X1032Y56149D01*
X1993Y56547D01*
X2819Y57181D01*
X3453Y58007D01*
X3851Y58968D01*
X3921Y59500D01*
D02*
G37*
G36*
X-500D02*
X-3921D01*
X-3851Y58968D01*
X-3453Y58007D01*
X-2819Y57181D01*
X-1993Y56547D01*
X-1032Y56149D01*
X-500Y56079D01*
Y59500D01*
D02*
G37*
G36*
X-68146Y59031D02*
X-71500D01*
Y55874D01*
X-68146D01*
Y59031D01*
D02*
G37*
G36*
X-72500D02*
X-75854D01*
Y55874D01*
X-72500D01*
Y59031D01*
D02*
G37*
G36*
X-68146Y54874D02*
X-71500D01*
Y51717D01*
X-68146D01*
Y54874D01*
D02*
G37*
G36*
X-72500D02*
X-75854D01*
Y51717D01*
X-72500D01*
Y54874D01*
D02*
G37*
G36*
X-82000Y53921D02*
Y50500D01*
X-78579D01*
X-78649Y51032D01*
X-79047Y51993D01*
X-79681Y52819D01*
X-80507Y53453D01*
X-81468Y53851D01*
X-82000Y53921D01*
D02*
G37*
G36*
X-71228Y50996D02*
X-73500D01*
Y47937D01*
X-71228D01*
Y50996D01*
D02*
G37*
G36*
X-74500D02*
X-76772D01*
Y47937D01*
X-74500D01*
Y50996D01*
D02*
G37*
G36*
X-78579Y49500D02*
X-82000D01*
Y46079D01*
X-81468Y46149D01*
X-80507Y46547D01*
X-79681Y47181D01*
X-79047Y48007D01*
X-78649Y48968D01*
X-78579Y49500D01*
D02*
G37*
G36*
X-71228Y46937D02*
X-73500D01*
Y43878D01*
X-71228D01*
Y46937D01*
D02*
G37*
G36*
X-74500D02*
X-76772D01*
Y43878D01*
X-74500D01*
Y46937D01*
D02*
G37*
G36*
X0Y33772D02*
X-976Y33644D01*
X-1886Y33267D01*
X-2668Y32667D01*
X-3267Y31886D01*
X-3644Y30976D01*
X-3772Y30000D01*
X-3644Y29024D01*
X-3267Y28114D01*
X-2668Y27332D01*
X-1886Y26733D01*
X-976Y26356D01*
X0Y26228D01*
X976Y26356D01*
X1886Y26733D01*
X2668Y27332D01*
X3267Y28114D01*
X3644Y29024D01*
X3772Y30000D01*
X3644Y30976D01*
X3267Y31886D01*
X2668Y32667D01*
X1886Y33267D01*
X976Y33644D01*
X0Y33772D01*
D02*
G37*
G36*
X-82500D02*
X-83476Y33644D01*
X-84386Y33267D01*
X-85167Y32667D01*
X-85767Y31886D01*
X-86144Y30976D01*
X-86272Y30000D01*
X-86144Y29024D01*
X-85767Y28114D01*
X-85167Y27332D01*
X-84386Y26733D01*
X-83476Y26356D01*
X-82500Y26228D01*
X-81524Y26356D01*
X-80614Y26733D01*
X-79833Y27332D01*
X-79233Y28114D01*
X-78856Y29024D01*
X-78728Y30000D01*
X-78856Y30976D01*
X-79233Y31886D01*
X-79833Y32667D01*
X-80614Y33267D01*
X-81524Y33644D01*
X-82500Y33772D01*
D02*
G37*
G36*
X-71228Y27122D02*
X-73500D01*
Y24063D01*
X-71228D01*
Y27122D01*
D02*
G37*
G36*
X-74500D02*
X-76772D01*
Y24063D01*
X-74500D01*
Y27122D01*
D02*
G37*
G36*
X500Y23921D02*
Y20500D01*
X3921D01*
X3851Y21032D01*
X3453Y21993D01*
X2819Y22819D01*
X1993Y23453D01*
X1032Y23851D01*
X500Y23921D01*
D02*
G37*
G36*
X-500D02*
X-1032Y23851D01*
X-1993Y23453D01*
X-2819Y22819D01*
X-3453Y21993D01*
X-3851Y21032D01*
X-3921Y20500D01*
X-500D01*
Y23921D01*
D02*
G37*
G36*
X-74500Y23063D02*
X-76772D01*
Y20004D01*
X-74500D01*
Y23063D01*
D02*
G37*
G36*
X-48902Y21768D02*
X-51173D01*
Y18709D01*
X-48902D01*
Y21768D01*
D02*
G37*
G36*
X-14091Y21874D02*
X-15477D01*
Y17831D01*
X-14091D01*
Y21874D01*
D02*
G37*
G36*
X-63681Y18516D02*
X-66740D01*
Y16244D01*
X-63681D01*
Y18516D01*
D02*
G37*
G36*
X-67740D02*
X-70799D01*
Y16244D01*
X-67740D01*
Y18516D01*
D02*
G37*
G36*
X-82500Y23772D02*
X-83476Y23644D01*
X-84386Y23267D01*
X-85167Y22668D01*
X-85767Y21886D01*
X-86144Y20976D01*
X-86272Y20000D01*
X-86144Y19024D01*
X-85767Y18114D01*
X-85167Y17333D01*
X-84386Y16733D01*
X-83476Y16356D01*
X-82500Y16228D01*
X-81524Y16356D01*
X-80614Y16733D01*
X-79833Y17333D01*
X-79233Y18114D01*
X-78856Y19024D01*
X-78728Y20000D01*
X-78856Y20976D01*
X-79233Y21886D01*
X-79833Y22668D01*
X-80614Y23267D01*
X-81524Y23644D01*
X-82500Y23772D01*
D02*
G37*
G36*
X3921Y19500D02*
X500D01*
Y16079D01*
X1032Y16149D01*
X1993Y16547D01*
X2819Y17181D01*
X3453Y18007D01*
X3851Y18968D01*
X3921Y19500D01*
D02*
G37*
G36*
X-500D02*
X-3921D01*
X-3851Y18968D01*
X-3453Y18007D01*
X-2819Y17181D01*
X-1993Y16547D01*
X-1032Y16149D01*
X-500Y16079D01*
Y19500D01*
D02*
G37*
G36*
X-20000Y14909D02*
X-20922Y14725D01*
X-21703Y14203D01*
X-21964Y13813D01*
X-24809D01*
X-24880Y13919D01*
X-25531Y14354D01*
X-26299Y14507D01*
X-32598D01*
X-33367Y14354D01*
X-34018Y13919D01*
X-34453Y13268D01*
X-34606Y12500D01*
X-34453Y11732D01*
X-34018Y11081D01*
X-33367Y10646D01*
X-32598Y10493D01*
X-26299D01*
X-25531Y10646D01*
X-24880Y11081D01*
X-24809Y11187D01*
X-21964D01*
X-21703Y10797D01*
X-20922Y10275D01*
X-20000Y10091D01*
X-19078Y10275D01*
X-18297Y10797D01*
X-17775Y11578D01*
X-17592Y12500D01*
X-17775Y13422D01*
X-18297Y14203D01*
X-19078Y14725D01*
X-20000Y14909D01*
D02*
G37*
G36*
X-68799Y14724D02*
X-71449D01*
Y13000D01*
X-66675D01*
X-66745Y13351D01*
X-67227Y14073D01*
X-67948Y14555D01*
X-68799Y14724D01*
D02*
G37*
G36*
X-72449D02*
X-75098D01*
X-75950Y14555D01*
X-76671Y14073D01*
X-77153Y13351D01*
X-77223Y13000D01*
X-72449D01*
Y14724D01*
D02*
G37*
G36*
X-66675Y12000D02*
X-71449D01*
Y10276D01*
X-68799D01*
X-67948Y10445D01*
X-67227Y10927D01*
X-66745Y11649D01*
X-66675Y12000D01*
D02*
G37*
G36*
X-72449D02*
X-77223D01*
X-77153Y11649D01*
X-76671Y10927D01*
X-75950Y10445D01*
X-75098Y10276D01*
X-72449D01*
Y12000D01*
D02*
G37*
G36*
X-26299Y9724D02*
X-28949D01*
Y8000D01*
X-24175D01*
X-24245Y8351D01*
X-24727Y9072D01*
X-25448Y9555D01*
X-26299Y9724D01*
D02*
G37*
G36*
X-68799D02*
X-71449D01*
Y8000D01*
X-66675D01*
X-66745Y8351D01*
X-67227Y9072D01*
X-67948Y9555D01*
X-68799Y9724D01*
D02*
G37*
G36*
X-29949D02*
X-32598D01*
X-33450Y9555D01*
X-34171Y9072D01*
X-34653Y8351D01*
X-34723Y8000D01*
X-29949D01*
Y9724D01*
D02*
G37*
G36*
X-72449D02*
X-75098D01*
X-75950Y9555D01*
X-76671Y9072D01*
X-77153Y8351D01*
X-77223Y8000D01*
X-72449D01*
Y9724D01*
D02*
G37*
G36*
X-35433Y10764D02*
X-37705D01*
Y7705D01*
X-35433D01*
Y10764D01*
D02*
G37*
G36*
X-38705D02*
X-40976D01*
Y7705D01*
X-38705D01*
Y10764D01*
D02*
G37*
G36*
X-7402Y14507D02*
X-13701D01*
X-14469Y14354D01*
X-15120Y13919D01*
X-15555Y13268D01*
X-15708Y12500D01*
X-15555Y11732D01*
X-15383Y11474D01*
X-19539Y7317D01*
X-20000Y7408D01*
X-20922Y7225D01*
X-21703Y6703D01*
X-22225Y5922D01*
X-22409Y5000D01*
X-22225Y4078D01*
X-21703Y3297D01*
X-20922Y2775D01*
X-20000Y2592D01*
X-19078Y2775D01*
X-18297Y3297D01*
X-17775Y4078D01*
X-17592Y5000D01*
X-17683Y5460D01*
X-16072Y7072D01*
X-15594Y6926D01*
X-15555Y6732D01*
X-15120Y6081D01*
X-14469Y5646D01*
X-13701Y5493D01*
X-7402D01*
X-6634Y5646D01*
X-5982Y6081D01*
X-5911Y6187D01*
X-2500D01*
X-1998Y6287D01*
X-1572Y6572D01*
X-1550Y6594D01*
X-976Y6356D01*
X0Y6228D01*
X976Y6356D01*
X1886Y6733D01*
X2668Y7333D01*
X3267Y8114D01*
X3644Y9024D01*
X3772Y10000D01*
X3644Y10976D01*
X3267Y11886D01*
X2668Y12667D01*
X1886Y13267D01*
X976Y13644D01*
X0Y13772D01*
X-976Y13644D01*
X-1886Y13267D01*
X-2668Y12667D01*
X-3267Y11886D01*
X-3644Y10976D01*
X-3772Y10000D01*
X-3682Y9313D01*
X-4056Y8813D01*
X-5911D01*
X-5982Y8919D01*
X-6634Y9354D01*
X-7402Y9507D01*
X-12983D01*
X-13175Y9969D01*
X-12651Y10493D01*
X-7402D01*
X-6634Y10646D01*
X-5982Y11081D01*
X-5547Y11732D01*
X-5395Y12500D01*
X-5547Y13268D01*
X-5982Y13919D01*
X-6634Y14354D01*
X-7402Y14507D01*
D02*
G37*
G36*
X-24175Y7000D02*
X-28949D01*
Y5276D01*
X-26299D01*
X-25448Y5446D01*
X-24727Y5928D01*
X-24245Y6649D01*
X-24175Y7000D01*
D02*
G37*
G36*
X-29949D02*
X-34723D01*
X-34653Y6649D01*
X-34171Y5928D01*
X-33450Y5446D01*
X-32598Y5276D01*
X-29949D01*
Y7000D01*
D02*
G37*
G36*
X-66675D02*
X-71449D01*
Y5276D01*
X-68799D01*
X-67948Y5446D01*
X-67227Y5928D01*
X-66745Y6649D01*
X-66675Y7000D01*
D02*
G37*
G36*
X-72449D02*
X-77223D01*
X-77153Y6649D01*
X-76671Y5928D01*
X-75950Y5446D01*
X-75098Y5276D01*
X-72449D01*
Y7000D01*
D02*
G37*
G36*
X-38705Y6705D02*
X-40976D01*
Y3646D01*
X-38705D01*
Y6705D01*
D02*
G37*
G36*
X-68799Y4724D02*
X-71449D01*
Y3000D01*
X-66675D01*
X-66745Y3351D01*
X-67227Y4073D01*
X-67948Y4555D01*
X-68799Y4724D01*
D02*
G37*
G36*
X-72449D02*
X-75098D01*
X-75950Y4555D01*
X-76671Y4073D01*
X-77153Y3351D01*
X-77223Y3000D01*
X-72449D01*
Y4724D01*
D02*
G37*
G36*
X-66675Y2000D02*
X-71449D01*
Y276D01*
X-68799D01*
X-67948Y446D01*
X-67227Y927D01*
X-66745Y1649D01*
X-66675Y2000D01*
D02*
G37*
G36*
X-72449D02*
X-77223D01*
X-77153Y1649D01*
X-76671Y927D01*
X-75950Y446D01*
X-75098Y276D01*
X-72449D01*
Y2000D01*
D02*
G37*
G36*
X-78760Y13740D02*
X-86240D01*
Y6260D01*
X-83813D01*
Y3307D01*
X-85158D01*
Y-1221D01*
X-79843D01*
Y3307D01*
X-81187D01*
Y6260D01*
X-78760D01*
Y13740D01*
D02*
G37*
G36*
X-68799Y-276D02*
X-71449D01*
Y-2000D01*
X-66675D01*
X-66745Y-1649D01*
X-67227Y-927D01*
X-67948Y-446D01*
X-68799Y-276D01*
D02*
G37*
G36*
X-72449D02*
X-75098D01*
X-75950Y-446D01*
X-76671Y-927D01*
X-77153Y-1649D01*
X-77223Y-2000D01*
X-72449D01*
Y-276D01*
D02*
G37*
%LPD*%
D10*
X-51673Y40945D02*
D03*
Y33858D02*
D03*
X-82500Y66043D02*
D03*
Y58957D02*
D03*
Y1043D02*
D03*
Y-6043D02*
D03*
D11*
X-59740Y66724D02*
D03*
X-52260D02*
D03*
Y57276D02*
D03*
X-56000D02*
D03*
X-59740D02*
D03*
D12*
X-72000Y64626D02*
D03*
Y55374D02*
D03*
D13*
X-19126Y65000D02*
D03*
X-9874D02*
D03*
D14*
X-44126Y50524D02*
D03*
Y47374D02*
D03*
Y44224D02*
D03*
Y41075D02*
D03*
Y37925D02*
D03*
Y34775D02*
D03*
Y31626D02*
D03*
Y28476D02*
D03*
X-9874D02*
D03*
Y31626D02*
D03*
Y34775D02*
D03*
Y37925D02*
D03*
Y41075D02*
D03*
Y44224D02*
D03*
Y47374D02*
D03*
Y50524D02*
D03*
D15*
X-38024Y22374D02*
D03*
X-34874D02*
D03*
X-31725D02*
D03*
X-28575D02*
D03*
X-25425D02*
D03*
X-22276D02*
D03*
X-19126D02*
D03*
X-15977D02*
D03*
Y56626D02*
D03*
X-19126D02*
D03*
X-22276D02*
D03*
X-25425D02*
D03*
X-28575D02*
D03*
X-31725D02*
D03*
X-34874D02*
D03*
X-38024D02*
D03*
D16*
X-63000Y26429D02*
D03*
Y42571D02*
D03*
D17*
X-52000Y51500D02*
D03*
X-58000D02*
D03*
D18*
X-74000Y31437D02*
D03*
Y23563D02*
D03*
Y47437D02*
D03*
Y39563D02*
D03*
X-38205Y-669D02*
D03*
Y7205D02*
D03*
X-51673Y26083D02*
D03*
Y18209D02*
D03*
D19*
X-59366Y19016D02*
D03*
X-67240D02*
D03*
X-36063Y64500D02*
D03*
X-43937D02*
D03*
D20*
X-53051Y-2500D02*
D03*
Y2500D02*
D03*
Y7500D02*
D03*
Y12500D02*
D03*
X-71949Y-2500D02*
D03*
Y2500D02*
D03*
Y7500D02*
D03*
Y12500D02*
D03*
X-29449D02*
D03*
Y7500D02*
D03*
Y2500D02*
D03*
Y-2500D02*
D03*
X-10551Y12500D02*
D03*
Y7500D02*
D03*
Y2500D02*
D03*
Y-2500D02*
D03*
D21*
X-51673Y40945D02*
X-51543Y41075D01*
X-44126D01*
X-55717Y33713D02*
Y43406D01*
X-63000Y26429D02*
X-55717Y33713D01*
X-54898Y44224D02*
X-44126D01*
X-55717Y43406D02*
X-54898Y44224D01*
X-51673Y35827D02*
X-49575Y37925D01*
X-56000Y21756D02*
X-51673Y26083D01*
X-56000Y19500D02*
Y21756D01*
X-38205Y-669D02*
X-35035Y2500D01*
X-29449D01*
X-21471Y35749D02*
X-19093D01*
X-16500Y32000D02*
X-10249D01*
X-24489Y38791D02*
X-16292D01*
X-19093Y35749D02*
X-18119Y34775D01*
X-60350Y10650D02*
X-58500Y12500D01*
X-15977Y51023D02*
Y56626D01*
X-9874Y28476D02*
X-8500Y27102D01*
Y24000D02*
Y27102D01*
X-29449Y12500D02*
X-20000D01*
X-53051Y2500D02*
X-45000D01*
X-58500Y12500D02*
X-53051D01*
X-52000Y51500D02*
X-47874Y47374D01*
X-44126D01*
X-49575Y37925D02*
X-44126D01*
X-64276Y66724D02*
X-59740D01*
X-66374Y64626D02*
X-64276Y66724D01*
X-72000Y64626D02*
X-66374D01*
X-66008Y39563D02*
X-63000Y42571D01*
X-74000Y39563D02*
X-66008D01*
X-68008Y31437D02*
X-63000Y26429D01*
X-74000Y31437D02*
X-68008D01*
X-44251Y44100D02*
X-44126Y44224D01*
X-63000Y42571D02*
Y50500D01*
X-62000Y51500D01*
X-58000D01*
X-56500Y19000D02*
X-56000Y19500D01*
X-29449Y-2500D02*
X-20000D01*
X-12500Y12500D02*
X-10551D01*
X-20000Y5000D02*
X-12500Y12500D01*
X-10249Y32000D02*
X-9874Y31626D01*
X-18119Y34775D02*
X-17772D01*
X-17686Y34862D01*
X-9961D02*
X-9874Y34775D01*
X-17686Y34862D02*
X-9961D01*
X-17000Y50000D02*
X-15977Y51023D01*
X-15426Y37925D02*
X-9874D01*
X-16292Y38791D02*
X-15426Y37925D01*
X-15970Y41075D02*
X-9874D01*
X-26885Y49529D02*
Y50021D01*
X-24633Y49529D02*
X-22276Y51885D01*
Y56626D01*
X-19126Y51921D02*
Y56626D01*
X-23889Y47159D02*
X-19126Y51921D01*
X-53051Y-2500D02*
X-46000D01*
X-45000Y-1500D01*
X-53051Y7500D02*
X-46000D01*
X-45000Y6500D01*
X-30823Y49035D02*
X-28946Y47159D01*
X-23889D01*
X-9874Y50524D02*
X-524D01*
X0Y50000D01*
Y40000D02*
Y43000D01*
X-4374Y47374D02*
X0Y43000D01*
X-9874Y47374D02*
X-4374D01*
X-59563Y13563D02*
X-58500Y12500D01*
X-59563Y13563D02*
Y19000D01*
X-71949Y-2500D02*
Y2500D01*
Y7500D01*
X-19011Y46084D02*
X-16931D01*
X-15072Y44224D01*
X-9874D01*
X-17042Y42147D02*
X-15970Y41075D01*
X-24558Y38723D02*
X-24489Y38791D01*
X-31725Y22374D02*
Y27775D01*
X-30500Y29000D01*
X-28575Y22374D02*
Y26925D01*
X-27500Y28000D01*
Y34500D01*
X-34874Y22374D02*
Y27295D01*
X-44126Y34775D02*
X-40725D01*
X-36000Y28421D02*
X-34874Y27295D01*
X-38862Y29314D02*
X-38024Y28476D01*
Y22374D02*
Y28476D01*
X-40725Y34775D02*
X-38862Y36638D01*
Y36686D01*
X-36048Y39500D02*
X-36000D01*
X-38862Y36686D02*
X-36048Y39500D01*
X-36000Y28421D02*
Y31343D01*
X-38862Y29314D02*
Y32528D01*
X-36000Y35390D02*
Y35500D01*
X-38862Y32528D02*
X-36000Y35390D01*
X-30500Y29000D02*
Y39500D01*
X-38024Y62539D02*
X-36063Y64500D01*
X-38024Y56626D02*
Y62539D01*
X-44126Y50524D02*
X-38524D01*
X-36000Y48000D01*
X-43937Y50712D02*
Y64500D01*
X-44126Y50524D02*
X-43937Y50712D01*
X-79937Y47437D02*
X-74000D01*
X-82500Y50000D02*
X-79937Y47437D01*
X-77126Y55374D02*
X-72000D01*
X-82500Y50000D02*
X-77126Y55374D01*
X-56000Y57276D02*
Y60000D01*
X-57500Y61500D02*
X-56000Y60000D01*
X-26885Y49529D02*
X-24633D01*
X-40374Y56626D02*
X-38024D01*
X-71949Y7500D02*
Y12500D01*
X-74000Y19102D02*
Y23563D01*
Y19102D02*
X-71949Y17051D01*
X-67240Y16760D02*
Y19016D01*
X-69000Y15000D02*
X-67240Y16760D01*
X-71949Y15000D02*
X-69000D01*
X-71949Y12500D02*
Y15000D01*
Y17051D01*
X-54724Y66724D02*
X-52260D01*
X-11374Y65000D02*
X-9874D01*
X-31725Y56626D02*
Y67225D01*
X-34500Y70000D02*
X-31725Y67225D01*
X-78543Y70000D02*
X-34500D01*
X-82500Y66043D02*
X-78543Y70000D01*
X-28575Y56626D02*
Y68425D01*
X-29000Y69000D02*
X-28500Y68500D01*
X-64000Y60000D02*
X-62500Y61500D01*
X-57500D01*
X-86740Y61803D02*
X-82500Y66043D01*
X-86740Y44240D02*
Y61803D01*
Y44240D02*
X-82500Y40000D01*
X-37909Y7500D02*
X-29449D01*
X-38205Y7205D02*
X-37909Y7500D01*
X-38205Y7205D02*
Y11705D01*
X-44709Y18209D02*
X-38205Y11705D01*
X-51673Y18209D02*
X-44709D01*
X-15977Y22374D02*
X-13374D01*
X-8500Y17500D01*
X-29449Y7500D02*
X-23500D01*
X-22500Y8500D01*
X-59563Y19000D02*
X-56500D01*
X-51673Y26083D02*
Y33858D01*
Y35827D01*
X-17106Y894D02*
X-17000Y1000D01*
X-71949Y-2500D02*
X-65000D01*
X-82500Y1043D02*
Y10000D01*
X-10551Y7500D02*
X-2500D01*
X-10551Y2500D02*
X-2500D01*
X0Y0D01*
X-2500Y7500D02*
X0Y10000D01*
X-41000Y57252D02*
X-40374Y56626D01*
X-41000Y57252D02*
Y58500D01*
X-76248Y64626D02*
X-72000D01*
X-78374Y62500D02*
X-76248Y64626D01*
X-81917Y58957D02*
X-78374Y62500D01*
X-82500Y58957D02*
X-81917D01*
X-28575Y68425D02*
X-28500Y68500D01*
D22*
X12303Y54000D02*
Y59500D01*
X5803Y66000D02*
X12303Y59500D01*
X-4000Y66000D02*
X5803D01*
X-5000Y65000D02*
X-4000Y66000D01*
X-9874Y65000D02*
X-5000D01*
X12303Y22303D02*
Y54000D01*
X-36000Y-7500D02*
X3075D01*
X-38205Y-5295D02*
X-36000Y-7500D01*
X-38205Y-5295D02*
Y-669D01*
X3075Y-7500D02*
X7500Y-3075D01*
Y17500D01*
X12303Y22303D01*
D23*
X-38953Y-6043D02*
X-38205Y-5295D01*
X-82500Y-6043D02*
X-38953D01*
D24*
X-82500Y50000D02*
D03*
Y40000D02*
D03*
Y30000D02*
D03*
Y20000D02*
D03*
X0Y60000D02*
D03*
Y50000D02*
D03*
Y40000D02*
D03*
Y30000D02*
D03*
Y10000D02*
D03*
Y20000D02*
D03*
D25*
X-82500Y10000D02*
D03*
X0Y0D02*
D03*
D26*
X12500Y4921D02*
D03*
X-30823Y49035D02*
D03*
X-21471Y35749D02*
D03*
X-16500Y32000D02*
D03*
X-60350Y10650D02*
D03*
X-4000Y66000D02*
D03*
X-8500Y24000D02*
D03*
X-20000Y12500D02*
D03*
X-45000Y2500D02*
D03*
X-20000Y-2500D02*
D03*
Y5000D02*
D03*
X-45000Y6500D02*
D03*
Y-1500D02*
D03*
X-17000Y50000D02*
D03*
X-19011Y46084D02*
D03*
X-26885Y50021D02*
D03*
X12303Y54000D02*
D03*
X-17042Y42147D02*
D03*
X-27500Y34500D02*
D03*
X-24558Y38723D02*
D03*
X-36000Y39500D02*
D03*
Y35500D02*
D03*
Y31343D02*
D03*
X-30500Y39500D02*
D03*
X-36000Y48000D02*
D03*
X-55500Y67000D02*
D03*
X-29000Y69000D02*
D03*
X-64000Y60000D02*
D03*
X-8500Y17500D02*
D03*
X-22500Y8500D02*
D03*
X-17106Y894D02*
D03*
X-65000Y5000D02*
D03*
Y-2500D02*
D03*
X-87417Y32795D02*
D03*
X11008Y-6575D02*
D03*
X18000Y-6500D02*
D03*
X16500Y69000D02*
D03*
X-87500Y68500D02*
D03*
Y-6000D02*
D03*
Y24500D02*
D03*
X18303Y28000D02*
D03*
X5000Y45000D02*
D03*
X-9000Y55500D02*
D03*
X5000Y55000D02*
D03*
X18000Y13000D02*
D03*
X-67500Y36000D02*
D03*
X-41000Y58500D02*
D03*
X-78374Y62500D02*
D03*
X-3500Y35000D02*
D03*
M02*
