G04 Layer_Physical_Order=2*
G04 Layer_Color=32768*
%FSLAX25Y25*%
%MOIN*%
G70*
G01*
G75*
%ADD27C,0.04000*%
G04:AMPARAMS|DCode=28|XSize=95.433mil|YSize=95.433mil|CornerRadius=0mil|HoleSize=0mil|Usage=FLASHONLY|Rotation=0.000|XOffset=0mil|YOffset=0mil|HoleType=Round|Shape=Relief|Width=10mil|Gap=10mil|Entries=4|*
%AMTHD28*
7,0,0,0.09543,0.07543,0.01000,45*
%
%ADD28THD28*%
%ADD29C,0.07543*%
%ADD30C,0.05575*%
D27*
X-91043Y-11496D02*
X22146D01*
Y72165D01*
X-91043D02*
X22146D01*
X-91043Y-11496D02*
Y72165D01*
D28*
X-82500Y50000D02*
D03*
X0Y60000D02*
D03*
Y20000D02*
D03*
D29*
X-82500Y40000D02*
D03*
Y30000D02*
D03*
Y20000D02*
D03*
Y10000D02*
D03*
X0Y50000D02*
D03*
Y40000D02*
D03*
Y30000D02*
D03*
Y10000D02*
D03*
Y0D02*
D03*
D30*
X-30823Y49035D02*
D03*
X-21471Y35749D02*
D03*
X-16500Y32000D02*
D03*
X-60350Y10650D02*
D03*
X-4000Y66000D02*
D03*
X-8500Y24000D02*
D03*
X-20000Y12500D02*
D03*
X-45000Y2500D02*
D03*
X-20000Y-2500D02*
D03*
Y5000D02*
D03*
X-45000Y6500D02*
D03*
Y-1500D02*
D03*
X-17000Y50000D02*
D03*
X-19011Y46084D02*
D03*
X-26885Y50021D02*
D03*
X12303Y54000D02*
D03*
X-17042Y42147D02*
D03*
X-27500Y34500D02*
D03*
X-24558Y38723D02*
D03*
X-36000Y39500D02*
D03*
Y35500D02*
D03*
Y31343D02*
D03*
X-30500Y39500D02*
D03*
X-36000Y48000D02*
D03*
X-55500Y67000D02*
D03*
X-29000Y69000D02*
D03*
X-78374Y62500D02*
D03*
M02*
