G04 Layer_Color=32896*
%FSLAX44Y44*%
%MOMM*%
G71*
G01*
G75*
%ADD20C,0.2540*%
%ADD26C,0.2500*%
%ADD28C,0.2000*%
%ADD29C,0.1270*%
%ADD44R,0.3810X2.7940*%
D20*
X292760Y341050D02*
G03*
X292760Y341050I-1270J0D01*
G01*
Y382800D02*
G03*
X292760Y382800I-1270J0D01*
G01*
D26*
X379850Y348860D02*
G03*
X379850Y348860I-1250J0D01*
G01*
D28*
X345600Y296310D02*
X363600D01*
X345600Y346310D02*
X363600D01*
X345600Y296310D02*
Y346310D01*
X363600Y296310D02*
Y346310D01*
D29*
X374351Y383126D02*
X382348D01*
Y387125D01*
X381015Y388457D01*
X378350D01*
X377017Y387125D01*
Y383126D01*
Y385792D02*
X374351Y388457D01*
X382348Y396455D02*
Y391123D01*
X378350D01*
X379683Y393789D01*
Y395122D01*
X378350Y396455D01*
X375684D01*
X374351Y395122D01*
Y392456D01*
X375684Y391123D01*
X361210Y383270D02*
X369207D01*
Y387269D01*
X367874Y388602D01*
X365209D01*
X363876Y387269D01*
Y383270D01*
Y385936D02*
X361210Y388602D01*
Y395266D02*
X369207D01*
X365209Y391267D01*
Y396599D01*
X288750Y300497D02*
Y292500D01*
X283418D01*
X275421Y300497D02*
X280753D01*
Y292500D01*
X275421D01*
X280753Y296499D02*
X278087D01*
X272755Y300497D02*
Y292500D01*
X268756D01*
X267423Y293833D01*
Y299165D01*
X268756Y300497D01*
X272755D01*
X259426Y292500D02*
X264758D01*
X259426Y297832D01*
Y299165D01*
X260759Y300497D01*
X263425D01*
X264758Y299165D01*
X328750Y375497D02*
Y367500D01*
X323418D01*
X315421Y375497D02*
X320753D01*
Y367500D01*
X315421D01*
X320753Y371499D02*
X318087D01*
X312755Y375497D02*
Y367500D01*
X308756D01*
X307423Y368833D01*
Y374165D01*
X308756Y375497D01*
X312755D01*
X304758Y367500D02*
X302092D01*
X303425D01*
Y375497D01*
X304758Y374165D01*
X418440Y285100D02*
X410443D01*
Y281101D01*
X411776Y279768D01*
X414441D01*
X415774Y281101D01*
Y285100D01*
Y282434D02*
X418440Y279768D01*
X411776Y277103D02*
X410443Y275770D01*
Y273104D01*
X411776Y271771D01*
X413108D01*
X414441Y273104D01*
Y274437D01*
Y273104D01*
X415774Y271771D01*
X417107D01*
X418440Y273104D01*
Y275770D01*
X417107Y277103D01*
X355000Y275000D02*
Y281998D01*
X351501D01*
X350335Y280832D01*
Y278499D01*
X351501Y277333D01*
X355000D01*
X352667D02*
X350335Y275000D01*
X343337D02*
X348002D01*
X343337Y279665D01*
Y280832D01*
X344503Y281998D01*
X346836D01*
X348002Y280832D01*
X425415Y383671D02*
X426581Y384838D01*
X428914D01*
X430080Y383671D01*
Y379006D01*
X428914Y377840D01*
X426581D01*
X425415Y379006D01*
X423082Y377840D02*
X420750D01*
X421916D01*
Y384838D01*
X423082Y383671D01*
X316585Y357081D02*
X317751Y358248D01*
X320084D01*
X321250Y357081D01*
Y352416D01*
X320084Y351250D01*
X317751D01*
X316585Y352416D01*
X314252Y351250D02*
X311920D01*
X313086D01*
Y358248D01*
X314252Y357081D01*
X308421D02*
X307255Y358248D01*
X304922D01*
X303756Y357081D01*
Y352416D01*
X304922Y351250D01*
X307255D01*
X308421Y352416D01*
Y357081D01*
X361569Y358788D02*
Y352956D01*
X360402Y351790D01*
X358070D01*
X356904Y352956D01*
Y358788D01*
X349906D02*
X354571D01*
Y355289D01*
X352239Y356455D01*
X351072D01*
X349906Y355289D01*
Y352956D01*
X351072Y351790D01*
X353405D01*
X354571Y352956D01*
X290000Y273750D02*
Y281747D01*
X286001D01*
X284668Y280415D01*
Y277749D01*
X286001Y276416D01*
X290000D01*
X287334D02*
X284668Y273750D01*
X276671Y281747D02*
X279337Y280415D01*
X282003Y277749D01*
Y275083D01*
X280670Y273750D01*
X278004D01*
X276671Y275083D01*
Y276416D01*
X278004Y277749D01*
X282003D01*
X290000Y258750D02*
Y266747D01*
X286001D01*
X284668Y265415D01*
Y262749D01*
X286001Y261416D01*
X290000D01*
X287334D02*
X284668Y258750D01*
X282003Y266747D02*
X276671D01*
Y265415D01*
X282003Y260083D01*
Y258750D01*
X300711Y423415D02*
X301878Y422249D01*
Y419916D01*
X300711Y418750D01*
X299545D01*
X298379Y419916D01*
Y422249D01*
X297213Y423415D01*
X296046D01*
X294880Y422249D01*
Y419916D01*
X296046Y418750D01*
X300711Y430413D02*
X301878Y429247D01*
Y426914D01*
X300711Y425748D01*
X299545D01*
X298379Y426914D01*
Y429247D01*
X297213Y430413D01*
X296046D01*
X294880Y429247D01*
Y426914D01*
X296046Y425748D01*
X286998Y418750D02*
X280000D01*
Y423415D01*
X286998Y425748D02*
X280000D01*
Y429247D01*
X281166Y430413D01*
X285832D01*
X286998Y429247D01*
Y425748D01*
X316998Y418870D02*
X310000D01*
Y423535D01*
Y425868D02*
X316998D01*
Y429367D01*
X315832Y430533D01*
X313499D01*
X312333Y429367D01*
Y425868D01*
X272408Y423265D02*
Y418600D01*
X268909D01*
Y420933D01*
Y418600D01*
X265410D01*
X272408Y425598D02*
X265410D01*
Y430263D01*
X393750Y251747D02*
X391084D01*
X392417D01*
Y243750D01*
X393750D01*
X391084D01*
X387085D02*
Y249082D01*
X385753D01*
X384420Y247749D01*
Y243750D01*
Y247749D01*
X383087Y249082D01*
X381754Y247749D01*
Y243750D01*
X379088D02*
X376422D01*
X377755D01*
Y249082D01*
X379088D01*
X372424D02*
Y243750D01*
Y246416D01*
X371091Y247749D01*
X369758Y249082D01*
X368425D01*
X356429Y251747D02*
Y246416D01*
X353763Y243750D01*
X351097Y246416D01*
Y251747D01*
X348431Y243750D02*
X345765D01*
X347098D01*
Y251747D01*
X348431Y250415D01*
X341767Y243750D02*
Y245083D01*
X340434D01*
Y243750D01*
X341767D01*
X335102Y250415D02*
X333769Y251747D01*
X331104D01*
X329771Y250415D01*
Y245083D01*
X331104Y243750D01*
X333769D01*
X335102Y245083D01*
Y250415D01*
X319107Y243750D02*
Y251747D01*
X315109D01*
X313776Y250415D01*
Y247749D01*
X315109Y246416D01*
X319107D01*
X316442D02*
X313776Y243750D01*
X305778D02*
X311110D01*
X305778Y249082D01*
Y250415D01*
X307111Y251747D01*
X309777D01*
X311110Y250415D01*
X303113Y243750D02*
Y245083D01*
X301780D01*
Y243750D01*
X303113D01*
X296448Y250415D02*
X295115Y251747D01*
X292449D01*
X291116Y250415D01*
Y245083D01*
X292449Y243750D01*
X295115D01*
X296448Y245083D01*
Y250415D01*
D44*
X278155Y322000D02*
D03*
Y363750D02*
D03*
M02*
