G04 Layer_Color=128*
%FSLAX24Y24*%
%MOIN*%
G70*
G01*
G75*
%ADD10O,0.0236X0.0866*%
%ADD12R,0.0571X0.0532*%
%ADD14R,0.0335X0.0512*%
%ADD19R,0.0532X0.0571*%
%ADD21R,0.0512X0.0335*%
%ADD25R,0.0827X0.1177*%
%ADD27R,0.0394X0.0276*%
%ADD33O,0.0866X0.0236*%
%ADD118R,0.1177X0.0827*%
%ADD119R,0.1102X0.0827*%
%ADD120R,0.0748X0.0236*%
%ADD121R,0.0709X0.0394*%
D10*
X53750Y4445D02*
D03*
X54250D02*
D03*
X54750D02*
D03*
X55250D02*
D03*
X53750Y2555D02*
D03*
X54250D02*
D03*
X54750D02*
D03*
X55250D02*
D03*
X48250Y4445D02*
D03*
X48750D02*
D03*
X49250D02*
D03*
X49750D02*
D03*
X48250Y2555D02*
D03*
X48750D02*
D03*
X49250D02*
D03*
X49750D02*
D03*
D12*
X27750Y30537D02*
D03*
Y31463D02*
D03*
X34500Y29587D02*
D03*
Y30513D02*
D03*
X34250Y31587D02*
D03*
Y32513D02*
D03*
Y33287D02*
D03*
Y34213D02*
D03*
Y35787D02*
D03*
Y36713D02*
D03*
X28700Y39163D02*
D03*
Y38237D02*
D03*
X27750Y35037D02*
D03*
Y35963D02*
D03*
X9000Y9037D02*
D03*
Y9963D02*
D03*
X5350Y29213D02*
D03*
Y28287D02*
D03*
Y26213D02*
D03*
Y25287D02*
D03*
X27750Y33963D02*
D03*
Y33037D02*
D03*
D14*
X58337Y-2250D02*
D03*
X59163D02*
D03*
Y-3250D02*
D03*
X58337D02*
D03*
X14837Y1250D02*
D03*
X15663D02*
D03*
X28837Y750D02*
D03*
X29663D02*
D03*
D19*
X54537Y33750D02*
D03*
X55463D02*
D03*
Y28500D02*
D03*
X54537D02*
D03*
X54487Y43000D02*
D03*
X55413D02*
D03*
X54463Y52500D02*
D03*
X53537D02*
D03*
X12037Y28750D02*
D03*
X12963D02*
D03*
X29287Y31000D02*
D03*
X30213D02*
D03*
X32213D02*
D03*
X31287D02*
D03*
X34737Y35000D02*
D03*
X35663D02*
D03*
X34263Y37500D02*
D03*
X33337D02*
D03*
X31287D02*
D03*
X32213D02*
D03*
X30463D02*
D03*
X29537D02*
D03*
X26963Y29450D02*
D03*
X26037D02*
D03*
X26787Y16750D02*
D03*
X27713D02*
D03*
X36037Y33500D02*
D03*
X36963D02*
D03*
X36037Y31000D02*
D03*
X36963D02*
D03*
X28963Y18500D02*
D03*
X28037D02*
D03*
X29413Y16750D02*
D03*
X28487D02*
D03*
X30287D02*
D03*
X31213D02*
D03*
X31287Y18500D02*
D03*
X32213D02*
D03*
X32037Y16750D02*
D03*
X32963D02*
D03*
D21*
X36650Y36563D02*
D03*
Y35737D02*
D03*
X33657Y30490D02*
D03*
Y29663D02*
D03*
X32870Y30490D02*
D03*
Y29663D02*
D03*
X51250Y13663D02*
D03*
Y12837D02*
D03*
X49250Y13663D02*
D03*
Y12837D02*
D03*
D25*
X52003Y53650D02*
D03*
X53897D02*
D03*
D27*
X2528Y18626D02*
D03*
Y19374D02*
D03*
X3472Y19000D02*
D03*
X778Y19376D02*
D03*
Y20124D02*
D03*
X1722Y19750D02*
D03*
X778Y18250D02*
D03*
X1722Y17876D02*
D03*
Y18624D02*
D03*
X56278Y-2750D02*
D03*
X57222Y-3124D02*
D03*
Y-2376D02*
D03*
D33*
X43805Y-3750D02*
D03*
Y-3250D02*
D03*
Y-2750D02*
D03*
Y-2250D02*
D03*
X45695Y-3750D02*
D03*
Y-3250D02*
D03*
Y-2750D02*
D03*
Y-2250D02*
D03*
X35555Y40500D02*
D03*
Y41000D02*
D03*
Y41500D02*
D03*
Y42000D02*
D03*
Y42500D02*
D03*
Y43000D02*
D03*
Y43500D02*
D03*
X37445Y40500D02*
D03*
Y41000D02*
D03*
Y41500D02*
D03*
Y42000D02*
D03*
Y42500D02*
D03*
Y43000D02*
D03*
Y43500D02*
D03*
D118*
X54550Y35003D02*
D03*
Y36897D02*
D03*
X55400Y27047D02*
D03*
Y25153D02*
D03*
X54750Y43903D02*
D03*
Y45797D02*
D03*
D119*
X-1925Y22262D02*
D03*
Y16238D02*
D03*
D120*
X-1000Y17478D02*
D03*
Y17872D02*
D03*
Y18266D02*
D03*
Y18659D02*
D03*
Y19053D02*
D03*
Y19447D02*
D03*
Y19841D02*
D03*
Y20234D02*
D03*
Y20628D02*
D03*
Y21022D02*
D03*
D121*
X36750Y31758D02*
D03*
Y32742D02*
D03*
M02*
