G04 Layer_Color=8388736*
%FSLAX24Y24*%
%MOIN*%
G70*
G01*
G75*
%ADD144C,0.0000*%
%ADD145O,0.0316X0.0946*%
%ADD146R,0.1694X0.1104*%
%ADD147R,0.0651X0.0612*%
%ADD148P,0.0837X4X90.0*%
%ADD149R,0.0415X0.0592*%
%ADD150R,0.0572X0.0671*%
%ADD151R,0.0671X0.0572*%
%ADD152R,0.1310X0.2180*%
%ADD153R,0.0395X0.0395*%
%ADD154R,0.0612X0.0651*%
%ADD155R,0.1064X0.0867*%
%ADD156R,0.0592X0.0415*%
%ADD157R,0.0356X0.0474*%
%ADD158R,0.1104X0.0671*%
%ADD159R,0.0395X0.0395*%
%ADD160R,0.0907X0.1257*%
%ADD161R,0.1104X0.1694*%
%ADD162R,0.0474X0.0356*%
%ADD163R,0.1340X0.0552*%
%ADD164R,0.2167X0.0749*%
%ADD165R,0.0316X0.0474*%
%ADD166R,0.0867X0.0671*%
%ADD167R,0.0493X0.0316*%
%ADD168O,0.0946X0.0316*%
%ADD169R,0.0867X0.1064*%
%ADD170R,0.1340X0.0671*%
%ADD171R,0.0907X0.0986*%
%ADD172R,0.0671X0.1104*%
%ADD173O,0.0198X0.0730*%
%ADD174O,0.0730X0.0198*%
%ADD175R,0.0395X0.0671*%
%ADD176R,0.0828X0.1517*%
%ADD177R,0.0474X0.0316*%
%ADD178R,0.3230X0.4017*%
G04:AMPARAMS|DCode=179|XSize=47.4mil|YSize=80.8mil|CornerRadius=23.7mil|HoleSize=0mil|Usage=FLASHONLY|Rotation=90.000|XOffset=0mil|YOffset=0mil|HoleType=Round|Shape=RoundedRectangle|*
%AMROUNDEDRECTD179*
21,1,0.0474,0.0335,0,0,90.0*
21,1,0.0000,0.0808,0,0,90.0*
1,1,0.0474,0.0167,0.0000*
1,1,0.0474,0.0167,0.0000*
1,1,0.0474,-0.0167,0.0000*
1,1,0.0474,-0.0167,0.0000*
%
%ADD179ROUNDEDRECTD179*%
G04:AMPARAMS|DCode=180|XSize=47.4mil|YSize=80.8mil|CornerRadius=23.7mil|HoleSize=0mil|Usage=FLASHONLY|Rotation=180.000|XOffset=0mil|YOffset=0mil|HoleType=Round|Shape=RoundedRectangle|*
%AMROUNDEDRECTD180*
21,1,0.0474,0.0335,0,0,180.0*
21,1,0.0000,0.0808,0,0,180.0*
1,1,0.0474,0.0000,0.0167*
1,1,0.0474,0.0000,0.0167*
1,1,0.0474,0.0000,-0.0167*
1,1,0.0474,0.0000,-0.0167*
%
%ADD180ROUNDEDRECTD180*%
%ADD181O,0.0828X0.0241*%
%ADD182R,0.1580X0.0879*%
%ADD183R,0.3580X0.4580*%
%ADD184R,0.1143X0.1379*%
%ADD185R,0.1143X0.0474*%
%ADD186R,0.0454X0.0749*%
%ADD187R,0.0592X0.0434*%
%ADD188O,0.0631X0.0257*%
%ADD189R,0.1025X0.2639*%
%ADD190C,0.0867*%
%ADD191C,0.0946*%
%ADD192C,0.0749*%
%ADD193C,0.1674*%
%ADD194C,0.0745*%
%ADD195R,0.0745X0.0745*%
%ADD196C,0.1954*%
%ADD197C,0.0671*%
%ADD198R,0.0671X0.0671*%
%ADD199R,0.0671X0.0671*%
%ADD200P,0.0683X8X112.5*%
%ADD201C,0.0631*%
%ADD202R,0.0867X0.0867*%
%ADD203R,0.0710X0.0710*%
%ADD204C,0.0710*%
%ADD205R,0.0867X0.0867*%
%ADD206C,0.0789*%
%ADD207C,0.1064*%
%ADD208C,0.1080*%
%ADD209R,0.1080X0.1080*%
%ADD210R,0.1080X0.1080*%
%ADD211C,0.2049*%
%ADD212C,0.1261*%
%ADD213C,0.0395*%
G36*
X38500Y49550D02*
X38000D01*
Y49950D01*
X38500D01*
Y49550D01*
D02*
G37*
G36*
X7500Y27050D02*
X7000D01*
Y27450D01*
X7500D01*
Y27050D01*
D02*
G37*
G36*
X4500D02*
X4000D01*
Y27450D01*
X4500D01*
Y27050D01*
D02*
G37*
G36*
X61050Y19100D02*
X60650D01*
Y19600D01*
X61050D01*
Y19100D01*
D02*
G37*
G36*
Y15750D02*
X60650D01*
Y16250D01*
X61050D01*
Y15750D01*
D02*
G37*
G36*
X31450Y3450D02*
X31050D01*
Y3950D01*
X31450D01*
Y3450D01*
D02*
G37*
G36*
Y2700D02*
X31050D01*
Y3200D01*
X31450D01*
Y2700D01*
D02*
G37*
G36*
X46250Y2550D02*
X45750D01*
Y2950D01*
X46250D01*
Y2550D01*
D02*
G37*
G36*
X45500D02*
X45000D01*
Y2950D01*
X45500D01*
Y2550D01*
D02*
G37*
G36*
X43750D02*
X43250D01*
Y2950D01*
X43750D01*
Y2550D01*
D02*
G37*
G36*
X43000D02*
X42500D01*
Y2950D01*
X43000D01*
Y2550D01*
D02*
G37*
G36*
X24200Y2500D02*
X23800D01*
Y3000D01*
X24200D01*
Y2500D01*
D02*
G37*
G36*
Y1750D02*
X23800D01*
Y2250D01*
X24200D01*
Y1750D01*
D02*
G37*
D144*
X38000Y49550D02*
X38500D01*
Y49950D01*
X38000D02*
X38500D01*
X38000Y49550D02*
Y49950D01*
X45750Y2950D02*
X46250D01*
X45750Y2550D02*
Y2950D01*
Y2550D02*
X46250D01*
Y2950D01*
X45000D02*
X45500D01*
X45000Y2550D02*
Y2950D01*
Y2550D02*
X45500D01*
Y2950D01*
X43250D02*
X43750D01*
X43250Y2550D02*
Y2950D01*
Y2550D02*
X43750D01*
Y2950D01*
X42500D02*
X43000D01*
X42500Y2550D02*
Y2950D01*
Y2550D02*
X43000D01*
Y2950D01*
X31050Y3450D02*
Y3950D01*
Y3450D02*
X31450D01*
Y3950D01*
X31050D02*
X31450D01*
X31050Y2700D02*
Y3200D01*
Y2700D02*
X31450D01*
Y3200D01*
X31050D02*
X31450D01*
X23800Y2500D02*
Y3000D01*
Y2500D02*
X24200D01*
Y3000D01*
X23800D02*
X24200D01*
X23800Y1750D02*
Y2250D01*
Y1750D02*
X24200D01*
Y2250D01*
X23800D02*
X24200D01*
X7000Y27050D02*
Y27450D01*
X7500D01*
Y27050D02*
Y27450D01*
X7000Y27050D02*
X7500D01*
X4000D02*
Y27450D01*
X4500D01*
Y27050D02*
Y27450D01*
X4000Y27050D02*
X4500D01*
X60650Y15750D02*
X61050D01*
X60650D02*
Y16250D01*
X61050D01*
Y15750D02*
Y16250D01*
X60650Y19600D02*
X61050D01*
Y19100D02*
Y19600D01*
X60650Y19100D02*
X61050D01*
X60650D02*
Y19600D01*
D145*
X68250Y2945D02*
D03*
X67750D02*
D03*
X67250D02*
D03*
X66750D02*
D03*
X68250Y1055D02*
D03*
X67750D02*
D03*
X67250D02*
D03*
X66750D02*
D03*
X28250Y14705D02*
D03*
X28750D02*
D03*
X27750Y18305D02*
D03*
X28250D02*
D03*
X28750D02*
D03*
X29250D02*
D03*
X27750Y20195D02*
D03*
X28250D02*
D03*
X28750D02*
D03*
X29250D02*
D03*
Y16595D02*
D03*
X28750D02*
D03*
X28250D02*
D03*
X27750D02*
D03*
X29250Y14705D02*
D03*
X27750D02*
D03*
X31400Y24055D02*
D03*
X31900D02*
D03*
X32400D02*
D03*
X32900D02*
D03*
X31400Y25945D02*
D03*
X31900D02*
D03*
X32400D02*
D03*
X32900D02*
D03*
X6500Y28195D02*
D03*
X6000D02*
D03*
X5500D02*
D03*
X5000D02*
D03*
X6500Y26305D02*
D03*
X6000D02*
D03*
X5500D02*
D03*
X5000D02*
D03*
X31250Y18305D02*
D03*
X31750D02*
D03*
X32250D02*
D03*
X32750D02*
D03*
X31250Y20195D02*
D03*
X31750D02*
D03*
X32250D02*
D03*
X32750D02*
D03*
Y16595D02*
D03*
X32250D02*
D03*
X31750D02*
D03*
X31250D02*
D03*
X32750Y14705D02*
D03*
X31250D02*
D03*
X32250D02*
D03*
X31750D02*
D03*
D146*
X21500Y47672D02*
D03*
Y50428D02*
D03*
X32000Y43372D02*
D03*
Y46128D02*
D03*
X2250Y41628D02*
D03*
Y38872D02*
D03*
X8000Y41628D02*
D03*
Y38872D02*
D03*
D147*
X21500Y45787D02*
D03*
Y46713D02*
D03*
X41250Y37713D02*
D03*
Y36787D02*
D03*
Y35963D02*
D03*
Y35037D02*
D03*
X58500Y21963D02*
D03*
Y21037D02*
D03*
X30500Y25013D02*
D03*
Y24087D02*
D03*
X29250Y22163D02*
D03*
Y21237D02*
D03*
X35750Y54213D02*
D03*
Y53287D02*
D03*
X36750D02*
D03*
Y54213D02*
D03*
X30250Y48463D02*
D03*
Y47537D02*
D03*
X32750Y22163D02*
D03*
Y21237D02*
D03*
X2000Y45287D02*
D03*
Y46213D02*
D03*
Y44213D02*
D03*
Y43287D02*
D03*
D148*
X37168Y46168D02*
D03*
X36332Y45332D02*
D03*
X18832Y48582D02*
D03*
X19668Y49418D02*
D03*
D149*
X35151Y26745D02*
D03*
X34324D02*
D03*
X35151Y26045D02*
D03*
X34324D02*
D03*
X19663Y45750D02*
D03*
X18837D02*
D03*
X37913Y37750D02*
D03*
X37087D02*
D03*
X3163Y37250D02*
D03*
X2337D02*
D03*
X21663Y54750D02*
D03*
X20837D02*
D03*
X44413Y32750D02*
D03*
X43587D02*
D03*
X49587Y32500D02*
D03*
X50413D02*
D03*
X43587Y31750D02*
D03*
X44413D02*
D03*
X49587Y29250D02*
D03*
X50413D02*
D03*
X43587Y24750D02*
D03*
X44413D02*
D03*
X50413D02*
D03*
X49587D02*
D03*
X44413Y23750D02*
D03*
X43587D02*
D03*
X49587Y22500D02*
D03*
X50413D02*
D03*
X42837D02*
D03*
X43663D02*
D03*
X49587Y27000D02*
D03*
X50413D02*
D03*
X1163Y31000D02*
D03*
X337D02*
D03*
X3413D02*
D03*
X2587D02*
D03*
X49587Y30250D02*
D03*
X50413D02*
D03*
X20413Y42750D02*
D03*
X19587D02*
D03*
X15663Y36250D02*
D03*
X14837D02*
D03*
X15663Y34750D02*
D03*
X14837D02*
D03*
X15663Y33250D02*
D03*
X14837D02*
D03*
X15663Y31750D02*
D03*
X14837D02*
D03*
X35663Y44400D02*
D03*
X34837D02*
D03*
X43837Y42000D02*
D03*
X44663D02*
D03*
X50163Y41750D02*
D03*
X49337D02*
D03*
X30413Y46650D02*
D03*
X29587D02*
D03*
X50163Y54500D02*
D03*
X49337D02*
D03*
X43837D02*
D03*
X44663D02*
D03*
X53587Y53750D02*
D03*
X54413D02*
D03*
Y51250D02*
D03*
X53587D02*
D03*
X43837Y53000D02*
D03*
X44663D02*
D03*
X53587Y50400D02*
D03*
X54413D02*
D03*
X49337Y53500D02*
D03*
X50163D02*
D03*
X54413Y44250D02*
D03*
X53587D02*
D03*
X54413Y41750D02*
D03*
X53587D02*
D03*
Y40900D02*
D03*
X54413D02*
D03*
X50163Y50500D02*
D03*
X49337D02*
D03*
X43837Y52000D02*
D03*
X44663D02*
D03*
X53087Y27250D02*
D03*
X53913D02*
D03*
X43837Y50500D02*
D03*
X44663D02*
D03*
X49337Y51500D02*
D03*
X50163D02*
D03*
X53913Y32750D02*
D03*
X53087D02*
D03*
X44413Y36250D02*
D03*
X43587D02*
D03*
X49587D02*
D03*
X50413D02*
D03*
X43587Y39000D02*
D03*
X44413D02*
D03*
X50413Y38500D02*
D03*
X49587D02*
D03*
X44413Y34000D02*
D03*
X43587D02*
D03*
X49587D02*
D03*
X50413D02*
D03*
X63337Y23500D02*
D03*
X64163D02*
D03*
X55337Y23000D02*
D03*
X56163D02*
D03*
X57337D02*
D03*
X58163D02*
D03*
X49337Y48500D02*
D03*
X50163D02*
D03*
X49337Y47500D02*
D03*
X50163D02*
D03*
X49337Y45800D02*
D03*
X50163D02*
D03*
X43837Y49500D02*
D03*
X44663D02*
D03*
X64163Y24500D02*
D03*
X63337D02*
D03*
X43837Y48000D02*
D03*
X44663D02*
D03*
X63337Y25500D02*
D03*
X64163D02*
D03*
X43837Y47000D02*
D03*
X44663D02*
D03*
X43837Y45500D02*
D03*
X44663D02*
D03*
X21663Y53500D02*
D03*
X20837D02*
D03*
X21663Y52500D02*
D03*
X20837D02*
D03*
X21663Y51500D02*
D03*
X20837D02*
D03*
X30413Y45750D02*
D03*
X29587D02*
D03*
X64663Y14400D02*
D03*
X63837D02*
D03*
X64663Y15250D02*
D03*
X63837D02*
D03*
X49337Y40500D02*
D03*
X50163D02*
D03*
X64663Y18500D02*
D03*
X63837D02*
D03*
X44663Y41000D02*
D03*
X43837D02*
D03*
X64663Y17650D02*
D03*
X63837D02*
D03*
X49337Y43750D02*
D03*
X50163D02*
D03*
X49337Y42750D02*
D03*
X50163D02*
D03*
X43837Y44500D02*
D03*
X44663D02*
D03*
X43837Y43250D02*
D03*
X44663D02*
D03*
X14837Y26250D02*
D03*
X15663D02*
D03*
X14837Y25250D02*
D03*
X15663D02*
D03*
X14837Y27250D02*
D03*
X15663D02*
D03*
X14837Y28250D02*
D03*
X15663D02*
D03*
X14837Y29250D02*
D03*
X15663D02*
D03*
X14837Y30250D02*
D03*
X15663D02*
D03*
X63337Y22550D02*
D03*
X64163D02*
D03*
X39587Y52250D02*
D03*
X40413D02*
D03*
X29837Y14700D02*
D03*
X30663D02*
D03*
X33337D02*
D03*
X34163D02*
D03*
X12163Y50100D02*
D03*
X11337D02*
D03*
X5663Y47650D02*
D03*
X4837D02*
D03*
X12837Y44950D02*
D03*
X13663D02*
D03*
X5663Y46350D02*
D03*
X4837D02*
D03*
X12163Y44200D02*
D03*
X11337D02*
D03*
X12163Y44950D02*
D03*
X11337D02*
D03*
D150*
X38250Y50242D02*
D03*
Y49258D02*
D03*
X46000Y2258D02*
D03*
Y3242D02*
D03*
X45250Y2258D02*
D03*
Y3242D02*
D03*
X43500Y2258D02*
D03*
Y3242D02*
D03*
X42750Y2258D02*
D03*
Y3242D02*
D03*
X7250Y26758D02*
D03*
Y27742D02*
D03*
X4250Y26758D02*
D03*
Y27742D02*
D03*
D151*
X31742Y3700D02*
D03*
X30758D02*
D03*
X31742Y2950D02*
D03*
X30758D02*
D03*
X24492Y2750D02*
D03*
X23508D02*
D03*
X24492Y2000D02*
D03*
X23508D02*
D03*
X61342Y16000D02*
D03*
X60358D02*
D03*
Y19350D02*
D03*
X61342D02*
D03*
D152*
X522Y33100D02*
D03*
X-2322D02*
D03*
D153*
X19495Y53500D02*
D03*
X18905D02*
D03*
Y52500D02*
D03*
X19495D02*
D03*
Y51500D02*
D03*
X18905D02*
D03*
D154*
X35013Y43500D02*
D03*
X34087D02*
D03*
X3037Y29500D02*
D03*
X3963D02*
D03*
X50213Y52500D02*
D03*
X49287D02*
D03*
Y55500D02*
D03*
X50213D02*
D03*
X60713Y22250D02*
D03*
X59787D02*
D03*
X49287Y49500D02*
D03*
X50213D02*
D03*
Y46750D02*
D03*
X49287D02*
D03*
X55537Y13750D02*
D03*
X56463D02*
D03*
X62713Y12800D02*
D03*
X61787D02*
D03*
X55537Y16750D02*
D03*
X56463D02*
D03*
X63225Y16150D02*
D03*
X62300D02*
D03*
X44463Y40000D02*
D03*
X43537D02*
D03*
X50213Y44750D02*
D03*
X49287D02*
D03*
X11287Y47600D02*
D03*
X12213D02*
D03*
X12213Y46750D02*
D03*
X11287D02*
D03*
X12213Y48450D02*
D03*
X11287D02*
D03*
X8463Y43900D02*
D03*
X7537D02*
D03*
X5787Y44250D02*
D03*
X6713D02*
D03*
X8463Y50100D02*
D03*
X7537D02*
D03*
X5787Y49750D02*
D03*
X6713D02*
D03*
X12213Y49300D02*
D03*
X11287D02*
D03*
D155*
X59250Y17827D02*
D03*
Y16173D02*
D03*
Y13173D02*
D03*
Y14827D02*
D03*
D156*
X13000Y22663D02*
D03*
Y21837D02*
D03*
Y16663D02*
D03*
Y15837D02*
D03*
X47250Y14913D02*
D03*
Y14087D02*
D03*
X52250D02*
D03*
Y14913D02*
D03*
X53250D02*
D03*
Y14087D02*
D03*
X46250D02*
D03*
Y14913D02*
D03*
X48250Y14087D02*
D03*
Y14913D02*
D03*
X49250D02*
D03*
Y14087D02*
D03*
X50250D02*
D03*
Y14913D02*
D03*
X51250D02*
D03*
Y14087D02*
D03*
X19750Y23587D02*
D03*
Y24413D02*
D03*
X24250Y22563D02*
D03*
Y21737D02*
D03*
X24250Y16663D02*
D03*
Y15837D02*
D03*
X29000Y9087D02*
D03*
Y9913D02*
D03*
Y5337D02*
D03*
Y6163D02*
D03*
X17750Y23587D02*
D03*
Y24413D02*
D03*
X10750Y16663D02*
D03*
Y15837D02*
D03*
Y22663D02*
D03*
Y21837D02*
D03*
X37000Y5337D02*
D03*
Y6163D02*
D03*
X37050Y9087D02*
D03*
Y9913D02*
D03*
X26500Y16663D02*
D03*
Y15837D02*
D03*
X26500Y22563D02*
D03*
Y21737D02*
D03*
X39000Y21837D02*
D03*
Y22663D02*
D03*
Y16663D02*
D03*
Y15837D02*
D03*
X35500Y16663D02*
D03*
Y15837D02*
D03*
Y22663D02*
D03*
Y21837D02*
D03*
X41250D02*
D03*
Y22663D02*
D03*
Y16663D02*
D03*
Y15837D02*
D03*
X36750Y21837D02*
D03*
Y22663D02*
D03*
Y16663D02*
D03*
Y15837D02*
D03*
X44600Y26913D02*
D03*
Y26087D02*
D03*
X43500Y15837D02*
D03*
Y16663D02*
D03*
X16500Y21837D02*
D03*
Y22663D02*
D03*
Y15837D02*
D03*
Y16663D02*
D03*
X-1500Y26087D02*
D03*
Y26913D02*
D03*
X-2500Y26087D02*
D03*
Y26913D02*
D03*
X33700Y45087D02*
D03*
Y45913D02*
D03*
X24000Y27537D02*
D03*
Y28363D02*
D03*
X23200Y27537D02*
D03*
Y28363D02*
D03*
X22400Y27537D02*
D03*
Y28363D02*
D03*
X21500Y27537D02*
D03*
Y28363D02*
D03*
X55000Y28913D02*
D03*
Y28087D02*
D03*
Y34163D02*
D03*
Y33337D02*
D03*
X58750Y24337D02*
D03*
Y25163D02*
D03*
X12500Y5587D02*
D03*
Y6413D02*
D03*
Y9337D02*
D03*
Y10163D02*
D03*
X19750Y16663D02*
D03*
Y15837D02*
D03*
X19750Y22563D02*
D03*
Y21737D02*
D03*
X20750Y5837D02*
D03*
Y6663D02*
D03*
Y9587D02*
D03*
Y10413D02*
D03*
X14250Y21837D02*
D03*
Y22663D02*
D03*
X22000Y16663D02*
D03*
Y15837D02*
D03*
X14250D02*
D03*
Y16663D02*
D03*
X22000Y22563D02*
D03*
Y21737D02*
D03*
X38250Y35163D02*
D03*
Y34337D02*
D03*
X55000Y31413D02*
D03*
Y30587D02*
D03*
Y36663D02*
D03*
Y35837D02*
D03*
D157*
X52376Y16028D02*
D03*
X53124D02*
D03*
X52750Y16972D02*
D03*
X46750D02*
D03*
X47124Y16028D02*
D03*
X46376D02*
D03*
X48376D02*
D03*
X49124D02*
D03*
X48750Y16972D02*
D03*
X50750D02*
D03*
X51124Y16028D02*
D03*
X50376D02*
D03*
X28876Y12028D02*
D03*
X29624D02*
D03*
X29250Y12972D02*
D03*
X37126Y12028D02*
D03*
X37874D02*
D03*
X37500Y12972D02*
D03*
X17476Y25078D02*
D03*
X18224D02*
D03*
X17850Y26022D02*
D03*
X19600D02*
D03*
X19974Y25078D02*
D03*
X19226D02*
D03*
X53376Y28028D02*
D03*
X54124D02*
D03*
X53750Y28972D02*
D03*
Y31472D02*
D03*
X54124Y30528D02*
D03*
X53376D02*
D03*
X53576Y33528D02*
D03*
X54324D02*
D03*
X53950Y34472D02*
D03*
X53750Y36722D02*
D03*
X54124Y35778D02*
D03*
X53376D02*
D03*
X37876Y51278D02*
D03*
X38624D02*
D03*
X38250Y52222D02*
D03*
X12626Y12278D02*
D03*
X13374D02*
D03*
X13000Y13222D02*
D03*
X20876Y12028D02*
D03*
X21624D02*
D03*
X21250Y12972D02*
D03*
D158*
X52750Y18159D02*
D03*
Y19341D02*
D03*
X46750Y18159D02*
D03*
Y19341D02*
D03*
X48750Y18159D02*
D03*
Y19341D02*
D03*
X50750Y18159D02*
D03*
Y19341D02*
D03*
X5000Y37341D02*
D03*
Y36159D02*
D03*
D159*
X19250Y27495D02*
D03*
Y26905D02*
D03*
X30000Y6045D02*
D03*
Y5455D02*
D03*
X18250Y27495D02*
D03*
Y26905D02*
D03*
X38000Y6045D02*
D03*
Y5455D02*
D03*
X13500Y5705D02*
D03*
Y6295D02*
D03*
X21750D02*
D03*
Y5705D02*
D03*
D160*
X35053Y39750D02*
D03*
X36947D02*
D03*
D161*
X35122Y41500D02*
D03*
X37878D02*
D03*
X18572Y44350D02*
D03*
X21328D02*
D03*
X2628Y25250D02*
D03*
X-128D02*
D03*
X622Y35750D02*
D03*
X3378D02*
D03*
X10378Y5500D02*
D03*
X7622D02*
D03*
X41128Y45000D02*
D03*
X38372D02*
D03*
D162*
X29972Y7500D02*
D03*
X29028Y7126D02*
D03*
Y7874D02*
D03*
X2528Y19000D02*
D03*
X3472Y19374D02*
D03*
Y18626D02*
D03*
X1722Y19376D02*
D03*
Y20124D02*
D03*
X778Y19750D02*
D03*
Y18250D02*
D03*
X1722Y18624D02*
D03*
Y17876D02*
D03*
X37972Y7500D02*
D03*
X37028Y7126D02*
D03*
Y7874D02*
D03*
X13222Y35876D02*
D03*
Y36624D02*
D03*
X12278Y36250D02*
D03*
Y34750D02*
D03*
X13222Y35124D02*
D03*
Y34376D02*
D03*
Y32876D02*
D03*
Y33624D02*
D03*
X12278Y33250D02*
D03*
Y31750D02*
D03*
X13222Y32124D02*
D03*
Y31376D02*
D03*
X52678Y52874D02*
D03*
Y52126D02*
D03*
X53622Y52500D02*
D03*
X55222D02*
D03*
X54278Y52126D02*
D03*
Y52874D02*
D03*
X52678Y43374D02*
D03*
Y42626D02*
D03*
X53622Y43000D02*
D03*
X55222D02*
D03*
X54278Y42626D02*
D03*
Y43374D02*
D03*
X13472Y7750D02*
D03*
X12528Y7376D02*
D03*
Y8124D02*
D03*
X21722Y8000D02*
D03*
X20778Y7626D02*
D03*
Y8374D02*
D03*
D163*
X-750Y16488D02*
D03*
Y17276D02*
D03*
Y18063D02*
D03*
Y18850D02*
D03*
Y19638D02*
D03*
Y20425D02*
D03*
Y21213D02*
D03*
Y22000D02*
D03*
D164*
X-2907Y15490D02*
D03*
Y23010D02*
D03*
D165*
X18876Y46778D02*
D03*
X19250D02*
D03*
X19624D02*
D03*
Y47722D02*
D03*
X18876D02*
D03*
D166*
X9093Y24946D02*
D03*
Y30300D02*
D03*
X12400Y24946D02*
D03*
Y30300D02*
D03*
D167*
X10089Y26375D02*
D03*
Y26808D02*
D03*
Y27241D02*
D03*
Y27674D02*
D03*
Y28107D02*
D03*
Y28540D02*
D03*
Y28973D02*
D03*
Y29406D02*
D03*
D168*
X46055Y54500D02*
D03*
Y54000D02*
D03*
Y53500D02*
D03*
Y53000D02*
D03*
X47945Y54500D02*
D03*
Y54000D02*
D03*
Y53500D02*
D03*
Y53000D02*
D03*
Y50500D02*
D03*
Y51000D02*
D03*
Y51500D02*
D03*
Y52000D02*
D03*
X46055Y50500D02*
D03*
Y51000D02*
D03*
Y51500D02*
D03*
Y52000D02*
D03*
Y49500D02*
D03*
Y49000D02*
D03*
Y48500D02*
D03*
Y48000D02*
D03*
X47945Y49500D02*
D03*
Y49000D02*
D03*
Y48500D02*
D03*
Y48000D02*
D03*
X46055Y47000D02*
D03*
Y46500D02*
D03*
Y46000D02*
D03*
Y45500D02*
D03*
X47945Y47000D02*
D03*
Y46500D02*
D03*
Y46000D02*
D03*
Y45500D02*
D03*
X46055Y42000D02*
D03*
Y41500D02*
D03*
Y41000D02*
D03*
Y40500D02*
D03*
X47945Y42000D02*
D03*
Y41500D02*
D03*
Y41000D02*
D03*
Y40500D02*
D03*
X46055Y44500D02*
D03*
Y44000D02*
D03*
Y43500D02*
D03*
Y43000D02*
D03*
X47945Y44500D02*
D03*
Y44000D02*
D03*
Y43500D02*
D03*
Y43000D02*
D03*
X-195Y30000D02*
D03*
Y29500D02*
D03*
Y29000D02*
D03*
Y28500D02*
D03*
X1695Y30000D02*
D03*
Y29500D02*
D03*
Y29000D02*
D03*
Y28500D02*
D03*
X57445Y24000D02*
D03*
Y24500D02*
D03*
Y25000D02*
D03*
Y25500D02*
D03*
X55555Y24000D02*
D03*
Y24500D02*
D03*
Y25000D02*
D03*
Y25500D02*
D03*
X61945Y23250D02*
D03*
Y23750D02*
D03*
Y24250D02*
D03*
Y24750D02*
D03*
X60055Y23250D02*
D03*
Y23750D02*
D03*
Y24250D02*
D03*
Y24750D02*
D03*
X57445Y20500D02*
D03*
Y21000D02*
D03*
Y21500D02*
D03*
Y22000D02*
D03*
X55555Y20500D02*
D03*
Y21000D02*
D03*
Y21500D02*
D03*
Y22000D02*
D03*
X60555Y15250D02*
D03*
Y14750D02*
D03*
Y14250D02*
D03*
Y13750D02*
D03*
X62445Y15250D02*
D03*
Y14750D02*
D03*
Y14250D02*
D03*
Y13750D02*
D03*
Y17000D02*
D03*
Y17500D02*
D03*
Y18000D02*
D03*
Y18500D02*
D03*
X60555Y17000D02*
D03*
Y17500D02*
D03*
Y18000D02*
D03*
Y18500D02*
D03*
D169*
X39423Y49500D02*
D03*
X41077D02*
D03*
X7923Y3750D02*
D03*
X9577D02*
D03*
X41177Y51000D02*
D03*
X39523D02*
D03*
D170*
X6000Y5577D02*
D03*
Y3923D02*
D03*
D171*
X5185Y33900D02*
D03*
X3315D02*
D03*
X2065Y53000D02*
D03*
X3935D02*
D03*
D172*
X10159Y37000D02*
D03*
X11341D02*
D03*
X10159Y35250D02*
D03*
X11341D02*
D03*
X10159Y33500D02*
D03*
X11341D02*
D03*
X10159Y31750D02*
D03*
X11341D02*
D03*
X19591Y54750D02*
D03*
X18409D02*
D03*
D173*
X34433Y30072D02*
D03*
X34236D02*
D03*
X34039D02*
D03*
X33842D02*
D03*
X33645D02*
D03*
X33448D02*
D03*
X33252D02*
D03*
X33055D02*
D03*
X32858D02*
D03*
X32661D02*
D03*
X32464D02*
D03*
X32267D02*
D03*
X32070D02*
D03*
X31874D02*
D03*
X31677D02*
D03*
X31480D02*
D03*
X31283D02*
D03*
X31086D02*
D03*
X30889D02*
D03*
X30693D02*
D03*
X30496D02*
D03*
X30299D02*
D03*
X30102D02*
D03*
X29905D02*
D03*
X29708D02*
D03*
X29511D02*
D03*
X29315D02*
D03*
X29118D02*
D03*
X28921D02*
D03*
X28724D02*
D03*
X28527D02*
D03*
X28330D02*
D03*
X28133D02*
D03*
X27937D02*
D03*
X27740D02*
D03*
X27543D02*
D03*
Y38419D02*
D03*
X27740D02*
D03*
X27937D02*
D03*
X28133D02*
D03*
X28330D02*
D03*
X28527D02*
D03*
X28724D02*
D03*
X28921D02*
D03*
X29118D02*
D03*
X29315D02*
D03*
X29511D02*
D03*
X29708D02*
D03*
X29905D02*
D03*
X30102D02*
D03*
X30299D02*
D03*
X30496D02*
D03*
X30693D02*
D03*
X30889D02*
D03*
X31086D02*
D03*
X31283D02*
D03*
X31480D02*
D03*
X31677D02*
D03*
X31874D02*
D03*
X32070D02*
D03*
X32267D02*
D03*
X32464D02*
D03*
X32661D02*
D03*
X32858D02*
D03*
X33055D02*
D03*
X33252D02*
D03*
X33448D02*
D03*
X33645D02*
D03*
X33842D02*
D03*
X34039D02*
D03*
X34236D02*
D03*
X34433D02*
D03*
D174*
X26815Y30800D02*
D03*
Y30997D02*
D03*
Y31194D02*
D03*
Y31391D02*
D03*
Y31588D02*
D03*
Y31785D02*
D03*
Y31981D02*
D03*
Y32178D02*
D03*
Y32375D02*
D03*
Y32572D02*
D03*
Y32769D02*
D03*
Y32966D02*
D03*
Y33163D02*
D03*
Y33359D02*
D03*
Y33556D02*
D03*
Y33753D02*
D03*
Y33950D02*
D03*
Y34147D02*
D03*
Y34344D02*
D03*
Y34541D02*
D03*
Y34737D02*
D03*
Y34934D02*
D03*
Y35131D02*
D03*
Y35328D02*
D03*
Y35525D02*
D03*
Y35722D02*
D03*
Y35919D02*
D03*
Y36115D02*
D03*
Y36312D02*
D03*
Y36509D02*
D03*
Y36706D02*
D03*
Y36903D02*
D03*
Y37100D02*
D03*
Y37296D02*
D03*
Y37493D02*
D03*
Y37690D02*
D03*
X35161D02*
D03*
Y37493D02*
D03*
Y37296D02*
D03*
Y37100D02*
D03*
Y36903D02*
D03*
Y36706D02*
D03*
Y36509D02*
D03*
Y36312D02*
D03*
Y36115D02*
D03*
Y35919D02*
D03*
Y35722D02*
D03*
Y35525D02*
D03*
Y35328D02*
D03*
Y35131D02*
D03*
Y34934D02*
D03*
Y34737D02*
D03*
Y34541D02*
D03*
Y34344D02*
D03*
Y34147D02*
D03*
Y33950D02*
D03*
Y33753D02*
D03*
Y33556D02*
D03*
Y33359D02*
D03*
Y33163D02*
D03*
Y32966D02*
D03*
Y32769D02*
D03*
Y32572D02*
D03*
Y32375D02*
D03*
Y32178D02*
D03*
Y31981D02*
D03*
Y31785D02*
D03*
Y31588D02*
D03*
Y31391D02*
D03*
Y31194D02*
D03*
Y30997D02*
D03*
Y30800D02*
D03*
D175*
X31750Y47191D02*
D03*
X32250D02*
D03*
X32750D02*
D03*
X33250D02*
D03*
X33750D02*
D03*
X34250D02*
D03*
X34750D02*
D03*
X35250D02*
D03*
X35750D02*
D03*
X36250D02*
D03*
X36750D02*
D03*
Y52309D02*
D03*
X36250D02*
D03*
X35750D02*
D03*
X35250D02*
D03*
X34750D02*
D03*
X34250D02*
D03*
X33750D02*
D03*
X33250D02*
D03*
X32759D02*
D03*
X32250D02*
D03*
X31750D02*
D03*
D176*
X31474Y49750D02*
D03*
X37026D02*
D03*
D177*
X34528Y46124D02*
D03*
Y45750D02*
D03*
Y45376D02*
D03*
X35472D02*
D03*
Y46124D02*
D03*
D178*
X25800Y49898D02*
D03*
D179*
X28727Y46000D02*
D03*
Y46600D02*
D03*
Y47200D02*
D03*
Y47800D02*
D03*
Y48400D02*
D03*
Y49600D02*
D03*
Y52000D02*
D03*
Y52600D02*
D03*
X22873D02*
D03*
Y52000D02*
D03*
Y51400D02*
D03*
Y50800D02*
D03*
Y50200D02*
D03*
Y49600D02*
D03*
Y49000D02*
D03*
Y48400D02*
D03*
Y47800D02*
D03*
Y47200D02*
D03*
Y46600D02*
D03*
Y46000D02*
D03*
X28727Y51400D02*
D03*
Y50200D02*
D03*
Y49000D02*
D03*
Y50800D02*
D03*
D180*
X25548Y45421D02*
D03*
X26148D02*
D03*
X26748D02*
D03*
X27348D02*
D03*
X27948D02*
D03*
D181*
X55222Y15384D02*
D03*
Y15128D02*
D03*
Y14872D02*
D03*
Y14616D02*
D03*
X56778Y15384D02*
D03*
Y15128D02*
D03*
Y14872D02*
D03*
Y14616D02*
D03*
X55222Y18384D02*
D03*
Y18128D02*
D03*
Y17872D02*
D03*
Y17616D02*
D03*
X56778Y18384D02*
D03*
Y18128D02*
D03*
Y17872D02*
D03*
Y17616D02*
D03*
D182*
X56500Y52478D02*
D03*
Y54522D02*
D03*
Y44972D02*
D03*
Y42928D02*
D03*
Y28728D02*
D03*
Y30772D02*
D03*
Y35522D02*
D03*
Y33478D02*
D03*
Y47728D02*
D03*
Y49772D02*
D03*
Y40272D02*
D03*
Y38228D02*
D03*
D183*
X61000Y53500D02*
D03*
Y43950D02*
D03*
Y29750D02*
D03*
Y34500D02*
D03*
Y48750D02*
D03*
Y39250D02*
D03*
D184*
X6411Y40250D02*
D03*
D185*
X4089Y39344D02*
D03*
Y40250D02*
D03*
Y41156D02*
D03*
D186*
X11140Y45850D02*
D03*
X12360D02*
D03*
D187*
X6644Y48350D02*
D03*
X5856D02*
D03*
X6644Y45650D02*
D03*
X5856D02*
D03*
X8394Y44650D02*
D03*
X7606D02*
D03*
X5856Y45000D02*
D03*
X6644D02*
D03*
X5856Y49000D02*
D03*
X6644D02*
D03*
X8394Y49350D02*
D03*
X7606D02*
D03*
D188*
X9911Y45337D02*
D03*
Y45593D02*
D03*
Y45848D02*
D03*
Y46104D02*
D03*
Y46360D02*
D03*
Y46616D02*
D03*
Y46872D02*
D03*
Y47128D02*
D03*
Y47384D02*
D03*
Y47640D02*
D03*
Y47896D02*
D03*
Y48152D02*
D03*
Y48407D02*
D03*
Y48663D02*
D03*
X7589Y45337D02*
D03*
Y45593D02*
D03*
Y45848D02*
D03*
Y46104D02*
D03*
Y46360D02*
D03*
Y46616D02*
D03*
Y46872D02*
D03*
Y47128D02*
D03*
Y47384D02*
D03*
Y47640D02*
D03*
Y47896D02*
D03*
Y48152D02*
D03*
Y48407D02*
D03*
Y48663D02*
D03*
D189*
X8750Y47000D02*
D03*
D190*
X43862Y5537D02*
D03*
X39138D02*
D03*
X30941Y13500D02*
D03*
X14888Y5537D02*
D03*
X19612D02*
D03*
X27612D02*
D03*
X22888D02*
D03*
X40191Y13500D02*
D03*
X8000Y10000D02*
D03*
Y9000D02*
D03*
X22441Y13500D02*
D03*
X15691D02*
D03*
X31138Y5537D02*
D03*
X35862D02*
D03*
D191*
X43862Y10341D02*
D03*
X39138D02*
D03*
X41500Y4750D02*
D03*
X17250D02*
D03*
X14888Y10341D02*
D03*
X19612D02*
D03*
X27612D02*
D03*
X22888D02*
D03*
X25250Y4750D02*
D03*
X33500D02*
D03*
X31138Y10341D02*
D03*
X35862D02*
D03*
D192*
X59732Y949D02*
D03*
X58782D02*
D03*
X57832D02*
D03*
X56882D02*
D03*
X55932D02*
D03*
X54982D02*
D03*
X54032D02*
D03*
X53082D02*
D03*
X52132D02*
D03*
X51182D02*
D03*
X50232D02*
D03*
X49282D02*
D03*
X48332D02*
D03*
X47382D02*
D03*
X46432D02*
D03*
X45482D02*
D03*
X44532D02*
D03*
X43582D02*
D03*
X42632D02*
D03*
X41682D02*
D03*
X40732D02*
D03*
X59256Y0D02*
D03*
X58306D02*
D03*
X57356D02*
D03*
X56406D02*
D03*
X55456D02*
D03*
X54506D02*
D03*
X53556D02*
D03*
X52606D02*
D03*
X51656D02*
D03*
X50706D02*
D03*
X49756D02*
D03*
X48806D02*
D03*
X47856D02*
D03*
X46906D02*
D03*
X45956D02*
D03*
X45006D02*
D03*
X44056D02*
D03*
X43106D02*
D03*
X42156D02*
D03*
X41206D02*
D03*
X40256D02*
D03*
X58782Y-950D02*
D03*
X57832D02*
D03*
X56882D02*
D03*
X55932D02*
D03*
X54982D02*
D03*
X54032D02*
D03*
X53082D02*
D03*
X52132D02*
D03*
X51182D02*
D03*
X50232D02*
D03*
X49282D02*
D03*
X48332D02*
D03*
X47382D02*
D03*
X46432D02*
D03*
X45482D02*
D03*
X44532D02*
D03*
X43582D02*
D03*
X42632D02*
D03*
X41682D02*
D03*
X40732D02*
D03*
D193*
X37500Y0D02*
D03*
X62500D02*
D03*
D194*
X25569Y-201D02*
D03*
X26114Y-1319D02*
D03*
X26659Y-201D02*
D03*
X27205Y-1319D02*
D03*
X27750Y-201D02*
D03*
X28295Y-1319D02*
D03*
X28841Y-201D02*
D03*
X29386Y-1319D02*
D03*
X11319Y-201D02*
D03*
X11864Y-1319D02*
D03*
X12409Y-201D02*
D03*
X12955Y-1319D02*
D03*
X13500Y-201D02*
D03*
X14045Y-1319D02*
D03*
X14591Y-201D02*
D03*
X15136Y-1319D02*
D03*
D195*
X29931Y-201D02*
D03*
X15681D02*
D03*
D196*
X32669Y-760D02*
D03*
X22831D02*
D03*
X18419D02*
D03*
X8581D02*
D03*
D197*
X4530Y14300D02*
D03*
X12000Y20750D02*
D03*
X13000Y17750D02*
D03*
X12000D02*
D03*
X23250D02*
D03*
X24250D02*
D03*
X23250Y20750D02*
D03*
X39500Y54000D02*
D03*
X38500D02*
D03*
X734Y9000D02*
D03*
X3750Y1900D02*
D03*
X750Y2600D02*
D03*
X4500Y8016D02*
D03*
X10250Y1900D02*
D03*
X7250Y2600D02*
D03*
X9750Y20750D02*
D03*
X10750Y17750D02*
D03*
X9750D02*
D03*
X25500D02*
D03*
X26500D02*
D03*
X25500Y20750D02*
D03*
X48500Y32500D02*
D03*
X45500Y31500D02*
D03*
Y32500D02*
D03*
X48500Y29250D02*
D03*
Y30250D02*
D03*
X45500Y29250D02*
D03*
Y24750D02*
D03*
X48500Y25750D02*
D03*
Y24750D02*
D03*
X40000Y20750D02*
D03*
X39000D02*
D03*
X40000Y17750D02*
D03*
X34500Y20750D02*
D03*
X35500Y17750D02*
D03*
X34500D02*
D03*
X45500Y23500D02*
D03*
Y22500D02*
D03*
X48500Y23500D02*
D03*
X42250Y17750D02*
D03*
X41250Y20750D02*
D03*
X42250D02*
D03*
X37750D02*
D03*
X36750D02*
D03*
X37750Y17750D02*
D03*
X43500Y20750D02*
D03*
X44500Y17750D02*
D03*
X43500D02*
D03*
X45500Y28000D02*
D03*
Y27000D02*
D03*
X48500Y28000D02*
D03*
X17500Y17750D02*
D03*
X16500Y20750D02*
D03*
X17500D02*
D03*
X48500Y37250D02*
D03*
X45500Y36250D02*
D03*
Y37250D02*
D03*
X48500Y38500D02*
D03*
Y39500D02*
D03*
X45500Y38500D02*
D03*
X48500Y35000D02*
D03*
X45500Y34000D02*
D03*
Y35000D02*
D03*
X18750Y17750D02*
D03*
X19750D02*
D03*
X18750Y20750D02*
D03*
X15250Y17750D02*
D03*
X14250Y20750D02*
D03*
X15250D02*
D03*
X21000Y17750D02*
D03*
X22000D02*
D03*
X21000Y20750D02*
D03*
X3984Y50050D02*
D03*
X-2250Y19500D02*
D03*
X6000Y6500D02*
D03*
D198*
X1970Y14300D02*
D03*
X40500Y54000D02*
D03*
X-1234Y9000D02*
D03*
X48500Y31500D02*
D03*
X45500Y30250D02*
D03*
Y25750D02*
D03*
X48500Y22500D02*
D03*
Y27000D02*
D03*
Y36250D02*
D03*
X45500Y39500D02*
D03*
X48500Y34000D02*
D03*
X2016Y50050D02*
D03*
D199*
X13000Y20750D02*
D03*
X24250D02*
D03*
X4500Y9984D02*
D03*
X10750Y20750D02*
D03*
X26500D02*
D03*
X39000Y17750D02*
D03*
X35500Y20750D02*
D03*
X41250Y17750D02*
D03*
X36750D02*
D03*
X44500Y20750D02*
D03*
X16500Y17750D02*
D03*
X19750Y20750D02*
D03*
X14250Y17750D02*
D03*
X22000Y20750D02*
D03*
D200*
X39750Y35289D02*
D03*
D201*
Y37211D02*
D03*
D202*
X35059Y13500D02*
D03*
X44309D02*
D03*
X26559D02*
D03*
X19809D02*
D03*
D203*
X23500Y24500D02*
D03*
D204*
Y25500D02*
D03*
X24500Y24500D02*
D03*
Y25500D02*
D03*
X25500Y24500D02*
D03*
Y25500D02*
D03*
X26500Y24500D02*
D03*
Y25500D02*
D03*
X27500Y24500D02*
D03*
Y25500D02*
D03*
D205*
X8000Y8000D02*
D03*
D206*
X40000Y25313D02*
D03*
Y33187D02*
D03*
D207*
X31766Y53516D02*
D03*
Y55484D02*
D03*
X33734D02*
D03*
Y53516D02*
D03*
X32750Y54500D02*
D03*
D208*
X67000Y33750D02*
D03*
Y29750D02*
D03*
Y31750D02*
D03*
Y46500D02*
D03*
Y44500D02*
D03*
Y42500D02*
D03*
Y38500D02*
D03*
Y40500D02*
D03*
Y48500D02*
D03*
Y50500D02*
D03*
X6000Y0D02*
D03*
X2000D02*
D03*
X4000D02*
D03*
X-250Y45750D02*
D03*
Y47750D02*
D03*
Y43750D02*
D03*
D209*
X67000Y27750D02*
D03*
Y36500D02*
D03*
X-250Y49750D02*
D03*
D210*
X0Y0D02*
D03*
D211*
X-2362Y54382D02*
D03*
X68504D02*
D03*
X-2362Y-2705D02*
D03*
X68504D02*
D03*
X53740Y47492D02*
D03*
Y38634D02*
D03*
X64567Y28791D02*
D03*
Y53398D02*
D03*
D212*
X64500Y34500D02*
D03*
X58250Y29700D02*
D03*
D213*
X8967Y45917D02*
D03*
X8533D02*
D03*
X8967Y46350D02*
D03*
X8533D02*
D03*
X8967Y46783D02*
D03*
X8533D02*
D03*
X8967Y47217D02*
D03*
X8533D02*
D03*
X8967Y47650D02*
D03*
X8533D02*
D03*
X8967Y48083D02*
D03*
X8533D02*
D03*
M02*
