G04 Layer_Color=8388736*
%FSLAX24Y24*%
%MOIN*%
G70*
G01*
G75*
%ADD154C,0.0000*%
%ADD155R,0.0631X0.0415*%
%ADD156R,0.1025X0.2639*%
%ADD157O,0.0631X0.0257*%
%ADD158R,0.0612X0.0651*%
%ADD159R,0.0415X0.0592*%
%ADD160R,0.0592X0.0434*%
%ADD161R,0.0651X0.0612*%
%ADD162R,0.0454X0.0749*%
%ADD163R,0.0907X0.0986*%
%ADD164R,0.1143X0.0474*%
%ADD165R,0.1143X0.1379*%
%ADD166R,0.1694X0.1104*%
%ADD167O,0.0316X0.0946*%
%ADD168R,0.0592X0.0415*%
%ADD169R,0.0867X0.1064*%
%ADD170R,0.1580X0.0879*%
%ADD171R,0.3580X0.4580*%
%ADD172O,0.0828X0.0241*%
%ADD173O,0.0946X0.0316*%
%ADD174R,0.0395X0.0395*%
G04:AMPARAMS|DCode=175|XSize=47.4mil|YSize=80.8mil|CornerRadius=23.7mil|HoleSize=0mil|Usage=FLASHONLY|Rotation=90.000|XOffset=0mil|YOffset=0mil|HoleType=Round|Shape=RoundedRectangle|*
%AMROUNDEDRECTD175*
21,1,0.0474,0.0335,0,0,90.0*
21,1,0.0000,0.0808,0,0,90.0*
1,1,0.0474,0.0167,0.0000*
1,1,0.0474,0.0167,0.0000*
1,1,0.0474,-0.0167,0.0000*
1,1,0.0474,-0.0167,0.0000*
%
%ADD175ROUNDEDRECTD175*%
G04:AMPARAMS|DCode=176|XSize=47.4mil|YSize=80.8mil|CornerRadius=23.7mil|HoleSize=0mil|Usage=FLASHONLY|Rotation=180.000|XOffset=0mil|YOffset=0mil|HoleType=Round|Shape=RoundedRectangle|*
%AMROUNDEDRECTD176*
21,1,0.0474,0.0335,0,0,180.0*
21,1,0.0000,0.0808,0,0,180.0*
1,1,0.0474,0.0000,0.0167*
1,1,0.0474,0.0000,0.0167*
1,1,0.0474,0.0000,-0.0167*
1,1,0.0474,0.0000,-0.0167*
%
%ADD176ROUNDEDRECTD176*%
%ADD177R,0.3230X0.4017*%
%ADD178R,0.0671X0.1104*%
%ADD179R,0.0474X0.0316*%
%ADD180R,0.0828X0.1517*%
%ADD181R,0.0395X0.0671*%
%ADD182R,0.1104X0.1694*%
%ADD183O,0.0730X0.0198*%
%ADD184O,0.0198X0.0730*%
%ADD185R,0.0671X0.0572*%
%ADD186R,0.0572X0.0671*%
%ADD187R,0.1104X0.0671*%
%ADD188R,0.1340X0.0671*%
%ADD189R,0.0493X0.0316*%
%ADD190R,0.0867X0.0671*%
%ADD191P,0.0837X4X270.0*%
%ADD192R,0.0316X0.0474*%
%ADD193R,0.2167X0.0749*%
%ADD194R,0.1340X0.0552*%
%ADD195R,0.0907X0.1257*%
%ADD196R,0.1064X0.0867*%
%ADD197R,0.0395X0.0395*%
%ADD198R,0.1310X0.2180*%
%ADD199R,0.0474X0.0356*%
%ADD200R,0.0356X0.0474*%
%ADD201R,0.0375X0.0454*%
%ADD202R,0.0277X0.0986*%
%ADD203R,0.0454X0.0375*%
%ADD204R,0.0907X0.0474*%
%ADD205R,0.1104X0.0612*%
%ADD206R,0.0612X0.1104*%
%ADD207R,0.0454X0.0297*%
%ADD208R,0.0671X0.0671*%
%ADD209C,0.0671*%
%ADD210C,0.1080*%
%ADD211R,0.1080X0.1080*%
%ADD212C,0.0867*%
%ADD213C,0.0946*%
%ADD214C,0.2049*%
%ADD215R,0.0867X0.0867*%
%ADD216R,0.0671X0.0671*%
%ADD217R,0.1080X0.1080*%
%ADD218C,0.1064*%
%ADD219C,0.0789*%
%ADD220R,0.0867X0.0867*%
%ADD221C,0.0710*%
%ADD222R,0.0710X0.0710*%
%ADD223C,0.0631*%
%ADD224P,0.0683X8X112.5*%
%ADD225C,0.1954*%
%ADD226R,0.0745X0.0745*%
%ADD227C,0.0745*%
%ADD228C,0.1674*%
%ADD229C,0.0749*%
%ADD230C,0.0316*%
%ADD231C,0.0395*%
%ADD232C,0.1261*%
G36*
X7500Y27050D02*
X7000D01*
Y27450D01*
X7500D01*
Y27050D01*
D02*
G37*
G36*
X4500D02*
X4000D01*
Y27450D01*
X4500D01*
Y27050D01*
D02*
G37*
G36*
X61050Y14850D02*
X60650D01*
Y15350D01*
X61050D01*
Y14850D01*
D02*
G37*
G36*
Y11500D02*
X60650D01*
Y12000D01*
X61050D01*
Y11500D01*
D02*
G37*
D154*
X60650Y14850D02*
Y15350D01*
Y14850D02*
X61050D01*
Y15350D01*
X60650D02*
X61050D01*
Y11500D02*
Y12000D01*
X60650D02*
X61050D01*
X60650Y11500D02*
Y12000D01*
Y11500D02*
X61050D01*
X4000Y27050D02*
X4500D01*
Y27450D01*
X4000D02*
X4500D01*
X4000Y27050D02*
Y27450D01*
X7000Y27050D02*
X7500D01*
Y27450D01*
X7000D02*
X7500D01*
X7000Y27050D02*
Y27450D01*
D155*
X38200Y30306D02*
D03*
Y31094D02*
D03*
D156*
X8750Y47000D02*
D03*
D157*
X7589Y48663D02*
D03*
Y48407D02*
D03*
Y48152D02*
D03*
Y47896D02*
D03*
Y47640D02*
D03*
Y47384D02*
D03*
Y47128D02*
D03*
Y46872D02*
D03*
Y46616D02*
D03*
Y46360D02*
D03*
Y46104D02*
D03*
Y45848D02*
D03*
Y45593D02*
D03*
Y45337D02*
D03*
X9911Y48663D02*
D03*
Y48407D02*
D03*
Y48152D02*
D03*
Y47896D02*
D03*
Y47640D02*
D03*
Y47384D02*
D03*
Y47128D02*
D03*
Y46872D02*
D03*
Y46616D02*
D03*
Y46360D02*
D03*
Y46104D02*
D03*
Y45848D02*
D03*
Y45593D02*
D03*
Y45337D02*
D03*
D158*
X11287Y49300D02*
D03*
X12213D02*
D03*
X6713Y49750D02*
D03*
X5787D02*
D03*
X7537Y50100D02*
D03*
X8463D02*
D03*
X6713Y44250D02*
D03*
X5787D02*
D03*
X7537Y43900D02*
D03*
X8463D02*
D03*
X11287Y48450D02*
D03*
X12213D02*
D03*
X11287Y46750D02*
D03*
X12213D02*
D03*
X12213Y47600D02*
D03*
X11287D02*
D03*
X49287Y44750D02*
D03*
X50213D02*
D03*
X43537Y40000D02*
D03*
X44463D02*
D03*
X62300Y11900D02*
D03*
X63225D02*
D03*
X56463Y12500D02*
D03*
X55537D02*
D03*
X61787Y8550D02*
D03*
X62713D02*
D03*
X56463Y9500D02*
D03*
X55537D02*
D03*
X49287Y46750D02*
D03*
X50213D02*
D03*
Y49500D02*
D03*
X49287D02*
D03*
X60037Y22750D02*
D03*
X60963D02*
D03*
X50213Y55500D02*
D03*
X49287D02*
D03*
Y52500D02*
D03*
X50213D02*
D03*
X3963Y29500D02*
D03*
X3037D02*
D03*
X34087Y43500D02*
D03*
X35013D02*
D03*
D159*
X11337Y44950D02*
D03*
X12163D02*
D03*
X11337Y44200D02*
D03*
X12163D02*
D03*
X4837Y46350D02*
D03*
X5663D02*
D03*
X13663Y44950D02*
D03*
X12837D02*
D03*
X4837Y47650D02*
D03*
X5663D02*
D03*
X11337Y50100D02*
D03*
X12163D02*
D03*
X34163Y14700D02*
D03*
X33337D02*
D03*
X30663D02*
D03*
X29837D02*
D03*
X40413Y52250D02*
D03*
X39587D02*
D03*
X65913Y22550D02*
D03*
X65087D02*
D03*
X15663Y30250D02*
D03*
X14837D02*
D03*
X15663Y29250D02*
D03*
X14837D02*
D03*
X15663Y28250D02*
D03*
X14837D02*
D03*
X15663Y27250D02*
D03*
X14837D02*
D03*
X15663Y25250D02*
D03*
X14837D02*
D03*
X15663Y26250D02*
D03*
X14837D02*
D03*
X44663Y43250D02*
D03*
X43837D02*
D03*
X44663Y44500D02*
D03*
X43837D02*
D03*
X50163Y42750D02*
D03*
X49337D02*
D03*
X50163Y43750D02*
D03*
X49337D02*
D03*
X63837Y13400D02*
D03*
X64663D02*
D03*
X43837Y41000D02*
D03*
X44663D02*
D03*
X63837Y14250D02*
D03*
X64663D02*
D03*
X50163Y40500D02*
D03*
X49337D02*
D03*
X63837Y11000D02*
D03*
X64663D02*
D03*
X63837Y10150D02*
D03*
X64663D02*
D03*
X29587Y45750D02*
D03*
X30413D02*
D03*
X20837Y51500D02*
D03*
X21663D02*
D03*
X20837Y52500D02*
D03*
X21663D02*
D03*
X20837Y53500D02*
D03*
X21663D02*
D03*
X44663Y45500D02*
D03*
X43837D02*
D03*
X44663Y47000D02*
D03*
X43837D02*
D03*
X65913Y25500D02*
D03*
X65087D02*
D03*
X44663Y48000D02*
D03*
X43837D02*
D03*
X65087Y24500D02*
D03*
X65913D02*
D03*
X44663Y49500D02*
D03*
X43837D02*
D03*
X50163Y45800D02*
D03*
X49337D02*
D03*
X50163Y47500D02*
D03*
X49337D02*
D03*
X50163Y48500D02*
D03*
X49337D02*
D03*
X58163Y23000D02*
D03*
X57337D02*
D03*
X56163D02*
D03*
X55337D02*
D03*
X65913Y23500D02*
D03*
X65087D02*
D03*
X50413Y34000D02*
D03*
X49587D02*
D03*
X43587D02*
D03*
X44413D02*
D03*
X49587Y38500D02*
D03*
X50413D02*
D03*
X44413Y39000D02*
D03*
X43587D02*
D03*
X50413Y36250D02*
D03*
X49587D02*
D03*
X43587D02*
D03*
X44413D02*
D03*
X53087Y32750D02*
D03*
X53913D02*
D03*
X50163Y51500D02*
D03*
X49337D02*
D03*
X44663Y50500D02*
D03*
X43837D02*
D03*
X53913Y27250D02*
D03*
X53087D02*
D03*
X44663Y52000D02*
D03*
X43837D02*
D03*
X49337Y50500D02*
D03*
X50163D02*
D03*
X54413Y40900D02*
D03*
X53587D02*
D03*
Y41750D02*
D03*
X54413D02*
D03*
X53587Y44250D02*
D03*
X54413D02*
D03*
X50163Y53500D02*
D03*
X49337D02*
D03*
X54413Y50400D02*
D03*
X53587D02*
D03*
X44663Y53000D02*
D03*
X43837D02*
D03*
X53587Y51250D02*
D03*
X54413D02*
D03*
Y53750D02*
D03*
X53587D02*
D03*
X44663Y54500D02*
D03*
X43837D02*
D03*
X49337D02*
D03*
X50163D02*
D03*
X29587Y46650D02*
D03*
X30413D02*
D03*
X49337Y41750D02*
D03*
X50163D02*
D03*
X44663Y42000D02*
D03*
X43837D02*
D03*
X34837Y44400D02*
D03*
X35663D02*
D03*
X14837Y31750D02*
D03*
X15663D02*
D03*
X14837Y33250D02*
D03*
X15663D02*
D03*
X14837Y34750D02*
D03*
X15663D02*
D03*
X14837Y36250D02*
D03*
X15663D02*
D03*
X19587Y42750D02*
D03*
X20413D02*
D03*
X50413Y30250D02*
D03*
X49587D02*
D03*
X2587Y31000D02*
D03*
X3413D02*
D03*
X337D02*
D03*
X1163D02*
D03*
X50413Y27000D02*
D03*
X49587D02*
D03*
X43663Y22500D02*
D03*
X42837D02*
D03*
X50413D02*
D03*
X49587D02*
D03*
X43587Y23750D02*
D03*
X44413D02*
D03*
X49587Y24750D02*
D03*
X50413D02*
D03*
X44413D02*
D03*
X43587D02*
D03*
X50413Y29250D02*
D03*
X49587D02*
D03*
X44413Y31750D02*
D03*
X43587D02*
D03*
X50413Y32500D02*
D03*
X49587D02*
D03*
X43587Y32750D02*
D03*
X44413D02*
D03*
X20837Y54750D02*
D03*
X21663D02*
D03*
X2337Y37250D02*
D03*
X3163D02*
D03*
X37087Y37750D02*
D03*
X37913D02*
D03*
X18837Y45750D02*
D03*
X19663D02*
D03*
X34324Y26045D02*
D03*
X35151D02*
D03*
X34324Y26745D02*
D03*
X35151D02*
D03*
D160*
X7606Y49350D02*
D03*
X8394D02*
D03*
X6644Y49000D02*
D03*
X5856D02*
D03*
X6644Y45000D02*
D03*
X5856D02*
D03*
X7606Y44650D02*
D03*
X8394D02*
D03*
X5856Y45650D02*
D03*
X6644D02*
D03*
X5856Y48350D02*
D03*
X6644D02*
D03*
D161*
X2000Y43287D02*
D03*
Y44213D02*
D03*
Y46213D02*
D03*
Y45287D02*
D03*
X32750Y21237D02*
D03*
Y22163D02*
D03*
X30250Y47537D02*
D03*
Y48463D02*
D03*
X36750Y54213D02*
D03*
Y53287D02*
D03*
X35750D02*
D03*
Y54213D02*
D03*
X29250Y21237D02*
D03*
Y22163D02*
D03*
X30500Y24087D02*
D03*
Y25013D02*
D03*
X58500Y21037D02*
D03*
Y21963D02*
D03*
X41250Y35037D02*
D03*
Y35963D02*
D03*
Y36787D02*
D03*
Y37713D02*
D03*
X21500Y46713D02*
D03*
Y45787D02*
D03*
D162*
X12360Y45850D02*
D03*
X11140D02*
D03*
D163*
X3935Y53000D02*
D03*
X2065D02*
D03*
D164*
X4089Y41156D02*
D03*
Y40250D02*
D03*
Y39344D02*
D03*
D165*
X6411Y40250D02*
D03*
D166*
X8000Y38872D02*
D03*
Y41628D02*
D03*
X2250Y38872D02*
D03*
Y41628D02*
D03*
X32000Y46128D02*
D03*
Y43372D02*
D03*
X21500Y50428D02*
D03*
Y47672D02*
D03*
D167*
X31750Y14705D02*
D03*
X32250D02*
D03*
X31250D02*
D03*
X32750D02*
D03*
X31250Y16595D02*
D03*
X31750D02*
D03*
X32250D02*
D03*
X32750D02*
D03*
Y20195D02*
D03*
X32250D02*
D03*
X31750D02*
D03*
X31250D02*
D03*
X32750Y18305D02*
D03*
X32250D02*
D03*
X31750D02*
D03*
X31250D02*
D03*
X5000Y26305D02*
D03*
X5500D02*
D03*
X6000D02*
D03*
X6500D02*
D03*
X5000Y28195D02*
D03*
X5500D02*
D03*
X6000D02*
D03*
X6500D02*
D03*
X32900Y25945D02*
D03*
X32400D02*
D03*
X31900D02*
D03*
X31400D02*
D03*
X32900Y24055D02*
D03*
X32400D02*
D03*
X31900D02*
D03*
X31400D02*
D03*
X27750Y14705D02*
D03*
X29250D02*
D03*
X27750Y16595D02*
D03*
X28250D02*
D03*
X28750D02*
D03*
X29250D02*
D03*
Y20195D02*
D03*
X28750D02*
D03*
X28250D02*
D03*
X27750D02*
D03*
X29250Y18305D02*
D03*
X28750D02*
D03*
X28250D02*
D03*
X27750D02*
D03*
X28750Y14705D02*
D03*
X28250D02*
D03*
X66750Y1055D02*
D03*
X67250D02*
D03*
X67750D02*
D03*
X68250D02*
D03*
X66750Y2945D02*
D03*
X67250D02*
D03*
X67750D02*
D03*
X68250D02*
D03*
D168*
X55000Y35837D02*
D03*
Y36663D02*
D03*
Y30587D02*
D03*
Y31413D02*
D03*
X38250Y34337D02*
D03*
Y35163D02*
D03*
X22000Y21737D02*
D03*
Y22563D02*
D03*
X14250Y16663D02*
D03*
Y15837D02*
D03*
X22000D02*
D03*
Y16663D02*
D03*
X14250Y22663D02*
D03*
Y21837D02*
D03*
X20750Y10413D02*
D03*
Y9587D02*
D03*
Y6663D02*
D03*
Y5837D02*
D03*
X19750Y21737D02*
D03*
Y22563D02*
D03*
X19750Y15837D02*
D03*
Y16663D02*
D03*
X12500Y10163D02*
D03*
Y9337D02*
D03*
Y6413D02*
D03*
Y5587D02*
D03*
X55000Y33337D02*
D03*
Y34163D02*
D03*
Y28087D02*
D03*
Y28913D02*
D03*
X21500Y28363D02*
D03*
Y27537D02*
D03*
X22400Y28363D02*
D03*
Y27537D02*
D03*
X23200Y28363D02*
D03*
Y27537D02*
D03*
X24000Y28363D02*
D03*
Y27537D02*
D03*
X33700Y45913D02*
D03*
Y45087D02*
D03*
X-2500Y26913D02*
D03*
Y26087D02*
D03*
X-1500Y26913D02*
D03*
Y26087D02*
D03*
X16500Y16663D02*
D03*
Y15837D02*
D03*
Y22663D02*
D03*
Y21837D02*
D03*
X43500Y16663D02*
D03*
Y15837D02*
D03*
X44600Y26087D02*
D03*
Y26913D02*
D03*
X36750Y15837D02*
D03*
Y16663D02*
D03*
Y22663D02*
D03*
Y21837D02*
D03*
X41250Y15837D02*
D03*
Y16663D02*
D03*
Y22663D02*
D03*
Y21837D02*
D03*
X35500D02*
D03*
Y22663D02*
D03*
Y15837D02*
D03*
Y16663D02*
D03*
X39000Y15837D02*
D03*
Y16663D02*
D03*
Y22663D02*
D03*
Y21837D02*
D03*
X26500Y21737D02*
D03*
Y22563D02*
D03*
X26500Y15837D02*
D03*
Y16663D02*
D03*
X37050Y9913D02*
D03*
Y9087D02*
D03*
X37000Y6163D02*
D03*
Y5337D02*
D03*
X10750Y21837D02*
D03*
Y22663D02*
D03*
Y15837D02*
D03*
Y16663D02*
D03*
X17750Y24413D02*
D03*
Y23587D02*
D03*
X29000Y6163D02*
D03*
Y5337D02*
D03*
Y9913D02*
D03*
Y9087D02*
D03*
X24250Y15837D02*
D03*
Y16663D02*
D03*
X24250Y21737D02*
D03*
Y22563D02*
D03*
X19750Y24413D02*
D03*
Y23587D02*
D03*
X51250Y14087D02*
D03*
Y14913D02*
D03*
X50250D02*
D03*
Y14087D02*
D03*
X49250D02*
D03*
Y14913D02*
D03*
X48250D02*
D03*
Y14087D02*
D03*
X46250Y14913D02*
D03*
Y14087D02*
D03*
X53250D02*
D03*
Y14913D02*
D03*
X52250D02*
D03*
Y14087D02*
D03*
X47250D02*
D03*
Y14913D02*
D03*
X13000Y15837D02*
D03*
Y16663D02*
D03*
Y21837D02*
D03*
Y22663D02*
D03*
X58500Y16837D02*
D03*
Y17663D02*
D03*
Y18337D02*
D03*
Y19163D02*
D03*
X60750Y24413D02*
D03*
Y23587D02*
D03*
X59950Y24413D02*
D03*
Y23587D02*
D03*
X58750Y25163D02*
D03*
Y24337D02*
D03*
X15000Y49837D02*
D03*
Y50663D02*
D03*
X15750Y49837D02*
D03*
Y50663D02*
D03*
X16500Y49837D02*
D03*
Y50663D02*
D03*
X14400Y52413D02*
D03*
Y51587D02*
D03*
X12850Y52987D02*
D03*
Y53813D02*
D03*
D169*
X39523Y51000D02*
D03*
X41177D02*
D03*
X9577Y3750D02*
D03*
X7923D02*
D03*
X5077Y33900D02*
D03*
X3423D02*
D03*
X13748Y53699D02*
D03*
X17252D02*
D03*
Y55864D02*
D03*
X13748D02*
D03*
D170*
X56500Y38228D02*
D03*
Y40272D02*
D03*
Y49772D02*
D03*
Y47728D02*
D03*
Y33478D02*
D03*
Y35522D02*
D03*
Y30772D02*
D03*
Y28728D02*
D03*
Y42928D02*
D03*
Y44972D02*
D03*
Y54522D02*
D03*
Y52478D02*
D03*
D171*
X61000Y39250D02*
D03*
Y48750D02*
D03*
Y34500D02*
D03*
Y29750D02*
D03*
Y43950D02*
D03*
Y53500D02*
D03*
D172*
X56778Y13366D02*
D03*
Y13622D02*
D03*
Y13878D02*
D03*
Y14134D02*
D03*
X55222Y13366D02*
D03*
Y13622D02*
D03*
Y13878D02*
D03*
Y14134D02*
D03*
X56778Y10366D02*
D03*
Y10622D02*
D03*
Y10878D02*
D03*
Y11134D02*
D03*
X55222Y10366D02*
D03*
Y10622D02*
D03*
Y10878D02*
D03*
Y11134D02*
D03*
D173*
X60555Y14250D02*
D03*
Y13750D02*
D03*
Y13250D02*
D03*
Y12750D02*
D03*
X62445Y14250D02*
D03*
Y13750D02*
D03*
Y13250D02*
D03*
Y12750D02*
D03*
Y9500D02*
D03*
Y10000D02*
D03*
Y10500D02*
D03*
Y11000D02*
D03*
X60555Y9500D02*
D03*
Y10000D02*
D03*
Y10500D02*
D03*
Y11000D02*
D03*
X55555Y22000D02*
D03*
Y21500D02*
D03*
Y21000D02*
D03*
Y20500D02*
D03*
X57445Y22000D02*
D03*
Y21500D02*
D03*
Y21000D02*
D03*
Y20500D02*
D03*
X61805Y24750D02*
D03*
Y24250D02*
D03*
Y23750D02*
D03*
Y23250D02*
D03*
X63695Y24750D02*
D03*
Y24250D02*
D03*
Y23750D02*
D03*
Y23250D02*
D03*
X55555Y25500D02*
D03*
Y25000D02*
D03*
Y24500D02*
D03*
Y24000D02*
D03*
X57445Y25500D02*
D03*
Y25000D02*
D03*
Y24500D02*
D03*
Y24000D02*
D03*
X1695Y28500D02*
D03*
Y29000D02*
D03*
Y29500D02*
D03*
Y30000D02*
D03*
X-195Y28500D02*
D03*
Y29000D02*
D03*
Y29500D02*
D03*
Y30000D02*
D03*
X47945Y43000D02*
D03*
Y43500D02*
D03*
Y44000D02*
D03*
Y44500D02*
D03*
X46055Y43000D02*
D03*
Y43500D02*
D03*
Y44000D02*
D03*
Y44500D02*
D03*
X47945Y40500D02*
D03*
Y41000D02*
D03*
Y41500D02*
D03*
Y42000D02*
D03*
X46055Y40500D02*
D03*
Y41000D02*
D03*
Y41500D02*
D03*
Y42000D02*
D03*
X47945Y45500D02*
D03*
Y46000D02*
D03*
Y46500D02*
D03*
Y47000D02*
D03*
X46055Y45500D02*
D03*
Y46000D02*
D03*
Y46500D02*
D03*
Y47000D02*
D03*
X47945Y48000D02*
D03*
Y48500D02*
D03*
Y49000D02*
D03*
Y49500D02*
D03*
X46055Y48000D02*
D03*
Y48500D02*
D03*
Y49000D02*
D03*
Y49500D02*
D03*
Y52000D02*
D03*
Y51500D02*
D03*
Y51000D02*
D03*
Y50500D02*
D03*
X47945Y52000D02*
D03*
Y51500D02*
D03*
Y51000D02*
D03*
Y50500D02*
D03*
Y53000D02*
D03*
Y53500D02*
D03*
Y54000D02*
D03*
Y54500D02*
D03*
X46055Y53000D02*
D03*
Y53500D02*
D03*
Y54000D02*
D03*
Y54500D02*
D03*
X57445Y16750D02*
D03*
Y17250D02*
D03*
Y17750D02*
D03*
Y18250D02*
D03*
X55555Y16750D02*
D03*
Y17250D02*
D03*
Y17750D02*
D03*
Y18250D02*
D03*
D174*
X21750Y5705D02*
D03*
Y6295D02*
D03*
X13500D02*
D03*
Y5705D02*
D03*
X38000Y5455D02*
D03*
Y6045D02*
D03*
X18250Y26905D02*
D03*
Y27495D02*
D03*
X30000Y5455D02*
D03*
Y6045D02*
D03*
X19250Y26905D02*
D03*
Y27495D02*
D03*
X12850Y55145D02*
D03*
Y54555D02*
D03*
D175*
X28727Y50800D02*
D03*
Y49000D02*
D03*
Y50200D02*
D03*
Y51400D02*
D03*
X22873Y46000D02*
D03*
Y46600D02*
D03*
Y47200D02*
D03*
Y47800D02*
D03*
Y48400D02*
D03*
Y49000D02*
D03*
Y49600D02*
D03*
Y50200D02*
D03*
Y50800D02*
D03*
Y51400D02*
D03*
Y52000D02*
D03*
Y52600D02*
D03*
X28727D02*
D03*
Y52000D02*
D03*
Y49600D02*
D03*
Y48400D02*
D03*
Y47800D02*
D03*
Y47200D02*
D03*
Y46600D02*
D03*
Y46000D02*
D03*
D176*
X27948Y45421D02*
D03*
X27348D02*
D03*
X26748D02*
D03*
X26148D02*
D03*
X25548D02*
D03*
D177*
X25800Y49898D02*
D03*
D178*
X18409Y54750D02*
D03*
X19591D02*
D03*
X11341Y31750D02*
D03*
X10159D02*
D03*
X11341Y33500D02*
D03*
X10159D02*
D03*
X11341Y35250D02*
D03*
X10159D02*
D03*
X11341Y37000D02*
D03*
X10159D02*
D03*
D179*
X35472Y46124D02*
D03*
Y45376D02*
D03*
X34528D02*
D03*
Y45750D02*
D03*
Y46124D02*
D03*
D180*
X37026Y49750D02*
D03*
X31474D02*
D03*
D181*
X31750Y52309D02*
D03*
X32250D02*
D03*
X32759D02*
D03*
X33250D02*
D03*
X33750D02*
D03*
X34250D02*
D03*
X34750D02*
D03*
X35250D02*
D03*
X35750D02*
D03*
X36250D02*
D03*
X36750D02*
D03*
Y47191D02*
D03*
X36250D02*
D03*
X35750D02*
D03*
X35250D02*
D03*
X34750D02*
D03*
X34250D02*
D03*
X33750D02*
D03*
X33250D02*
D03*
X32750D02*
D03*
X32250D02*
D03*
X31750D02*
D03*
D182*
X38372Y45000D02*
D03*
X41128D02*
D03*
X7622Y5500D02*
D03*
X10378D02*
D03*
X3378Y35750D02*
D03*
X622D02*
D03*
X-128Y25250D02*
D03*
X2628D02*
D03*
X21328Y44350D02*
D03*
X18572D02*
D03*
X37878Y41500D02*
D03*
X35122D02*
D03*
D183*
X35161Y30800D02*
D03*
Y30997D02*
D03*
Y31194D02*
D03*
Y31391D02*
D03*
Y31588D02*
D03*
Y31785D02*
D03*
Y31981D02*
D03*
Y32178D02*
D03*
Y32375D02*
D03*
Y32572D02*
D03*
Y32769D02*
D03*
Y32966D02*
D03*
Y33163D02*
D03*
Y33359D02*
D03*
Y33556D02*
D03*
Y33753D02*
D03*
Y33950D02*
D03*
Y34147D02*
D03*
Y34344D02*
D03*
Y34541D02*
D03*
Y34737D02*
D03*
Y34934D02*
D03*
Y35131D02*
D03*
Y35328D02*
D03*
Y35525D02*
D03*
Y35722D02*
D03*
Y35919D02*
D03*
Y36115D02*
D03*
Y36312D02*
D03*
Y36509D02*
D03*
Y36706D02*
D03*
Y36903D02*
D03*
Y37100D02*
D03*
Y37296D02*
D03*
Y37493D02*
D03*
Y37690D02*
D03*
X26815D02*
D03*
Y37493D02*
D03*
Y37296D02*
D03*
Y37100D02*
D03*
Y36903D02*
D03*
Y36706D02*
D03*
Y36509D02*
D03*
Y36312D02*
D03*
Y36115D02*
D03*
Y35919D02*
D03*
Y35722D02*
D03*
Y35525D02*
D03*
Y35328D02*
D03*
Y35131D02*
D03*
Y34934D02*
D03*
Y34737D02*
D03*
Y34541D02*
D03*
Y34344D02*
D03*
Y34147D02*
D03*
Y33950D02*
D03*
Y33753D02*
D03*
Y33556D02*
D03*
Y33359D02*
D03*
Y33163D02*
D03*
Y32966D02*
D03*
Y32769D02*
D03*
Y32572D02*
D03*
Y32375D02*
D03*
Y32178D02*
D03*
Y31981D02*
D03*
Y31785D02*
D03*
Y31588D02*
D03*
Y31391D02*
D03*
Y31194D02*
D03*
Y30997D02*
D03*
Y30800D02*
D03*
D184*
X34433Y38419D02*
D03*
X34236D02*
D03*
X34039D02*
D03*
X33842D02*
D03*
X33645D02*
D03*
X33448D02*
D03*
X33252D02*
D03*
X33055D02*
D03*
X32858D02*
D03*
X32661D02*
D03*
X32464D02*
D03*
X32267D02*
D03*
X32070D02*
D03*
X31874D02*
D03*
X31677D02*
D03*
X31480D02*
D03*
X31283D02*
D03*
X31086D02*
D03*
X30889D02*
D03*
X30693D02*
D03*
X30496D02*
D03*
X30299D02*
D03*
X30102D02*
D03*
X29905D02*
D03*
X29708D02*
D03*
X29511D02*
D03*
X29315D02*
D03*
X29118D02*
D03*
X28921D02*
D03*
X28724D02*
D03*
X28527D02*
D03*
X28330D02*
D03*
X28133D02*
D03*
X27937D02*
D03*
X27740D02*
D03*
X27543D02*
D03*
Y30072D02*
D03*
X27740D02*
D03*
X27937D02*
D03*
X28133D02*
D03*
X28330D02*
D03*
X28527D02*
D03*
X28724D02*
D03*
X28921D02*
D03*
X29118D02*
D03*
X29315D02*
D03*
X29511D02*
D03*
X29708D02*
D03*
X29905D02*
D03*
X30102D02*
D03*
X30299D02*
D03*
X30496D02*
D03*
X30693D02*
D03*
X30889D02*
D03*
X31086D02*
D03*
X31283D02*
D03*
X31480D02*
D03*
X31677D02*
D03*
X31874D02*
D03*
X32070D02*
D03*
X32267D02*
D03*
X32464D02*
D03*
X32661D02*
D03*
X32858D02*
D03*
X33055D02*
D03*
X33252D02*
D03*
X33448D02*
D03*
X33645D02*
D03*
X33842D02*
D03*
X34039D02*
D03*
X34236D02*
D03*
X34433D02*
D03*
D185*
X61342Y15100D02*
D03*
X60358D02*
D03*
Y11750D02*
D03*
X61342D02*
D03*
D186*
X4250Y27742D02*
D03*
Y26758D02*
D03*
X7250Y27742D02*
D03*
Y26758D02*
D03*
D187*
X5000Y36159D02*
D03*
Y37341D02*
D03*
X50750Y19341D02*
D03*
Y18159D02*
D03*
X48750Y19341D02*
D03*
Y18159D02*
D03*
X46750Y19341D02*
D03*
Y18159D02*
D03*
X52750Y19341D02*
D03*
Y18159D02*
D03*
D188*
X6000Y3923D02*
D03*
Y5577D02*
D03*
D189*
X10089Y29406D02*
D03*
Y28973D02*
D03*
Y28540D02*
D03*
Y28107D02*
D03*
Y27674D02*
D03*
Y27241D02*
D03*
Y26808D02*
D03*
Y26375D02*
D03*
D190*
X12400Y30300D02*
D03*
Y24946D02*
D03*
X9093Y30300D02*
D03*
Y24946D02*
D03*
D191*
X19668Y49418D02*
D03*
X18832Y48582D02*
D03*
X36332Y45332D02*
D03*
X37168Y46168D02*
D03*
D192*
X18876Y47722D02*
D03*
X19624D02*
D03*
Y46778D02*
D03*
X19250D02*
D03*
X18876D02*
D03*
X16374Y52472D02*
D03*
X16000D02*
D03*
X15626D02*
D03*
Y51528D02*
D03*
X16374D02*
D03*
X16000D02*
D03*
X48000Y6278D02*
D03*
X48374D02*
D03*
X47626D02*
D03*
Y7222D02*
D03*
X48000D02*
D03*
X48374D02*
D03*
D193*
X-2907Y23010D02*
D03*
Y15490D02*
D03*
D194*
X-750Y22000D02*
D03*
Y21213D02*
D03*
Y20425D02*
D03*
Y19638D02*
D03*
Y18850D02*
D03*
Y18063D02*
D03*
Y17276D02*
D03*
Y16488D02*
D03*
D195*
X36947Y39750D02*
D03*
X35053D02*
D03*
D196*
X59250Y10577D02*
D03*
Y8923D02*
D03*
Y11923D02*
D03*
Y13577D02*
D03*
D197*
X18905Y51500D02*
D03*
X19495D02*
D03*
Y52500D02*
D03*
X18905D02*
D03*
Y53500D02*
D03*
X19495D02*
D03*
D198*
X-2322Y33100D02*
D03*
X522D02*
D03*
D199*
X12278Y31750D02*
D03*
X13222Y32124D02*
D03*
Y31376D02*
D03*
Y32876D02*
D03*
Y33624D02*
D03*
X12278Y33250D02*
D03*
Y34750D02*
D03*
X13222Y35124D02*
D03*
Y34376D02*
D03*
Y35876D02*
D03*
Y36624D02*
D03*
X12278Y36250D02*
D03*
X37972Y7500D02*
D03*
X37028Y7126D02*
D03*
Y7874D02*
D03*
X21722Y8000D02*
D03*
X20778Y7626D02*
D03*
Y8374D02*
D03*
X13472Y7750D02*
D03*
X12528Y7376D02*
D03*
Y8124D02*
D03*
X52678Y43374D02*
D03*
Y42626D02*
D03*
X53622Y43000D02*
D03*
Y52500D02*
D03*
X52678Y52126D02*
D03*
Y52874D02*
D03*
X1722Y17876D02*
D03*
Y18624D02*
D03*
X778Y18250D02*
D03*
Y19750D02*
D03*
X1722Y20124D02*
D03*
Y19376D02*
D03*
X3472Y18626D02*
D03*
Y19374D02*
D03*
X2528Y19000D02*
D03*
X29028Y7874D02*
D03*
Y7126D02*
D03*
X29972Y7500D02*
D03*
X54278Y43000D02*
D03*
X55222Y43374D02*
D03*
Y42626D02*
D03*
X54278Y52500D02*
D03*
X55222Y52874D02*
D03*
Y52126D02*
D03*
D200*
X19600Y26022D02*
D03*
X19974Y25078D02*
D03*
X19226D02*
D03*
X17476D02*
D03*
X18224D02*
D03*
X17850Y26022D02*
D03*
X37126Y12028D02*
D03*
X37874D02*
D03*
X37500Y12972D02*
D03*
X20876Y12028D02*
D03*
X21624D02*
D03*
X21250Y12972D02*
D03*
X12626Y12278D02*
D03*
X13374D02*
D03*
X13000Y13222D02*
D03*
X37876Y51278D02*
D03*
X38624D02*
D03*
X38250Y52222D02*
D03*
X53750Y28972D02*
D03*
X54124Y28028D02*
D03*
X53376D02*
D03*
X29250Y12972D02*
D03*
X29624Y12028D02*
D03*
X28876D02*
D03*
X50376Y16028D02*
D03*
X51124D02*
D03*
X50750Y16972D02*
D03*
X48750D02*
D03*
X49124Y16028D02*
D03*
X48376D02*
D03*
X46376D02*
D03*
X47124D02*
D03*
X46750Y16972D02*
D03*
X52750D02*
D03*
X53124Y16028D02*
D03*
X52376D02*
D03*
X53950Y34472D02*
D03*
X54324Y33528D02*
D03*
X53576D02*
D03*
X54124Y31472D02*
D03*
X53376D02*
D03*
X53750Y30528D02*
D03*
X54374Y36222D02*
D03*
X53626D02*
D03*
X54000Y35278D02*
D03*
X13250Y52222D02*
D03*
X13624Y51278D02*
D03*
X12876D02*
D03*
D201*
X12896Y49300D02*
D03*
X13604D02*
D03*
X13604Y50000D02*
D03*
X12896D02*
D03*
X47004Y7150D02*
D03*
X46296D02*
D03*
X47004Y6500D02*
D03*
X46296D02*
D03*
D202*
X14870Y53659D02*
D03*
X15185D02*
D03*
X15500D02*
D03*
X15815D02*
D03*
X16130D02*
D03*
D203*
X49750Y6396D02*
D03*
Y7104D02*
D03*
D204*
X48000Y3358D02*
D03*
Y5642D02*
D03*
D205*
X49850Y5199D02*
D03*
Y3801D02*
D03*
X51100Y5199D02*
D03*
Y3801D02*
D03*
X52400Y5199D02*
D03*
Y3801D02*
D03*
D206*
X47301Y8250D02*
D03*
X48699D02*
D03*
X47301Y9500D02*
D03*
X48699D02*
D03*
D207*
X49100Y7065D02*
D03*
Y6435D02*
D03*
D208*
X2016Y50050D02*
D03*
X48500Y34000D02*
D03*
X45500Y39500D02*
D03*
X48500Y36250D02*
D03*
Y27000D02*
D03*
Y22500D02*
D03*
X45500Y25750D02*
D03*
Y30250D02*
D03*
X48500Y31500D02*
D03*
X-1234Y9000D02*
D03*
X40500Y54000D02*
D03*
X1970Y14300D02*
D03*
D209*
X3984Y50050D02*
D03*
X21000Y20750D02*
D03*
X22000Y17750D02*
D03*
X21000D02*
D03*
X15250Y20750D02*
D03*
X14250D02*
D03*
X15250Y17750D02*
D03*
X18750Y20750D02*
D03*
X19750Y17750D02*
D03*
X18750D02*
D03*
X45500Y35000D02*
D03*
Y34000D02*
D03*
X48500Y35000D02*
D03*
X45500Y38500D02*
D03*
X48500Y39500D02*
D03*
Y38500D02*
D03*
X45500Y37250D02*
D03*
Y36250D02*
D03*
X48500Y37250D02*
D03*
X17500Y20750D02*
D03*
X16500D02*
D03*
X17500Y17750D02*
D03*
X48500Y28000D02*
D03*
X45500Y27000D02*
D03*
Y28000D02*
D03*
X43500Y17750D02*
D03*
X44500D02*
D03*
X43500Y20750D02*
D03*
X37750Y17750D02*
D03*
X36750Y20750D02*
D03*
X37750D02*
D03*
X42250D02*
D03*
X41250D02*
D03*
X42250Y17750D02*
D03*
X48500Y23500D02*
D03*
X45500Y22500D02*
D03*
Y23500D02*
D03*
X34500Y17750D02*
D03*
X35500D02*
D03*
X34500Y20750D02*
D03*
X40000Y17750D02*
D03*
X39000Y20750D02*
D03*
X40000D02*
D03*
X48500Y24750D02*
D03*
Y25750D02*
D03*
X45500Y24750D02*
D03*
Y29250D02*
D03*
X48500Y30250D02*
D03*
Y29250D02*
D03*
X45500Y32500D02*
D03*
Y31500D02*
D03*
X48500Y32500D02*
D03*
X25500Y20750D02*
D03*
X26500Y17750D02*
D03*
X25500D02*
D03*
X9750D02*
D03*
X10750D02*
D03*
X9750Y20750D02*
D03*
X7250Y2600D02*
D03*
X10250Y1900D02*
D03*
X4500Y8016D02*
D03*
X750Y2600D02*
D03*
X3750Y1900D02*
D03*
X734Y9000D02*
D03*
X38500Y54000D02*
D03*
X39500D02*
D03*
X23250Y20750D02*
D03*
X24250Y17750D02*
D03*
X23250D02*
D03*
X12000D02*
D03*
X13000D02*
D03*
X12000Y20750D02*
D03*
X4530Y14300D02*
D03*
X6000Y6500D02*
D03*
X-2250Y19500D02*
D03*
D210*
X-250Y43750D02*
D03*
Y47750D02*
D03*
Y45750D02*
D03*
X4000Y0D02*
D03*
X2000D02*
D03*
X6000D02*
D03*
X67000Y50500D02*
D03*
Y48500D02*
D03*
Y40500D02*
D03*
Y38500D02*
D03*
Y42500D02*
D03*
Y44500D02*
D03*
Y46500D02*
D03*
Y31750D02*
D03*
Y29750D02*
D03*
Y33750D02*
D03*
D211*
X-250Y49750D02*
D03*
X67000Y36500D02*
D03*
Y27750D02*
D03*
D212*
X35862Y5537D02*
D03*
X31138D02*
D03*
X15691Y13500D02*
D03*
X22441D02*
D03*
X8000Y9000D02*
D03*
Y10000D02*
D03*
X40191Y13500D02*
D03*
X22888Y5537D02*
D03*
X27612D02*
D03*
X19612D02*
D03*
X14888D02*
D03*
X30941Y13500D02*
D03*
X39138Y5537D02*
D03*
X43862D02*
D03*
D213*
X35862Y10341D02*
D03*
X31138D02*
D03*
X33500Y4750D02*
D03*
X25250D02*
D03*
X22888Y10341D02*
D03*
X27612D02*
D03*
X19612D02*
D03*
X14888D02*
D03*
X17250Y4750D02*
D03*
X41500D02*
D03*
X39138Y10341D02*
D03*
X43862D02*
D03*
D214*
X64567Y53398D02*
D03*
Y28791D02*
D03*
X53740Y38634D02*
D03*
Y47492D02*
D03*
X68504Y-2705D02*
D03*
X-2362D02*
D03*
X68504Y54382D02*
D03*
X-2362D02*
D03*
D215*
X19809Y13500D02*
D03*
X26559D02*
D03*
X44309D02*
D03*
X35059D02*
D03*
D216*
X22000Y20750D02*
D03*
X14250Y17750D02*
D03*
X19750Y20750D02*
D03*
X16500Y17750D02*
D03*
X44500Y20750D02*
D03*
X36750Y17750D02*
D03*
X41250D02*
D03*
X35500Y20750D02*
D03*
X39000Y17750D02*
D03*
X26500Y20750D02*
D03*
X10750D02*
D03*
X4500Y9984D02*
D03*
X24250Y20750D02*
D03*
X13000D02*
D03*
D217*
X0Y0D02*
D03*
D218*
X32750Y54500D02*
D03*
X33734Y53516D02*
D03*
Y55484D02*
D03*
X31766D02*
D03*
Y53516D02*
D03*
D219*
X40000Y33187D02*
D03*
Y25313D02*
D03*
D220*
X8000Y8000D02*
D03*
D221*
X27500Y25500D02*
D03*
Y24500D02*
D03*
X26500Y25500D02*
D03*
Y24500D02*
D03*
X25500Y25500D02*
D03*
Y24500D02*
D03*
X24500Y25500D02*
D03*
Y24500D02*
D03*
X23500Y25500D02*
D03*
D222*
Y24500D02*
D03*
D223*
X39750Y37211D02*
D03*
D224*
Y35289D02*
D03*
D225*
X8581Y-760D02*
D03*
X18419D02*
D03*
X22831D02*
D03*
X32669D02*
D03*
D226*
X15681Y-201D02*
D03*
X29931D02*
D03*
D227*
X15136Y-1319D02*
D03*
X14591Y-201D02*
D03*
X14045Y-1319D02*
D03*
X13500Y-201D02*
D03*
X12955Y-1319D02*
D03*
X12409Y-201D02*
D03*
X11864Y-1319D02*
D03*
X11319Y-201D02*
D03*
X29386Y-1319D02*
D03*
X28841Y-201D02*
D03*
X28295Y-1319D02*
D03*
X27750Y-201D02*
D03*
X27205Y-1319D02*
D03*
X26659Y-201D02*
D03*
X26114Y-1319D02*
D03*
X25569Y-201D02*
D03*
D228*
X62500Y0D02*
D03*
X37500D02*
D03*
D229*
X40732Y-950D02*
D03*
X41682D02*
D03*
X42632D02*
D03*
X43582D02*
D03*
X44532D02*
D03*
X45482D02*
D03*
X46432D02*
D03*
X47382D02*
D03*
X48332D02*
D03*
X49282D02*
D03*
X50232D02*
D03*
X51182D02*
D03*
X52132D02*
D03*
X53082D02*
D03*
X54032D02*
D03*
X54982D02*
D03*
X55932D02*
D03*
X56882D02*
D03*
X57832D02*
D03*
X58782D02*
D03*
X40256Y0D02*
D03*
X41206D02*
D03*
X42156D02*
D03*
X43106D02*
D03*
X44056D02*
D03*
X45006D02*
D03*
X45956D02*
D03*
X46906D02*
D03*
X47856D02*
D03*
X48806D02*
D03*
X49756D02*
D03*
X50706D02*
D03*
X51656D02*
D03*
X52606D02*
D03*
X53556D02*
D03*
X54506D02*
D03*
X55456D02*
D03*
X56406D02*
D03*
X57356D02*
D03*
X58306D02*
D03*
X59256D02*
D03*
X40732Y949D02*
D03*
X41682D02*
D03*
X42632D02*
D03*
X43582D02*
D03*
X44532D02*
D03*
X45482D02*
D03*
X46432D02*
D03*
X47382D02*
D03*
X48332D02*
D03*
X49282D02*
D03*
X50232D02*
D03*
X51182D02*
D03*
X52132D02*
D03*
X53082D02*
D03*
X54032D02*
D03*
X54982D02*
D03*
X55932D02*
D03*
X56882D02*
D03*
X57832D02*
D03*
X58782D02*
D03*
X59732D02*
D03*
D230*
X16366Y54683D02*
D03*
X14634D02*
D03*
D231*
X8533Y48083D02*
D03*
X8967D02*
D03*
X8533Y47650D02*
D03*
X8967D02*
D03*
X8533Y47217D02*
D03*
X8967D02*
D03*
X8533Y46783D02*
D03*
X8967D02*
D03*
X8533Y46350D02*
D03*
X8967D02*
D03*
X8533Y45917D02*
D03*
X8967D02*
D03*
D232*
X58250Y29700D02*
D03*
X64500Y34500D02*
D03*
M02*
