G04 Layer_Color=8421504*
%FSLAX24Y24*%
%MOIN*%
G70*
G01*
G75*
%ADD10R,0.1024X0.0532*%
%ADD11R,0.0532X0.1024*%
%ADD12R,0.0217X0.0374*%
%ADD13R,0.2100X0.1230*%
%ADD14R,0.0669X0.0374*%
%ADD15R,0.0551X0.0335*%
%ADD16R,0.0945X0.2559*%
%ADD17O,0.0551X0.0177*%
%ADD18R,0.0532X0.0571*%
%ADD19R,0.0335X0.0512*%
%ADD20R,0.0512X0.0354*%
%ADD21R,0.0571X0.0532*%
%ADD22R,0.0374X0.0669*%
%ADD23R,0.0827X0.0906*%
%ADD24R,0.1063X0.0394*%
%ADD25R,0.1063X0.1299*%
%ADD26R,0.1614X0.1024*%
%ADD27O,0.0236X0.0866*%
%ADD28R,0.0512X0.0335*%
%ADD29R,0.0787X0.0984*%
%ADD30R,0.1500X0.0799*%
%ADD31R,0.3500X0.4500*%
%ADD32O,0.0748X0.0161*%
%ADD33O,0.0866X0.0236*%
%ADD34R,0.0315X0.0315*%
G04:AMPARAMS|DCode=35|XSize=39.4mil|YSize=72.8mil|CornerRadius=19.7mil|HoleSize=0mil|Usage=FLASHONLY|Rotation=90.000|XOffset=0mil|YOffset=0mil|HoleType=Round|Shape=RoundedRectangle|*
%AMROUNDEDRECTD35*
21,1,0.0394,0.0335,0,0,90.0*
21,1,0.0000,0.0728,0,0,90.0*
1,1,0.0394,0.0167,0.0000*
1,1,0.0394,0.0167,0.0000*
1,1,0.0394,-0.0167,0.0000*
1,1,0.0394,-0.0167,0.0000*
%
%ADD35ROUNDEDRECTD35*%
G04:AMPARAMS|DCode=36|XSize=39.4mil|YSize=72.8mil|CornerRadius=19.7mil|HoleSize=0mil|Usage=FLASHONLY|Rotation=180.000|XOffset=0mil|YOffset=0mil|HoleType=Round|Shape=RoundedRectangle|*
%AMROUNDEDRECTD36*
21,1,0.0394,0.0335,0,0,180.0*
21,1,0.0000,0.0728,0,0,180.0*
1,1,0.0394,0.0000,0.0167*
1,1,0.0394,0.0000,0.0167*
1,1,0.0394,0.0000,-0.0167*
1,1,0.0394,0.0000,-0.0167*
%
%ADD36ROUNDEDRECTD36*%
%ADD37R,0.3150X0.3937*%
%ADD38R,0.0591X0.1024*%
%ADD39R,0.0394X0.0236*%
%ADD40R,0.0748X0.1437*%
%ADD41R,0.0315X0.0591*%
%ADD42O,0.0650X0.0118*%
%ADD43O,0.0118X0.0650*%
%ADD44R,0.0591X0.0492*%
%ADD45R,0.1024X0.1614*%
%ADD46R,0.1024X0.0591*%
%ADD47R,0.1260X0.0591*%
%ADD48R,0.0413X0.0236*%
%ADD49R,0.0787X0.0591*%
%ADD50P,0.0724X4X270.0*%
%ADD51R,0.0236X0.0394*%
%ADD52R,0.2087X0.0669*%
%ADD53R,0.1260X0.0472*%
%ADD54R,0.0827X0.1177*%
%ADD55R,0.0315X0.0315*%
%ADD56R,0.0984X0.0787*%
%ADD57R,0.0394X0.0276*%
%ADD58R,0.0276X0.0394*%
%ADD59R,0.0295X0.0374*%
%ADD60R,0.0197X0.0906*%
%ADD61R,0.1772X0.0709*%
%ADD62R,0.0335X0.0551*%
D10*
X3500Y34801D02*
D03*
Y36199D02*
D03*
X2250Y34801D02*
D03*
Y36199D02*
D03*
X45950Y7301D02*
D03*
Y8699D02*
D03*
X48400D02*
D03*
Y7301D02*
D03*
X47200Y8699D02*
D03*
Y7301D02*
D03*
X20500Y47749D02*
D03*
Y46351D02*
D03*
X31750Y45699D02*
D03*
Y44301D02*
D03*
D11*
X-1699Y28750D02*
D03*
X-301D02*
D03*
X-1699Y27500D02*
D03*
X-301D02*
D03*
X18551Y44700D02*
D03*
X19949D02*
D03*
X34549Y46000D02*
D03*
X33151D02*
D03*
D12*
X-1315Y29750D02*
D03*
X-685D02*
D03*
X46485Y6750D02*
D03*
X47115D02*
D03*
X46465Y3000D02*
D03*
X45835D02*
D03*
D13*
X-250Y36922D02*
D03*
Y34078D02*
D03*
D14*
X1750Y28390D02*
D03*
Y29610D02*
D03*
X750Y28390D02*
D03*
Y29610D02*
D03*
D15*
X38200Y30306D02*
D03*
Y31094D02*
D03*
D16*
X8750Y47000D02*
D03*
D17*
X7589Y48663D02*
D03*
Y48407D02*
D03*
Y48152D02*
D03*
Y47896D02*
D03*
Y47640D02*
D03*
Y47384D02*
D03*
Y47128D02*
D03*
Y46872D02*
D03*
Y46616D02*
D03*
Y46360D02*
D03*
Y46104D02*
D03*
Y45848D02*
D03*
Y45593D02*
D03*
Y45337D02*
D03*
X9911Y48663D02*
D03*
Y48407D02*
D03*
Y48152D02*
D03*
Y47896D02*
D03*
Y47640D02*
D03*
Y47384D02*
D03*
Y47128D02*
D03*
Y46872D02*
D03*
Y46616D02*
D03*
Y46360D02*
D03*
Y46104D02*
D03*
Y45848D02*
D03*
Y45593D02*
D03*
Y45337D02*
D03*
D18*
X11287Y49300D02*
D03*
X12213D02*
D03*
X6713Y49750D02*
D03*
X5787D02*
D03*
X7537Y50100D02*
D03*
X8463D02*
D03*
X6713Y44250D02*
D03*
X5787D02*
D03*
X7537Y43900D02*
D03*
X8463D02*
D03*
X11287Y48450D02*
D03*
X12213D02*
D03*
X11287Y46750D02*
D03*
X12213D02*
D03*
X12213Y47600D02*
D03*
X11287D02*
D03*
X49287Y44750D02*
D03*
X50213D02*
D03*
X43537Y40000D02*
D03*
X44463D02*
D03*
X62300Y11900D02*
D03*
X63225D02*
D03*
X56463Y12500D02*
D03*
X55537D02*
D03*
X61787Y8550D02*
D03*
X62713D02*
D03*
X56463Y9500D02*
D03*
X55537D02*
D03*
X49287Y46750D02*
D03*
X50213D02*
D03*
Y49500D02*
D03*
X49287D02*
D03*
X60037Y22750D02*
D03*
X60963D02*
D03*
X50213Y54750D02*
D03*
X49287D02*
D03*
Y52250D02*
D03*
X50213D02*
D03*
X34087Y43000D02*
D03*
X35013D02*
D03*
D19*
X11337Y44950D02*
D03*
X12163D02*
D03*
X11337Y44200D02*
D03*
X12163D02*
D03*
X4837Y46350D02*
D03*
X5663D02*
D03*
X13663Y44950D02*
D03*
X12837D02*
D03*
X4837Y47650D02*
D03*
X5663D02*
D03*
X11337Y50100D02*
D03*
X12163D02*
D03*
X34163Y14700D02*
D03*
X33337D02*
D03*
X30663D02*
D03*
X29837D02*
D03*
X40413Y52250D02*
D03*
X39587D02*
D03*
X65913Y22550D02*
D03*
X65087D02*
D03*
X15663Y30250D02*
D03*
X14837D02*
D03*
X15663Y29250D02*
D03*
X14837D02*
D03*
X15663Y28250D02*
D03*
X14837D02*
D03*
X15663Y27250D02*
D03*
X14837D02*
D03*
X15663Y25250D02*
D03*
X14837D02*
D03*
X15663Y26250D02*
D03*
X14837D02*
D03*
X44663Y43250D02*
D03*
X43837D02*
D03*
X44663Y44500D02*
D03*
X43837D02*
D03*
X50163Y42750D02*
D03*
X49337D02*
D03*
X50163Y43750D02*
D03*
X49337D02*
D03*
X63837Y13400D02*
D03*
X64663D02*
D03*
X43837Y41000D02*
D03*
X44663D02*
D03*
X63837Y14250D02*
D03*
X64663D02*
D03*
X50163Y40500D02*
D03*
X49337D02*
D03*
X63837Y11000D02*
D03*
X64663D02*
D03*
X63837Y10150D02*
D03*
X64663D02*
D03*
X29587Y45750D02*
D03*
X30413D02*
D03*
X20837Y51500D02*
D03*
X21663D02*
D03*
X20837Y52500D02*
D03*
X21663D02*
D03*
X20837Y53500D02*
D03*
X21663D02*
D03*
X44663Y45500D02*
D03*
X43837D02*
D03*
X44663Y47000D02*
D03*
X43837D02*
D03*
X65913Y25500D02*
D03*
X65087D02*
D03*
X44663Y48000D02*
D03*
X43837D02*
D03*
X65087Y24500D02*
D03*
X65913D02*
D03*
X44663Y49500D02*
D03*
X43837D02*
D03*
X50163Y45800D02*
D03*
X49337D02*
D03*
X50163Y47500D02*
D03*
X49337D02*
D03*
X50163Y48500D02*
D03*
X49337D02*
D03*
X58163Y23000D02*
D03*
X57337D02*
D03*
X56163D02*
D03*
X55337D02*
D03*
X65913Y23500D02*
D03*
X65087D02*
D03*
X50413Y34000D02*
D03*
X49587D02*
D03*
X43587D02*
D03*
X44413D02*
D03*
X49587Y38500D02*
D03*
X50413D02*
D03*
X44413Y39000D02*
D03*
X43587D02*
D03*
X50413Y36250D02*
D03*
X49587D02*
D03*
X43587D02*
D03*
X44413D02*
D03*
X44663Y50500D02*
D03*
X43837D02*
D03*
X44663Y52000D02*
D03*
X43837D02*
D03*
X44663Y53000D02*
D03*
X43837D02*
D03*
X44663Y54500D02*
D03*
X43837D02*
D03*
X29587Y46650D02*
D03*
X30413D02*
D03*
X49337Y41750D02*
D03*
X50163D02*
D03*
X44663Y42000D02*
D03*
X43837D02*
D03*
X14837Y31750D02*
D03*
X15663D02*
D03*
X14837Y33250D02*
D03*
X15663D02*
D03*
X14837Y34750D02*
D03*
X15663D02*
D03*
X14837Y36250D02*
D03*
X15663D02*
D03*
X19587Y42750D02*
D03*
X20413D02*
D03*
X50413Y30250D02*
D03*
X49587D02*
D03*
X50413Y27000D02*
D03*
X49587D02*
D03*
X43663Y22500D02*
D03*
X42837D02*
D03*
X50413D02*
D03*
X49587D02*
D03*
X43587Y23750D02*
D03*
X44413D02*
D03*
X49587Y24750D02*
D03*
X50413D02*
D03*
X44413D02*
D03*
X43587D02*
D03*
X50413Y29250D02*
D03*
X49587D02*
D03*
X44413Y31750D02*
D03*
X43587D02*
D03*
X50413Y32500D02*
D03*
X49587D02*
D03*
X43587Y32750D02*
D03*
X44413D02*
D03*
X20837Y54750D02*
D03*
X21663D02*
D03*
X4687Y36950D02*
D03*
X5513D02*
D03*
X37087Y37750D02*
D03*
X37913D02*
D03*
X18837Y45750D02*
D03*
X19663D02*
D03*
X34324Y26045D02*
D03*
X35151D02*
D03*
X34324Y26745D02*
D03*
X35151D02*
D03*
D20*
X7606Y49350D02*
D03*
X8394D02*
D03*
X6644Y49000D02*
D03*
X5856D02*
D03*
X6644Y45000D02*
D03*
X5856D02*
D03*
X7606Y44650D02*
D03*
X8394D02*
D03*
X5856Y45650D02*
D03*
X6644D02*
D03*
X5856Y48350D02*
D03*
X6644D02*
D03*
D21*
X2000Y43287D02*
D03*
Y44213D02*
D03*
Y46213D02*
D03*
Y45287D02*
D03*
X32750Y21237D02*
D03*
Y22163D02*
D03*
X30250Y47537D02*
D03*
Y48463D02*
D03*
X36750Y54213D02*
D03*
Y53287D02*
D03*
X35750D02*
D03*
Y54213D02*
D03*
X29250Y21237D02*
D03*
Y22163D02*
D03*
X30500Y24087D02*
D03*
Y25013D02*
D03*
X58500Y21037D02*
D03*
Y21963D02*
D03*
X41250Y35037D02*
D03*
Y35963D02*
D03*
Y36787D02*
D03*
Y37713D02*
D03*
X22000Y46763D02*
D03*
Y45837D02*
D03*
D22*
X12360Y45850D02*
D03*
X11140D02*
D03*
D23*
X3935Y53000D02*
D03*
X2065D02*
D03*
D24*
X4089Y41156D02*
D03*
Y40250D02*
D03*
Y39344D02*
D03*
D25*
X6411Y40250D02*
D03*
D26*
X8000Y38872D02*
D03*
Y41628D02*
D03*
X2250Y38872D02*
D03*
Y41628D02*
D03*
D27*
X31750Y14705D02*
D03*
X32250D02*
D03*
X31250D02*
D03*
X32750D02*
D03*
X31250Y16595D02*
D03*
X31750D02*
D03*
X32250D02*
D03*
X32750D02*
D03*
Y20195D02*
D03*
X32250D02*
D03*
X31750D02*
D03*
X31250D02*
D03*
X32750Y18305D02*
D03*
X32250D02*
D03*
X31750D02*
D03*
X31250D02*
D03*
X5000Y26305D02*
D03*
X5500D02*
D03*
X6000D02*
D03*
X6500D02*
D03*
X5000Y28195D02*
D03*
X5500D02*
D03*
X6000D02*
D03*
X6500D02*
D03*
X32900Y25945D02*
D03*
X32400D02*
D03*
X31900D02*
D03*
X31400D02*
D03*
X32900Y24055D02*
D03*
X32400D02*
D03*
X31900D02*
D03*
X31400D02*
D03*
X1000Y32445D02*
D03*
X500D02*
D03*
X0D02*
D03*
X-500D02*
D03*
X1000Y30555D02*
D03*
X500D02*
D03*
X0D02*
D03*
X-500D02*
D03*
X27750Y14705D02*
D03*
X29250D02*
D03*
X27750Y16595D02*
D03*
X28250D02*
D03*
X28750D02*
D03*
X29250D02*
D03*
Y20195D02*
D03*
X28750D02*
D03*
X28250D02*
D03*
X27750D02*
D03*
X29250Y18305D02*
D03*
X28750D02*
D03*
X28250D02*
D03*
X27750D02*
D03*
X28750Y14705D02*
D03*
X28250D02*
D03*
X66750Y1055D02*
D03*
X67250D02*
D03*
X67750D02*
D03*
X68250D02*
D03*
X66750Y2945D02*
D03*
X67250D02*
D03*
X67750D02*
D03*
X68250D02*
D03*
D28*
X38250Y34337D02*
D03*
Y35163D02*
D03*
X22000Y21737D02*
D03*
Y22563D02*
D03*
X14250Y16663D02*
D03*
Y15837D02*
D03*
X22000D02*
D03*
Y16663D02*
D03*
X14250Y22663D02*
D03*
Y21837D02*
D03*
X20750Y10413D02*
D03*
Y9587D02*
D03*
Y6663D02*
D03*
Y5837D02*
D03*
X19750Y21737D02*
D03*
Y22563D02*
D03*
X19750Y15837D02*
D03*
Y16663D02*
D03*
X12500Y10163D02*
D03*
Y9337D02*
D03*
Y6413D02*
D03*
Y5587D02*
D03*
X21500Y28363D02*
D03*
Y27537D02*
D03*
X22400Y28363D02*
D03*
Y27537D02*
D03*
X23200Y28363D02*
D03*
Y27537D02*
D03*
X24000Y28363D02*
D03*
Y27537D02*
D03*
X32750Y45163D02*
D03*
Y44337D02*
D03*
X37000Y44687D02*
D03*
Y45513D02*
D03*
X16500Y16663D02*
D03*
Y15837D02*
D03*
Y22663D02*
D03*
Y21837D02*
D03*
X43500Y16663D02*
D03*
Y15837D02*
D03*
X44600Y26087D02*
D03*
Y26913D02*
D03*
X36750Y15837D02*
D03*
Y16663D02*
D03*
Y22663D02*
D03*
Y21837D02*
D03*
X41250Y15837D02*
D03*
Y16663D02*
D03*
Y22663D02*
D03*
Y21837D02*
D03*
X35500D02*
D03*
Y22663D02*
D03*
Y15837D02*
D03*
Y16663D02*
D03*
X39000Y15837D02*
D03*
Y16663D02*
D03*
Y22663D02*
D03*
Y21837D02*
D03*
X26500Y21737D02*
D03*
Y22563D02*
D03*
X26500Y15837D02*
D03*
Y16663D02*
D03*
X37050Y9913D02*
D03*
Y9087D02*
D03*
X37000Y6163D02*
D03*
Y5337D02*
D03*
X10750Y21837D02*
D03*
Y22663D02*
D03*
Y15837D02*
D03*
Y16663D02*
D03*
X17750Y24413D02*
D03*
Y23587D02*
D03*
X29000Y6163D02*
D03*
Y5337D02*
D03*
Y9913D02*
D03*
Y9087D02*
D03*
X24250Y15837D02*
D03*
Y16663D02*
D03*
X24250Y21737D02*
D03*
Y22563D02*
D03*
X19750Y24413D02*
D03*
Y23587D02*
D03*
X51250Y14087D02*
D03*
Y14913D02*
D03*
X50250D02*
D03*
Y14087D02*
D03*
X49250D02*
D03*
Y14913D02*
D03*
X48250D02*
D03*
Y14087D02*
D03*
X46250Y14913D02*
D03*
Y14087D02*
D03*
X53250D02*
D03*
Y14913D02*
D03*
X52250D02*
D03*
Y14087D02*
D03*
X47250D02*
D03*
Y14913D02*
D03*
X13000Y15837D02*
D03*
Y16663D02*
D03*
Y21837D02*
D03*
Y22663D02*
D03*
X58500Y16837D02*
D03*
Y17663D02*
D03*
Y18337D02*
D03*
Y19163D02*
D03*
X60750Y24413D02*
D03*
Y23587D02*
D03*
X59950Y24413D02*
D03*
Y23587D02*
D03*
X58750Y25163D02*
D03*
Y24337D02*
D03*
X15000Y49837D02*
D03*
Y50663D02*
D03*
X15750Y49837D02*
D03*
Y50663D02*
D03*
X16500Y49837D02*
D03*
Y50663D02*
D03*
X14400Y52413D02*
D03*
Y51587D02*
D03*
X12850Y52987D02*
D03*
Y53813D02*
D03*
D29*
X39523Y51000D02*
D03*
X41177D02*
D03*
X9577Y3750D02*
D03*
X7923D02*
D03*
X13748Y53699D02*
D03*
X17252D02*
D03*
Y55864D02*
D03*
X13748D02*
D03*
D30*
X56500Y38228D02*
D03*
Y40272D02*
D03*
Y49772D02*
D03*
Y47728D02*
D03*
Y33478D02*
D03*
Y35522D02*
D03*
Y30772D02*
D03*
Y28728D02*
D03*
Y42928D02*
D03*
Y44972D02*
D03*
Y54522D02*
D03*
Y52478D02*
D03*
D31*
X61000Y39250D02*
D03*
Y48750D02*
D03*
Y34500D02*
D03*
Y29750D02*
D03*
Y43950D02*
D03*
Y53500D02*
D03*
D32*
X56778Y13366D02*
D03*
Y13622D02*
D03*
Y13878D02*
D03*
Y14134D02*
D03*
X55222Y13366D02*
D03*
Y13622D02*
D03*
Y13878D02*
D03*
Y14134D02*
D03*
X56778Y10366D02*
D03*
Y10622D02*
D03*
Y10878D02*
D03*
Y11134D02*
D03*
X55222Y10366D02*
D03*
Y10622D02*
D03*
Y10878D02*
D03*
Y11134D02*
D03*
D33*
X60555Y14250D02*
D03*
Y13750D02*
D03*
Y13250D02*
D03*
Y12750D02*
D03*
X62445Y14250D02*
D03*
Y13750D02*
D03*
Y13250D02*
D03*
Y12750D02*
D03*
Y9500D02*
D03*
Y10000D02*
D03*
Y10500D02*
D03*
Y11000D02*
D03*
X60555Y9500D02*
D03*
Y10000D02*
D03*
Y10500D02*
D03*
Y11000D02*
D03*
X55555Y22000D02*
D03*
Y21500D02*
D03*
Y21000D02*
D03*
Y20500D02*
D03*
X57445Y22000D02*
D03*
Y21500D02*
D03*
Y21000D02*
D03*
Y20500D02*
D03*
X61805Y24750D02*
D03*
Y24250D02*
D03*
Y23750D02*
D03*
Y23250D02*
D03*
X63695Y24750D02*
D03*
Y24250D02*
D03*
Y23750D02*
D03*
Y23250D02*
D03*
X55555Y25500D02*
D03*
Y25000D02*
D03*
Y24500D02*
D03*
Y24000D02*
D03*
X57445Y25500D02*
D03*
Y25000D02*
D03*
Y24500D02*
D03*
Y24000D02*
D03*
X47945Y43000D02*
D03*
Y43500D02*
D03*
Y44000D02*
D03*
Y44500D02*
D03*
X46055Y43000D02*
D03*
Y43500D02*
D03*
Y44000D02*
D03*
Y44500D02*
D03*
X47945Y40500D02*
D03*
Y41000D02*
D03*
Y41500D02*
D03*
Y42000D02*
D03*
X46055Y40500D02*
D03*
Y41000D02*
D03*
Y41500D02*
D03*
Y42000D02*
D03*
X47945Y45500D02*
D03*
Y46000D02*
D03*
Y46500D02*
D03*
Y47000D02*
D03*
X46055Y45500D02*
D03*
Y46000D02*
D03*
Y46500D02*
D03*
Y47000D02*
D03*
X47945Y48000D02*
D03*
Y48500D02*
D03*
Y49000D02*
D03*
Y49500D02*
D03*
X46055Y48000D02*
D03*
Y48500D02*
D03*
Y49000D02*
D03*
Y49500D02*
D03*
Y52000D02*
D03*
Y51500D02*
D03*
Y51000D02*
D03*
Y50500D02*
D03*
X47945Y52000D02*
D03*
Y51500D02*
D03*
Y51000D02*
D03*
Y50500D02*
D03*
Y53000D02*
D03*
Y53500D02*
D03*
Y54000D02*
D03*
Y54500D02*
D03*
X46055Y53000D02*
D03*
Y53500D02*
D03*
Y54000D02*
D03*
Y54500D02*
D03*
X57445Y16750D02*
D03*
Y17250D02*
D03*
Y17750D02*
D03*
Y18250D02*
D03*
X55555Y16750D02*
D03*
Y17250D02*
D03*
Y17750D02*
D03*
Y18250D02*
D03*
X48395Y4550D02*
D03*
Y5050D02*
D03*
Y5550D02*
D03*
Y6050D02*
D03*
X46505Y4550D02*
D03*
Y5050D02*
D03*
Y5550D02*
D03*
Y6050D02*
D03*
X55195Y31500D02*
D03*
Y32000D02*
D03*
Y32500D02*
D03*
Y33000D02*
D03*
X53305Y31500D02*
D03*
Y32000D02*
D03*
Y32500D02*
D03*
Y33000D02*
D03*
X54945Y45750D02*
D03*
Y46250D02*
D03*
Y46750D02*
D03*
Y47250D02*
D03*
X53055Y45750D02*
D03*
Y46250D02*
D03*
Y46750D02*
D03*
Y47250D02*
D03*
D34*
X21750Y5705D02*
D03*
Y6295D02*
D03*
X13500D02*
D03*
Y5705D02*
D03*
X38000Y5455D02*
D03*
Y6045D02*
D03*
X18250Y26905D02*
D03*
Y27495D02*
D03*
X30000Y5455D02*
D03*
Y6045D02*
D03*
X19250Y26905D02*
D03*
Y27495D02*
D03*
X12850Y55145D02*
D03*
Y54555D02*
D03*
D35*
X28727Y50800D02*
D03*
Y49000D02*
D03*
Y50200D02*
D03*
Y51400D02*
D03*
X22873Y46000D02*
D03*
Y46600D02*
D03*
Y47200D02*
D03*
Y47800D02*
D03*
Y48400D02*
D03*
Y49000D02*
D03*
Y49600D02*
D03*
Y50200D02*
D03*
Y50800D02*
D03*
Y51400D02*
D03*
Y52000D02*
D03*
Y52600D02*
D03*
X28727D02*
D03*
Y52000D02*
D03*
Y49600D02*
D03*
Y48400D02*
D03*
Y47800D02*
D03*
Y47200D02*
D03*
Y46600D02*
D03*
Y46000D02*
D03*
D36*
X27948Y45421D02*
D03*
X27348D02*
D03*
X26748D02*
D03*
X26148D02*
D03*
X25548D02*
D03*
D37*
X25800Y49898D02*
D03*
D38*
X18409Y54750D02*
D03*
X19591D02*
D03*
X11341Y31750D02*
D03*
X10159D02*
D03*
X11341Y33500D02*
D03*
X10159D02*
D03*
X11341Y35250D02*
D03*
X10159D02*
D03*
X11341Y37000D02*
D03*
X10159D02*
D03*
D39*
X34322Y45124D02*
D03*
Y44376D02*
D03*
X33378D02*
D03*
Y44750D02*
D03*
Y45124D02*
D03*
D40*
X37026Y49750D02*
D03*
X31474D02*
D03*
D41*
X31750Y52309D02*
D03*
X32250D02*
D03*
X32759D02*
D03*
X33250D02*
D03*
X33750D02*
D03*
X34250D02*
D03*
X34750D02*
D03*
X35250D02*
D03*
X35750D02*
D03*
X36250D02*
D03*
X36750D02*
D03*
Y47191D02*
D03*
X36250D02*
D03*
X35750D02*
D03*
X35250D02*
D03*
X34750D02*
D03*
X34250D02*
D03*
X33750D02*
D03*
X33250D02*
D03*
X32750D02*
D03*
X32250D02*
D03*
X31750D02*
D03*
D42*
X35161Y30800D02*
D03*
Y30997D02*
D03*
Y31194D02*
D03*
Y31391D02*
D03*
Y31588D02*
D03*
Y31785D02*
D03*
Y31981D02*
D03*
Y32178D02*
D03*
Y32375D02*
D03*
Y32572D02*
D03*
Y32769D02*
D03*
Y32966D02*
D03*
Y33163D02*
D03*
Y33359D02*
D03*
Y33556D02*
D03*
Y33753D02*
D03*
Y33950D02*
D03*
Y34147D02*
D03*
Y34344D02*
D03*
Y34541D02*
D03*
Y34737D02*
D03*
Y34934D02*
D03*
Y35131D02*
D03*
Y35328D02*
D03*
Y35525D02*
D03*
Y35722D02*
D03*
Y35919D02*
D03*
Y36115D02*
D03*
Y36312D02*
D03*
Y36509D02*
D03*
Y36706D02*
D03*
Y36903D02*
D03*
Y37100D02*
D03*
Y37296D02*
D03*
Y37493D02*
D03*
Y37690D02*
D03*
X26815D02*
D03*
Y37493D02*
D03*
Y37296D02*
D03*
Y37100D02*
D03*
Y36903D02*
D03*
Y36706D02*
D03*
Y36509D02*
D03*
Y36312D02*
D03*
Y36115D02*
D03*
Y35919D02*
D03*
Y35722D02*
D03*
Y35525D02*
D03*
Y35328D02*
D03*
Y35131D02*
D03*
Y34934D02*
D03*
Y34737D02*
D03*
Y34541D02*
D03*
Y34344D02*
D03*
Y34147D02*
D03*
Y33950D02*
D03*
Y33753D02*
D03*
Y33556D02*
D03*
Y33359D02*
D03*
Y33163D02*
D03*
Y32966D02*
D03*
Y32769D02*
D03*
Y32572D02*
D03*
Y32375D02*
D03*
Y32178D02*
D03*
Y31981D02*
D03*
Y31785D02*
D03*
Y31588D02*
D03*
Y31391D02*
D03*
Y31194D02*
D03*
Y30997D02*
D03*
Y30800D02*
D03*
D43*
X34433Y38419D02*
D03*
X34236D02*
D03*
X34039D02*
D03*
X33842D02*
D03*
X33645D02*
D03*
X33448D02*
D03*
X33252D02*
D03*
X33055D02*
D03*
X32858D02*
D03*
X32661D02*
D03*
X32464D02*
D03*
X32267D02*
D03*
X32070D02*
D03*
X31874D02*
D03*
X31677D02*
D03*
X31480D02*
D03*
X31283D02*
D03*
X31086D02*
D03*
X30889D02*
D03*
X30693D02*
D03*
X30496D02*
D03*
X30299D02*
D03*
X30102D02*
D03*
X29905D02*
D03*
X29708D02*
D03*
X29511D02*
D03*
X29315D02*
D03*
X29118D02*
D03*
X28921D02*
D03*
X28724D02*
D03*
X28527D02*
D03*
X28330D02*
D03*
X28133D02*
D03*
X27937D02*
D03*
X27740D02*
D03*
X27543D02*
D03*
Y30072D02*
D03*
X27740D02*
D03*
X27937D02*
D03*
X28133D02*
D03*
X28330D02*
D03*
X28527D02*
D03*
X28724D02*
D03*
X28921D02*
D03*
X29118D02*
D03*
X29315D02*
D03*
X29511D02*
D03*
X29708D02*
D03*
X29905D02*
D03*
X30102D02*
D03*
X30299D02*
D03*
X30496D02*
D03*
X30693D02*
D03*
X30889D02*
D03*
X31086D02*
D03*
X31283D02*
D03*
X31480D02*
D03*
X31677D02*
D03*
X31874D02*
D03*
X32070D02*
D03*
X32267D02*
D03*
X32464D02*
D03*
X32661D02*
D03*
X32858D02*
D03*
X33055D02*
D03*
X33252D02*
D03*
X33448D02*
D03*
X33645D02*
D03*
X33842D02*
D03*
X34039D02*
D03*
X34236D02*
D03*
X34433D02*
D03*
D44*
X61342Y15100D02*
D03*
X60358D02*
D03*
Y11750D02*
D03*
X61342D02*
D03*
D45*
X7622Y5500D02*
D03*
X10378D02*
D03*
X37878Y41500D02*
D03*
X35122D02*
D03*
D46*
X5050Y34959D02*
D03*
Y36141D02*
D03*
X50750Y19341D02*
D03*
Y18159D02*
D03*
X48750Y19341D02*
D03*
Y18159D02*
D03*
X46750Y19341D02*
D03*
Y18159D02*
D03*
X52750Y19341D02*
D03*
Y18159D02*
D03*
D47*
X6000Y3923D02*
D03*
Y5577D02*
D03*
D48*
X10089Y29406D02*
D03*
Y28973D02*
D03*
Y28540D02*
D03*
Y28107D02*
D03*
Y27674D02*
D03*
Y27241D02*
D03*
Y26808D02*
D03*
Y26375D02*
D03*
D49*
X12400Y30300D02*
D03*
Y24946D02*
D03*
X9093Y30300D02*
D03*
Y24946D02*
D03*
D50*
X19668Y49418D02*
D03*
X18832Y48582D02*
D03*
X36068Y45468D02*
D03*
X35232Y44632D02*
D03*
D51*
X18876Y47722D02*
D03*
X19624D02*
D03*
Y46778D02*
D03*
X19250D02*
D03*
X18876D02*
D03*
X16374Y52472D02*
D03*
X16000D02*
D03*
X15626D02*
D03*
Y51528D02*
D03*
X16374D02*
D03*
X16000D02*
D03*
D52*
X-2907Y23010D02*
D03*
Y15490D02*
D03*
D53*
X-750Y22000D02*
D03*
Y21213D02*
D03*
Y20425D02*
D03*
Y19638D02*
D03*
Y18850D02*
D03*
Y18063D02*
D03*
Y17276D02*
D03*
Y16488D02*
D03*
D54*
X36947Y39750D02*
D03*
X35053D02*
D03*
D55*
X18905Y51500D02*
D03*
X19495D02*
D03*
Y52500D02*
D03*
X18905D02*
D03*
Y53500D02*
D03*
X19495D02*
D03*
D56*
X-1500Y31173D02*
D03*
Y32827D02*
D03*
D57*
X12278Y31750D02*
D03*
X13222Y32124D02*
D03*
Y31376D02*
D03*
Y32876D02*
D03*
Y33624D02*
D03*
X12278Y33250D02*
D03*
Y34750D02*
D03*
X13222Y35124D02*
D03*
Y34376D02*
D03*
Y35876D02*
D03*
Y36624D02*
D03*
X12278Y36250D02*
D03*
X37972Y7500D02*
D03*
X37028Y7126D02*
D03*
Y7874D02*
D03*
X21722Y8000D02*
D03*
X20778Y7626D02*
D03*
Y8374D02*
D03*
X13472Y7750D02*
D03*
X12528Y7376D02*
D03*
Y8124D02*
D03*
X1722Y17876D02*
D03*
Y18624D02*
D03*
X778Y18250D02*
D03*
Y19750D02*
D03*
X1722Y20124D02*
D03*
Y19376D02*
D03*
X3472Y18626D02*
D03*
Y19374D02*
D03*
X2528Y19000D02*
D03*
X29028Y7874D02*
D03*
Y7126D02*
D03*
X29972Y7500D02*
D03*
D58*
X19600Y26022D02*
D03*
X19974Y25078D02*
D03*
X19226D02*
D03*
X17476D02*
D03*
X18224D02*
D03*
X17850Y26022D02*
D03*
X37126Y12028D02*
D03*
X37874D02*
D03*
X37500Y12972D02*
D03*
X20876Y12028D02*
D03*
X21624D02*
D03*
X21250Y12972D02*
D03*
X12626Y12278D02*
D03*
X13374D02*
D03*
X13000Y13222D02*
D03*
X37876Y51278D02*
D03*
X38624D02*
D03*
X38250Y52222D02*
D03*
X29250Y12972D02*
D03*
X29624Y12028D02*
D03*
X28876D02*
D03*
X50376Y16028D02*
D03*
X51124D02*
D03*
X50750Y16972D02*
D03*
X48750D02*
D03*
X49124Y16028D02*
D03*
X48376D02*
D03*
X46376D02*
D03*
X47124D02*
D03*
X46750Y16972D02*
D03*
X52750D02*
D03*
X53124Y16028D02*
D03*
X52376D02*
D03*
X13250Y52222D02*
D03*
X13624Y51278D02*
D03*
X12876D02*
D03*
D59*
X12896Y49300D02*
D03*
X13604D02*
D03*
X13604Y50000D02*
D03*
X12896D02*
D03*
X46504Y4000D02*
D03*
X45796D02*
D03*
X45796Y3500D02*
D03*
X46504D02*
D03*
D60*
X14870Y53659D02*
D03*
X15185D02*
D03*
X15500D02*
D03*
X15815D02*
D03*
X16130D02*
D03*
D61*
X50000Y7300D02*
D03*
Y6000D02*
D03*
D62*
X54394Y45000D02*
D03*
X53606D02*
D03*
X54644Y30750D02*
D03*
X53856D02*
D03*
M02*
