G04 Layer_Color=32896*
%FSLAX24Y24*%
%MOIN*%
G70*
G01*
G75*
%ADD65C,0.0100*%
%ADD70C,0.0079*%
%ADD134C,0.0098*%
%ADD135C,0.0005*%
%ADD138C,0.0050*%
%ADD230C,0.0010*%
G36*
X6793Y41252D02*
X6738D01*
Y41418D01*
X6461D01*
Y41252D01*
X6406D01*
Y41640D01*
X6461D01*
Y41474D01*
X6738D01*
Y41640D01*
X6793D01*
Y41252D01*
D02*
G37*
G36*
X3914D02*
X3859D01*
Y41418D01*
X3582D01*
Y41252D01*
X3527D01*
Y41640D01*
X3582D01*
Y41474D01*
X3859D01*
Y41640D01*
X3914D01*
Y41252D01*
D02*
G37*
G36*
X11534Y41282D02*
X11534Y41282D01*
X11534Y41282D01*
X11534Y41282D01*
X11534Y41282D01*
X11534Y41282D01*
X11534Y41282D01*
X11534Y41282D01*
X11534Y41282D01*
X11534Y41283D01*
X11534Y41283D01*
D01*
X11534Y41283D01*
X11534Y41283D01*
X11534Y41282D01*
D02*
G37*
G36*
X11133Y41252D02*
X11078D01*
Y41418D01*
X10990D01*
X10824Y41252D01*
X10746D01*
X10940Y41446D01*
X10746Y41640D01*
X10824D01*
X10990Y41474D01*
X11078D01*
Y41640D01*
X11133D01*
Y41252D01*
D02*
G37*
G36*
X4346Y41557D02*
X4198Y41446D01*
X4346Y41334D01*
Y41252D01*
X4291D01*
Y41307D01*
X4152Y41411D01*
X4014Y41307D01*
Y41252D01*
X3959D01*
Y41334D01*
X4106Y41446D01*
X3959Y41557D01*
Y41640D01*
X4014D01*
Y41585D01*
X4152Y41480D01*
X4291Y41585D01*
Y41640D01*
X4346D01*
Y41557D01*
D02*
G37*
G36*
X15618Y41252D02*
X15562D01*
Y41418D01*
X15286D01*
Y41252D01*
X15230D01*
Y41640D01*
X15286D01*
Y41474D01*
X15562D01*
Y41640D01*
X15618D01*
Y41252D01*
D02*
G37*
G36*
X12428Y41457D02*
X12428Y41457D01*
D01*
X12428Y41457D01*
D02*
G37*
G36*
X2929Y41643D02*
X2929Y41643D01*
X2929Y41642D01*
X2929Y41642D01*
X2952Y41640D01*
X2952Y41640D01*
X2952Y41640D01*
X2952Y41640D01*
X2952Y41640D01*
X2952Y41640D01*
X2952Y41640D01*
X2973Y41633D01*
X2973Y41633D01*
X2973Y41633D01*
X2973Y41633D01*
X2973Y41633D01*
X2974Y41633D01*
X2974Y41633D01*
Y41633D01*
X2974Y41633D01*
X2974Y41633D01*
X2974Y41633D01*
X2974Y41633D01*
X2974Y41633D01*
X2992Y41622D01*
X2992Y41622D01*
X2992Y41622D01*
X2993Y41622D01*
X2993Y41622D01*
X2993Y41622D01*
X2993Y41622D01*
X3009Y41608D01*
X3009Y41608D01*
X3009Y41608D01*
X3009Y41608D01*
X3009Y41608D01*
X3009Y41608D01*
X3010Y41608D01*
X3010Y41608D01*
X3009Y41608D01*
X3010Y41608D01*
Y41608D01*
X3023Y41592D01*
X3023Y41592D01*
X3023Y41592D01*
X3023Y41592D01*
X3023Y41592D01*
X3023Y41592D01*
X3023Y41592D01*
X3023Y41592D01*
X3023Y41591D01*
X3023Y41591D01*
X3023Y41591D01*
X3023Y41591D01*
X3023Y41591D01*
X3023Y41591D01*
X3023Y41591D01*
X3023Y41591D01*
X3023Y41591D01*
X3023Y41591D01*
X3023Y41591D01*
X3023Y41591D01*
X3023Y41591D01*
X3023Y41591D01*
X3023Y41591D01*
X3023Y41591D01*
X3023Y41591D01*
X3033Y41573D01*
X3033Y41573D01*
X3033Y41573D01*
X3033Y41573D01*
X3033Y41572D01*
X3034Y41572D01*
X3034Y41572D01*
X3034Y41572D01*
X3034Y41572D01*
X3040Y41552D01*
Y41552D01*
Y41552D01*
X3040Y41552D01*
X3040Y41551D01*
X3040Y41551D01*
X3040Y41551D01*
X3040Y41551D01*
X3040Y41552D01*
Y41552D01*
X3040Y41552D01*
X3040Y41552D01*
X3040Y41552D01*
X3040Y41552D01*
X3040Y41552D01*
X3040Y41551D01*
X3040Y41551D01*
X3040Y41551D01*
X3040Y41551D01*
X3040Y41551D01*
X3040Y41551D01*
X3040Y41551D01*
X3040Y41551D01*
X3040Y41551D01*
X3042Y41529D01*
X3042Y41529D01*
X3042D01*
X3042Y41529D01*
X3042Y41529D01*
X3042Y41529D01*
X3042Y41529D01*
X3042Y41529D01*
X3042Y41529D01*
X3042Y41529D01*
Y41529D01*
Y41252D01*
Y41252D01*
X3042Y41251D01*
X3041Y41250D01*
X3040Y41250D01*
X2984D01*
X2983Y41250D01*
X2982Y41251D01*
X2982Y41252D01*
Y41252D01*
Y41529D01*
X2980Y41540D01*
X2977Y41550D01*
X2973Y41559D01*
X2966Y41566D01*
X2958Y41573D01*
X2949Y41578D01*
X2939Y41581D01*
X2929Y41582D01*
X2710D01*
Y41252D01*
Y41252D01*
X2710Y41251D01*
X2709Y41250D01*
X2708Y41250D01*
X2652D01*
X2651Y41250D01*
X2650Y41251D01*
X2649Y41252D01*
Y41252D01*
Y41640D01*
Y41640D01*
X2650Y41641D01*
X2651Y41642D01*
X2652Y41643D01*
X2929D01*
X2929Y41643D01*
D02*
G37*
G36*
X11534Y41282D02*
X11534Y41282D01*
X11534Y41282D01*
X11534Y41282D01*
D02*
G37*
G36*
X16050Y41252D02*
X15662D01*
Y41308D01*
X15994D01*
Y41418D01*
X15717D01*
Y41474D01*
X15994D01*
Y41585D01*
X15662D01*
Y41640D01*
X16050D01*
Y41252D01*
D02*
G37*
G36*
X15202Y41585D02*
X15036D01*
Y41252D01*
X14981D01*
Y41585D01*
X14815D01*
Y41640D01*
X15202D01*
Y41585D01*
D02*
G37*
G36*
X7817Y41637D02*
X7817D01*
X7818Y41637D01*
X7817Y41637D01*
D02*
G37*
G36*
X11455Y41643D02*
X11455Y41643D01*
X11455Y41642D01*
X11455Y41642D01*
X11455Y41642D01*
X11477Y41640D01*
X11477Y41640D01*
X11478Y41640D01*
X11478Y41640D01*
X11478Y41640D01*
X11478Y41640D01*
X11478Y41640D01*
X11499Y41633D01*
X11499Y41633D01*
X11499Y41633D01*
X11499Y41633D01*
X11499Y41633D01*
X11499Y41633D01*
X11499Y41633D01*
X11518Y41622D01*
Y41622D01*
X11518Y41622D01*
X11518Y41622D01*
X11518Y41622D01*
X11518Y41622D01*
X11518Y41622D01*
X11518Y41622D01*
X11518Y41622D01*
X11518Y41622D01*
X11535Y41608D01*
X11535Y41608D01*
X11535Y41608D01*
X11535Y41608D01*
X11535Y41608D01*
X11535Y41608D01*
X11535Y41608D01*
X11535Y41608D01*
X11535Y41608D01*
X11535Y41608D01*
X11535Y41608D01*
X11535Y41608D01*
X11535Y41608D01*
X11535Y41608D01*
Y41608D01*
X11549Y41592D01*
X11549Y41592D01*
X11549Y41592D01*
X11549Y41592D01*
X11549Y41592D01*
X11549Y41592D01*
X11549Y41592D01*
X11549Y41592D01*
X11549Y41591D01*
X11549Y41591D01*
X11549Y41591D01*
X11549Y41591D01*
X11559Y41573D01*
X11559Y41573D01*
X11559Y41573D01*
X11559Y41573D01*
X11559Y41573D01*
X11559Y41573D01*
X11559Y41573D01*
X11559Y41572D01*
X11559Y41572D01*
X11559Y41572D01*
X11559Y41572D01*
Y41572D01*
X11566Y41552D01*
Y41552D01*
X11566Y41552D01*
X11566Y41552D01*
X11566Y41552D01*
X11566Y41552D01*
X11566Y41551D01*
X11566Y41551D01*
X11566Y41551D01*
X11566Y41551D01*
X11566Y41551D01*
X11566Y41551D01*
X11566Y41551D01*
X11566Y41551D01*
X11568Y41529D01*
X11568Y41529D01*
X11568Y41529D01*
X11568Y41529D01*
X11568Y41529D01*
X11568D01*
X11568Y41529D01*
X11568Y41529D01*
X11568Y41529D01*
X11568Y41529D01*
X11568Y41529D01*
Y41529D01*
Y41363D01*
Y41363D01*
X11568Y41363D01*
X11568Y41363D01*
X11568Y41363D01*
X11568Y41363D01*
Y41363D01*
X11568Y41363D01*
X11568Y41363D01*
X11568Y41363D01*
X11568Y41363D01*
X11568Y41363D01*
X11568Y41363D01*
X11568Y41363D01*
X11566Y41340D01*
X11566Y41340D01*
X11566Y41340D01*
Y41340D01*
X11566Y41340D01*
X11566Y41340D01*
X11566Y41340D01*
X11566Y41340D01*
X11566Y41340D01*
X11566Y41340D01*
Y41340D01*
X11566Y41340D01*
X11566Y41340D01*
D01*
Y41340D01*
Y41340D01*
Y41340D01*
X11566Y41340D01*
X11566Y41340D01*
X11566Y41340D01*
X11565Y41340D01*
X11565Y41340D01*
X11565Y41340D01*
X11565D01*
X11559Y41319D01*
X11559Y41318D01*
X11559Y41318D01*
X11559Y41318D01*
X11559Y41318D01*
X11559Y41318D01*
Y41318D01*
X11559Y41318D01*
X11559Y41318D01*
X11559Y41318D01*
X11559Y41318D01*
D01*
X11559Y41318D01*
X11559Y41318D01*
X11559Y41318D01*
Y41318D01*
X11548Y41299D01*
X11548Y41299D01*
X11548Y41299D01*
X11548Y41299D01*
X11548Y41299D01*
X11548Y41299D01*
D01*
D01*
D01*
Y41299D01*
X11548Y41299D01*
X11548Y41299D01*
X11548Y41299D01*
X11548Y41299D01*
X11548Y41299D01*
X11548Y41299D01*
X11548Y41299D01*
X11548Y41299D01*
X11548Y41299D01*
X11548Y41299D01*
X11548Y41299D01*
X11548Y41299D01*
X11548Y41299D01*
X11548Y41299D01*
X11548Y41299D01*
X11548Y41299D01*
X11548Y41299D01*
X11548Y41299D01*
X11534Y41283D01*
X11534Y41283D01*
X11534Y41283D01*
X11534Y41283D01*
X11534Y41283D01*
X11534Y41283D01*
X11534Y41283D01*
X11534Y41282D01*
X11534Y41282D01*
X11534Y41282D01*
X11534Y41282D01*
X11534Y41282D01*
X11517Y41269D01*
X11517Y41269D01*
X11517Y41269D01*
X11517Y41269D01*
X11517Y41269D01*
X11517Y41269D01*
X11517Y41269D01*
X11517Y41269D01*
X11517Y41269D01*
X11517Y41269D01*
X11517Y41269D01*
X11517Y41269D01*
X11517Y41269D01*
X11517D01*
X11498Y41259D01*
X11498Y41258D01*
X11498Y41258D01*
X11498Y41258D01*
X11498Y41258D01*
X11498Y41258D01*
X11498D01*
X11477Y41252D01*
X11477Y41252D01*
X11477Y41252D01*
X11477Y41252D01*
X11477Y41252D01*
X11477Y41252D01*
X11477D01*
X11455Y41250D01*
X11455Y41250D01*
X11455Y41250D01*
X11455Y41250D01*
X11455Y41250D01*
X11288D01*
X11288Y41250D01*
X11288Y41250D01*
X11288Y41250D01*
X11288Y41250D01*
X11266Y41252D01*
X11266Y41252D01*
X11265Y41252D01*
X11265Y41252D01*
X11265Y41252D01*
X11265Y41252D01*
X11244Y41259D01*
X11244Y41259D01*
X11244Y41259D01*
X11244Y41259D01*
X11244Y41259D01*
X11244Y41259D01*
X11225Y41270D01*
X11225Y41270D01*
X11225Y41270D01*
X11225Y41270D01*
X11224Y41270D01*
X11224Y41270D01*
X11208Y41284D01*
X11208Y41284D01*
X11208Y41284D01*
X11208Y41284D01*
X11208Y41284D01*
X11208Y41284D01*
X11194Y41301D01*
X11194Y41301D01*
X11194Y41301D01*
X11194Y41301D01*
X11194Y41301D01*
X11194Y41301D01*
X11194Y41301D01*
X11194Y41301D01*
X11184Y41320D01*
X11184Y41320D01*
X11184Y41320D01*
X11184Y41320D01*
X11184Y41320D01*
X11184Y41320D01*
D01*
X11184Y41320D01*
X11184Y41320D01*
X11184Y41320D01*
Y41320D01*
X11177Y41341D01*
X11177Y41341D01*
X11177Y41341D01*
X11177Y41341D01*
X11177Y41341D01*
X11177Y41341D01*
X11177Y41341D01*
X11177Y41341D01*
X11177Y41341D01*
X11177Y41341D01*
X11177Y41341D01*
X11177Y41341D01*
X11177Y41341D01*
X11177Y41341D01*
X11177Y41341D01*
X11175Y41363D01*
X11175Y41363D01*
X11175Y41363D01*
X11175Y41364D01*
X11176Y41365D01*
X11177Y41366D01*
X11234D01*
X11234Y41365D01*
X11235Y41365D01*
X11236Y41364D01*
X11236Y41363D01*
Y41363D01*
X11236Y41363D01*
X11236Y41363D01*
X11236Y41363D01*
X11236Y41363D01*
X11236Y41363D01*
X11237Y41352D01*
X11240Y41343D01*
X11245Y41334D01*
X11251Y41326D01*
X11259Y41319D01*
X11268Y41315D01*
X11278Y41311D01*
X11289Y41310D01*
X11454D01*
X11465Y41311D01*
X11475Y41315D01*
X11484Y41319D01*
X11492Y41326D01*
X11498Y41334D01*
X11503Y41343D01*
X11506Y41352D01*
X11507Y41363D01*
Y41363D01*
X11507Y41363D01*
X11507Y41363D01*
Y41529D01*
X11506Y41540D01*
X11503Y41550D01*
X11498Y41559D01*
X11492Y41566D01*
X11484Y41573D01*
X11475Y41578D01*
X11465Y41581D01*
X11454Y41582D01*
X11455D01*
X11454Y41582D01*
X11454Y41582D01*
X11289D01*
X11278Y41581D01*
X11268Y41578D01*
X11259Y41573D01*
X11251Y41566D01*
X11245Y41559D01*
X11240Y41550D01*
X11237Y41540D01*
X11236Y41529D01*
X11236Y41529D01*
X11236Y41529D01*
X11236Y41528D01*
X11235Y41528D01*
X11234Y41527D01*
X11234Y41526D01*
X11177D01*
X11176Y41527D01*
X11175Y41528D01*
X11175Y41529D01*
X11175Y41529D01*
X11175D01*
X11175Y41530D01*
X11178Y41552D01*
X11178Y41552D01*
X11178Y41552D01*
X11178Y41552D01*
X11178Y41552D01*
X11178Y41552D01*
X11178Y41552D01*
X11178Y41552D01*
X11178Y41552D01*
X11178Y41552D01*
X11178Y41552D01*
X11178Y41552D01*
X11178Y41552D01*
X11178Y41552D01*
Y41552D01*
X11185Y41573D01*
X11185Y41573D01*
X11185Y41573D01*
X11185Y41573D01*
X11185Y41574D01*
X11185Y41574D01*
Y41574D01*
X11196Y41592D01*
X11196Y41593D01*
X11196Y41593D01*
X11196Y41593D01*
X11196Y41593D01*
X11196Y41593D01*
X11196D01*
X11196Y41593D01*
X11209Y41609D01*
X11209Y41609D01*
X11209Y41609D01*
X11210Y41609D01*
X11210Y41609D01*
X11210Y41610D01*
X11210Y41610D01*
X11210Y41610D01*
X11210Y41610D01*
X11210Y41610D01*
X11210Y41610D01*
X11210Y41610D01*
X11210Y41610D01*
X11226Y41623D01*
X11226Y41623D01*
X11226Y41623D01*
X11226Y41623D01*
X11226Y41623D01*
X11226Y41623D01*
X11226Y41623D01*
X11226Y41623D01*
X11226Y41623D01*
X11226Y41623D01*
X11226Y41623D01*
X11226Y41623D01*
X11227Y41623D01*
Y41623D01*
X11245Y41634D01*
X11245Y41634D01*
X11245Y41634D01*
X11245Y41634D01*
X11246Y41634D01*
X11246Y41634D01*
Y41634D01*
X11266Y41640D01*
X11266Y41640D01*
X11266Y41640D01*
X11266Y41640D01*
X11266Y41640D01*
X11266Y41640D01*
X11266D01*
X11266Y41640D01*
X11288Y41642D01*
X11288Y41643D01*
X11288Y41643D01*
X11288Y41643D01*
X11288Y41643D01*
X11288Y41643D01*
X11288Y41643D01*
X11455D01*
X11455Y41643D01*
D02*
G37*
G36*
X8858D02*
X8858Y41643D01*
X8858Y41642D01*
X8858Y41642D01*
X8881Y41640D01*
X8881Y41640D01*
X8881Y41640D01*
X8881Y41640D01*
X8881Y41640D01*
X8881Y41640D01*
X8881Y41640D01*
X8902Y41633D01*
X8902Y41633D01*
X8902Y41633D01*
X8903Y41633D01*
X8903Y41633D01*
X8903Y41633D01*
X8903Y41633D01*
X8903Y41633D01*
X8903Y41633D01*
X8903Y41633D01*
X8903D01*
X8922Y41622D01*
X8922Y41622D01*
X8922Y41622D01*
X8922Y41622D01*
X8922Y41622D01*
X8922Y41622D01*
X8922Y41622D01*
X8938Y41608D01*
X8938Y41608D01*
X8938Y41608D01*
X8939Y41608D01*
X8939Y41608D01*
X8939Y41608D01*
X8939Y41608D01*
D01*
X8939Y41608D01*
X8939Y41608D01*
X8939D01*
X8939Y41608D01*
X8939Y41608D01*
X8939Y41608D01*
X8939Y41608D01*
X8939Y41608D01*
X8952Y41592D01*
X8952D01*
X8952Y41592D01*
X8952Y41592D01*
X8952Y41592D01*
X8952Y41592D01*
X8952Y41592D01*
X8952Y41592D01*
X8952Y41592D01*
X8952Y41591D01*
X8952Y41591D01*
X8952Y41591D01*
X8952Y41591D01*
X8952Y41591D01*
X8952Y41591D01*
X8952Y41591D01*
X8952Y41591D01*
X8952Y41591D01*
X8963Y41573D01*
X8963Y41573D01*
X8963Y41573D01*
X8963Y41573D01*
X8963Y41573D01*
X8963Y41572D01*
X8963Y41572D01*
X8963Y41572D01*
X8963Y41572D01*
X8963Y41572D01*
X8969Y41552D01*
Y41552D01*
X8969Y41552D01*
X8969Y41552D01*
X8969Y41552D01*
X8969Y41552D01*
X8969Y41552D01*
X8969Y41552D01*
X8969Y41552D01*
X8969Y41552D01*
X8969Y41551D01*
X8969Y41551D01*
X8969Y41551D01*
X8971Y41529D01*
X8971Y41529D01*
X8971Y41529D01*
X8971Y41529D01*
X8971Y41529D01*
X8971Y41529D01*
Y41529D01*
Y41252D01*
Y41252D01*
X8971Y41251D01*
X8970Y41250D01*
X8969Y41250D01*
X8913D01*
X8912Y41250D01*
X8911Y41251D01*
X8911Y41252D01*
Y41252D01*
Y41529D01*
D01*
X8911Y41529D01*
X8911Y41529D01*
Y41529D01*
X8910Y41540D01*
X8907Y41550D01*
X8902Y41559D01*
X8895Y41566D01*
X8887Y41573D01*
X8879Y41578D01*
X8869Y41581D01*
X8858Y41582D01*
X8639D01*
Y41252D01*
Y41252D01*
X8639Y41251D01*
X8638Y41250D01*
X8637Y41250D01*
X8581D01*
X8580Y41250D01*
X8579Y41251D01*
X8579Y41252D01*
Y41252D01*
Y41640D01*
Y41640D01*
X8579Y41641D01*
X8580Y41642D01*
X8581Y41643D01*
X8858D01*
X8858Y41643D01*
D02*
G37*
G36*
X2974Y41633D02*
X2974Y41633D01*
D01*
X2974Y41633D01*
D02*
G37*
G36*
X16526Y41252D02*
X16138D01*
Y41197D01*
X16083D01*
Y41308D01*
X16138D01*
Y41640D01*
X16193D01*
Y41308D01*
X16470D01*
Y41640D01*
X16526D01*
Y41252D01*
D02*
G37*
G36*
X11559Y41573D02*
X11559Y41573D01*
X11559Y41573D01*
X11559Y41573D01*
D02*
G37*
G36*
X8016Y41577D02*
X8016Y41577D01*
X8016Y41577D01*
X8016Y41577D01*
D02*
G37*
G36*
X12872Y41252D02*
X12816D01*
X12540Y41565D01*
Y41252D01*
X12484D01*
Y41640D01*
X12540D01*
X12816Y41333D01*
Y41640D01*
X12872D01*
Y41252D01*
D02*
G37*
G36*
X11559Y41573D02*
X11559Y41573D01*
X11559Y41572D01*
X11559Y41572D01*
X11559Y41572D01*
Y41572D01*
X11559Y41572D01*
X11559Y41572D01*
X11559Y41572D01*
X11559Y41572D01*
X11559Y41572D01*
X11559Y41573D01*
X11559Y41573D01*
D02*
G37*
G36*
X11236Y41363D02*
X11236Y41363D01*
X11236Y41363D01*
X11236Y41363D01*
D02*
G37*
G36*
X11236Y41363D02*
Y41363D01*
Y41363D01*
Y41363D01*
D02*
G37*
G36*
X7776Y41570D02*
X7776Y41570D01*
X7777Y41570D01*
X7777Y41570D01*
X7777Y41570D01*
X7776Y41570D01*
D02*
G37*
G36*
X10718Y41252D02*
X10663D01*
X10386Y41565D01*
Y41252D01*
X10331D01*
Y41640D01*
X10386D01*
X10663Y41333D01*
Y41640D01*
X10718D01*
Y41252D01*
D02*
G37*
G36*
X12436Y41642D02*
X12437Y41641D01*
X12437Y41640D01*
Y41640D01*
Y41502D01*
Y41502D01*
X12437Y41502D01*
X12437Y41502D01*
X12437Y41502D01*
X12437Y41502D01*
X12437Y41502D01*
X12437Y41502D01*
X12435Y41479D01*
X12435Y41479D01*
Y41479D01*
X12435Y41479D01*
X12435Y41479D01*
X12435Y41479D01*
X12435Y41479D01*
X12435Y41479D01*
X12428Y41458D01*
X12428D01*
X12428Y41457D01*
X12428Y41457D01*
X12428Y41457D01*
X12428Y41457D01*
X12428Y41457D01*
X12428D01*
X12428Y41457D01*
X12428Y41457D01*
X12428Y41457D01*
X12428Y41457D01*
X12428Y41457D01*
X12417Y41438D01*
X12417Y41438D01*
Y41438D01*
X12417Y41438D01*
X12417Y41438D01*
X12417Y41438D01*
X12417Y41438D01*
X12417Y41438D01*
X12417Y41438D01*
X12417Y41438D01*
X12417Y41438D01*
X12417Y41438D01*
X12417Y41438D01*
X12403Y41422D01*
X12403Y41421D01*
Y41421D01*
X12403Y41421D01*
X12403Y41421D01*
X12403Y41421D01*
X12403Y41421D01*
X12403Y41421D01*
X12403Y41421D01*
X12403Y41421D01*
X12403Y41421D01*
X12403Y41421D01*
X12403Y41421D01*
X12386Y41408D01*
X12386Y41408D01*
Y41408D01*
X12386Y41408D01*
X12386Y41408D01*
X12386Y41408D01*
X12386Y41408D01*
X12386Y41407D01*
X12367Y41397D01*
X12367D01*
X12367Y41397D01*
X12367Y41397D01*
X12367Y41397D01*
X12367Y41397D01*
X12367Y41397D01*
X12346Y41391D01*
X12346D01*
X12346Y41391D01*
X12346Y41391D01*
X12346Y41391D01*
X12346Y41391D01*
X12346Y41391D01*
X12324Y41389D01*
X12324D01*
X12324Y41389D01*
X12324Y41389D01*
X12324Y41389D01*
X12324Y41389D01*
X12105D01*
Y41252D01*
Y41252D01*
X12105Y41251D01*
X12104Y41250D01*
X12103Y41250D01*
X12046D01*
X12045Y41250D01*
X12045Y41251D01*
X12044Y41252D01*
Y41252D01*
Y41640D01*
Y41640D01*
X12045Y41641D01*
X12045Y41642D01*
X12046Y41643D01*
X12103D01*
X12104Y41642D01*
X12105Y41641D01*
X12105Y41640D01*
Y41640D01*
Y41449D01*
X12324D01*
X12334Y41450D01*
X12344Y41453D01*
X12353Y41458D01*
X12361Y41465D01*
X12367Y41473D01*
X12372Y41482D01*
X12375Y41491D01*
X12376Y41502D01*
Y41640D01*
Y41640D01*
X12377Y41641D01*
X12378Y41642D01*
X12379Y41643D01*
X12435D01*
X12436Y41642D01*
D02*
G37*
G36*
X10286Y41557D02*
X10139Y41446D01*
X10286Y41334D01*
Y41252D01*
X10231D01*
Y41307D01*
X10093Y41411D01*
X9954Y41307D01*
Y41252D01*
X9899D01*
Y41334D01*
X10047Y41446D01*
X9899Y41557D01*
Y41640D01*
X9954D01*
Y41585D01*
X10093Y41480D01*
X10231Y41585D01*
Y41640D01*
X10286D01*
Y41557D01*
D02*
G37*
G36*
X5808D02*
X5660Y41446D01*
X5808Y41334D01*
Y41252D01*
X5752D01*
Y41307D01*
X5614Y41411D01*
X5475Y41307D01*
Y41252D01*
X5420D01*
Y41334D01*
X5568Y41446D01*
X5420Y41557D01*
Y41640D01*
X5475D01*
Y41585D01*
X5614Y41480D01*
X5752Y41585D01*
Y41640D01*
X5808D01*
Y41557D01*
D02*
G37*
G36*
X8005Y41635D02*
X8026Y41628D01*
X8044Y41618D01*
X8060Y41605D01*
X8073Y41588D01*
X8083Y41570D01*
X8089Y41550D01*
X8091Y41532D01*
X8041D01*
X8040Y41540D01*
X8040Y41541D01*
X8040Y41541D01*
X8040Y41541D01*
X8037Y41551D01*
X8037Y41552D01*
X8037Y41552D01*
X8037Y41552D01*
X8037Y41552D01*
X8037Y41552D01*
Y41552D01*
X8032Y41561D01*
X8032Y41561D01*
X8032Y41561D01*
X8032Y41561D01*
Y41561D01*
X8032Y41561D01*
X8031Y41562D01*
X8031Y41562D01*
X8025Y41570D01*
X8024Y41570D01*
X8024Y41570D01*
X8024D01*
X8016Y41577D01*
X8016Y41577D01*
X8016Y41577D01*
X8016Y41577D01*
X8016Y41577D01*
X8016Y41577D01*
X8016Y41577D01*
X8016Y41577D01*
X8016Y41577D01*
X8016Y41577D01*
X8016Y41577D01*
X8016Y41577D01*
X8016Y41577D01*
X8016Y41577D01*
X8015Y41577D01*
Y41577D01*
X8006Y41582D01*
X8006Y41582D01*
X8006Y41583D01*
X8006Y41583D01*
X7995Y41586D01*
X7995Y41586D01*
X7995Y41586D01*
X7995Y41586D01*
X7995Y41586D01*
X7995Y41586D01*
X7995Y41586D01*
X7995Y41586D01*
D01*
X7995D01*
X7995Y41586D01*
X7995Y41586D01*
X7995Y41586D01*
X7995D01*
X7995Y41586D01*
X7984Y41587D01*
X7984Y41587D01*
X7983Y41587D01*
X7817D01*
X7817Y41587D01*
X7817Y41587D01*
X7806Y41586D01*
Y41586D01*
X7806Y41586D01*
X7806Y41586D01*
X7806Y41586D01*
X7806D01*
X7806D01*
X7805Y41586D01*
Y41586D01*
X7795Y41583D01*
X7795Y41582D01*
X7795Y41582D01*
X7795Y41582D01*
X7795Y41582D01*
X7795D01*
X7795Y41582D01*
X7795Y41582D01*
X7794Y41582D01*
X7785Y41577D01*
X7785Y41577D01*
X7785Y41577D01*
X7785Y41577D01*
X7785Y41577D01*
X7785Y41577D01*
X7785Y41577D01*
X7785Y41577D01*
X7785Y41577D01*
X7785Y41577D01*
X7785Y41577D01*
X7785Y41577D01*
X7785Y41577D01*
X7777Y41570D01*
X7777Y41570D01*
X7777Y41570D01*
X7777Y41570D01*
X7776Y41570D01*
X7776Y41570D01*
X7776Y41570D01*
X7776Y41570D01*
X7776Y41570D01*
X7776Y41570D01*
X7769Y41562D01*
X7769Y41562D01*
X7769Y41562D01*
X7769Y41562D01*
X7769Y41561D01*
X7769Y41561D01*
X7769Y41561D01*
X7769Y41561D01*
X7764Y41552D01*
X7764Y41552D01*
X7764Y41551D01*
Y41551D01*
X7761Y41541D01*
X7760Y41541D01*
X7760Y41541D01*
D01*
Y41541D01*
X7760Y41541D01*
X7760D01*
X7760Y41540D01*
Y41540D01*
X7759Y41529D01*
X7759Y41529D01*
X7759Y41529D01*
Y41529D01*
Y41529D01*
Y41529D01*
Y41529D01*
X7759Y41529D01*
X7759Y41529D01*
X7759Y41529D01*
X7759Y41529D01*
X7759Y41529D01*
X7759Y41529D01*
X7759Y41529D01*
X7760Y41518D01*
X7760Y41518D01*
X7760D01*
X7760Y41518D01*
X7761Y41517D01*
X7764Y41507D01*
X7764Y41506D01*
X7764Y41506D01*
X7769Y41497D01*
X7769Y41497D01*
X7769Y41497D01*
X7769Y41497D01*
X7769Y41497D01*
X7769Y41497D01*
X7769Y41497D01*
X7769Y41497D01*
X7769Y41497D01*
X7776Y41488D01*
X7776Y41488D01*
X7785Y41481D01*
X7785Y41481D01*
X7785Y41481D01*
X7785Y41481D01*
X7794Y41476D01*
X7795Y41476D01*
X7795Y41476D01*
X7795Y41476D01*
X7795Y41476D01*
X7795D01*
X7795Y41476D01*
X7795Y41476D01*
X7795Y41476D01*
X7805Y41472D01*
X7806Y41472D01*
X7806Y41472D01*
D01*
X7806Y41472D01*
X7817Y41471D01*
X7817Y41471D01*
X7817Y41471D01*
X7925D01*
Y41421D01*
X7817D01*
X7817Y41421D01*
X7817Y41421D01*
X7806Y41420D01*
Y41420D01*
X7806Y41420D01*
X7806Y41420D01*
X7806Y41420D01*
X7806D01*
X7806D01*
X7805Y41420D01*
Y41420D01*
X7795Y41417D01*
X7795Y41416D01*
X7795Y41416D01*
X7795Y41416D01*
X7795Y41416D01*
X7795D01*
X7795Y41416D01*
X7795Y41416D01*
X7794Y41416D01*
X7785Y41411D01*
X7785Y41411D01*
X7785Y41411D01*
X7785Y41411D01*
X7785Y41411D01*
X7785Y41411D01*
X7785Y41411D01*
X7785Y41411D01*
X7785Y41411D01*
X7785Y41411D01*
X7785Y41411D01*
X7785Y41411D01*
X7785Y41411D01*
Y41411D01*
X7776Y41404D01*
X7776Y41404D01*
Y41404D01*
X7769Y41396D01*
X7769Y41395D01*
X7769Y41395D01*
D01*
X7769Y41395D01*
X7764Y41386D01*
X7764Y41386D01*
X7764Y41386D01*
X7764Y41386D01*
X7764Y41386D01*
X7764Y41386D01*
X7764Y41386D01*
X7764Y41385D01*
Y41385D01*
X7761Y41375D01*
X7760Y41374D01*
X7760Y41374D01*
X7760Y41374D01*
X7760Y41374D01*
X7760D01*
Y41374D01*
X7760Y41374D01*
X7760Y41374D01*
D01*
X7760Y41374D01*
Y41374D01*
X7759Y41363D01*
X7759Y41363D01*
X7759Y41363D01*
X7759Y41363D01*
Y41363D01*
X7759Y41363D01*
X7759Y41363D01*
Y41363D01*
X7759Y41363D01*
X7759Y41363D01*
X7759Y41363D01*
X7759Y41363D01*
X7759Y41363D01*
X7759Y41363D01*
X7759Y41363D01*
X7759D01*
X7759Y41363D01*
X7759Y41363D01*
X7759Y41363D01*
X7759Y41363D01*
X7760Y41352D01*
X7760Y41352D01*
X7760D01*
X7760Y41352D01*
X7761Y41351D01*
X7764Y41341D01*
X7764Y41340D01*
X7764Y41340D01*
X7764Y41340D01*
X7764Y41340D01*
X7764D01*
X7769Y41331D01*
X7769Y41331D01*
X7769Y41330D01*
Y41330D01*
X7776Y41322D01*
X7776Y41322D01*
X7785Y41315D01*
X7785Y41315D01*
X7785Y41315D01*
X7785Y41315D01*
X7794Y41310D01*
X7795Y41310D01*
X7795Y41310D01*
X7795Y41310D01*
X7795Y41310D01*
X7795D01*
X7795Y41310D01*
X7795Y41310D01*
X7795Y41310D01*
X7805Y41306D01*
X7806Y41306D01*
X7806Y41306D01*
D01*
X7806Y41306D01*
X7817Y41305D01*
X7817Y41305D01*
X7817Y41305D01*
X7983D01*
X7984Y41305D01*
Y41305D01*
X7984Y41305D01*
X7995Y41306D01*
X7995Y41306D01*
X7995Y41306D01*
X7995Y41306D01*
X7995Y41306D01*
X7995Y41306D01*
X7995Y41306D01*
X7995Y41306D01*
X7995Y41306D01*
X7995D01*
X8006Y41310D01*
X8006Y41310D01*
Y41310D01*
X8006Y41310D01*
X8015Y41315D01*
X8016Y41315D01*
X8016Y41315D01*
Y41315D01*
X8016Y41315D01*
X8024Y41322D01*
X8024Y41322D01*
X8024Y41322D01*
X8024Y41322D01*
X8024Y41322D01*
X8025Y41322D01*
X8025D01*
X8031Y41330D01*
X8032Y41331D01*
Y41331D01*
X8032Y41331D01*
X8037Y41340D01*
X8037Y41340D01*
X8037Y41341D01*
X8037D01*
X8040Y41351D01*
X8040Y41352D01*
Y41352D01*
X8040Y41352D01*
X8041Y41360D01*
X8091D01*
X8089Y41341D01*
X8082Y41320D01*
X8072Y41302D01*
X8059Y41286D01*
X8043Y41273D01*
X8025Y41263D01*
X8005Y41257D01*
X7983Y41255D01*
X7983D01*
X7983Y41255D01*
X7983Y41255D01*
X7817D01*
X7795Y41257D01*
X7775Y41264D01*
X7757Y41274D01*
X7741Y41288D01*
X7727Y41304D01*
X7718Y41322D01*
X7711Y41342D01*
X7709Y41363D01*
X7710Y41375D01*
X7712Y41386D01*
X7714Y41397D01*
X7718Y41408D01*
X7724Y41417D01*
X7730Y41427D01*
X7737Y41436D01*
X7746Y41444D01*
X7746Y41444D01*
X7747Y41446D01*
X7746Y41448D01*
X7746Y41448D01*
X7746Y41448D01*
X7746Y41448D01*
X7746Y41448D01*
X7746Y41448D01*
X7737Y41456D01*
X7730Y41465D01*
X7724Y41475D01*
X7718Y41485D01*
X7714Y41495D01*
X7712Y41506D01*
X7710Y41517D01*
X7709Y41529D01*
X7712Y41551D01*
X7718Y41571D01*
X7728Y41590D01*
X7742Y41606D01*
X7758Y41619D01*
X7776Y41629D01*
X7796Y41635D01*
X7817Y41637D01*
X7983D01*
X8005Y41635D01*
D02*
G37*
G36*
X9633Y41252D02*
X9578D01*
X9301Y41565D01*
Y41252D01*
X9246D01*
Y41640D01*
X9301D01*
X9578Y41333D01*
Y41640D01*
X9633D01*
Y41252D01*
D02*
G37*
G36*
X1805D02*
X1750D01*
X1473Y41565D01*
Y41252D01*
X1417D01*
Y41640D01*
X1473D01*
X1750Y41333D01*
Y41640D01*
X1805D01*
Y41252D01*
D02*
G37*
G36*
X1362D02*
X1307D01*
X1030Y41565D01*
Y41252D01*
X975D01*
Y41640D01*
X1030D01*
X1307Y41333D01*
Y41640D01*
X1362D01*
Y41252D01*
D02*
G37*
G36*
X24734Y42288D02*
X24683Y42140D01*
X24608Y42047D01*
X24488Y41973D01*
X24304Y41887D01*
X24034Y41755D01*
X23660Y41544D01*
X23161Y41220D01*
X22943Y41069D01*
X22725Y40916D01*
X22506Y40763D01*
X22285Y40612D01*
X22063Y40463D01*
X21838Y40319D01*
X21610Y40180D01*
X21380Y40048D01*
X21084Y39889D01*
X20821Y39763D01*
X20577Y39675D01*
X20342Y39630D01*
X20105Y39632D01*
X19854Y39687D01*
X19579Y39800D01*
X19267Y39975D01*
X19138Y40057D01*
X19023Y40132D01*
X18920Y40204D01*
X18825Y40275D01*
X18734Y40349D01*
X18644Y40428D01*
X18551Y40515D01*
X18453Y40613D01*
X18368Y40701D01*
X18277Y40796D01*
X18184Y40899D01*
X18092Y41010D01*
X18006Y41126D01*
X17929Y41247D01*
X17865Y41373D01*
X17818Y41502D01*
X17999Y41415D01*
X18166Y41323D01*
X18330Y41231D01*
X18502Y41141D01*
X18694Y41059D01*
X18916Y40988D01*
X19179Y40932D01*
X19496Y40895D01*
X19758Y40886D01*
X20017Y40897D01*
X20271Y40925D01*
X20520Y40968D01*
X20764Y41024D01*
X21003Y41089D01*
X21235Y41161D01*
X21462Y41238D01*
X21858Y41390D01*
X22267Y41566D01*
X22685Y41755D01*
X23108Y41946D01*
X23533Y42129D01*
X23956Y42293D01*
X24374Y42428D01*
X24781Y42523D01*
X24734Y42288D01*
D02*
G37*
G36*
X17312Y53665D02*
X17312Y53665D01*
X17312Y53665D01*
X17312Y53665D01*
D02*
G37*
G36*
X2165Y41252D02*
X2110D01*
Y41585D01*
X1833D01*
Y41640D01*
X2165D01*
Y41252D01*
D02*
G37*
G36*
X17312Y53665D02*
X17312Y53665D01*
X17312Y53665D01*
X17312Y53665D01*
X17312Y53665D01*
X17312Y53665D01*
X17312Y53665D01*
X17312Y53665D01*
X17312Y53665D01*
D02*
G37*
G36*
X11992Y41252D02*
X11604D01*
Y41308D01*
X11936D01*
Y41418D01*
X11659D01*
Y41474D01*
X11936D01*
Y41585D01*
X11604D01*
Y41640D01*
X11992D01*
Y41252D01*
D02*
G37*
G36*
X8438Y41638D02*
X8459Y41631D01*
X8477Y41620D01*
X8494Y41607D01*
X8507Y41590D01*
X8517Y41571D01*
X8524Y41551D01*
X8526Y41529D01*
Y41252D01*
X8471D01*
Y41363D01*
X8194D01*
Y41252D01*
X8138D01*
Y41529D01*
X8141Y41552D01*
X8148Y41572D01*
X8159Y41591D01*
X8172Y41608D01*
X8188Y41621D01*
X8207Y41631D01*
X8227Y41638D01*
X8249Y41640D01*
X8415D01*
X8438Y41638D01*
D02*
G37*
G36*
X7657Y41252D02*
X7269D01*
Y41308D01*
X7601D01*
Y41418D01*
X7325D01*
Y41474D01*
X7601D01*
Y41585D01*
X7269D01*
Y41640D01*
X7657D01*
Y41252D01*
D02*
G37*
G36*
X2514Y41638D02*
X2535Y41631D01*
X2553Y41621D01*
X2570Y41607D01*
X2583Y41591D01*
X2593Y41572D01*
X2600Y41551D01*
X2602Y41529D01*
Y41363D01*
X2600Y41341D01*
X2594Y41320D01*
X2583Y41301D01*
X2570Y41285D01*
X2554Y41271D01*
X2535Y41261D01*
X2514Y41255D01*
X2492Y41252D01*
X2325D01*
X2303Y41255D01*
X2282Y41261D01*
X2264Y41271D01*
X2247Y41285D01*
X2234Y41301D01*
X2223Y41320D01*
X2217Y41341D01*
X2215Y41363D01*
Y41529D01*
X2217Y41551D01*
X2224Y41572D01*
X2234Y41591D01*
X2248Y41607D01*
X2265Y41621D01*
X2283Y41631D01*
X2304Y41638D01*
X2325Y41640D01*
X2492D01*
X2514Y41638D01*
D02*
G37*
G36*
X16648Y55392D02*
X16883Y55319D01*
X17097Y55203D01*
X17282Y55050D01*
X17436Y54864D01*
X17552Y54651D01*
X17625Y54415D01*
X17650Y54162D01*
X17634Y53958D01*
X17586Y53765D01*
X17510Y53585D01*
X17408Y53420D01*
X17283Y53274D01*
X17136Y53149D01*
X16972Y53047D01*
X16792Y52971D01*
X16753Y52971D01*
X16728Y52984D01*
X16714Y53004D01*
X16709Y53029D01*
X16709Y53063D01*
Y53063D01*
X16710Y53117D01*
X16710Y53117D01*
X16710Y53186D01*
X16710D01*
Y53186D01*
X16711Y53260D01*
X16827Y53245D01*
X16827Y53245D01*
X16922Y53251D01*
X16922D01*
X16923Y53251D01*
X16997Y53274D01*
X16997D01*
X16998Y53274D01*
X16998Y53274D01*
X16998Y53274D01*
X16998Y53274D01*
X16998Y53274D01*
X16998Y53274D01*
X16998Y53274D01*
X16998Y53274D01*
X16998Y53274D01*
X16998Y53274D01*
X16998Y53274D01*
Y53274D01*
X17053Y53306D01*
Y53306D01*
X17053Y53306D01*
X17053Y53306D01*
X17053Y53307D01*
X17092Y53342D01*
X17092D01*
X17092Y53343D01*
X17092Y53343D01*
X17092Y53343D01*
X17092Y53343D01*
X17117Y53376D01*
X17117D01*
X17117Y53376D01*
X17117Y53376D01*
X17131Y53401D01*
X17131D01*
X17131Y53401D01*
X17131Y53401D01*
Y53401D01*
X17131Y53401D01*
X17135Y53410D01*
X17180Y53500D01*
X17225Y53556D01*
X17260Y53585D01*
X17273Y53593D01*
X17273D01*
X17273Y53593D01*
X17273Y53593D01*
X17273Y53593D01*
X17306Y53619D01*
X17306D01*
X17306Y53619D01*
X17306Y53619D01*
X17306Y53619D01*
Y53619D01*
X17306Y53619D01*
X17306Y53619D01*
X17306Y53619D01*
X17306Y53619D01*
X17321Y53639D01*
X17321D01*
X17321Y53640D01*
X17322Y53654D01*
X17322D01*
X17321Y53656D01*
X17321Y53656D01*
X17321Y53656D01*
X17321Y53656D01*
X17321Y53656D01*
X17321Y53656D01*
X17312Y53665D01*
X17312Y53665D01*
X17312Y53665D01*
X17312Y53665D01*
X17312Y53665D01*
X17312Y53665D01*
X17312Y53665D01*
X17312Y53665D01*
X17312Y53665D01*
X17312Y53665D01*
X17312Y53665D01*
X17312Y53665D01*
X17311Y53665D01*
X17311Y53665D01*
X17312Y53665D01*
X17311Y53665D01*
X17311Y53665D01*
X17311Y53665D01*
X17311Y53665D01*
X17311Y53665D01*
X17311Y53665D01*
X17311Y53665D01*
X17311Y53665D01*
X17311Y53665D01*
X17311Y53665D01*
X17311Y53665D01*
X17311Y53665D01*
X17311Y53665D01*
X17311Y53665D01*
X17297Y53671D01*
X17297Y53671D01*
X17297Y53671D01*
X17281Y53674D01*
Y53674D01*
X17281Y53674D01*
X17281Y53674D01*
X17281Y53674D01*
X17281Y53674D01*
X17281Y53674D01*
X17281Y53674D01*
X17269Y53674D01*
X17269Y53674D01*
X17268Y53674D01*
X17268Y53674D01*
X17268Y53674D01*
X17268Y53674D01*
D01*
X17268Y53674D01*
X17263Y53674D01*
X17263Y53674D01*
X17262Y53674D01*
X17262Y53674D01*
X17262D01*
X17262Y53674D01*
X17179Y53650D01*
X17179D01*
X17179Y53650D01*
X17179Y53650D01*
X17179Y53650D01*
X17179D01*
X17179Y53650D01*
X17178Y53650D01*
X17118Y53606D01*
Y53606D01*
X17117Y53605D01*
X17081Y53563D01*
Y53563D01*
X17081Y53563D01*
X17068Y53544D01*
X16974Y53442D01*
X16872Y53408D01*
X16777Y53416D01*
X16706Y53440D01*
X16676Y53541D01*
X16676Y53541D01*
X16676Y53541D01*
X16676Y53542D01*
X16629Y53604D01*
X16730Y53619D01*
X16730Y53619D01*
Y53619D01*
X16730Y53619D01*
X16730Y53619D01*
X16730Y53619D01*
X16833Y53646D01*
Y53646D01*
X16833Y53646D01*
X16833Y53646D01*
X16833D01*
X16833Y53646D01*
X16930Y53687D01*
X16930D01*
X16930Y53687D01*
X17017Y53746D01*
Y53746D01*
X17018Y53746D01*
X17018Y53746D01*
X17018Y53746D01*
Y53746D01*
X17018Y53746D01*
X17018Y53746D01*
D01*
X17018Y53746D01*
X17092Y53826D01*
X17092Y53826D01*
X17092D01*
X17092Y53826D01*
X17092Y53826D01*
X17092Y53826D01*
X17150Y53930D01*
X17150Y53930D01*
X17150Y53930D01*
X17150D01*
X17150Y53931D01*
X17150Y53931D01*
X17150D01*
X17150Y53931D01*
X17150Y53931D01*
X17150Y53931D01*
X17187Y54063D01*
X17187D01*
X17187Y54063D01*
X17187Y54063D01*
X17200Y54227D01*
X17200D01*
X17200Y54228D01*
X17166Y54415D01*
X17166Y54415D01*
X17165Y54416D01*
X17071Y54566D01*
X17084Y54605D01*
Y54605D01*
X17084Y54606D01*
Y54606D01*
Y54606D01*
X17084Y54606D01*
X17084Y54606D01*
X17084Y54606D01*
X17095Y54678D01*
X17095Y54678D01*
X17095D01*
X17095Y54679D01*
X17091Y54778D01*
X17091Y54778D01*
X17091Y54778D01*
X17058Y54899D01*
X17058Y54899D01*
X17056Y54901D01*
X17056Y54901D01*
X17036Y54904D01*
X17036Y54904D01*
X17036Y54904D01*
X17036Y54904D01*
X17036Y54904D01*
X17035Y54904D01*
X17035Y54904D01*
X17035Y54904D01*
D01*
X17035Y54904D01*
X17035Y54904D01*
X17035D01*
D01*
X17035Y54904D01*
X17036Y54904D01*
X17035Y54904D01*
X17035Y54904D01*
X17035Y54904D01*
X17035Y54904D01*
X16973Y54897D01*
X16973D01*
X16973Y54897D01*
X16972Y54897D01*
X16972Y54897D01*
X16972D01*
X16972Y54897D01*
X16864Y54861D01*
X16864D01*
X16864Y54861D01*
X16864Y54861D01*
Y54861D01*
X16864Y54860D01*
X16709Y54772D01*
X16555Y54803D01*
X16555Y54803D01*
D01*
X16555Y54803D01*
X16555Y54803D01*
X16555Y54803D01*
X16555Y54803D01*
X16395Y54814D01*
X16395Y54814D01*
X16395D01*
X16235Y54803D01*
Y54803D01*
X16234Y54803D01*
X16234Y54803D01*
X16080Y54772D01*
X15926Y54860D01*
X15926Y54860D01*
X15926Y54860D01*
X15926Y54860D01*
X15926Y54860D01*
X15926Y54860D01*
X15926Y54860D01*
X15926Y54860D01*
X15926Y54860D01*
X15926Y54860D01*
D01*
X15925Y54861D01*
X15818Y54897D01*
X15817Y54897D01*
X15817D01*
X15817Y54897D01*
X15817D01*
X15817Y54897D01*
X15817Y54897D01*
X15817Y54897D01*
X15817Y54897D01*
X15817Y54897D01*
X15755Y54904D01*
X15754Y54904D01*
X15754Y54904D01*
X15754Y54904D01*
X15754Y54904D01*
X15754Y54904D01*
X15754Y54904D01*
X15754Y54904D01*
X15754Y54904D01*
X15754Y54904D01*
D01*
X15754Y54904D01*
X15754Y54904D01*
X15754D01*
X15754Y54904D01*
X15754D01*
X15754Y54904D01*
X15734Y54901D01*
X15734Y54901D01*
Y54901D01*
X15731Y54899D01*
X15731Y54899D01*
X15731Y54899D01*
X15731Y54899D01*
X15731Y54899D01*
X15731Y54899D01*
X15699Y54778D01*
Y54778D01*
X15699Y54778D01*
X15699Y54778D01*
X15699Y54778D01*
X15699Y54778D01*
X15699Y54777D01*
X15699Y54777D01*
X15699Y54778D01*
Y54778D01*
X15695Y54679D01*
Y54679D01*
X15695Y54679D01*
X15695Y54678D01*
X15706Y54606D01*
X15706Y54605D01*
X15706Y54605D01*
X15706Y54605D01*
X15719Y54566D01*
X15625Y54416D01*
X15624Y54416D01*
X15624Y54416D01*
X15624Y54416D01*
X15624Y54415D01*
X15624Y54415D01*
X15624D01*
X15624Y54415D01*
X15624Y54416D01*
X15624Y54416D01*
X15624Y54416D01*
X15624Y54416D01*
X15624Y54416D01*
X15624Y54415D01*
X15624Y54415D01*
X15624Y54415D01*
X15624Y54415D01*
X15590Y54228D01*
X15590Y54228D01*
Y54228D01*
X15590Y54228D01*
X15590Y54227D01*
X15590Y54227D01*
X15590Y54227D01*
X15590Y54227D01*
X15603Y54063D01*
X15603Y54063D01*
X15603Y54063D01*
X15603Y54063D01*
X15640Y53930D01*
X15640D01*
X15640Y53930D01*
X15640Y53930D01*
X15698Y53826D01*
X15698Y53826D01*
X15698Y53826D01*
X15698Y53825D01*
X15698Y53825D01*
X15772Y53746D01*
X15772Y53746D01*
X15773Y53745D01*
X15860Y53687D01*
X15861Y53687D01*
X15958Y53647D01*
X15958Y53646D01*
X16061Y53620D01*
X16061Y53620D01*
X16061Y53620D01*
X16061Y53620D01*
X16161Y53605D01*
X16132Y53572D01*
Y53572D01*
X16132Y53572D01*
X16132Y53572D01*
X16132Y53572D01*
Y53572D01*
X16132Y53572D01*
X16132Y53572D01*
X16132Y53572D01*
X16132Y53572D01*
X16132Y53572D01*
X16105Y53521D01*
Y53521D01*
X16105Y53521D01*
X16105Y53521D01*
X16105Y53521D01*
X16105Y53521D01*
X16105Y53521D01*
X16105Y53521D01*
Y53521D01*
X16105Y53520D01*
X16086Y53455D01*
X16086D01*
X16086Y53454D01*
X16079Y53374D01*
X16079Y53374D01*
Y53374D01*
X16079Y53154D01*
Y53154D01*
Y53154D01*
X16080Y53029D01*
X16076Y53004D01*
X16062Y52983D01*
X16036Y52970D01*
X15997Y52971D01*
X15817Y53047D01*
X15653Y53149D01*
X15507Y53274D01*
X15381Y53421D01*
X15279Y53585D01*
X15203Y53765D01*
X15156Y53958D01*
X15139Y54162D01*
X15165Y54415D01*
X15238Y54651D01*
X15354Y54864D01*
X15507Y55050D01*
X15693Y55203D01*
X15906Y55319D01*
X16142Y55392D01*
X16395Y55417D01*
X16648Y55392D01*
D02*
G37*
G36*
X3388Y41638D02*
X3409Y41631D01*
X3428Y41621D01*
X3444Y41607D01*
X3458Y41591D01*
X3468Y41572D01*
X3475Y41551D01*
X3477Y41529D01*
Y41363D01*
X3475Y41341D01*
X3468Y41320D01*
X3458Y41301D01*
X3445Y41285D01*
X3428Y41271D01*
X3409Y41261D01*
X3389Y41255D01*
X3366Y41252D01*
X3200D01*
X3178Y41255D01*
X3157Y41261D01*
X3138Y41271D01*
X3122Y41285D01*
X3108Y41301D01*
X3098Y41320D01*
X3092Y41341D01*
X3089Y41363D01*
Y41529D01*
X3092Y41551D01*
X3098Y41572D01*
X3109Y41591D01*
X3123Y41607D01*
X3139Y41621D01*
X3158Y41631D01*
X3179Y41638D01*
X3200Y41640D01*
X3366D01*
X3388Y41638D01*
D02*
G37*
G36*
X4767Y41252D02*
X4379D01*
Y41308D01*
X4712D01*
Y41418D01*
X4435D01*
Y41474D01*
X4712D01*
Y41585D01*
X4379D01*
Y41640D01*
X4767D01*
Y41252D01*
D02*
G37*
G36*
X5182Y41585D02*
X5016D01*
Y41252D01*
X4961D01*
Y41585D01*
X4795D01*
Y41640D01*
X5182D01*
Y41585D01*
D02*
G37*
G36*
X7225Y41252D02*
X7170D01*
Y41363D01*
X6948D01*
X6926Y41365D01*
X6905Y41372D01*
X6886Y41383D01*
X6870Y41396D01*
X6856Y41413D01*
X6846Y41432D01*
X6840Y41452D01*
X6837Y41474D01*
Y41529D01*
X6840Y41552D01*
X6847Y41572D01*
X6858Y41591D01*
X6871Y41608D01*
X6887Y41621D01*
X6906Y41631D01*
X6926Y41638D01*
X6948Y41640D01*
X7225D01*
Y41252D01*
D02*
G37*
G36*
X6350D02*
X6073D01*
X6051Y41255D01*
X6030Y41261D01*
X6011Y41272D01*
X5995Y41286D01*
X5981Y41302D01*
X5971Y41321D01*
X5965Y41341D01*
X5963Y41363D01*
Y41391D01*
X5965Y41413D01*
X5972Y41434D01*
X5983Y41453D01*
X5996Y41469D01*
X6013Y41483D01*
X6031Y41493D01*
X6052Y41499D01*
X6073Y41501D01*
X6295D01*
Y41640D01*
X6350D01*
Y41252D01*
D02*
G37*
G36*
X5907D02*
X5852D01*
Y41640D01*
X5907D01*
Y41252D01*
D02*
G37*
G36*
X17092Y53343D02*
X17092Y53343D01*
X17092D01*
X17092Y53343D01*
D02*
G37*
G36*
X24823Y42706D02*
X24025Y42515D01*
X23233Y42269D01*
X22445Y42002D01*
X21659Y41752D01*
X20874Y41553D01*
X20089Y41442D01*
X19300Y41453D01*
X18507Y41623D01*
X18153Y41747D01*
X17883Y41864D01*
X17685Y41988D01*
X17547Y42131D01*
X17456Y42304D01*
X17400Y42520D01*
X17368Y42793D01*
X17347Y43133D01*
X18485Y43062D01*
X19474Y43030D01*
X20360Y43030D01*
X21189Y43054D01*
X22008Y43092D01*
X22863Y43136D01*
X23801Y43179D01*
X24868Y43212D01*
X24823Y42706D01*
D02*
G37*
G36*
X4352Y45086D02*
X2916D01*
Y42212D01*
X2437D01*
Y45086D01*
X1000D01*
Y45565D01*
X4352D01*
Y45086D01*
D02*
G37*
G36*
X1274Y41728D02*
X1267Y41708D01*
X1257Y41690D01*
X1244Y41674D01*
X1228Y41661D01*
X1210Y41651D01*
X1190Y41645D01*
X1168Y41643D01*
X1146Y41645D01*
X1126Y41651D01*
X1108Y41662D01*
X1092Y41675D01*
X1079Y41691D01*
X1069Y41710D01*
X1062Y41730D01*
X1061Y41748D01*
X1111D01*
X1111Y41739D01*
X1111Y41739D01*
X1111D01*
X1111Y41739D01*
X1112Y41739D01*
X1115Y41728D01*
X1115Y41728D01*
X1115Y41728D01*
X1115Y41728D01*
X1115Y41728D01*
X1115Y41728D01*
X1115D01*
X1115Y41728D01*
X1115D01*
X1120Y41718D01*
X1120Y41718D01*
X1120Y41718D01*
X1120Y41718D01*
X1120Y41718D01*
X1120Y41718D01*
X1120Y41718D01*
X1120Y41718D01*
Y41718D01*
X1127Y41710D01*
X1128Y41709D01*
X1136Y41703D01*
X1136Y41702D01*
X1136Y41702D01*
X1136Y41702D01*
X1136Y41702D01*
Y41702D01*
X1136Y41702D01*
X1136Y41702D01*
X1136Y41702D01*
X1136D01*
X1136Y41702D01*
X1136D01*
X1146Y41697D01*
X1146Y41697D01*
X1146Y41697D01*
X1156Y41694D01*
X1157Y41694D01*
X1157Y41694D01*
X1157Y41694D01*
X1168Y41693D01*
X1168Y41693D01*
X1169Y41693D01*
Y41693D01*
X1169Y41693D01*
X1180Y41694D01*
X1180Y41694D01*
X1180Y41694D01*
X1180D01*
X1191Y41697D01*
X1191Y41697D01*
Y41697D01*
X1191Y41697D01*
X1200Y41702D01*
X1201Y41702D01*
X1201Y41703D01*
Y41703D01*
X1201Y41703D01*
X1209Y41709D01*
X1209Y41709D01*
X1210Y41710D01*
X1210D01*
X1216Y41718D01*
X1217Y41718D01*
Y41718D01*
X1217Y41718D01*
X1222Y41728D01*
X1222Y41728D01*
X1222Y41728D01*
X1222Y41728D01*
X1222Y41728D01*
X1222Y41728D01*
X1222Y41728D01*
X1222D01*
X1225Y41739D01*
X1225Y41739D01*
Y41739D01*
X1225Y41739D01*
X1225Y41739D01*
X1225Y41739D01*
X1226Y41748D01*
X1276D01*
X1274Y41728D01*
D02*
G37*
G36*
X16535Y42212D02*
X12703Y42210D01*
Y42691D01*
X13182D01*
Y45565D01*
X13661D01*
Y42691D01*
X16056D01*
Y45565D01*
X16535D01*
Y42212D01*
D02*
G37*
G36*
X7700Y45541D02*
X7881Y45482D01*
X8044Y45392D01*
X8185Y45275D01*
X8301Y45134D01*
X8389Y44973D01*
X8444Y44796D01*
X8463Y44607D01*
Y42212D01*
X7984D01*
Y44607D01*
X7974Y44703D01*
X7946Y44793D01*
X7902Y44874D01*
X7843Y44945D01*
X7772Y45004D01*
X7691Y45048D01*
X7601Y45076D01*
X7505Y45086D01*
X5589D01*
Y42212D01*
X5110D01*
Y45565D01*
X7505D01*
X7700Y45541D01*
D02*
G37*
G36*
X11698Y45545D02*
X11878Y45489D01*
X12040Y45401D01*
X12182Y45283D01*
X12300Y45142D01*
X12388Y44979D01*
X12444Y44799D01*
X12464Y44607D01*
Y43170D01*
X12444Y42976D01*
X12389Y42796D01*
X12301Y42634D01*
X12184Y42492D01*
X12043Y42375D01*
X11880Y42287D01*
X11700Y42232D01*
X11506Y42212D01*
X10069D01*
X9877Y42232D01*
X9697Y42288D01*
X9535Y42377D01*
X9393Y42494D01*
X9275Y42636D01*
X9187Y42798D01*
X9131Y42978D01*
X9111Y43170D01*
Y44607D01*
X9132Y44798D01*
X9190Y44977D01*
X9281Y45139D01*
X9400Y45282D01*
X9543Y45399D01*
X9705Y45489D01*
X9882Y45545D01*
X10069Y45565D01*
X11506D01*
X11698Y45545D01*
D02*
G37*
G36*
X13702Y41252D02*
X13647D01*
Y41585D01*
X13370D01*
Y41252D01*
X13315D01*
Y41640D01*
X13702D01*
Y41252D01*
D02*
G37*
G36*
X14051Y41638D02*
X14072Y41631D01*
X14091Y41621D01*
X14107Y41607D01*
X14121Y41591D01*
X14131Y41572D01*
X14137Y41551D01*
X14140Y41529D01*
Y41363D01*
X14137Y41341D01*
X14131Y41320D01*
X14121Y41301D01*
X14107Y41285D01*
X14091Y41271D01*
X14072Y41261D01*
X14051Y41255D01*
X14029Y41252D01*
X13863D01*
X13841Y41255D01*
X13820Y41261D01*
X13801Y41271D01*
X13785Y41285D01*
X13771Y41301D01*
X13761Y41320D01*
X13754Y41341D01*
X13752Y41363D01*
Y41529D01*
X13754Y41551D01*
X13761Y41572D01*
X13772Y41591D01*
X13785Y41607D01*
X13802Y41621D01*
X13821Y41631D01*
X13841Y41638D01*
X13863Y41640D01*
X14029D01*
X14051Y41638D01*
D02*
G37*
G36*
X21521Y47145D02*
X21881Y47082D01*
X22187Y46979D01*
X22455Y46838D01*
X22704Y46659D01*
X22949Y46445D01*
X23208Y46197D01*
X23498Y45916D01*
X23715Y45721D01*
X23903Y45571D01*
X24066Y45450D01*
X24205Y45344D01*
X24324Y45238D01*
X24425Y45118D01*
X24511Y44967D01*
X24585Y44772D01*
X24281Y44911D01*
X23951Y45102D01*
X23606Y45331D01*
X23253Y45586D01*
X22901Y45852D01*
X22560Y46116D01*
X22239Y46365D01*
X21946Y46584D01*
X21091Y47167D01*
X21521Y47145D01*
D02*
G37*
G36*
X17053Y53306D02*
Y53306D01*
X17053Y53306D01*
X17053Y53306D01*
D02*
G37*
G36*
X13287Y41585D02*
X13121D01*
Y41252D01*
X13066D01*
Y41585D01*
X12899D01*
Y41640D01*
X13287D01*
Y41585D01*
D02*
G37*
G36*
X24511Y41690D02*
X24425Y41539D01*
X24324Y41418D01*
X24205Y41313D01*
X24066Y41207D01*
X23903Y41086D01*
X23715Y40936D01*
X23498Y40741D01*
X23208Y40460D01*
X22949Y40212D01*
X22704Y39997D01*
X22455Y39819D01*
X22187Y39678D01*
X21881Y39575D01*
X21521Y39512D01*
X21091Y39490D01*
X21946Y40073D01*
X22239Y40292D01*
X22560Y40541D01*
X22901Y40805D01*
X23253Y41071D01*
X23606Y41325D01*
X23951Y41555D01*
X24281Y41746D01*
X24585Y41885D01*
X24511Y41690D01*
D02*
G37*
G36*
X14787Y41252D02*
X14732D01*
Y41363D01*
X14510D01*
X14488Y41365D01*
X14467Y41372D01*
X14448Y41383D01*
X14432Y41396D01*
X14418Y41413D01*
X14408Y41432D01*
X14402Y41452D01*
X14400Y41474D01*
Y41529D01*
X14403Y41552D01*
X14409Y41572D01*
X14420Y41591D01*
X14434Y41608D01*
X14450Y41621D01*
X14468Y41631D01*
X14489Y41638D01*
X14510Y41640D01*
X14787D01*
Y41252D01*
D02*
G37*
G36*
X20874Y45104D02*
X21659Y44905D01*
X22445Y44655D01*
X23233Y44388D01*
X24025Y44142D01*
X24823Y43951D01*
X24868Y43445D01*
X23801Y43478D01*
X22863Y43521D01*
X22008Y43565D01*
X21189Y43603D01*
X20360Y43626D01*
X19474Y43626D01*
X18485Y43595D01*
X17347Y43524D01*
X17368Y43864D01*
X17400Y44137D01*
X17456Y44353D01*
X17547Y44526D01*
X17685Y44669D01*
X17883Y44792D01*
X18153Y44910D01*
X18507Y45034D01*
X19300Y45204D01*
X20089Y45215D01*
X20874Y45104D01*
D02*
G37*
G36*
X20577Y46982D02*
X20821Y46893D01*
X21084Y46768D01*
X21380Y46609D01*
X21610Y46477D01*
X21838Y46338D01*
X22063Y46194D01*
X22285Y46045D01*
X22506Y45894D01*
X22725Y45741D01*
X22943Y45588D01*
X23161Y45437D01*
X23660Y45113D01*
X24034Y44901D01*
X24304Y44769D01*
X24488Y44684D01*
X24608Y44610D01*
X24683Y44516D01*
X24734Y44369D01*
X24781Y44134D01*
X24374Y44229D01*
X23956Y44364D01*
X23533Y44528D01*
X23108Y44711D01*
X22685Y44902D01*
X22267Y45091D01*
X21858Y45267D01*
X21462Y45419D01*
X21235Y45496D01*
X21003Y45568D01*
X20764Y45633D01*
X20520Y45688D01*
X20271Y45731D01*
X20017Y45760D01*
X19758Y45771D01*
X19496Y45762D01*
X19179Y45725D01*
X18916Y45669D01*
X18694Y45598D01*
X18502Y45515D01*
X18330Y45426D01*
X18166Y45334D01*
X17999Y45242D01*
X17818Y45155D01*
X17865Y45284D01*
X17929Y45410D01*
X18006Y45531D01*
X18092Y45647D01*
X18184Y45757D01*
X18277Y45861D01*
X18368Y45956D01*
X18453Y46043D01*
X18551Y46142D01*
X18644Y46229D01*
X18734Y46308D01*
X18825Y46382D01*
X18920Y46453D01*
X19023Y46525D01*
X19138Y46600D01*
X19267Y46682D01*
X19579Y46857D01*
X19854Y46970D01*
X20105Y47025D01*
X20342Y47027D01*
X20577Y46982D01*
D02*
G37*
%LPC*%
G36*
X3023Y41592D02*
X3023Y41591D01*
X3023Y41592D01*
X3023Y41592D01*
X3023Y41592D01*
X3023Y41592D01*
D02*
G37*
G36*
X3023Y41592D02*
X3023D01*
X3023Y41592D01*
X3023Y41592D01*
D02*
G37*
G36*
X3042Y41529D02*
X3042Y41529D01*
X3042Y41529D01*
D01*
Y41529D01*
X3042Y41529D01*
D02*
G37*
G36*
X2982Y41529D02*
Y41529D01*
X2982Y41529D01*
X2982Y41529D01*
D02*
G37*
G36*
X11236Y41363D02*
X11236Y41363D01*
X11236Y41363D01*
X11236Y41363D01*
D02*
G37*
G36*
X11289Y41310D02*
X11288D01*
X11289Y41310D01*
X11289Y41310D01*
D02*
G37*
G36*
X11548Y41299D02*
X11548D01*
X11548Y41299D01*
X11548Y41299D01*
X11548Y41299D01*
D02*
G37*
G36*
X11177Y41341D02*
X11177Y41341D01*
X11177Y41341D01*
X11177Y41341D01*
X11177Y41341D01*
X11177Y41341D01*
D02*
G37*
G36*
X11184Y41320D02*
X11184Y41320D01*
X11184Y41320D01*
X11184Y41320D01*
X11184Y41320D01*
X11184Y41320D01*
D02*
G37*
G36*
X11178Y41552D02*
X11178Y41552D01*
X11178Y41552D01*
Y41552D01*
D02*
G37*
G36*
X11236Y41529D02*
X11236Y41529D01*
X11236Y41529D01*
X11236Y41529D01*
X11236Y41529D01*
X11236D01*
X11236Y41529D01*
X11236Y41529D01*
D02*
G37*
G36*
X11559Y41573D02*
X11559Y41573D01*
X11559Y41573D01*
X11559Y41573D01*
X11559Y41573D01*
X11559Y41573D01*
X11559Y41573D01*
D02*
G37*
G36*
X8952Y41592D02*
D01*
X8952Y41591D01*
X8952Y41591D01*
X8952Y41591D01*
X8952Y41591D01*
X8952Y41592D01*
D01*
D02*
G37*
G36*
X8952Y41592D02*
X8952Y41592D01*
X8952Y41592D01*
X8952Y41592D01*
D02*
G37*
G36*
X12324Y41449D02*
X12324D01*
X12323Y41449D01*
X12324Y41449D01*
D02*
G37*
G36*
X12437Y41502D02*
Y41502D01*
Y41502D01*
Y41502D01*
D02*
G37*
G36*
X7764Y41386D02*
X7764Y41386D01*
X7764Y41386D01*
X7764Y41386D01*
X7764Y41386D01*
D02*
G37*
G36*
X7764Y41386D02*
X7764Y41386D01*
X7764Y41386D01*
X7764Y41386D01*
X7764Y41386D01*
D02*
G37*
G36*
X7769Y41395D02*
X7769Y41395D01*
X7769Y41395D01*
X7769Y41395D01*
D02*
G37*
G36*
X7769Y41395D02*
X7769Y41395D01*
X7769D01*
X7769Y41395D01*
D02*
G37*
G36*
X7785Y41411D02*
X7785Y41411D01*
X7785Y41411D01*
X7785Y41411D01*
X7785Y41411D01*
X7785Y41411D01*
X7785D01*
X7785Y41411D01*
D02*
G37*
G36*
X7806Y41472D02*
X7806Y41472D01*
X7806Y41472D01*
X7806D01*
D02*
G37*
G36*
X7817Y41421D02*
X7817Y41421D01*
X7817Y41421D01*
X7817Y41421D01*
D02*
G37*
G36*
X7806Y41420D02*
X7806Y41420D01*
X7806Y41420D01*
X7806Y41420D01*
X7806D01*
D02*
G37*
G36*
X7806Y41420D02*
X7806Y41420D01*
X7806Y41420D01*
X7806Y41420D01*
D02*
G37*
G36*
X7817Y41421D02*
X7817D01*
X7817D01*
X7817D01*
D02*
G37*
G36*
X7806Y41420D02*
X7806Y41420D01*
D01*
X7806D01*
X7806Y41420D01*
D02*
G37*
G36*
X7806Y41306D02*
X7806Y41306D01*
X7806Y41306D01*
X7806Y41306D01*
D02*
G37*
G36*
X7806Y41306D02*
X7806Y41306D01*
X7806Y41306D01*
X7806D01*
D02*
G37*
G36*
X7764Y41340D02*
X7764Y41340D01*
X7764Y41340D01*
X7764Y41340D01*
D02*
G37*
G36*
X7764Y41340D02*
X7764Y41340D01*
D01*
X7764Y41340D01*
D02*
G37*
G36*
X7769Y41331D02*
X7769Y41331D01*
X7769Y41331D01*
X7769Y41331D01*
D02*
G37*
G36*
X7769Y41331D02*
X7769Y41331D01*
X7769D01*
X7769Y41331D01*
D02*
G37*
G36*
X7806Y41472D02*
X7806Y41472D01*
X7806Y41472D01*
X7806Y41472D01*
D02*
G37*
G36*
X7817Y41587D02*
X7817Y41587D01*
X7817Y41587D01*
X7817Y41587D01*
D02*
G37*
G36*
X7995Y41586D02*
X7995Y41586D01*
X7995Y41586D01*
X7995D01*
X7995Y41586D01*
D02*
G37*
G36*
X7806Y41586D02*
X7806Y41586D01*
X7806Y41586D01*
X7806Y41586D01*
X7806D01*
D02*
G37*
G36*
X7806Y41586D02*
X7806Y41586D01*
D01*
X7806D01*
X7806Y41586D01*
D02*
G37*
G36*
X7817Y41587D02*
X7817D01*
X7817D01*
X7817D01*
D02*
G37*
G36*
X7759Y41529D02*
X7759Y41529D01*
X7759Y41529D01*
X7759Y41529D01*
X7759Y41529D01*
X7759Y41529D01*
D02*
G37*
G36*
X7760Y41541D02*
X7760Y41541D01*
X7760Y41541D01*
X7760Y41541D01*
D02*
G37*
G36*
X7764Y41552D02*
X7764Y41552D01*
X7764Y41552D01*
X7764Y41552D01*
X7764Y41552D01*
D02*
G37*
G36*
X7764Y41552D02*
X7764Y41552D01*
X7764Y41552D01*
X7764Y41552D01*
X7764Y41552D01*
X7764Y41552D01*
X7764Y41552D01*
X7764Y41552D01*
X7764Y41552D01*
X7764Y41552D01*
D02*
G37*
G36*
X7764Y41506D02*
Y41506D01*
X7764Y41506D01*
X7764Y41506D01*
X7764Y41506D01*
X7764Y41506D01*
D01*
X7764Y41506D01*
X7764Y41506D01*
X7764Y41506D01*
X7764Y41506D01*
X7764Y41506D01*
X7764Y41506D01*
X7764Y41506D01*
X7764Y41506D01*
D02*
G37*
G36*
X8024Y41570D02*
X8024Y41570D01*
X8024Y41570D01*
X8024Y41570D01*
D02*
G37*
G36*
X8006Y41582D02*
Y41582D01*
X8006Y41582D01*
X8006Y41582D01*
X8006Y41582D01*
D02*
G37*
G36*
X7785Y41577D02*
X7785Y41577D01*
X7785Y41577D01*
X7785Y41577D01*
D02*
G37*
G36*
X7769Y41562D02*
X7769Y41562D01*
X7769Y41562D01*
X7769Y41561D01*
X7769Y41561D01*
X7769Y41561D01*
X7769Y41561D01*
X7769Y41561D01*
X7769Y41562D01*
D02*
G37*
G36*
X7806Y41586D02*
X7806Y41586D01*
X7806Y41586D01*
X7806Y41586D01*
D02*
G37*
G36*
X8249Y41587D02*
X8249D01*
X8249D01*
X8249D01*
D02*
G37*
G36*
X8415D02*
X8415D01*
X8415D01*
X8415D01*
D02*
G37*
G36*
X8415Y41587D02*
X8249D01*
X8249Y41587D01*
X8249Y41587D01*
X8249Y41587D01*
X8249Y41587D01*
X8249D01*
X8238Y41586D01*
X8238Y41586D01*
X8238Y41586D01*
X8238Y41586D01*
X8237Y41586D01*
X8237Y41586D01*
X8237Y41586D01*
X8227Y41583D01*
X8227Y41583D01*
X8227Y41583D01*
X8227Y41583D01*
X8227Y41583D01*
X8226Y41582D01*
X8226Y41582D01*
D01*
X8226Y41582D01*
X8226Y41582D01*
X8226D01*
X8226D01*
X8226Y41582D01*
Y41582D01*
X8226Y41582D01*
X8226Y41582D01*
X8226D01*
X8226Y41582D01*
X8226Y41582D01*
X8226Y41582D01*
X8217Y41577D01*
X8217Y41577D01*
X8217Y41577D01*
X8217Y41577D01*
X8217Y41577D01*
X8217Y41577D01*
X8217Y41577D01*
X8217Y41577D01*
X8217Y41577D01*
X8217Y41577D01*
X8216Y41577D01*
X8216Y41577D01*
X8208Y41570D01*
X8208Y41570D01*
X8208Y41570D01*
X8208Y41570D01*
X8208Y41570D01*
X8208Y41570D01*
X8208Y41570D01*
X8201Y41562D01*
X8201Y41562D01*
X8201Y41562D01*
X8201Y41561D01*
X8201Y41561D01*
X8201Y41561D01*
X8201Y41561D01*
X8201Y41561D01*
X8201Y41561D01*
X8201Y41561D01*
X8201Y41561D01*
X8196Y41552D01*
X8196Y41552D01*
X8196Y41552D01*
X8196Y41552D01*
X8196Y41552D01*
X8196Y41551D01*
X8196Y41551D01*
X8192Y41541D01*
X8192Y41541D01*
X8192Y41541D01*
X8192Y41541D01*
X8192Y41541D01*
X8192Y41541D01*
X8192Y41541D01*
X8192Y41541D01*
X8192Y41541D01*
X8192Y41541D01*
D01*
X8192Y41541D01*
X8192Y41541D01*
X8192Y41541D01*
X8192Y41540D01*
X8191Y41529D01*
X8191Y41529D01*
X8191Y41529D01*
X8191Y41529D01*
X8191Y41529D01*
X8191Y41529D01*
Y41529D01*
Y41418D01*
Y41418D01*
X8191Y41417D01*
X8192Y41416D01*
X8193Y41416D01*
X8471D01*
X8472Y41416D01*
X8473Y41417D01*
X8473Y41418D01*
Y41418D01*
Y41529D01*
Y41529D01*
X8473Y41529D01*
X8473Y41529D01*
X8473Y41529D01*
X8473Y41529D01*
X8473Y41529D01*
X8473Y41529D01*
X8473Y41529D01*
X8473Y41529D01*
X8472Y41540D01*
X8472Y41541D01*
X8472D01*
X8472Y41541D01*
X8472Y41541D01*
X8472Y41541D01*
X8472Y41541D01*
X8472Y41541D01*
X8469Y41551D01*
Y41551D01*
X8469Y41551D01*
X8469Y41552D01*
X8469Y41552D01*
X8469Y41552D01*
X8468Y41552D01*
X8468Y41552D01*
X8469Y41552D01*
X8468Y41552D01*
X8463Y41561D01*
X8463Y41561D01*
X8463Y41561D01*
X8463Y41561D01*
X8463D01*
X8463Y41561D01*
X8463Y41561D01*
X8463Y41561D01*
X8463Y41561D01*
X8463Y41561D01*
X8463Y41561D01*
X8463Y41561D01*
X8463Y41562D01*
X8463Y41562D01*
X8463Y41562D01*
X8456Y41570D01*
Y41570D01*
X8456Y41570D01*
X8456Y41570D01*
X8456Y41570D01*
X8456Y41570D01*
X8456Y41570D01*
X8456Y41570D01*
X8448Y41577D01*
X8448Y41577D01*
X8448Y41577D01*
X8448Y41577D01*
X8448Y41577D01*
X8448Y41577D01*
X8448Y41577D01*
X8448Y41577D01*
X8448Y41577D01*
X8448Y41577D01*
X8448Y41577D01*
X8448Y41577D01*
X8448Y41577D01*
X8448Y41577D01*
X8448Y41577D01*
X8448Y41577D01*
X8447Y41577D01*
X8447Y41577D01*
X8447Y41577D01*
X8447Y41577D01*
X8438Y41582D01*
X8438Y41582D01*
X8438Y41582D01*
X8438Y41582D01*
X8438D01*
X8438Y41582D01*
X8438Y41582D01*
X8438Y41582D01*
X8438Y41582D01*
X8438Y41583D01*
X8438Y41583D01*
X8438Y41583D01*
X8437Y41583D01*
X8427Y41586D01*
Y41586D01*
X8427Y41586D01*
X8427Y41586D01*
X8427Y41586D01*
X8427Y41586D01*
X8427Y41586D01*
X8427Y41586D01*
X8427Y41586D01*
X8427Y41586D01*
X8427Y41586D01*
X8427Y41586D01*
X8427Y41586D01*
X8427Y41586D01*
X8427Y41586D01*
X8427Y41586D01*
X8427Y41586D01*
X8415Y41587D01*
X8415Y41587D01*
X8415Y41587D01*
X8415Y41587D01*
D01*
X8415Y41587D01*
X8415Y41587D01*
X8415Y41587D01*
X8415Y41587D01*
D02*
G37*
G36*
X8249Y41587D02*
X8249Y41587D01*
X8249Y41587D01*
X8249Y41587D01*
D02*
G37*
G36*
X8415D02*
X8415Y41587D01*
X8415Y41587D01*
X8415Y41587D01*
X8415D01*
X8415Y41587D01*
X8415Y41587D01*
D02*
G37*
G36*
X8192Y41541D02*
Y41541D01*
Y41541D01*
D01*
D02*
G37*
G36*
X8473Y41529D02*
X8473Y41529D01*
Y41529D01*
X8473Y41529D01*
D02*
G37*
G36*
X8473Y41529D02*
X8473Y41529D01*
Y41529D01*
Y41529D01*
X8473Y41529D01*
D02*
G37*
G36*
X8438Y41582D02*
X8438Y41582D01*
D01*
X8438Y41582D01*
D02*
G37*
G36*
X8438D02*
X8438D01*
X8438D01*
X8438D01*
D02*
G37*
G36*
X8463Y41561D02*
X8463Y41561D01*
X8463Y41561D01*
D01*
X8463Y41561D01*
D02*
G37*
G36*
X8468Y41552D02*
X8468Y41552D01*
X8468Y41552D01*
X8468Y41552D01*
D02*
G37*
%LPD*%
G36*
X8192Y41541D02*
X8192Y41541D01*
X8192Y41541D01*
X8192Y41541D01*
Y41541D01*
D02*
G37*
G36*
X8447Y41577D02*
X8447Y41577D01*
X8447Y41577D01*
X8447Y41577D01*
D02*
G37*
G36*
X8448Y41577D02*
X8448Y41577D01*
X8447Y41577D01*
X8448Y41577D01*
D02*
G37*
%LPC*%
G36*
X2514Y41310D02*
X2514Y41310D01*
X2514Y41310D01*
Y41310D01*
D02*
G37*
G36*
X2314Y41306D02*
X2314Y41306D01*
X2314Y41306D01*
X2314Y41306D01*
D02*
G37*
G36*
X2492Y41305D02*
X2492D01*
X2492D01*
X2492D01*
D02*
G37*
G36*
X2492Y41305D02*
X2492D01*
X2492Y41305D01*
X2492Y41305D01*
X2492D01*
D02*
G37*
G36*
X2314Y41306D02*
X2314D01*
X2314D01*
X2314D01*
D02*
G37*
G36*
X2503Y41586D02*
X2503D01*
D01*
X2503Y41586D01*
X2503Y41586D01*
X2503Y41586D01*
X2503D01*
D02*
G37*
G36*
X2325Y41587D02*
X2325Y41587D01*
X2325Y41587D01*
X2325Y41587D01*
X2325D01*
X2325Y41587D01*
D02*
G37*
G36*
X2545Y41552D02*
X2545Y41552D01*
X2545Y41552D01*
X2545Y41552D01*
D02*
G37*
G36*
X2524Y41577D02*
X2524Y41577D01*
X2524Y41577D01*
X2524Y41577D01*
X2524Y41577D01*
X2524Y41577D01*
X2524Y41577D01*
D02*
G37*
G36*
X2492Y41587D02*
X2325D01*
X2325Y41587D01*
X2325Y41587D01*
X2325Y41587D01*
X2325Y41587D01*
X2325Y41587D01*
X2325Y41587D01*
X2325Y41587D01*
X2325Y41587D01*
X2314Y41586D01*
X2314Y41586D01*
X2314Y41586D01*
X2314Y41586D01*
X2314Y41586D01*
X2314Y41586D01*
X2314Y41586D01*
X2303Y41583D01*
X2303Y41583D01*
X2303Y41583D01*
X2303Y41583D01*
X2303Y41583D01*
X2303Y41582D01*
X2303Y41582D01*
D01*
X2303Y41582D01*
X2303Y41582D01*
X2303D01*
X2303D01*
X2303Y41582D01*
Y41582D01*
X2303Y41582D01*
X2303Y41582D01*
X2303D01*
X2303Y41582D01*
X2303Y41582D01*
X2303Y41582D01*
X2293Y41577D01*
X2293Y41577D01*
X2293Y41577D01*
X2293Y41577D01*
X2293Y41577D01*
X2293Y41577D01*
X2293Y41577D01*
X2293Y41577D01*
X2293Y41577D01*
X2293Y41577D01*
X2293Y41577D01*
X2293Y41577D01*
X2285Y41570D01*
X2285Y41570D01*
X2285Y41570D01*
X2285Y41570D01*
X2284Y41570D01*
X2284Y41570D01*
X2284Y41570D01*
X2284Y41570D01*
X2284Y41570D01*
X2284Y41570D01*
X2284Y41570D01*
X2284Y41570D01*
X2278Y41562D01*
X2278Y41562D01*
X2277Y41562D01*
X2277Y41562D01*
X2277Y41561D01*
X2277Y41561D01*
X2277Y41561D01*
X2277Y41561D01*
X2277Y41561D01*
X2277Y41561D01*
X2277Y41561D01*
X2277Y41561D01*
X2272Y41552D01*
X2272Y41552D01*
X2272Y41552D01*
X2272Y41552D01*
X2272Y41552D01*
X2272Y41551D01*
X2272Y41551D01*
X2269Y41541D01*
X2269Y41541D01*
X2269Y41541D01*
X2269Y41541D01*
X2269Y41541D01*
X2269Y41541D01*
X2269Y41541D01*
X2269Y41540D01*
X2267Y41529D01*
X2267Y41529D01*
X2267Y41529D01*
X2267Y41529D01*
X2267Y41529D01*
X2267Y41529D01*
Y41529D01*
Y41363D01*
Y41363D01*
X2267Y41363D01*
X2267Y41363D01*
X2267Y41363D01*
X2267Y41363D01*
X2267Y41363D01*
X2269Y41352D01*
X2269Y41352D01*
Y41352D01*
X2269Y41352D01*
X2269Y41351D01*
X2269Y41351D01*
X2269Y41351D01*
X2269Y41351D01*
X2272Y41341D01*
X2272D01*
X2272Y41341D01*
X2272Y41341D01*
X2272Y41340D01*
X2272Y41340D01*
X2272Y41340D01*
X2277Y41331D01*
X2277Y41331D01*
Y41331D01*
X2277Y41331D01*
X2277Y41331D01*
X2277Y41331D01*
X2277Y41331D01*
X2278Y41330D01*
X2284Y41322D01*
X2284D01*
X2284Y41322D01*
X2284Y41322D01*
X2285Y41322D01*
X2285Y41322D01*
X2285Y41322D01*
X2285Y41322D01*
X2293Y41315D01*
X2293Y41315D01*
X2293Y41315D01*
X2293Y41315D01*
D01*
X2293Y41315D01*
X2293Y41315D01*
X2293Y41315D01*
X2293Y41315D01*
X2293Y41315D01*
X2293Y41315D01*
X2293Y41315D01*
X2293Y41315D01*
X2293Y41315D01*
X2293Y41315D01*
X2293Y41315D01*
X2293Y41315D01*
D01*
X2293Y41315D01*
X2293Y41315D01*
X2293Y41315D01*
X2293Y41315D01*
Y41315D01*
X2293Y41315D01*
X2293Y41315D01*
X2293Y41315D01*
X2303Y41310D01*
X2303Y41310D01*
Y41310D01*
X2303Y41310D01*
X2303Y41310D01*
X2303Y41310D01*
X2303Y41310D01*
X2303Y41310D01*
X2314Y41306D01*
X2314D01*
X2314Y41306D01*
X2314Y41306D01*
X2314Y41306D01*
X2314Y41306D01*
X2314Y41306D01*
X2314Y41306D01*
X2314Y41306D01*
X2314Y41306D01*
X2314Y41306D01*
X2314Y41306D01*
X2314Y41306D01*
X2314Y41306D01*
X2325Y41305D01*
X2325Y41305D01*
X2325Y41305D01*
X2325Y41305D01*
X2325Y41305D01*
D01*
X2325Y41305D01*
X2325Y41305D01*
X2325D01*
X2325D01*
X2325Y41305D01*
X2325Y41305D01*
X2325Y41305D01*
X2492D01*
X2492Y41305D01*
X2492Y41305D01*
X2492Y41305D01*
X2492Y41305D01*
X2492Y41305D01*
X2492Y41305D01*
X2492Y41305D01*
X2492Y41305D01*
X2492Y41305D01*
X2503Y41306D01*
X2503Y41306D01*
X2503Y41306D01*
X2503Y41306D01*
D01*
X2503D01*
X2503Y41306D01*
X2503Y41306D01*
X2503Y41306D01*
X2503D01*
X2503Y41306D01*
X2503Y41306D01*
X2503Y41306D01*
X2503Y41306D01*
X2503Y41306D01*
X2503Y41306D01*
X2503Y41306D01*
X2503Y41306D01*
X2503Y41306D01*
X2514Y41310D01*
X2514Y41310D01*
X2514Y41310D01*
X2514Y41310D01*
X2514Y41310D01*
X2514Y41310D01*
X2514Y41310D01*
X2514Y41310D01*
X2514Y41310D01*
X2524Y41315D01*
X2524D01*
X2524Y41315D01*
X2524Y41315D01*
X2524Y41315D01*
D01*
X2524Y41315D01*
X2524Y41315D01*
X2524Y41315D01*
X2524Y41315D01*
X2524Y41315D01*
X2524Y41315D01*
X2524Y41315D01*
X2524Y41315D01*
X2524Y41315D01*
X2524Y41315D01*
X2524Y41315D01*
X2524Y41315D01*
X2524Y41315D01*
X2524Y41315D01*
X2532Y41322D01*
X2532Y41322D01*
X2532Y41322D01*
X2533Y41322D01*
X2533Y41322D01*
X2533Y41322D01*
X2539Y41330D01*
X2539Y41331D01*
X2540Y41331D01*
X2540Y41331D01*
X2540Y41331D01*
X2540Y41331D01*
X2540Y41331D01*
X2540Y41331D01*
Y41331D01*
X2540Y41331D01*
X2540Y41331D01*
X2540Y41331D01*
X2545Y41340D01*
X2545D01*
X2545Y41340D01*
X2545Y41340D01*
X2545Y41340D01*
X2545Y41340D01*
X2545Y41340D01*
X2545Y41340D01*
X2545Y41340D01*
Y41340D01*
X2545Y41340D01*
D01*
X2545Y41340D01*
Y41340D01*
Y41340D01*
X2545Y41340D01*
X2545Y41340D01*
X2545Y41341D01*
X2545Y41341D01*
X2545Y41341D01*
X2548Y41351D01*
X2548Y41351D01*
X2548Y41351D01*
X2548Y41351D01*
X2548Y41352D01*
X2548Y41352D01*
X2548Y41352D01*
X2549Y41363D01*
X2549D01*
X2549Y41363D01*
X2549Y41363D01*
X2549Y41363D01*
D01*
X2550Y41363D01*
X2550Y41363D01*
Y41363D01*
Y41363D01*
X2550Y41363D01*
X2550Y41363D01*
X2550Y41363D01*
Y41363D01*
Y41529D01*
Y41529D01*
X2550Y41529D01*
X2550Y41529D01*
X2550Y41529D01*
X2549Y41529D01*
X2549Y41529D01*
X2548Y41540D01*
Y41540D01*
X2548Y41541D01*
X2548Y41541D01*
X2548Y41541D01*
D01*
Y41541D01*
X2548Y41541D01*
X2548Y41541D01*
X2548Y41541D01*
Y41541D01*
X2548D01*
X2548Y41541D01*
X2548Y41541D01*
X2548Y41541D01*
X2548Y41541D01*
X2548Y41541D01*
X2548Y41541D01*
X2548Y41541D01*
X2548Y41541D01*
X2545Y41551D01*
Y41551D01*
X2545Y41551D01*
X2545Y41552D01*
X2545Y41552D01*
X2545Y41552D01*
X2545Y41552D01*
Y41552D01*
Y41552D01*
Y41552D01*
X2545Y41552D01*
X2545Y41552D01*
X2545Y41552D01*
X2545Y41552D01*
X2545Y41552D01*
X2545Y41552D01*
X2540Y41561D01*
X2540Y41561D01*
X2540D01*
X2540Y41561D01*
X2540Y41561D01*
X2540Y41562D01*
X2539Y41562D01*
X2539Y41562D01*
X2533Y41570D01*
Y41570D01*
X2533Y41570D01*
X2533Y41570D01*
X2532Y41570D01*
X2532Y41570D01*
X2532Y41570D01*
X2524Y41577D01*
Y41577D01*
X2524Y41577D01*
X2524Y41577D01*
X2524Y41577D01*
X2524Y41577D01*
X2524Y41577D01*
X2524Y41577D01*
X2524Y41577D01*
X2524Y41577D01*
X2524Y41577D01*
X2524Y41577D01*
X2524Y41577D01*
X2514Y41582D01*
X2514Y41582D01*
X2514D01*
X2514Y41582D01*
X2514Y41583D01*
X2514Y41583D01*
X2514Y41583D01*
X2514Y41583D01*
X2503Y41586D01*
Y41586D01*
X2503Y41586D01*
X2503Y41586D01*
X2503Y41586D01*
X2503Y41586D01*
X2503Y41586D01*
X2503D01*
X2503Y41586D01*
X2503Y41586D01*
X2503Y41586D01*
X2503Y41586D01*
X2503Y41586D01*
X2503Y41586D01*
X2503Y41586D01*
X2492Y41587D01*
X2492Y41587D01*
X2492D01*
X2492Y41587D01*
X2492Y41587D01*
X2492Y41587D01*
X2492Y41587D01*
D02*
G37*
%LPD*%
G36*
X2293Y41315D02*
X2293Y41315D01*
X2293Y41315D01*
X2293Y41315D01*
Y41315D01*
X2293Y41315D01*
D02*
G37*
G36*
X2325Y41305D02*
X2325D01*
X2325Y41305D01*
X2325Y41305D01*
X2325Y41305D01*
Y41305D01*
X2325Y41305D01*
D02*
G37*
G36*
X2550Y41363D02*
X2550Y41363D01*
X2550Y41363D01*
X2549Y41363D01*
X2549Y41363D01*
X2550Y41363D01*
Y41363D01*
D02*
G37*
G36*
X2548Y41352D02*
X2548Y41352D01*
X2548Y41352D01*
X2548Y41352D01*
D02*
G37*
%LPC*%
G36*
X15625Y54416D02*
X15624Y54416D01*
X15624Y54416D01*
X15624Y54416D01*
X15624Y54416D01*
X15624Y54416D01*
X15624Y54416D01*
X15624Y54416D01*
X15624Y54416D01*
X15624Y54416D01*
X15624Y54416D01*
X15624Y54416D01*
X15624D01*
X15625Y54416D01*
D02*
G37*
G36*
X17084Y54606D02*
Y54606D01*
X17084Y54606D01*
X17084Y54606D01*
X17084Y54606D01*
X17084Y54606D01*
X17084Y54606D01*
X17084Y54606D01*
D02*
G37*
G36*
X15590Y54228D02*
X15590Y54228D01*
X15590Y54228D01*
X15590Y54228D01*
X15590Y54228D01*
X15590D01*
X15590Y54228D01*
X15590Y54228D01*
D02*
G37*
G36*
X15590Y54228D02*
X15590Y54228D01*
Y54228D01*
X15590Y54228D01*
D02*
G37*
G36*
X17084Y54606D02*
X17084Y54606D01*
Y54606D01*
X17084Y54606D01*
Y54606D01*
X17084Y54606D01*
X17084Y54606D01*
X17084Y54606D01*
Y54606D01*
D02*
G37*
G36*
X15754Y54904D02*
X15754Y54904D01*
X15754Y54904D01*
X15755Y54904D01*
X15755Y54904D01*
X15755D01*
X15754Y54904D01*
X15754Y54904D01*
D02*
G37*
G36*
D02*
X15754D01*
X15754Y54904D01*
X15754Y54904D01*
X15754D01*
X15754Y54904D01*
D02*
G37*
G36*
X15699Y54778D02*
X15699Y54778D01*
X15699Y54778D01*
X15699Y54778D01*
X15699Y54778D01*
Y54778D01*
D02*
G37*
G36*
X15754Y54904D02*
X15754D01*
Y54904D01*
X15754Y54904D01*
D02*
G37*
G36*
X17092Y53343D02*
X17092Y53343D01*
X17092Y53343D01*
X17092Y53343D01*
X17092Y53343D01*
X17092Y53343D01*
X17092Y53343D01*
X17092Y53343D01*
X17092Y53343D01*
X17092Y53343D01*
X17092Y53343D01*
X17092Y53343D01*
D02*
G37*
G36*
X17273Y53593D02*
X17273Y53593D01*
X17273Y53593D01*
X17273Y53593D01*
Y53593D01*
X17273Y53593D01*
X17273Y53593D01*
X17273Y53593D01*
X17273Y53593D01*
X17273Y53593D01*
X17273Y53593D01*
Y53593D01*
X17273D01*
X17273Y53593D01*
X17273Y53593D01*
X17273Y53593D01*
X17273Y53593D01*
X17273Y53593D01*
X17273Y53593D01*
X17273Y53593D01*
D02*
G37*
G36*
X17187Y54063D02*
X17187Y54063D01*
X17187Y54063D01*
X17187Y54063D01*
Y54063D01*
X17187Y54063D01*
X17187Y54063D01*
D02*
G37*
G36*
X17117Y53376D02*
X17117Y53376D01*
X17117D01*
X17117Y53376D01*
D02*
G37*
G36*
X16676Y53541D02*
X16676Y53541D01*
Y53541D01*
X16676Y53541D01*
X16676Y53541D01*
D02*
G37*
G36*
X3366Y41310D02*
X3366D01*
X3366Y41310D01*
X3366Y41310D01*
D02*
G37*
G36*
X3200Y41582D02*
X3200Y41582D01*
X3200D01*
X3190Y41581D01*
X3180Y41578D01*
X3171Y41573D01*
X3163Y41566D01*
X3156Y41559D01*
X3152Y41550D01*
X3149Y41540D01*
X3147Y41529D01*
Y41363D01*
X3149Y41352D01*
X3152Y41343D01*
X3156Y41334D01*
X3163Y41326D01*
X3171Y41319D01*
X3180Y41315D01*
X3190Y41311D01*
X3200Y41310D01*
X3366D01*
X3377Y41311D01*
X3387Y41315D01*
X3396Y41319D01*
X3403Y41326D01*
X3410Y41334D01*
X3415Y41343D01*
X3418Y41352D01*
X3419Y41363D01*
Y41529D01*
X3418Y41540D01*
X3415Y41550D01*
X3410Y41559D01*
X3403Y41566D01*
X3396Y41573D01*
X3387Y41578D01*
X3377Y41581D01*
X3366Y41582D01*
X3200D01*
X3200Y41582D01*
D02*
G37*
G36*
X3147Y41363D02*
X3147Y41363D01*
Y41363D01*
X3147Y41363D01*
D02*
G37*
G36*
X3419Y41529D02*
Y41529D01*
X3419Y41529D01*
X3419Y41529D01*
D02*
G37*
G36*
X6948Y41582D02*
X6948Y41582D01*
X6948D01*
X6938Y41581D01*
X6928Y41578D01*
X6919Y41573D01*
X6911Y41566D01*
X6904Y41559D01*
X6900Y41550D01*
X6896Y41540D01*
X6895Y41529D01*
Y41474D01*
X6896Y41463D01*
X6900Y41453D01*
X6904Y41444D01*
X6911Y41437D01*
X6919Y41430D01*
X6928Y41425D01*
X6938Y41422D01*
X6948Y41421D01*
X7167D01*
Y41582D01*
X6948D01*
X6948Y41582D01*
D02*
G37*
G36*
X6895Y41474D02*
X6895Y41474D01*
Y41474D01*
X6895Y41474D01*
D02*
G37*
G36*
X6021Y41363D02*
X6021Y41363D01*
Y41363D01*
X6021Y41363D01*
D02*
G37*
G36*
X6074Y41443D02*
X6073Y41443D01*
X6074D01*
X6063Y41442D01*
X6053Y41439D01*
X6044Y41434D01*
X6036Y41428D01*
X6030Y41420D01*
X6025Y41411D01*
X6022Y41401D01*
X6021Y41391D01*
Y41363D01*
X6022Y41352D01*
X6025Y41343D01*
X6030Y41334D01*
X6036Y41326D01*
X6044Y41319D01*
X6053Y41315D01*
X6063Y41311D01*
X6074Y41310D01*
X6292D01*
Y41443D01*
X6074D01*
X6074Y41443D01*
D02*
G37*
G36*
X1146Y41697D02*
X1146Y41697D01*
X1146Y41697D01*
X1146Y41697D01*
X1146Y41697D01*
X1146Y41697D01*
X1146Y41697D01*
X1146Y41697D01*
X1146Y41697D01*
X1146Y41697D01*
D02*
G37*
G36*
X1146Y41697D02*
Y41697D01*
X1146Y41697D01*
X1146Y41697D01*
X1146Y41697D01*
D02*
G37*
G36*
X1115Y41728D02*
X1115Y41728D01*
Y41728D01*
X1115Y41728D01*
D02*
G37*
G36*
X1209Y41709D02*
X1209Y41709D01*
X1209Y41709D01*
X1209Y41709D01*
D02*
G37*
G36*
X1120Y41718D02*
Y41718D01*
X1120Y41718D01*
X1120Y41718D01*
X1120Y41718D01*
X1120Y41718D01*
X1120Y41718D01*
X1120Y41718D01*
X1120Y41718D01*
D02*
G37*
G36*
X11506Y45086D02*
X10069D01*
X9973Y45076D01*
X9883Y45048D01*
X9802Y45004D01*
X9731Y44945D01*
X9672Y44874D01*
X9628Y44793D01*
X9600Y44703D01*
X9590Y44607D01*
Y43170D01*
X9600Y43074D01*
X9628Y42984D01*
X9672Y42903D01*
X9731Y42832D01*
X9802Y42773D01*
X9883Y42729D01*
X9973Y42701D01*
X10069Y42691D01*
X11506D01*
X11602Y42701D01*
X11692Y42729D01*
X11773Y42773D01*
X11844Y42832D01*
X11903Y42903D01*
X11947Y42984D01*
X11975Y43074D01*
X11985Y43170D01*
Y44607D01*
X11975Y44703D01*
X11947Y44793D01*
X11903Y44874D01*
X11844Y44945D01*
X11773Y45004D01*
X11692Y45048D01*
X11602Y45076D01*
X11506Y45086D01*
D02*
G37*
G36*
X14029Y41310D02*
X14029D01*
X14029Y41310D01*
X14029Y41310D01*
D02*
G37*
G36*
X13810Y41363D02*
X13810Y41363D01*
Y41363D01*
X13810Y41363D01*
D02*
G37*
G36*
X13863Y41582D02*
X13863Y41582D01*
X13863D01*
X13852Y41581D01*
X13842Y41578D01*
X13833Y41573D01*
X13826Y41566D01*
X13819Y41559D01*
X13814Y41550D01*
X13811Y41540D01*
X13810Y41529D01*
Y41363D01*
X13811Y41352D01*
X13814Y41343D01*
X13819Y41334D01*
X13826Y41326D01*
X13833Y41319D01*
X13842Y41315D01*
X13852Y41311D01*
X13863Y41310D01*
X14029D01*
X14039Y41311D01*
X14049Y41315D01*
X14058Y41319D01*
X14066Y41326D01*
X14072Y41334D01*
X14077Y41343D01*
X14080Y41352D01*
X14082Y41363D01*
Y41529D01*
X14080Y41540D01*
X14077Y41550D01*
X14072Y41559D01*
X14066Y41566D01*
X14058Y41573D01*
X14049Y41578D01*
X14039Y41581D01*
X14029Y41582D01*
X13863D01*
X13863Y41582D01*
D02*
G37*
G36*
X14082Y41529D02*
Y41529D01*
X14082Y41529D01*
X14082Y41529D01*
D02*
G37*
G36*
X14511Y41582D02*
X14510Y41582D01*
X14511D01*
X14500Y41581D01*
X14490Y41578D01*
X14481Y41573D01*
X14473Y41566D01*
X14467Y41559D01*
X14462Y41550D01*
X14459Y41540D01*
X14458Y41529D01*
Y41474D01*
X14459Y41463D01*
X14462Y41453D01*
X14467Y41444D01*
X14473Y41437D01*
X14481Y41430D01*
X14490Y41425D01*
X14500Y41422D01*
X14511Y41421D01*
X14729D01*
Y41582D01*
X14511D01*
X14511Y41582D01*
D02*
G37*
G36*
X14458Y41474D02*
X14458Y41474D01*
Y41474D01*
X14458Y41474D01*
D02*
G37*
%LPD*%
D65*
X57300Y-2000D02*
G03*
X57300Y-2000I-50J0D01*
G01*
X1800Y19000D02*
G03*
X1800Y19000I-50J0D01*
G01*
X800D02*
G03*
X800Y19000I-50J0D01*
G01*
X2550Y18250D02*
G03*
X2550Y18250I-50J0D01*
G01*
X-1200Y16050D02*
Y17150D01*
Y21350D02*
Y22450D01*
X-3400D02*
X-2650D01*
X-3400Y16000D02*
Y22450D01*
Y16000D02*
X-2650D01*
X56550Y-2200D02*
X56850D01*
X56550Y-2400D02*
Y-2200D01*
Y-3300D02*
Y-3050D01*
Y-3300D02*
X56850D01*
X1050Y17700D02*
X1350D01*
X1050D02*
Y17950D01*
Y18600D02*
Y18800D01*
X1350D01*
X1150Y19200D02*
X1450D01*
Y19400D01*
Y20050D02*
Y20300D01*
X1150D02*
X1450D01*
X2900Y18450D02*
X3200D01*
Y18650D01*
Y19300D02*
Y19550D01*
X2900D02*
X3200D01*
X29700Y1200D02*
Y1800D01*
X29400D01*
X29300Y1700D01*
Y1500D01*
X29400Y1400D01*
X29700D01*
X29500D02*
X29300Y1200D01*
X29100D02*
X28900D01*
X29000D01*
Y1800D01*
X29100Y1700D01*
X28300Y1200D02*
Y1800D01*
X28600Y1500D01*
X28200D01*
X27601Y1200D02*
X28001D01*
X27601Y1600D01*
Y1700D01*
X27701Y1800D01*
X27901D01*
X28001Y1700D01*
X20500Y23050D02*
X20100D01*
X20300D01*
Y22450D01*
X19901D02*
Y23050D01*
X19601D01*
X19501Y22950D01*
Y22750D01*
X19601Y22650D01*
X19901D01*
X19301Y22450D02*
X19101D01*
X19201D01*
Y23050D01*
X19301Y22950D01*
X23650Y15900D02*
X23250D01*
X23450D01*
Y15300D01*
X23051D02*
Y15900D01*
X22751D01*
X22651Y15800D01*
Y15600D01*
X22751Y15500D01*
X23051D01*
X22051Y15300D02*
X22451D01*
X22051Y15700D01*
Y15800D01*
X22151Y15900D01*
X22351D01*
X22451Y15800D01*
X13000Y12150D02*
X12600D01*
X12800D01*
Y11550D01*
X12400D02*
Y12150D01*
X12100D01*
X12000Y12050D01*
Y11850D01*
X12100Y11750D01*
X12400D01*
X11800Y12050D02*
X11700Y12150D01*
X11500D01*
X11401Y12050D01*
Y11950D01*
X11500Y11850D01*
X11600D01*
X11500D01*
X11401Y11750D01*
Y11650D01*
X11500Y11550D01*
X11700D01*
X11800Y11650D01*
X12300Y23050D02*
X11900D01*
X12100D01*
Y22450D01*
X11701D02*
Y23050D01*
X11401D01*
X11301Y22950D01*
Y22750D01*
X11401Y22650D01*
X11701D01*
X10801Y22450D02*
Y23050D01*
X11101Y22750D01*
X10701D01*
X35300Y23100D02*
X34900D01*
X35100D01*
Y22500D01*
X34700D02*
Y23100D01*
X34400D01*
X34300Y23000D01*
Y22800D01*
X34400Y22700D01*
X34700D01*
X33701Y23100D02*
X34100D01*
Y22800D01*
X33900Y22900D01*
X33800D01*
X33701Y22800D01*
Y22600D01*
X33800Y22500D01*
X34000D01*
X34100Y22600D01*
X42650Y34950D02*
X42250D01*
X42450D01*
Y34350D01*
X42050D02*
Y34950D01*
X41750D01*
X41650Y34850D01*
Y34650D01*
X41750Y34550D01*
X42050D01*
X41051Y34950D02*
X41250Y34850D01*
X41450Y34650D01*
Y34450D01*
X41350Y34350D01*
X41150D01*
X41051Y34450D01*
Y34550D01*
X41150Y34650D01*
X41450D01*
X67445Y21685D02*
X67045D01*
X67245D01*
Y21085D01*
X66845D02*
Y21685D01*
X66545D01*
X66445Y21585D01*
Y21385D01*
X66545Y21285D01*
X66845D01*
X66245Y21685D02*
X65846D01*
Y21585D01*
X66245Y21185D01*
Y21085D01*
X48950Y10900D02*
X48550D01*
X48750D01*
Y10300D01*
X48350D02*
Y10900D01*
X48050D01*
X47950Y10800D01*
Y10600D01*
X48050Y10500D01*
X48350D01*
X47750Y10800D02*
X47650Y10900D01*
X47450D01*
X47351Y10800D01*
Y10700D01*
X47450Y10600D01*
X47351Y10500D01*
Y10400D01*
X47450Y10300D01*
X47650D01*
X47750Y10400D01*
Y10500D01*
X47650Y10600D01*
X47750Y10700D01*
Y10800D01*
X47650Y10600D02*
X47450D01*
X54900Y10850D02*
X54500D01*
X54700D01*
Y10250D01*
X54300D02*
Y10850D01*
X54000D01*
X53900Y10750D01*
Y10550D01*
X54000Y10450D01*
X54300D01*
X53700Y10350D02*
X53600Y10250D01*
X53400D01*
X53301Y10350D01*
Y10750D01*
X53400Y10850D01*
X53600D01*
X53700Y10750D01*
Y10650D01*
X53600Y10550D01*
X53301D01*
X43445Y49685D02*
X43045D01*
X43245D01*
Y49085D01*
X42845D02*
Y49685D01*
X42545D01*
X42445Y49585D01*
Y49385D01*
X42545Y49285D01*
X42845D01*
X42245Y49085D02*
X42045D01*
X42145D01*
Y49685D01*
X42245Y49585D01*
X41746D02*
X41646Y49685D01*
X41446D01*
X41346Y49585D01*
Y49185D01*
X41446Y49085D01*
X41646D01*
X41746Y49185D01*
Y49585D01*
X42650Y38700D02*
X42250D01*
X42450D01*
Y38100D01*
X42050D02*
Y38700D01*
X41750D01*
X41650Y38600D01*
Y38400D01*
X41750Y38300D01*
X42050D01*
X41450Y38100D02*
X41250D01*
X41350D01*
Y38700D01*
X41450Y38600D01*
X40951Y38100D02*
X40751D01*
X40851D01*
Y38700D01*
X40951Y38600D01*
X43445Y55185D02*
X43045D01*
X43245D01*
Y54585D01*
X42845D02*
Y55185D01*
X42545D01*
X42445Y55085D01*
Y54885D01*
X42545Y54785D01*
X42845D01*
X42245Y54585D02*
X42045D01*
X42145D01*
Y55185D01*
X42245Y55085D01*
X41346Y54585D02*
X41746D01*
X41346Y54985D01*
Y55085D01*
X41446Y55185D01*
X41646D01*
X41746Y55085D01*
X50445Y55185D02*
X50045D01*
X50245D01*
Y54585D01*
X49845D02*
Y55185D01*
X49545D01*
X49445Y55085D01*
Y54885D01*
X49545Y54785D01*
X49845D01*
X49245Y54585D02*
X49045D01*
X49145D01*
Y55185D01*
X49245Y55085D01*
X48746D02*
X48646Y55185D01*
X48446D01*
X48346Y55085D01*
Y54985D01*
X48446Y54885D01*
X48546D01*
X48446D01*
X48346Y54785D01*
Y54685D01*
X48446Y54585D01*
X48646D01*
X48746Y54685D01*
X3800Y5850D02*
X3400D01*
X3600D01*
Y5250D01*
X3200D02*
Y5850D01*
X2900D01*
X2800Y5750D01*
Y5550D01*
X2900Y5450D01*
X3200D01*
X2600Y5250D02*
X2400D01*
X2500D01*
Y5850D01*
X2600Y5750D01*
X1801Y5250D02*
Y5850D01*
X2101Y5550D01*
X1701D01*
X7450Y23650D02*
X7050D01*
X7250D01*
Y23050D01*
X6850D02*
Y23650D01*
X6550D01*
X6450Y23550D01*
Y23350D01*
X6550Y23250D01*
X6850D01*
X6250Y23050D02*
X6050D01*
X6150D01*
Y23650D01*
X6250Y23550D01*
X5351Y23650D02*
X5751D01*
Y23350D01*
X5551Y23450D01*
X5451D01*
X5351Y23350D01*
Y23150D01*
X5451Y23050D01*
X5651D01*
X5751Y23150D01*
X30350Y51300D02*
Y50900D01*
Y51100D01*
X30950D01*
Y50700D02*
X30350D01*
Y50400D01*
X30450Y50300D01*
X30650D01*
X30750Y50400D01*
Y50700D01*
X30950Y50100D02*
Y49900D01*
Y50000D01*
X30350D01*
X30450Y50100D01*
X30350Y49201D02*
X30450Y49401D01*
X30650Y49601D01*
X30850D01*
X30950Y49501D01*
Y49301D01*
X30850Y49201D01*
X30750D01*
X30650Y49301D01*
Y49601D01*
X34250Y49800D02*
X33850D01*
X34050D01*
Y49200D01*
X33650D02*
Y49800D01*
X33350D01*
X33250Y49700D01*
Y49500D01*
X33350Y49400D01*
X33650D01*
X33050Y49200D02*
X32850D01*
X32950D01*
Y49800D01*
X33050Y49700D01*
X32551Y49800D02*
X32151D01*
Y49700D01*
X32551Y49300D01*
Y49200D01*
X37100Y52700D02*
X36700D01*
X36900D01*
Y52100D01*
X36500D02*
Y52700D01*
X36200D01*
X36100Y52600D01*
Y52400D01*
X36200Y52300D01*
X36500D01*
X35900Y52100D02*
X35700D01*
X35800D01*
Y52700D01*
X35900Y52600D01*
X35401D02*
X35301Y52700D01*
X35101D01*
X35001Y52600D01*
Y52500D01*
X35101Y52400D01*
X35001Y52300D01*
Y52200D01*
X35101Y52100D01*
X35301D01*
X35401Y52200D01*
Y52300D01*
X35301Y52400D01*
X35401Y52500D01*
Y52600D01*
X35301Y52400D02*
X35101D01*
X33600Y24600D02*
X33200D01*
X33400D01*
Y24000D01*
X33000D02*
Y24600D01*
X32700D01*
X32600Y24500D01*
Y24300D01*
X32700Y24200D01*
X33000D01*
X32001Y24000D02*
X32400D01*
X32001Y24400D01*
Y24500D01*
X32100Y24600D01*
X32300D01*
X32400Y24500D01*
X31801D02*
X31701Y24600D01*
X31501D01*
X31401Y24500D01*
Y24100D01*
X31501Y24000D01*
X31701D01*
X31801Y24100D01*
Y24500D01*
X55945Y22935D02*
X55545D01*
X55745D01*
Y22335D01*
X55345D02*
Y22935D01*
X55045D01*
X54945Y22835D01*
Y22635D01*
X55045Y22535D01*
X55345D01*
X54346Y22335D02*
X54745D01*
X54346Y22735D01*
Y22835D01*
X54445Y22935D01*
X54645D01*
X54745Y22835D01*
X54146Y22335D02*
X53946D01*
X54046D01*
Y22935D01*
X54146Y22835D01*
X55200Y6500D02*
Y6000D01*
X55100Y5900D01*
X54900D01*
X54800Y6000D01*
Y6500D01*
X54600Y5900D02*
X54400D01*
X54500D01*
Y6500D01*
X54600Y6400D01*
X54100D02*
X54000Y6500D01*
X53800D01*
X53700Y6400D01*
Y6000D01*
X53800Y5900D01*
X54000D01*
X54100Y6000D01*
Y6400D01*
X52850Y6500D02*
Y6000D01*
X52750Y5900D01*
X52550D01*
X52450Y6000D01*
Y6500D01*
X51850D02*
X52250D01*
Y6200D01*
X52050Y6300D01*
X51950D01*
X51850Y6200D01*
Y6000D01*
X51950Y5900D01*
X52150D01*
X52250Y6000D01*
X51650Y6400D02*
X51550Y6500D01*
X51350D01*
X51251Y6400D01*
Y6300D01*
X51350Y6200D01*
X51450D01*
X51350D01*
X51251Y6100D01*
Y6000D01*
X51350Y5900D01*
X51550D01*
X51650Y6000D01*
X42500Y-2750D02*
Y-3250D01*
X42400Y-3350D01*
X42200D01*
X42100Y-3250D01*
Y-2750D01*
X41500D02*
X41900D01*
Y-3050D01*
X41700Y-2950D01*
X41600D01*
X41500Y-3050D01*
Y-3250D01*
X41600Y-3350D01*
X41800D01*
X41900Y-3250D01*
X41000Y-3350D02*
Y-2750D01*
X41300Y-3050D01*
X40901D01*
D70*
X402Y30717D02*
X598D01*
X402Y30283D02*
X598D01*
X402Y30933D02*
X598D01*
X402Y31367D02*
X598D01*
X461Y32746D02*
X539D01*
X461Y32254D02*
X539D01*
X29152Y967D02*
X29348D01*
X29152Y533D02*
X29348D01*
X32461Y16996D02*
X32539D01*
X32461Y16504D02*
X32539D01*
X31711Y18746D02*
X31789D01*
X31711Y18254D02*
X31789D01*
X30711Y16996D02*
X30789D01*
X30711Y16504D02*
X30789D01*
X28911D02*
X28989D01*
X28911Y16996D02*
X28989D01*
X28461Y18254D02*
X28539D01*
X28461Y18746D02*
X28539D01*
X36435Y32112D02*
Y32388D01*
X37065Y32112D02*
Y32388D01*
X36461Y31246D02*
X36539D01*
X36461Y30754D02*
X36539D01*
X36461Y33746D02*
X36539D01*
X36461Y33254D02*
X36539D01*
X27996Y33461D02*
Y33539D01*
X27504Y33461D02*
Y33539D01*
X15152Y1467D02*
X15348D01*
X15152Y1033D02*
X15348D01*
X27211Y16996D02*
X27289D01*
X27211Y16504D02*
X27289D01*
X5596Y25711D02*
Y25789D01*
X5104Y25711D02*
Y25789D01*
X5596Y28711D02*
Y28789D01*
X5104Y28711D02*
Y28789D01*
X49467Y13152D02*
Y13348D01*
X49033Y13152D02*
Y13348D01*
X51467Y13152D02*
Y13348D01*
X51033Y13152D02*
Y13348D01*
X8754Y9461D02*
Y9539D01*
X9246Y9461D02*
Y9539D01*
X58652Y-3467D02*
X58848D01*
X58652Y-3033D02*
X58848D01*
X27504Y35461D02*
Y35539D01*
X27996Y35461D02*
Y35539D01*
X28946Y38661D02*
Y38739D01*
X28454Y38661D02*
Y38739D01*
X26461Y29204D02*
X26539D01*
X26461Y29696D02*
X26539D01*
X29961Y37254D02*
X30039D01*
X29961Y37746D02*
X30039D01*
X31711D02*
X31789D01*
X31711Y37254D02*
X31789D01*
X33761D02*
X33839D01*
X33761Y37746D02*
X33839D01*
X34004Y36211D02*
Y36289D01*
X34496Y36211D02*
Y36289D01*
X34004Y33711D02*
Y33789D01*
X34496Y33711D02*
Y33789D01*
X35161Y35246D02*
X35239D01*
X35161Y34754D02*
X35239D01*
X34004Y32011D02*
Y32089D01*
X34496Y32011D02*
Y32089D01*
X34254Y30011D02*
Y30089D01*
X34746Y30011D02*
Y30089D01*
X31711Y30754D02*
X31789D01*
X31711Y31246D02*
X31789D01*
X29711D02*
X29789D01*
X29711Y30754D02*
X29789D01*
X27504Y30961D02*
Y31039D01*
X27996Y30961D02*
Y31039D01*
X12461Y28996D02*
X12539D01*
X12461Y28504D02*
X12539D01*
X33087Y29978D02*
Y30175D01*
X32654Y29978D02*
Y30175D01*
X33874Y29978D02*
Y30175D01*
X33441Y29978D02*
Y30175D01*
X36867Y36052D02*
Y36248D01*
X36433Y36052D02*
Y36248D01*
X58652Y-2033D02*
X58848D01*
X58652Y-2467D02*
X58848D01*
X36854Y40268D02*
Y43732D01*
X36146Y40268D02*
Y43732D01*
X36854D01*
X36146Y40268D02*
X36854D01*
X52984Y3646D02*
Y4354D01*
X51016Y3646D02*
Y4354D01*
Y3646D02*
X52984D01*
X51016Y4354D02*
X52984D01*
X55484Y3646D02*
Y4354D01*
X53516Y3646D02*
Y4354D01*
Y3646D02*
X55484D01*
X53516Y4354D02*
X55484D01*
X44396Y-2016D02*
X45104D01*
X44396Y-3984D02*
X45104D01*
Y-2016D01*
X44396Y-3984D02*
Y-2016D01*
D134*
X37494Y43835D02*
G03*
X37494Y43835I-49J0D01*
G01*
X50965Y4945D02*
G03*
X50965Y4945I-49J0D01*
G01*
X53465D02*
G03*
X53465Y4945I-49J0D01*
G01*
X43854Y-4085D02*
G03*
X43854Y-4085I-49J0D01*
G01*
D135*
X12703Y42210D02*
X16535Y42212D01*
X5110Y45565D02*
X7505D01*
X1000D02*
X4352D01*
X1000Y45086D02*
X2437D01*
X13661Y42691D02*
X16056D01*
X8185Y45275D02*
X8301Y45134D01*
X12182Y45283D02*
X12300Y45142D01*
X16976Y53440D02*
X17070Y53542D01*
X1030Y41565D02*
X1307Y41252D01*
X1058Y41751D02*
X1113D01*
X1090Y41673D02*
X1106Y41659D01*
X1030Y41640D02*
X1307Y41333D01*
X1833Y41585D02*
X2110D01*
X1833Y41640D02*
X2165D01*
X2916Y45086D02*
X4352D01*
X2437Y42212D02*
X2916D01*
X2652Y41640D02*
X2929D01*
X2652Y41252D02*
X2707D01*
X4198Y41446D02*
X4346Y41334D01*
X4291Y41640D02*
X4346D01*
X4198Y41446D02*
X4346Y41557D01*
X4291Y41252D02*
X4346D01*
X5016Y41585D02*
X5182D01*
X4795Y41640D02*
X5182D01*
X5589Y45086D02*
X7505D01*
X7984Y42212D02*
X8463D01*
X5852Y41640D02*
X5907D01*
X5852Y41252D02*
X5907D01*
X6461Y41474D02*
X6738D01*
X6461Y41418D02*
X6738D01*
X7325Y41474D02*
X7601D01*
X7325Y41418D02*
X7601D01*
X7269Y41308D02*
X7601D01*
X7269Y41640D02*
X7657D01*
X7269Y41585D02*
X7601D01*
X7269Y41252D02*
X7657D01*
X8194Y41363D02*
X8471D01*
X8194Y41418D02*
X8471D01*
X8249Y41640D02*
X8415D01*
X8249Y41585D02*
X8415D01*
X10069Y45565D02*
X11506D01*
X9882Y45545D02*
X10069Y45565D01*
Y45086D02*
X11506D01*
X9883Y45048D02*
X9973Y45076D01*
X10069Y42212D02*
X11506D01*
X10069Y42691D02*
X11506D01*
X9877Y42232D02*
X10069Y42212D01*
X9883Y42729D02*
X9973Y42701D01*
X11497Y41261D02*
X11516Y41271D01*
X10663Y41640D02*
X10718D01*
X10663Y41252D02*
X10718D01*
X11494Y41324D02*
X11500Y41332D01*
X11494Y41568D02*
X11500Y41560D01*
X11477Y41637D02*
X11498Y41630D01*
X11485Y41317D02*
X11494Y41324D01*
X11485Y41575D02*
X11494Y41568D01*
X11476Y41255D02*
X11497Y41261D01*
X12703Y42691D02*
X13182D01*
X12184Y42492D02*
X12301Y42634D01*
X12102Y41447D02*
X12324D01*
X12102Y41391D02*
X12324D01*
X12899Y41640D02*
X13287D01*
X13066Y41252D02*
X13121D01*
X14510Y41363D02*
X14732D01*
X14510Y41418D02*
X14732D01*
X14510Y41640D02*
X14787D01*
X14510Y41585D02*
X14732D01*
X16141Y55394D02*
X16395Y55420D01*
X15352Y54865D02*
X15505Y55051D01*
X16235Y54801D02*
X16395Y54812D01*
X15379Y53419D02*
X15505Y53273D01*
X16056Y45565D02*
X16535D01*
X15286Y41474D02*
X15562D01*
X15286Y41418D02*
X15562D01*
X16193Y41308D02*
X16470D01*
X16138Y41252D02*
X16526D01*
X16885Y55321D02*
X17098Y55205D01*
X17036Y54901D02*
X17056Y54898D01*
X17016Y53748D02*
X17090Y53827D01*
X16973Y53044D02*
X17138Y53147D01*
X16996Y53276D02*
X17052Y53308D01*
X2437Y42212D02*
Y45086D01*
X2916Y42212D02*
Y45086D01*
X5110Y42212D02*
Y45565D01*
X5589Y42212D02*
Y45086D01*
X7984Y42212D02*
Y44607D01*
X8463Y42212D02*
Y44607D01*
X13182Y42691D02*
Y45565D01*
X13661Y42691D02*
Y45565D01*
X16056Y42691D02*
Y45565D01*
X16535Y42212D02*
Y45565D01*
X1000Y45086D02*
Y45565D01*
X4352Y45086D02*
Y45565D01*
X9281Y45139D02*
X9400Y45282D01*
X9111Y43170D02*
Y44607D01*
X9590Y43170D02*
Y44607D01*
X9187Y42798D02*
X9275Y42636D01*
X9802Y42773D02*
X9883Y42729D01*
X11985Y43170D02*
Y44607D01*
X11692Y42729D02*
X11773Y42773D01*
X12464Y43170D02*
Y44607D01*
X12301Y42634D02*
X12389Y42796D01*
X15277Y53584D02*
X15379Y53419D01*
X15137Y54162D02*
X15162Y54415D01*
X15505Y55051D02*
X15691Y55205D01*
X15592Y54228D02*
X15627Y54415D01*
X16088Y53454D02*
X16107Y53520D01*
X16674Y53540D02*
X16704Y53438D01*
X17410Y53419D02*
X17512Y53584D01*
X17098Y55205D02*
X17284Y55051D01*
X17163Y54415D02*
X17198Y54228D01*
X17627Y54415D02*
X17653Y54162D01*
X17132Y53411D02*
X17178Y53501D01*
X975Y41252D02*
Y41640D01*
X1030Y41252D02*
Y41565D01*
X975Y41640D02*
X1030D01*
X1058Y41751D02*
X1060Y41729D01*
X1066Y41709D01*
X1076Y41690D01*
X1090Y41673D01*
X975Y41252D02*
X1030D01*
X1473Y41565D02*
X1750Y41252D01*
X1473Y41640D02*
X1750Y41333D01*
X1362Y41252D02*
Y41640D01*
X1417Y41252D02*
Y41640D01*
X1473Y41252D02*
Y41565D01*
X1805Y41252D02*
Y41640D01*
X1417D02*
X1473D01*
X1106Y41659D02*
X1125Y41649D01*
X1146Y41642D01*
X1168Y41640D01*
X1190Y41642D01*
X1211Y41648D01*
X1229Y41658D01*
X1246Y41672D01*
X1259Y41688D01*
X1270Y41707D01*
X1276Y41728D01*
X1279Y41751D01*
X1224D02*
X1279D01*
X1223Y41739D02*
X1224Y41751D01*
X1219Y41729D02*
X1223Y41739D01*
X1214Y41720D02*
X1219Y41729D01*
X1207Y41711D02*
X1214Y41720D01*
X1199Y41705D02*
X1207Y41711D01*
X1190Y41700D02*
X1199Y41705D01*
X1179Y41696D02*
X1190Y41700D01*
X1168Y41695D02*
X1179Y41696D01*
X1157D02*
X1168Y41695D01*
X1147Y41700D02*
X1157Y41696D01*
X1137Y41705D02*
X1147Y41700D01*
X1129Y41711D02*
X1137Y41705D01*
X1122Y41720D02*
X1129Y41711D01*
X1117Y41729D02*
X1122Y41720D01*
X1114Y41739D02*
X1117Y41729D01*
X1113Y41751D02*
X1114Y41739D01*
X1307Y41333D02*
Y41640D01*
X1362D01*
X1417Y41252D02*
X1473D01*
X1307D02*
X1362D01*
X1750Y41640D02*
X1805D01*
X1833Y41585D02*
Y41640D01*
X1750Y41333D02*
Y41640D01*
Y41252D02*
X1805D01*
X2325Y41308D02*
X2492D01*
X2325Y41640D02*
X2492D01*
X2325Y41585D02*
X2492D01*
X2325Y41252D02*
X2492D01*
X2264Y41271D02*
X2282Y41261D01*
X2165Y41252D02*
Y41640D01*
X2110Y41252D02*
Y41585D01*
X2535Y41261D02*
X2554Y41271D01*
X2652Y41252D02*
Y41640D01*
X2215Y41363D02*
X2217Y41341D01*
X2223Y41320D01*
X2234Y41301D01*
X2247Y41285D01*
X2264Y41271D01*
X2314Y41309D02*
X2325Y41308D01*
X2304Y41312D02*
X2314Y41309D01*
X2295Y41317D02*
X2304Y41312D01*
X2286Y41324D02*
X2295Y41317D01*
X2280Y41332D02*
X2286Y41324D01*
X2274Y41342D02*
X2280Y41332D01*
X2271Y41352D02*
X2274Y41342D01*
X2270Y41363D02*
X2271Y41352D01*
X2304Y41638D02*
X2325Y41640D01*
X2283Y41631D02*
X2304Y41638D01*
X2265Y41621D02*
X2283Y41631D01*
X2248Y41607D02*
X2265Y41621D01*
X2234Y41591D02*
X2248Y41607D01*
X2224Y41572D02*
X2234Y41591D01*
X2217Y41551D02*
X2224Y41572D01*
X2215Y41529D02*
X2217Y41551D01*
X2270Y41529D02*
X2271Y41540D01*
X2274Y41551D01*
X2280Y41560D01*
X2286Y41568D01*
X2295Y41575D01*
X2304Y41580D01*
X2314Y41583D01*
X2325Y41585D01*
X2215Y41363D02*
Y41529D01*
X2270Y41363D02*
Y41529D01*
X2282Y41261D02*
X2303Y41255D01*
X2325Y41252D01*
X2110D02*
X2165D01*
X2554Y41271D02*
X2570Y41285D01*
X2583Y41301D01*
X2594Y41320D01*
X2600Y41341D01*
X2602Y41363D01*
X2546Y41352D02*
X2547Y41363D01*
X2542Y41342D02*
X2546Y41352D01*
X2537Y41332D02*
X2542Y41342D01*
X2531Y41324D02*
X2537Y41332D01*
X2522Y41317D02*
X2531Y41324D01*
X2513Y41312D02*
X2522Y41317D01*
X2503Y41309D02*
X2513Y41312D01*
X2492Y41308D02*
X2503Y41309D01*
X2600Y41551D02*
X2602Y41529D01*
X2593Y41572D02*
X2600Y41551D01*
X2583Y41591D02*
X2593Y41572D01*
X2570Y41607D02*
X2583Y41591D01*
X2553Y41621D02*
X2570Y41607D01*
X2535Y41631D02*
X2553Y41621D01*
X2514Y41638D02*
X2535Y41631D01*
X2492Y41640D02*
X2514Y41638D01*
X2492Y41585D02*
X2503Y41583D01*
X2513Y41580D01*
X2522Y41575D01*
X2531Y41568D01*
X2537Y41560D01*
X2542Y41551D01*
X2546Y41540D01*
X2547Y41529D01*
X2602Y41363D02*
Y41529D01*
X2547Y41363D02*
Y41529D01*
X2492Y41252D02*
X2514Y41255D01*
X2535Y41261D01*
X3138Y41271D02*
X3157Y41261D01*
X3146Y41352D02*
X3149Y41342D01*
X3145Y41363D02*
X3146Y41352D01*
X3139Y41621D02*
X3158Y41631D01*
X3145Y41529D02*
X3146Y41540D01*
X3149Y41551D01*
X3145Y41363D02*
Y41529D01*
X2984Y41252D02*
Y41529D01*
X3040Y41252D02*
Y41529D01*
X2707Y41252D02*
Y41585D01*
X3409Y41261D02*
X3428Y41271D01*
X3089Y41363D02*
X3092Y41341D01*
X3098Y41320D01*
X3108Y41301D01*
X3122Y41285D01*
X3138Y41271D01*
X2960Y41575D02*
X2968Y41568D01*
X2975Y41560D01*
X2980Y41551D01*
X2983Y41540D01*
X2984Y41529D01*
X3037Y41551D02*
X3040Y41529D01*
X3031Y41571D02*
X3037Y41551D01*
X3021Y41590D02*
X3031Y41571D01*
X3007Y41606D02*
X3021Y41590D01*
X2991Y41620D02*
X3007Y41606D01*
X2972Y41630D02*
X2991Y41620D01*
X3123Y41607D02*
X3139Y41621D01*
X3109Y41591D02*
X3123Y41607D01*
X3098Y41572D02*
X3109Y41591D01*
X3092Y41551D02*
X3098Y41572D01*
X3089Y41529D02*
X3092Y41551D01*
X2707Y41585D02*
X2929D01*
X2940Y41583D01*
X2950Y41580D01*
X3089Y41363D02*
Y41529D01*
X2950Y41580D02*
X2960Y41575D01*
X2951Y41637D02*
X2972Y41630D01*
X2929Y41640D02*
X2951Y41637D01*
X2984Y41252D02*
X3040D01*
X3428Y41271D02*
X3445Y41285D01*
X3458Y41301D01*
X3468Y41320D01*
X3475Y41341D01*
X3477Y41363D01*
X3420Y41352D02*
X3422Y41363D01*
X3417Y41342D02*
X3420Y41352D01*
X3412Y41332D02*
X3417Y41342D01*
X3405Y41324D02*
X3412Y41332D01*
X3397Y41317D02*
X3405Y41324D01*
X3388Y41312D02*
X3397Y41317D01*
X3377Y41309D02*
X3388Y41312D01*
X3366Y41308D02*
X3377Y41309D01*
X3200Y41308D02*
X3366D01*
X3189Y41309D02*
X3200Y41308D01*
X3179Y41312D02*
X3189Y41309D01*
X3169Y41317D02*
X3179Y41312D01*
X3161Y41324D02*
X3169Y41317D01*
X3154Y41332D02*
X3161Y41324D01*
X3149Y41342D02*
X3154Y41332D01*
X3475Y41551D02*
X3477Y41529D01*
X3468Y41572D02*
X3475Y41551D01*
X3458Y41591D02*
X3468Y41572D01*
X3444Y41607D02*
X3458Y41591D01*
X3428Y41621D02*
X3444Y41607D01*
X3409Y41631D02*
X3428Y41621D01*
X3388Y41638D02*
X3409Y41631D01*
X3366Y41640D02*
X3388Y41638D01*
X3200Y41640D02*
X3366D01*
X3179Y41638D02*
X3200Y41640D01*
X3158Y41631D02*
X3179Y41638D01*
X3149Y41551D02*
X3154Y41560D01*
X3161Y41568D01*
X3169Y41575D01*
X3179Y41580D01*
X3189Y41583D01*
X3200Y41585D01*
X3366D01*
X3377Y41583D01*
X3388Y41580D01*
X3397Y41575D01*
X3405Y41568D01*
X3412Y41560D01*
X3417Y41551D01*
X3420Y41540D01*
X3422Y41529D01*
X3477Y41363D02*
Y41529D01*
X3422Y41363D02*
Y41529D01*
X3157Y41261D02*
X3178Y41255D01*
X3200Y41252D01*
X3366D01*
X3389Y41255D01*
X3409Y41261D01*
X3859Y41252D02*
Y41418D01*
X3582Y41252D02*
Y41418D01*
X3914Y41252D02*
Y41640D01*
X3527Y41252D02*
Y41640D01*
X3959Y41252D02*
Y41334D01*
X4014Y41252D02*
Y41307D01*
X4291Y41252D02*
Y41307D01*
X3859Y41640D02*
X3914D01*
X3527D02*
X3582D01*
X3859Y41474D02*
Y41640D01*
X3582Y41474D02*
Y41640D01*
Y41474D02*
X3859D01*
X3582Y41418D02*
X3859D01*
Y41252D02*
X3914D01*
X3527D02*
X3582D01*
X3959Y41334D02*
X4106Y41446D01*
X4014Y41307D02*
X4152Y41411D01*
X4291Y41307D01*
X3959Y41640D02*
X4014D01*
X3959Y41557D02*
Y41640D01*
X4291Y41585D02*
Y41640D01*
X4014Y41585D02*
Y41640D01*
X3959Y41557D02*
X4106Y41446D01*
X4152Y41480D02*
X4291Y41585D01*
X4014D02*
X4152Y41480D01*
X3959Y41252D02*
X4014D01*
X4379Y41640D02*
X4767D01*
X4379Y41252D02*
X4767D01*
X4346D02*
Y41334D01*
X4379Y41252D02*
Y41308D01*
X4767Y41252D02*
Y41640D01*
X4961Y41252D02*
Y41585D01*
X5016Y41252D02*
Y41585D01*
X4712Y41308D02*
Y41418D01*
X4435D02*
Y41474D01*
X4346Y41557D02*
Y41640D01*
X4379Y41585D02*
Y41640D01*
X4712Y41474D02*
Y41585D01*
X4435Y41474D02*
X4712D01*
X4435Y41418D02*
X4712D01*
X4379Y41308D02*
X4712D01*
X4379Y41585D02*
X4712D01*
X4795D02*
X4961D01*
X4795D02*
Y41640D01*
X4961Y41252D02*
X5016D01*
X5110Y42212D02*
X5589D01*
X5420Y41334D02*
X5568Y41446D01*
X5475Y41307D02*
X5614Y41411D01*
X5420Y41557D02*
X5568Y41446D01*
X5475Y41585D02*
X5614Y41480D01*
X5420Y41252D02*
Y41334D01*
X5475Y41252D02*
Y41307D01*
X5752Y41252D02*
Y41307D01*
X5808Y41252D02*
Y41334D01*
X5852Y41252D02*
Y41640D01*
X5420D02*
X5475D01*
X5420Y41557D02*
Y41640D01*
X5475Y41585D02*
Y41640D01*
X5182Y41585D02*
Y41640D01*
X5420Y41252D02*
X5475D01*
X5614Y41411D02*
X5752Y41307D01*
X5660Y41446D02*
X5808Y41334D01*
Y41557D02*
Y41640D01*
X5752D02*
X5808D01*
X5752Y41585D02*
Y41640D01*
X5660Y41446D02*
X5808Y41557D01*
X5614Y41480D02*
X5752Y41585D01*
Y41252D02*
X5808D01*
X6295Y41640D02*
X6350D01*
X6073Y41252D02*
X6350D01*
X6011Y41272D02*
X6030Y41261D01*
X5907Y41252D02*
Y41640D01*
X6461Y41252D02*
Y41418D01*
X6350Y41252D02*
Y41640D01*
X6406Y41252D02*
Y41640D01*
X6295Y41308D02*
Y41446D01*
Y41501D02*
Y41640D01*
X5963Y41363D02*
Y41391D01*
Y41363D02*
X5965Y41341D01*
X5971Y41321D01*
X5981Y41302D01*
X5995Y41286D01*
X6011Y41272D01*
X5996Y41469D02*
X6013Y41483D01*
X5983Y41453D02*
X5996Y41469D01*
X5972Y41434D02*
X5983Y41453D01*
X5965Y41413D02*
X5972Y41434D01*
X5963Y41391D02*
X5965Y41413D01*
X6018Y41363D02*
Y41391D01*
X6019Y41402D01*
X6022Y41412D01*
X6028Y41422D01*
X6034Y41430D01*
X6043Y41437D01*
X6052Y41442D01*
X6062Y41445D01*
X6073Y41446D01*
X6062Y41309D02*
X6073Y41308D01*
X6052Y41312D02*
X6062Y41309D01*
X6043Y41317D02*
X6052Y41312D01*
X6034Y41324D02*
X6043Y41317D01*
X6028Y41332D02*
X6034Y41324D01*
X6022Y41342D02*
X6028Y41332D01*
X6019Y41352D02*
X6022Y41342D01*
X6018Y41363D02*
X6019Y41352D01*
X6052Y41499D02*
X6073Y41501D01*
X6031Y41493D02*
X6052Y41499D01*
X6013Y41483D02*
X6031Y41493D01*
X6073Y41446D02*
X6295D01*
X6073Y41308D02*
X6295D01*
X6073Y41501D02*
X6295D01*
X6030Y41261D02*
X6051Y41255D01*
X6073Y41252D01*
X6406Y41640D02*
X6461D01*
Y41474D02*
Y41640D01*
X6406Y41252D02*
X6461D01*
X6948Y41363D02*
X7170D01*
X6948Y41418D02*
X7170D01*
X6948Y41640D02*
X7225D01*
X6948Y41585D02*
X7170D01*
X6738Y41252D02*
Y41418D01*
X6793Y41252D02*
Y41640D01*
X7170Y41252D02*
Y41363D01*
X7269Y41252D02*
Y41308D01*
X7225Y41252D02*
Y41640D01*
X6837Y41474D02*
X6840Y41452D01*
X6846Y41432D01*
X6856Y41413D01*
X6870Y41396D01*
X6886Y41383D01*
X6905Y41372D01*
X6926Y41365D01*
X6948Y41363D01*
X6937Y41420D02*
X6948Y41418D01*
X6927Y41423D02*
X6937Y41420D01*
X6917Y41428D02*
X6927Y41423D01*
X6909Y41435D02*
X6917Y41428D01*
X6902Y41443D02*
X6909Y41435D01*
X6897Y41452D02*
X6902Y41443D01*
X6894Y41463D02*
X6897Y41452D01*
X6893Y41474D02*
X6894Y41463D01*
X6738Y41640D02*
X6793D01*
X6926Y41638D02*
X6948Y41640D01*
X6906Y41631D02*
X6926Y41638D01*
X6887Y41621D02*
X6906Y41631D01*
X6871Y41608D02*
X6887Y41621D01*
X6858Y41591D02*
X6871Y41608D01*
X6847Y41572D02*
X6858Y41591D01*
X6840Y41552D02*
X6847Y41572D01*
X6837Y41529D02*
X6840Y41552D01*
X6893Y41529D02*
X6894Y41540D01*
X6897Y41551D01*
X6902Y41560D01*
X6909Y41568D01*
X6917Y41575D01*
X6927Y41580D01*
X6937Y41583D01*
X6948Y41585D01*
X6738Y41474D02*
Y41640D01*
X6837Y41474D02*
Y41529D01*
X6893Y41474D02*
Y41529D01*
X6738Y41252D02*
X6793D01*
X7325Y41418D02*
Y41474D01*
X7269Y41585D02*
Y41640D01*
X7170Y41418D02*
Y41585D01*
Y41252D02*
X7225D01*
X7881Y45482D02*
X8044Y45392D01*
X7505Y45565D02*
X7700Y45541D01*
X7881Y45482D01*
X8044Y45392D02*
X8185Y45275D01*
X7902Y44874D02*
X7946Y44793D01*
X7974Y44703D01*
X7772Y45004D02*
X7843Y44945D01*
X7902Y44874D01*
X7505Y45086D02*
X7601Y45076D01*
X7691Y45048D01*
X7772Y45004D01*
X7974Y44703D02*
X7984Y44607D01*
X7817Y41308D02*
X7983D01*
X7817Y41585D02*
X7983D01*
X7817Y41640D02*
X7983D01*
X7817Y41252D02*
X7983D01*
X7657D02*
Y41640D01*
X7755Y41272D02*
X7774Y41261D01*
X8026Y41261D02*
X8044Y41271D01*
X8194Y41252D02*
Y41363D01*
X8138Y41252D02*
Y41529D01*
X7928Y41418D02*
Y41474D01*
X7817D02*
X7928D01*
X7806Y41475D02*
X7817Y41474D01*
X7796Y41478D02*
X7806Y41475D01*
X7786Y41483D02*
X7796Y41478D01*
X7778Y41490D02*
X7786Y41483D01*
X7806Y41309D02*
X7817Y41308D01*
X7796Y41312D02*
X7806Y41309D01*
X7786Y41317D02*
X7796Y41312D01*
X7778Y41324D02*
X7786Y41317D01*
X7771Y41332D02*
X7778Y41324D01*
X7766Y41342D02*
X7771Y41332D01*
X7763Y41352D02*
X7766Y41342D01*
X7762Y41363D02*
X7763Y41352D01*
X7762Y41363D02*
X7763Y41374D01*
X7766Y41385D01*
X7771Y41394D01*
X7778Y41402D01*
X7786Y41409D01*
X7796Y41414D01*
X7806Y41417D01*
X7817Y41418D01*
X7928D01*
X7766Y41508D02*
X7771Y41498D01*
X7763Y41518D02*
X7766Y41508D01*
X7762Y41529D02*
X7763Y41518D01*
X7762Y41529D02*
X7763Y41540D01*
X7766Y41551D01*
X7771Y41560D01*
X7778Y41568D01*
X7786Y41575D01*
X7796Y41580D01*
X7806Y41583D01*
X7817Y41585D01*
X7796Y41638D02*
X7817Y41640D01*
X7775Y41631D02*
X7796Y41638D01*
X7757Y41621D02*
X7775Y41631D01*
X7601Y41308D02*
Y41418D01*
X7716Y41483D02*
X7721Y41473D01*
X7728Y41464D01*
X7735Y41455D01*
X7744Y41446D01*
X7735Y41438D02*
X7744Y41446D01*
X7728Y41428D02*
X7735Y41438D01*
X7721Y41419D02*
X7728Y41428D01*
X7716Y41409D02*
X7721Y41419D01*
X7712Y41398D02*
X7716Y41409D01*
X7709Y41387D02*
X7712Y41398D01*
X7707Y41375D02*
X7709Y41387D01*
X7707Y41363D02*
X7707Y41375D01*
X7707Y41363D02*
X7709Y41341D01*
X7715Y41321D01*
X7725Y41302D01*
X7739Y41286D01*
X7726Y41591D02*
X7740Y41608D01*
X7716Y41572D02*
X7726Y41591D01*
X7709Y41552D02*
X7716Y41572D01*
X7707Y41529D02*
X7709Y41552D01*
X7707Y41529D02*
X7707Y41517D01*
X7709Y41505D01*
X7771Y41498D02*
X7778Y41490D01*
X7601Y41474D02*
Y41585D01*
X7709Y41505D02*
X7712Y41494D01*
X7716Y41483D01*
X7739Y41286D02*
X7755Y41272D01*
X7740Y41608D02*
X7757Y41621D01*
X7774Y41261D02*
X7795Y41255D01*
X7817Y41252D01*
X8044Y41271D02*
X8061Y41284D01*
X8074Y41301D01*
X8085Y41319D01*
X8091Y41340D01*
X8094Y41363D01*
X8039D02*
X8094D01*
X8038Y41352D02*
X8039Y41363D01*
X8034Y41342D02*
X8038Y41352D01*
X8029Y41332D02*
X8034Y41342D01*
X8022Y41324D02*
X8029Y41332D01*
X8014Y41317D02*
X8022Y41324D01*
X8005Y41312D02*
X8014Y41317D01*
X7994Y41309D02*
X8005Y41312D01*
X7983Y41308D02*
X7994Y41309D01*
X7983Y41585D02*
X7994Y41583D01*
X8005Y41580D01*
X8014Y41575D01*
X8022Y41568D01*
X8029Y41560D01*
X8034Y41551D01*
X8038Y41540D01*
X8039Y41529D01*
X8094D01*
X8092Y41551D02*
X8094Y41529D01*
X8086Y41571D02*
X8092Y41551D01*
X8075Y41590D02*
X8086Y41571D01*
X8062Y41607D02*
X8075Y41590D01*
X8046Y41620D02*
X8062Y41607D01*
X8027Y41631D02*
X8046Y41620D01*
X8006Y41638D02*
X8027Y41631D01*
X7983Y41640D02*
X8006Y41638D01*
X8227Y41638D02*
X8249Y41640D01*
X8207Y41631D02*
X8227Y41638D01*
X8188Y41621D02*
X8207Y41631D01*
X8172Y41608D02*
X8188Y41621D01*
X8159Y41591D02*
X8172Y41608D01*
X8148Y41572D02*
X8159Y41591D01*
X8141Y41552D02*
X8148Y41572D01*
X8138Y41529D02*
X8141Y41552D01*
X8194Y41529D02*
X8195Y41540D01*
X8198Y41551D01*
X8203Y41560D01*
X8210Y41568D01*
X8218Y41575D01*
X8228Y41580D01*
X8238Y41583D01*
X8249Y41585D01*
X8194Y41418D02*
Y41529D01*
X7983Y41252D02*
X8005Y41255D01*
X8026Y41261D01*
X8138Y41252D02*
X8194D01*
X8389Y44973D02*
X8444Y44796D01*
X8463Y44607D01*
X8301Y45134D02*
X8389Y44973D01*
X8581Y41640D02*
X8858D01*
X8637Y41585D02*
X8858D01*
X8471Y41252D02*
Y41363D01*
X8581Y41252D02*
Y41640D01*
X8637Y41252D02*
Y41585D01*
X8526Y41252D02*
Y41529D01*
X8913Y41252D02*
Y41529D01*
X8969Y41252D02*
Y41529D01*
X8524Y41551D02*
X8526Y41529D01*
X8517Y41571D02*
X8524Y41551D01*
X8507Y41590D02*
X8517Y41571D01*
X8494Y41607D02*
X8507Y41590D01*
X8477Y41620D02*
X8494Y41607D01*
X8459Y41631D02*
X8477Y41620D01*
X8438Y41638D02*
X8459Y41631D01*
X8415Y41640D02*
X8438Y41638D01*
X8415Y41585D02*
X8426Y41583D01*
X8437Y41580D01*
X8446Y41575D01*
X8454Y41568D01*
X8461Y41560D01*
X8466Y41551D01*
X8469Y41540D01*
X8471Y41529D01*
Y41418D02*
Y41529D01*
X8581Y41252D02*
X8637D01*
X8471D02*
X8526D01*
X8858Y41585D02*
X8869Y41583D01*
X8880Y41580D01*
X8889Y41575D01*
X8897Y41568D01*
X8904Y41560D01*
X8909Y41551D01*
X8912Y41540D01*
X8913Y41529D01*
X8967Y41551D02*
X8969Y41529D01*
X8960Y41571D02*
X8967Y41551D01*
X8950Y41590D02*
X8960Y41571D01*
X8937Y41606D02*
X8950Y41590D01*
X8920Y41620D02*
X8937Y41606D01*
X8902Y41630D02*
X8920Y41620D01*
X8881Y41637D02*
X8902Y41630D01*
X8858Y41640D02*
X8881Y41637D01*
X8913Y41252D02*
X8969D01*
X9543Y45399D02*
X9705Y45489D01*
X9400Y45282D02*
X9543Y45399D01*
X9705Y45489D02*
X9882Y45545D01*
X9132Y44798D02*
X9190Y44977D01*
X9111Y44607D02*
X9132Y44798D01*
X9190Y44977D02*
X9281Y45139D01*
X9600Y44703D02*
X9628Y44793D01*
X9672Y44874D01*
X9731Y44945D01*
X9802Y45004D01*
X9590Y44607D02*
X9600Y44703D01*
X9802Y45004D02*
X9883Y45048D01*
X9131Y42978D02*
X9187Y42798D01*
X9672Y42903D02*
X9731Y42832D01*
X9111Y43170D02*
X9131Y42978D01*
X9628Y42984D02*
X9672Y42903D01*
X9600Y43074D02*
X9628Y42984D01*
X9590Y43170D02*
X9600Y43074D01*
X9731Y42832D02*
X9802Y42773D01*
X9535Y42377D02*
X9697Y42288D01*
X9393Y42494D02*
X9535Y42377D01*
X9275Y42636D02*
X9393Y42494D01*
X9697Y42288D02*
X9877Y42232D01*
X9301Y41565D02*
X9578Y41252D01*
X9301Y41640D02*
X9578Y41333D01*
X9246Y41252D02*
Y41640D01*
X9301Y41252D02*
Y41565D01*
X9633Y41252D02*
Y41640D01*
X9246D02*
X9301D01*
X9246Y41252D02*
X9301D01*
X9578Y41640D02*
X9633D01*
X9578Y41333D02*
Y41640D01*
Y41252D02*
X9633D01*
X9973Y45076D02*
X10069Y45086D01*
X9973Y42701D02*
X10069Y42691D01*
X10331Y41640D02*
X10386D01*
X10331Y41252D02*
X10386D01*
X9899D02*
Y41334D01*
X10231Y41252D02*
Y41307D01*
X10286Y41252D02*
Y41334D01*
X9954Y41252D02*
Y41307D01*
X10331Y41252D02*
Y41640D01*
X10386Y41252D02*
Y41565D01*
X10663Y41252D01*
X9899Y41334D02*
X10047Y41446D01*
X9899Y41640D02*
X9954D01*
X9899Y41557D02*
Y41640D01*
Y41557D02*
X10047Y41446D01*
X10286Y41557D02*
Y41640D01*
X10231D02*
X10286D01*
X10231Y41585D02*
Y41640D01*
X9954Y41307D02*
X10093Y41411D01*
X9954Y41585D02*
Y41640D01*
Y41585D02*
X10093Y41480D01*
Y41411D02*
X10231Y41307D01*
X10139Y41446D02*
X10286Y41334D01*
X10139Y41446D02*
X10286Y41557D01*
X10093Y41480D02*
X10231Y41585D01*
X9899Y41252D02*
X9954D01*
X10231D02*
X10286D01*
X10663Y41333D02*
Y41640D01*
X10386D02*
X10663Y41333D01*
X11078Y41252D02*
Y41418D01*
X10746Y41252D02*
X10940Y41446D01*
X11133Y41252D02*
Y41640D01*
X10718Y41252D02*
Y41640D01*
X10824Y41252D02*
X10990Y41418D01*
X11226Y41272D02*
X11245Y41261D01*
X10990Y41418D02*
X11078D01*
X10990Y41474D02*
X11078D01*
Y41640D02*
X11133D01*
X10746D02*
X10824D01*
X11078Y41474D02*
Y41640D01*
X10746D02*
X10940Y41446D01*
X10824Y41640D02*
X10990Y41474D01*
X11078Y41252D02*
X11133D01*
X10746D02*
X10824D01*
X11476Y41312D02*
X11485Y41317D01*
X11466Y41309D02*
X11476Y41312D01*
X11455Y41308D02*
X11466Y41309D01*
X11288Y41308D02*
X11455D01*
X11277Y41309D02*
X11288Y41308D01*
X11267Y41312D02*
X11277Y41309D01*
X11258Y41317D02*
X11267Y41312D01*
X11249Y41324D02*
X11258Y41317D01*
X11243Y41332D02*
X11249Y41324D01*
X11237Y41342D02*
X11243Y41332D01*
X11234Y41352D02*
X11237Y41342D01*
X11233Y41363D02*
X11234Y41352D01*
X11178Y41363D02*
X11233D01*
X11178D02*
X11180Y41341D01*
X11186Y41321D01*
X11196Y41302D01*
X11210Y41286D01*
X11226Y41272D01*
X11288Y41640D02*
X11455D01*
X11267Y41638D02*
X11288Y41640D01*
X11246Y41631D02*
X11267Y41638D01*
X11228Y41621D02*
X11246Y41631D01*
X11211Y41608D02*
X11228Y41621D01*
X11198Y41591D02*
X11211Y41608D01*
X11187Y41572D02*
X11198Y41591D01*
X11181Y41552D02*
X11187Y41572D01*
X11178Y41529D02*
X11181Y41552D01*
X11178Y41529D02*
X11233D01*
X11234Y41540D01*
X11237Y41551D01*
X11243Y41560D01*
X11249Y41568D01*
X11258Y41575D01*
X11267Y41580D01*
X11277Y41583D01*
X11288Y41585D01*
X11455D01*
X11466Y41583D01*
X11476Y41580D01*
X11485Y41575D01*
X11455Y41640D02*
X11477Y41637D01*
X11245Y41261D02*
X11266Y41255D01*
X11288Y41252D01*
X11455D01*
X11476Y41255D01*
X11878Y45489D02*
X12040Y45401D01*
X11506Y45565D02*
X11698Y45545D01*
X11878Y45489D01*
X12040Y45401D02*
X12182Y45283D01*
X11903Y44874D02*
X11947Y44793D01*
X11975Y44703D01*
X11773Y45004D02*
X11844Y44945D01*
X11903Y44874D01*
X11506Y45086D02*
X11602Y45076D01*
X11692Y45048D01*
X11773Y45004D01*
X11975Y44703D02*
X11985Y44607D01*
X11947Y42984D02*
X11975Y43074D01*
X11903Y42903D02*
X11947Y42984D01*
X11844Y42832D02*
X11903Y42903D01*
X11773Y42773D02*
X11844Y42832D01*
X11975Y43074D02*
X11985Y43170D01*
X11880Y42287D02*
X12043Y42375D01*
X11506Y42212D02*
X11700Y42232D01*
X11880Y42287D01*
X11602Y42701D02*
X11692Y42729D01*
X11506Y42691D02*
X11602Y42701D01*
X12043Y42375D02*
X12184Y42492D01*
X11604Y41640D02*
X11992D01*
X11604Y41252D02*
X11992D01*
X11604D02*
Y41308D01*
X12102Y41252D02*
Y41391D01*
X11992Y41252D02*
Y41640D01*
X12047Y41252D02*
Y41640D01*
X11500Y41332D02*
X11506Y41342D01*
X11500Y41560D02*
X11506Y41551D01*
X11498Y41630D02*
X11517Y41620D01*
X11936Y41308D02*
Y41418D01*
X11509Y41352D02*
X11510Y41363D01*
X11506Y41342D02*
X11509Y41352D01*
X11516Y41271D02*
X11532Y41284D01*
X11546Y41301D01*
X11556Y41319D01*
X11563Y41340D01*
X11565Y41363D01*
X11659Y41418D02*
Y41474D01*
X11506Y41551D02*
X11509Y41540D01*
X11510Y41529D01*
X11563Y41551D02*
X11565Y41529D01*
X11557Y41571D02*
X11563Y41551D01*
X11547Y41590D02*
X11557Y41571D01*
X11533Y41606D02*
X11547Y41590D01*
X11517Y41620D02*
X11533Y41606D01*
X11604Y41585D02*
Y41640D01*
X11936Y41474D02*
Y41585D01*
X11510Y41363D02*
Y41529D01*
X11565Y41363D02*
Y41529D01*
X11659Y41474D02*
X11936D01*
X11659Y41418D02*
X11936D01*
X11604Y41308D02*
X11936D01*
X11604Y41585D02*
X11936D01*
X12047Y41640D02*
X12102D01*
Y41447D02*
Y41640D01*
X12047Y41252D02*
X12102D01*
X12388Y44979D02*
X12444Y44799D01*
X12464Y44607D01*
X12300Y45142D02*
X12388Y44979D01*
X12389Y42796D02*
X12444Y42976D01*
X12464Y43170D01*
X12703Y42210D02*
Y42691D01*
X12540Y41565D02*
X12816Y41252D01*
X12540Y41640D02*
X12816Y41333D01*
X12484Y41252D02*
Y41640D01*
X12540Y41252D02*
Y41565D01*
X12872Y41252D02*
Y41640D01*
X13066Y41252D02*
Y41585D01*
X12324Y41391D02*
X12345Y41393D01*
X12366Y41400D01*
X12385Y41410D01*
X12401Y41423D01*
X12415Y41439D01*
X12425Y41458D01*
X12432Y41479D01*
X12375Y41481D02*
X12378Y41491D01*
X12370Y41471D02*
X12375Y41481D01*
X12363Y41463D02*
X12370Y41471D01*
X12355Y41456D02*
X12363Y41463D01*
X12345Y41451D02*
X12355Y41456D01*
X12335Y41448D02*
X12345Y41451D01*
X12324Y41447D02*
X12335Y41448D01*
X12434Y41502D02*
Y41640D01*
X12379D02*
X12434D01*
X12379Y41502D02*
Y41640D01*
X12484D02*
X12540D01*
X12432Y41479D02*
X12434Y41502D01*
X12378Y41491D02*
X12379Y41502D01*
X12484Y41252D02*
X12540D01*
X12816Y41640D02*
X12872D01*
X12899Y41585D02*
X13066D01*
X12899D02*
Y41640D01*
X12816Y41333D02*
Y41640D01*
Y41252D02*
X12872D01*
X13182Y45565D02*
X13661D01*
X13370Y41585D02*
X13647D01*
X13315Y41640D02*
X13702D01*
X13370Y41252D02*
Y41585D01*
X13121Y41252D02*
Y41585D01*
X13315Y41252D02*
Y41640D01*
X13801Y41271D02*
X13820Y41261D01*
X13647Y41252D02*
Y41585D01*
X13702Y41252D02*
Y41640D01*
X13121Y41585D02*
X13287D01*
Y41640D01*
X13315Y41252D02*
X13370D01*
X13752Y41363D02*
X13754Y41341D01*
X13761Y41320D01*
X13771Y41301D01*
X13785Y41285D01*
X13801Y41271D01*
X13841Y41312D02*
X13852Y41309D01*
X13832Y41317D02*
X13841Y41312D01*
X13824Y41324D02*
X13832Y41317D01*
X13817Y41332D02*
X13824Y41324D01*
X13812Y41342D02*
X13817Y41332D01*
X13809Y41352D02*
X13812Y41342D01*
X13807Y41363D02*
X13809Y41352D01*
X13841Y41638D02*
X13863Y41640D01*
X13821Y41631D02*
X13841Y41638D01*
X13802Y41621D02*
X13821Y41631D01*
X13785Y41607D02*
X13802Y41621D01*
X13772Y41591D02*
X13785Y41607D01*
X13761Y41572D02*
X13772Y41591D01*
X13754Y41551D02*
X13761Y41572D01*
X13752Y41529D02*
X13754Y41551D01*
X13807Y41529D02*
X13809Y41540D01*
X13812Y41551D01*
X13817Y41560D01*
X13824Y41568D01*
X13832Y41575D01*
X13841Y41580D01*
X13852Y41583D01*
X13752Y41363D02*
Y41529D01*
X13807Y41363D02*
Y41529D01*
X13647Y41252D02*
X13702D01*
X13820Y41261D02*
X13841Y41255D01*
X13863Y41252D01*
X14400Y41474D02*
X14402Y41452D01*
X14408Y41432D01*
X14418Y41413D01*
X14432Y41396D01*
X14448Y41383D01*
X14467Y41372D01*
X14488Y41365D01*
X14510Y41363D01*
X14499Y41420D02*
X14510Y41418D01*
X14489Y41423D02*
X14499Y41420D01*
X14480Y41428D02*
X14489Y41423D01*
X14471Y41435D02*
X14480Y41428D01*
X14465Y41443D02*
X14471Y41435D01*
X14459Y41452D02*
X14465Y41443D01*
X14456Y41463D02*
X14459Y41452D01*
X14455Y41474D02*
X14456Y41463D01*
X14489Y41638D02*
X14510Y41640D01*
X14468Y41631D02*
X14489Y41638D01*
X14450Y41621D02*
X14468Y41631D01*
X14434Y41608D02*
X14450Y41621D01*
X14420Y41591D02*
X14434Y41608D01*
X14409Y41572D02*
X14420Y41591D01*
X14403Y41552D02*
X14409Y41572D01*
X14400Y41529D02*
X14403Y41552D01*
X14455Y41529D02*
X14456Y41540D01*
X14459Y41551D01*
X14465Y41560D01*
X14471Y41568D01*
X14480Y41575D01*
X14489Y41580D01*
X14499Y41583D01*
X14510Y41585D01*
X14400Y41474D02*
Y41529D01*
X14455Y41474D02*
Y41529D01*
X15036Y41585D02*
X15202D01*
X14815Y41640D02*
X15202D01*
X14732Y41252D02*
Y41363D01*
X14981Y41252D02*
Y41585D01*
X15036Y41252D02*
Y41585D01*
X14787Y41252D02*
Y41640D01*
X15286Y41252D02*
Y41418D01*
X15230Y41252D02*
Y41640D01*
X14815Y41585D02*
Y41640D01*
X14732Y41418D02*
Y41585D01*
X14815D02*
X14981D01*
Y41252D02*
X15036D01*
X14732D02*
X14787D01*
X15202Y41585D02*
Y41640D01*
X15230D02*
X15286D01*
Y41474D02*
Y41640D01*
X15230Y41252D02*
X15286D01*
X15717Y41474D02*
X15994D01*
X15717Y41418D02*
X15994D01*
X15662Y41308D02*
X15994D01*
X15662Y41640D02*
X16050D01*
X15662Y41585D02*
X15994D01*
X15662Y41252D02*
X16050D01*
X15562D02*
Y41418D01*
X15662Y41252D02*
Y41308D01*
X15618Y41252D02*
Y41640D01*
X16083Y41197D02*
Y41308D01*
X16050Y41252D02*
Y41640D01*
X15717Y41418D02*
Y41474D01*
X15562Y41640D02*
X15618D01*
X15662Y41585D02*
Y41640D01*
X15562Y41474D02*
Y41640D01*
Y41252D02*
X15618D01*
X15994Y41308D02*
Y41418D01*
X16083Y41308D02*
X16138D01*
Y41640D02*
X16193D01*
X15994Y41474D02*
Y41585D01*
X16138Y41308D02*
Y41640D01*
X16193Y41308D02*
Y41640D01*
X16138Y41197D02*
Y41252D01*
X16083Y41197D02*
X16138D01*
X15162Y54415D02*
X15236Y54652D01*
X15352Y54865D01*
X15201Y53764D02*
X15277Y53584D01*
X15153Y53958D02*
X15201Y53764D01*
X15137Y54162D02*
X15153Y53958D01*
X16526Y41252D02*
Y41640D01*
X16470D02*
X16526D01*
X16470Y41308D02*
Y41640D01*
X15691Y55205D02*
X15905Y55321D01*
X16141Y55394D01*
X15817Y54895D02*
X15924Y54858D01*
X15754Y54901D02*
X15817Y54895D01*
X15734Y54898D02*
X15754Y54901D01*
X15701Y54777D02*
X15734Y54898D01*
X15697Y54679D02*
X15701Y54777D01*
X15697Y54679D02*
X15708Y54606D01*
X15722Y54565D01*
X15627Y54415D02*
X15722Y54565D01*
X16080Y54769D02*
X16235Y54801D01*
X15924Y54858D02*
X16080Y54769D01*
X15862Y53689D02*
X15959Y53649D01*
X16107Y53520D02*
X16134Y53570D01*
X15605Y54063D02*
X15643Y53931D01*
X15700Y53827D01*
X15774Y53748D01*
X15862Y53689D01*
X15592Y54228D02*
X15605Y54063D01*
X15959Y53649D02*
X16062Y53623D01*
X16167Y53607D01*
X16134Y53570D02*
X16167Y53607D01*
X15816Y53044D02*
X15996Y52968D01*
X15651Y53147D02*
X15816Y53044D01*
X15505Y53273D02*
X15651Y53147D01*
X16082Y53154D02*
X16083Y53029D01*
X16078Y53003D02*
X16083Y53029D01*
X16063Y52981D02*
X16078Y53003D01*
X16037Y52968D02*
X16063Y52981D01*
X15996Y52968D02*
X16037Y52968D01*
X16081Y53374D02*
X16088Y53454D01*
X16081Y53374D02*
X16082Y53154D01*
X16648Y55394D02*
X16885Y55321D01*
X16395Y55420D02*
X16648Y55394D01*
X16555Y54801D02*
X16710Y54769D01*
X16395Y54812D02*
X16555Y54801D01*
X16973Y54895D02*
X17036Y54901D01*
X16865Y54858D02*
X16973Y54895D01*
X16710Y54769D02*
X16865Y54858D01*
X16624Y53606D02*
X16729Y53622D01*
X16624Y53606D02*
X16674Y53540D01*
X16729Y53622D02*
X16832Y53649D01*
X16929Y53689D01*
X17016Y53748D01*
X16792Y52968D02*
X16973Y53044D01*
X16753Y52968D02*
X16792Y52968D01*
X16726Y52982D02*
X16753Y52968D01*
X16711Y53003D02*
X16726Y52982D01*
X16707Y53029D02*
X16711Y53003D01*
X16707Y53029D02*
X16707Y53063D01*
X16707Y53117D01*
X16708Y53186D01*
X16708Y53263D01*
X16827Y53247D01*
X16922Y53254D01*
X16996Y53276D01*
X16872Y53406D02*
X16976Y53440D01*
X16776Y53413D02*
X16872Y53406D01*
X16704Y53438D02*
X16776Y53413D01*
X17438Y54865D02*
X17554Y54652D01*
X17068Y54565D02*
X17163Y54415D01*
X17068Y54565D02*
X17081Y54606D01*
X17092Y54679D01*
X17088Y54777D02*
X17092Y54679D01*
X17056Y54898D02*
X17088Y54777D01*
X17284Y55051D02*
X17438Y54865D01*
X17554Y54652D02*
X17627Y54415D01*
X17223Y53558D02*
X17258Y53587D01*
X17083Y53561D02*
X17119Y53604D01*
X17258Y53587D02*
X17272Y53595D01*
X17304Y53621D01*
X17319Y53640D01*
X17319Y53654D01*
X17310Y53663D02*
X17319Y53654D01*
X17296Y53668D02*
X17310Y53663D01*
X17281Y53671D02*
X17296Y53668D01*
X17268Y53672D02*
X17281Y53671D01*
X17263Y53672D02*
X17268Y53672D01*
X17180Y53648D02*
X17263Y53672D01*
X17119Y53604D02*
X17180Y53648D01*
X17090Y53827D02*
X17147Y53932D01*
X17184Y54064D01*
X17198Y54228D01*
X17178Y53501D02*
X17223Y53558D01*
X17070Y53542D02*
X17083Y53561D01*
X17589Y53764D02*
X17636Y53958D01*
X17512Y53584D02*
X17589Y53764D01*
X17636Y53958D02*
X17653Y54162D01*
X17138Y53147D02*
X17284Y53272D01*
X17090Y53344D02*
X17115Y53377D01*
X17128Y53402D01*
X17132Y53411D01*
X17284Y53272D02*
X17410Y53419D01*
X17052Y53308D02*
X17090Y53344D01*
D138*
X32666Y17430D02*
X32712Y17476D01*
X32804D01*
X32850Y17430D01*
Y17246D01*
X32804Y17200D01*
X32712D01*
X32666Y17246D01*
X32575Y17476D02*
X32391D01*
Y17430D01*
X32575Y17246D01*
Y17200D01*
X32115Y17476D02*
X32299D01*
Y17338D01*
X32207Y17384D01*
X32161D01*
X32115Y17338D01*
Y17246D01*
X32161Y17200D01*
X32253D01*
X32299Y17246D01*
X31916Y19180D02*
X31962Y19225D01*
X32054D01*
X32100Y19180D01*
Y18996D01*
X32054Y18950D01*
X31962D01*
X31916Y18996D01*
X31825Y19225D02*
X31641D01*
Y19180D01*
X31825Y18996D01*
Y18950D01*
X31549Y19180D02*
X31503Y19225D01*
X31411D01*
X31365Y19180D01*
Y19134D01*
X31411Y19088D01*
X31457D01*
X31411D01*
X31365Y19042D01*
Y18996D01*
X31411Y18950D01*
X31503D01*
X31549Y18996D01*
X30534Y16070D02*
X30488Y16025D01*
X30396D01*
X30350Y16070D01*
Y16254D01*
X30396Y16300D01*
X30488D01*
X30534Y16254D01*
X30626Y16025D02*
X30809D01*
Y16070D01*
X30626Y16254D01*
Y16300D01*
X31039D02*
Y16025D01*
X30901Y16162D01*
X31085D01*
X36666Y34230D02*
X36712Y34276D01*
X36804D01*
X36850Y34230D01*
Y34046D01*
X36804Y34000D01*
X36712D01*
X36666Y34046D01*
X36574Y34276D02*
X36391D01*
Y34230D01*
X36574Y34046D01*
Y34000D01*
X36299D02*
X36207D01*
X36253D01*
Y34276D01*
X36299Y34230D01*
X36716Y30430D02*
X36762Y30475D01*
X36854D01*
X36900Y30430D01*
Y30246D01*
X36854Y30200D01*
X36762D01*
X36716Y30246D01*
X36625Y30475D02*
X36441D01*
Y30430D01*
X36625Y30246D01*
Y30200D01*
X36349Y30430D02*
X36303Y30475D01*
X36211D01*
X36165Y30430D01*
Y30246D01*
X36211Y30200D01*
X36303D01*
X36349Y30246D01*
Y30430D01*
X37525Y32150D02*
X37250Y32334D01*
X37525D02*
X37250Y32150D01*
Y32609D02*
Y32425D01*
X37434Y32609D01*
X37480D01*
X37525Y32563D01*
Y32471D01*
X37480Y32425D01*
X36900Y44275D02*
Y44046D01*
X36854Y44000D01*
X36762D01*
X36716Y44046D01*
Y44275D01*
X36487Y44000D02*
Y44275D01*
X36625Y44138D01*
X36441D01*
X36165Y44275D02*
X36257Y44230D01*
X36349Y44138D01*
Y44046D01*
X36303Y44000D01*
X36211D01*
X36165Y44046D01*
Y44092D01*
X36211Y44138D01*
X36349D01*
X59200Y-1810D02*
Y-1534D01*
X59062D01*
X59016Y-1580D01*
Y-1672D01*
X59062Y-1718D01*
X59200D01*
X59108D02*
X59016Y-1810D01*
X58924D02*
X58833D01*
X58879D01*
Y-1534D01*
X58924Y-1580D01*
X58511Y-1534D02*
X58695D01*
Y-1672D01*
X58603Y-1626D01*
X58557D01*
X58511Y-1672D01*
Y-1764D01*
X58557Y-1810D01*
X58649D01*
X58695Y-1764D01*
X58236Y-1534D02*
X58328Y-1580D01*
X58419Y-1672D01*
Y-1764D01*
X58373Y-1810D01*
X58282D01*
X58236Y-1764D01*
Y-1718D01*
X58282Y-1672D01*
X58419D01*
X37100Y36950D02*
Y37225D01*
X36962D01*
X36916Y37180D01*
Y37088D01*
X36962Y37042D01*
X37100D01*
X37008D02*
X36916Y36950D01*
X36825D02*
X36733D01*
X36779D01*
Y37225D01*
X36825Y37180D01*
X36411Y37225D02*
X36595D01*
Y37088D01*
X36503Y37134D01*
X36457D01*
X36411Y37088D01*
Y36996D01*
X36457Y36950D01*
X36549D01*
X36595Y36996D01*
X36319Y36950D02*
X36228D01*
X36273D01*
Y37225D01*
X36319Y37180D01*
X33550Y28350D02*
X33826D01*
Y28488D01*
X33780Y28534D01*
X33688D01*
X33642Y28488D01*
Y28350D01*
Y28442D02*
X33550Y28534D01*
Y28626D02*
Y28717D01*
Y28671D01*
X33826D01*
X33780Y28626D01*
X33826Y29039D02*
Y28855D01*
X33688D01*
X33734Y28947D01*
Y28993D01*
X33688Y29039D01*
X33596D01*
X33550Y28993D01*
Y28901D01*
X33596Y28855D01*
X33550Y29314D02*
Y29131D01*
X33734Y29314D01*
X33780D01*
X33826Y29268D01*
Y29177D01*
X33780Y29131D01*
X32750Y28350D02*
X33026D01*
Y28488D01*
X32980Y28534D01*
X32888D01*
X32842Y28488D01*
Y28350D01*
Y28442D02*
X32750Y28534D01*
Y28626D02*
Y28717D01*
Y28671D01*
X33026D01*
X32980Y28626D01*
X33026Y29039D02*
Y28855D01*
X32888D01*
X32934Y28947D01*
Y28993D01*
X32888Y29039D01*
X32796D01*
X32750Y28993D01*
Y28901D01*
X32796Y28855D01*
X32980Y29131D02*
X33026Y29177D01*
Y29268D01*
X32980Y29314D01*
X32934D01*
X32888Y29268D01*
Y29222D01*
Y29268D01*
X32842Y29314D01*
X32796D01*
X32750Y29268D01*
Y29177D01*
X32796Y29131D01*
X12616Y29530D02*
X12662Y29576D01*
X12754D01*
X12800Y29530D01*
Y29346D01*
X12754Y29300D01*
X12662D01*
X12616Y29346D01*
X12341Y29576D02*
X12433Y29530D01*
X12524Y29438D01*
Y29346D01*
X12479Y29300D01*
X12387D01*
X12341Y29346D01*
Y29392D01*
X12387Y29438D01*
X12524D01*
X12249Y29530D02*
X12203Y29576D01*
X12111D01*
X12065Y29530D01*
Y29346D01*
X12111Y29300D01*
X12203D01*
X12249Y29346D01*
Y29530D01*
X28480Y30784D02*
X28526Y30738D01*
Y30646D01*
X28480Y30600D01*
X28296D01*
X28250Y30646D01*
Y30738D01*
X28296Y30784D01*
X28526Y31059D02*
Y30875D01*
X28388D01*
X28434Y30967D01*
Y31013D01*
X28388Y31059D01*
X28296D01*
X28250Y31013D01*
Y30921D01*
X28296Y30875D01*
X28526Y31335D02*
Y31151D01*
X28388D01*
X28434Y31243D01*
Y31289D01*
X28388Y31335D01*
X28296D01*
X28250Y31289D01*
Y31197D01*
X28296Y31151D01*
X29916Y31680D02*
X29962Y31725D01*
X30054D01*
X30100Y31680D01*
Y31496D01*
X30054Y31450D01*
X29962D01*
X29916Y31496D01*
X29641Y31725D02*
X29825D01*
Y31588D01*
X29733Y31634D01*
X29687D01*
X29641Y31588D01*
Y31496D01*
X29687Y31450D01*
X29779D01*
X29825Y31496D01*
X29549Y31725D02*
X29365D01*
Y31680D01*
X29549Y31496D01*
Y31450D01*
X31966Y31680D02*
X32012Y31725D01*
X32104D01*
X32150Y31680D01*
Y31496D01*
X32104Y31450D01*
X32012D01*
X31966Y31496D01*
X31691Y31725D02*
X31874D01*
Y31588D01*
X31783Y31634D01*
X31737D01*
X31691Y31588D01*
Y31496D01*
X31737Y31450D01*
X31829D01*
X31874Y31496D01*
X31415Y31725D02*
X31507Y31680D01*
X31599Y31588D01*
Y31496D01*
X31553Y31450D01*
X31461D01*
X31415Y31496D01*
Y31542D01*
X31461Y31588D01*
X31599D01*
X35180Y29884D02*
X35226Y29838D01*
Y29746D01*
X35180Y29700D01*
X34996D01*
X34950Y29746D01*
Y29838D01*
X34996Y29884D01*
X35226Y30159D02*
Y29976D01*
X35088D01*
X35134Y30067D01*
Y30113D01*
X35088Y30159D01*
X34996D01*
X34950Y30113D01*
Y30021D01*
X34996Y29976D01*
X35180Y30251D02*
X35226Y30297D01*
Y30389D01*
X35180Y30435D01*
X35134D01*
X35088Y30389D01*
X35042Y30435D01*
X34996D01*
X34950Y30389D01*
Y30297D01*
X34996Y30251D01*
X35042D01*
X35088Y30297D01*
X35134Y30251D01*
X35180D01*
X35088Y30297D02*
Y30389D01*
X34980Y31884D02*
X35025Y31838D01*
Y31746D01*
X34980Y31700D01*
X34796D01*
X34750Y31746D01*
Y31838D01*
X34796Y31884D01*
X35025Y32159D02*
Y31976D01*
X34888D01*
X34934Y32067D01*
Y32113D01*
X34888Y32159D01*
X34796D01*
X34750Y32113D01*
Y32021D01*
X34796Y31976D01*
X34750Y32389D02*
X35025D01*
X34888Y32251D01*
Y32435D01*
X36616Y35130D02*
X36662Y35175D01*
X36754D01*
X36800Y35130D01*
Y34946D01*
X36754Y34900D01*
X36662D01*
X36616Y34946D01*
X36341Y35175D02*
X36525D01*
Y35038D01*
X36433Y35084D01*
X36387D01*
X36341Y35038D01*
Y34946D01*
X36387Y34900D01*
X36479D01*
X36525Y34946D01*
X36249Y35130D02*
X36203Y35175D01*
X36111D01*
X36065Y35130D01*
Y34946D01*
X36111Y34900D01*
X36203D01*
X36249Y34946D01*
Y35130D01*
X33234Y33709D02*
X33188Y33663D01*
X33096D01*
X33050Y33709D01*
Y33893D01*
X33096Y33939D01*
X33188D01*
X33234Y33893D01*
X33509Y33663D02*
X33326D01*
Y33801D01*
X33417Y33755D01*
X33463D01*
X33509Y33801D01*
Y33893D01*
X33463Y33939D01*
X33371D01*
X33326Y33893D01*
X33601Y33939D02*
X33693D01*
X33647D01*
Y33663D01*
X33601Y33709D01*
X34980Y36034D02*
X35025Y35988D01*
Y35896D01*
X34980Y35850D01*
X34796D01*
X34750Y35896D01*
Y35988D01*
X34796Y36034D01*
X34750Y36263D02*
X35025D01*
X34888Y36126D01*
Y36309D01*
X34980Y36401D02*
X35025Y36447D01*
Y36539D01*
X34980Y36585D01*
X34934D01*
X34888Y36539D01*
X34842Y36585D01*
X34796D01*
X34750Y36539D01*
Y36447D01*
X34796Y36401D01*
X34842D01*
X34888Y36447D01*
X34934Y36401D01*
X34980D01*
X34888Y36447D02*
Y36539D01*
X34016Y38180D02*
X34062Y38226D01*
X34154D01*
X34200Y38180D01*
Y37996D01*
X34154Y37950D01*
X34062D01*
X34016Y37996D01*
X33787Y37950D02*
Y38226D01*
X33925Y38088D01*
X33741D01*
X33465Y38226D02*
X33649D01*
Y38088D01*
X33557Y38134D01*
X33511D01*
X33465Y38088D01*
Y37996D01*
X33511Y37950D01*
X33603D01*
X33649Y37996D01*
X31966Y38180D02*
X32012Y38226D01*
X32104D01*
X32150Y38180D01*
Y37996D01*
X32104Y37950D01*
X32012D01*
X31966Y37996D01*
X31737Y37950D02*
Y38226D01*
X31874Y38088D01*
X31691D01*
X31415Y38226D02*
X31507Y38180D01*
X31599Y38088D01*
Y37996D01*
X31553Y37950D01*
X31461D01*
X31415Y37996D01*
Y38042D01*
X31461Y38088D01*
X31599D01*
X30116Y38180D02*
X30162Y38226D01*
X30254D01*
X30300Y38180D01*
Y37996D01*
X30254Y37950D01*
X30162D01*
X30116Y37996D01*
X29887Y37950D02*
Y38226D01*
X30024Y38088D01*
X29841D01*
X29749Y38226D02*
X29565D01*
Y38180D01*
X29749Y37996D01*
Y37950D01*
X26716Y30130D02*
X26762Y30175D01*
X26854D01*
X26900Y30130D01*
Y29946D01*
X26854Y29900D01*
X26762D01*
X26716Y29946D01*
X26441Y30175D02*
X26625D01*
Y30038D01*
X26533Y30084D01*
X26487D01*
X26441Y30038D01*
Y29946D01*
X26487Y29900D01*
X26579D01*
X26625Y29946D01*
X26349D02*
X26303Y29900D01*
X26211D01*
X26165Y29946D01*
Y30130D01*
X26211Y30175D01*
X26303D01*
X26349Y30130D01*
Y30084D01*
X26303Y30038D01*
X26165D01*
X28916Y39830D02*
X28962Y39876D01*
X29054D01*
X29100Y39830D01*
Y39646D01*
X29054Y39600D01*
X28962D01*
X28916Y39646D01*
X28687Y39600D02*
Y39876D01*
X28825Y39738D01*
X28641D01*
X28411Y39600D02*
Y39876D01*
X28549Y39738D01*
X28365D01*
X28016Y36630D02*
X28062Y36676D01*
X28154D01*
X28200Y36630D01*
Y36446D01*
X28154Y36400D01*
X28062D01*
X28016Y36446D01*
X27787Y36400D02*
Y36676D01*
X27924Y36538D01*
X27741D01*
X27649Y36446D02*
X27603Y36400D01*
X27511D01*
X27465Y36446D01*
Y36630D01*
X27511Y36676D01*
X27603D01*
X27649Y36630D01*
Y36584D01*
X27603Y36538D01*
X27465D01*
X-2050Y23100D02*
Y23700D01*
X-2350D01*
X-2450Y23600D01*
Y23400D01*
X-2350Y23300D01*
X-2050D01*
X-2650Y23100D02*
X-2850D01*
X-2750D01*
Y23700D01*
X-2650Y23600D01*
X-3150Y23100D02*
X-3350D01*
X-3250D01*
Y23700D01*
X-3150Y23600D01*
X3750Y20025D02*
Y19750D01*
X3612D01*
X3566Y19796D01*
Y19980D01*
X3612Y20025D01*
X3750D01*
X3291Y19750D02*
X3474D01*
X3291Y19934D01*
Y19980D01*
X3337Y20025D01*
X3429D01*
X3474Y19980D01*
X3015Y19750D02*
X3199D01*
X3015Y19934D01*
Y19980D01*
X3061Y20025D01*
X3153D01*
X3199Y19980D01*
X2800Y20375D02*
Y20100D01*
X2662D01*
X2616Y20146D01*
Y20330D01*
X2662Y20375D01*
X2800D01*
X2341Y20100D02*
X2524D01*
X2341Y20284D01*
Y20330D01*
X2387Y20375D01*
X2479D01*
X2524Y20330D01*
X2249Y20100D02*
X2157D01*
X2203D01*
Y20375D01*
X2249Y20330D01*
X2800Y17875D02*
Y17600D01*
X2662D01*
X2616Y17646D01*
Y17830D01*
X2662Y17875D01*
X2800D01*
X2341Y17600D02*
X2524D01*
X2341Y17784D01*
Y17830D01*
X2387Y17875D01*
X2479D01*
X2524Y17830D01*
X2249D02*
X2203Y17875D01*
X2111D01*
X2065Y17830D01*
Y17784D01*
X2111Y17738D01*
X2157D01*
X2111D01*
X2065Y17692D01*
Y17646D01*
X2111Y17600D01*
X2203D01*
X2249Y17646D01*
X28480Y33284D02*
X28526Y33238D01*
Y33146D01*
X28480Y33100D01*
X28296D01*
X28250Y33146D01*
Y33238D01*
X28296Y33284D01*
X28526Y33559D02*
Y33375D01*
X28388D01*
X28434Y33467D01*
Y33513D01*
X28388Y33559D01*
X28296D01*
X28250Y33513D01*
Y33421D01*
X28296Y33375D01*
X28250Y33835D02*
Y33651D01*
X28434Y33835D01*
X28480D01*
X28526Y33789D01*
Y33697D01*
X28480Y33651D01*
X59250Y-3950D02*
Y-3674D01*
X59112D01*
X59066Y-3720D01*
Y-3812D01*
X59112Y-3858D01*
X59250D01*
X59158D02*
X59066Y-3950D01*
X58974D02*
X58883D01*
X58929D01*
Y-3674D01*
X58974Y-3720D01*
X58561Y-3674D02*
X58745D01*
Y-3812D01*
X58653Y-3766D01*
X58607D01*
X58561Y-3812D01*
Y-3904D01*
X58607Y-3950D01*
X58699D01*
X58745Y-3904D01*
X58469Y-3674D02*
X58286D01*
Y-3720D01*
X58469Y-3904D01*
Y-3950D01*
X56966Y-3754D02*
Y-3570D01*
X57012Y-3525D01*
X57104D01*
X57150Y-3570D01*
Y-3754D01*
X57104Y-3800D01*
X57012D01*
X57058Y-3708D02*
X56966Y-3800D01*
X57012D02*
X56966Y-3754D01*
X56874Y-3570D02*
X56829Y-3525D01*
X56737D01*
X56691Y-3570D01*
Y-3616D01*
X56737Y-3662D01*
X56783D01*
X56737D01*
X56691Y-3708D01*
Y-3754D01*
X56737Y-3800D01*
X56829D01*
X56874Y-3754D01*
X56599Y-3800D02*
X56507D01*
X56553D01*
Y-3525D01*
X56599Y-3570D01*
X616Y33230D02*
X662Y33275D01*
X754D01*
X800Y33230D01*
Y33046D01*
X754Y33000D01*
X662D01*
X616Y33046D01*
X341Y33000D02*
X525D01*
X341Y33184D01*
Y33230D01*
X387Y33275D01*
X479D01*
X525Y33230D01*
X65Y33275D02*
X157Y33230D01*
X249Y33138D01*
Y33046D01*
X203Y33000D01*
X111D01*
X65Y33046D01*
Y33092D01*
X111Y33138D01*
X249D01*
X1950Y30350D02*
Y30626D01*
X1812D01*
X1766Y30580D01*
Y30488D01*
X1812Y30442D01*
X1950D01*
X1858D02*
X1766Y30350D01*
X1491Y30626D02*
X1674D01*
Y30488D01*
X1583Y30534D01*
X1537D01*
X1491Y30488D01*
Y30396D01*
X1537Y30350D01*
X1629D01*
X1674Y30396D01*
X1215Y30626D02*
X1399D01*
Y30488D01*
X1307Y30534D01*
X1261D01*
X1215Y30488D01*
Y30396D01*
X1261Y30350D01*
X1353D01*
X1399Y30396D01*
X1950Y31000D02*
Y31275D01*
X1812D01*
X1766Y31230D01*
Y31138D01*
X1812Y31092D01*
X1950D01*
X1858D02*
X1766Y31000D01*
X1491Y31275D02*
X1674D01*
Y31138D01*
X1583Y31184D01*
X1537D01*
X1491Y31138D01*
Y31046D01*
X1537Y31000D01*
X1629D01*
X1674Y31046D01*
X1215Y31275D02*
X1307Y31230D01*
X1399Y31138D01*
Y31046D01*
X1353Y31000D01*
X1261D01*
X1215Y31046D01*
Y31092D01*
X1261Y31138D01*
X1399D01*
X9186Y10820D02*
X9232Y10865D01*
X9324D01*
X9370Y10820D01*
Y10636D01*
X9324Y10590D01*
X9232D01*
X9186Y10636D01*
X8911Y10865D02*
X9003Y10820D01*
X9094Y10728D01*
Y10636D01*
X9049Y10590D01*
X8957D01*
X8911Y10636D01*
Y10682D01*
X8957Y10728D01*
X9094D01*
X8635Y10590D02*
X8819D01*
X8635Y10774D01*
Y10820D01*
X8681Y10865D01*
X8773D01*
X8819Y10820D01*
X51650Y12700D02*
X51965D01*
Y12857D01*
X51912Y12910D01*
X51807D01*
X51755Y12857D01*
Y12700D01*
Y12805D02*
X51650Y12910D01*
Y13015D02*
Y13120D01*
Y13067D01*
X51965D01*
X51912Y13015D01*
X51965Y13487D02*
Y13277D01*
X51807D01*
X51860Y13382D01*
Y13435D01*
X51807Y13487D01*
X51702D01*
X51650Y13435D01*
Y13330D01*
X51702Y13277D01*
X51650Y13750D02*
X51965D01*
X51807Y13592D01*
Y13802D01*
X49650Y12650D02*
X49965D01*
Y12807D01*
X49912Y12860D01*
X49807D01*
X49755Y12807D01*
Y12650D01*
Y12755D02*
X49650Y12860D01*
Y12965D02*
Y13070D01*
Y13017D01*
X49965D01*
X49912Y12965D01*
X49965Y13437D02*
Y13227D01*
X49807D01*
X49860Y13332D01*
Y13385D01*
X49807Y13437D01*
X49702D01*
X49650Y13385D01*
Y13280D01*
X49702Y13227D01*
X49965Y13752D02*
Y13542D01*
X49807D01*
X49860Y13647D01*
Y13700D01*
X49807Y13752D01*
X49702D01*
X49650Y13700D01*
Y13595D01*
X49702Y13542D01*
X6080Y28584D02*
X6126Y28538D01*
Y28446D01*
X6080Y28400D01*
X5896D01*
X5850Y28446D01*
Y28538D01*
X5896Y28584D01*
X5850Y28675D02*
Y28767D01*
Y28721D01*
X6126D01*
X6080Y28675D01*
Y28905D02*
X6126Y28951D01*
Y29043D01*
X6080Y29089D01*
X6034D01*
X5988Y29043D01*
Y28997D01*
Y29043D01*
X5942Y29089D01*
X5896D01*
X5850Y29043D01*
Y28951D01*
X5896Y28905D01*
X6080Y25584D02*
X6126Y25538D01*
Y25446D01*
X6080Y25400D01*
X5896D01*
X5850Y25446D01*
Y25538D01*
X5896Y25584D01*
X5850Y25859D02*
Y25675D01*
X6034Y25859D01*
X6080D01*
X6126Y25813D01*
Y25721D01*
X6080Y25675D01*
X6126Y26135D02*
Y25951D01*
X5988D01*
X6034Y26043D01*
Y26089D01*
X5988Y26135D01*
X5896D01*
X5850Y26089D01*
Y25997D01*
X5896Y25951D01*
X28616Y19180D02*
X28662Y19225D01*
X28754D01*
X28800Y19180D01*
Y18996D01*
X28754Y18950D01*
X28662D01*
X28616Y18996D01*
X28341Y18950D02*
X28524D01*
X28341Y19134D01*
Y19180D01*
X28387Y19225D01*
X28479D01*
X28524Y19180D01*
X28249Y18996D02*
X28203Y18950D01*
X28111D01*
X28065Y18996D01*
Y19180D01*
X28111Y19225D01*
X28203D01*
X28249Y19180D01*
Y19134D01*
X28203Y19088D01*
X28065D01*
X26684Y16070D02*
X26638Y16025D01*
X26546D01*
X26500Y16070D01*
Y16254D01*
X26546Y16300D01*
X26638D01*
X26684Y16254D01*
X26776Y16070D02*
X26821Y16025D01*
X26913D01*
X26959Y16070D01*
Y16116D01*
X26913Y16162D01*
X26867D01*
X26913D01*
X26959Y16208D01*
Y16254D01*
X26913Y16300D01*
X26821D01*
X26776Y16254D01*
X27051Y16070D02*
X27097Y16025D01*
X27189D01*
X27235Y16070D01*
Y16254D01*
X27189Y16300D01*
X27097D01*
X27051Y16254D01*
Y16070D01*
X28834Y16020D02*
X28788Y15975D01*
X28696D01*
X28650Y16020D01*
Y16204D01*
X28696Y16250D01*
X28788D01*
X28834Y16204D01*
X28925Y16020D02*
X28971Y15975D01*
X29063D01*
X29109Y16020D01*
Y16066D01*
X29063Y16112D01*
X29017D01*
X29063D01*
X29109Y16158D01*
Y16204D01*
X29063Y16250D01*
X28971D01*
X28925Y16204D01*
X29201Y16250D02*
X29293D01*
X29247D01*
Y15975D01*
X29201Y16020D01*
X15550Y550D02*
Y825D01*
X15412D01*
X15366Y780D01*
Y688D01*
X15412Y642D01*
X15550D01*
X15458D02*
X15366Y550D01*
X15091Y825D02*
X15274D01*
Y688D01*
X15183Y734D01*
X15137D01*
X15091Y688D01*
Y596D01*
X15137Y550D01*
X15229D01*
X15274Y596D01*
X14999Y550D02*
X14907D01*
X14953D01*
Y825D01*
X14999Y780D01*
X14245Y54415D02*
X14345Y54515D01*
X14545D01*
X14645Y54415D01*
Y54015D01*
X14545Y53915D01*
X14345D01*
X14245Y54015D01*
X13945Y54315D02*
X13745D01*
X13645Y54215D01*
Y53915D01*
X13945D01*
X14045Y54015D01*
X13945Y54115D01*
X13645D01*
X13445Y53915D02*
X13245D01*
X13345D01*
Y54515D01*
X13445D01*
X12945Y53915D02*
X12745D01*
X12845D01*
Y54315D01*
X12945D01*
X12445Y53715D02*
Y54315D01*
X12146D01*
X12046Y54215D01*
Y54015D01*
X12146Y53915D01*
X12445D01*
X11846D02*
X11546D01*
X11446Y54015D01*
X11546Y54115D01*
X11746D01*
X11846Y54215D01*
X11746Y54315D01*
X11446D01*
X11146Y53915D02*
X10946D01*
X10846Y54015D01*
Y54215D01*
X10946Y54315D01*
X11146D01*
X11246Y54215D01*
Y54015D01*
X11146Y53915D01*
X10046Y54515D02*
Y53915D01*
X9746D01*
X9646Y54015D01*
Y54115D01*
X9746Y54215D01*
X10046D01*
X9746D01*
X9646Y54315D01*
Y54415D01*
X9746Y54515D01*
X10046D01*
X9347Y53915D02*
X9147D01*
X9047Y54015D01*
Y54215D01*
X9147Y54315D01*
X9347D01*
X9446Y54215D01*
Y54015D01*
X9347Y53915D01*
X8747Y54315D02*
X8547D01*
X8447Y54215D01*
Y53915D01*
X8747D01*
X8847Y54015D01*
X8747Y54115D01*
X8447D01*
X8247Y54315D02*
Y53915D01*
Y54115D01*
X8147Y54215D01*
X8047Y54315D01*
X7947D01*
X7247Y54515D02*
Y53915D01*
X7547D01*
X7647Y54015D01*
Y54215D01*
X7547Y54315D01*
X7247D01*
X6447Y54515D02*
Y54115D01*
X6248Y53915D01*
X6048Y54115D01*
Y54515D01*
X5448Y53915D02*
X5848D01*
X5448Y54315D01*
Y54415D01*
X5548Y54515D01*
X5748D01*
X5848Y54415D01*
X5248Y53915D02*
Y54015D01*
X5148D01*
Y53915D01*
X5248D01*
X4748Y54415D02*
X4648Y54515D01*
X4448D01*
X4348Y54415D01*
Y54015D01*
X4448Y53915D01*
X4648D01*
X4748Y54015D01*
Y54415D01*
X3548Y53915D02*
Y54515D01*
X3248D01*
X3149Y54415D01*
Y54215D01*
X3248Y54115D01*
X3548D01*
X3348D02*
X3149Y53915D01*
X2549Y54515D02*
X2949D01*
Y53915D01*
X2549D01*
X2949Y54215D02*
X2749D01*
X2349Y54515D02*
Y54115D01*
X2149Y53915D01*
X1949Y54115D01*
Y54515D01*
X1449Y53915D02*
Y54515D01*
X1749Y54215D01*
X1349D01*
X1149Y53915D02*
Y54015D01*
X1049D01*
Y53915D01*
X1149D01*
X249D02*
X649D01*
X249Y54315D01*
Y54415D01*
X349Y54515D01*
X549D01*
X649Y54415D01*
X14695Y53540D02*
Y53265D01*
Y53403D01*
X14649Y53449D01*
X14557D01*
X14511Y53403D01*
Y53265D01*
X14373Y53494D02*
Y53449D01*
X14419D01*
X14327D01*
X14373D01*
Y53311D01*
X14327Y53265D01*
X14144Y53494D02*
Y53449D01*
X14190D01*
X14098D01*
X14144D01*
Y53311D01*
X14098Y53265D01*
X13960Y53173D02*
Y53449D01*
X13822D01*
X13776Y53403D01*
Y53311D01*
X13822Y53265D01*
X13960D01*
X13685D02*
X13547D01*
X13501Y53311D01*
X13547Y53357D01*
X13639D01*
X13685Y53403D01*
X13639Y53449D01*
X13501D01*
X13409D02*
X13363D01*
Y53403D01*
X13409D01*
Y53449D01*
Y53311D02*
X13363D01*
Y53265D01*
X13409D01*
Y53311D01*
X13180Y53265D02*
X12996Y53449D01*
X12904Y53265D02*
X12720Y53449D01*
X12537Y53173D02*
X12491D01*
X12445Y53219D01*
Y53449D01*
X12583D01*
X12629Y53403D01*
Y53311D01*
X12583Y53265D01*
X12445D01*
X12353D02*
X12261D01*
X12307D01*
Y53449D01*
X12353D01*
X12078Y53494D02*
Y53449D01*
X12123D01*
X12032D01*
X12078D01*
Y53311D01*
X12032Y53265D01*
X11894Y53540D02*
Y53265D01*
Y53403D01*
X11848Y53449D01*
X11756D01*
X11710Y53403D01*
Y53265D01*
X11618Y53449D02*
Y53311D01*
X11572Y53265D01*
X11435D01*
Y53449D01*
X11343Y53540D02*
Y53265D01*
X11205D01*
X11159Y53311D01*
Y53357D01*
Y53403D01*
X11205Y53449D01*
X11343D01*
X11067Y53265D02*
Y53311D01*
X11021D01*
Y53265D01*
X11067D01*
X10654Y53449D02*
X10792D01*
X10838Y53403D01*
Y53311D01*
X10792Y53265D01*
X10654D01*
X10516D02*
X10424D01*
X10379Y53311D01*
Y53403D01*
X10424Y53449D01*
X10516D01*
X10562Y53403D01*
Y53311D01*
X10516Y53265D01*
X10287D02*
Y53449D01*
X10241D01*
X10195Y53403D01*
Y53265D01*
Y53403D01*
X10149Y53449D01*
X10103Y53403D01*
Y53265D01*
X10011D02*
X9828Y53449D01*
X9690Y53265D02*
Y53494D01*
Y53403D01*
X9736D01*
X9644D01*
X9690D01*
Y53494D01*
X9644Y53540D01*
X9506Y53449D02*
X9323Y53265D01*
X9414Y53357D01*
X9323Y53449D01*
X9506Y53265D01*
X9231D02*
X9093D01*
X9047Y53311D01*
X9093Y53357D01*
X9185D01*
X9231Y53403D01*
X9185Y53449D01*
X9047D01*
X8955Y53265D02*
X8863D01*
X8909D01*
Y53540D01*
X8955D01*
X8680Y53449D02*
X8588D01*
X8542Y53403D01*
Y53265D01*
X8680D01*
X8726Y53311D01*
X8680Y53357D01*
X8542D01*
X8450Y53449D02*
X8358Y53265D01*
X8266Y53449D01*
X8129D02*
X8037D01*
X7991Y53403D01*
Y53265D01*
X8129D01*
X8175Y53311D01*
X8129Y53357D01*
X7991D01*
X7899Y53265D02*
X7715Y53449D01*
X7624Y53540D02*
Y53265D01*
X7440D01*
X7302Y53449D02*
X7210D01*
X7164Y53403D01*
Y53265D01*
X7302D01*
X7348Y53311D01*
X7302Y53357D01*
X7164D01*
X7073Y53265D02*
X6935D01*
X6889Y53311D01*
X6935Y53357D01*
X7027D01*
X7073Y53403D01*
X7027Y53449D01*
X6889D01*
X6659Y53265D02*
X6751D01*
X6797Y53311D01*
Y53403D01*
X6751Y53449D01*
X6659D01*
X6613Y53403D01*
Y53357D01*
X6797D01*
X6522Y53449D02*
Y53265D01*
Y53357D01*
X6476Y53403D01*
X6430Y53449D01*
X6384D01*
X6246Y53403D02*
X6062D01*
X5971Y53540D02*
Y53265D01*
X5787D01*
X5511Y53540D02*
X5695D01*
Y53265D01*
X5511D01*
X5695Y53403D02*
X5603D01*
X5420Y53540D02*
Y53265D01*
X5282D01*
X5236Y53311D01*
Y53494D01*
X5282Y53540D01*
X5420D01*
X5144Y53403D02*
X4960D01*
X4685Y53494D02*
X4731Y53540D01*
X4823D01*
X4869Y53494D01*
Y53449D01*
X4823Y53403D01*
X4731D01*
X4685Y53357D01*
Y53311D01*
X4731Y53265D01*
X4823D01*
X4869Y53311D01*
X4593Y53540D02*
X4409D01*
X4501D01*
Y53265D01*
X4318D02*
Y53540D01*
X4226Y53449D01*
X4134Y53540D01*
Y53265D01*
X4042Y53403D02*
X3858D01*
X3767Y53540D02*
Y53265D01*
X3629D01*
X3583Y53311D01*
Y53357D01*
X3629Y53403D01*
X3767D01*
X3629D01*
X3583Y53449D01*
Y53494D01*
X3629Y53540D01*
X3767D01*
X3445Y53265D02*
X3353D01*
X3307Y53311D01*
Y53403D01*
X3353Y53449D01*
X3445D01*
X3491Y53403D01*
Y53311D01*
X3445Y53265D01*
X3170Y53449D02*
X3078D01*
X3032Y53403D01*
Y53265D01*
X3170D01*
X3216Y53311D01*
X3170Y53357D01*
X3032D01*
X2940Y53449D02*
Y53265D01*
Y53357D01*
X2894Y53403D01*
X2848Y53449D01*
X2802D01*
X2481Y53540D02*
Y53265D01*
X2619D01*
X2665Y53311D01*
Y53403D01*
X2619Y53449D01*
X2481D01*
X2389Y53403D02*
X2205D01*
X2114Y53265D02*
Y53540D01*
X1976D01*
X1930Y53494D01*
Y53403D01*
X1976Y53357D01*
X2114D01*
X1838Y53449D02*
Y53265D01*
Y53357D01*
X1792Y53403D01*
X1746Y53449D01*
X1700D01*
X1517Y53265D02*
X1425D01*
X1379Y53311D01*
Y53403D01*
X1425Y53449D01*
X1517D01*
X1563Y53403D01*
Y53311D01*
X1517Y53265D01*
X1287Y53173D02*
X1241D01*
X1195Y53219D01*
Y53449D01*
X874Y53265D02*
X966D01*
X1012Y53311D01*
Y53403D01*
X966Y53449D01*
X874D01*
X828Y53403D01*
Y53357D01*
X1012D01*
X552Y53449D02*
X690D01*
X736Y53403D01*
Y53311D01*
X690Y53265D01*
X552D01*
X415Y53494D02*
Y53449D01*
X461D01*
X369D01*
X415D01*
Y53311D01*
X369Y53265D01*
D230*
X21091Y39490D02*
X21946Y40073D01*
X21091Y47167D02*
X21946Y46584D01*
X17347Y43524D02*
X18485Y43595D01*
X21189Y43603D02*
X22008Y43565D01*
X21091Y47167D02*
X21521Y47145D01*
X20874Y45104D02*
X21659Y44905D01*
X24025Y44142D02*
X24823Y43951D01*
X17347Y43133D02*
X18485Y43062D01*
X23801Y43179D02*
X24868Y43212D01*
X23801Y43478D02*
X24868Y43445D01*
X21189Y43054D02*
X22008Y43092D01*
X24025Y42515D02*
X24823Y42706D01*
X20874Y41553D02*
X21659Y41752D01*
X21091Y39490D02*
X21521Y39512D01*
X17818Y45155D02*
X17999Y45242D01*
X19267Y46682D02*
X19579Y46857D01*
X21084Y46768D02*
X21380Y46609D01*
X18507Y45034D02*
X19300Y45204D01*
X20089Y45215D02*
X20874Y45104D01*
X18644Y40428D02*
X18734Y40349D01*
X21003Y41089D02*
X21235Y41161D01*
X22455Y46838D02*
X22704Y46659D01*
X23233Y44388D02*
X24025Y44142D01*
X22008Y43565D02*
X22863Y43521D01*
X21858Y45267D02*
X22267Y45091D01*
X22560Y46116D02*
X22901Y45852D01*
X23208Y46197D02*
X23498Y45916D01*
X23161Y45437D02*
X23660Y45113D01*
X23956Y44364D02*
X24374Y44229D01*
X23108Y41946D02*
X23533Y42129D01*
X21659Y41752D02*
X22445Y42002D01*
X21838Y40319D02*
X22063Y40463D01*
X23253Y41071D02*
X23606Y41325D01*
X17865Y45284D02*
X17929Y45410D01*
X17883Y44792D02*
X18153Y44910D01*
X17865Y41373D02*
X17929Y41247D01*
X17818Y41502D02*
X17999Y41415D01*
X17883Y41864D02*
X18153Y41747D01*
X20105Y47025D02*
X20342Y47027D01*
X18644Y46229D02*
X18734Y46308D01*
X19300Y45204D02*
X20089Y45215D01*
X18694Y45598D02*
X18916Y45669D01*
X18502Y45515D02*
X18694Y45598D01*
X19179Y45725D02*
X19496Y45762D01*
X19758Y45771D01*
X20271Y45731D02*
X20520Y45688D01*
X21003Y45568D02*
X21235Y45496D01*
X20360Y43626D02*
X21189Y43603D01*
X19474Y43626D02*
X20360Y43626D01*
X18485Y43595D02*
X19474Y43626D01*
X20360Y43030D02*
X21189Y43054D01*
X19474Y43030D02*
X20360Y43030D01*
X18485Y43062D02*
X19474Y43030D01*
X19300Y41453D02*
X20089Y41442D01*
X18507Y41623D02*
X19300Y41453D01*
X20089Y41442D02*
X20874Y41553D01*
X18502Y41141D02*
X18694Y41059D01*
X18916Y40988D01*
X19179Y40932D02*
X19496Y40895D01*
X19758Y40886D01*
X20271Y40925D02*
X20520Y40968D01*
X19267Y39975D02*
X19579Y39800D01*
X20105Y39632D02*
X20342Y39630D01*
X21084Y39889D02*
X21380Y40048D01*
X21881Y47082D02*
X22187Y46979D01*
X21838Y46338D02*
X22063Y46194D01*
X24205Y45344D02*
X24324Y45238D01*
X22506Y45894D02*
X22725Y45741D01*
X23253Y45586D02*
X23606Y45331D01*
X23498Y45916D02*
X23715Y45721D01*
X22445Y44655D02*
X23233Y44388D01*
X23108Y44711D02*
X23533Y44528D01*
X21659Y44905D02*
X22445Y44655D01*
X22685Y44902D02*
X23108Y44711D01*
X24034Y44901D02*
X24304Y44769D01*
X24281Y44911D02*
X24585Y44772D01*
X22863Y43136D02*
X23801Y43179D01*
X22008Y43092D02*
X22863Y43136D01*
Y43521D02*
X23801Y43478D01*
X22445Y42002D02*
X23233Y42269D01*
X24025Y42515D01*
X23956Y42293D02*
X24374Y42428D01*
X23161Y41220D02*
X23660Y41544D01*
X21858Y41390D02*
X22267Y41566D01*
X22685Y41755D02*
X23108Y41946D01*
X24205Y41313D02*
X24324Y41418D01*
X24034Y41755D02*
X24304Y41887D01*
X24281Y41746D02*
X24585Y41885D01*
X23208Y40460D02*
X23498Y40741D01*
X22506Y40763D02*
X22725Y40916D01*
X22560Y40541D02*
X22901Y40805D01*
X23498Y40741D02*
X23715Y40936D01*
X21881Y39575D02*
X22187Y39678D01*
X22455Y39819D02*
X22704Y39997D01*
X24823Y42706D02*
X24868Y43212D01*
X17456Y44353D02*
X17547Y44526D01*
X17347Y43524D02*
X17368Y43864D01*
X17818Y45155D02*
X17865Y45284D01*
X17368Y42793D02*
X17400Y42520D01*
X17685Y41988D02*
X17883Y41864D01*
X18368Y45956D02*
X18453Y46043D01*
X18330Y41231D02*
X18502Y41141D01*
X17929Y41247D02*
X18006Y41126D01*
X20821Y46893D02*
X21084Y46768D01*
X21235Y41161D02*
X21462Y41238D01*
X21521Y39512D02*
X21881Y39575D01*
X22285Y46045D02*
X22506Y45894D01*
X22239Y40292D02*
X22560Y40541D01*
X22949Y40212D02*
X23208Y40460D01*
X22943Y41069D02*
X23161Y41220D01*
X23533Y44528D02*
X23956Y44364D01*
X23606Y45331D02*
X23951Y45102D01*
X23903Y41086D02*
X24066Y41207D01*
X24734Y44369D02*
X24781Y44134D01*
X24683Y44516D02*
X24734Y44369D01*
X24823Y43951D02*
X24868Y43445D01*
X24324Y45238D02*
X24425Y45118D01*
X24304Y41887D02*
X24488Y41973D01*
X17547Y44526D02*
X17685Y44669D01*
X17883Y44792D01*
X17368Y43864D02*
X17400Y44137D01*
X17456Y44353D01*
X17347Y43133D02*
X17368Y42793D01*
X17547Y42131D02*
X17685Y41988D01*
X17456Y42304D02*
X17547Y42131D01*
X17400Y42520D02*
X17456Y42304D01*
X17818Y41502D02*
X17865Y41373D01*
X18453Y46043D02*
X18551Y46142D01*
X18644Y46229D01*
X18330Y45426D02*
X18502Y45515D01*
X18277Y45861D02*
X18368Y45956D01*
X17999Y45242D02*
X18166Y45334D01*
X18330Y45426D01*
X18006Y45531D02*
X18092Y45647D01*
X17929Y45410D02*
X18006Y45531D01*
X18092Y45647D02*
X18184Y45757D01*
X18277Y45861D01*
X18153Y44910D02*
X18507Y45034D01*
X18153Y41747D02*
X18507Y41623D01*
X18166Y41323D02*
X18330Y41231D01*
X17999Y41415D02*
X18166Y41323D01*
X18277Y40796D02*
X18368Y40701D01*
X18551Y40515D02*
X18644Y40428D01*
X18184Y40899D02*
X18277Y40796D01*
X18092Y41010D02*
X18184Y40899D01*
X18006Y41126D02*
X18092Y41010D01*
X18453Y40613D02*
X18551Y40515D01*
X18368Y40701D02*
X18453Y40613D01*
X19138Y46600D02*
X19267Y46682D01*
X19023Y46525D02*
X19138Y46600D01*
X18825Y46382D02*
X18920Y46453D01*
X18734Y46308D02*
X18825Y46382D01*
X18920Y46453D02*
X19023Y46525D01*
X18916Y45669D02*
X19179Y45725D01*
X18916Y40988D02*
X19179Y40932D01*
X19138Y40057D02*
X19267Y39975D01*
X19023Y40132D02*
X19138Y40057D01*
X18920Y40204D02*
X19023Y40132D01*
X18734Y40349D02*
X18825Y40275D01*
X18920Y40204D01*
X19854Y46970D02*
X20105Y47025D01*
X19579Y46857D02*
X19854Y46970D01*
X19758Y45771D02*
X20017Y45760D01*
X20271Y45731D01*
X19758Y40886D02*
X20017Y40897D01*
X20271Y40925D01*
X19854Y39687D02*
X20105Y39632D01*
X19579Y39800D02*
X19854Y39687D01*
X20577Y46982D02*
X20821Y46893D01*
X20342Y47027D02*
X20577Y46982D01*
X20520Y45688D02*
X20764Y45633D01*
X21003Y45568D01*
X20520Y40968D02*
X20764Y41024D01*
X21003Y41089D01*
X20577Y39675D02*
X20821Y39763D01*
X20342Y39630D02*
X20577Y39675D01*
X20821Y39763D02*
X21084Y39889D01*
X21521Y47145D02*
X21881Y47082D01*
X21380Y46609D02*
X21610Y46477D01*
X21838Y46338D01*
X21462Y45419D02*
X21858Y45267D01*
X21235Y45496D02*
X21462Y45419D01*
Y41238D02*
X21858Y41390D01*
X21380Y40048D02*
X21610Y40180D01*
X21838Y40319D01*
X22187Y46979D02*
X22455Y46838D01*
X22239Y46365D02*
X22560Y46116D01*
X22063Y46194D02*
X22285Y46045D01*
X21946Y46584D02*
X22239Y46365D01*
X22267Y45091D02*
X22685Y44902D01*
X22267Y41566D02*
X22685Y41755D01*
X22285Y40612D02*
X22506Y40763D01*
X22063Y40463D02*
X22285Y40612D01*
X22187Y39678D02*
X22455Y39819D01*
X21946Y40073D02*
X22239Y40292D01*
X22949Y46445D02*
X23208Y46197D01*
X22704Y46659D02*
X22949Y46445D01*
X22943Y45588D02*
X23161Y45437D01*
X22901Y45852D02*
X23253Y45586D01*
X22725Y45741D02*
X22943Y45588D01*
X22901Y40805D02*
X23253Y41071D01*
X22725Y40916D02*
X22943Y41069D01*
X22704Y39997D02*
X22949Y40212D01*
X23903Y45571D02*
X24066Y45450D01*
X23715Y45721D02*
X23903Y45571D01*
X24066Y45450D02*
X24205Y45344D01*
X23660Y45113D02*
X24034Y44901D01*
X23951Y45102D02*
X24281Y44911D01*
X23533Y42129D02*
X23956Y42293D01*
X23660Y41544D02*
X24034Y41755D01*
X23606Y41325D02*
X23951Y41555D01*
X24066Y41207D02*
X24205Y41313D01*
X23951Y41555D02*
X24281Y41746D01*
X23715Y40936D02*
X23903Y41086D01*
X24304Y44769D02*
X24488Y44684D01*
X24608Y44610D02*
X24683Y44516D01*
X24488Y44684D02*
X24608Y44610D01*
X24511Y44967D02*
X24585Y44772D01*
X24425Y45118D02*
X24511Y44967D01*
X24374Y44229D02*
X24781Y44134D01*
X24734Y42288D02*
X24781Y42523D01*
X24374Y42428D02*
X24781Y42523D01*
X24608Y42047D02*
X24683Y42140D01*
X24734Y42288D01*
X24488Y41973D02*
X24608Y42047D01*
X24425Y41539D02*
X24511Y41690D01*
X24324Y41418D02*
X24425Y41539D01*
X24511Y41690D02*
X24585Y41885D01*
M02*
