G04 Layer_Color=32896*
%FSLAX24Y24*%
%MOIN*%
G70*
G01*
G75*
%ADD55C,0.0100*%
%ADD63C,0.0079*%
%ADD130C,0.0098*%
%ADD135C,0.0050*%
D55*
X2550Y18250D02*
G03*
X2550Y18250I-50J0D01*
G01*
X800Y19000D02*
G03*
X800Y19000I-50J0D01*
G01*
X1800D02*
G03*
X1800Y19000I-50J0D01*
G01*
X57300Y-2000D02*
G03*
X57300Y-2000I-50J0D01*
G01*
X-3400Y16000D02*
X-2650D01*
X-3400D02*
Y22450D01*
X-2650D01*
X-1200Y21350D02*
Y22450D01*
Y16050D02*
Y17150D01*
X2900Y19550D02*
X3200D01*
Y19300D02*
Y19550D01*
Y18450D02*
Y18650D01*
X2900Y18450D02*
X3200D01*
X1150Y20300D02*
X1450D01*
Y20050D02*
Y20300D01*
Y19200D02*
Y19400D01*
X1150Y19200D02*
X1450D01*
X1050Y18800D02*
X1350D01*
X1050Y18600D02*
Y18800D01*
Y17700D02*
Y17950D01*
Y17700D02*
X1350D01*
X56550Y-2200D02*
X56850D01*
X56550Y-2400D02*
Y-2200D01*
Y-3300D02*
Y-3050D01*
Y-3300D02*
X56850D01*
X42500Y-2750D02*
Y-3250D01*
X42400Y-3350D01*
X42200D01*
X42100Y-3250D01*
Y-2750D01*
X41500D02*
X41900D01*
Y-3050D01*
X41700Y-2950D01*
X41600D01*
X41500Y-3050D01*
Y-3250D01*
X41600Y-3350D01*
X41800D01*
X41900Y-3250D01*
X41000Y-3350D02*
Y-2750D01*
X41300Y-3050D01*
X40901D01*
X49850Y6000D02*
Y5500D01*
X49750Y5400D01*
X49550D01*
X49450Y5500D01*
Y6000D01*
X48850D02*
X49250D01*
Y5700D01*
X49050Y5800D01*
X48950D01*
X48850Y5700D01*
Y5500D01*
X48950Y5400D01*
X49150D01*
X49250Y5500D01*
X48650Y5900D02*
X48550Y6000D01*
X48350D01*
X48251Y5900D01*
Y5800D01*
X48350Y5700D01*
X48450D01*
X48350D01*
X48251Y5600D01*
Y5500D01*
X48350Y5400D01*
X48550D01*
X48650Y5500D01*
X55200Y6000D02*
Y5500D01*
X55100Y5400D01*
X54900D01*
X54800Y5500D01*
Y6000D01*
X54600Y5400D02*
X54400D01*
X54500D01*
Y6000D01*
X54600Y5900D01*
X54100D02*
X54000Y6000D01*
X53800D01*
X53700Y5900D01*
Y5500D01*
X53800Y5400D01*
X54000D01*
X54100Y5500D01*
Y5900D01*
X55945Y22935D02*
X55545D01*
X55745D01*
Y22335D01*
X55345D02*
Y22935D01*
X55045D01*
X54945Y22835D01*
Y22635D01*
X55045Y22535D01*
X55345D01*
X54346Y22335D02*
X54745D01*
X54346Y22735D01*
Y22835D01*
X54445Y22935D01*
X54645D01*
X54745Y22835D01*
X54146Y22335D02*
X53946D01*
X54046D01*
Y22935D01*
X54146Y22835D01*
X33600Y24600D02*
X33200D01*
X33400D01*
Y24000D01*
X33000D02*
Y24600D01*
X32700D01*
X32600Y24500D01*
Y24300D01*
X32700Y24200D01*
X33000D01*
X32001Y24000D02*
X32400D01*
X32001Y24400D01*
Y24500D01*
X32100Y24600D01*
X32300D01*
X32400Y24500D01*
X31801D02*
X31701Y24600D01*
X31501D01*
X31401Y24500D01*
Y24100D01*
X31501Y24000D01*
X31701D01*
X31801Y24100D01*
Y24500D01*
X37100Y52700D02*
X36700D01*
X36900D01*
Y52100D01*
X36500D02*
Y52700D01*
X36200D01*
X36100Y52600D01*
Y52400D01*
X36200Y52300D01*
X36500D01*
X35900Y52100D02*
X35700D01*
X35800D01*
Y52700D01*
X35900Y52600D01*
X35401D02*
X35301Y52700D01*
X35101D01*
X35001Y52600D01*
Y52500D01*
X35101Y52400D01*
X35001Y52300D01*
Y52200D01*
X35101Y52100D01*
X35301D01*
X35401Y52200D01*
Y52300D01*
X35301Y52400D01*
X35401Y52500D01*
Y52600D01*
X35301Y52400D02*
X35101D01*
X34250Y49800D02*
X33850D01*
X34050D01*
Y49200D01*
X33650D02*
Y49800D01*
X33350D01*
X33250Y49700D01*
Y49500D01*
X33350Y49400D01*
X33650D01*
X33050Y49200D02*
X32850D01*
X32950D01*
Y49800D01*
X33050Y49700D01*
X32551Y49800D02*
X32151D01*
Y49700D01*
X32551Y49300D01*
Y49200D01*
X30350Y51300D02*
Y50900D01*
Y51100D01*
X30950D01*
Y50700D02*
X30350D01*
Y50400D01*
X30450Y50300D01*
X30650D01*
X30750Y50400D01*
Y50700D01*
X30950Y50100D02*
Y49900D01*
Y50000D01*
X30350D01*
X30450Y50100D01*
X30350Y49201D02*
X30450Y49401D01*
X30650Y49601D01*
X30850D01*
X30950Y49501D01*
Y49301D01*
X30850Y49201D01*
X30750D01*
X30650Y49301D01*
Y49601D01*
X7450Y23650D02*
X7050D01*
X7250D01*
Y23050D01*
X6850D02*
Y23650D01*
X6550D01*
X6450Y23550D01*
Y23350D01*
X6550Y23250D01*
X6850D01*
X6250Y23050D02*
X6050D01*
X6150D01*
Y23650D01*
X6250Y23550D01*
X5351Y23650D02*
X5751D01*
Y23350D01*
X5551Y23450D01*
X5451D01*
X5351Y23350D01*
Y23150D01*
X5451Y23050D01*
X5651D01*
X5751Y23150D01*
X3800Y5850D02*
X3400D01*
X3600D01*
Y5250D01*
X3200D02*
Y5850D01*
X2900D01*
X2800Y5750D01*
Y5550D01*
X2900Y5450D01*
X3200D01*
X2600Y5250D02*
X2400D01*
X2500D01*
Y5850D01*
X2600Y5750D01*
X1801Y5250D02*
Y5850D01*
X2101Y5550D01*
X1701D01*
X50445Y55185D02*
X50045D01*
X50245D01*
Y54585D01*
X49845D02*
Y55185D01*
X49545D01*
X49445Y55085D01*
Y54885D01*
X49545Y54785D01*
X49845D01*
X49245Y54585D02*
X49045D01*
X49145D01*
Y55185D01*
X49245Y55085D01*
X48746D02*
X48646Y55185D01*
X48446D01*
X48346Y55085D01*
Y54985D01*
X48446Y54885D01*
X48546D01*
X48446D01*
X48346Y54785D01*
Y54685D01*
X48446Y54585D01*
X48646D01*
X48746Y54685D01*
X43445Y55185D02*
X43045D01*
X43245D01*
Y54585D01*
X42845D02*
Y55185D01*
X42545D01*
X42445Y55085D01*
Y54885D01*
X42545Y54785D01*
X42845D01*
X42245Y54585D02*
X42045D01*
X42145D01*
Y55185D01*
X42245Y55085D01*
X41346Y54585D02*
X41746D01*
X41346Y54985D01*
Y55085D01*
X41446Y55185D01*
X41646D01*
X41746Y55085D01*
X42650Y38700D02*
X42250D01*
X42450D01*
Y38100D01*
X42050D02*
Y38700D01*
X41750D01*
X41650Y38600D01*
Y38400D01*
X41750Y38300D01*
X42050D01*
X41450Y38100D02*
X41250D01*
X41350D01*
Y38700D01*
X41450Y38600D01*
X40951Y38100D02*
X40751D01*
X40851D01*
Y38700D01*
X40951Y38600D01*
X43445Y49685D02*
X43045D01*
X43245D01*
Y49085D01*
X42845D02*
Y49685D01*
X42545D01*
X42445Y49585D01*
Y49385D01*
X42545Y49285D01*
X42845D01*
X42245Y49085D02*
X42045D01*
X42145D01*
Y49685D01*
X42245Y49585D01*
X41746D02*
X41646Y49685D01*
X41446D01*
X41346Y49585D01*
Y49185D01*
X41446Y49085D01*
X41646D01*
X41746Y49185D01*
Y49585D01*
X54900Y10850D02*
X54500D01*
X54700D01*
Y10250D01*
X54300D02*
Y10850D01*
X54000D01*
X53900Y10750D01*
Y10550D01*
X54000Y10450D01*
X54300D01*
X53700Y10350D02*
X53600Y10250D01*
X53400D01*
X53301Y10350D01*
Y10750D01*
X53400Y10850D01*
X53600D01*
X53700Y10750D01*
Y10650D01*
X53600Y10550D01*
X53301D01*
X48950Y10900D02*
X48550D01*
X48750D01*
Y10300D01*
X48350D02*
Y10900D01*
X48050D01*
X47950Y10800D01*
Y10600D01*
X48050Y10500D01*
X48350D01*
X47750Y10800D02*
X47650Y10900D01*
X47450D01*
X47351Y10800D01*
Y10700D01*
X47450Y10600D01*
X47351Y10500D01*
Y10400D01*
X47450Y10300D01*
X47650D01*
X47750Y10400D01*
Y10500D01*
X47650Y10600D01*
X47750Y10700D01*
Y10800D01*
X47650Y10600D02*
X47450D01*
X67445Y21685D02*
X67045D01*
X67245D01*
Y21085D01*
X66845D02*
Y21685D01*
X66545D01*
X66445Y21585D01*
Y21385D01*
X66545Y21285D01*
X66845D01*
X66245Y21685D02*
X65846D01*
Y21585D01*
X66245Y21185D01*
Y21085D01*
X42650Y34950D02*
X42250D01*
X42450D01*
Y34350D01*
X42050D02*
Y34950D01*
X41750D01*
X41650Y34850D01*
Y34650D01*
X41750Y34550D01*
X42050D01*
X41051Y34950D02*
X41250Y34850D01*
X41450Y34650D01*
Y34450D01*
X41350Y34350D01*
X41150D01*
X41051Y34450D01*
Y34550D01*
X41150Y34650D01*
X41450D01*
X35300Y23100D02*
X34900D01*
X35100D01*
Y22500D01*
X34700D02*
Y23100D01*
X34400D01*
X34300Y23000D01*
Y22800D01*
X34400Y22700D01*
X34700D01*
X33701Y23100D02*
X34100D01*
Y22800D01*
X33900Y22900D01*
X33800D01*
X33701Y22800D01*
Y22600D01*
X33800Y22500D01*
X34000D01*
X34100Y22600D01*
X12300Y23050D02*
X11900D01*
X12100D01*
Y22450D01*
X11701D02*
Y23050D01*
X11401D01*
X11301Y22950D01*
Y22750D01*
X11401Y22650D01*
X11701D01*
X10801Y22450D02*
Y23050D01*
X11101Y22750D01*
X10701D01*
X13000Y12150D02*
X12600D01*
X12800D01*
Y11550D01*
X12400D02*
Y12150D01*
X12100D01*
X12000Y12050D01*
Y11850D01*
X12100Y11750D01*
X12400D01*
X11800Y12050D02*
X11700Y12150D01*
X11500D01*
X11401Y12050D01*
Y11950D01*
X11500Y11850D01*
X11600D01*
X11500D01*
X11401Y11750D01*
Y11650D01*
X11500Y11550D01*
X11700D01*
X11800Y11650D01*
X23650Y15900D02*
X23250D01*
X23450D01*
Y15300D01*
X23051D02*
Y15900D01*
X22751D01*
X22651Y15800D01*
Y15600D01*
X22751Y15500D01*
X23051D01*
X22051Y15300D02*
X22451D01*
X22051Y15700D01*
Y15800D01*
X22151Y15900D01*
X22351D01*
X22451Y15800D01*
X20500Y23050D02*
X20100D01*
X20300D01*
Y22450D01*
X19901D02*
Y23050D01*
X19601D01*
X19501Y22950D01*
Y22750D01*
X19601Y22650D01*
X19901D01*
X19301Y22450D02*
X19101D01*
X19201D01*
Y23050D01*
X19301Y22950D01*
X29700Y1200D02*
Y1800D01*
X29400D01*
X29300Y1700D01*
Y1500D01*
X29400Y1400D01*
X29700D01*
X29500D02*
X29300Y1200D01*
X29100D02*
X28900D01*
X29000D01*
Y1800D01*
X29100Y1700D01*
X28300Y1200D02*
Y1800D01*
X28600Y1500D01*
X28200D01*
X27601Y1200D02*
X28001D01*
X27601Y1600D01*
Y1700D01*
X27701Y1800D01*
X27901D01*
X28001Y1700D01*
D63*
X44396Y-3984D02*
Y-2016D01*
X45104Y-3984D02*
Y-2016D01*
X44396Y-3984D02*
X45104D01*
X44396Y-2016D02*
X45104D01*
X53516Y3854D02*
X55484D01*
X53516Y3146D02*
X55484D01*
X53516D02*
Y3854D01*
X55484Y3146D02*
Y3854D01*
X48016D02*
X49984D01*
X48016Y3146D02*
X49984D01*
X48016D02*
Y3854D01*
X49984Y3146D02*
Y3854D01*
X55099Y35556D02*
Y36344D01*
X54001Y35556D02*
Y36344D01*
X54851Y25706D02*
Y26494D01*
X55949Y25706D02*
Y26494D01*
X55299Y44456D02*
Y45244D01*
X54201Y44456D02*
Y45244D01*
X52556Y53101D02*
X53344D01*
X52556Y54199D02*
X53344D01*
X36146Y40268D02*
X36854D01*
X36146Y43732D02*
X36854D01*
X36146Y40268D02*
Y43732D01*
X36854Y40268D02*
Y43732D01*
X58652Y-2467D02*
X58848D01*
X58652Y-2033D02*
X58848D01*
X54961Y33504D02*
X55039D01*
X54961Y33996D02*
X55039D01*
X54961Y28746D02*
X55039D01*
X54961Y28254D02*
X55039D01*
X54911Y42754D02*
X54989D01*
X54911Y43246D02*
X54989D01*
X53961Y52746D02*
X54039D01*
X53961Y52254D02*
X54039D01*
X36433Y36052D02*
Y36248D01*
X36867Y36052D02*
Y36248D01*
X33441Y29978D02*
Y30175D01*
X33874Y29978D02*
Y30175D01*
X32654Y29978D02*
Y30175D01*
X33087Y29978D02*
Y30175D01*
X12461Y28504D02*
X12539D01*
X12461Y28996D02*
X12539D01*
X27996Y30961D02*
Y31039D01*
X27504Y30961D02*
Y31039D01*
X29711Y30754D02*
X29789D01*
X29711Y31246D02*
X29789D01*
X31711D02*
X31789D01*
X31711Y30754D02*
X31789D01*
X34746Y30011D02*
Y30089D01*
X34254Y30011D02*
Y30089D01*
X34496Y32011D02*
Y32089D01*
X34004Y32011D02*
Y32089D01*
X35161Y34754D02*
X35239D01*
X35161Y35246D02*
X35239D01*
X34496Y33711D02*
Y33789D01*
X34004Y33711D02*
Y33789D01*
X34496Y36211D02*
Y36289D01*
X34004Y36211D02*
Y36289D01*
X33761Y37746D02*
X33839D01*
X33761Y37254D02*
X33839D01*
X31711D02*
X31789D01*
X31711Y37746D02*
X31789D01*
X29961D02*
X30039D01*
X29961Y37254D02*
X30039D01*
X26461Y29696D02*
X26539D01*
X26461Y29204D02*
X26539D01*
X28454Y38661D02*
Y38739D01*
X28946Y38661D02*
Y38739D01*
X27996Y35461D02*
Y35539D01*
X27504Y35461D02*
Y35539D01*
X58652Y-3033D02*
X58848D01*
X58652Y-3467D02*
X58848D01*
X9246Y9461D02*
Y9539D01*
X8754Y9461D02*
Y9539D01*
X51033Y13152D02*
Y13348D01*
X51467Y13152D02*
Y13348D01*
X49033Y13152D02*
Y13348D01*
X49467Y13152D02*
Y13348D01*
X5104Y28711D02*
Y28789D01*
X5596Y28711D02*
Y28789D01*
X5104Y25711D02*
Y25789D01*
X5596Y25711D02*
Y25789D01*
X27211Y16504D02*
X27289D01*
X27211Y16996D02*
X27289D01*
X15152Y1033D02*
X15348D01*
X15152Y1467D02*
X15348D01*
X27504Y33461D02*
Y33539D01*
X27996Y33461D02*
Y33539D01*
X36461Y33254D02*
X36539D01*
X36461Y33746D02*
X36539D01*
X36461Y30754D02*
X36539D01*
X36461Y31246D02*
X36539D01*
X37065Y32112D02*
Y32388D01*
X36435Y32112D02*
Y32388D01*
X28461Y18746D02*
X28539D01*
X28461Y18254D02*
X28539D01*
X28911Y16996D02*
X28989D01*
X28911Y16504D02*
X28989D01*
X30711D02*
X30789D01*
X30711Y16996D02*
X30789D01*
X31711Y18254D02*
X31789D01*
X31711Y18746D02*
X31789D01*
X32461Y16504D02*
X32539D01*
X32461Y16996D02*
X32539D01*
X29152Y533D02*
X29348D01*
X29152Y967D02*
X29348D01*
D130*
X43854Y-4085D02*
G03*
X43854Y-4085I-49J0D01*
G01*
X53465Y4445D02*
G03*
X53465Y4445I-49J0D01*
G01*
X47965D02*
G03*
X47965Y4445I-49J0D01*
G01*
X37494Y43835D02*
G03*
X37494Y43835I-49J0D01*
G01*
D135*
X15550Y550D02*
Y825D01*
X15412D01*
X15366Y780D01*
Y688D01*
X15412Y642D01*
X15550D01*
X15458D02*
X15366Y550D01*
X15091Y825D02*
X15274D01*
Y688D01*
X15183Y734D01*
X15137D01*
X15091Y688D01*
Y596D01*
X15137Y550D01*
X15229D01*
X15274Y596D01*
X14999Y550D02*
X14907D01*
X14953D01*
Y825D01*
X14999Y780D01*
X28834Y16020D02*
X28788Y15975D01*
X28696D01*
X28650Y16020D01*
Y16204D01*
X28696Y16250D01*
X28788D01*
X28834Y16204D01*
X28925Y16020D02*
X28971Y15975D01*
X29063D01*
X29109Y16020D01*
Y16066D01*
X29063Y16112D01*
X29017D01*
X29063D01*
X29109Y16158D01*
Y16204D01*
X29063Y16250D01*
X28971D01*
X28925Y16204D01*
X29201Y16250D02*
X29293D01*
X29247D01*
Y15975D01*
X29201Y16020D01*
X26684Y16070D02*
X26638Y16025D01*
X26546D01*
X26500Y16070D01*
Y16254D01*
X26546Y16300D01*
X26638D01*
X26684Y16254D01*
X26776Y16070D02*
X26821Y16025D01*
X26913D01*
X26959Y16070D01*
Y16116D01*
X26913Y16162D01*
X26867D01*
X26913D01*
X26959Y16208D01*
Y16254D01*
X26913Y16300D01*
X26821D01*
X26776Y16254D01*
X27051Y16070D02*
X27097Y16025D01*
X27189D01*
X27235Y16070D01*
Y16254D01*
X27189Y16300D01*
X27097D01*
X27051Y16254D01*
Y16070D01*
X28616Y19180D02*
X28662Y19225D01*
X28754D01*
X28800Y19180D01*
Y18996D01*
X28754Y18950D01*
X28662D01*
X28616Y18996D01*
X28341Y18950D02*
X28524D01*
X28341Y19134D01*
Y19180D01*
X28387Y19225D01*
X28479D01*
X28524Y19180D01*
X28249Y18996D02*
X28203Y18950D01*
X28111D01*
X28065Y18996D01*
Y19180D01*
X28111Y19225D01*
X28203D01*
X28249Y19180D01*
Y19134D01*
X28203Y19088D01*
X28065D01*
X6080Y25584D02*
X6126Y25538D01*
Y25446D01*
X6080Y25400D01*
X5896D01*
X5850Y25446D01*
Y25538D01*
X5896Y25584D01*
X5850Y25859D02*
Y25675D01*
X6034Y25859D01*
X6080D01*
X6126Y25813D01*
Y25721D01*
X6080Y25675D01*
X6126Y26135D02*
Y25951D01*
X5988D01*
X6034Y26043D01*
Y26089D01*
X5988Y26135D01*
X5896D01*
X5850Y26089D01*
Y25997D01*
X5896Y25951D01*
X6080Y28584D02*
X6126Y28538D01*
Y28446D01*
X6080Y28400D01*
X5896D01*
X5850Y28446D01*
Y28538D01*
X5896Y28584D01*
X5850Y28675D02*
Y28767D01*
Y28721D01*
X6126D01*
X6080Y28675D01*
Y28905D02*
X6126Y28951D01*
Y29043D01*
X6080Y29089D01*
X6034D01*
X5988Y29043D01*
Y28997D01*
Y29043D01*
X5942Y29089D01*
X5896D01*
X5850Y29043D01*
Y28951D01*
X5896Y28905D01*
X49650Y12650D02*
X49965D01*
Y12807D01*
X49912Y12860D01*
X49807D01*
X49755Y12807D01*
Y12650D01*
Y12755D02*
X49650Y12860D01*
Y12965D02*
Y13070D01*
Y13017D01*
X49965D01*
X49912Y12965D01*
X49965Y13437D02*
Y13227D01*
X49807D01*
X49860Y13332D01*
Y13385D01*
X49807Y13437D01*
X49702D01*
X49650Y13385D01*
Y13280D01*
X49702Y13227D01*
X49965Y13752D02*
Y13542D01*
X49807D01*
X49860Y13647D01*
Y13700D01*
X49807Y13752D01*
X49702D01*
X49650Y13700D01*
Y13595D01*
X49702Y13542D01*
X51650Y12700D02*
X51965D01*
Y12857D01*
X51912Y12910D01*
X51807D01*
X51755Y12857D01*
Y12700D01*
Y12805D02*
X51650Y12910D01*
Y13015D02*
Y13120D01*
Y13067D01*
X51965D01*
X51912Y13015D01*
X51965Y13487D02*
Y13277D01*
X51807D01*
X51860Y13382D01*
Y13435D01*
X51807Y13487D01*
X51702D01*
X51650Y13435D01*
Y13330D01*
X51702Y13277D01*
X51650Y13750D02*
X51965D01*
X51807Y13592D01*
Y13802D01*
X9186Y10820D02*
X9232Y10865D01*
X9324D01*
X9370Y10820D01*
Y10636D01*
X9324Y10590D01*
X9232D01*
X9186Y10636D01*
X8911Y10865D02*
X9003Y10820D01*
X9094Y10728D01*
Y10636D01*
X9049Y10590D01*
X8957D01*
X8911Y10636D01*
Y10682D01*
X8957Y10728D01*
X9094D01*
X8635Y10590D02*
X8819D01*
X8635Y10774D01*
Y10820D01*
X8681Y10865D01*
X8773D01*
X8819Y10820D01*
X56966Y-3754D02*
Y-3570D01*
X57012Y-3525D01*
X57104D01*
X57150Y-3570D01*
Y-3754D01*
X57104Y-3800D01*
X57012D01*
X57058Y-3708D02*
X56966Y-3800D01*
X57012D02*
X56966Y-3754D01*
X56874Y-3570D02*
X56829Y-3525D01*
X56737D01*
X56691Y-3570D01*
Y-3616D01*
X56737Y-3662D01*
X56783D01*
X56737D01*
X56691Y-3708D01*
Y-3754D01*
X56737Y-3800D01*
X56829D01*
X56874Y-3754D01*
X56599Y-3800D02*
X56507D01*
X56553D01*
Y-3525D01*
X56599Y-3570D01*
X59250Y-3950D02*
Y-3674D01*
X59112D01*
X59066Y-3720D01*
Y-3812D01*
X59112Y-3858D01*
X59250D01*
X59158D02*
X59066Y-3950D01*
X58974D02*
X58883D01*
X58929D01*
Y-3674D01*
X58974Y-3720D01*
X58561Y-3674D02*
X58745D01*
Y-3812D01*
X58653Y-3766D01*
X58607D01*
X58561Y-3812D01*
Y-3904D01*
X58607Y-3950D01*
X58699D01*
X58745Y-3904D01*
X58469Y-3674D02*
X58286D01*
Y-3720D01*
X58469Y-3904D01*
Y-3950D01*
X28480Y33284D02*
X28526Y33238D01*
Y33146D01*
X28480Y33100D01*
X28296D01*
X28250Y33146D01*
Y33238D01*
X28296Y33284D01*
X28526Y33559D02*
Y33375D01*
X28388D01*
X28434Y33467D01*
Y33513D01*
X28388Y33559D01*
X28296D01*
X28250Y33513D01*
Y33421D01*
X28296Y33375D01*
X28250Y33835D02*
Y33651D01*
X28434Y33835D01*
X28480D01*
X28526Y33789D01*
Y33697D01*
X28480Y33651D01*
X2800Y17875D02*
Y17600D01*
X2662D01*
X2616Y17646D01*
Y17830D01*
X2662Y17875D01*
X2800D01*
X2341Y17600D02*
X2524D01*
X2341Y17784D01*
Y17830D01*
X2387Y17875D01*
X2479D01*
X2524Y17830D01*
X2249D02*
X2203Y17875D01*
X2111D01*
X2065Y17830D01*
Y17784D01*
X2111Y17738D01*
X2157D01*
X2111D01*
X2065Y17692D01*
Y17646D01*
X2111Y17600D01*
X2203D01*
X2249Y17646D01*
X2800Y20375D02*
Y20100D01*
X2662D01*
X2616Y20146D01*
Y20330D01*
X2662Y20375D01*
X2800D01*
X2341Y20100D02*
X2524D01*
X2341Y20284D01*
Y20330D01*
X2387Y20375D01*
X2479D01*
X2524Y20330D01*
X2249Y20100D02*
X2157D01*
X2203D01*
Y20375D01*
X2249Y20330D01*
X3750Y20025D02*
Y19750D01*
X3612D01*
X3566Y19796D01*
Y19980D01*
X3612Y20025D01*
X3750D01*
X3291Y19750D02*
X3474D01*
X3291Y19934D01*
Y19980D01*
X3337Y20025D01*
X3429D01*
X3474Y19980D01*
X3015Y19750D02*
X3199D01*
X3015Y19934D01*
Y19980D01*
X3061Y20025D01*
X3153D01*
X3199Y19980D01*
X-2050Y23100D02*
Y23700D01*
X-2350D01*
X-2450Y23600D01*
Y23400D01*
X-2350Y23300D01*
X-2050D01*
X-2650Y23100D02*
X-2850D01*
X-2750D01*
Y23700D01*
X-2650Y23600D01*
X-3150Y23100D02*
X-3350D01*
X-3250D01*
Y23700D01*
X-3150Y23600D01*
X28016Y36630D02*
X28062Y36676D01*
X28154D01*
X28200Y36630D01*
Y36446D01*
X28154Y36400D01*
X28062D01*
X28016Y36446D01*
X27787Y36400D02*
Y36676D01*
X27924Y36538D01*
X27741D01*
X27649Y36446D02*
X27603Y36400D01*
X27511D01*
X27465Y36446D01*
Y36630D01*
X27511Y36676D01*
X27603D01*
X27649Y36630D01*
Y36584D01*
X27603Y36538D01*
X27465D01*
X28916Y39830D02*
X28962Y39876D01*
X29054D01*
X29100Y39830D01*
Y39646D01*
X29054Y39600D01*
X28962D01*
X28916Y39646D01*
X28687Y39600D02*
Y39876D01*
X28825Y39738D01*
X28641D01*
X28411Y39600D02*
Y39876D01*
X28549Y39738D01*
X28365D01*
X26716Y30130D02*
X26762Y30175D01*
X26854D01*
X26900Y30130D01*
Y29946D01*
X26854Y29900D01*
X26762D01*
X26716Y29946D01*
X26441Y30175D02*
X26625D01*
Y30038D01*
X26533Y30084D01*
X26487D01*
X26441Y30038D01*
Y29946D01*
X26487Y29900D01*
X26579D01*
X26625Y29946D01*
X26349D02*
X26303Y29900D01*
X26211D01*
X26165Y29946D01*
Y30130D01*
X26211Y30175D01*
X26303D01*
X26349Y30130D01*
Y30084D01*
X26303Y30038D01*
X26165D01*
X30116Y38180D02*
X30162Y38226D01*
X30254D01*
X30300Y38180D01*
Y37996D01*
X30254Y37950D01*
X30162D01*
X30116Y37996D01*
X29887Y37950D02*
Y38226D01*
X30024Y38088D01*
X29841D01*
X29749Y38226D02*
X29565D01*
Y38180D01*
X29749Y37996D01*
Y37950D01*
X31966Y38180D02*
X32012Y38226D01*
X32104D01*
X32150Y38180D01*
Y37996D01*
X32104Y37950D01*
X32012D01*
X31966Y37996D01*
X31737Y37950D02*
Y38226D01*
X31874Y38088D01*
X31691D01*
X31415Y38226D02*
X31507Y38180D01*
X31599Y38088D01*
Y37996D01*
X31553Y37950D01*
X31461D01*
X31415Y37996D01*
Y38042D01*
X31461Y38088D01*
X31599D01*
X34016Y38180D02*
X34062Y38226D01*
X34154D01*
X34200Y38180D01*
Y37996D01*
X34154Y37950D01*
X34062D01*
X34016Y37996D01*
X33787Y37950D02*
Y38226D01*
X33925Y38088D01*
X33741D01*
X33465Y38226D02*
X33649D01*
Y38088D01*
X33557Y38134D01*
X33511D01*
X33465Y38088D01*
Y37996D01*
X33511Y37950D01*
X33603D01*
X33649Y37996D01*
X34980Y36034D02*
X35025Y35988D01*
Y35896D01*
X34980Y35850D01*
X34796D01*
X34750Y35896D01*
Y35988D01*
X34796Y36034D01*
X34750Y36263D02*
X35025D01*
X34888Y36126D01*
Y36309D01*
X34980Y36401D02*
X35025Y36447D01*
Y36539D01*
X34980Y36585D01*
X34934D01*
X34888Y36539D01*
X34842Y36585D01*
X34796D01*
X34750Y36539D01*
Y36447D01*
X34796Y36401D01*
X34842D01*
X34888Y36447D01*
X34934Y36401D01*
X34980D01*
X34888Y36447D02*
Y36539D01*
X33234Y33709D02*
X33188Y33663D01*
X33096D01*
X33050Y33709D01*
Y33893D01*
X33096Y33939D01*
X33188D01*
X33234Y33893D01*
X33509Y33663D02*
X33326D01*
Y33801D01*
X33417Y33755D01*
X33463D01*
X33509Y33801D01*
Y33893D01*
X33463Y33939D01*
X33371D01*
X33326Y33893D01*
X33601Y33939D02*
X33693D01*
X33647D01*
Y33663D01*
X33601Y33709D01*
X36616Y35130D02*
X36662Y35175D01*
X36754D01*
X36800Y35130D01*
Y34946D01*
X36754Y34900D01*
X36662D01*
X36616Y34946D01*
X36341Y35175D02*
X36525D01*
Y35038D01*
X36433Y35084D01*
X36387D01*
X36341Y35038D01*
Y34946D01*
X36387Y34900D01*
X36479D01*
X36525Y34946D01*
X36249Y35130D02*
X36203Y35175D01*
X36111D01*
X36065Y35130D01*
Y34946D01*
X36111Y34900D01*
X36203D01*
X36249Y34946D01*
Y35130D01*
X34980Y31884D02*
X35025Y31838D01*
Y31746D01*
X34980Y31700D01*
X34796D01*
X34750Y31746D01*
Y31838D01*
X34796Y31884D01*
X35025Y32159D02*
Y31976D01*
X34888D01*
X34934Y32067D01*
Y32113D01*
X34888Y32159D01*
X34796D01*
X34750Y32113D01*
Y32021D01*
X34796Y31976D01*
X34750Y32389D02*
X35025D01*
X34888Y32251D01*
Y32435D01*
X35180Y29884D02*
X35226Y29838D01*
Y29746D01*
X35180Y29700D01*
X34996D01*
X34950Y29746D01*
Y29838D01*
X34996Y29884D01*
X35226Y30159D02*
Y29976D01*
X35088D01*
X35134Y30067D01*
Y30113D01*
X35088Y30159D01*
X34996D01*
X34950Y30113D01*
Y30021D01*
X34996Y29976D01*
X35180Y30251D02*
X35226Y30297D01*
Y30389D01*
X35180Y30435D01*
X35134D01*
X35088Y30389D01*
X35042Y30435D01*
X34996D01*
X34950Y30389D01*
Y30297D01*
X34996Y30251D01*
X35042D01*
X35088Y30297D01*
X35134Y30251D01*
X35180D01*
X35088Y30297D02*
Y30389D01*
X31966Y31680D02*
X32012Y31725D01*
X32104D01*
X32150Y31680D01*
Y31496D01*
X32104Y31450D01*
X32012D01*
X31966Y31496D01*
X31691Y31725D02*
X31874D01*
Y31588D01*
X31783Y31634D01*
X31737D01*
X31691Y31588D01*
Y31496D01*
X31737Y31450D01*
X31829D01*
X31874Y31496D01*
X31415Y31725D02*
X31507Y31680D01*
X31599Y31588D01*
Y31496D01*
X31553Y31450D01*
X31461D01*
X31415Y31496D01*
Y31542D01*
X31461Y31588D01*
X31599D01*
X29916Y31680D02*
X29962Y31725D01*
X30054D01*
X30100Y31680D01*
Y31496D01*
X30054Y31450D01*
X29962D01*
X29916Y31496D01*
X29641Y31725D02*
X29825D01*
Y31588D01*
X29733Y31634D01*
X29687D01*
X29641Y31588D01*
Y31496D01*
X29687Y31450D01*
X29779D01*
X29825Y31496D01*
X29549Y31725D02*
X29365D01*
Y31680D01*
X29549Y31496D01*
Y31450D01*
X28480Y30784D02*
X28526Y30738D01*
Y30646D01*
X28480Y30600D01*
X28296D01*
X28250Y30646D01*
Y30738D01*
X28296Y30784D01*
X28526Y31059D02*
Y30875D01*
X28388D01*
X28434Y30967D01*
Y31013D01*
X28388Y31059D01*
X28296D01*
X28250Y31013D01*
Y30921D01*
X28296Y30875D01*
X28526Y31335D02*
Y31151D01*
X28388D01*
X28434Y31243D01*
Y31289D01*
X28388Y31335D01*
X28296D01*
X28250Y31289D01*
Y31197D01*
X28296Y31151D01*
X12616Y29530D02*
X12662Y29576D01*
X12754D01*
X12800Y29530D01*
Y29346D01*
X12754Y29300D01*
X12662D01*
X12616Y29346D01*
X12341Y29576D02*
X12433Y29530D01*
X12524Y29438D01*
Y29346D01*
X12479Y29300D01*
X12387D01*
X12341Y29346D01*
Y29392D01*
X12387Y29438D01*
X12524D01*
X12249Y29530D02*
X12203Y29576D01*
X12111D01*
X12065Y29530D01*
Y29346D01*
X12111Y29300D01*
X12203D01*
X12249Y29346D01*
Y29530D01*
X32750Y28350D02*
X33026D01*
Y28488D01*
X32980Y28534D01*
X32888D01*
X32842Y28488D01*
Y28350D01*
Y28442D02*
X32750Y28534D01*
Y28626D02*
Y28717D01*
Y28671D01*
X33026D01*
X32980Y28626D01*
X33026Y29039D02*
Y28855D01*
X32888D01*
X32934Y28947D01*
Y28993D01*
X32888Y29039D01*
X32796D01*
X32750Y28993D01*
Y28901D01*
X32796Y28855D01*
X32980Y29131D02*
X33026Y29177D01*
Y29268D01*
X32980Y29314D01*
X32934D01*
X32888Y29268D01*
Y29222D01*
Y29268D01*
X32842Y29314D01*
X32796D01*
X32750Y29268D01*
Y29177D01*
X32796Y29131D01*
X33550Y28350D02*
X33826D01*
Y28488D01*
X33780Y28534D01*
X33688D01*
X33642Y28488D01*
Y28350D01*
Y28442D02*
X33550Y28534D01*
Y28626D02*
Y28717D01*
Y28671D01*
X33826D01*
X33780Y28626D01*
X33826Y29039D02*
Y28855D01*
X33688D01*
X33734Y28947D01*
Y28993D01*
X33688Y29039D01*
X33596D01*
X33550Y28993D01*
Y28901D01*
X33596Y28855D01*
X33550Y29314D02*
Y29131D01*
X33734Y29314D01*
X33780D01*
X33826Y29268D01*
Y29177D01*
X33780Y29131D01*
X37100Y36950D02*
Y37225D01*
X36962D01*
X36916Y37180D01*
Y37088D01*
X36962Y37042D01*
X37100D01*
X37008D02*
X36916Y36950D01*
X36825D02*
X36733D01*
X36779D01*
Y37225D01*
X36825Y37180D01*
X36411Y37225D02*
X36595D01*
Y37088D01*
X36503Y37134D01*
X36457D01*
X36411Y37088D01*
Y36996D01*
X36457Y36950D01*
X36549D01*
X36595Y36996D01*
X36319Y36950D02*
X36228D01*
X36273D01*
Y37225D01*
X36319Y37180D01*
X54166Y51980D02*
X54212Y52025D01*
X54304D01*
X54350Y51980D01*
Y51796D01*
X54304Y51750D01*
X54212D01*
X54166Y51796D01*
X53937Y51750D02*
Y52025D01*
X54075Y51888D01*
X53891D01*
X53615Y51750D02*
X53799D01*
X53615Y51934D01*
Y51980D01*
X53661Y52025D01*
X53753D01*
X53799Y51980D01*
X55166Y42480D02*
X55212Y42526D01*
X55304D01*
X55350Y42480D01*
Y42296D01*
X55304Y42250D01*
X55212D01*
X55166Y42296D01*
X54937Y42250D02*
Y42526D01*
X55075Y42388D01*
X54891D01*
X54799Y42480D02*
X54753Y42526D01*
X54661D01*
X54615Y42480D01*
Y42434D01*
X54661Y42388D01*
X54707D01*
X54661D01*
X54615Y42342D01*
Y42296D01*
X54661Y42250D01*
X54753D01*
X54799Y42296D01*
X55166Y27930D02*
X55212Y27975D01*
X55304D01*
X55350Y27930D01*
Y27746D01*
X55304Y27700D01*
X55212D01*
X55166Y27746D01*
X54891Y27975D02*
X55075D01*
Y27838D01*
X54983Y27884D01*
X54937D01*
X54891Y27838D01*
Y27746D01*
X54937Y27700D01*
X55029D01*
X55075Y27746D01*
X54799Y27930D02*
X54753Y27975D01*
X54661D01*
X54615Y27930D01*
Y27884D01*
X54661Y27838D01*
X54707D01*
X54661D01*
X54615Y27792D01*
Y27746D01*
X54661Y27700D01*
X54753D01*
X54799Y27746D01*
X55166Y33230D02*
X55212Y33275D01*
X55304D01*
X55350Y33230D01*
Y33046D01*
X55304Y33000D01*
X55212D01*
X55166Y33046D01*
X54891Y33275D02*
X54983Y33230D01*
X55075Y33138D01*
Y33046D01*
X55029Y33000D01*
X54937D01*
X54891Y33046D01*
Y33092D01*
X54937Y33138D01*
X55075D01*
X54799Y33000D02*
X54707D01*
X54753D01*
Y33275D01*
X54799Y33230D01*
X59200Y-1810D02*
Y-1534D01*
X59062D01*
X59016Y-1580D01*
Y-1672D01*
X59062Y-1718D01*
X59200D01*
X59108D02*
X59016Y-1810D01*
X58924D02*
X58833D01*
X58879D01*
Y-1534D01*
X58924Y-1580D01*
X58511Y-1534D02*
X58695D01*
Y-1672D01*
X58603Y-1626D01*
X58557D01*
X58511Y-1672D01*
Y-1764D01*
X58557Y-1810D01*
X58649D01*
X58695Y-1764D01*
X58236Y-1534D02*
X58328Y-1580D01*
X58419Y-1672D01*
Y-1764D01*
X58373Y-1810D01*
X58282D01*
X58236Y-1764D01*
Y-1718D01*
X58282Y-1672D01*
X58419D01*
X36900Y44275D02*
Y44046D01*
X36854Y44000D01*
X36762D01*
X36716Y44046D01*
Y44275D01*
X36487Y44000D02*
Y44275D01*
X36625Y44138D01*
X36441D01*
X36165Y44275D02*
X36257Y44230D01*
X36349Y44138D01*
Y44046D01*
X36303Y44000D01*
X36211D01*
X36165Y44046D01*
Y44092D01*
X36211Y44138D01*
X36349D01*
X54370Y55200D02*
Y54600D01*
X53970D01*
X53370Y55200D02*
X53570Y55100D01*
X53770Y54900D01*
Y54700D01*
X53670Y54600D01*
X53470D01*
X53370Y54700D01*
Y54800D01*
X53470Y54900D01*
X53770D01*
X56600Y46150D02*
Y45550D01*
X56200D01*
X56000Y46150D02*
X55600D01*
Y46050D01*
X56000Y45650D01*
Y45550D01*
X57250Y27400D02*
Y26800D01*
X56850D01*
X56650Y27300D02*
X56550Y27400D01*
X56350D01*
X56250Y27300D01*
Y27200D01*
X56350Y27100D01*
X56250Y27000D01*
Y26900D01*
X56350Y26800D01*
X56550D01*
X56650Y26900D01*
Y27000D01*
X56550Y27100D01*
X56650Y27200D01*
Y27300D01*
X56550Y27100D02*
X56350D01*
X56450Y37200D02*
Y36600D01*
X56050D01*
X55850Y36700D02*
X55750Y36600D01*
X55550D01*
X55450Y36700D01*
Y37100D01*
X55550Y37200D01*
X55750D01*
X55850Y37100D01*
Y37000D01*
X55750Y36900D01*
X55450D01*
X37525Y32150D02*
X37250Y32334D01*
X37525D02*
X37250Y32150D01*
Y32609D02*
Y32425D01*
X37434Y32609D01*
X37480D01*
X37525Y32563D01*
Y32471D01*
X37480Y32425D01*
X36716Y30430D02*
X36762Y30475D01*
X36854D01*
X36900Y30430D01*
Y30246D01*
X36854Y30200D01*
X36762D01*
X36716Y30246D01*
X36625Y30475D02*
X36441D01*
Y30430D01*
X36625Y30246D01*
Y30200D01*
X36349Y30430D02*
X36303Y30475D01*
X36211D01*
X36165Y30430D01*
Y30246D01*
X36211Y30200D01*
X36303D01*
X36349Y30246D01*
Y30430D01*
X36666Y34230D02*
X36712Y34276D01*
X36804D01*
X36850Y34230D01*
Y34046D01*
X36804Y34000D01*
X36712D01*
X36666Y34046D01*
X36574Y34276D02*
X36391D01*
Y34230D01*
X36574Y34046D01*
Y34000D01*
X36299D02*
X36207D01*
X36253D01*
Y34276D01*
X36299Y34230D01*
X30534Y16070D02*
X30488Y16025D01*
X30396D01*
X30350Y16070D01*
Y16254D01*
X30396Y16300D01*
X30488D01*
X30534Y16254D01*
X30626Y16025D02*
X30809D01*
Y16070D01*
X30626Y16254D01*
Y16300D01*
X31039D02*
Y16025D01*
X30901Y16162D01*
X31085D01*
X31916Y19180D02*
X31962Y19225D01*
X32054D01*
X32100Y19180D01*
Y18996D01*
X32054Y18950D01*
X31962D01*
X31916Y18996D01*
X31825Y19225D02*
X31641D01*
Y19180D01*
X31825Y18996D01*
Y18950D01*
X31549Y19180D02*
X31503Y19225D01*
X31411D01*
X31365Y19180D01*
Y19134D01*
X31411Y19088D01*
X31457D01*
X31411D01*
X31365Y19042D01*
Y18996D01*
X31411Y18950D01*
X31503D01*
X31549Y18996D01*
X32666Y17430D02*
X32712Y17476D01*
X32804D01*
X32850Y17430D01*
Y17246D01*
X32804Y17200D01*
X32712D01*
X32666Y17246D01*
X32575Y17476D02*
X32391D01*
Y17430D01*
X32575Y17246D01*
Y17200D01*
X32115Y17476D02*
X32299D01*
Y17338D01*
X32207Y17384D01*
X32161D01*
X32115Y17338D01*
Y17246D01*
X32161Y17200D01*
X32253D01*
X32299Y17246D01*
M02*
