G04 Layer_Color=128*
%FSLAX24Y24*%
%MOIN*%
G70*
G01*
G75*
%ADD13R,0.0532X0.0571*%
%ADD14R,0.0335X0.0512*%
%ADD16R,0.0571X0.0532*%
%ADD22O,0.0236X0.0866*%
%ADD23R,0.0512X0.0335*%
%ADD28O,0.0866X0.0236*%
%ADD50R,0.0827X0.1177*%
%ADD54R,0.0394X0.0276*%
%ADD129R,0.0709X0.0394*%
%ADD130R,0.0748X0.0236*%
%ADD131R,0.1102X0.0827*%
%ADD132R,0.1177X0.0827*%
D13*
X32963Y16750D02*
D03*
X32037D02*
D03*
X32213Y18500D02*
D03*
X31287D02*
D03*
X31213Y16750D02*
D03*
X30287D02*
D03*
X28487D02*
D03*
X29413D02*
D03*
X28037Y18500D02*
D03*
X28963D02*
D03*
X36963Y31000D02*
D03*
X36037D02*
D03*
X36963Y33500D02*
D03*
X36037D02*
D03*
X27713Y16750D02*
D03*
X26787D02*
D03*
X26037Y29450D02*
D03*
X26963D02*
D03*
X29537Y37500D02*
D03*
X30463D02*
D03*
X32213D02*
D03*
X31287D02*
D03*
X33337D02*
D03*
X34263D02*
D03*
X35663Y35000D02*
D03*
X34737D02*
D03*
X31287Y31000D02*
D03*
X32213D02*
D03*
X30213D02*
D03*
X29287D02*
D03*
X12963Y28750D02*
D03*
X12037D02*
D03*
X53537Y52500D02*
D03*
X54463D02*
D03*
X55413Y43000D02*
D03*
X54487D02*
D03*
X54537Y28500D02*
D03*
X55463D02*
D03*
Y33750D02*
D03*
X54537D02*
D03*
D14*
X29663Y750D02*
D03*
X28837D02*
D03*
X15663Y1250D02*
D03*
X14837D02*
D03*
X58337Y-3250D02*
D03*
X59163D02*
D03*
Y-2250D02*
D03*
X58337D02*
D03*
D16*
X27750Y33037D02*
D03*
Y33963D02*
D03*
X5350Y25287D02*
D03*
Y26213D02*
D03*
Y28287D02*
D03*
Y29213D02*
D03*
X9000Y9963D02*
D03*
Y9037D02*
D03*
X27750Y35963D02*
D03*
Y35037D02*
D03*
X28700Y38237D02*
D03*
Y39163D02*
D03*
X34250Y36713D02*
D03*
Y35787D02*
D03*
Y34213D02*
D03*
Y33287D02*
D03*
Y32513D02*
D03*
Y31587D02*
D03*
X34500Y30513D02*
D03*
Y29587D02*
D03*
X27750Y31463D02*
D03*
Y30537D02*
D03*
D22*
X52750Y3055D02*
D03*
X52250D02*
D03*
X51750D02*
D03*
X51250D02*
D03*
X52750Y4945D02*
D03*
X52250D02*
D03*
X51750D02*
D03*
X51250D02*
D03*
X55250Y3055D02*
D03*
X54750D02*
D03*
X54250D02*
D03*
X53750D02*
D03*
X55250Y4945D02*
D03*
X54750D02*
D03*
X54250D02*
D03*
X53750D02*
D03*
D23*
X49250Y12837D02*
D03*
Y13663D02*
D03*
X51250Y12837D02*
D03*
Y13663D02*
D03*
X32870Y29663D02*
D03*
Y30490D02*
D03*
X33657Y29663D02*
D03*
Y30490D02*
D03*
X36650Y35737D02*
D03*
Y36563D02*
D03*
D28*
X37445Y43500D02*
D03*
Y43000D02*
D03*
Y42500D02*
D03*
Y42000D02*
D03*
Y41500D02*
D03*
Y41000D02*
D03*
Y40500D02*
D03*
X35555Y43500D02*
D03*
Y43000D02*
D03*
Y42500D02*
D03*
Y42000D02*
D03*
Y41500D02*
D03*
Y41000D02*
D03*
Y40500D02*
D03*
X45695Y-2250D02*
D03*
Y-2750D02*
D03*
Y-3250D02*
D03*
Y-3750D02*
D03*
X43805Y-2250D02*
D03*
Y-2750D02*
D03*
Y-3250D02*
D03*
Y-3750D02*
D03*
D50*
X53897Y53650D02*
D03*
X52003D02*
D03*
D54*
X56278Y-2750D02*
D03*
X57222Y-3124D02*
D03*
Y-2376D02*
D03*
X1722Y18624D02*
D03*
Y17876D02*
D03*
X778Y18250D02*
D03*
X1722Y19750D02*
D03*
X778Y20124D02*
D03*
Y19376D02*
D03*
X3472Y19000D02*
D03*
X2528Y19374D02*
D03*
Y18626D02*
D03*
D129*
X36750Y32742D02*
D03*
Y31758D02*
D03*
D130*
X-1000Y21022D02*
D03*
Y20628D02*
D03*
Y20234D02*
D03*
Y19841D02*
D03*
Y19447D02*
D03*
Y19053D02*
D03*
Y18659D02*
D03*
Y18266D02*
D03*
Y17872D02*
D03*
Y17478D02*
D03*
D131*
X-1925Y16238D02*
D03*
Y22262D02*
D03*
D132*
X54750Y45797D02*
D03*
Y43903D02*
D03*
X55400Y25153D02*
D03*
Y27047D02*
D03*
X54550Y36897D02*
D03*
Y35003D02*
D03*
M02*
