G04 Layer_Color=16711935*
%FSLAX24Y24*%
%MOIN*%
G70*
G01*
G75*
%ADD156R,0.0612X0.0651*%
%ADD157R,0.0415X0.0592*%
%ADD159R,0.0651X0.0612*%
%ADD165O,0.0316X0.0946*%
%ADD166R,0.0592X0.0415*%
%ADD171O,0.0946X0.0316*%
%ADD195R,0.0474X0.0356*%
%ADD201R,0.0671X0.0671*%
%ADD202C,0.0671*%
%ADD203C,0.1080*%
%ADD204R,0.1080X0.1080*%
%ADD205C,0.0867*%
%ADD206C,0.0946*%
%ADD207C,0.2049*%
%ADD208R,0.0867X0.0867*%
%ADD209R,0.0671X0.0671*%
%ADD210R,0.1080X0.1080*%
%ADD211C,0.1064*%
%ADD212C,0.0789*%
%ADD213R,0.0867X0.0867*%
%ADD214C,0.0710*%
%ADD215R,0.0710X0.0710*%
%ADD216C,0.0631*%
%ADD217P,0.0683X8X112.5*%
%ADD218C,0.1954*%
%ADD219R,0.0745X0.0745*%
%ADD220C,0.0745*%
%ADD221C,0.1674*%
%ADD222C,0.0749*%
%ADD223C,0.0316*%
%ADD224C,0.0395*%
%ADD225C,0.1261*%
%ADD226R,0.0789X0.0474*%
%ADD227R,0.0828X0.0316*%
%ADD228R,0.1182X0.0907*%
%ADD229C,0.0580*%
D156*
X963Y32500D02*
D03*
X37D02*
D03*
X32963Y16750D02*
D03*
X32037D02*
D03*
X32213Y18500D02*
D03*
X31287D02*
D03*
X31213Y16750D02*
D03*
X30287D02*
D03*
X28487D02*
D03*
X29413D02*
D03*
X28037Y18500D02*
D03*
X28963D02*
D03*
X36963Y31000D02*
D03*
X36037D02*
D03*
X36963Y33500D02*
D03*
X36037D02*
D03*
X27713Y16750D02*
D03*
X26787D02*
D03*
X26037Y29450D02*
D03*
X26963D02*
D03*
X29537Y37500D02*
D03*
X30463D02*
D03*
X32213D02*
D03*
X31287D02*
D03*
X33337D02*
D03*
X34263D02*
D03*
X35663Y35000D02*
D03*
X34737D02*
D03*
X31287Y31000D02*
D03*
X32213D02*
D03*
X30213D02*
D03*
X29287D02*
D03*
X12963Y28750D02*
D03*
X12037D02*
D03*
D157*
X913Y30500D02*
D03*
X87D02*
D03*
Y31150D02*
D03*
X913D02*
D03*
X29663Y750D02*
D03*
X28837D02*
D03*
X15663Y1250D02*
D03*
X14837D02*
D03*
X58337Y-3250D02*
D03*
X59163D02*
D03*
Y-2250D02*
D03*
X58337D02*
D03*
D159*
X27750Y33037D02*
D03*
Y33963D02*
D03*
X5350Y25287D02*
D03*
Y26213D02*
D03*
Y28287D02*
D03*
Y29213D02*
D03*
X9000Y9963D02*
D03*
Y9037D02*
D03*
X27750Y35963D02*
D03*
Y35037D02*
D03*
X28700Y38237D02*
D03*
Y39163D02*
D03*
X34250Y36713D02*
D03*
Y35787D02*
D03*
Y34213D02*
D03*
Y33287D02*
D03*
Y32513D02*
D03*
Y31587D02*
D03*
X34500Y30513D02*
D03*
Y29587D02*
D03*
X27750Y31463D02*
D03*
Y30537D02*
D03*
D165*
X52750Y3055D02*
D03*
X52250D02*
D03*
X51750D02*
D03*
X51250D02*
D03*
X52750Y4945D02*
D03*
X52250D02*
D03*
X51750D02*
D03*
X51250D02*
D03*
X55250Y3055D02*
D03*
X54750D02*
D03*
X54250D02*
D03*
X53750D02*
D03*
X55250Y4945D02*
D03*
X54750D02*
D03*
X54250D02*
D03*
X53750D02*
D03*
D166*
X49250Y12837D02*
D03*
Y13663D02*
D03*
X51250Y12837D02*
D03*
Y13663D02*
D03*
X32870Y29663D02*
D03*
Y30490D02*
D03*
X33657Y29663D02*
D03*
Y30490D02*
D03*
X36650Y35737D02*
D03*
Y36563D02*
D03*
D171*
X37445Y43500D02*
D03*
Y43000D02*
D03*
Y42500D02*
D03*
Y42000D02*
D03*
Y41500D02*
D03*
Y41000D02*
D03*
Y40500D02*
D03*
X35555Y43500D02*
D03*
Y43000D02*
D03*
Y42500D02*
D03*
Y42000D02*
D03*
Y41500D02*
D03*
Y41000D02*
D03*
Y40500D02*
D03*
X45695Y-2250D02*
D03*
Y-2750D02*
D03*
Y-3250D02*
D03*
Y-3750D02*
D03*
X43805Y-2250D02*
D03*
Y-2750D02*
D03*
Y-3250D02*
D03*
Y-3750D02*
D03*
D195*
X56278Y-2750D02*
D03*
X57222Y-3124D02*
D03*
Y-2376D02*
D03*
X1722Y18624D02*
D03*
Y17876D02*
D03*
X778Y18250D02*
D03*
X1722Y19750D02*
D03*
X778Y20124D02*
D03*
Y19376D02*
D03*
X3472Y19000D02*
D03*
X2528Y19374D02*
D03*
Y18626D02*
D03*
D201*
X2016Y50050D02*
D03*
X48500Y34000D02*
D03*
X45500Y39500D02*
D03*
X48500Y36250D02*
D03*
Y27000D02*
D03*
Y22500D02*
D03*
X45500Y25750D02*
D03*
Y30250D02*
D03*
X48500Y31500D02*
D03*
X-1234Y9000D02*
D03*
X40500Y54000D02*
D03*
X1970Y14300D02*
D03*
D202*
X3984Y50050D02*
D03*
X21000Y20750D02*
D03*
X22000Y17750D02*
D03*
X21000D02*
D03*
X15250Y20750D02*
D03*
X14250D02*
D03*
X15250Y17750D02*
D03*
X18750Y20750D02*
D03*
X19750Y17750D02*
D03*
X18750D02*
D03*
X45500Y35000D02*
D03*
Y34000D02*
D03*
X48500Y35000D02*
D03*
X45500Y38500D02*
D03*
X48500Y39500D02*
D03*
Y38500D02*
D03*
X45500Y37250D02*
D03*
Y36250D02*
D03*
X48500Y37250D02*
D03*
X17500Y20750D02*
D03*
X16500D02*
D03*
X17500Y17750D02*
D03*
X48500Y28000D02*
D03*
X45500Y27000D02*
D03*
Y28000D02*
D03*
X43500Y17750D02*
D03*
X44500D02*
D03*
X43500Y20750D02*
D03*
X37750Y17750D02*
D03*
X36750Y20750D02*
D03*
X37750D02*
D03*
X42250D02*
D03*
X41250D02*
D03*
X42250Y17750D02*
D03*
X48500Y23500D02*
D03*
X45500Y22500D02*
D03*
Y23500D02*
D03*
X34500Y17750D02*
D03*
X35500D02*
D03*
X34500Y20750D02*
D03*
X40000Y17750D02*
D03*
X39000Y20750D02*
D03*
X40000D02*
D03*
X48500Y24750D02*
D03*
Y25750D02*
D03*
X45500Y24750D02*
D03*
Y29250D02*
D03*
X48500Y30250D02*
D03*
Y29250D02*
D03*
X45500Y32500D02*
D03*
Y31500D02*
D03*
X48500Y32500D02*
D03*
X25500Y20750D02*
D03*
X26500Y17750D02*
D03*
X25500D02*
D03*
X9750D02*
D03*
X10750D02*
D03*
X9750Y20750D02*
D03*
X7250Y2600D02*
D03*
X10250Y1900D02*
D03*
X4500Y8016D02*
D03*
X750Y2600D02*
D03*
X3750Y1900D02*
D03*
X734Y9000D02*
D03*
X38500Y54000D02*
D03*
X39500D02*
D03*
X23250Y20750D02*
D03*
X24250Y17750D02*
D03*
X23250D02*
D03*
X12000D02*
D03*
X13000D02*
D03*
X12000Y20750D02*
D03*
X4530Y14300D02*
D03*
X6000Y6500D02*
D03*
X-2250Y19500D02*
D03*
D203*
X-250Y43750D02*
D03*
Y47750D02*
D03*
Y45750D02*
D03*
X4000Y0D02*
D03*
X2000D02*
D03*
X6000D02*
D03*
X67000Y50500D02*
D03*
Y48500D02*
D03*
Y40500D02*
D03*
Y38500D02*
D03*
Y42500D02*
D03*
Y44500D02*
D03*
Y46500D02*
D03*
Y31750D02*
D03*
Y29750D02*
D03*
Y33750D02*
D03*
D204*
X-250Y49750D02*
D03*
X67000Y36500D02*
D03*
Y27750D02*
D03*
D205*
X35862Y5537D02*
D03*
X31138D02*
D03*
X15691Y13500D02*
D03*
X22441D02*
D03*
X8000Y9000D02*
D03*
Y10000D02*
D03*
X40191Y13500D02*
D03*
X22888Y5537D02*
D03*
X27612D02*
D03*
X19612D02*
D03*
X14888D02*
D03*
X30941Y13500D02*
D03*
X39138Y5537D02*
D03*
X43862D02*
D03*
D206*
X35862Y10341D02*
D03*
X31138D02*
D03*
X33500Y4750D02*
D03*
X25250D02*
D03*
X22888Y10341D02*
D03*
X27612D02*
D03*
X19612D02*
D03*
X14888D02*
D03*
X17250Y4750D02*
D03*
X41500D02*
D03*
X39138Y10341D02*
D03*
X43862D02*
D03*
D207*
X64567Y53398D02*
D03*
Y28791D02*
D03*
X68504Y-2705D02*
D03*
X-2362D02*
D03*
X68504Y54382D02*
D03*
X-2362D02*
D03*
D208*
X19809Y13500D02*
D03*
X26559D02*
D03*
X44309D02*
D03*
X35059D02*
D03*
D209*
X22000Y20750D02*
D03*
X14250Y17750D02*
D03*
X19750Y20750D02*
D03*
X16500Y17750D02*
D03*
X44500Y20750D02*
D03*
X36750Y17750D02*
D03*
X41250D02*
D03*
X35500Y20750D02*
D03*
X39000Y17750D02*
D03*
X26500Y20750D02*
D03*
X10750D02*
D03*
X4500Y9984D02*
D03*
X24250Y20750D02*
D03*
X13000D02*
D03*
D210*
X0Y0D02*
D03*
D211*
X32750Y54500D02*
D03*
X33734Y53516D02*
D03*
Y55484D02*
D03*
X31766D02*
D03*
Y53516D02*
D03*
D212*
X40000Y33187D02*
D03*
Y25313D02*
D03*
D213*
X8000Y8000D02*
D03*
D214*
X27500Y25500D02*
D03*
Y24500D02*
D03*
X26500Y25500D02*
D03*
Y24500D02*
D03*
X25500Y25500D02*
D03*
Y24500D02*
D03*
X24500Y25500D02*
D03*
Y24500D02*
D03*
X23500Y25500D02*
D03*
D215*
Y24500D02*
D03*
D216*
X39750Y37211D02*
D03*
D217*
Y35289D02*
D03*
D218*
X8581Y-760D02*
D03*
X18419D02*
D03*
X22831D02*
D03*
X32669D02*
D03*
D219*
X15681Y-201D02*
D03*
X29931D02*
D03*
D220*
X15136Y-1319D02*
D03*
X14591Y-201D02*
D03*
X14045Y-1319D02*
D03*
X13500Y-201D02*
D03*
X12955Y-1319D02*
D03*
X12409Y-201D02*
D03*
X11864Y-1319D02*
D03*
X11319Y-201D02*
D03*
X29386Y-1319D02*
D03*
X28841Y-201D02*
D03*
X28295Y-1319D02*
D03*
X27750Y-201D02*
D03*
X27205Y-1319D02*
D03*
X26659Y-201D02*
D03*
X26114Y-1319D02*
D03*
X25569Y-201D02*
D03*
D221*
X62500Y0D02*
D03*
X37500D02*
D03*
D222*
X40732Y-950D02*
D03*
X41682D02*
D03*
X42632D02*
D03*
X43582D02*
D03*
X44532D02*
D03*
X45482D02*
D03*
X46432D02*
D03*
X47382D02*
D03*
X48332D02*
D03*
X49282D02*
D03*
X50232D02*
D03*
X51182D02*
D03*
X52132D02*
D03*
X53082D02*
D03*
X54032D02*
D03*
X54982D02*
D03*
X55932D02*
D03*
X56882D02*
D03*
X57832D02*
D03*
X58782D02*
D03*
X40256Y0D02*
D03*
X41206D02*
D03*
X42156D02*
D03*
X43106D02*
D03*
X44056D02*
D03*
X45006D02*
D03*
X45956D02*
D03*
X46906D02*
D03*
X47856D02*
D03*
X48806D02*
D03*
X49756D02*
D03*
X50706D02*
D03*
X51656D02*
D03*
X52606D02*
D03*
X53556D02*
D03*
X54506D02*
D03*
X55456D02*
D03*
X56406D02*
D03*
X57356D02*
D03*
X58306D02*
D03*
X59256D02*
D03*
X40732Y949D02*
D03*
X41682D02*
D03*
X42632D02*
D03*
X43582D02*
D03*
X44532D02*
D03*
X45482D02*
D03*
X46432D02*
D03*
X47382D02*
D03*
X48332D02*
D03*
X49282D02*
D03*
X50232D02*
D03*
X51182D02*
D03*
X52132D02*
D03*
X53082D02*
D03*
X54032D02*
D03*
X54982D02*
D03*
X55932D02*
D03*
X56882D02*
D03*
X57832D02*
D03*
X58782D02*
D03*
X59732D02*
D03*
D223*
X16366Y54683D02*
D03*
X14634D02*
D03*
D224*
X8533Y48083D02*
D03*
X8967D02*
D03*
X8533Y47650D02*
D03*
X8967D02*
D03*
X8533Y47217D02*
D03*
X8967D02*
D03*
X8533Y46783D02*
D03*
X8967D02*
D03*
X8533Y46350D02*
D03*
X8967D02*
D03*
X8533Y45917D02*
D03*
X8967D02*
D03*
D225*
X58250Y29700D02*
D03*
X64500Y34500D02*
D03*
D226*
X36750Y32742D02*
D03*
Y31758D02*
D03*
D227*
X-1000Y21022D02*
D03*
Y20628D02*
D03*
Y20234D02*
D03*
Y19841D02*
D03*
Y19447D02*
D03*
Y19053D02*
D03*
Y18659D02*
D03*
Y18266D02*
D03*
Y17872D02*
D03*
Y17478D02*
D03*
D228*
X-1925Y16238D02*
D03*
Y22262D02*
D03*
D229*
X24250Y16750D02*
D03*
X23250D02*
D03*
X22250D02*
D03*
X21250D02*
D03*
X24250Y22750D02*
D03*
X23250D02*
D03*
X22250D02*
D03*
X21250D02*
D03*
X12250Y7750D02*
D03*
Y8750D02*
D03*
Y9750D02*
D03*
Y10750D02*
D03*
X16000Y22750D02*
D03*
X15000D02*
D03*
X14000D02*
D03*
X13000D02*
D03*
X41000D02*
D03*
X40000D02*
D03*
X39000D02*
D03*
X38000D02*
D03*
X37000D02*
D03*
X36000D02*
D03*
X67250Y15500D02*
D03*
Y16500D02*
D03*
Y17500D02*
D03*
Y18500D02*
D03*
Y19500D02*
D03*
Y20500D02*
D03*
X50750Y11750D02*
D03*
X49750D02*
D03*
X48750D02*
D03*
X47750D02*
D03*
X46750D02*
D03*
X45750D02*
D03*
X56750D02*
D03*
X55750D02*
D03*
X54750D02*
D03*
X53750D02*
D03*
X52750D02*
D03*
X51750D02*
D03*
X43250Y43500D02*
D03*
Y44500D02*
D03*
Y45500D02*
D03*
Y46500D02*
D03*
Y47500D02*
D03*
Y48500D02*
D03*
Y33000D02*
D03*
Y34000D02*
D03*
Y35000D02*
D03*
Y36000D02*
D03*
Y37000D02*
D03*
Y38000D02*
D03*
Y39000D02*
D03*
Y40000D02*
D03*
Y51000D02*
D03*
Y52000D02*
D03*
Y53000D02*
D03*
Y54000D02*
D03*
X50250Y51000D02*
D03*
Y52000D02*
D03*
Y53000D02*
D03*
Y54000D02*
D03*
X1250Y6700D02*
D03*
X2250D02*
D03*
X3250D02*
D03*
X4250D02*
D03*
X8000Y24500D02*
D03*
X7000D02*
D03*
X6000D02*
D03*
X5000D02*
D03*
X29450Y51750D02*
D03*
Y50750D02*
D03*
Y49750D02*
D03*
Y48750D02*
D03*
X37500Y51500D02*
D03*
X36500D02*
D03*
X35500D02*
D03*
X34500D02*
D03*
X31750Y48450D02*
D03*
X32750D02*
D03*
X33750D02*
D03*
X34750D02*
D03*
X34000Y25500D02*
D03*
X33000D02*
D03*
X32000D02*
D03*
X31000D02*
D03*
X55750Y16750D02*
D03*
Y17750D02*
D03*
Y18750D02*
D03*
Y19750D02*
D03*
Y20750D02*
D03*
Y21750D02*
D03*
M02*
