G04 Layer_Color=8388736*
%FSAX44Y44*%
%MOMM*%
G71*
G01*
G75*
%ADD124C,0.0000*%
%ADD125R,2.3032X2.5032*%
%ADD126R,2.6032X3.5032*%
%ADD127R,2.6032X1.2032*%
%ADD128R,1.5532X1.7032*%
%ADD129R,1.7032X1.4532*%
%ADD130R,1.4532X1.7032*%
%ADD131R,3.3282X5.5372*%
%ADD132O,1.8532X0.5032*%
%ADD133O,2.4032X0.8032*%
%ADD134R,0.9032X1.2032*%
%ADD135R,1.2032X0.9032*%
%ADD136R,4.0132X2.2332*%
%ADD137R,9.0932X11.6332*%
%ADD138O,0.5032X1.8532*%
G04:AMPARAMS|DCode=139|XSize=1.2032mm|YSize=2.0532mm|CornerRadius=0.6016mm|HoleSize=0mm|Usage=FLASHONLY|Rotation=0.000|XOffset=0mm|YOffset=0mm|HoleType=Round|Shape=RoundedRectangle|*
%AMROUNDEDRECTD139*
21,1,1.2032,0.8500,0,0,0.0*
21,1,0.0000,2.0532,0,0,0.0*
1,1,1.2032,0.0000,-0.4250*
1,1,1.2032,0.0000,-0.4250*
1,1,1.2032,0.0000,0.4250*
1,1,1.2032,0.0000,0.4250*
%
%ADD139ROUNDEDRECTD139*%
%ADD140R,2.8032X4.3032*%
%ADD141R,3.4032X1.7032*%
%ADD142R,3.4032X1.4032*%
%ADD143R,5.5032X1.9032*%
%ADD144O,2.1032X0.6132*%
%ADD145R,1.2032X0.8032*%
%ADD146R,1.2532X0.8032*%
%ADD147R,2.2032X1.7032*%
G04:AMPARAMS|DCode=148|XSize=1.2032mm|YSize=2.0532mm|CornerRadius=0.6016mm|HoleSize=0mm|Usage=FLASHONLY|Rotation=90.000|XOffset=0mm|YOffset=0mm|HoleType=Round|Shape=RoundedRectangle|*
%AMROUNDEDRECTD148*
21,1,1.2032,0.8500,0,0,90.0*
21,1,0.0000,2.0532,0,0,90.0*
1,1,1.2032,0.4250,0.0000*
1,1,1.2032,0.4250,0.0000*
1,1,1.2032,-0.4250,0.0000*
1,1,1.2032,-0.4250,0.0000*
%
%ADD148ROUNDEDRECTD148*%
%ADD149R,10.2032X8.2032*%
%ADD150P,2.1258X4X270.0*%
%ADD151R,2.3032X3.1932*%
%ADD152O,2.3532X1.1032*%
%ADD153O,2.1032X0.8032*%
%ADD154R,4.3032X2.8032*%
%ADD155R,1.6532X1.5532*%
%ADD156R,1.5532X1.6532*%
%ADD157R,1.7032X1.5532*%
%ADD158R,2.2032X2.7032*%
%ADD159R,2.7032X2.2032*%
%ADD160R,1.7032X2.8032*%
%ADD161R,2.8032X1.7032*%
%ADD162R,1.0032X1.0032*%
%ADD163O,0.8032X2.4032*%
%ADD164R,2.9032X1.2032*%
%ADD165R,2.9032X3.5032*%
%ADD166C,5.2032*%
%ADD167C,1.8032*%
%ADD168R,1.8032X1.8032*%
%ADD169C,2.7432*%
%ADD170R,2.2032X2.2032*%
%ADD171C,2.2032*%
%ADD172C,1.7032*%
%ADD173R,1.7032X1.7032*%
%ADD174C,1.7272*%
%ADD175C,4.4932*%
%ADD176R,1.7032X1.7032*%
%ADD177P,1.7353X8X112.5*%
%ADD178C,1.6032*%
%ADD179R,2.2032X2.2032*%
%ADD180C,2.4032*%
%ADD181C,2.0032*%
%ADD182C,1.0032*%
%ADD183C,3.2032*%
G36*
X01656080Y01619250D02*
X01645920D01*
Y01631950D01*
X01656080D01*
Y01619250D01*
D02*
G37*
G36*
X01490980D02*
X01480820D01*
Y01631950D01*
X01490980D01*
Y01619250D01*
D02*
G37*
G36*
X00825500Y01080770D02*
X00812800D01*
Y01090930D01*
X00825500D01*
Y01080770D01*
D02*
G37*
G36*
X00749300D02*
X00736600D01*
Y01090930D01*
X00749300D01*
Y01080770D01*
D02*
G37*
G36*
X02185670Y00878840D02*
X02175510D01*
Y00891540D01*
X02185670D01*
Y00878840D01*
D02*
G37*
G36*
Y00793750D02*
X02175510D01*
Y00806450D01*
X02185670D01*
Y00793750D01*
D02*
G37*
G36*
X01651000Y00495300D02*
X01640840D01*
Y00508000D01*
X01651000D01*
Y00495300D01*
D02*
G37*
G36*
X01446530D02*
X01436370D01*
Y00508000D01*
X01446530D01*
Y00495300D01*
D02*
G37*
G36*
Y00477520D02*
X01436370D01*
Y00490220D01*
X01446530D01*
Y00477520D01*
D02*
G37*
G36*
X01155700Y00464820D02*
X01143000D01*
Y00474980D01*
X01155700D01*
Y00464820D01*
D02*
G37*
G36*
X01130300D02*
X01117600D01*
Y00474980D01*
X01130300D01*
Y00464820D01*
D02*
G37*
G36*
X01104900D02*
X01092200D01*
Y00474980D01*
X01104900D01*
Y00464820D01*
D02*
G37*
G36*
X01079500D02*
X01066800D01*
Y00474980D01*
X01079500D01*
Y00464820D01*
D02*
G37*
G36*
X01649730Y00463550D02*
X01639570D01*
Y00476250D01*
X01649730D01*
Y00463550D01*
D02*
G37*
D124*
X01645920Y01631950D02*
X01656080D01*
Y01619250D02*
Y01631950D01*
X01645920Y01619250D02*
X01656080D01*
X01645920D02*
Y01631950D01*
X01480820Y01619250D02*
X01490980D01*
X01480820D02*
Y01631950D01*
X01490980D01*
Y01619250D02*
Y01631950D01*
X01079500Y00464820D02*
Y00474980D01*
X01066800Y00464820D02*
X01079500D01*
X01066800D02*
Y00474980D01*
X01079500D01*
X01104900Y00464820D02*
Y00474980D01*
X01092200Y00464820D02*
X01104900D01*
X01092200D02*
Y00474980D01*
X01104900D01*
X01130300Y00464820D02*
Y00474980D01*
X01117600Y00464820D02*
X01130300D01*
X01117600D02*
Y00474980D01*
X01130300D01*
X01155700Y00464820D02*
Y00474980D01*
X01143000Y00464820D02*
X01155700D01*
X01143000D02*
Y00474980D01*
X01155700D01*
X01436370Y00495300D02*
X01446530D01*
X01436370D02*
Y00508000D01*
X01446530D01*
Y00495300D02*
Y00508000D01*
X01436370Y00477520D02*
X01446530D01*
X01436370D02*
Y00490220D01*
X01446530D01*
Y00477520D02*
Y00490220D01*
X01640840Y00495300D02*
X01651000D01*
X01640840D02*
Y00508000D01*
X01651000D01*
Y00495300D02*
Y00508000D01*
X01639570Y00463550D02*
X01649730D01*
X01639570D02*
Y00476250D01*
X01649730D01*
Y00463550D02*
Y00476250D01*
X02175510Y00878840D02*
Y00891540D01*
Y00878840D02*
X02185670D01*
Y00891540D01*
X02175510D02*
X02185670D01*
Y00793750D02*
Y00806450D01*
X02175510D02*
X02185670D01*
X02175510Y00793750D02*
Y00806450D01*
Y00793750D02*
X02185670D01*
X00736600Y01080770D02*
X00749300D01*
Y01090930D01*
X00736600D02*
X00749300D01*
X00736600Y01080770D02*
Y01090930D01*
X00812800Y01080770D02*
X00825500D01*
Y01090930D01*
X00812800D02*
X00825500D01*
X00812800Y01080770D02*
Y01090930D01*
D125*
X00992250Y01574800D02*
D03*
X01039750D02*
D03*
Y01708150D02*
D03*
X00992250D02*
D03*
X00719200Y01254760D02*
D03*
X00766700D02*
D03*
D126*
X00937050Y01758950D02*
D03*
Y01638300D02*
D03*
X00790150Y01758950D02*
D03*
Y01638300D02*
D03*
D127*
X00879050Y01735950D02*
D03*
Y01758950D02*
D03*
Y01781950D02*
D03*
Y01661300D02*
D03*
Y01638300D02*
D03*
Y01615300D02*
D03*
X00848150Y01781950D02*
D03*
Y01758950D02*
D03*
Y01735950D02*
D03*
Y01615300D02*
D03*
Y01638300D02*
D03*
Y01661300D02*
D03*
D128*
X01767840Y01052550D02*
D03*
Y01081050D02*
D03*
X01111250Y01667230D02*
D03*
Y01695730D02*
D03*
X00571500Y01052550D02*
D03*
Y01081050D02*
D03*
X00596900Y01052550D02*
D03*
Y01081050D02*
D03*
X01111250Y00792200D02*
D03*
Y00820700D02*
D03*
Y00973100D02*
D03*
Y00944600D02*
D03*
X01739900Y00820700D02*
D03*
Y00792200D02*
D03*
X01568450Y00792200D02*
D03*
Y00820700D02*
D03*
Y00973100D02*
D03*
Y00944600D02*
D03*
X01682750Y00792200D02*
D03*
Y00820700D02*
D03*
Y00973100D02*
D03*
Y00944600D02*
D03*
X01536700Y00973100D02*
D03*
Y00944600D02*
D03*
Y00792200D02*
D03*
Y00820700D02*
D03*
X01625600Y00792200D02*
D03*
Y00820700D02*
D03*
Y00973100D02*
D03*
Y00944600D02*
D03*
X01365250Y00970560D02*
D03*
Y00942060D02*
D03*
X01365242Y00792200D02*
D03*
Y00820700D02*
D03*
X01576070Y00620750D02*
D03*
Y00649250D02*
D03*
X01574800Y00554000D02*
D03*
Y00525500D02*
D03*
X00965192Y00973100D02*
D03*
Y00944600D02*
D03*
Y00792200D02*
D03*
Y00820700D02*
D03*
X01087120Y00999770D02*
D03*
Y00971270D02*
D03*
X01409700Y01719300D02*
D03*
Y01747800D02*
D03*
X01250950Y00970560D02*
D03*
Y00942060D02*
D03*
X01054092Y00792200D02*
D03*
Y00820700D02*
D03*
X01250942Y00792200D02*
D03*
Y00820700D02*
D03*
X01054092Y00973100D02*
D03*
Y00944600D02*
D03*
X01162050Y00633450D02*
D03*
Y00661950D02*
D03*
Y00566700D02*
D03*
Y00538200D02*
D03*
X01193800Y00970560D02*
D03*
Y00942060D02*
D03*
X01193792Y00792200D02*
D03*
Y00820700D02*
D03*
X00952500Y00627100D02*
D03*
Y00655600D02*
D03*
Y00560350D02*
D03*
Y00531850D02*
D03*
X01155700Y01478000D02*
D03*
Y01506500D02*
D03*
X01301750Y01719300D02*
D03*
Y01747800D02*
D03*
X01327150Y01719300D02*
D03*
Y01747800D02*
D03*
X01352550Y01719300D02*
D03*
Y01747800D02*
D03*
X02127250Y01008100D02*
D03*
Y01036600D02*
D03*
X02032000Y01300200D02*
D03*
Y01328700D02*
D03*
Y01265200D02*
D03*
Y01236700D02*
D03*
Y01166850D02*
D03*
Y01195350D02*
D03*
Y01131850D02*
D03*
Y01103350D02*
D03*
X01181100Y01506500D02*
D03*
Y01478000D02*
D03*
Y01117880D02*
D03*
Y01089380D02*
D03*
X01203960Y01117880D02*
D03*
Y01089380D02*
D03*
X01224280Y01117880D02*
D03*
Y01089380D02*
D03*
X01244600Y01117880D02*
D03*
Y01089380D02*
D03*
X01371600Y00554000D02*
D03*
Y00525500D02*
D03*
Y00620750D02*
D03*
Y00649250D02*
D03*
X01308092Y00792200D02*
D03*
Y00820700D02*
D03*
X01308100Y00970560D02*
D03*
Y00942060D02*
D03*
X01141730Y01001040D02*
D03*
Y00972540D02*
D03*
X01606550Y01262100D02*
D03*
Y01290600D02*
D03*
X01936750Y00747750D02*
D03*
Y00776250D02*
D03*
X01911350Y00776250D02*
D03*
Y00747750D02*
D03*
X01885950Y00747750D02*
D03*
Y00776250D02*
D03*
X01860550Y00776250D02*
D03*
Y00747750D02*
D03*
X01809750Y00776250D02*
D03*
Y00747750D02*
D03*
X01987550Y00747750D02*
D03*
Y00776250D02*
D03*
X01962150Y00776250D02*
D03*
Y00747750D02*
D03*
X01835150Y00747750D02*
D03*
Y00776250D02*
D03*
X01022350Y00792200D02*
D03*
Y00820700D02*
D03*
Y00973100D02*
D03*
Y00944600D02*
D03*
X01155700Y01798600D02*
D03*
Y01770100D02*
D03*
D129*
X01638500Y01625600D02*
D03*
X01663500D02*
D03*
X01498400D02*
D03*
X01473400D02*
D03*
X01453950Y00501650D02*
D03*
X01428950D02*
D03*
X01453950Y00483870D02*
D03*
X01428950D02*
D03*
X01658420Y00501650D02*
D03*
X01633420D02*
D03*
X01657150Y00469900D02*
D03*
X01632150D02*
D03*
X02193090Y00885190D02*
D03*
X02168090D02*
D03*
Y00800100D02*
D03*
X02193090D02*
D03*
D130*
X01073150Y00482400D02*
D03*
Y00457400D02*
D03*
X01098550Y00482400D02*
D03*
Y00457400D02*
D03*
X01123950Y00482400D02*
D03*
Y00457400D02*
D03*
X01149350Y00482400D02*
D03*
Y00457400D02*
D03*
X00742950Y01098350D02*
D03*
Y01073350D02*
D03*
X00819150Y01098350D02*
D03*
Y01073350D02*
D03*
D131*
X00648268Y01234440D02*
D03*
X00576012D02*
D03*
D132*
X01316400Y01281150D02*
D03*
Y01276150D02*
D03*
Y01271150D02*
D03*
Y01266150D02*
D03*
Y01211150D02*
D03*
X01528400Y01186150D02*
D03*
Y01191150D02*
D03*
Y01196150D02*
D03*
Y01201150D02*
D03*
Y01206150D02*
D03*
Y01211150D02*
D03*
Y01216150D02*
D03*
Y01221150D02*
D03*
Y01226150D02*
D03*
Y01231150D02*
D03*
Y01236150D02*
D03*
Y01241150D02*
D03*
Y01246150D02*
D03*
Y01251150D02*
D03*
Y01256150D02*
D03*
Y01261150D02*
D03*
Y01266150D02*
D03*
Y01271150D02*
D03*
Y01276150D02*
D03*
Y01281150D02*
D03*
Y01286150D02*
D03*
Y01291150D02*
D03*
Y01296150D02*
D03*
Y01301150D02*
D03*
Y01306150D02*
D03*
Y01311150D02*
D03*
Y01316150D02*
D03*
Y01321150D02*
D03*
Y01326150D02*
D03*
Y01331150D02*
D03*
Y01336150D02*
D03*
Y01341150D02*
D03*
Y01346150D02*
D03*
Y01351150D02*
D03*
X01316400D02*
D03*
Y01346150D02*
D03*
Y01341150D02*
D03*
Y01336150D02*
D03*
Y01331150D02*
D03*
Y01326150D02*
D03*
Y01321150D02*
D03*
Y01316150D02*
D03*
Y01311150D02*
D03*
Y01306150D02*
D03*
Y01301150D02*
D03*
Y01296150D02*
D03*
Y01291150D02*
D03*
Y01286150D02*
D03*
Y01261150D02*
D03*
Y01256150D02*
D03*
Y01251150D02*
D03*
Y01246150D02*
D03*
Y01241150D02*
D03*
Y01236150D02*
D03*
Y01231150D02*
D03*
Y01226150D02*
D03*
Y01221150D02*
D03*
Y01216150D02*
D03*
Y01206150D02*
D03*
Y01201150D02*
D03*
Y01196150D02*
D03*
Y01191150D02*
D03*
Y01186150D02*
D03*
Y01181150D02*
D03*
Y01176150D02*
D03*
D133*
X01040000Y01606550D02*
D03*
Y01619250D02*
D03*
Y01631950D02*
D03*
Y01644650D02*
D03*
X00992000Y01606550D02*
D03*
Y01619250D02*
D03*
Y01631950D02*
D03*
Y01644650D02*
D03*
X01040000Y01746250D02*
D03*
Y01758950D02*
D03*
Y01771650D02*
D03*
Y01784350D02*
D03*
X00992000Y01746250D02*
D03*
Y01758950D02*
D03*
Y01771650D02*
D03*
Y01784350D02*
D03*
X01804800Y01524000D02*
D03*
Y01511300D02*
D03*
Y01498600D02*
D03*
Y01485900D02*
D03*
X01852800Y01524000D02*
D03*
Y01511300D02*
D03*
Y01498600D02*
D03*
Y01485900D02*
D03*
X01804800Y01460500D02*
D03*
Y01447800D02*
D03*
Y01435100D02*
D03*
Y01422400D02*
D03*
X01852800Y01460500D02*
D03*
Y01447800D02*
D03*
Y01435100D02*
D03*
Y01422400D02*
D03*
X02221100Y00825500D02*
D03*
Y00838200D02*
D03*
Y00850900D02*
D03*
Y00863600D02*
D03*
X02173100Y00825500D02*
D03*
Y00838200D02*
D03*
Y00850900D02*
D03*
Y00863600D02*
D03*
Y00781050D02*
D03*
Y00768350D02*
D03*
Y00755650D02*
D03*
Y00742950D02*
D03*
X02221100Y00781050D02*
D03*
Y00768350D02*
D03*
Y00755650D02*
D03*
Y00742950D02*
D03*
X01804800Y01587500D02*
D03*
Y01574800D02*
D03*
Y01562100D02*
D03*
Y01549400D02*
D03*
X01852800Y01587500D02*
D03*
Y01574800D02*
D03*
Y01562100D02*
D03*
Y01549400D02*
D03*
X02094100Y00914400D02*
D03*
Y00927100D02*
D03*
Y00939800D02*
D03*
Y00952500D02*
D03*
X02046100Y00914400D02*
D03*
Y00927100D02*
D03*
Y00939800D02*
D03*
Y00952500D02*
D03*
X01804800Y01651000D02*
D03*
Y01638300D02*
D03*
Y01625600D02*
D03*
Y01612900D02*
D03*
X01852800Y01651000D02*
D03*
Y01638300D02*
D03*
Y01625600D02*
D03*
Y01612900D02*
D03*
Y01676400D02*
D03*
Y01689100D02*
D03*
Y01701800D02*
D03*
Y01714500D02*
D03*
X01804800Y01676400D02*
D03*
Y01689100D02*
D03*
Y01701800D02*
D03*
Y01714500D02*
D03*
Y01778000D02*
D03*
Y01765300D02*
D03*
Y01752600D02*
D03*
Y01739900D02*
D03*
X01852800Y01778000D02*
D03*
Y01765300D02*
D03*
Y01752600D02*
D03*
Y01739900D02*
D03*
X02094100Y01003300D02*
D03*
Y01016000D02*
D03*
Y01028700D02*
D03*
Y01041400D02*
D03*
X02046100Y01003300D02*
D03*
Y01016000D02*
D03*
Y01028700D02*
D03*
Y01041400D02*
D03*
D134*
X01578000Y00699200D02*
D03*
X01597000D02*
D03*
X01587500Y00723200D02*
D03*
X01377950D02*
D03*
X01387450Y00699200D02*
D03*
X01368450D02*
D03*
X01165250D02*
D03*
X01184250D02*
D03*
X01174750Y00723200D02*
D03*
X01974850Y00824800D02*
D03*
X01984350Y00800800D02*
D03*
X01965350D02*
D03*
X01924050Y00824800D02*
D03*
X01933550Y00800800D02*
D03*
X01914550D02*
D03*
X01873250Y00824800D02*
D03*
X01882750Y00800800D02*
D03*
X01863750D02*
D03*
X01822450Y00824800D02*
D03*
X01831950Y00800800D02*
D03*
X01812950D02*
D03*
X00955700Y00705550D02*
D03*
X00974700D02*
D03*
X00965200Y00729550D02*
D03*
X02000250Y01326450D02*
D03*
X02009750Y01302450D02*
D03*
X01990750D02*
D03*
X02005330Y01269300D02*
D03*
X02014830Y01245300D02*
D03*
X01995830D02*
D03*
X02000250Y01129600D02*
D03*
X02009750Y01105600D02*
D03*
X01990750D02*
D03*
X02000250Y01193100D02*
D03*
X02009750Y01169100D02*
D03*
X01990750D02*
D03*
X01479550Y01726500D02*
D03*
X01489050Y01702500D02*
D03*
X01470050D02*
D03*
X01597660Y01726500D02*
D03*
X01607160Y01702500D02*
D03*
X01588160D02*
D03*
X01088390Y01054670D02*
D03*
X01097890Y01030670D02*
D03*
X01078890D02*
D03*
X01132840Y01054670D02*
D03*
X01142340Y01030670D02*
D03*
X01123340D02*
D03*
D135*
X01575500Y00593700D02*
D03*
Y00574700D02*
D03*
X01599500Y00584200D02*
D03*
X01396300D02*
D03*
X01372300Y00574700D02*
D03*
Y00593700D02*
D03*
X01162750Y00606400D02*
D03*
Y00587400D02*
D03*
X01186750Y00596900D02*
D03*
X00953200Y00600050D02*
D03*
Y00581050D02*
D03*
X00977200Y00590550D02*
D03*
X00699200Y00876300D02*
D03*
X00723200Y00885800D02*
D03*
Y00866800D02*
D03*
X00654750Y00895350D02*
D03*
X00678750Y00904850D02*
D03*
Y00885850D02*
D03*
X00654750Y00857250D02*
D03*
X00678750Y00866750D02*
D03*
Y00847750D02*
D03*
X02037650Y01485900D02*
D03*
X02013650Y01476400D02*
D03*
Y01495400D02*
D03*
X01997010Y01485900D02*
D03*
X01973010Y01476400D02*
D03*
Y01495400D02*
D03*
X01997010Y01727200D02*
D03*
X01973010Y01717700D02*
D03*
Y01736700D02*
D03*
X02037650Y01727200D02*
D03*
X02013650Y01717700D02*
D03*
Y01736700D02*
D03*
X00946850Y01200150D02*
D03*
X00970850Y01209650D02*
D03*
Y01190650D02*
D03*
X00946850Y01238250D02*
D03*
X00970850Y01247750D02*
D03*
Y01228750D02*
D03*
X00946850Y01276350D02*
D03*
X00970850Y01285850D02*
D03*
Y01266850D02*
D03*
X00946850Y01314450D02*
D03*
X00970850Y01323950D02*
D03*
Y01304950D02*
D03*
D136*
X02070100Y01484080D02*
D03*
Y01535980D02*
D03*
Y01726650D02*
D03*
Y01778550D02*
D03*
Y01364700D02*
D03*
Y01416600D02*
D03*
Y01606000D02*
D03*
Y01657900D02*
D03*
Y01123400D02*
D03*
Y01175300D02*
D03*
Y01244050D02*
D03*
Y01295950D02*
D03*
D137*
X02184400Y01510030D02*
D03*
Y01752600D02*
D03*
Y01390650D02*
D03*
Y01631950D02*
D03*
Y01149350D02*
D03*
Y01270000D02*
D03*
D138*
X01459900Y01369650D02*
D03*
X01464900D02*
D03*
X01489900D02*
D03*
X01484900D02*
D03*
X01509900D02*
D03*
X01504900D02*
D03*
X01499900D02*
D03*
X01494900D02*
D03*
X01479900D02*
D03*
X01474900D02*
D03*
X01469900D02*
D03*
X01454900D02*
D03*
X01449900D02*
D03*
X01444900D02*
D03*
X01439900D02*
D03*
X01434900D02*
D03*
X01429900D02*
D03*
X01424900D02*
D03*
X01419900D02*
D03*
X01414900D02*
D03*
X01409900D02*
D03*
X01404900D02*
D03*
X01399900D02*
D03*
X01394900D02*
D03*
X01389900D02*
D03*
X01384900D02*
D03*
X01379900D02*
D03*
X01374900D02*
D03*
X01369900D02*
D03*
X01364900D02*
D03*
X01359900D02*
D03*
X01354900D02*
D03*
X01349900D02*
D03*
X01344900D02*
D03*
X01339900D02*
D03*
X01334900D02*
D03*
Y01157650D02*
D03*
X01339900D02*
D03*
X01344900D02*
D03*
X01349900D02*
D03*
X01354900D02*
D03*
X01359900D02*
D03*
X01364900D02*
D03*
X01369900D02*
D03*
X01374900D02*
D03*
X01379900D02*
D03*
X01384900D02*
D03*
X01389900D02*
D03*
X01394900D02*
D03*
X01399900D02*
D03*
X01404900D02*
D03*
X01409900D02*
D03*
X01414900D02*
D03*
X01419900D02*
D03*
X01424900D02*
D03*
X01429900D02*
D03*
X01434900D02*
D03*
X01439900D02*
D03*
X01444900D02*
D03*
X01449900D02*
D03*
X01454900D02*
D03*
X01459900D02*
D03*
X01464900D02*
D03*
X01469900D02*
D03*
X01474900D02*
D03*
X01479900D02*
D03*
X01484900D02*
D03*
X01489900D02*
D03*
X01494900D02*
D03*
X01499900D02*
D03*
X01504900D02*
D03*
X01509900D02*
D03*
D139*
X01283970Y01543050D02*
D03*
X01238250D02*
D03*
X01268730D02*
D03*
X01299210D02*
D03*
X01162050Y01691750D02*
D03*
X01177290D02*
D03*
X01192530D02*
D03*
X01207770D02*
D03*
X01223010D02*
D03*
X01238250D02*
D03*
X01253490D02*
D03*
X01268730D02*
D03*
X01283970D02*
D03*
X01299210D02*
D03*
X01314450D02*
D03*
X01329690D02*
D03*
Y01543050D02*
D03*
X01314450D02*
D03*
X01253490D02*
D03*
X01223010D02*
D03*
X01207770D02*
D03*
X01192530D02*
D03*
X01177290D02*
D03*
X01162050D02*
D03*
D140*
X01527100Y01447800D02*
D03*
X01597100D02*
D03*
X00720800Y01301750D02*
D03*
X00650800D02*
D03*
X00701750Y01035050D02*
D03*
X00631750D02*
D03*
X00898600Y00533400D02*
D03*
X00828600D02*
D03*
X01274520Y01727200D02*
D03*
X01204520D02*
D03*
X00930200Y01498600D02*
D03*
X01000200D02*
D03*
X00930200Y01441450D02*
D03*
X01000200D02*
D03*
X00815900Y01555750D02*
D03*
X00885900D02*
D03*
Y01428750D02*
D03*
X00815900D02*
D03*
D141*
X00787400Y00493350D02*
D03*
Y00535350D02*
D03*
D142*
X00615950Y00812500D02*
D03*
Y00832500D02*
D03*
Y00852500D02*
D03*
Y00872500D02*
D03*
Y00892500D02*
D03*
Y00912500D02*
D03*
Y00932500D02*
D03*
Y00952500D02*
D03*
D143*
X00561150Y00787150D02*
D03*
Y00978150D02*
D03*
D144*
X02037650Y00784450D02*
D03*
Y00777950D02*
D03*
Y00771450D02*
D03*
Y00764950D02*
D03*
X02077150Y00784450D02*
D03*
Y00777950D02*
D03*
Y00771450D02*
D03*
Y00764950D02*
D03*
Y00841150D02*
D03*
Y00847650D02*
D03*
Y00854150D02*
D03*
Y00860650D02*
D03*
X02037650Y00841150D02*
D03*
Y00847650D02*
D03*
Y00854150D02*
D03*
Y00860650D02*
D03*
D145*
X01181800Y01793850D02*
D03*
Y01784350D02*
D03*
Y01774850D02*
D03*
X01205800D02*
D03*
Y01793850D02*
D03*
D146*
X00891260Y01140620D02*
D03*
Y01129620D02*
D03*
Y01118620D02*
D03*
Y01107620D02*
D03*
Y01096620D02*
D03*
Y01085620D02*
D03*
Y01074620D02*
D03*
Y01063620D02*
D03*
D147*
X00949960Y01163320D02*
D03*
Y01027320D02*
D03*
X00865960Y01163320D02*
D03*
Y01027320D02*
D03*
D148*
X01147350Y01562850D02*
D03*
Y01578090D02*
D03*
Y01593330D02*
D03*
Y01608570D02*
D03*
Y01623810D02*
D03*
D149*
X01261050Y01617400D02*
D03*
D150*
X01227644Y01794957D02*
D03*
X01248857Y01773743D02*
D03*
D151*
X01573450Y01403350D02*
D03*
X01525350D02*
D03*
D152*
X00626050Y01155700D02*
D03*
Y01143000D02*
D03*
Y01130300D02*
D03*
Y01117600D02*
D03*
X00682050Y01155700D02*
D03*
Y01143000D02*
D03*
Y01130300D02*
D03*
Y01117600D02*
D03*
D153*
X02160900Y01022350D02*
D03*
Y01009650D02*
D03*
Y00996950D02*
D03*
Y00984250D02*
D03*
X02207900Y01022350D02*
D03*
Y01009650D02*
D03*
Y00996950D02*
D03*
Y00984250D02*
D03*
D154*
X01120140Y01801570D02*
D03*
Y01731570D02*
D03*
D155*
X00965200Y01607500D02*
D03*
Y01631000D02*
D03*
X01066800Y01637350D02*
D03*
Y01613850D02*
D03*
X00965200Y01747200D02*
D03*
Y01770700D02*
D03*
X01066800Y01777050D02*
D03*
Y01753550D02*
D03*
X02120900Y00951550D02*
D03*
Y00928050D02*
D03*
X01206500Y01480500D02*
D03*
Y01504000D02*
D03*
X01682750Y01307150D02*
D03*
Y01283650D02*
D03*
Y01328100D02*
D03*
Y01351600D02*
D03*
X01409700Y01029020D02*
D03*
Y01005520D02*
D03*
D156*
X00735650Y01143000D02*
D03*
X00712150D02*
D03*
X01910400Y01530350D02*
D03*
X01886900D02*
D03*
X01740850Y01409700D02*
D03*
X01764350D02*
D03*
X02240920Y00803910D02*
D03*
X02217420D02*
D03*
X02069150Y00819150D02*
D03*
X02045650D02*
D03*
X02227900Y00718820D02*
D03*
X02204400D02*
D03*
X02069150Y00742950D02*
D03*
X02045650D02*
D03*
X01180150Y01727200D02*
D03*
X01156650D02*
D03*
X01910400Y01581150D02*
D03*
X01886900D02*
D03*
X01910400Y01651000D02*
D03*
X01886900D02*
D03*
X02177100Y00958850D02*
D03*
X02153600D02*
D03*
X01910400Y01803400D02*
D03*
X01886900D02*
D03*
X01910400Y01727200D02*
D03*
X01886900D02*
D03*
X01524320Y01498600D02*
D03*
X01500820D02*
D03*
X01459550Y00944880D02*
D03*
X01436050D02*
D03*
X01479870Y00843280D02*
D03*
X01456370D02*
D03*
X01479870Y00810260D02*
D03*
X01456370D02*
D03*
D157*
X01890750Y01162050D02*
D03*
X01919250D02*
D03*
X00725450Y01181100D02*
D03*
X00696950D02*
D03*
X00668300D02*
D03*
X00639800D02*
D03*
X01919250Y01079500D02*
D03*
X01890750D02*
D03*
X01719300Y00965200D02*
D03*
X01747800D02*
D03*
X01919250D02*
D03*
X01890750D02*
D03*
X01738350Y00996950D02*
D03*
X01766850D02*
D03*
X01890750Y01022350D02*
D03*
X01919250D02*
D03*
X01738350D02*
D03*
X01766850D02*
D03*
X01890750Y01136650D02*
D03*
X01919250D02*
D03*
X01738350Y01200150D02*
D03*
X01766850D02*
D03*
X01890750Y01219200D02*
D03*
X01919250D02*
D03*
X01738350Y01225550D02*
D03*
X01766850D02*
D03*
X00690600Y01339850D02*
D03*
X00719100D02*
D03*
X01538250Y01727200D02*
D03*
X01509750D02*
D03*
X01652550D02*
D03*
X01624050D02*
D03*
X02240000Y00966470D02*
D03*
X02268500D02*
D03*
X01036600Y01162050D02*
D03*
X01008100D02*
D03*
X01036600Y01136650D02*
D03*
X01008100D02*
D03*
X01036600Y01111250D02*
D03*
X01008100D02*
D03*
X01036600Y01085850D02*
D03*
X01008100D02*
D03*
X01036600Y01035050D02*
D03*
X01008100D02*
D03*
X01036600Y01060450D02*
D03*
X01008100D02*
D03*
X01744700Y01492250D02*
D03*
X01773200D02*
D03*
X01744700Y01524000D02*
D03*
X01773200D02*
D03*
X01912900Y01479550D02*
D03*
X01884400D02*
D03*
X01912900Y01504950D02*
D03*
X01884400D02*
D03*
X02252700Y00842010D02*
D03*
X02281200D02*
D03*
X01744700Y01435100D02*
D03*
X01773200D02*
D03*
X02252700Y00863600D02*
D03*
X02281200D02*
D03*
X01884400Y01422400D02*
D03*
X01912900D02*
D03*
X02252700Y00781050D02*
D03*
X02281200D02*
D03*
X02281200Y00759460D02*
D03*
X02252700D02*
D03*
X01744700Y01549400D02*
D03*
X01773200D02*
D03*
X01744700Y01587500D02*
D03*
X01773200D02*
D03*
X02240000Y01041400D02*
D03*
X02268500D02*
D03*
X01744700Y01612900D02*
D03*
X01773200D02*
D03*
X02268500Y01016000D02*
D03*
X02240000D02*
D03*
X01744700Y01651000D02*
D03*
X01773200D02*
D03*
X01912900Y01557020D02*
D03*
X01884400D02*
D03*
X01912900Y01600200D02*
D03*
X01884400D02*
D03*
X01912900Y01625600D02*
D03*
X01884400D02*
D03*
X02116100Y00977900D02*
D03*
X02087600D02*
D03*
X02065300D02*
D03*
X02036800D02*
D03*
X02240000Y00990600D02*
D03*
X02268500D02*
D03*
X01919250Y01257300D02*
D03*
X01890750D02*
D03*
X01738350D02*
D03*
X01766850D02*
D03*
X01890750Y01371600D02*
D03*
X01919250D02*
D03*
X01738350Y01384300D02*
D03*
X01766850D02*
D03*
X01919250Y01314450D02*
D03*
X01890750D02*
D03*
X01738350D02*
D03*
X01766850D02*
D03*
X02008150Y01225550D02*
D03*
X01979650D02*
D03*
X01912900Y01701800D02*
D03*
X01884400D02*
D03*
X01773200Y01676400D02*
D03*
X01744700D02*
D03*
X02008150Y01085850D02*
D03*
X01979650D02*
D03*
X01773200Y01714500D02*
D03*
X01744700D02*
D03*
X01912900Y01676400D02*
D03*
X01884400D02*
D03*
X02020850Y01432560D02*
D03*
X01992350D02*
D03*
X02020850Y01454150D02*
D03*
X01992350D02*
D03*
X02020850Y01517650D02*
D03*
X01992350D02*
D03*
X01912900Y01752600D02*
D03*
X01884400D02*
D03*
X02020850Y01673860D02*
D03*
X01992350D02*
D03*
X01773200Y01739900D02*
D03*
X01744700D02*
D03*
X02020850Y01695450D02*
D03*
X01992350D02*
D03*
X02020850Y01758950D02*
D03*
X01992350D02*
D03*
X01773200Y01778000D02*
D03*
X01744700D02*
D03*
X01912900D02*
D03*
X01884400D02*
D03*
X01912900Y01454150D02*
D03*
X01884400D02*
D03*
X01744700Y01460500D02*
D03*
X01773200D02*
D03*
X01573250Y01352550D02*
D03*
X01601750D02*
D03*
X01481100Y00774700D02*
D03*
X01452600D02*
D03*
X01036600Y01200150D02*
D03*
X01008100D02*
D03*
X01036600Y01238250D02*
D03*
X01008100D02*
D03*
X01036600Y01276350D02*
D03*
X01008100D02*
D03*
X01036600Y01314450D02*
D03*
X01008100D02*
D03*
D158*
X00878250Y00488950D02*
D03*
X00836250D02*
D03*
X01557700Y01657350D02*
D03*
X01515700D02*
D03*
X01630000D02*
D03*
X01672000D02*
D03*
X01515700Y01695450D02*
D03*
X01557700D02*
D03*
X01672000D02*
D03*
X01630000D02*
D03*
D159*
X02139950Y00728300D02*
D03*
Y00770300D02*
D03*
Y00846500D02*
D03*
Y00804500D02*
D03*
D160*
X01394700Y01790700D02*
D03*
X01424700D02*
D03*
X00923050Y01200150D02*
D03*
X00893050D02*
D03*
X00923050Y01244600D02*
D03*
X00893050D02*
D03*
X00923050Y01289050D02*
D03*
X00893050D02*
D03*
X00923050Y01333500D02*
D03*
X00893050D02*
D03*
D161*
X00762000Y01312150D02*
D03*
Y01342150D02*
D03*
X01924050Y00884950D02*
D03*
Y00854950D02*
D03*
X01873250Y00884950D02*
D03*
Y00854950D02*
D03*
X01822450Y00884950D02*
D03*
Y00854950D02*
D03*
X01974850Y00884950D02*
D03*
Y00854950D02*
D03*
D162*
X01600200Y00547250D02*
D03*
Y00532250D02*
D03*
X01098550Y01092080D02*
D03*
Y01077080D02*
D03*
X01187450Y00553600D02*
D03*
Y00538600D02*
D03*
X00977900D02*
D03*
Y00553600D02*
D03*
X01397000Y00547250D02*
D03*
Y00532250D02*
D03*
X01123950Y01092080D02*
D03*
Y01077080D02*
D03*
X01301750Y01778120D02*
D03*
Y01793120D02*
D03*
X01327150D02*
D03*
Y01778120D02*
D03*
X01352550D02*
D03*
Y01793120D02*
D03*
D163*
X01470660Y01052700D02*
D03*
X01457960D02*
D03*
X01445260D02*
D03*
X01432560D02*
D03*
X01470660Y01004700D02*
D03*
X01457960D02*
D03*
X01445260D02*
D03*
X01432560D02*
D03*
X00800100Y01109850D02*
D03*
X00787400D02*
D03*
X00774700D02*
D03*
X00762000D02*
D03*
X00800100Y01061850D02*
D03*
X00787400D02*
D03*
X00774700D02*
D03*
X00762000D02*
D03*
X01397000Y00858650D02*
D03*
X01409700D02*
D03*
X01422400D02*
D03*
X01435100D02*
D03*
X01397000Y00906650D02*
D03*
X01409700D02*
D03*
X01422400D02*
D03*
X01435100D02*
D03*
X01397000Y00767210D02*
D03*
X01435100D02*
D03*
X01397000Y00815210D02*
D03*
X01409700D02*
D03*
X01422400D02*
D03*
X01435100D02*
D03*
X01422400Y00767210D02*
D03*
X01409700D02*
D03*
D164*
X00880400Y01469250D02*
D03*
Y01492250D02*
D03*
Y01515250D02*
D03*
D165*
X00821400Y01492250D02*
D03*
D166*
X02275000Y01750000D02*
D03*
Y01125000D02*
D03*
X02000000Y01375000D02*
D03*
Y01600000D02*
D03*
X02375000Y00325000D02*
D03*
X00575000D02*
D03*
X02375000Y01775000D02*
D03*
X00575000D02*
D03*
D167*
X01333500Y01041400D02*
D03*
Y01016000D02*
D03*
X01308100Y01041400D02*
D03*
Y01016000D02*
D03*
X01282700Y01041400D02*
D03*
Y01016000D02*
D03*
X01257300Y01041400D02*
D03*
Y01016000D02*
D03*
X01231900Y01041400D02*
D03*
D168*
Y01016000D02*
D03*
D169*
X02336800Y01098550D02*
D03*
Y01200150D02*
D03*
Y01149350D02*
D03*
Y01250950D02*
D03*
Y01574800D02*
D03*
Y01524000D02*
D03*
Y01473200D02*
D03*
Y01371600D02*
D03*
Y01422400D02*
D03*
Y01320800D02*
D03*
Y01625600D02*
D03*
Y01676400D02*
D03*
X00635000Y01397000D02*
D03*
Y01498600D02*
D03*
Y01447800D02*
D03*
Y01549400D02*
D03*
X00850900Y00393700D02*
D03*
X00749300D02*
D03*
X00800100D02*
D03*
X00698500D02*
D03*
D170*
X01041400Y01441450D02*
D03*
X00838200Y00596900D02*
D03*
D171*
X01041400Y01466850D02*
D03*
Y01492250D02*
D03*
X01033550Y00736600D02*
D03*
X01243100D02*
D03*
X01452650D02*
D03*
X01013150Y00553400D02*
D03*
X01133150D02*
D03*
X01216350D02*
D03*
X01336350D02*
D03*
X01655850Y00730250D02*
D03*
X00838200Y00647700D02*
D03*
Y00622300D02*
D03*
X01629100Y00553400D02*
D03*
X01749100D02*
D03*
X01425900D02*
D03*
X01545900D02*
D03*
X00711200Y01619250D02*
D03*
Y01701800D02*
D03*
X00590550Y01619250D02*
D03*
Y01701800D02*
D03*
D172*
X00750050Y00756920D02*
D03*
X00761600Y01422400D02*
D03*
X01790700Y01104900D02*
D03*
Y01079500D02*
D03*
X01866900Y01104900D02*
D03*
X01739900Y00920750D02*
D03*
X01765300Y00844550D02*
D03*
X01739900D02*
D03*
X01708150D02*
D03*
X01682750Y00920750D02*
D03*
X01708150D02*
D03*
X01651000D02*
D03*
X01625600D02*
D03*
X01651000Y00844550D02*
D03*
X01593850Y00920750D02*
D03*
X01568450D02*
D03*
X01593850Y00844550D02*
D03*
X00996950D02*
D03*
X01022350D02*
D03*
X00996950Y00920750D02*
D03*
X01790700Y01022350D02*
D03*
X01866900Y01047750D02*
D03*
Y01022350D02*
D03*
X00654050Y00459740D02*
D03*
X00730250Y00441960D02*
D03*
X00819150Y00459740D02*
D03*
X00895350Y00441960D02*
D03*
X01606550Y01771650D02*
D03*
X01631950D02*
D03*
X01657350D02*
D03*
X01492250D02*
D03*
X01517650D02*
D03*
X01543050D02*
D03*
X01136650Y00844550D02*
D03*
X01111250Y00920750D02*
D03*
X01136650D02*
D03*
X01790700Y00990600D02*
D03*
Y00965200D02*
D03*
X01866900Y00990600D02*
D03*
X01511300Y00920750D02*
D03*
X01536700Y00844550D02*
D03*
X01511300D02*
D03*
X01866900Y01136650D02*
D03*
Y01162050D02*
D03*
X01790700Y01136650D02*
D03*
X01866900Y01219200D02*
D03*
X01790700Y01193800D02*
D03*
Y01219200D02*
D03*
X01339842Y00844550D02*
D03*
X01365242D02*
D03*
X01339842Y00920750D02*
D03*
X00939792D02*
D03*
X00965192Y00844550D02*
D03*
X00939792D02*
D03*
X01225542D02*
D03*
X01250942D02*
D03*
X01225542Y00920750D02*
D03*
X01079492Y00844550D02*
D03*
X01054092Y00920750D02*
D03*
X01079492D02*
D03*
X01168392Y00844550D02*
D03*
X01193792D02*
D03*
X01168392Y00920750D02*
D03*
X01866900Y01282700D02*
D03*
X01790700Y01257300D02*
D03*
Y01282700D02*
D03*
X01866900Y01371600D02*
D03*
Y01397000D02*
D03*
X01790700Y01371600D02*
D03*
X01866900Y01339850D02*
D03*
X01790700Y01314450D02*
D03*
Y01339850D02*
D03*
X01282692Y00844550D02*
D03*
X01308092D02*
D03*
X01282692Y00920750D02*
D03*
X00653650Y00622300D02*
D03*
X00749300Y00597300D02*
D03*
X00736600Y01555350D02*
D03*
X00999490Y01403350D02*
D03*
X00848360Y01680210D02*
D03*
X00787400Y00558800D02*
D03*
X00577850Y00889000D02*
D03*
X01009650Y00438150D02*
D03*
D173*
X00685050Y00756920D02*
D03*
X00711600Y01422400D02*
D03*
X01866900Y01079500D02*
D03*
X01790700Y01047750D02*
D03*
X01866900Y00965200D02*
D03*
X01790700Y01162050D02*
D03*
X01866900Y01193800D02*
D03*
Y01257300D02*
D03*
X01790700Y01397000D02*
D03*
X01866900Y01314450D02*
D03*
X00603650Y00622300D02*
D03*
D174*
X01131580Y00414020D02*
D03*
X01109980D02*
D03*
X01174780D02*
D03*
X01196380D02*
D03*
X01217980D02*
D03*
X01239580D02*
D03*
X01261180D02*
D03*
X01282780D02*
D03*
X01304380D02*
D03*
X01325980D02*
D03*
X01347580D02*
D03*
X01369180D02*
D03*
X01390780D02*
D03*
X01412380D02*
D03*
X01433980D02*
D03*
X01455580D02*
D03*
X01477180D02*
D03*
X01498780D02*
D03*
X01520380D02*
D03*
X01541980D02*
D03*
X01563580D02*
D03*
X01585180D02*
D03*
X01606780D02*
D03*
X01628380D02*
D03*
X01109980Y00371120D02*
D03*
X01131580D02*
D03*
X01153180D02*
D03*
X01174780D02*
D03*
X01196380D02*
D03*
X01217980D02*
D03*
X01239580D02*
D03*
X01261180D02*
D03*
X01282780D02*
D03*
X01304380D02*
D03*
X01325980D02*
D03*
X01347580D02*
D03*
X01369180D02*
D03*
X01390780D02*
D03*
X01412380D02*
D03*
X01433980D02*
D03*
X01455580D02*
D03*
X01477180D02*
D03*
X01498780D02*
D03*
X01520380D02*
D03*
X01541980D02*
D03*
X01563580D02*
D03*
X01585180D02*
D03*
X01606780D02*
D03*
X01153180Y00414020D02*
D03*
X01628380Y00371120D02*
D03*
D175*
X01743680Y00392570D02*
D03*
X00994680D02*
D03*
D176*
X01765300Y00920750D02*
D03*
X01682750Y00844550D02*
D03*
X01625600D02*
D03*
X01568450D02*
D03*
X01022350Y00920750D02*
D03*
X01111250Y00844550D02*
D03*
X01536700Y00920750D02*
D03*
X01365242D02*
D03*
X00965192D02*
D03*
X01250942D02*
D03*
X01054092Y00844550D02*
D03*
X01193792Y00920750D02*
D03*
X01308092D02*
D03*
X00749300Y00647300D02*
D03*
X00736600Y01505350D02*
D03*
D177*
X01644650Y01290050D02*
D03*
D178*
Y01338850D02*
D03*
D179*
X01138150Y00736600D02*
D03*
X01347700D02*
D03*
X01557250D02*
D03*
X01760450Y00730250D02*
D03*
D180*
X01013150Y00675400D02*
D03*
X01133150D02*
D03*
X01216350D02*
D03*
X01336350D02*
D03*
X01689100Y00533400D02*
D03*
X01629100Y00675400D02*
D03*
X01749100D02*
D03*
X01485900Y00533400D02*
D03*
X01425900Y00675400D02*
D03*
X01545900D02*
D03*
X01276350Y00533400D02*
D03*
X01073150D02*
D03*
D181*
X01651000Y01036650D02*
D03*
Y01236650D02*
D03*
D182*
X00800100Y01092200D02*
D03*
X00831850Y01168400D02*
D03*
Y01125220D02*
D03*
X00800100Y01079500D02*
D03*
X00806450Y00996950D02*
D03*
X00742950Y00869950D02*
D03*
X00793750Y00996950D02*
D03*
X00742950Y00882650D02*
D03*
X00762000Y01092200D02*
D03*
X01587500Y01174750D02*
D03*
X01718310Y01225550D02*
D03*
X01174750Y01314450D02*
D03*
X00876300Y01320800D02*
D03*
Y01282700D02*
D03*
Y01244600D02*
D03*
Y01206500D02*
D03*
X01557020Y01160780D02*
D03*
X01587500Y01028700D02*
D03*
X00762000Y01079500D02*
D03*
X00914400Y01397000D02*
D03*
X00798830Y01212850D02*
D03*
X00781050Y01162050D02*
D03*
D183*
X02114550Y01148080D02*
D03*
X02273300Y01270000D02*
D03*
M02*
