%FSAX44Y44*%
%MOMM*%
G71*
G01*
G75*
G04 Layer_Color=8388736*
%ADD10R,0.8000X0.8000*%
%ADD11R,1.3500X1.5000*%
%ADD12R,0.7000X1.0000*%
%ADD13R,1.0000X0.7000*%
%ADD14R,3.8100X2.0300*%
%ADD15R,8.8900X11.4300*%
%ADD16R,1.5000X1.3500*%
%ADD17O,1.6500X0.3000*%
%ADD18O,0.3000X1.6500*%
G04:AMPARAMS|DCode=19|XSize=1mm|YSize=1.85mm|CornerRadius=0.5mm|HoleSize=0mm|Usage=FLASHONLY|Rotation=0.000|XOffset=0mm|YOffset=0mm|HoleType=Round|Shape=RoundedRectangle|*
%AMROUNDEDRECTD19*
21,1,1.0000,0.8500,0,0,0.0*
21,1,0.0000,1.8500,0,0,0.0*
1,1,1.0000,0.0000,-0.4250*
1,1,1.0000,0.0000,-0.4250*
1,1,1.0000,0.0000,0.4250*
1,1,1.0000,0.0000,0.4250*
%
%ADD19ROUNDEDRECTD19*%
%ADD20R,1.4500X1.3500*%
%ADD21R,2.6000X1.5000*%
%ADD22R,2.6000X4.1000*%
%ADD23R,2.5000X2.0000*%
%ADD24R,1.3500X1.4500*%
%ADD25R,2.0000X2.5000*%
%ADD26R,1.5000X3.2000*%
%ADD27R,3.2000X1.5000*%
%ADD28R,0.8000X0.8000*%
%ADD29O,2.2000X0.6000*%
%ADD30R,3.2000X1.2000*%
%ADD31R,5.3000X1.7000*%
%ADD32O,1.9000X0.4100*%
%ADD33R,2.6000X1.3500*%
%ADD34R,1.3500X2.6000*%
%ADD35R,1.0000X0.6000*%
%ADD36R,1.0500X0.6000*%
%ADD37R,2.0000X1.5000*%
G04:AMPARAMS|DCode=38|XSize=1mm|YSize=1.85mm|CornerRadius=0.5mm|HoleSize=0mm|Usage=FLASHONLY|Rotation=90.000|XOffset=0mm|YOffset=0mm|HoleType=Round|Shape=RoundedRectangle|*
%AMROUNDEDRECTD38*
21,1,1.0000,0.8500,0,0,90.0*
21,1,0.0000,1.8500,0,0,90.0*
1,1,1.0000,0.4250,0.0000*
1,1,1.0000,0.4250,0.0000*
1,1,1.0000,-0.4250,0.0000*
1,1,1.0000,-0.4250,0.0000*
%
%ADD38ROUNDEDRECTD38*%
%ADD39R,10.0000X8.0000*%
%ADD40P,1.8385X4X270.0*%
%ADD41R,1.5000X2.6000*%
%ADD42O,0.6000X2.2000*%
%ADD43R,2.1000X2.3000*%
%ADD44R,2.0000X0.7000*%
%ADD45R,2.1000X2.9900*%
%ADD46O,2.1500X0.9000*%
%ADD47R,4.1000X2.6000*%
%ADD48R,0.9500X0.9000*%
%ADD49R,0.9500X0.9000*%
%ADD50R,2.5000X2.5000*%
%ADD51O,0.7500X0.2000*%
%ADD52O,0.2000X0.7500*%
%ADD53R,2.9900X2.1000*%
%ADD54R,2.3000X0.5000*%
%ADD55O,1.9000X0.6000*%
%ADD56C,0.2540*%
%ADD57C,1.0000*%
%ADD58C,4.0000*%
%ADD59C,0.3840*%
%ADD60C,1.5000*%
%ADD61C,0.9000*%
%ADD62C,2.0000*%
%ADD63C,0.8000*%
%ADD64C,0.5000*%
%ADD65C,0.3810*%
%ADD66C,0.5240*%
%ADD67C,0.5080*%
%ADD68R,2.0320X2.1590*%
%ADD69R,3.5560X1.2700*%
%ADD70R,3.3020X1.2700*%
%ADD71R,3.3020X1.3970*%
%ADD72R,1.2700X1.2700*%
%ADD73R,1.9050X1.2946*%
%ADD74R,2.0320X2.0320*%
%ADD75R,1.1569X2.0320*%
%ADD76R,2.5400X1.2700*%
%ADD77R,2.1590X2.1590*%
%ADD78R,0.8890X0.5080*%
%ADD79R,0.8890X1.1430*%
%ADD80R,11.4300X23.4950*%
%ADD81R,11.4300X23.3680*%
%ADD82R,9.9060X12.1920*%
%ADD83R,0.8890X0.6350*%
%ADD84R,6.6040X3.9370*%
%ADD85R,3.5560X6.4770*%
%ADD86R,2.7940X2.2860*%
%ADD87R,12.4460X15.2400*%
%ADD88R,2.2860X2.2860*%
%ADD89R,3.8100X1.5240*%
%ADD90R,2.2860X11.1760*%
%ADD91R,1.2700X2.2860*%
%ADD92C,5.0000*%
%ADD93R,1.5000X1.5000*%
%ADD94C,1.5000*%
%ADD95C,4.8000*%
%ADD96C,1.6900*%
%ADD97R,1.6900X1.6900*%
%ADD98R,1.5000X1.5000*%
%ADD99P,1.5154X8X112.5*%
%ADD100C,1.4000*%
%ADD101R,1.3500X1.3500*%
%ADD102C,1.3500*%
%ADD103C,2.5400*%
%ADD104P,1.5154X8X22.5*%
%ADD105R,1.5200X1.5200*%
%ADD106C,1.5200*%
%ADD107R,2.0000X2.0000*%
%ADD108C,2.0000*%
%ADD109C,2.2000*%
%ADD110R,2.0000X2.0000*%
%ADD111C,1.5240*%
%ADD112C,0.6000*%
%ADD113C,0.8000*%
%ADD114C,3.0000*%
%ADD115C,2.5000*%
%ADD116C,4.2500*%
%ADD117C,4.0000*%
%ADD118R,2.8000X2.1000*%
%ADD119R,1.9000X0.6000*%
%ADD120R,1.0160X1.2700*%
%ADD121R,1.2805X1.2700*%
%ADD122R,12.7000X12.7000*%
%ADD123R,1.3970X2.0320*%
%ADD124R,2.4130X2.5400*%
%ADD125R,5.5880X2.0320*%
%ADD126C,0.0127*%
%ADD127C,0.2500*%
%ADD128C,0.6000*%
%ADD129C,0.2000*%
%ADD130C,0.1270*%
%ADD131C,0.1000*%
%ADD132C,0.1500*%
%ADD133R,2.7940X0.3810*%
%ADD134R,0.5500X3.9000*%
%ADD135R,2.5400X0.2540*%
%ADD136R,0.2540X2.5400*%
%ADD137R,0.3810X2.7940*%
%ADD138R,0.8000X2.8000*%
%ADD139R,3.9000X0.5500*%
%ADD140R,10.7950X10.7950*%
%ADD141R,1.0032X1.0032*%
%ADD142R,1.5532X1.7032*%
%ADD143R,0.9032X1.2032*%
%ADD144R,1.2032X0.9032*%
%ADD145R,4.0132X2.2332*%
%ADD146R,9.0932X11.6332*%
%ADD147R,1.7032X1.5532*%
%ADD148O,1.8532X0.5032*%
%ADD149O,0.5032X1.8532*%
G04:AMPARAMS|DCode=150|XSize=1.2032mm|YSize=2.0532mm|CornerRadius=0.6016mm|HoleSize=0mm|Usage=FLASHONLY|Rotation=0.000|XOffset=0mm|YOffset=0mm|HoleType=Round|Shape=RoundedRectangle|*
%AMROUNDEDRECTD150*
21,1,1.2032,0.8500,0,0,0.0*
21,1,0.0000,2.0532,0,0,0.0*
1,1,1.2032,0.0000,-0.4250*
1,1,1.2032,0.0000,-0.4250*
1,1,1.2032,0.0000,0.4250*
1,1,1.2032,0.0000,0.4250*
%
%ADD150ROUNDEDRECTD150*%
%ADD151R,1.6532X1.5532*%
%ADD152R,2.8032X1.7032*%
%ADD153R,2.8032X4.3032*%
%ADD154R,2.7032X2.2032*%
%ADD155R,1.5532X1.6532*%
%ADD156R,2.2032X2.7032*%
%ADD157R,1.7032X3.4032*%
%ADD158R,3.4032X1.7032*%
%ADD159R,1.0032X1.0032*%
%ADD160O,2.4032X0.8032*%
%ADD161R,3.4032X1.4032*%
%ADD162R,5.5032X1.9032*%
%ADD163O,2.1032X0.6132*%
%ADD164R,2.8032X1.5532*%
%ADD165R,1.5532X2.8032*%
%ADD166R,1.2032X0.8032*%
%ADD167R,1.2532X0.8032*%
%ADD168R,2.2032X1.7032*%
G04:AMPARAMS|DCode=169|XSize=1.2032mm|YSize=2.0532mm|CornerRadius=0.6016mm|HoleSize=0mm|Usage=FLASHONLY|Rotation=90.000|XOffset=0mm|YOffset=0mm|HoleType=Round|Shape=RoundedRectangle|*
%AMROUNDEDRECTD169*
21,1,1.2032,0.8500,0,0,90.0*
21,1,0.0000,2.0532,0,0,90.0*
1,1,1.2032,0.4250,0.0000*
1,1,1.2032,0.4250,0.0000*
1,1,1.2032,-0.4250,0.0000*
1,1,1.2032,-0.4250,0.0000*
%
%ADD169ROUNDEDRECTD169*%
%ADD170R,10.2032X8.2032*%
%ADD171P,2.1258X4X270.0*%
%ADD172R,1.7032X2.8032*%
%ADD173O,0.8032X2.4032*%
%ADD174R,2.3032X2.5032*%
%ADD175R,2.2032X0.9032*%
%ADD176R,2.3032X3.1932*%
%ADD177O,2.3532X1.1032*%
%ADD178R,4.3032X2.8032*%
%ADD179R,1.1532X1.1032*%
%ADD180R,1.1532X1.1032*%
%ADD181R,2.7032X2.7032*%
%ADD182O,0.9532X0.4032*%
%ADD183O,0.4032X0.9532*%
%ADD184R,3.1932X2.3032*%
%ADD185R,2.5032X0.7032*%
%ADD186O,2.1032X0.8032*%
%ADD187C,5.2032*%
%ADD188R,1.7032X1.7032*%
%ADD189C,1.7032*%
%ADD190C,5.0032*%
%ADD191C,1.8932*%
%ADD192R,1.8932X1.8932*%
%ADD193R,1.7032X1.7032*%
%ADD194P,1.7353X8X112.5*%
%ADD195C,1.6032*%
%ADD196R,1.5532X1.5532*%
%ADD197C,1.5532*%
%ADD198C,2.7432*%
%ADD199P,1.7353X8X22.5*%
%ADD200R,1.7232X1.7232*%
%ADD201C,1.7232*%
%ADD202R,2.2032X2.2032*%
%ADD203C,2.2032*%
%ADD204C,2.4032*%
%ADD205R,2.2032X2.2032*%
%ADD206C,1.7272*%
%ADD207C,0.8032*%
%ADD208C,3.2032*%
%ADD209C,4.2032*%
D87*
X00455930Y01111250D02*
D03*
D140*
X01990725Y00542925D02*
D03*
D141*
X01466850Y00303650D02*
D03*
Y00318650D02*
D03*
X01263650D02*
D03*
Y00303650D02*
D03*
X00850900D02*
D03*
Y00318650D02*
D03*
X01054100Y00303650D02*
D03*
Y00318650D02*
D03*
X01130300Y01067950D02*
D03*
Y01052950D02*
D03*
X01301750Y01798200D02*
D03*
Y01783200D02*
D03*
X01327150Y01798200D02*
D03*
Y01783200D02*
D03*
X01352550Y01798200D02*
D03*
Y01783200D02*
D03*
X01098550Y01052950D02*
D03*
Y01067950D02*
D03*
D142*
X00816610Y01433550D02*
D03*
Y01462050D02*
D03*
X01155700Y01770100D02*
D03*
Y01798600D02*
D03*
X01993900Y00700050D02*
D03*
Y00671550D02*
D03*
X01968500Y00671550D02*
D03*
Y00700050D02*
D03*
X01943100Y00700050D02*
D03*
Y00671550D02*
D03*
X01917700Y00671550D02*
D03*
Y00700050D02*
D03*
X01892300Y00700050D02*
D03*
Y00671550D02*
D03*
X01866900Y00671550D02*
D03*
Y00700050D02*
D03*
X01841500Y00700050D02*
D03*
Y00671550D02*
D03*
X01816100Y00671550D02*
D03*
Y00700050D02*
D03*
X01739900Y00820700D02*
D03*
Y00792200D02*
D03*
X01682750Y00792200D02*
D03*
Y00820700D02*
D03*
X01625600Y00792200D02*
D03*
Y00820700D02*
D03*
X01568450Y00792200D02*
D03*
Y00820700D02*
D03*
X02266950Y00655600D02*
D03*
Y00627100D02*
D03*
X01022350Y00944600D02*
D03*
Y00973100D02*
D03*
Y00820700D02*
D03*
Y00792200D02*
D03*
X01130300Y01030250D02*
D03*
Y01001750D02*
D03*
X01111250Y00973100D02*
D03*
Y00944600D02*
D03*
X01606550Y01284250D02*
D03*
Y01255750D02*
D03*
X01536700Y00792200D02*
D03*
Y00820700D02*
D03*
X01365242Y00944600D02*
D03*
Y00973100D02*
D03*
Y00792200D02*
D03*
Y00820700D02*
D03*
X01466850Y00438430D02*
D03*
Y00409930D02*
D03*
X00965192Y00944600D02*
D03*
Y00973100D02*
D03*
Y00792200D02*
D03*
Y00820700D02*
D03*
X01098550Y01030250D02*
D03*
Y01001750D02*
D03*
X01409700Y01719300D02*
D03*
Y01747800D02*
D03*
X01123950Y01728750D02*
D03*
Y01700250D02*
D03*
X01250942Y00944600D02*
D03*
Y00973100D02*
D03*
X01054092Y00792200D02*
D03*
Y00820700D02*
D03*
X01250942D02*
D03*
Y00792200D02*
D03*
X01054092Y00973100D02*
D03*
Y00944600D02*
D03*
X01193792D02*
D03*
Y00973100D02*
D03*
Y00820700D02*
D03*
Y00792200D02*
D03*
X02209800Y00754100D02*
D03*
Y00782600D02*
D03*
X01155700Y01478000D02*
D03*
Y01506500D02*
D03*
X01301750Y01747800D02*
D03*
Y01719300D02*
D03*
X01327150D02*
D03*
Y01747800D02*
D03*
X01352550D02*
D03*
Y01719300D02*
D03*
X02127250Y01008100D02*
D03*
Y01036600D02*
D03*
X02032000Y01328700D02*
D03*
Y01300200D02*
D03*
Y01265200D02*
D03*
Y01236700D02*
D03*
Y01195350D02*
D03*
Y01166850D02*
D03*
Y01103350D02*
D03*
Y01131850D02*
D03*
X01181100Y01478000D02*
D03*
Y01506500D02*
D03*
X00596908Y00512800D02*
D03*
Y00541300D02*
D03*
X00571508Y00512800D02*
D03*
Y00541300D02*
D03*
X00736592Y00820700D02*
D03*
Y00792200D02*
D03*
Y00973100D02*
D03*
Y00944600D02*
D03*
X00647708Y00512800D02*
D03*
Y00541300D02*
D03*
X00622308Y00512800D02*
D03*
Y00541300D02*
D03*
X00793742Y00820700D02*
D03*
Y00792200D02*
D03*
Y00973100D02*
D03*
Y00944600D02*
D03*
X00749308Y00512800D02*
D03*
Y00541300D02*
D03*
X00698508D02*
D03*
Y00512800D02*
D03*
X00723908Y00541300D02*
D03*
Y00512800D02*
D03*
X00673108D02*
D03*
Y00541300D02*
D03*
X00908042Y00820700D02*
D03*
Y00792200D02*
D03*
X00850892D02*
D03*
Y00820700D02*
D03*
X00908042Y00944600D02*
D03*
Y00973100D02*
D03*
X00850892D02*
D03*
Y00944600D02*
D03*
X01308092Y00820700D02*
D03*
Y00792200D02*
D03*
Y00973100D02*
D03*
Y00944600D02*
D03*
X01536700Y00973100D02*
D03*
Y00944600D02*
D03*
X01682750Y00973100D02*
D03*
Y00944600D02*
D03*
X01111250Y00792200D02*
D03*
Y00820700D02*
D03*
X01454150Y00792200D02*
D03*
Y00820700D02*
D03*
X01397000Y00792200D02*
D03*
Y00820700D02*
D03*
X01263650Y00411200D02*
D03*
Y00439700D02*
D03*
X01289050Y00411200D02*
D03*
Y00439700D02*
D03*
X01492250Y00438430D02*
D03*
Y00409930D02*
D03*
X01079500Y00433350D02*
D03*
Y00404850D02*
D03*
X01054100Y00433350D02*
D03*
Y00404850D02*
D03*
X00876300Y00411200D02*
D03*
Y00439700D02*
D03*
X00850900Y00411200D02*
D03*
Y00439700D02*
D03*
X00615950Y01058900D02*
D03*
Y01087400D02*
D03*
X00641350Y01058900D02*
D03*
Y01087400D02*
D03*
X00949960Y01618260D02*
D03*
Y01589760D02*
D03*
X00929640D02*
D03*
Y01618260D02*
D03*
X00899160Y01804950D02*
D03*
Y01776450D02*
D03*
X00939800Y01776450D02*
D03*
Y01804950D02*
D03*
X00960120D02*
D03*
Y01776450D02*
D03*
X00838200Y01776450D02*
D03*
Y01804950D02*
D03*
X00858520D02*
D03*
Y01776450D02*
D03*
X00878840D02*
D03*
Y01804950D02*
D03*
X00919480Y01776450D02*
D03*
Y01804950D02*
D03*
X00980440Y01804950D02*
D03*
Y01776450D02*
D03*
X01181100Y01084301D02*
D03*
Y01112801D02*
D03*
X01203960Y01112800D02*
D03*
Y01084300D02*
D03*
X01224280D02*
D03*
Y01112800D02*
D03*
X01244600D02*
D03*
Y01084300D02*
D03*
X01397000Y00973100D02*
D03*
Y00944600D02*
D03*
X01454150Y00973100D02*
D03*
Y00944600D02*
D03*
X01568450Y00973100D02*
D03*
Y00944600D02*
D03*
X01625600Y00973100D02*
D03*
Y00944600D02*
D03*
X02209800Y00865150D02*
D03*
Y00836650D02*
D03*
X02387600Y00468350D02*
D03*
Y00496850D02*
D03*
X02068830Y00439700D02*
D03*
Y00411200D02*
D03*
X02040890Y00439700D02*
D03*
Y00411200D02*
D03*
D143*
X01981200Y00748600D02*
D03*
X01990700Y00724600D02*
D03*
X01971700D02*
D03*
X01930400Y00748600D02*
D03*
X01939900Y00724600D02*
D03*
X01920900D02*
D03*
X01879600Y00748600D02*
D03*
X01889100Y00724600D02*
D03*
X01870100D02*
D03*
X01828800Y00748600D02*
D03*
X01838300Y00724600D02*
D03*
X01819300D02*
D03*
X02295550Y00699200D02*
D03*
X02314550D02*
D03*
X02305050Y00723200D02*
D03*
X00736600Y00488250D02*
D03*
X00746100Y00464250D02*
D03*
X00727100D02*
D03*
X00685800Y00488250D02*
D03*
X00695300Y00464250D02*
D03*
X00676300D02*
D03*
X00635000Y00488250D02*
D03*
X00644500Y00464250D02*
D03*
X00625500D02*
D03*
X00584200Y00488250D02*
D03*
X00593700Y00464250D02*
D03*
X00574700D02*
D03*
X01270000Y00489650D02*
D03*
X01260500Y00513650D02*
D03*
X01279500D02*
D03*
X02000250Y01326450D02*
D03*
X02009750Y01302450D02*
D03*
X01990750D02*
D03*
X02000250Y01269300D02*
D03*
X02009750Y01245300D02*
D03*
X01990750D02*
D03*
X02000250Y01129600D02*
D03*
X02009750Y01105600D02*
D03*
X01990750D02*
D03*
X02000250Y01193100D02*
D03*
X02009750Y01169100D02*
D03*
X01990750D02*
D03*
X00450850Y01478850D02*
D03*
X00460350Y01454850D02*
D03*
X00441350D02*
D03*
X01076300Y00513650D02*
D03*
X01057300D02*
D03*
X01066800Y00489650D02*
D03*
X00450850Y01683450D02*
D03*
X00441350Y01707450D02*
D03*
X00460350D02*
D03*
X01479550Y01726500D02*
D03*
X01489050Y01702500D02*
D03*
X01470050D02*
D03*
X01597660Y01726500D02*
D03*
X01607160Y01702500D02*
D03*
X01588160D02*
D03*
X01489050Y00513650D02*
D03*
X01470050D02*
D03*
X01479550Y00489650D02*
D03*
D144*
X02247200Y00631850D02*
D03*
Y00650850D02*
D03*
X02223200Y00641350D02*
D03*
X00851600Y00485750D02*
D03*
Y00466750D02*
D03*
X00875600Y00476250D02*
D03*
X01288350Y00361950D02*
D03*
X01264350Y00352450D02*
D03*
Y00371450D02*
D03*
X00583500Y00876300D02*
D03*
X00559500Y00866800D02*
D03*
Y00885800D02*
D03*
X00515050Y00857250D02*
D03*
X00539050Y00866750D02*
D03*
Y00847750D02*
D03*
Y00895350D02*
D03*
X00515050Y00885850D02*
D03*
Y00904850D02*
D03*
X01054800Y00365100D02*
D03*
Y00346100D02*
D03*
X01078800Y00355600D02*
D03*
X00851600Y00371450D02*
D03*
Y00352450D02*
D03*
X00875600Y00361950D02*
D03*
X02037650Y01485900D02*
D03*
X02013650Y01476400D02*
D03*
Y01495400D02*
D03*
X01997010Y01485900D02*
D03*
X01973010Y01476400D02*
D03*
Y01495400D02*
D03*
X01997010Y01727200D02*
D03*
X01973010Y01717700D02*
D03*
Y01736700D02*
D03*
X02037650Y01727200D02*
D03*
X02013650Y01717700D02*
D03*
Y01736700D02*
D03*
X00610300Y01308100D02*
D03*
X00634300Y01317600D02*
D03*
Y01298600D02*
D03*
X00610300Y01270000D02*
D03*
X00634300Y01279500D02*
D03*
Y01260500D02*
D03*
X00610300Y01231900D02*
D03*
X00634300Y01241400D02*
D03*
Y01222400D02*
D03*
X00610300Y01346200D02*
D03*
X00634300Y01355700D02*
D03*
Y01336700D02*
D03*
X01467550Y00371450D02*
D03*
Y00352450D02*
D03*
X01491550Y00361950D02*
D03*
X02331150Y00476250D02*
D03*
X02355150Y00485750D02*
D03*
Y00466750D02*
D03*
D145*
X02070100Y01484080D02*
D03*
Y01535980D02*
D03*
Y01726650D02*
D03*
Y01778550D02*
D03*
Y01364700D02*
D03*
Y01416600D02*
D03*
Y01606000D02*
D03*
Y01657900D02*
D03*
Y01123400D02*
D03*
Y01175300D02*
D03*
Y01244050D02*
D03*
Y01295950D02*
D03*
D146*
X02184400Y01510030D02*
D03*
Y01752600D02*
D03*
Y01390650D02*
D03*
Y01631950D02*
D03*
Y01149350D02*
D03*
Y01270000D02*
D03*
D147*
X01938300Y01079500D02*
D03*
X01909800D02*
D03*
X01601750Y01352550D02*
D03*
X01573250D02*
D03*
X01738350Y00965200D02*
D03*
X01766850D02*
D03*
X01757400Y01162050D02*
D03*
X01785900D02*
D03*
X01757400Y01193800D02*
D03*
X01785900D02*
D03*
X01909800Y01219200D02*
D03*
X01938300D02*
D03*
X01757400Y01079500D02*
D03*
X01785900D02*
D03*
X00735050Y01346200D02*
D03*
X00763550D02*
D03*
X02293900Y00679450D02*
D03*
X02265400D02*
D03*
X01008100Y01709420D02*
D03*
X01036600D02*
D03*
X00928650Y01397000D02*
D03*
X00900150D02*
D03*
X01538250Y01727200D02*
D03*
X01509750D02*
D03*
X01652550D02*
D03*
X01624050D02*
D03*
X00522250Y01708150D02*
D03*
X00493750D02*
D03*
X02268500Y00965200D02*
D03*
X02240000D02*
D03*
X01036600Y01162050D02*
D03*
X01008100D02*
D03*
Y01136650D02*
D03*
X01036600D02*
D03*
Y01111250D02*
D03*
X01008100D02*
D03*
Y01085850D02*
D03*
X01036600D02*
D03*
Y01035050D02*
D03*
X01008100D02*
D03*
Y01060450D02*
D03*
X01036600D02*
D03*
X01770100Y01492250D02*
D03*
X01798600D02*
D03*
Y01524000D02*
D03*
X01770100D02*
D03*
X01938300Y01479550D02*
D03*
X01909800D02*
D03*
Y01504950D02*
D03*
X01938300D02*
D03*
X02233650Y00825500D02*
D03*
X02262150D02*
D03*
X02144750Y00803910D02*
D03*
X02173250D02*
D03*
X01770100Y01435100D02*
D03*
X01798600D02*
D03*
X02233650Y00850900D02*
D03*
X02262150D02*
D03*
X01909800Y01422400D02*
D03*
X01938300D02*
D03*
X02233650Y00768350D02*
D03*
X02262150D02*
D03*
X02233650Y00742950D02*
D03*
X02262150D02*
D03*
X02144750Y00717550D02*
D03*
X02173250D02*
D03*
X01770100Y01549400D02*
D03*
X01798600D02*
D03*
Y01587500D02*
D03*
X01770100D02*
D03*
X02240000Y01041400D02*
D03*
X02268500D02*
D03*
X01798600Y01612900D02*
D03*
X01770100D02*
D03*
X02268500Y01016000D02*
D03*
X02240000D02*
D03*
X01798600Y01651000D02*
D03*
X01770100D02*
D03*
X01938300Y01557020D02*
D03*
X01909800D02*
D03*
Y01600200D02*
D03*
X01938300D02*
D03*
Y01625600D02*
D03*
X01909800D02*
D03*
X02087600Y00977900D02*
D03*
X02116100D02*
D03*
X02065300D02*
D03*
X02036800D02*
D03*
X02268500Y00990600D02*
D03*
X02240000D02*
D03*
X01909800Y01257300D02*
D03*
X01938300D02*
D03*
X01757400D02*
D03*
X01785900D02*
D03*
X01938300Y01371600D02*
D03*
X01909800D02*
D03*
X01757400Y01384300D02*
D03*
X01785900D02*
D03*
X01909800Y01314450D02*
D03*
X01938300D02*
D03*
X01757400D02*
D03*
X01785900D02*
D03*
X01979650Y01225550D02*
D03*
X02008150D02*
D03*
X01938300Y01701800D02*
D03*
X01909800D02*
D03*
X01798600Y01676400D02*
D03*
X01770100D02*
D03*
X02008150Y01085850D02*
D03*
X01979650D02*
D03*
X01770100Y01714500D02*
D03*
X01798600D02*
D03*
X01938300Y01676400D02*
D03*
X01909800D02*
D03*
X01992350Y01432560D02*
D03*
X02020850D02*
D03*
Y01454150D02*
D03*
X01992350D02*
D03*
Y01517650D02*
D03*
X02020850D02*
D03*
X01938300Y01752600D02*
D03*
X01909800D02*
D03*
X01992350Y01673860D02*
D03*
X02020850D02*
D03*
X01798600Y01739900D02*
D03*
X01770100D02*
D03*
X01992350Y01695450D02*
D03*
X02020850D02*
D03*
Y01758950D02*
D03*
X01992350D02*
D03*
X01770100Y01778000D02*
D03*
X01798600D02*
D03*
X01938300D02*
D03*
X01909800D02*
D03*
Y01454150D02*
D03*
X01938300D02*
D03*
X01770100Y01460500D02*
D03*
X01798600D02*
D03*
X01909800Y01136650D02*
D03*
X01938300D02*
D03*
X01757400Y00996950D02*
D03*
X01785900D02*
D03*
X01938300Y00965200D02*
D03*
X01909800D02*
D03*
X01757400Y01047750D02*
D03*
X01785900D02*
D03*
X01909800Y01022350D02*
D03*
X01938300D02*
D03*
X00712750Y01187450D02*
D03*
X00684250D02*
D03*
X00769900D02*
D03*
X00741400D02*
D03*
X00754100Y01123950D02*
D03*
X00782600D02*
D03*
X00947700Y01565910D02*
D03*
X00919200D02*
D03*
X00830300Y01562100D02*
D03*
X00858800D02*
D03*
X00890550Y01657350D02*
D03*
X00862050D02*
D03*
X00612420Y01477010D02*
D03*
X00583920D02*
D03*
Y01699260D02*
D03*
X00612420D02*
D03*
X01008100Y01752600D02*
D03*
X01036600D02*
D03*
Y01731010D02*
D03*
X01008100D02*
D03*
Y01643380D02*
D03*
X01036600D02*
D03*
Y01623060D02*
D03*
X01008100D02*
D03*
X00639800Y01543050D02*
D03*
X00668300D02*
D03*
Y01511300D02*
D03*
X00639800D02*
D03*
Y01663700D02*
D03*
X00668300D02*
D03*
Y01631950D02*
D03*
X00639800D02*
D03*
X00548920Y01258570D02*
D03*
X00520420D02*
D03*
X00548920Y01278890D02*
D03*
X00520420D02*
D03*
X00548920Y01299210D02*
D03*
X00520420D02*
D03*
Y01319530D02*
D03*
X00548920D02*
D03*
X00765250Y01441450D02*
D03*
X00793750D02*
D03*
X00488670Y01357630D02*
D03*
X00517170D02*
D03*
X00430250Y01384300D02*
D03*
X00458750D02*
D03*
X00493750Y01454150D02*
D03*
X00522250D02*
D03*
X01909800Y01162050D02*
D03*
X01938300D02*
D03*
D148*
X01316400Y01211150D02*
D03*
Y01281150D02*
D03*
Y01276150D02*
D03*
Y01271150D02*
D03*
Y01266150D02*
D03*
X01528400Y01176150D02*
D03*
Y01181150D02*
D03*
Y01186150D02*
D03*
Y01191150D02*
D03*
Y01196150D02*
D03*
Y01201150D02*
D03*
Y01206150D02*
D03*
Y01211150D02*
D03*
Y01216150D02*
D03*
Y01221150D02*
D03*
Y01226150D02*
D03*
Y01231150D02*
D03*
Y01236150D02*
D03*
Y01241150D02*
D03*
Y01246150D02*
D03*
Y01251150D02*
D03*
Y01256150D02*
D03*
Y01261150D02*
D03*
Y01266150D02*
D03*
Y01271150D02*
D03*
Y01276150D02*
D03*
Y01281150D02*
D03*
Y01286150D02*
D03*
Y01291150D02*
D03*
Y01296150D02*
D03*
Y01301150D02*
D03*
Y01306150D02*
D03*
Y01311150D02*
D03*
Y01316150D02*
D03*
Y01321150D02*
D03*
Y01326150D02*
D03*
Y01331150D02*
D03*
Y01336150D02*
D03*
Y01341150D02*
D03*
Y01346150D02*
D03*
Y01351150D02*
D03*
X01316400D02*
D03*
Y01346150D02*
D03*
Y01341150D02*
D03*
Y01336150D02*
D03*
Y01331150D02*
D03*
Y01326150D02*
D03*
Y01321150D02*
D03*
Y01316150D02*
D03*
Y01311150D02*
D03*
Y01306150D02*
D03*
Y01301150D02*
D03*
Y01296150D02*
D03*
Y01291150D02*
D03*
Y01286150D02*
D03*
Y01261150D02*
D03*
Y01256150D02*
D03*
Y01251150D02*
D03*
Y01246150D02*
D03*
Y01241150D02*
D03*
Y01236150D02*
D03*
Y01231150D02*
D03*
Y01226150D02*
D03*
Y01221150D02*
D03*
Y01216150D02*
D03*
Y01206150D02*
D03*
Y01201150D02*
D03*
Y01196150D02*
D03*
Y01191150D02*
D03*
Y01186150D02*
D03*
Y01181150D02*
D03*
Y01176150D02*
D03*
D149*
X01459900Y01369650D02*
D03*
X01464900D02*
D03*
X01489900D02*
D03*
X01484900D02*
D03*
X01509900D02*
D03*
X01504900D02*
D03*
X01499900D02*
D03*
X01494900D02*
D03*
X01479900D02*
D03*
X01474900D02*
D03*
X01469900D02*
D03*
X01454900D02*
D03*
X01449900D02*
D03*
X01444900D02*
D03*
X01439900D02*
D03*
X01434900D02*
D03*
X01429900D02*
D03*
X01424900D02*
D03*
X01419900D02*
D03*
X01414900D02*
D03*
X01409900D02*
D03*
X01404900D02*
D03*
X01399900D02*
D03*
X01394900D02*
D03*
X01389900D02*
D03*
X01384900D02*
D03*
X01379900D02*
D03*
X01374900D02*
D03*
X01369900D02*
D03*
X01364900D02*
D03*
X01359900D02*
D03*
X01354900D02*
D03*
X01349900D02*
D03*
X01344900D02*
D03*
X01339900D02*
D03*
X01334900D02*
D03*
Y01157650D02*
D03*
X01339900D02*
D03*
X01344900D02*
D03*
X01349900D02*
D03*
X01354900D02*
D03*
X01359900D02*
D03*
X01364900D02*
D03*
X01369900D02*
D03*
X01374900D02*
D03*
X01379900D02*
D03*
X01384900D02*
D03*
X01389900D02*
D03*
X01394900D02*
D03*
X01399900D02*
D03*
X01404900D02*
D03*
X01409900D02*
D03*
X01414900D02*
D03*
X01419900D02*
D03*
X01424900D02*
D03*
X01429900D02*
D03*
X01434900D02*
D03*
X01439900D02*
D03*
X01444900D02*
D03*
X01449900D02*
D03*
X01454900D02*
D03*
X01459900D02*
D03*
X01464900D02*
D03*
X01469900D02*
D03*
X01474900D02*
D03*
X01479900D02*
D03*
X01484900D02*
D03*
X01489900D02*
D03*
X01494900D02*
D03*
X01499900D02*
D03*
X01504900D02*
D03*
X01509900D02*
D03*
D150*
X01283970Y01543050D02*
D03*
X01238250D02*
D03*
X01268730D02*
D03*
X01299210D02*
D03*
X01162050Y01691750D02*
D03*
X01177290D02*
D03*
X01192530D02*
D03*
X01207770D02*
D03*
X01223010D02*
D03*
X01238250D02*
D03*
X01253490D02*
D03*
X01268730D02*
D03*
X01283970D02*
D03*
X01299210D02*
D03*
X01314450D02*
D03*
X01329690D02*
D03*
Y01543050D02*
D03*
X01314450D02*
D03*
X01253490D02*
D03*
X01223010D02*
D03*
X01207770D02*
D03*
X01192530D02*
D03*
X01177290D02*
D03*
X01162050D02*
D03*
D151*
X01066800Y01357950D02*
D03*
Y01334450D02*
D03*
X01682750Y01256350D02*
D03*
Y01232850D02*
D03*
Y01277300D02*
D03*
Y01300800D02*
D03*
X01206500Y01504000D02*
D03*
Y01480500D02*
D03*
X02129790Y00929320D02*
D03*
Y00952820D02*
D03*
X02108200Y00754700D02*
D03*
Y00731200D02*
D03*
Y00794700D02*
D03*
Y00818200D02*
D03*
X00800100Y01563050D02*
D03*
Y01586550D02*
D03*
X00895350Y01634810D02*
D03*
Y01611310D02*
D03*
X00816610Y01802450D02*
D03*
Y01778950D02*
D03*
X00970280Y01588450D02*
D03*
Y01611950D02*
D03*
D152*
X01981200Y00778750D02*
D03*
Y00808750D02*
D03*
X01828800Y00778750D02*
D03*
Y00808750D02*
D03*
X01879600Y00778750D02*
D03*
Y00808750D02*
D03*
X01930400Y00778750D02*
D03*
Y00808750D02*
D03*
X00806450Y01318500D02*
D03*
Y01348500D02*
D03*
X00736600Y01426450D02*
D03*
Y01456450D02*
D03*
D153*
X01527100Y01447800D02*
D03*
X01597100D02*
D03*
X00765250Y01308100D02*
D03*
X00695250D02*
D03*
X00746200Y01041400D02*
D03*
X00676200D02*
D03*
X00841450Y01511300D02*
D03*
X00771450D02*
D03*
D154*
X01835150Y00548050D02*
D03*
Y00506050D02*
D03*
X00477550Y01242010D02*
D03*
Y01331010D02*
D03*
X00422550D02*
D03*
Y01242010D02*
D03*
D155*
X02177100Y00958850D02*
D03*
X02153600D02*
D03*
X01912300Y01530350D02*
D03*
X01935800D02*
D03*
X02259650Y00876300D02*
D03*
X02236150D02*
D03*
X01783400Y01409700D02*
D03*
X01759900D02*
D03*
X02045650Y00819150D02*
D03*
X02069150D02*
D03*
X02259650Y00793750D02*
D03*
X02236150D02*
D03*
X02069150Y00742950D02*
D03*
X02045650D02*
D03*
X01180150Y01727200D02*
D03*
X01156650D02*
D03*
X01935800Y01581150D02*
D03*
X01912300D02*
D03*
Y01651000D02*
D03*
X01935800D02*
D03*
X01912300Y01803400D02*
D03*
X01935800D02*
D03*
Y01727200D02*
D03*
X01912300D02*
D03*
X00756600Y01149350D02*
D03*
X00780100D02*
D03*
X00972500Y01543050D02*
D03*
X00996000D02*
D03*
X00883600D02*
D03*
X00907100D02*
D03*
X00900750Y01587500D02*
D03*
X00877250D02*
D03*
X00665800Y01454150D02*
D03*
X00642300D02*
D03*
X01010600Y01600200D02*
D03*
X01034100D02*
D03*
X01010600Y01687830D02*
D03*
X01034100D02*
D03*
Y01664970D02*
D03*
X01010600D02*
D03*
X00642300Y01600200D02*
D03*
X00665800D02*
D03*
Y01578610D02*
D03*
X00642300D02*
D03*
X00643570Y01699260D02*
D03*
X00667070D02*
D03*
Y01477010D02*
D03*
X00643570D02*
D03*
D156*
X00662350Y00793750D02*
D03*
X00620350D02*
D03*
X01557700Y01657350D02*
D03*
X01515700D02*
D03*
X01672000D02*
D03*
X01630000D02*
D03*
Y01695450D02*
D03*
X01672000D02*
D03*
X01515700D02*
D03*
X01557700D02*
D03*
X00662350Y01409700D02*
D03*
X00620350D02*
D03*
D157*
X00586150Y00692150D02*
D03*
X00544150D02*
D03*
D158*
X01733550Y00478200D02*
D03*
Y00436200D02*
D03*
D159*
X00591700Y00444500D02*
D03*
X00576700D02*
D03*
X00642500D02*
D03*
X00627500D02*
D03*
X00744100D02*
D03*
X00729100D02*
D03*
X00693300D02*
D03*
X00678300D02*
D03*
X00452000Y01352550D02*
D03*
X00437000D02*
D03*
D160*
X01830200Y01524000D02*
D03*
Y01511300D02*
D03*
Y01498600D02*
D03*
Y01485900D02*
D03*
X01878200Y01524000D02*
D03*
Y01511300D02*
D03*
Y01498600D02*
D03*
Y01485900D02*
D03*
X01830200Y01460500D02*
D03*
Y01447800D02*
D03*
Y01435100D02*
D03*
Y01422400D02*
D03*
X01878200Y01460500D02*
D03*
Y01447800D02*
D03*
Y01435100D02*
D03*
Y01422400D02*
D03*
X02183000Y00825500D02*
D03*
Y00838200D02*
D03*
Y00850900D02*
D03*
Y00863600D02*
D03*
X02135000Y00825500D02*
D03*
Y00838200D02*
D03*
Y00850900D02*
D03*
Y00863600D02*
D03*
Y00781050D02*
D03*
Y00768350D02*
D03*
Y00755650D02*
D03*
Y00742950D02*
D03*
X02183000Y00781050D02*
D03*
Y00768350D02*
D03*
Y00755650D02*
D03*
Y00742950D02*
D03*
X01830200Y01587500D02*
D03*
Y01574800D02*
D03*
Y01562100D02*
D03*
Y01549400D02*
D03*
X01878200Y01587500D02*
D03*
Y01574800D02*
D03*
Y01562100D02*
D03*
Y01549400D02*
D03*
X02094100Y00914400D02*
D03*
Y00927100D02*
D03*
Y00939800D02*
D03*
Y00952500D02*
D03*
X02046100Y00914400D02*
D03*
Y00927100D02*
D03*
Y00939800D02*
D03*
Y00952500D02*
D03*
X01830200Y01651000D02*
D03*
Y01638300D02*
D03*
Y01625600D02*
D03*
Y01612900D02*
D03*
X01878200Y01651000D02*
D03*
Y01638300D02*
D03*
Y01625600D02*
D03*
Y01612900D02*
D03*
Y01676400D02*
D03*
Y01689100D02*
D03*
Y01701800D02*
D03*
Y01714500D02*
D03*
X01830200Y01676400D02*
D03*
Y01689100D02*
D03*
Y01701800D02*
D03*
Y01714500D02*
D03*
Y01778000D02*
D03*
Y01765300D02*
D03*
Y01752600D02*
D03*
Y01739900D02*
D03*
X01878200Y01778000D02*
D03*
Y01765300D02*
D03*
Y01752600D02*
D03*
Y01739900D02*
D03*
X02094100Y01003300D02*
D03*
Y01016000D02*
D03*
Y01028700D02*
D03*
Y01041400D02*
D03*
X02046100Y01003300D02*
D03*
Y01016000D02*
D03*
Y01028700D02*
D03*
Y01041400D02*
D03*
D161*
X00476250Y00812500D02*
D03*
Y00832500D02*
D03*
Y00852500D02*
D03*
Y00872500D02*
D03*
Y00892500D02*
D03*
Y00912500D02*
D03*
Y00932500D02*
D03*
Y00952500D02*
D03*
D162*
X00421450Y00787150D02*
D03*
Y00978150D02*
D03*
D163*
X02037650Y00784450D02*
D03*
Y00777950D02*
D03*
Y00771450D02*
D03*
Y00764950D02*
D03*
X02077150Y00784450D02*
D03*
Y00777950D02*
D03*
Y00771450D02*
D03*
Y00764950D02*
D03*
Y00841150D02*
D03*
Y00847650D02*
D03*
Y00854150D02*
D03*
Y00860650D02*
D03*
X02037650Y00841150D02*
D03*
Y00847650D02*
D03*
Y00854150D02*
D03*
Y00860650D02*
D03*
D164*
X01130300Y01802100D02*
D03*
Y01766600D02*
D03*
X00850900Y01452850D02*
D03*
Y01417350D02*
D03*
D165*
X01207800Y01727200D02*
D03*
X01243300D02*
D03*
X01008350Y01416050D02*
D03*
X00972850D02*
D03*
D166*
X01181800Y01793850D02*
D03*
Y01784350D02*
D03*
Y01774850D02*
D03*
X01205800D02*
D03*
Y01793850D02*
D03*
X00877000Y01444600D02*
D03*
Y01435100D02*
D03*
Y01425600D02*
D03*
X00901000D02*
D03*
Y01444600D02*
D03*
D167*
X00941350Y01050130D02*
D03*
Y01061130D02*
D03*
Y01072130D02*
D03*
Y01083130D02*
D03*
Y01094130D02*
D03*
Y01105130D02*
D03*
Y01116130D02*
D03*
Y01127130D02*
D03*
D168*
X00882650Y01027430D02*
D03*
Y01163430D02*
D03*
X00966650Y01027430D02*
D03*
Y01163430D02*
D03*
D169*
X01147350Y01562850D02*
D03*
Y01578090D02*
D03*
Y01593330D02*
D03*
Y01608570D02*
D03*
Y01623810D02*
D03*
D170*
X01261050Y01617400D02*
D03*
D171*
X01227644Y01794957D02*
D03*
X01248857Y01773743D02*
D03*
X00922843Y01445707D02*
D03*
X00944057Y01424494D02*
D03*
D172*
X01394700Y01790700D02*
D03*
X01424700D02*
D03*
D173*
X01092200Y01322200D02*
D03*
X01104900D02*
D03*
X01117600D02*
D03*
X01130300D02*
D03*
X01143000D02*
D03*
X01155700D02*
D03*
X01168400D02*
D03*
X01181100D02*
D03*
X01092200Y01370200D02*
D03*
X01104900D02*
D03*
X01117600D02*
D03*
X01130300D02*
D03*
X01143000D02*
D03*
X01155700D02*
D03*
X01168400D02*
D03*
X01181100D02*
D03*
D174*
X02147950Y00641350D02*
D03*
X02195450D02*
D03*
X00763650Y01244600D02*
D03*
X00811150D02*
D03*
D175*
X02143450Y00590550D02*
D03*
Y00558550D02*
D03*
Y00536550D02*
D03*
Y00514550D02*
D03*
X02203450D02*
D03*
Y00536550D02*
D03*
Y00558550D02*
D03*
Y00590550D02*
D03*
D176*
X01573450Y01403350D02*
D03*
X01525350D02*
D03*
X00680800Y01244600D02*
D03*
X00728900D02*
D03*
D177*
X00670500Y01162050D02*
D03*
Y01149350D02*
D03*
Y01136650D02*
D03*
Y01123950D02*
D03*
X00726500Y01162050D02*
D03*
Y01149350D02*
D03*
Y01136650D02*
D03*
Y01123950D02*
D03*
D178*
X01790700Y00441250D02*
D03*
Y00511250D02*
D03*
D179*
X00470850Y01416050D02*
D03*
X00494350Y01406550D02*
D03*
D180*
X00494350Y01425550D02*
D03*
D181*
X00946890Y01696510D02*
D03*
D182*
X00927140Y01684010D02*
D03*
Y01689010D02*
D03*
Y01694010D02*
D03*
Y01699010D02*
D03*
Y01704010D02*
D03*
Y01709010D02*
D03*
X00966640D02*
D03*
Y01704010D02*
D03*
Y01699010D02*
D03*
Y01694010D02*
D03*
Y01689010D02*
D03*
Y01684010D02*
D03*
D183*
X00934390Y01716260D02*
D03*
X00939390D02*
D03*
X00944390D02*
D03*
X00949390D02*
D03*
X00954390D02*
D03*
X00959390D02*
D03*
Y01676760D02*
D03*
X00954390D02*
D03*
X00949390D02*
D03*
X00944390D02*
D03*
X00939390D02*
D03*
X00934390D02*
D03*
D184*
X00830580Y01635680D02*
D03*
Y01587580D02*
D03*
D185*
X00478550Y01286510D02*
D03*
Y01294510D02*
D03*
Y01270510D02*
D03*
Y01278511D02*
D03*
Y01302510D02*
D03*
D186*
X02160900Y01022350D02*
D03*
Y01009650D02*
D03*
Y00996950D02*
D03*
Y00984250D02*
D03*
X02207900Y01022350D02*
D03*
Y01009650D02*
D03*
Y00996950D02*
D03*
Y00984250D02*
D03*
D187*
X02375000Y00325000D02*
D03*
X00425000D02*
D03*
X02375000Y01775000D02*
D03*
X00425000D02*
D03*
D188*
X02292350Y00476250D02*
D03*
X01765300Y00920750D02*
D03*
X01682750Y00844550D02*
D03*
X01625600D02*
D03*
X01568450D02*
D03*
X01022350Y00920750D02*
D03*
X01111250Y00844550D02*
D03*
X01454150D02*
D03*
X01397000D02*
D03*
X01536700Y00920750D02*
D03*
X01365242D02*
D03*
X00965192D02*
D03*
X01250942D02*
D03*
X01054092Y00844550D02*
D03*
X01193792Y00920750D02*
D03*
X00736600D02*
D03*
X00793750D02*
D03*
X00908050D02*
D03*
X00850900D02*
D03*
X01308092D02*
D03*
D189*
X02292350Y00501650D02*
D03*
Y00527050D02*
D03*
Y00552450D02*
D03*
Y00577850D02*
D03*
Y00603250D02*
D03*
X01809750Y01104900D02*
D03*
Y01079500D02*
D03*
X01885950Y01104900D02*
D03*
X01739900Y00920750D02*
D03*
X01765300Y00844550D02*
D03*
X01739900D02*
D03*
X01708150D02*
D03*
X01682750Y00920750D02*
D03*
X01708150D02*
D03*
X01651000D02*
D03*
X01625600D02*
D03*
X01651000Y00844550D02*
D03*
X01593850Y00920750D02*
D03*
X01568450D02*
D03*
X01593850Y00844550D02*
D03*
X00996950D02*
D03*
X01022350D02*
D03*
X00996950Y00920750D02*
D03*
X01003300Y00736600D02*
D03*
X01028700D02*
D03*
X01054100D02*
D03*
X01809750Y01022350D02*
D03*
X01885950Y01047750D02*
D03*
Y01022350D02*
D03*
X00565150Y00764540D02*
D03*
X00641350Y00746760D02*
D03*
X01731010Y00546100D02*
D03*
X01748790Y00622300D02*
D03*
X01606550Y01771650D02*
D03*
X01631950D02*
D03*
X01657350D02*
D03*
X01492250D02*
D03*
X01517650D02*
D03*
X01543050D02*
D03*
X00946150Y00736600D02*
D03*
X00920750D02*
D03*
X00895350D02*
D03*
X01162050D02*
D03*
X01136650D02*
D03*
X01111250D02*
D03*
X02400300Y01028700D02*
D03*
Y01003300D02*
D03*
Y00977900D02*
D03*
X01003300Y01276350D02*
D03*
X01028700D02*
D03*
X01054100D02*
D03*
X01079500D02*
D03*
X01104900D02*
D03*
X01130300D02*
D03*
X01155700D02*
D03*
X01479550Y00736600D02*
D03*
X01454150D02*
D03*
X01428750D02*
D03*
X01270000D02*
D03*
X01244600D02*
D03*
X01219200D02*
D03*
X01136650Y00844550D02*
D03*
X01111250Y00920750D02*
D03*
X01136650D02*
D03*
X01479550D02*
D03*
X01454150D02*
D03*
X01479550Y00844550D02*
D03*
X01422400D02*
D03*
X01397000Y00920750D02*
D03*
X01422400D02*
D03*
X01809750Y00990600D02*
D03*
Y00965200D02*
D03*
X01885950Y00990600D02*
D03*
X01511300Y00920750D02*
D03*
X01536700Y00844550D02*
D03*
X01511300D02*
D03*
X01885950Y01136650D02*
D03*
Y01162050D02*
D03*
X01809750Y01136650D02*
D03*
X01885950Y01219200D02*
D03*
X01809750Y01193800D02*
D03*
Y01219200D02*
D03*
X01339842Y00844550D02*
D03*
X01365242D02*
D03*
X01339842Y00920750D02*
D03*
X00939792D02*
D03*
X00965192Y00844550D02*
D03*
X00939792D02*
D03*
X01225542D02*
D03*
X01250942D02*
D03*
X01225542Y00920750D02*
D03*
X01079492Y00844550D02*
D03*
X01054092Y00920750D02*
D03*
X01079492D02*
D03*
X01168392Y00844550D02*
D03*
X01193792D02*
D03*
X01168392Y00920750D02*
D03*
X01885950Y01282700D02*
D03*
X01809750Y01257300D02*
D03*
Y01282700D02*
D03*
X01885950Y01371600D02*
D03*
Y01397000D02*
D03*
X01809750Y01371600D02*
D03*
X01885950Y01339850D02*
D03*
X01809750Y01314450D02*
D03*
Y01339850D02*
D03*
X00711200Y00844550D02*
D03*
X00736600D02*
D03*
X00711200Y00920750D02*
D03*
X00768350D02*
D03*
X00793750Y00844550D02*
D03*
X00768350D02*
D03*
X00882650D02*
D03*
X00908050D02*
D03*
X00882650Y00920750D02*
D03*
X00825500D02*
D03*
X00850900Y00844550D02*
D03*
X00825500D02*
D03*
X01282692D02*
D03*
X01308092D02*
D03*
X01282692Y00920750D02*
D03*
X01181100Y01042670D02*
D03*
X01206500Y01017270D02*
D03*
Y01042670D02*
D03*
X01231900Y01017270D02*
D03*
Y01042670D02*
D03*
X01257300Y01017270D02*
D03*
Y01042670D02*
D03*
X01282700Y01017270D02*
D03*
Y01042670D02*
D03*
D190*
X01916200Y00368050D02*
D03*
X02249400D02*
D03*
D191*
X01985850Y00382250D02*
D03*
X01999700Y00353850D02*
D03*
X02013550Y00382250D02*
D03*
X02027400Y00353850D02*
D03*
X02041250Y00382250D02*
D03*
X02055100Y00353850D02*
D03*
X02068950Y00382250D02*
D03*
X02082800Y00353850D02*
D03*
X02096650Y00382250D02*
D03*
X02110500Y00353850D02*
D03*
X02124350Y00382250D02*
D03*
X02138200Y00353850D02*
D03*
X02152050Y00382250D02*
D03*
X02165900Y00353850D02*
D03*
D192*
X02179750Y00382250D02*
D03*
D193*
X01885950Y01079500D02*
D03*
X01809750Y01047750D02*
D03*
X01181100Y01276350D02*
D03*
X01885950Y00965200D02*
D03*
X01809750Y01162050D02*
D03*
X01885950Y01193800D02*
D03*
Y01257300D02*
D03*
X01809750Y01397000D02*
D03*
X01885950Y01314450D02*
D03*
X01181100Y01017270D02*
D03*
D194*
X01644650Y01245600D02*
D03*
D195*
Y01294400D02*
D03*
X00964200Y01504950D02*
D03*
X00869950Y01276350D02*
D03*
X00946150D02*
D03*
D196*
X00558800Y00647500D02*
D03*
X01797050Y00584400D02*
D03*
D197*
X00558800Y00622500D02*
D03*
X01797050Y00609400D02*
D03*
D198*
X01733550Y00393700D02*
D03*
X01784350D02*
D03*
X02336800Y01098550D02*
D03*
Y01200150D02*
D03*
Y01149350D02*
D03*
Y01250950D02*
D03*
Y01574800D02*
D03*
Y01524000D02*
D03*
Y01473200D02*
D03*
Y01371600D02*
D03*
Y01422400D02*
D03*
Y01320800D02*
D03*
Y01625600D02*
D03*
Y01676400D02*
D03*
X01117600Y00393700D02*
D03*
X01219200D02*
D03*
X01168400D02*
D03*
X00914400D02*
D03*
X01016000D02*
D03*
X00965200D02*
D03*
X00488950Y00685800D02*
D03*
Y00635000D02*
D03*
X00806450Y00393700D02*
D03*
X00755650D02*
D03*
X00704850D02*
D03*
X00603250D02*
D03*
X00654050D02*
D03*
X00552450D02*
D03*
X01530350Y00392430D02*
D03*
X01631950D02*
D03*
X01581150D02*
D03*
X01377950Y00393700D02*
D03*
X01428750D02*
D03*
X01327150D02*
D03*
D199*
X00915400Y01504950D02*
D03*
D200*
X02368550Y00825500D02*
D03*
D201*
X02393950D02*
D03*
Y00800100D02*
D03*
X02368550D02*
D03*
Y00749300D02*
D03*
X02393950D02*
D03*
Y00774700D02*
D03*
X02368550D02*
D03*
Y00673100D02*
D03*
X02393950D02*
D03*
Y00647700D02*
D03*
X02368550D02*
D03*
Y00698500D02*
D03*
X02393950D02*
D03*
Y00723900D02*
D03*
X02368550D02*
D03*
D202*
X01030200Y00660400D02*
D03*
X01239750D02*
D03*
X01449300D02*
D03*
X01652500Y00654050D02*
D03*
D203*
X00925600Y00660400D02*
D03*
X01135150D02*
D03*
X01344700D02*
D03*
X01521150Y00477200D02*
D03*
X01641150D02*
D03*
X00905200D02*
D03*
X01025200D02*
D03*
X01108400D02*
D03*
X01228400D02*
D03*
X01437950D02*
D03*
X01317950D02*
D03*
X01547900Y00654050D02*
D03*
X00577850Y01085850D02*
D03*
Y01111250D02*
D03*
X01874520Y00571500D02*
D03*
Y00546100D02*
D03*
D204*
X01581150Y00457200D02*
D03*
X01521150Y00599200D02*
D03*
X01641150D02*
D03*
X00965200Y00457200D02*
D03*
X00905200Y00599200D02*
D03*
X01025200D02*
D03*
X01168400Y00457200D02*
D03*
X01108400Y00599200D02*
D03*
X01228400D02*
D03*
X01437950D02*
D03*
X01317950D02*
D03*
X01377950Y00457200D02*
D03*
D205*
X00577850Y01136650D02*
D03*
X01874520Y00520700D02*
D03*
D206*
X00456460Y01647400D02*
D03*
Y01622000D02*
D03*
Y01514800D02*
D03*
Y01540200D02*
D03*
X00594360Y01612900D02*
D03*
Y01587500D02*
D03*
Y01562100D02*
D03*
Y01536700D02*
D03*
X00568960Y01549400D02*
D03*
Y01574800D02*
D03*
Y01600200D02*
D03*
Y01625600D02*
D03*
D207*
X00452550Y01308510D02*
D03*
Y01264511D02*
D03*
D208*
X02114550Y01148080D02*
D03*
X02273300Y01270000D02*
D03*
D209*
X00430530Y01111250D02*
D03*
X02012950Y00546100D02*
D03*
M02*
