%FSAX44Y44*%
%MOMM*%
G71*
G01*
G75*
G04 Layer_Color=16711935*
%ADD10R,0.8000X0.8000*%
%ADD11R,1.3500X1.5000*%
%ADD12R,0.7000X1.0000*%
%ADD13R,1.0000X0.7000*%
%ADD14R,3.8100X2.0300*%
%ADD15R,8.8900X11.4300*%
%ADD16R,1.5000X1.3500*%
%ADD17O,1.6500X0.3000*%
%ADD18O,0.3000X1.6500*%
G04:AMPARAMS|DCode=19|XSize=1mm|YSize=1.85mm|CornerRadius=0.5mm|HoleSize=0mm|Usage=FLASHONLY|Rotation=0.000|XOffset=0mm|YOffset=0mm|HoleType=Round|Shape=RoundedRectangle|*
%AMROUNDEDRECTD19*
21,1,1.0000,0.8500,0,0,0.0*
21,1,0.0000,1.8500,0,0,0.0*
1,1,1.0000,0.0000,-0.4250*
1,1,1.0000,0.0000,-0.4250*
1,1,1.0000,0.0000,0.4250*
1,1,1.0000,0.0000,0.4250*
%
%ADD19ROUNDEDRECTD19*%
%ADD20R,1.4500X1.3500*%
%ADD21R,2.6000X1.5000*%
%ADD22R,2.6000X4.1000*%
%ADD23R,2.5000X2.0000*%
%ADD24R,1.3500X1.4500*%
%ADD25R,2.0000X2.5000*%
%ADD26R,1.5000X3.2000*%
%ADD27R,3.2000X1.5000*%
%ADD28R,0.8000X0.8000*%
%ADD29O,2.2000X0.6000*%
%ADD30R,3.2000X1.2000*%
%ADD31R,5.3000X1.7000*%
%ADD32O,1.9000X0.4100*%
%ADD33R,2.6000X1.3500*%
%ADD34R,1.3500X2.6000*%
%ADD35R,1.0000X0.6000*%
%ADD36R,1.0500X0.6000*%
%ADD37R,2.0000X1.5000*%
G04:AMPARAMS|DCode=38|XSize=1mm|YSize=1.85mm|CornerRadius=0.5mm|HoleSize=0mm|Usage=FLASHONLY|Rotation=90.000|XOffset=0mm|YOffset=0mm|HoleType=Round|Shape=RoundedRectangle|*
%AMROUNDEDRECTD38*
21,1,1.0000,0.8500,0,0,90.0*
21,1,0.0000,1.8500,0,0,90.0*
1,1,1.0000,0.4250,0.0000*
1,1,1.0000,0.4250,0.0000*
1,1,1.0000,-0.4250,0.0000*
1,1,1.0000,-0.4250,0.0000*
%
%ADD38ROUNDEDRECTD38*%
%ADD39R,10.0000X8.0000*%
%ADD40P,1.8385X4X270.0*%
%ADD41R,1.5000X2.6000*%
%ADD42O,0.6000X2.2000*%
%ADD43R,2.1000X2.3000*%
%ADD44R,2.0000X0.7000*%
%ADD45R,2.1000X2.9900*%
%ADD46O,2.1500X0.9000*%
%ADD47R,4.1000X2.6000*%
%ADD48R,0.9500X0.9000*%
%ADD49R,0.9500X0.9000*%
%ADD50R,2.5000X2.5000*%
%ADD51O,0.7500X0.2000*%
%ADD52O,0.2000X0.7500*%
%ADD53R,2.9900X2.1000*%
%ADD54R,2.3000X0.5000*%
%ADD55O,1.9000X0.6000*%
%ADD56C,0.2540*%
%ADD57C,1.0000*%
%ADD58C,4.0000*%
%ADD59C,0.3840*%
%ADD60C,1.5000*%
%ADD61C,0.9000*%
%ADD62C,2.0000*%
%ADD63C,0.8000*%
%ADD64C,0.5000*%
%ADD65C,0.3810*%
%ADD66C,0.5240*%
%ADD67C,0.5080*%
%ADD68R,2.0320X2.1590*%
%ADD69R,3.5560X1.2700*%
%ADD70R,3.3020X1.2700*%
%ADD71R,3.3020X1.3970*%
%ADD72R,1.2700X1.2700*%
%ADD73R,1.9050X1.2946*%
%ADD74R,2.0320X2.0320*%
%ADD75R,1.1569X2.0320*%
%ADD76R,2.5400X1.2700*%
%ADD77R,2.1590X2.1590*%
%ADD78R,0.8890X0.5080*%
%ADD79R,0.8890X1.1430*%
%ADD80R,11.4300X23.4950*%
%ADD81R,11.4300X23.3680*%
%ADD82R,9.9060X12.1920*%
%ADD83R,0.8890X0.6350*%
%ADD84R,6.6040X3.9370*%
%ADD85R,3.5560X6.4770*%
%ADD86R,2.7940X2.2860*%
%ADD87R,12.4460X15.2400*%
%ADD88R,2.2860X2.2860*%
%ADD89R,3.8100X1.5240*%
%ADD90R,2.2860X11.1760*%
%ADD91R,1.2700X2.2860*%
%ADD92C,5.0000*%
%ADD93R,1.5000X1.5000*%
%ADD94C,1.5000*%
%ADD95C,4.8000*%
%ADD96C,1.6900*%
%ADD97R,1.6900X1.6900*%
%ADD98R,1.5000X1.5000*%
%ADD99P,1.5154X8X112.5*%
%ADD100C,1.4000*%
%ADD101R,1.3500X1.3500*%
%ADD102C,1.3500*%
%ADD103C,2.5400*%
%ADD104P,1.5154X8X22.5*%
%ADD105R,1.5200X1.5200*%
%ADD106C,1.5200*%
%ADD107R,2.0000X2.0000*%
%ADD108C,2.0000*%
%ADD109C,2.2000*%
%ADD110R,2.0000X2.0000*%
%ADD111C,1.5240*%
%ADD112C,0.6000*%
%ADD113C,0.8000*%
%ADD114C,3.0000*%
%ADD115C,2.5000*%
%ADD116C,4.2500*%
%ADD117C,4.0000*%
%ADD118R,2.8000X2.1000*%
%ADD119R,1.9000X0.6000*%
%ADD120R,1.0160X1.2700*%
%ADD121R,1.2805X1.2700*%
%ADD122R,12.7000X12.7000*%
%ADD123R,1.3970X2.0320*%
%ADD124R,2.4130X2.5400*%
%ADD125R,5.5880X2.0320*%
%ADD126C,0.0127*%
%ADD127C,0.2500*%
%ADD128C,0.6000*%
%ADD129C,0.2000*%
%ADD130C,0.1270*%
%ADD131C,0.1000*%
%ADD132C,0.1500*%
%ADD133R,2.7940X0.3810*%
%ADD134R,0.5500X3.9000*%
%ADD135R,2.5400X0.2540*%
%ADD136R,0.2540X2.5400*%
%ADD137R,0.3810X2.7940*%
%ADD138R,0.8000X2.8000*%
%ADD139R,3.9000X0.5500*%
%ADD140R,10.7950X10.7950*%
%ADD141R,1.0032X1.0032*%
%ADD142R,1.5532X1.7032*%
%ADD143R,0.9032X1.2032*%
%ADD144R,1.2032X0.9032*%
%ADD145R,4.0132X2.2332*%
%ADD146R,9.0932X11.6332*%
%ADD147R,1.7032X1.5532*%
%ADD148O,1.8532X0.5032*%
%ADD149O,0.5032X1.8532*%
G04:AMPARAMS|DCode=150|XSize=1.2032mm|YSize=2.0532mm|CornerRadius=0.6016mm|HoleSize=0mm|Usage=FLASHONLY|Rotation=0.000|XOffset=0mm|YOffset=0mm|HoleType=Round|Shape=RoundedRectangle|*
%AMROUNDEDRECTD150*
21,1,1.2032,0.8500,0,0,0.0*
21,1,0.0000,2.0532,0,0,0.0*
1,1,1.2032,0.0000,-0.4250*
1,1,1.2032,0.0000,-0.4250*
1,1,1.2032,0.0000,0.4250*
1,1,1.2032,0.0000,0.4250*
%
%ADD150ROUNDEDRECTD150*%
%ADD151R,1.6532X1.5532*%
%ADD152R,2.8032X1.7032*%
%ADD153R,2.8032X4.3032*%
%ADD154R,2.7032X2.2032*%
%ADD155R,1.5532X1.6532*%
%ADD156R,2.2032X2.7032*%
%ADD157R,1.7032X3.4032*%
%ADD158R,3.4032X1.7032*%
%ADD159R,1.0032X1.0032*%
%ADD160O,2.4032X0.8032*%
%ADD161R,3.4032X1.4032*%
%ADD162R,5.5032X1.9032*%
%ADD163O,2.1032X0.6132*%
%ADD164R,2.8032X1.5532*%
%ADD165R,1.5532X2.8032*%
%ADD166R,1.2032X0.8032*%
%ADD167R,1.2532X0.8032*%
%ADD168R,2.2032X1.7032*%
G04:AMPARAMS|DCode=169|XSize=1.2032mm|YSize=2.0532mm|CornerRadius=0.6016mm|HoleSize=0mm|Usage=FLASHONLY|Rotation=90.000|XOffset=0mm|YOffset=0mm|HoleType=Round|Shape=RoundedRectangle|*
%AMROUNDEDRECTD169*
21,1,1.2032,0.8500,0,0,90.0*
21,1,0.0000,2.0532,0,0,90.0*
1,1,1.2032,0.4250,0.0000*
1,1,1.2032,0.4250,0.0000*
1,1,1.2032,-0.4250,0.0000*
1,1,1.2032,-0.4250,0.0000*
%
%ADD169ROUNDEDRECTD169*%
%ADD170R,10.2032X8.2032*%
%ADD171P,2.1258X4X270.0*%
%ADD172R,1.7032X2.8032*%
%ADD173O,0.8032X2.4032*%
%ADD174R,2.3032X2.5032*%
%ADD175R,2.2032X0.9032*%
%ADD176R,2.3032X3.1932*%
%ADD177O,2.3532X1.1032*%
%ADD178R,4.3032X2.8032*%
%ADD179R,1.1532X1.1032*%
%ADD180R,1.1532X1.1032*%
%ADD181R,2.7032X2.7032*%
%ADD182O,0.9532X0.4032*%
%ADD183O,0.4032X0.9532*%
%ADD184R,3.1932X2.3032*%
%ADD185R,2.5032X0.7032*%
%ADD186O,2.1032X0.8032*%
%ADD187C,5.2032*%
%ADD188R,1.7032X1.7032*%
%ADD189C,1.7032*%
%ADD190C,5.0032*%
%ADD191C,1.8932*%
%ADD192R,1.8932X1.8932*%
%ADD193R,1.7032X1.7032*%
%ADD194P,1.7353X8X112.5*%
%ADD195C,1.6032*%
%ADD196R,1.5532X1.5532*%
%ADD197C,1.5532*%
%ADD198C,2.7432*%
%ADD199P,1.7353X8X22.5*%
%ADD200R,1.7232X1.7232*%
%ADD201C,1.7232*%
%ADD202R,2.2032X2.2032*%
%ADD203C,2.2032*%
%ADD204C,2.4032*%
%ADD205R,2.2032X2.2032*%
%ADD206C,1.7272*%
%ADD207C,0.8032*%
%ADD208C,3.2032*%
%ADD209C,4.2032*%
%ADD210R,3.0032X2.3032*%
%ADD211R,2.1032X0.8032*%
D142*
X01469900Y01171900D02*
D03*
Y01143400D02*
D03*
X01565910Y01326160D02*
D03*
Y01297660D02*
D03*
X01489900Y01171900D02*
D03*
Y01143400D02*
D03*
D144*
X00515050Y00857250D02*
D03*
X00539050Y00847750D02*
D03*
Y00866750D02*
D03*
Y00895350D02*
D03*
X00515050Y00904850D02*
D03*
Y00885850D02*
D03*
X00583500Y00876300D02*
D03*
X00559500Y00885800D02*
D03*
Y00866800D02*
D03*
D151*
X01339850Y01169350D02*
D03*
Y01192850D02*
D03*
X01511300Y01168720D02*
D03*
Y01145220D02*
D03*
X01504950Y01196020D02*
D03*
Y01219520D02*
D03*
Y01262700D02*
D03*
Y01239200D02*
D03*
Y01302700D02*
D03*
Y01326200D02*
D03*
X01339850Y01283650D02*
D03*
Y01307150D02*
D03*
X01363980Y01364930D02*
D03*
Y01388430D02*
D03*
X01898650Y00570550D02*
D03*
Y00547050D02*
D03*
X01339850Y01256350D02*
D03*
Y01232850D02*
D03*
D155*
X01994850Y01727200D02*
D03*
X02018350D02*
D03*
X02018980Y01485900D02*
D03*
X02042480D02*
D03*
X02020250Y01250950D02*
D03*
X02043750D02*
D03*
X02020250Y01117600D02*
D03*
X02043750D02*
D03*
X01319850Y01141730D02*
D03*
X01296350D02*
D03*
X01402400Y01181100D02*
D03*
X01378900D02*
D03*
X01453200D02*
D03*
X01429700D02*
D03*
X01540830Y01282700D02*
D03*
X01517330D02*
D03*
X00940750Y01123950D02*
D03*
X00964250D02*
D03*
X01385250Y01346200D02*
D03*
X01408750D02*
D03*
X01429700D02*
D03*
X01453200D02*
D03*
X01481770D02*
D03*
X01505270D02*
D03*
D187*
X02375000Y00325000D02*
D03*
X00425000D02*
D03*
X02375000Y01775000D02*
D03*
X00425000D02*
D03*
D188*
X02292350Y00476250D02*
D03*
X01765300Y00920750D02*
D03*
X01682750Y00844550D02*
D03*
X01625600D02*
D03*
X01568450D02*
D03*
X01022350Y00920750D02*
D03*
X01111250Y00844550D02*
D03*
X01454150D02*
D03*
X01397000D02*
D03*
X01536700Y00920750D02*
D03*
X01365242D02*
D03*
X00965192D02*
D03*
X01250942D02*
D03*
X01054092Y00844550D02*
D03*
X01193792Y00920750D02*
D03*
X00736600D02*
D03*
X00793750D02*
D03*
X00908050D02*
D03*
X00850900D02*
D03*
X01308092D02*
D03*
D189*
X02292350Y00501650D02*
D03*
Y00527050D02*
D03*
Y00552450D02*
D03*
Y00577850D02*
D03*
Y00603250D02*
D03*
X01809750Y01104900D02*
D03*
Y01079500D02*
D03*
X01885950Y01104900D02*
D03*
X01739900Y00920750D02*
D03*
X01765300Y00844550D02*
D03*
X01739900D02*
D03*
X01708150D02*
D03*
X01682750Y00920750D02*
D03*
X01708150D02*
D03*
X01651000D02*
D03*
X01625600D02*
D03*
X01651000Y00844550D02*
D03*
X01593850Y00920750D02*
D03*
X01568450D02*
D03*
X01593850Y00844550D02*
D03*
X00996950D02*
D03*
X01022350D02*
D03*
X00996950Y00920750D02*
D03*
X01003300Y00736600D02*
D03*
X01028700D02*
D03*
X01054100D02*
D03*
X01809750Y01022350D02*
D03*
X01885950Y01047750D02*
D03*
Y01022350D02*
D03*
X00565150Y00764540D02*
D03*
X00641350Y00746760D02*
D03*
X01731010Y00546100D02*
D03*
X01748790Y00622300D02*
D03*
X01606550Y01771650D02*
D03*
X01631950D02*
D03*
X01657350D02*
D03*
X01492250D02*
D03*
X01517650D02*
D03*
X01543050D02*
D03*
X00946150Y00736600D02*
D03*
X00920750D02*
D03*
X00895350D02*
D03*
X01162050D02*
D03*
X01136650D02*
D03*
X01111250D02*
D03*
X02400300Y01028700D02*
D03*
Y01003300D02*
D03*
Y00977900D02*
D03*
X01003300Y01276350D02*
D03*
X01028700D02*
D03*
X01054100D02*
D03*
X01079500D02*
D03*
X01104900D02*
D03*
X01130300D02*
D03*
X01155700D02*
D03*
X01479550Y00736600D02*
D03*
X01454150D02*
D03*
X01428750D02*
D03*
X01270000D02*
D03*
X01244600D02*
D03*
X01219200D02*
D03*
X01136650Y00844550D02*
D03*
X01111250Y00920750D02*
D03*
X01136650D02*
D03*
X01479550D02*
D03*
X01454150D02*
D03*
X01479550Y00844550D02*
D03*
X01422400D02*
D03*
X01397000Y00920750D02*
D03*
X01422400D02*
D03*
X01809750Y00990600D02*
D03*
Y00965200D02*
D03*
X01885950Y00990600D02*
D03*
X01511300Y00920750D02*
D03*
X01536700Y00844550D02*
D03*
X01511300D02*
D03*
X01885950Y01136650D02*
D03*
Y01162050D02*
D03*
X01809750Y01136650D02*
D03*
X01885950Y01219200D02*
D03*
X01809750Y01193800D02*
D03*
Y01219200D02*
D03*
X01339842Y00844550D02*
D03*
X01365242D02*
D03*
X01339842Y00920750D02*
D03*
X00939792D02*
D03*
X00965192Y00844550D02*
D03*
X00939792D02*
D03*
X01225542D02*
D03*
X01250942D02*
D03*
X01225542Y00920750D02*
D03*
X01079492Y00844550D02*
D03*
X01054092Y00920750D02*
D03*
X01079492D02*
D03*
X01168392Y00844550D02*
D03*
X01193792D02*
D03*
X01168392Y00920750D02*
D03*
X01885950Y01282700D02*
D03*
X01809750Y01257300D02*
D03*
Y01282700D02*
D03*
X01885950Y01371600D02*
D03*
Y01397000D02*
D03*
X01809750Y01371600D02*
D03*
X01885950Y01339850D02*
D03*
X01809750Y01314450D02*
D03*
Y01339850D02*
D03*
X00711200Y00844550D02*
D03*
X00736600D02*
D03*
X00711200Y00920750D02*
D03*
X00768350D02*
D03*
X00793750Y00844550D02*
D03*
X00768350D02*
D03*
X00882650D02*
D03*
X00908050D02*
D03*
X00882650Y00920750D02*
D03*
X00825500D02*
D03*
X00850900Y00844550D02*
D03*
X00825500D02*
D03*
X01282692D02*
D03*
X01308092D02*
D03*
X01282692Y00920750D02*
D03*
X01181100Y01042670D02*
D03*
X01206500Y01017270D02*
D03*
Y01042670D02*
D03*
X01231900Y01017270D02*
D03*
Y01042670D02*
D03*
X01257300Y01017270D02*
D03*
Y01042670D02*
D03*
X01282700Y01017270D02*
D03*
Y01042670D02*
D03*
D190*
X01916200Y00368050D02*
D03*
X02249400D02*
D03*
D191*
X01985850Y00382250D02*
D03*
X01999700Y00353850D02*
D03*
X02013550Y00382250D02*
D03*
X02027400Y00353850D02*
D03*
X02041250Y00382250D02*
D03*
X02055100Y00353850D02*
D03*
X02068950Y00382250D02*
D03*
X02082800Y00353850D02*
D03*
X02096650Y00382250D02*
D03*
X02110500Y00353850D02*
D03*
X02124350Y00382250D02*
D03*
X02138200Y00353850D02*
D03*
X02152050Y00382250D02*
D03*
X02165900Y00353850D02*
D03*
D192*
X02179750Y00382250D02*
D03*
D193*
X01885950Y01079500D02*
D03*
X01809750Y01047750D02*
D03*
X01181100Y01276350D02*
D03*
X01885950Y00965200D02*
D03*
X01809750Y01162050D02*
D03*
X01885950Y01193800D02*
D03*
Y01257300D02*
D03*
X01809750Y01397000D02*
D03*
X01885950Y01314450D02*
D03*
X01181100Y01017270D02*
D03*
D194*
X01644650Y01245600D02*
D03*
D195*
Y01294400D02*
D03*
X00964200Y01504950D02*
D03*
X00869950Y01276350D02*
D03*
X00946150D02*
D03*
D196*
X00558800Y00647500D02*
D03*
X01797050Y00584400D02*
D03*
D197*
X00558800Y00622500D02*
D03*
X01797050Y00609400D02*
D03*
D198*
X01733550Y00393700D02*
D03*
X01784350D02*
D03*
X02336800Y01098550D02*
D03*
Y01200150D02*
D03*
Y01149350D02*
D03*
Y01250950D02*
D03*
Y01574800D02*
D03*
Y01524000D02*
D03*
Y01473200D02*
D03*
Y01371600D02*
D03*
Y01422400D02*
D03*
Y01320800D02*
D03*
Y01625600D02*
D03*
Y01676400D02*
D03*
X01117600Y00393700D02*
D03*
X01219200D02*
D03*
X01168400D02*
D03*
X00914400D02*
D03*
X01016000D02*
D03*
X00965200D02*
D03*
X00488950Y00685800D02*
D03*
Y00635000D02*
D03*
X00806450Y00393700D02*
D03*
X00755650D02*
D03*
X00704850D02*
D03*
X00603250D02*
D03*
X00654050D02*
D03*
X00552450D02*
D03*
X01530350Y00392430D02*
D03*
X01631950D02*
D03*
X01581150D02*
D03*
X01377950Y00393700D02*
D03*
X01428750D02*
D03*
X01327150D02*
D03*
D199*
X00915400Y01504950D02*
D03*
D200*
X02368550Y00825500D02*
D03*
D201*
X02393950D02*
D03*
Y00800100D02*
D03*
X02368550D02*
D03*
Y00749300D02*
D03*
X02393950D02*
D03*
Y00774700D02*
D03*
X02368550D02*
D03*
Y00673100D02*
D03*
X02393950D02*
D03*
Y00647700D02*
D03*
X02368550D02*
D03*
Y00698500D02*
D03*
X02393950D02*
D03*
Y00723900D02*
D03*
X02368550D02*
D03*
D202*
X01030200Y00660400D02*
D03*
X01239750D02*
D03*
X01449300D02*
D03*
X01652500Y00654050D02*
D03*
D203*
X00925600Y00660400D02*
D03*
X01135150D02*
D03*
X01344700D02*
D03*
X01521150Y00477200D02*
D03*
X01641150D02*
D03*
X00905200D02*
D03*
X01025200D02*
D03*
X01108400D02*
D03*
X01228400D02*
D03*
X01437950D02*
D03*
X01317950D02*
D03*
X01547900Y00654050D02*
D03*
X00577850Y01085850D02*
D03*
Y01111250D02*
D03*
X01874520Y00571500D02*
D03*
Y00546100D02*
D03*
D204*
X01581150Y00457200D02*
D03*
X01521150Y00599200D02*
D03*
X01641150D02*
D03*
X00965200Y00457200D02*
D03*
X00905200Y00599200D02*
D03*
X01025200D02*
D03*
X01168400Y00457200D02*
D03*
X01108400Y00599200D02*
D03*
X01228400D02*
D03*
X01437950D02*
D03*
X01317950D02*
D03*
X01377950Y00457200D02*
D03*
D205*
X00577850Y01136650D02*
D03*
X01874520Y00520700D02*
D03*
D206*
X00456460Y01647400D02*
D03*
Y01622000D02*
D03*
Y01514800D02*
D03*
Y01540200D02*
D03*
X00594360Y01612900D02*
D03*
Y01587500D02*
D03*
Y01562100D02*
D03*
Y01536700D02*
D03*
X00568960Y01549400D02*
D03*
Y01574800D02*
D03*
Y01600200D02*
D03*
Y01625600D02*
D03*
D207*
X00452550Y01308510D02*
D03*
Y01264511D02*
D03*
D208*
X02114550Y01148080D02*
D03*
X02273300Y01270000D02*
D03*
D209*
X00430530Y01111250D02*
D03*
X02012950Y00546100D02*
D03*
D210*
X00446400Y00959150D02*
D03*
Y00806150D02*
D03*
D211*
X00469900Y00837650D02*
D03*
Y00847650D02*
D03*
Y00857650D02*
D03*
Y00867650D02*
D03*
Y00877650D02*
D03*
Y00887650D02*
D03*
Y00897650D02*
D03*
Y00907650D02*
D03*
Y00917650D02*
D03*
Y00927650D02*
D03*
M02*
