M48
;Layer_Color=9474304
;FILE_FORMAT=4:4
METRIC
;TYPE=PLATED
T1F00S00C0.4000
T2F00S00C0.8000
T3F00S00C0.9000
T4F00S00C1.0000
T5F00S00C1.0200
T6F00S00C1.0900
T7F00S00C1.1000
T8F00S00C1.2000
T9F00S00C1.3000
T10F00S00C1.6000
T11F00S00C1.7000
T12F00S00C2.0000
T13F00S00C3.0000
T14F00S00C3.1800
T15F00S00C3.2500
%
T01
X00525000Y00300000
X00550000
X00575000
X00600000
X00625000
X00650000
X00675000
X00700000
X00725000
X00750000
X00775000
X00787500Y00325000
X00762500
X00737500
X00712500
X00687500
X00662500
X00637500
X00612500
X00587500
X00562500
X00537500
X00550000Y00350000
X00575000
X00600000
X00625000
X00650000
X00675000
X00700000
X00725000
X00750000
X00775000
X00787500Y00375000
X00762500
X00737500
X00712500
X00687500
X00662500
X00637500
X00612500
X00587500
X00562500
X00537500
X00525000Y00350000
X00800000
X00825000
X00837500Y00375000
X00812500
Y00325000
X00837500
X00862500
X00887500
X00912500
X00937500
X00962500
X00987500
X01012500
X01037500
X01025000Y00350000
X01000000
X00975000
X00950000
X00925000
X00900000
X00875000
Y00300000
X00900000
X00925000
X00950000
X00975000
X01000000
X01025000
X01075000
X01100000
X01125000
X01150000
X01175000
X01187500Y00325000
X01162500
X01137500
X01112500
X01087500
X01100000Y00350000
X01125000
X01150000
X01175000
X00825000Y00300000
X00800000
X01200000
X01225000
X01250000
X01275000
X01300000
X01325000
X01350000
X01375000
X01400000
X01425000
X01450000
X01437500Y00325000
X01412500
X01387500
X01362500
X01337500
X01312500
X01287500
X01300000Y00350000
X01325000
X01350000
X01375000
X01400000
X01425000
X01450000
X01500000
X01525000
X01550000
X01575000
X01562500Y00325000
X01537500
X01512500
X01487500
X01500000Y00300000
X01525000
X01550000
X01575000
X01237500Y00325000
X01212500
X01225000Y00350000
X01250000
X01200000
X01600000
X01625000
X01650000
X01637500Y00325000
X01612500
X01587500
X01600000Y00300000
X01625000
X01650000
X01975000
Y00350000
X01987500Y00325000
X02012500
X02037500
X02062500
X02087500
X02112500
X02137500
X02162500
X02187500
X02212500
X02237500
X02262500
X02287500
X02275000Y00350000
X02287500Y00375000
X02212500
X02225000Y00350000
X02200000
Y00300000
X02225000
X02250000
X02275000
X02175000
X02150000
X02125000
X02100000
X02075000
X02050000
X02025000
X02000000
X02137500Y00375000
X02387500Y00525000
X02400000Y00550000
X02387500Y00575000
X02400000Y00600000
X02387500Y00625000
X02362500
X02337500
X02312500
X02292350Y00635000
X02312500Y00675000
X02305050Y00711200
X02279650Y00717550
X02286635Y00724535
X02287500Y00775000
X02308860Y00762000
X02337500Y00775000
X02350000Y00700000
Y00650000
Y00600000
X02375000
X02362500Y00575000
X02337500
X02312500
X02325000Y00600000
Y00550000
X02350000
X02337500Y00525000
X02312500
X02262500
X02237500
X02212500
X02187500
X02184400Y00535940
X02162500Y00525000
X02137500
Y00575000
X02162500
X02165350Y00558800
X02175000Y00600000
X02162500Y00625000
X02212500
X02222500Y00666750
X02172970Y00679450
X02187500Y00725000
X02127250Y00723900
X02089150Y00739140
Y00750570
X02108200Y00770890
X02161540Y00781050
X02019300Y00784860
Y00774700
X02012500Y00725000
X02037500Y00675000
X02075000Y00700000
X02100000Y00650000
X02127250Y00641350
X02037500Y00575000
X02012500
X01987500
Y00525000
X02000000Y00500000
X02025000
X02037500Y00525000
X02040890Y00425450
X02087500Y00425000
X02095500Y00438150
X02137500Y00425000
X02162500
X02212500
X02237500
X02262500
X02287500
X02275000Y00450000
X02250000
X02225000
X02200000
X02212500Y00475000
X02237500
X02262500
X02275000Y00500000
X02250000
X02225000
Y00550000
X02250000
X02275000
Y00400000
X02250000
X02225000
X02200000
X02162500Y00475000
X02137500
X02175000Y00500000
X02254250Y00698500
X01968500Y00654050
X01917700
X01866900
X01816100
X01797050Y00635000
X01789430Y00642620
X01787500Y00625000
X01762500
X01775000Y00600000
X01750000
Y00650000
X01725000
X01700000
X01712500Y00675000
X01737500
X01687500
X01662500
X01675000Y00700000
X01700000
X01687500Y00725000
X01662500
X01637500
X01612500
X01625000Y00750000
X01650000
Y00700000
X01625000Y00650000
X01600000
X01587500Y00675000
X01600000Y00750000
X01800000
X01850000
X01900000
X01950000
X01962500Y00575000
X01975000Y00550000
X01950000
X01962500Y00525000
X01975000Y00500000
X01950000
Y00450000
X01975000
X01962500Y00425000
X01975000Y00400000
X01825000Y00600000
X01712500Y00625000
X01575000Y00650000
X01562500Y00675000
X01537500
X01512500
X01525000Y00700000
X01550000
X01575000
Y00750000
X01550000
X01529080Y00753110
X01500000Y00750000
X01487500Y00725000
X01462500
X01412500Y00675000
X01387500
X01362500
X01337500
X01312500
X01325000Y00700000
X01300000
Y00750000
X01314450Y00755650
X01312500Y00775000
X01324610Y00792480
X01365250Y00774700
X01262500Y00775000
Y00725000
X01237500
X01250000Y00700000
X01200000
Y00650000
X01225000Y00750000
X01193800Y00774700
X01375000Y00650000
X01400000
X01425000
X01511300Y00431800
X01308100
X01098550
X00895350
X00869950Y00459740
X00862500Y00475000
X00812500
X00825000Y00500000
X00800000
X00812500Y00525000
X00837500
X00850000Y00550000
X00825000
X00800000
X00812500Y00575000
X00837500
X00850000Y00600000
X00825000
X00800000
X00812500Y00625000
X00837500
X00850000Y00650000
X00825000
X00800000
X00837500Y00675000
X00862500
X00875000Y00700000
X00900000
X00925000
X00950000
X00975000
X01000000
X01025000
X01037500Y00725000
X01062500
X01087500
X01075000Y00750000
X01025000
X01000000
X00975000
X00987500Y00725000
X01012500
Y00675000
X00987500
X00962500
X00937500
X00912500
Y00725000
X00937500
X00962500
X00925000Y00750000
X00900000
X00908050Y00774700
X00850900
X00850000Y00750000
X00837500Y00725000
X00812500
X00800000Y00750000
X00793750Y00774700
X00850000Y00700000
X00887500Y00725000
X00950000Y00650000
X00975000
X01000000
X01062500Y00675000
X01066800Y00685800
X01112500Y00675000
X01162500
X01187500
X01175000Y00650000
X01150000
Y00750000
X01130300Y00792480
X01037590
X00984250
X00825000Y00450000
X00812500Y00425000
X00825000Y00400000
X00775000
X00787500Y00425000
X00762500
X00737500
X00725000Y00400000
X00675000
X00687500Y00425000
X00662500
X00637500
X00612500
X00587500
X00562500
X00537500
X00550000Y00450000
X00562500Y00475000
X00587500
X00612500
X00637500
X00662500
X00687500
X00737500
X00762500
X00775000Y00450000
X00787500Y00525000
X00775000Y00550000
X00787500Y00575000
X00762500
X00737500
X00712500
X00735330Y00541020
X00684530
X00633730
X00647700Y00558800
Y00570230
X00637500Y00650000
X00612500
X00587500
X00600000Y00675000
X00625000
X00650000
X00662500Y00700000
X00637500
X00612500
X00625000Y00725000
X00650000
X00675000
X00662500Y00750000
X00675000Y00775000
X00650000
X00625000
X00600000
X00612500Y00750000
X00600000Y00725000
X00575000
X00550000
X00525000
X00500000
X00475000
X00450000
X00425000
X00400000
X00412500Y00750000
X00437500
X00462500
X00487500
X00512500
X00537500
X00562500
Y00700000
X00512500
Y00650000
X00537500
X00525000Y00625000
X00575000
X00600000
X00582930Y00539750
X00550000Y00550000
Y00500000
X00575000Y00400000
X00625000
X00525000
X00450000Y00625000
X00425000
X00400000
X00412500Y00650000
X00437500
X00462500
X00450000Y00675000
X00425000
X00400000
X00412500Y00700000
X00437500
X00462500
X00475000Y00775000
X00500000
X00525000
X00736600Y00774700
X00750000Y00750000
X00737500Y00725000
X00750000Y00700000
X00725000
X00737500Y00675000
X00750000Y00600000
X00775000
X00787500Y00625000
Y00725000
X00750000Y00800000
Y00850000
X00662500
X00664210Y00873760
X00673100Y00882650
X00675000Y00825000
X00637500Y00800000
X00603250Y00831850
X00590550
X00575000Y00825000
X00550000
X00550520Y00847750
X00577850Y00857250
X00574040Y00876300
X00601980Y00878840
Y00863600
X00587500Y00900000
X00539750Y00882650
X00524600Y00876300
X00525000Y00825000
X00512500Y00800000
X00487500
X00450000Y00825000
X00425000
X00400000
X00412500Y00850000
X00437500
X00450000Y00875000
X00425000
X00400000
X00412500Y00900000
X00437500
X00450000Y00925000
X00444500Y00933450
X00425000Y00925000
X00400000
X00412500Y00950000
Y01000000
X00437500
X00462500
X00487500
X00512500
X00500000Y01025000
X00501650Y01041400
X00491490
X00481330
X00471170
X00461010
X00450850
X00440690
X00430530
X00420370
X00410210
X00400050
X00400000Y01025000
X00425000
X00450000
X00475000
Y00975000
X00500000
X00550000
X00575000
X00600000
X00587500Y01000000
X00562500
X00575000Y01025000
X00600000
X00587500Y01050000
X00562500
X00550000Y01075000
X00600000
Y01125000
Y01175000
X00625000
X00650000
X00692150Y01149350
X00704850
X00725000Y01175000
X00737500Y01100000
X00762500
X00750000Y01075000
X00725000
X00700000
X00687070Y01087120
X00676910
X00666750
X00712500Y01100000
Y01050000
X00700000Y01025000
X00712500Y01000000
X00737500
X00750000Y00975000
X00775000
X00787500Y01000000
X00775000Y01025000
X00774700Y01047750
X00782320Y01055370
X00762500Y00950000
X00712500
X00687500
X00700000Y00975000
X00650000
X00662500Y01000000
X00550000Y01025000
X00511810Y01041400
X00497840Y01111250
X00501650Y01181100
X00511810
X00491490
X00481330
X00471170
X00461010
X00450850
X00440690
X00430530
X00420370
X00410210
X00400050
X00575000Y01175000
X00562500Y01150000
X00514350Y00920750
X00501650
X00562500Y00800000
X00812500Y00825000
X00837500
X00887500
X00925000Y00850000
Y00800000
X00950000
X00987500Y00825000
X01037500
X01087500
X01137500
X01150000Y00850000
Y00925000
X01162500Y00950000
X01137500
X01150000Y00975000
X01175000
X01187500Y01000000
X01162500
X01149350Y01003300
X01150000Y01025000
X01098550Y01016000
X01066800
X01075000Y01025000
X01050000
X01062500Y01050000
X01087500
X01075000Y01075000
X01079500Y01092200
X01087500Y01100000
X01062500
X01050000Y01075000
X01022350Y01085850
Y01060450
Y01035050
X01009650Y01016000
X01022350Y00999490
X01000000Y00975000
X00996950Y00965200
X00984250Y00975360
X00987500Y00950000
X01037500
X01087500
X00937500
X00950000Y00975000
X00925000
X00937500Y01000000
X00962500
X00950000Y01025000
X00925000
X00900000
X00912500Y01000000
X00862500
X00875000Y00975000
X00887500Y00950000
X00837500
X00812500
X00825000Y00975000
X00800000Y01025000
Y01075000
Y01125000
Y01175000
X00847250Y01149350
X00857250
X00912500Y01150000
X00958850Y01104900
Y01083310
X01022350Y01111250
Y01148080
Y01162050
X01054100Y01159510
X01149350Y01117600
Y01092200
X01179830Y01098550
X00925000Y00925000
X01212500Y00950000
X01237500
X01225000Y00975000
X01200150Y00996950
X01275000Y00975000
X01287500Y00950000
X01337500
X01325000Y00925000
Y00850000
X01412500Y00825000
X01437500
X01487500
X01512500
X01500000Y00800000
X01475000
X01550000Y00850000
Y00975000
X01583690Y00972820
X01562500Y01000000
Y01050000
X01574800Y01047750
X01543050Y01089660
X01532890
X01500000Y01075000
X01487500Y01050000
X01475000Y01025000
X01450000
X01447800Y01042670
X01437500Y01000000
X01412500
X01416050Y00972820
X01437500Y00950000
X01487500
X01512500
X01500000Y00975000
X01470660Y00972820
X01485900Y01123950
X01504950
X01529080Y01146810
X01525270Y01156970
X01565910Y01155700
X01469900Y01189480
X01446530Y01139190
X01433830Y01137920
X01441450Y01111250
X01404620Y01106170
X01390650
X01377950Y01092200
X01371600Y01073150
X01362500Y01050000
X01337500
X01312500
Y01100000
X01327150Y01098550
X01337500Y01100000
X01336040Y01136650
X01348740
X01361440
X01371600
X01386840
X01399540
X01282700Y01131570
X01270000
X01259840
X01283970Y01155700
X01295400Y01177290
X01304290Y01168400
X01248410Y01189990
X01236980
X01226820
X01223010Y01098550
X01243330
X01287500Y01100000
X01237500Y00825000
X01212500
X01587500
Y00950000
X01662500
X01644650Y00972820
X01637500Y01000000
X01650000Y01025000
X01675000
X01700000
X01725000
X01712500Y01050000
X01687500
X01712500Y01000000
X01725000Y00975000
X01720850Y00965200
X01712500Y00950000
X01737500
X01725000Y00925000
X01701800Y00972820
X01800000Y00975000
X01787500Y00950000
X01775000Y01025000
X01787500Y01100000
X01800000Y01125000
X01775000
X01750000
X01725000
X01700000
Y01175000
X01725000
X01750000
X01675000
X01625000Y01125000
X01637500Y01100000
X01625000Y01025000
X01737360Y01079500
X01924050Y01104900
Y01115060
X01936750Y01117600
X01925000Y01150000
X01924050Y01162050
X01912500Y01175000
X01937500
X01909090Y01007390
X01900000Y01000000
Y00950000
X01887500Y00925000
X01862500
X01875000Y00900000
X01900000
X01887500Y00875000
X01862500
X01837500
X01812500
X01825000Y00850000
X01828800Y00831850
X01837500Y00825000
X01862500
X01887500
X01900000Y00850000
X01875000
X01850000
Y00900000
Y00800000
X01900000
X01950000
X01937500Y00825000
X01812500
X01787500
X01800000Y00850000
Y00800000
X01725000Y00850000
X01987500Y00875000
X02019300Y00861060
X02037500Y00875000
X02050000Y00900000
X02075000
X02125000
X02152650Y00908050
X02162500Y00925000
X02178050Y00942340
X02200000Y00950000
X02225000
X02239290Y00946430
X02250000Y00950000
X02268220Y00946150
X02262500Y00925000
X02287500
X02312500
X02325000Y00950000
X02350000
X02337500Y00975000
X02312500
X02287500
X02300000Y01000000
X02325000
X02350000
X02337500Y01025000
X02312500
X02287500
X02300000Y00950000
Y00900000
X02275000
X02250000
X02225000
X02200000
X02212500Y00925000
Y00975000
X02133600Y00971550
X02114550Y00952500
X02112500Y00925000
Y00875000
X02108200Y00847090
X02095500Y00819150
X02075000Y00800000
X02125000
X02159000Y00863600
X02247900Y00825500
X02287500Y00825000
X02300000Y00850000
X02350000
X02337500Y00875000
X02350000Y00900000
X02337500Y00825000
X02300000Y00800000
X02275000
X02025000Y00900000
X02025650Y00927100
Y00939800
Y00952500
X02019300Y00991870
Y01003300
X02000250Y00996950
X02019300Y01035050
X02070100Y01022350
X02112500Y01025000
X02142490Y01036320
X02100000Y01100000
X02070100Y01098550
X02050000Y01100000
Y01150000
X02075000
X02000250Y01117600
X01987500Y00925000
X02387500
X02412500
X02400000Y00950000
Y00900000
X02412500Y00875000
X02387500
X02400000Y01050000
X02100000Y01200000
X02075000
X02050000
X02062500Y01225000
X02087500
X02100000Y01250000
X02087500Y01275000
X02062500
Y01325000
X02087500
X02100000Y01350000
Y01400000
X02075000
X02050000
X02025000
X02000000
Y01350000
X02025000
X02037500Y01375000
Y01425000
X02050000Y01450000
X02075000
X02012950Y01485900
X02037500Y01525000
X02025000Y01550000
X02000000
X02037500Y01575000
X02062500
X02087500
X02100000Y01550000
Y01300000
X02000250Y01257300
X01938020Y01243330
X01937500Y01275000
X01938020Y01327150
X01938300Y01352550
X01938020Y01403350
X01925000Y01400000
X01924050Y01441450
Y01479550
Y01504950
X01925320Y01530350
X01898650
X01878330Y01536700
Y01473200
X01816100
X01800000Y01475000
X01784350Y01460500
X01746250Y01447800
X01750000Y01425000
X01725000
X01700000
X01712500Y01400000
X01687500
X01662500
X01637500
X01650000Y01375000
X01662500Y01350000
X01675000Y01325000
X01700000
X01725000
X01737360Y01314450
X01737500Y01350000
X01712500
X01725000Y01375000
X01700000
X01739900Y01409700
X01771650Y01365250
X01787500Y01350000
X01800000Y01325000
X01812500Y01300000
X01787500
X01762500
X01750000Y01275000
X01725000
X01700000
X01712500Y01300000
Y01250000
X01737360Y01257300
X01725000Y01225000
X01750000
X01775000
X01737360Y01193800
X01712500Y01200000
X01687500
X01662500
X01637500
X01650000Y01225000
X01662500Y01250000
X01650000Y01275000
Y01325000
X01638300Y01320800
X01625600
X01609090Y01303020
X01700000Y01225000
X01936750Y01200150
X01900000Y01300000
X01955800Y01517650
Y01543050
X01925320Y01581150
X01898650
X01809750Y01568450
Y01504950
X01737500Y01500000
Y01550000
X01752600Y01549400
X01750000Y01575000
X01725000
X01712500Y01550000
X01625600Y01562100
Y01577340
X01617980Y01584960
Y01569720
X01612500Y01550000
X01587500
Y01500000
X01612500
X01637500
X01662500
X01650000Y01475000
X01625000
X01600000
X01637500Y01450000
X01575000Y01475000
Y01425000
X01555750Y01365250
X01554480Y01325880
X01582420Y01327150
X01546860Y01299210
X01544020Y01262700
X01562100Y01262380
X01555750Y01196340
X01430020Y01193150
X01379220
X01351280Y01203960
X01351900Y01256030
Y01306830
X01363980Y01334150
X01362500Y01350000
X01380490Y01386840
X01383030Y01399540
X01381760Y01428750
X01390650Y01437640
X01399540Y01428750
X01417320
X01426210Y01437640
X01408430
X01435100Y01428750
X01446150Y01450340
X01457150
X01487500Y01450000
X01498023Y01449647
X01505801Y01441869
X01501140Y01471930
Y01483360
X01511300Y01504950
X01518920Y01512570
X01500000Y01525000
X01512500Y01550000
X01537500
X01550000Y01525000
X01412500Y01550000
X01387500
X01362500
X01375000Y01575000
X01400000
X01425000
X01375000Y01525000
X01350000
X01325000
X01295400Y01504950
X01283970
X01259840Y01496060
X01248410Y01507490
X01238250Y01498600
X01244600Y01479550
X01243330Y01464310
X01254760
X01243330Y01449070
Y01436370
X01225550Y01463040
X01225000Y01475000
X01206500Y01463040
X01212500Y01450000
X01220470Y01333500
X01214120Y01320800
X01212500Y01300000
X01253490Y01297940
X01256030Y01310640
X01266190Y01316990
X01280160Y01318260
X01290320Y01319490
X01285240Y01297940
X01295400Y01289050
X01297940Y01257300
X01283970
X01270000Y01258570
X01259840Y01257300
X01270000Y01244600
X01276350Y01235710
X01247140Y01224280
X01254760Y01216660
X01236980Y01342390
X01300000Y01375000
X01327150Y01377400
X01330960Y01390650
X01338580Y01423670
X01446530Y01402080
X01438910Y01390650
X01504950Y01386840
X01517650Y01380490
X01499870Y01402700
X01492900Y01325880
X01471930
Y01336040
X01452880Y01334150
X01408430
X01493520Y01282700
X01325000Y01575000
X01200000
X01175000
X01137500Y01500000
X01130300Y01485900
X01125000Y01475000
X01137500Y01450000
X01162500
X01187500
X01062500
X01037500
X01008380Y01447800
X01025000Y01425000
X01050000
X01075000
X01087500Y01400000
X01075000Y01375000
X01050000
X01025000
X01037500Y01350000
X01012500
X00994410Y01352550
X00984250
X00974090
X00937500Y01350000
X00927100Y01358900
X00950000Y01375000
X00900000
X00875000
X00850000
X00862500Y01400000
X00837500
X00812500
X00800000Y01425000
X00831850Y01441450
X00850900Y01466850
X00875000Y01475000
X00863600Y01511300
X00875000Y01525000
X00900000
X00925000
X00950000
X00937500Y01550000
Y01500000
X00950000Y01475000
X00975000
X00982980Y01487170
X00987500Y01500000
X01012500
X01025000Y01475000
X01050000
X01098550Y01504950
Y01516380
X01111250
Y01504950
X01047750Y01568450
X01054100Y01581150
X01022350
X01000000Y01575000
X00990600Y01581150
X00975000Y01575000
X01012500Y01550000
X01000000Y01525000
X00962500Y01450000
X00990600Y01416050
X01000000Y01325000
X01025000
X01050000
X01037500Y01300000
X01012500
X00987500
X01008380Y01244600
X00918210Y01276350
X00908050
X00897890
X00850900Y01277620
Y01267460
X00862500Y01250000
X00876300Y01238250
X00825000Y01225000
X00800000
X00806450Y01200150
Y01267460
Y01277620
X00816610
Y01267460
X00850000Y01325000
X00875000
X00887500Y01350000
X00862500
X00925000Y01475000
X00800000
X00812500Y01500000
X00800000Y01525000
X00800100Y01543050
X00812500Y01550000
X01092200Y01346200
X00787500Y01400000
X00762500
X00737500
X00712500
X00687500
X00700000Y01425000
Y01475000
X00685800Y01477010
X00687500Y01500000
X00712500
X00737500
X00750000Y01475000
X00775000
Y01425000
X00725000Y01475000
X00712500Y01550000
X00687500
X00685800Y01578610
X00700000Y01575000
X00725000
X00775000
X00787500Y01550000
X00649250Y01562100
X00600000Y01575000
X00550000
X00525000
X00500000
X00475000
X00450000
X00425000
X00400000
X00412500Y01550000
X00437500
X00425000Y01525000
X00400000
X00412500Y01500000
X00425000Y01475000
X00400000
X00412500Y01450000
X00425000Y01425000
X00450000
X00462500Y01400000
X00476250Y01384300
X00500000Y01375000
X00525000
X00550000
X00575000
X00600000
X00587500Y01350000
X00562500
X00537500
X00500000Y01325000
X00450000
X00462500Y01350000
X00412500
X00400000Y01375000
X00412500Y01400000
X00400000Y01425000
Y01325000
X00412500Y01300000
X00437500
X00450000Y01275000
X00425000
X00400000
Y01225000
X00425000
X00450000
X00475000
X00500000
X00512500Y01200000
X00487500
X00462500
X00437500
X00412500
X00550000Y01225000
X00587500Y01200000
X00612500
X00637500
X00662500
X00721360Y01214120
Y01223010
X00730250
X00739140
Y01214120
X00730250
X00711200Y01244600
X00699770
X00700000Y01275000
X00725000
X00750000
X00775000
X00787500Y01250000
X00775000Y01225000
X00787500Y01200000
X00741680Y01306830
X00730250
X00718820
X00712500Y01350000
X00687500
X00675000Y01325000
X00647700Y01333500
Y01304290
Y01263650
X00619760Y01318260
X00600000Y01325000
X00587500Y01300000
X00575000Y01275000
Y01425000
X00600000
X00596900Y01409700
X00550000Y01425000
X00525000
X00539750Y01454150
X00562500Y01500000
X00587500
X00612500
X00641350Y01492250
X00575000Y01525000
X00550000
X00537500Y01550000
X00487500
X00475000Y01525000
X00487500Y01500000
X00475000Y01475000
X00654050Y01377950
X00628650Y01600200
X00612500Y01600000
X00587500
X00537500
X00512500
X00487500
X00462500
X00437500
X00412500
X00425000Y01625000
X00400000
X00412500Y01650000
X00425000Y01675000
X00400000
X00412500Y01700000
X00450000Y01725000
X00475000
X00500000
X00521970Y01727200
X00550000Y01725000
X00575000
X00600000
X00625000
X00650000
X00675000
X00700000
X00712500Y01750000
X00737500
X00762500
X00787500
X00775000Y01775000
X00750000
X00725000
X00700000
X00675000
X00650000
X00625000
X00600000
X00575000
X00550000
X00525000
X00500000
X00512500Y01800000
X00537500
X00562500
X00587500
X00612500
X00637500
X00662500
X00687500
X00712500
X00737500
X00762500
X00787500
X00775000Y01725000
X00750000
Y01675000
X00737500Y01650000
X00725000Y01625000
X00700000
X00712500Y01600000
X00737500
X00787500
X00775000Y01625000
X00685800Y01600200
X00700000Y01675000
X00712500Y01700000
X00685800Y01699260
X00687500Y01750000
X00662500
X00637500
X00612500
X00587500
X00562500
X00537500
X00512500
X00487500
X00462500
X00500000Y01675000
X00550000
X00575000
X00580390Y01662430
X00569614Y01651654
X00550000Y01625000
X00475000
X00537500Y01700000
X00562500
X00600000Y01675000
X00627995Y01699260
X00637500Y01650000
X00795020Y01625600
X00875000Y01625000
X00862500Y01600000
X00858520Y01587500
X00862330Y01670050
X00850000Y01725000
X00825000
X00800000
X00812500Y01750000
X00800000Y01775000
X00816610Y01822450
X00838200
X00878840
X00858520Y01790700
X00900000Y01725000
X00909320Y01715770
X00941390Y01702010
Y01691010
X00952390
Y01702010
X00937500Y01750000
X00995680Y01788160
X01050000Y01775000
X01062500Y01800000
X01087500
X01111250Y01765300
X01112500Y01750000
X01143000Y01746250
X01187500Y01750000
X01175000Y01675000
X01177290Y01662430
X01187500Y01650000
X01162500
X01175000Y01625000
X01187500Y01600000
X01162500
X01150000Y01675000
X01137500Y01700000
X01066800Y01695450
X01054100Y01664970
X01021080
Y01687830
X01010920Y01588770
X00933450Y01644650
X00922020Y01662080
X01200000Y01675000
X01225000
X01250000
X01275000
X01300000
X01325000
X01337500Y01650000
X01362500
X01387500
X01412500
X01437500
X01462500
X01475000Y01675000
X01450000
X01425000
X01400000
X01375000
X01387500Y01700000
X01412500
X01437500
X01450000Y01725000
X01425000
X01437500Y01750000
X01450000Y01775000
X01462500Y01800000
X01487500Y01750000
X01562500
X01575000Y01775000
X01532890Y01695450
X01536700Y01657350
X01568450Y01631950
Y01619250
X01500000Y01625000
X01475000
X01450000
X01425000
X01400000
X01375000
X01387500Y01600000
X01412500
X01437500
X01462500
X01362500
X01337500
X01325000Y01625000
X01362500Y01700000
X01375000Y01725000
X01387500Y01750000
X01375000Y01775000
X01337500Y01800000
X01312500
X01287500
X01262500
X01275000Y01775000
X01287500Y01750000
X01262500
X01275000Y01725000
X01225000
X01212500Y01750000
X01225000Y01775000
X01200000Y01625000
X01600000
X01625000
X01617980Y01615440
X01625600Y01607820
X01617980Y01600200
X01625600Y01592580
X01650000Y01625000
X01675000
X01700000
X01687500Y01600000
X01700000Y01675000
Y01725000
X01725000
X01750000
X01752600Y01714500
X01762500Y01700000
X01787500
X01809750Y01695450
Y01631950
X01812500Y01600000
X01787500
X01770380Y01635760
X01752600Y01676400
Y01739900
X01737500Y01750000
X01712500
X01687500
X01700000Y01775000
X01725000
X01752600Y01778000
X01762500Y01800000
X01787500
X01812500
X01809750Y01758950
X01737500Y01800000
X01712500
X01687500
X01675000Y01775000
Y01725000
X01637500Y01750000
X01612500
X01587500
X01593850Y01739900
X01602740Y01687830
X01600000Y01675000
X01606550Y01657350
X01650000Y01675000
X01878200Y01663700
X01898650Y01651000
X01949450
X01951990Y01676400
X01955800Y01701800
X01975000Y01700000
X01955800Y01746250
Y01778000
X01949450Y01803400
X01975000Y01800000
X01892300Y01803400
X01898650Y01727200
X01921294Y01740450
X01955800Y01625600
Y01606550
X01878330Y01600200
X02000000Y01600000
X02025000
X02037500Y01625000
X02062500
X02087500
X02100000Y01650000
X02087500Y01675000
X02100000Y01700000
X02075000
X02050000
X02075000Y01750000
X02100000
Y01800000
X02075000
X02050000
X02025000
X02000000
X02012500Y01775000
X02037500
X01987500
X01985010Y01727200
X01992630Y01659890
X02000000Y01650000
X02025000
X02100000Y01600000
T02
X02057400Y00469900
X01644650Y01245600
Y01294400
X00964200Y01504950
X00915400
T03
X02292350Y00476250
Y00501650
Y00527050
Y00552450
Y00577850
Y00603250
X01797050Y00609400
Y00584400
X00558800Y00622500
Y00647500
X00711200Y00844550
X00736600
X00768350
Y00920750
X00736600
X00711200
X00793750
X00825500
X00850900
X00882650
X00908050
X00939792
X00965192
X00996950
X01022350
X01054092
X01079492
X01111250
X01136650
X01168392
Y00844550
X01136650
X01111250
X01079492
X01054092
X01022350
X00996950
X00965192
X00939792
X00908050
X00882650
X00850900
X00825500
X00793750
X01181100Y01017270
Y01042670
X01206500
Y01017270
X01231900
Y01042670
X01257300
Y01017270
X01282700
Y01042670
X01282692Y00920750
X01308092
X01339842
X01365242
X01397000
X01422400
X01454150
X01479550
X01511300
X01536700
X01568450
Y00844550
X01536700
X01511300
X01479550
X01454150
X01422400
X01397000
X01365242
X01339842
X01308092
X01282692
X01250942
X01225542
X01193792
Y00920750
X01225542
X01250942
X01593850
X01625600
X01651000
X01682750
X01708150
X01739900
X01765300
Y00844550
X01739900
X01708150
X01682750
X01651000
X01625600
X01593850
X01809750Y00965200
Y00990600
Y01022350
Y01047750
Y01079500
Y01104900
Y01136650
Y01162050
X01885950
Y01136650
Y01104900
Y01079500
Y01047750
Y01022350
Y00990600
Y00965200
Y01193800
Y01219200
Y01257300
Y01282700
Y01314450
Y01339850
Y01371600
Y01397000
X01809750
Y01371600
Y01339850
Y01314450
Y01282700
Y01257300
Y01219200
Y01193800
X01181100Y01276350
X01155700
X01130300
X01104900
X01079500
X01054100
X01028700
X01003300
X00946150
X00869950
X00594360Y01536700
Y01562100
X00568960Y01549400
Y01574800
X00456460Y01540200
Y01514800
Y01622000
Y01647400
X00568960Y01625600
Y01600200
X00594360Y01612900
Y01587500
T04
X01731010Y00546100
X01748790Y00622300
X01479550Y00736600
X01454150
X01428750
X01270000
X01244600
X01219200
X01162050
X01136650
X01111250
X01054100
X01028700
X01003300
X00946150
X00920750
X00895350
X00641350Y00746760
X00565150Y00764540
X02400300Y00977900
Y01003300
Y01028700
X01543050Y01771650
X01517650
X01492250
X01606550
X01631950
X01657350
T05
X02393950Y00647700
Y00673100
Y00698500
Y00723900
Y00749300
Y00774700
X02368550
Y00749300
Y00723900
Y00698500
Y00673100
Y00647700
Y00800100
Y00825500
X02393950
Y00800100
T06
X01999700Y00353850
X02027400
X02055100
X02082800
X02110500
X02138200
X02165900
X02152050Y00382250
X02124350
X02096650
X02068950
X02041250
X02013550
X01985850Y00382250
X02179750Y00382250
T07
X01641150Y00477200
X01521150
X01437950
X01317950
X01228400
X01108400
X01025200
X00905200
T08
X01652500Y00654050
X01547900
X01449300Y00660400
X01344700
X01239750
X01135150
X01030200
X00925600
T09
X01641150Y00599200
X01874520Y00571500
Y00546100
Y00520700
X01581150Y00457200
X01521150Y00599200
X01437950
X01317950
X01228400
X01377950Y00457200
X01168400
X01108400Y00599200
X01025200
X00905200
X00965200Y00457200
X00577850Y01085850
Y01111250
Y01136650
T10
X00552450Y00393700
X00603250
X00654050
X00704850
X00755650
X00806450
X00914400
X00965200
X01016000
X01117600
X01168400
X01219200
X01327150
X01377950
X01428750
X01530350Y00392430
X01581150
X01631950
X01733550Y00393700
X01784350
X00488950Y00635000
Y00685800
X02336800Y01098550
Y01149350
Y01200150
Y01250950
Y01320800
Y01371600
Y01422400
Y01473200
Y01524000
Y01574800
Y01625600
Y01676400
T11
X00535960Y01501700
Y01660500
T12
X02114550Y01148080
X02273300Y01270000
T13
X00425000Y00325000
X02375000
X02012950Y00546100
X00430530Y01111250
X00425000Y01775000
X02375000
T14
X01916200Y00368050
X02249400
T15
X00505460Y01523900
Y01638300
M30
