%FSAX44Y44*%
%MOMM*%
G71*
G01*
G75*
G04 Layer_Color=32896*
%ADD10R,0.8000X0.8000*%
%ADD11R,1.3500X1.5000*%
%ADD12R,0.7000X1.0000*%
%ADD13R,1.0000X0.7000*%
%ADD14R,3.8100X2.0300*%
%ADD15R,8.8900X11.4300*%
%ADD16R,1.5000X1.3500*%
%ADD17O,1.6500X0.3000*%
%ADD18O,0.3000X1.6500*%
G04:AMPARAMS|DCode=19|XSize=1mm|YSize=1.85mm|CornerRadius=0.5mm|HoleSize=0mm|Usage=FLASHONLY|Rotation=0.000|XOffset=0mm|YOffset=0mm|HoleType=Round|Shape=RoundedRectangle|*
%AMROUNDEDRECTD19*
21,1,1.0000,0.8500,0,0,0.0*
21,1,0.0000,1.8500,0,0,0.0*
1,1,1.0000,0.0000,-0.4250*
1,1,1.0000,0.0000,-0.4250*
1,1,1.0000,0.0000,0.4250*
1,1,1.0000,0.0000,0.4250*
%
%ADD19ROUNDEDRECTD19*%
%ADD20R,1.4500X1.3500*%
%ADD21R,2.6000X1.5000*%
%ADD22R,2.6000X4.1000*%
%ADD23R,2.5000X2.0000*%
%ADD24R,1.3500X1.4500*%
%ADD25R,2.0000X2.5000*%
%ADD26R,1.5000X3.2000*%
%ADD27R,3.2000X1.5000*%
%ADD28R,0.8000X0.8000*%
%ADD29O,2.2000X0.6000*%
%ADD30R,3.2000X1.2000*%
%ADD31R,5.3000X1.7000*%
%ADD32O,1.9000X0.4100*%
%ADD33R,2.6000X1.3500*%
%ADD34R,1.3500X2.6000*%
%ADD35R,1.0000X0.6000*%
%ADD36R,1.0500X0.6000*%
%ADD37R,2.0000X1.5000*%
G04:AMPARAMS|DCode=38|XSize=1mm|YSize=1.85mm|CornerRadius=0.5mm|HoleSize=0mm|Usage=FLASHONLY|Rotation=90.000|XOffset=0mm|YOffset=0mm|HoleType=Round|Shape=RoundedRectangle|*
%AMROUNDEDRECTD38*
21,1,1.0000,0.8500,0,0,90.0*
21,1,0.0000,1.8500,0,0,90.0*
1,1,1.0000,0.4250,0.0000*
1,1,1.0000,0.4250,0.0000*
1,1,1.0000,-0.4250,0.0000*
1,1,1.0000,-0.4250,0.0000*
%
%ADD38ROUNDEDRECTD38*%
%ADD39R,10.0000X8.0000*%
%ADD40P,1.8385X4X270.0*%
%ADD41R,1.5000X2.6000*%
%ADD42O,0.6000X2.2000*%
%ADD43R,2.1000X2.3000*%
%ADD44R,2.0000X0.7000*%
%ADD45R,2.1000X2.9900*%
%ADD46O,2.1500X0.9000*%
%ADD47R,4.1000X2.6000*%
%ADD48R,0.9500X0.9000*%
%ADD49R,0.9500X0.9000*%
%ADD50R,2.5000X2.5000*%
%ADD51O,0.7500X0.2000*%
%ADD52O,0.2000X0.7500*%
%ADD53R,2.9900X2.1000*%
%ADD54R,2.3000X0.5000*%
%ADD55O,1.9000X0.6000*%
%ADD56C,0.2540*%
%ADD57C,1.0000*%
%ADD58C,4.0000*%
%ADD59C,0.3840*%
%ADD60C,1.5000*%
%ADD61C,0.9000*%
%ADD62C,2.0000*%
%ADD63C,0.8000*%
%ADD64C,0.5000*%
%ADD65C,0.3810*%
%ADD66C,0.5240*%
%ADD67C,0.5080*%
%ADD68R,2.0320X2.1590*%
%ADD69R,3.5560X1.2700*%
%ADD70R,3.3020X1.2700*%
%ADD71R,3.3020X1.3970*%
%ADD72R,1.2700X1.2700*%
%ADD73R,1.9050X1.2946*%
%ADD74R,2.0320X2.0320*%
%ADD75R,1.1569X2.0320*%
%ADD76R,2.5400X1.2700*%
%ADD77R,2.1590X2.1590*%
%ADD78R,0.8890X0.5080*%
%ADD79R,0.8890X1.1430*%
%ADD80R,11.4300X23.4950*%
%ADD81R,11.4300X23.3680*%
%ADD82R,9.9060X12.1920*%
%ADD83R,0.8890X0.6350*%
%ADD84R,6.6040X3.9370*%
%ADD85R,3.5560X6.4770*%
%ADD86R,2.7940X2.2860*%
%ADD87R,12.4460X15.2400*%
%ADD88R,2.2860X2.2860*%
%ADD89R,3.8100X1.5240*%
%ADD90R,2.2860X11.1760*%
%ADD91R,1.2700X2.2860*%
%ADD92C,5.0000*%
%ADD93R,1.5000X1.5000*%
%ADD94C,1.5000*%
%ADD95C,4.8000*%
%ADD96C,1.6900*%
%ADD97R,1.6900X1.6900*%
%ADD98R,1.5000X1.5000*%
%ADD99P,1.5154X8X112.5*%
%ADD100C,1.4000*%
%ADD101R,1.3500X1.3500*%
%ADD102C,1.3500*%
%ADD103C,2.5400*%
%ADD104P,1.5154X8X22.5*%
%ADD105R,1.5200X1.5200*%
%ADD106C,1.5200*%
%ADD107R,2.0000X2.0000*%
%ADD108C,2.0000*%
%ADD109C,2.2000*%
%ADD110R,2.0000X2.0000*%
%ADD111C,1.5240*%
%ADD112C,0.6000*%
%ADD113C,0.8000*%
%ADD114C,3.0000*%
%ADD115C,2.5000*%
%ADD116C,4.2500*%
%ADD117C,4.0000*%
%ADD118R,2.8000X2.1000*%
%ADD119R,1.9000X0.6000*%
%ADD120R,1.0160X1.2700*%
%ADD121R,1.2805X1.2700*%
%ADD122R,12.7000X12.7000*%
%ADD123R,1.3970X2.0320*%
%ADD124R,2.4130X2.5400*%
%ADD125R,5.5880X2.0320*%
%ADD126C,0.0127*%
%ADD127C,0.2500*%
%ADD128C,0.6000*%
%ADD129C,0.2000*%
%ADD130C,0.1270*%
%ADD131C,0.1000*%
%ADD132C,0.1500*%
%ADD133R,2.7940X0.3810*%
%ADD134R,0.5500X3.9000*%
%ADD135R,2.5400X0.2540*%
%ADD136R,0.2540X2.5400*%
%ADD137R,0.3810X2.7940*%
%ADD138R,0.8000X2.8000*%
%ADD139R,3.9000X0.5500*%
%ADD140R,10.7950X10.7950*%
%ADD141R,1.0032X1.0032*%
%ADD142R,1.5532X1.7032*%
%ADD143R,0.9032X1.2032*%
%ADD144R,1.2032X0.9032*%
%ADD145R,4.0132X2.2332*%
%ADD146R,9.0932X11.6332*%
%ADD147R,1.7032X1.5532*%
%ADD148O,1.8532X0.5032*%
%ADD149O,0.5032X1.8532*%
G04:AMPARAMS|DCode=150|XSize=1.2032mm|YSize=2.0532mm|CornerRadius=0.6016mm|HoleSize=0mm|Usage=FLASHONLY|Rotation=0.000|XOffset=0mm|YOffset=0mm|HoleType=Round|Shape=RoundedRectangle|*
%AMROUNDEDRECTD150*
21,1,1.2032,0.8500,0,0,0.0*
21,1,0.0000,2.0532,0,0,0.0*
1,1,1.2032,0.0000,-0.4250*
1,1,1.2032,0.0000,-0.4250*
1,1,1.2032,0.0000,0.4250*
1,1,1.2032,0.0000,0.4250*
%
%ADD150ROUNDEDRECTD150*%
%ADD151R,1.6532X1.5532*%
%ADD152R,2.8032X1.7032*%
%ADD153R,2.8032X4.3032*%
%ADD154R,2.7032X2.2032*%
%ADD155R,1.5532X1.6532*%
%ADD156R,2.2032X2.7032*%
%ADD157R,1.7032X3.4032*%
%ADD158R,3.4032X1.7032*%
%ADD159R,1.0032X1.0032*%
%ADD160O,2.4032X0.8032*%
%ADD161R,3.4032X1.4032*%
%ADD162R,5.5032X1.9032*%
%ADD163O,2.1032X0.6132*%
%ADD164R,2.8032X1.5532*%
%ADD165R,1.5532X2.8032*%
%ADD166R,1.2032X0.8032*%
%ADD167R,1.2532X0.8032*%
%ADD168R,2.2032X1.7032*%
G04:AMPARAMS|DCode=169|XSize=1.2032mm|YSize=2.0532mm|CornerRadius=0.6016mm|HoleSize=0mm|Usage=FLASHONLY|Rotation=90.000|XOffset=0mm|YOffset=0mm|HoleType=Round|Shape=RoundedRectangle|*
%AMROUNDEDRECTD169*
21,1,1.2032,0.8500,0,0,90.0*
21,1,0.0000,2.0532,0,0,90.0*
1,1,1.2032,0.4250,0.0000*
1,1,1.2032,0.4250,0.0000*
1,1,1.2032,-0.4250,0.0000*
1,1,1.2032,-0.4250,0.0000*
%
%ADD169ROUNDEDRECTD169*%
%ADD170R,10.2032X8.2032*%
%ADD171P,2.1258X4X270.0*%
%ADD172R,1.7032X2.8032*%
%ADD173O,0.8032X2.4032*%
%ADD174R,2.3032X2.5032*%
%ADD175R,2.2032X0.9032*%
%ADD176R,2.3032X3.1932*%
%ADD177O,2.3532X1.1032*%
%ADD178R,4.3032X2.8032*%
%ADD179R,1.1532X1.1032*%
%ADD180R,1.1532X1.1032*%
%ADD181R,2.7032X2.7032*%
%ADD182O,0.9532X0.4032*%
%ADD183O,0.4032X0.9532*%
%ADD184R,3.1932X2.3032*%
%ADD185R,2.5032X0.7032*%
%ADD186O,2.1032X0.8032*%
%ADD187C,5.2032*%
%ADD188R,1.7032X1.7032*%
%ADD189C,1.7032*%
%ADD190C,5.0032*%
%ADD191C,1.8932*%
%ADD192R,1.8932X1.8932*%
%ADD193R,1.7032X1.7032*%
%ADD194P,1.7353X8X112.5*%
%ADD195C,1.6032*%
%ADD196R,1.5532X1.5532*%
%ADD197C,1.5532*%
%ADD198C,2.7432*%
%ADD199P,1.7353X8X22.5*%
%ADD200R,1.7232X1.7232*%
%ADD201C,1.7232*%
%ADD202R,2.2032X2.2032*%
%ADD203C,2.2032*%
%ADD204C,2.4032*%
%ADD205R,2.2032X2.2032*%
%ADD206C,1.7272*%
%ADD207C,0.8032*%
%ADD208C,3.2032*%
%ADD209C,4.2032*%
%ADD210R,3.0032X2.3032*%
%ADD211R,2.1032X0.8032*%
%ADD212C,0.0254*%
G36*
X00926968Y01587278D02*
X00926967Y01587277D01*
X00926968Y01587280D01*
X00926968Y01587278D01*
D02*
G37*
G36*
X01143651Y01585912D02*
X01133808D01*
Y01584506D01*
X01132402D01*
Y01587318D01*
X01133808D01*
Y01595755D01*
X01135214D01*
Y01587318D01*
X01142245D01*
Y01595755D01*
X01143651D01*
Y01585912D01*
D02*
G37*
G36*
X00927902Y01593760D02*
X00927901Y01593761D01*
X00927902Y01593761D01*
X00927902Y01593760D01*
D02*
G37*
G36*
X01017503Y01594040D02*
X01017503Y01594038D01*
X01017504Y01594038D01*
Y01594038D01*
X01017504Y01594037D01*
X01017504Y01594037D01*
D01*
X01017504Y01594037D01*
X01017504Y01594037D01*
X01017504Y01594037D01*
X01017504Y01594037D01*
X01017504Y01594037D01*
X01017504Y01594037D01*
X01017504Y01594037D01*
X01017504Y01594038D01*
X01017504Y01594037D01*
X01017503Y01594040D01*
X01017502Y01594041D01*
X01017501Y01594042D01*
X01017503Y01594040D01*
D02*
G37*
G36*
X00927717Y01593990D02*
X00927713Y01593988D01*
X00927715Y01593990D01*
X00927717Y01593990D01*
D02*
G37*
G36*
X01008230Y01587146D02*
X01008234Y01587135D01*
X01008229Y01587147D01*
X01008230Y01587146D01*
D02*
G37*
G36*
X00801119Y01593505D02*
X00801119Y01593505D01*
X00801119Y01593506D01*
X00801117Y01593511D01*
X00801119Y01593505D01*
D02*
G37*
G36*
X00801176Y01592950D02*
X00801174Y01592950D01*
X00801175Y01592951D01*
X00801176Y01592950D01*
D02*
G37*
G36*
X01017727D02*
X01017727Y01592949D01*
X01017725Y01592949D01*
X01017724Y01592951D01*
X01017727Y01592951D01*
X01017727Y01592950D01*
D02*
G37*
G36*
X00801114Y01593518D02*
X00801114Y01593518D01*
X00801114Y01593519D01*
X00801114Y01593518D01*
D02*
G37*
G36*
X01017666Y01593517D02*
X01017665Y01593518D01*
X01017665Y01593519D01*
X01017665Y01593519D01*
X01017666Y01593517D01*
D02*
G37*
G36*
X00801117Y01593511D02*
X00801114Y01593517D01*
X00801114Y01593516D01*
X00801114Y01593518D01*
X00801114Y01593517D01*
X00801114Y01593518D01*
X00801114Y01593518D01*
X00801114Y01593518D01*
X00801114Y01593518D01*
X00801114Y01593518D01*
X00801114Y01593518D01*
X00801114Y01593517D01*
X00801114Y01593518D01*
D01*
X00801117Y01593511D01*
D02*
G37*
G36*
X01017499Y01594048D02*
X01017499Y01594048D01*
D01*
D01*
D01*
X01017500Y01594046D01*
X01017504Y01594038D01*
X01017503Y01594038D01*
X01017500Y01594046D01*
X01017499Y01594048D01*
X01017499Y01594048D01*
X01017501Y01594042D01*
X01017499Y01594048D01*
X01017498Y01594049D01*
X01017499Y01594049D01*
X01017499Y01594048D01*
X01017499Y01594048D01*
X01017499Y01594048D01*
X01017499Y01594048D01*
X01017499Y01594048D01*
X01017499Y01594049D01*
X01017499Y01594049D01*
X01017499Y01594048D01*
D02*
G37*
G36*
X00927507Y01594162D02*
X00927497Y01594166D01*
X00927505Y01594160D01*
X00927506Y01594159D01*
X00927497Y01594166D01*
D01*
X00927496Y01594167D01*
X00927507Y01594162D01*
D02*
G37*
G36*
X01131558Y01585912D02*
X01121715D01*
Y01587318D01*
X01130152D01*
Y01590130D01*
X01123121D01*
Y01591537D01*
X01130152D01*
Y01594349D01*
X01121715D01*
Y01595755D01*
X01131558D01*
Y01585912D01*
D02*
G37*
G36*
X01015939Y01586063D02*
X01015941Y01586064D01*
X01015951Y01586068D01*
X01015939Y01586063D01*
D02*
G37*
G36*
X00921881Y01594297D02*
X00921881Y01594297D01*
X00921882Y01594298D01*
X00921881Y01594297D01*
D02*
G37*
G36*
X01110043Y01594349D02*
X01105825D01*
Y01585912D01*
X01104418D01*
Y01594349D01*
X01100200D01*
Y01595755D01*
X01110043D01*
Y01594349D01*
D02*
G37*
G36*
X00921642Y01594167D02*
X00921641Y01594167D01*
X00921641Y01594167D01*
X00921642Y01594167D01*
X00921643Y01594168D01*
X00921642Y01594167D01*
D02*
G37*
G36*
X01016869Y01586676D02*
X01016863Y01586673D01*
X01016866Y01586678D01*
X01016869Y01586676D01*
D02*
G37*
G36*
X00921639Y01594166D02*
X00921632Y01594161D01*
X00921631Y01594163D01*
X00921639Y01594166D01*
X00921639Y01594166D01*
X00921641Y01594167D01*
X00921639Y01594166D01*
D02*
G37*
G36*
X01017499Y01594049D02*
X01017499Y01594048D01*
X01017499Y01594049D01*
X01017498Y01594050D01*
X01017499Y01594049D01*
D02*
G37*
G36*
X00921631Y01594163D02*
X00921629Y01594162D01*
X00921631Y01594163D01*
X00921631Y01594163D01*
D02*
G37*
G36*
X01009493Y01586081D02*
X01009502Y01586077D01*
X01009489Y01586083D01*
X01009493Y01586081D01*
D02*
G37*
G36*
X01016859Y01586668D02*
X01016859Y01586667D01*
X01016859Y01586668D01*
X01016859Y01586668D01*
D02*
G37*
G36*
X00896445Y01585912D02*
X00895039D01*
Y01590130D01*
X00888008D01*
Y01585912D01*
X00886601D01*
Y01595755D01*
X00888008D01*
Y01591537D01*
X00895039D01*
Y01595755D01*
X00896445D01*
Y01585912D01*
D02*
G37*
G36*
X00823323D02*
X00821917D01*
Y01590130D01*
X00814886D01*
Y01585912D01*
X00813480D01*
Y01595755D01*
X00814886D01*
Y01591537D01*
X00821917D01*
Y01595755D01*
X00823323D01*
Y01585912D01*
D02*
G37*
G36*
X01007802Y01588169D02*
X01007801Y01588168D01*
X01007800Y01588169D01*
X01007802Y01588169D01*
D02*
G37*
G36*
X01050843Y01585912D02*
X01049437D01*
X01042406Y01593857D01*
Y01585912D01*
X01041000D01*
Y01595755D01*
X01042406D01*
X01049437Y01587951D01*
Y01595755D01*
X01050843D01*
Y01585912D01*
D02*
G37*
G36*
X01006689D02*
X01005283D01*
Y01590130D01*
X01003047D01*
X00998829Y01585912D01*
X00996846D01*
X01001768Y01590833D01*
X00996846Y01595755D01*
X00998829D01*
X01003047Y01591537D01*
X01005283D01*
Y01595755D01*
X01006689D01*
Y01585912D01*
D02*
G37*
G36*
X01017662Y01588127D02*
X01017663Y01588128D01*
X01017668Y01588140D01*
X01017662Y01588127D01*
D02*
G37*
G36*
X00921643Y01589949D02*
X00921641Y01589948D01*
X00921642Y01589949D01*
X00921643Y01589949D01*
X00921643Y01589949D01*
D02*
G37*
G36*
X00921235Y01589541D02*
X00921234Y01589541D01*
X00921235Y01589543D01*
X00921235Y01589541D01*
D02*
G37*
G36*
X00920986Y01588731D02*
X00920986Y01588730D01*
X00920982Y01588730D01*
X00920983Y01588731D01*
X00920986Y01588732D01*
X00920986Y01588731D01*
D02*
G37*
G36*
X00921014Y01588435D02*
X00921015Y01588434D01*
X00921012Y01588433D01*
X00921012Y01588435D01*
X00921014Y01588436D01*
X00921014Y01588435D01*
D02*
G37*
G36*
X01017727Y01588718D02*
D01*
X01017727Y01588717D01*
X01017727Y01588717D01*
D01*
X01017727Y01588716D01*
X01017725Y01588717D01*
X01017727Y01588717D01*
Y01588717D01*
X01017727Y01588717D01*
X01017727Y01588718D01*
X01017727Y01588717D01*
Y01588721D01*
X01017730Y01588724D01*
X01017727Y01588718D01*
D02*
G37*
G36*
X00921881Y01590079D02*
X00921881Y01590079D01*
X00921882Y01590079D01*
X00921881Y01590079D01*
D02*
G37*
G36*
X01120590Y01585912D02*
X01119184D01*
Y01590130D01*
X01112152D01*
Y01585912D01*
X01110747D01*
Y01595755D01*
X01112152D01*
Y01591537D01*
X01119184D01*
Y01595755D01*
X01120590D01*
Y01585912D01*
D02*
G37*
G36*
X01007968Y01587636D02*
X01007968Y01587635D01*
X01007969Y01587634D01*
X01007972Y01587625D01*
X01007968Y01587636D01*
X01007968Y01587636D01*
X01007968Y01587635D01*
X01007968Y01587635D01*
X01007968Y01587636D01*
X01007967Y01587637D01*
X01007968Y01587636D01*
D02*
G37*
G36*
X00758498Y01585912D02*
X00757092D01*
X00750061Y01593857D01*
Y01585912D01*
X00748655D01*
Y01595755D01*
X00750061D01*
X00757092Y01587951D01*
Y01595755D01*
X00758498D01*
Y01585912D01*
D02*
G37*
G36*
X00769748D02*
X00768342D01*
X00761311Y01593857D01*
Y01585912D01*
X00759904D01*
Y01595755D01*
X00761311D01*
X00768342Y01587951D01*
Y01595755D01*
X00769748D01*
Y01585912D01*
D02*
G37*
G36*
X00920985Y01592950D02*
X00920982Y01592949D01*
X00920983Y01592950D01*
X00920984Y01592950D01*
X00920985Y01592950D01*
D02*
G37*
G36*
X01017728Y01592949D02*
X01017728Y01592949D01*
D01*
X01017730Y01592943D01*
X01017726Y01592948D01*
X01017727Y01592949D01*
X01017728Y01592949D01*
X01017728Y01592949D01*
X01017727Y01592950D01*
D01*
X01017728Y01592949D01*
D02*
G37*
G36*
X01009291Y01592937D02*
X01009291Y01592943D01*
X01009293D01*
X01009291Y01592937D01*
D02*
G37*
G36*
X00985175Y01593646D02*
X00981420Y01590819D01*
X00985175Y01587993D01*
Y01585912D01*
X00983768D01*
Y01587290D01*
X00980253Y01589934D01*
X00976738Y01587290D01*
Y01585912D01*
X00975332D01*
Y01587993D01*
X00979086Y01590819D01*
X00975332Y01593646D01*
Y01595755D01*
X00976738D01*
Y01594349D01*
X00980253Y01591705D01*
X00983768Y01594349D01*
Y01595755D01*
X00985175D01*
Y01593646D01*
D02*
G37*
G36*
X00871415D02*
X00867660Y01590819D01*
X00871415Y01587993D01*
Y01585912D01*
X00870008D01*
Y01587290D01*
X00866493Y01589934D01*
X00862978Y01587290D01*
Y01585912D01*
X00861572D01*
Y01587993D01*
X00865326Y01590819D01*
X00861572Y01593646D01*
Y01595755D01*
X00862978D01*
Y01594349D01*
X00866493Y01591705D01*
X00870008Y01594349D01*
Y01595755D01*
X00871415D01*
Y01593646D01*
D02*
G37*
G36*
X00834292D02*
X00830537Y01590819D01*
X00834292Y01587993D01*
Y01585912D01*
X00832885D01*
Y01587290D01*
X00829370Y01589934D01*
X00825854Y01587290D01*
Y01585912D01*
X00824448D01*
Y01587993D01*
X00828203Y01590819D01*
X00824448Y01593646D01*
Y01595755D01*
X00825854D01*
Y01594349D01*
X00829370Y01591705D01*
X00832885Y01594349D01*
Y01595755D01*
X00834292D01*
Y01593646D01*
D02*
G37*
G36*
X00921014Y01592654D02*
X00921015Y01592652D01*
X00921012Y01592652D01*
X00921012Y01592653D01*
X00921014Y01592655D01*
X00921014Y01592654D01*
D02*
G37*
G36*
X00968582Y01585912D02*
X00967176D01*
X00960145Y01593857D01*
Y01585912D01*
X00958739D01*
Y01595755D01*
X00960145D01*
X00967176Y01587951D01*
Y01595755D01*
X00968582D01*
Y01585912D01*
D02*
G37*
G36*
X00996143D02*
X00994737D01*
X00987706Y01593857D01*
Y01585912D01*
X00986300D01*
Y01595755D01*
X00987706D01*
X00994737Y01587951D01*
Y01595755D01*
X00996143D01*
Y01585912D01*
D02*
G37*
G36*
X00752760Y01597343D02*
X00752759Y01597343D01*
X00752758Y01597343D01*
X00752760Y01597343D01*
D02*
G37*
G36*
X01008627Y01594988D02*
X01008626Y01594988D01*
X01008628Y01594989D01*
X01008627Y01594988D01*
D02*
G37*
G36*
X01021037Y01694953D02*
X01025596Y01693530D01*
X01029728Y01691280D01*
X01033332Y01688303D01*
X01036309Y01684699D01*
X01038559Y01680567D01*
X01039982Y01676008D01*
X01040479Y01671121D01*
Y01634627D01*
X01039987Y01629705D01*
X01038576Y01625130D01*
X01036341Y01620996D01*
X01033378Y01617400D01*
X01029781Y01614436D01*
X01025648Y01612201D01*
X01021072Y01610790D01*
X01016150Y01610299D01*
X00979656D01*
X00974769Y01610795D01*
X00970210Y01612218D01*
X00966078Y01614468D01*
X00962474Y01617445D01*
X00959497Y01621049D01*
X00957247Y01625181D01*
X00955824Y01629740D01*
X00955328Y01634627D01*
Y01671121D01*
X00955844Y01675973D01*
X00957316Y01680516D01*
X00959626Y01684646D01*
X00962657Y01688258D01*
X00966292Y01691248D01*
X00970415Y01693513D01*
X00974909Y01694948D01*
X00979656Y01695450D01*
X01016150D01*
X01021037Y01694953D01*
D02*
G37*
G36*
X00787749Y01595698D02*
X00788276Y01595533D01*
X00788754Y01595273D01*
X00789171Y01594929D01*
X00789515Y01594512D01*
X00789775Y01594035D01*
X00789939Y01593508D01*
X00789997Y01592943D01*
Y01588724D01*
X00789940Y01588155D01*
X00789777Y01587626D01*
X00789518Y01587148D01*
X00789176Y01586733D01*
X00788760Y01586390D01*
X00788282Y01586132D01*
X00787753Y01585969D01*
X00787184Y01585912D01*
X00782966D01*
X00782401Y01585970D01*
X00781874Y01586134D01*
X00781396Y01586394D01*
X00780979Y01586738D01*
X00780635Y01587155D01*
X00780376Y01587632D01*
X00780211Y01588159D01*
X00780153Y01588724D01*
Y01592943D01*
X00780213Y01593504D01*
X00780383Y01594029D01*
X00780650Y01594506D01*
X00781001Y01594924D01*
X00781421Y01595269D01*
X00781898Y01595531D01*
X00782417Y01595697D01*
X00782966Y01595755D01*
X00787184D01*
X00787749Y01595698D01*
D02*
G37*
G36*
X00834451Y01683285D02*
X00797958D01*
Y01610299D01*
X00785793D01*
Y01683285D01*
X00749300D01*
Y01695450D01*
X00834451D01*
Y01683285D01*
D02*
G37*
G36*
X00919484Y01694839D02*
X00924076Y01693342D01*
X00928212Y01691056D01*
X00931801Y01688075D01*
X00934751Y01684496D01*
X00936971Y01680414D01*
X00938370Y01675923D01*
X00938856Y01671121D01*
Y01610299D01*
X00926692D01*
Y01671121D01*
X00926443Y01673564D01*
X00925732Y01675844D01*
X00924607Y01677910D01*
X00923118Y01679712D01*
X00921316Y01681201D01*
X00919250Y01682325D01*
X00916971Y01683037D01*
X00914527Y01683285D01*
X00865869D01*
Y01610299D01*
X00853705D01*
Y01695450D01*
X00914527D01*
X00919484Y01694839D01*
D02*
G37*
G36*
X01346486Y01597024D02*
X01344305Y01593201D01*
X01341737Y01590132D01*
X01338716Y01587440D01*
X01335174Y01584750D01*
X01331044Y01581685D01*
X01326257Y01577867D01*
X01320749Y01572921D01*
X01313394Y01565783D01*
X01306815Y01559477D01*
X01300583Y01554038D01*
X01294267Y01549504D01*
X01287441Y01545911D01*
X01279676Y01543296D01*
X01270542Y01541696D01*
X01259611Y01541146D01*
X01281320Y01555955D01*
X01288762Y01561526D01*
X01296928Y01567838D01*
X01305590Y01574544D01*
X01314519Y01581303D01*
X01323488Y01587769D01*
X01332268Y01593600D01*
X01340630Y01598451D01*
X01348347Y01601978D01*
X01346486Y01597024D01*
D02*
G37*
G36*
X01352155Y01612223D02*
X01350860Y01608469D01*
X01348945Y01606086D01*
X01345900Y01604226D01*
X01341214Y01602043D01*
X01334375Y01598691D01*
X01324870Y01593322D01*
X01312190Y01585090D01*
X01306656Y01581249D01*
X01301111Y01577371D01*
X01295543Y01573491D01*
X01289940Y01569646D01*
X01284291Y01565871D01*
X01278584Y01562200D01*
X01272806Y01558671D01*
X01266945Y01555319D01*
X01259445Y01551290D01*
X01252744Y01548094D01*
X01246554Y01545856D01*
X01240591Y01544704D01*
X01234567Y01544762D01*
X01228198Y01546157D01*
X01221197Y01549017D01*
X01213278Y01553466D01*
X01209999Y01555541D01*
X01207094Y01557455D01*
X01204476Y01559281D01*
X01202055Y01561094D01*
X01199746Y01562967D01*
X01197458Y01564974D01*
X01195106Y01567189D01*
X01192601Y01569686D01*
X01190440Y01571896D01*
X01188131Y01574324D01*
X01185767Y01576949D01*
X01183446Y01579748D01*
X01181261Y01582699D01*
X01179308Y01585781D01*
X01177682Y01588972D01*
X01176479Y01592250D01*
X01181083Y01590045D01*
X01185325Y01587717D01*
X01189490Y01585366D01*
X01193862Y01583094D01*
X01198724Y01581004D01*
X01204361Y01579198D01*
X01211058Y01577776D01*
X01219098Y01576843D01*
X01225762Y01576616D01*
X01232326Y01576892D01*
X01238778Y01577609D01*
X01245109Y01578701D01*
X01251309Y01580105D01*
X01257369Y01581758D01*
X01263278Y01583594D01*
X01269026Y01585551D01*
X01279085Y01589417D01*
X01289471Y01593880D01*
X01300090Y01598674D01*
X01310845Y01603530D01*
X01321643Y01608178D01*
X01332389Y01612351D01*
X01342987Y01615779D01*
X01353344Y01618193D01*
X01352155Y01612223D01*
D02*
G37*
G36*
X01143877Y01610299D02*
X01046561Y01610243D01*
Y01622463D01*
X01058726D01*
Y01695450D01*
X01070890D01*
Y01622463D01*
X01131712D01*
Y01695450D01*
X01143877D01*
Y01610299D01*
D02*
G37*
G36*
X01008624Y01594986D02*
X01008618Y01594980D01*
X01008620Y01594986D01*
X01008626Y01594988D01*
X01008624Y01594986D01*
D02*
G37*
G36*
X01016893Y01594954D02*
X01016896Y01594948D01*
X01016896Y01594948D01*
X01016889Y01594953D01*
X01016887Y01594957D01*
X01016893Y01594954D01*
D02*
G37*
G36*
X01016896Y01594948D02*
X01016896Y01594948D01*
D01*
X01016896Y01594947D01*
X01016895Y01594946D01*
X01016896Y01594948D01*
X01016896Y01594948D01*
X01016896Y01594948D01*
X01016896Y01594948D01*
D01*
X01016896Y01594948D01*
D02*
G37*
G36*
X00778888Y01585912D02*
X00777482D01*
Y01594349D01*
X00770451D01*
Y01595755D01*
X00778888D01*
Y01585912D01*
D02*
G37*
G36*
X01014854Y01595824D02*
X01014850D01*
X01014853Y01595822D01*
X01015438Y01595749D01*
X01015439Y01595748D01*
X01015978Y01595572D01*
X01015981Y01595570D01*
X01015982Y01595570D01*
X01016459Y01595307D01*
X01016459Y01595306D01*
X01016460D01*
X01016459Y01595307D01*
X01016459Y01595307D01*
X01016460Y01595307D01*
X01016460Y01595306D01*
X01016460D01*
X01016460Y01595307D01*
X01016460Y01595307D01*
X01016472Y01595301D01*
X01016460Y01595306D01*
X01016470Y01595299D01*
X01016889Y01594953D01*
X01016894Y01594946D01*
X01016895Y01594946D01*
X01016894Y01594945D01*
X01017237Y01594533D01*
X01017237Y01594535D01*
X01017242Y01594521D01*
X01017237Y01594533D01*
X01017242Y01594521D01*
X01017243Y01594520D01*
X01017498Y01594050D01*
X01017502Y01594041D01*
X01017503Y01594038D01*
X01017504Y01594037D01*
X01017504Y01594036D01*
X01017665Y01593519D01*
X01017665Y01593518D01*
X01017665Y01593518D01*
X01017670Y01593506D01*
X01017665Y01593518D01*
X01017671Y01593504D01*
X01017670Y01593506D01*
X01017668Y01593503D01*
X01017724Y01592951D01*
X01017724Y01592950D01*
X01017725Y01592949D01*
X01017726Y01592948D01*
X01017725Y01592943D01*
X01017727Y01588721D01*
X01017724Y01588717D01*
X01017725Y01588717D01*
X01017724Y01588717D01*
X01017669Y01588147D01*
X01017671D01*
X01017668Y01588141D01*
X01017669Y01588147D01*
X01017665D01*
X01017665Y01588141D01*
X01017668Y01588141D01*
X01017668Y01588139D01*
X01017665Y01588140D01*
X01017665Y01588141D01*
X01017663Y01588128D01*
X01017662Y01588127D01*
X01017490Y01587585D01*
X01017488Y01587582D01*
X01017488Y01587581D01*
X01017489Y01587583D01*
X01017489Y01587582D01*
X01017489Y01587583D01*
X01017489Y01587583D01*
X01017490Y01587585D01*
X01017494Y01587594D01*
X01017489Y01587583D01*
X01017489Y01587583D01*
X01017488Y01587580D01*
X01017488Y01587581D01*
X01017488Y01587581D01*
X01017224Y01587105D01*
X01017223Y01587104D01*
X01017223Y01587103D01*
X01017223Y01587103D01*
X01017223Y01587103D01*
X01017223Y01587103D01*
X01017224Y01587105D01*
X01017224Y01587105D01*
X01017223Y01587102D01*
Y01587102D01*
X01017223Y01587103D01*
X01017223Y01587103D01*
X01017223Y01587102D01*
Y01587102D01*
X01017223Y01587102D01*
X01017223Y01587103D01*
X01017223Y01587102D01*
X01017223Y01587102D01*
X01017218Y01587091D01*
X01017223Y01587102D01*
D01*
X01017218Y01587091D01*
D01*
X01017218Y01587091D01*
X01017218Y01587091D01*
X01017218Y01587091D01*
X01017218Y01587091D01*
X01017218Y01587090D01*
X01017218Y01587091D01*
X01017217Y01587092D01*
X01017215Y01587092D01*
X01016869Y01586676D01*
Y01586676D01*
Y01586676D01*
D01*
X01016867Y01586671D01*
X01016859Y01586668D01*
Y01586668D01*
X01016860Y01586668D01*
X01016859Y01586668D01*
X01016862Y01586673D01*
X01016863Y01586673D01*
X01016860Y01586668D01*
X01016867Y01586671D01*
X01016869Y01586676D01*
X01016869Y01586676D01*
X01016869Y01586677D01*
X01016869Y01586676D01*
X01016869Y01586677D01*
D01*
X01016870Y01586677D01*
X01016867Y01586678D01*
X01016867Y01586679D01*
X01016867Y01586679D01*
X01016866Y01586678D01*
X01016867Y01586678D01*
X01016866Y01586678D01*
X01016866Y01586678D01*
X01016862Y01586673D01*
X01016858Y01586670D01*
X01016859Y01586669D01*
X01016859Y01586668D01*
X01016859Y01586668D01*
X01016859Y01586669D01*
X01016857Y01586669D01*
X01016440Y01586329D01*
X01016441Y01586328D01*
X01016439Y01586328D01*
X01016440Y01586329D01*
X01016438Y01586330D01*
X01016438Y01586330D01*
X01016439Y01586331D01*
X01016429Y01586324D01*
X01016440Y01586328D01*
X01016428Y01586323D01*
X01016429Y01586324D01*
X01016428Y01586323D01*
X01015941Y01586064D01*
X01015939Y01586064D01*
X01015405Y01585898D01*
X01015418Y01585903D01*
X01015405Y01585901D01*
X01014845Y01585839D01*
X01014852Y01585842D01*
X01014845Y01585845D01*
X01010623Y01585842D01*
X01010627Y01585839D01*
X01010619Y01585842D01*
X01010623D01*
X01010620Y01585845D01*
X01010034Y01585907D01*
X01010033Y01585908D01*
X01009493Y01586081D01*
X01009490Y01586083D01*
X01008999Y01586355D01*
X01009011Y01586350D01*
X01009001Y01586357D01*
X01008581Y01586709D01*
X01008584Y01586705D01*
X01008578Y01586708D01*
X01008575Y01586715D01*
X01008581Y01586709D01*
X01008577Y01586717D01*
X01008230Y01587146D01*
X01008229Y01587148D01*
X01008229Y01587149D01*
X01007969Y01587634D01*
X01007968Y01587636D01*
X01007968Y01587636D01*
X01007968Y01587637D01*
X01007806Y01588156D01*
X01007800Y01588168D01*
X01007805Y01588156D01*
X01007806Y01588156D01*
X01007806Y01588155D01*
X01007805Y01588156D01*
X01007803Y01588169D01*
X01007802Y01588169D01*
X01007803Y01588169D01*
X01007747Y01588716D01*
X01007744Y01588717D01*
X01007741Y01588724D01*
X01007763Y01588776D01*
X01007814Y01588797D01*
Y01588792D01*
X01009220Y01588797D01*
X01009272Y01588776D01*
X01009290Y01588731D01*
D01*
X01009291Y01588730D01*
X01009288Y01588731D01*
X01009288Y01588731D01*
X01009290Y01588731D01*
X01009290Y01588732D01*
X01009288Y01588731D01*
X01009287Y01588731D01*
X01009288Y01588731D01*
X01009287Y01588730D01*
X01009315Y01588455D01*
X01009394Y01588204D01*
X01009517Y01587977D01*
X01009681Y01587779D01*
X01009880Y01587615D01*
X01010107Y01587491D01*
X01010358Y01587413D01*
X01010630Y01587386D01*
X01014842D01*
X01015114Y01587413D01*
X01015365Y01587491D01*
X01015592Y01587615D01*
X01015790Y01587779D01*
X01015954Y01587977D01*
X01016078Y01588204D01*
X01016156Y01588455D01*
X01016184Y01588728D01*
Y01588724D01*
X01016184Y01588731D01*
X01016184Y01588728D01*
Y01592940D01*
X01016156Y01593212D01*
X01016078Y01593463D01*
X01015954Y01593690D01*
X01015790Y01593888D01*
X01015592Y01594052D01*
X01015365Y01594176D01*
X01015114Y01594254D01*
X01014842Y01594282D01*
X01014845D01*
X01014838Y01594282D01*
X01014842Y01594282D01*
X01010630D01*
X01010358Y01594254D01*
X01010107Y01594176D01*
X01009880Y01594052D01*
X01009681Y01593888D01*
X01009517Y01593690D01*
X01009394Y01593463D01*
X01009315Y01593212D01*
X01009291Y01592943D01*
X01009287D01*
X01009287Y01592937D01*
X01009287Y01592936D01*
X01009290Y01592935D01*
X01009290Y01592936D01*
X01009287Y01592937D01*
X01009291Y01592937D01*
X01009290Y01592936D01*
D01*
X01009272Y01592891D01*
X01009220Y01592870D01*
Y01592876D01*
X01007814Y01592870D01*
X01007763Y01592891D01*
X01007741Y01592943D01*
X01007745Y01592952D01*
X01007747Y01592951D01*
X01007747Y01592953D01*
X01007816Y01593520D01*
X01007815Y01593519D01*
X01007816Y01593522D01*
Y01593522D01*
X01007816Y01593521D01*
X01007816Y01593522D01*
Y01593522D01*
X01007821Y01593533D01*
X01007821Y01593532D01*
X01007821Y01593533D01*
X01007999Y01594070D01*
X01007996Y01594062D01*
X01008000Y01594074D01*
X01007999Y01594070D01*
X01008001Y01594073D01*
X01008272Y01594564D01*
X01008267Y01594552D01*
X01008274Y01594562D01*
X01008274Y01594562D01*
X01008620Y01594977D01*
X01008624Y01594986D01*
X01008627Y01594988D01*
X01008630Y01594987D01*
X01009041Y01595330D01*
X01009040Y01595331D01*
X01009043Y01595332D01*
X01009043Y01595332D01*
X01009054Y01595336D01*
X01009053Y01595335D01*
X01009043Y01595332D01*
X01009043Y01595332D01*
X01009042Y01595331D01*
X01009043Y01595332D01*
X01009041Y01595330D01*
X01009045Y01595330D01*
X01009053Y01595335D01*
X01009054Y01595336D01*
X01009536Y01595599D01*
X01009538Y01595599D01*
X01010068Y01595768D01*
X01010055Y01595763D01*
X01010068Y01595765D01*
X01010069Y01595765D01*
X01010620Y01595825D01*
X01010619Y01595825D01*
X01010620Y01595822D01*
X01010622Y01595824D01*
X01010627Y01595822D01*
X01014850Y01595824D01*
X01014845Y01595828D01*
X01014854Y01595824D01*
D02*
G37*
G36*
X00948904D02*
X00949476Y01595751D01*
X00949477Y01595754D01*
X00949489Y01595749D01*
X00950020Y01595575D01*
X00950020Y01595576D01*
X00950032Y01595571D01*
D01*
X00950033Y01595570D01*
X00950032Y01595570D01*
X00950033Y01595570D01*
X00950032Y01595570D01*
X00950032D01*
X00950033Y01595570D01*
X00950509Y01595307D01*
X00950510Y01595306D01*
X00950510Y01595307D01*
X00950522Y01595301D01*
X00950935Y01594955D01*
X00950937Y01594957D01*
X00950943Y01594954D01*
X00950946Y01594948D01*
X00950947Y01594946D01*
X00951284Y01594533D01*
X00951287Y01594535D01*
X00951288Y01594533D01*
X00951293Y01594521D01*
X00951293Y01594521D01*
X00951292Y01594523D01*
X00951288Y01594532D01*
X00951288Y01594533D01*
X00951288Y01594532D01*
X00951287Y01594534D01*
X00951285Y01594532D01*
X00951292Y01594523D01*
X00951292Y01594521D01*
X00951293Y01594520D01*
X00951292Y01594522D01*
X00951293Y01594521D01*
X00951293Y01594520D01*
X00951548Y01594050D01*
X00951549Y01594049D01*
X00951549Y01594048D01*
X00951550Y01594048D01*
X00951554Y01594037D01*
X00951554Y01594036D01*
X00951715Y01593519D01*
X00951716Y01593519D01*
X00951716Y01593518D01*
X00951716Y01593518D01*
X00951716Y01593517D01*
X00951716Y01593518D01*
D01*
X00951721Y01593505D01*
X00951775Y01592950D01*
X00951777Y01592950D01*
X00951780Y01592943D01*
X00951775Y01585912D01*
X00951780D01*
X00951759Y01585860D01*
X00951708Y01585839D01*
X00950301Y01585845D01*
Y01585839D01*
X00950250Y01585860D01*
X00950229Y01585912D01*
X00950234Y01592940D01*
X00950206Y01593212D01*
X00950128Y01593463D01*
X00950004Y01593690D01*
X00949840Y01593888D01*
X00949642Y01594052D01*
X00949415Y01594176D01*
X00949164Y01594254D01*
X00948892Y01594282D01*
X00943338D01*
Y01585912D01*
X00943343D01*
X00943322Y01585860D01*
X00943270Y01585839D01*
X00941864Y01585845D01*
Y01585839D01*
X00941813Y01585860D01*
X00941792Y01585912D01*
X00941797Y01595755D01*
X00941792D01*
X00941813Y01595807D01*
X00941864Y01595828D01*
X00948895Y01595822D01*
Y01595828D01*
X00948904Y01595824D01*
D02*
G37*
G36*
X00798302D02*
X00798874Y01595751D01*
X00798875Y01595754D01*
X00798887Y01595749D01*
X00799418Y01595575D01*
X00799418Y01595576D01*
X00799430Y01595571D01*
D01*
X00799429Y01595571D01*
X00799429Y01595571D01*
X00799430Y01595570D01*
X00799430Y01595570D01*
X00799430Y01595571D01*
X00799431Y01595570D01*
X00799907Y01595307D01*
X00799908Y01595306D01*
X00799908Y01595307D01*
X00799920Y01595301D01*
X00800333Y01594955D01*
X00800335Y01594957D01*
X00800341Y01594954D01*
X00800344Y01594948D01*
X00800344Y01594949D01*
X00800343Y01594946D01*
X00800342Y01594946D01*
X00800342Y01594945D01*
X00800682Y01594533D01*
X00800690Y01594522D01*
X00800689Y01594524D01*
X00800690Y01594523D01*
X00800686Y01594534D01*
X00800689Y01594524D01*
X00800684Y01594531D01*
X00800683Y01594532D01*
X00800682Y01594533D01*
X00800685Y01594535D01*
X00800686Y01594533D01*
X00800691Y01594521D01*
Y01594521D01*
X00800691Y01594520D01*
X00800946Y01594050D01*
X00800947Y01594049D01*
X00800947Y01594049D01*
X00800952Y01594038D01*
X00800952Y01594037D01*
X00800952Y01594036D01*
X00801114Y01593519D01*
X00801116Y01593503D01*
X00801116Y01593505D01*
X00801116D01*
X00801114Y01593516D01*
X00801119Y01593505D01*
X00801120Y01593504D01*
X00801122Y01593498D01*
X00801172Y01592951D01*
X00801173Y01592950D01*
X00801173Y01592948D01*
X00801174Y01592949D01*
X00801173Y01592950D01*
X00801173D01*
X00801174Y01592950D01*
X00801174Y01592949D01*
X00801176Y01592949D01*
X00801176Y01592949D01*
X00801176Y01592950D01*
D01*
X00801176Y01592949D01*
X00801176Y01592949D01*
D01*
X00801179Y01592943D01*
X00801173Y01585912D01*
X00801179D01*
X00801157Y01585860D01*
X00801106Y01585839D01*
X00799699Y01585845D01*
Y01585839D01*
X00799648Y01585860D01*
X00799627Y01585912D01*
X00799632Y01592940D01*
X00799604Y01593212D01*
X00799526Y01593463D01*
X00799402Y01593690D01*
X00799239Y01593888D01*
X00799040Y01594052D01*
X00798813Y01594176D01*
X00798562Y01594254D01*
X00798290Y01594282D01*
X00792736D01*
Y01585912D01*
X00792741D01*
X00792720Y01585860D01*
X00792668Y01585839D01*
X00791262Y01585845D01*
Y01585839D01*
X00791211Y01585860D01*
X00791190Y01585912D01*
X00791195Y01595755D01*
X00791190D01*
X00791211Y01595807D01*
X00791262Y01595828D01*
X00798293Y01595822D01*
Y01595828D01*
X00798302Y01595824D01*
D02*
G37*
G36*
X01010034Y01585907D02*
X01010046Y01585902D01*
X01010033Y01585907D01*
X01010034Y01585907D01*
D02*
G37*
G36*
X01010622Y01595824D02*
X01010619Y01595825D01*
X01010627Y01595828D01*
X01010622Y01595824D01*
D02*
G37*
G36*
X01039786Y01595807D02*
X01039807Y01595755D01*
X01039801Y01592254D01*
X01039807D01*
X01039804Y01592247D01*
X01039804Y01592247D01*
X01039801Y01592247D01*
X01039804Y01592247D01*
X01039804Y01592247D01*
X01039804Y01592246D01*
X01039742Y01591670D01*
X01039742Y01591670D01*
X01039745Y01591669D01*
X01039739Y01591656D01*
X01039571Y01591124D01*
X01039571Y01591124D01*
X01039566Y01591112D01*
D01*
X01039565Y01591110D01*
X01039301Y01590634D01*
X01039300Y01590633D01*
X01039300Y01590633D01*
X01039295Y01590621D01*
X01039295Y01590620D01*
X01038944Y01590209D01*
X01038944Y01590208D01*
X01038946Y01590206D01*
X01038944Y01590200D01*
X01038937Y01590197D01*
X01038936Y01590197D01*
X01038516Y01589860D01*
X01038515Y01589860D01*
X01038517Y01589858D01*
X01038505Y01589852D01*
X01038028Y01589598D01*
X01038028Y01589598D01*
X01038016Y01589593D01*
X01037495Y01589433D01*
X01037495Y01589433D01*
X01037482Y01589427D01*
X01036929Y01589375D01*
X01036929Y01589371D01*
X01036922Y01589369D01*
X01031365Y01589374D01*
Y01585912D01*
X01031370D01*
X01031349Y01585860D01*
X01031297Y01585839D01*
X01029891Y01585845D01*
Y01585839D01*
X01029839Y01585860D01*
X01029818Y01585912D01*
X01029824Y01595755D01*
X01029818D01*
X01029839Y01595807D01*
X01029891Y01595828D01*
X01031297Y01595822D01*
Y01595828D01*
X01031349Y01595807D01*
X01031370Y01595755D01*
X01031365Y01590915D01*
X01036919D01*
X01037191Y01590943D01*
X01037442Y01591021D01*
X01037669Y01591145D01*
X01037867Y01591308D01*
X01038031Y01591507D01*
X01038155Y01591734D01*
X01038233Y01591985D01*
X01038261Y01592257D01*
Y01595755D01*
X01038255D01*
X01038276Y01595807D01*
X01038328Y01595828D01*
X01039734Y01595822D01*
Y01595828D01*
X01039786Y01595807D01*
D02*
G37*
G36*
X00755021Y01598279D02*
X00755021Y01598285D01*
X00755022D01*
X00755021Y01598279D01*
D02*
G37*
G36*
X01009536Y01595599D02*
X01009526Y01595595D01*
X01009538Y01595600D01*
X01009536Y01595599D01*
D02*
G37*
G36*
X01015982Y01595571D02*
X01015978Y01595572D01*
X01015970Y01595576D01*
X01015982Y01595571D01*
D02*
G37*
G36*
X00756253Y01598005D02*
X00756085Y01597484D01*
X00755829Y01597018D01*
X00755494Y01596613D01*
X00755091Y01596282D01*
X00754631Y01596034D01*
X00754122Y01595877D01*
X00753577Y01595823D01*
X00753017Y01595881D01*
X00752500Y01596047D01*
X00752033Y01596308D01*
X00751628Y01596650D01*
X00751295Y01597060D01*
X00751045Y01597525D01*
X00750887Y01598032D01*
X00750839Y01598500D01*
X00752109D01*
X00752129Y01598279D01*
X00752129Y01598278D01*
X00752132Y01598279D01*
X00752132Y01598278D01*
X00752132Y01598277D01*
X00752130Y01598277D01*
X00752129Y01598278D01*
D01*
X00752134Y01598265D01*
X00752135Y01598265D01*
X00752217Y01598001D01*
X00752222Y01597989D01*
D01*
X00752222Y01597988D01*
X00752223Y01597988D01*
X00752352Y01597752D01*
X00752352Y01597751D01*
X00752352Y01597751D01*
X00752352Y01597749D01*
X00752352Y01597750D01*
Y01597750D01*
X00752357Y01597738D01*
X00752359Y01597740D01*
X00752529Y01597529D01*
X00752532Y01597523D01*
X00752539Y01597520D01*
X00752541Y01597522D01*
X00752747Y01597348D01*
X00752759Y01597343D01*
D01*
X00752760Y01597343D01*
X00752761Y01597343D01*
X00752997Y01597214D01*
X00752998Y01597213D01*
X00752998Y01597213D01*
X00752999Y01597213D01*
X00752998Y01597213D01*
D01*
X00753010Y01597208D01*
X00753010Y01597208D01*
X00753274Y01597126D01*
X00753287Y01597120D01*
X00753287Y01597123D01*
X00753288Y01597123D01*
X00753568Y01597092D01*
X00753571Y01597091D01*
X00753577Y01597089D01*
X00753584Y01597092D01*
X00753583Y01597095D01*
X00753585Y01597095D01*
X00753865Y01597123D01*
X00753866Y01597120D01*
X00753879Y01597126D01*
X00753879Y01597126D01*
X00754143Y01597208D01*
X00754155Y01597213D01*
X00754155Y01597213D01*
X00754156Y01597214D01*
X00754392Y01597343D01*
X00754395Y01597343D01*
X00754406Y01597348D01*
X00754404Y01597350D01*
X00754405Y01597351D01*
X00754613Y01597520D01*
X00754616Y01597521D01*
D01*
X00754614Y01597520D01*
X00754613Y01597523D01*
X00754616Y01597521D01*
X00754621Y01597523D01*
X00754624Y01597530D01*
X00754622Y01597532D01*
X00754796Y01597738D01*
X00754801Y01597750D01*
X00754801Y01597751D01*
X00754801Y01597752D01*
X00754931Y01597988D01*
X00754931Y01597989D01*
Y01597989D01*
X00754936Y01598001D01*
X00754936Y01598001D01*
X00755018Y01598265D01*
X00755024Y01598278D01*
X00755021Y01598278D01*
X00755024Y01598279D01*
X00755027Y01598285D01*
X00755022D01*
X00755043Y01598500D01*
X00756313D01*
X00756253Y01598005D01*
D02*
G37*
G36*
X01015439Y01595749D02*
X01015438Y01595749D01*
X01015426Y01595754D01*
X01015439Y01595749D01*
D02*
G37*
G36*
X00922462Y01595688D02*
X00922459D01*
X00922466Y01595688D01*
X00922462Y01595688D01*
D02*
G37*
G36*
X00938219Y01595695D02*
X00938750Y01595525D01*
X00939228Y01595258D01*
X00939642Y01594908D01*
X00939984Y01594488D01*
X00940240Y01594011D01*
X00940402Y01593492D01*
X00940458Y01592943D01*
Y01585912D01*
X00939052D01*
Y01588724D01*
X00932021D01*
Y01585912D01*
X00930615D01*
Y01592943D01*
X00930686Y01593512D01*
X00930860Y01594041D01*
X00931126Y01594519D01*
X00931473Y01594935D01*
X00931887Y01595277D01*
X00932359Y01595535D01*
X00932876Y01595698D01*
X00933427Y01595755D01*
X00937646D01*
X00938219Y01595695D01*
D02*
G37*
G36*
X01028485Y01585912D02*
X01018642D01*
Y01587318D01*
X01027079D01*
Y01590130D01*
X01020048D01*
Y01591537D01*
X01027079D01*
Y01594349D01*
X01018642D01*
Y01595755D01*
X01028485D01*
Y01585912D01*
D02*
G37*
G36*
X00926968Y01594390D02*
X00926967Y01594388D01*
X00926967Y01594389D01*
X00926967Y01594390D01*
X00926968Y01594390D01*
D02*
G37*
G36*
X00885195Y01585912D02*
X00878164D01*
X00877591Y01585972D01*
X00877060Y01586142D01*
X00876582Y01586409D01*
X00876168Y01586759D01*
X00875826Y01587180D01*
X00875570Y01587656D01*
X00875408Y01588176D01*
X00875352Y01588724D01*
Y01589427D01*
X00875423Y01589996D01*
X00875598Y01590525D01*
X00875863Y01591003D01*
X00876210Y01591419D01*
X00876624Y01591761D01*
X00877096Y01592020D01*
X00877613Y01592183D01*
X00878164Y01592240D01*
X00883789D01*
Y01595755D01*
X00885195D01*
Y01585912D01*
D02*
G37*
G36*
X00907413D02*
X00906007D01*
Y01588724D01*
X00900382D01*
X00899809Y01588784D01*
X00899278Y01588954D01*
X00898800Y01589221D01*
X00898385Y01589571D01*
X00898044Y01589992D01*
X00897788Y01590468D01*
X00897626Y01590988D01*
X00897570Y01591537D01*
Y01592943D01*
X00897641Y01593512D01*
X00897815Y01594041D01*
X00898081Y01594519D01*
X00898428Y01594935D01*
X00898842Y01595277D01*
X00899314Y01595535D01*
X00899831Y01595698D01*
X00900382Y01595755D01*
X00907413D01*
Y01585912D01*
D02*
G37*
G36*
X00918381D02*
X00908538D01*
Y01587318D01*
X00916975D01*
Y01590130D01*
X00909944D01*
Y01591537D01*
X00916975D01*
Y01594349D01*
X00908538D01*
Y01595755D01*
X00918381D01*
Y01585912D01*
D02*
G37*
G36*
X01099497D02*
X01098091D01*
Y01588724D01*
X01092466D01*
X01091893Y01588784D01*
X01091362Y01588954D01*
X01090884Y01589221D01*
X01090469Y01589571D01*
X01090128Y01589992D01*
X01089872Y01590468D01*
X01089710Y01590988D01*
X01089654Y01591537D01*
Y01592943D01*
X01089725Y01593512D01*
X01089899Y01594041D01*
X01090165Y01594519D01*
X01090512Y01594935D01*
X01090926Y01595277D01*
X01091398Y01595535D01*
X01091915Y01595698D01*
X01092466Y01595755D01*
X01099497D01*
Y01585912D01*
D02*
G37*
G36*
X00927256Y01594297D02*
X00927254Y01594298D01*
X00927255Y01594298D01*
X00927256Y01594297D01*
D02*
G37*
G36*
X00927236Y01595629D02*
X00927755Y01595463D01*
X00928221Y01595203D01*
X00928626Y01594861D01*
X00928959Y01594450D01*
X00929210Y01593985D01*
X00929367Y01593478D01*
X00929415Y01593010D01*
X00928144D01*
X00928122Y01593231D01*
X00928125Y01593233D01*
X00928119Y01593246D01*
X00928119Y01593246D01*
X00928037Y01593509D01*
X00928032Y01593521D01*
D01*
X00928033Y01593520D01*
X00928032Y01593521D01*
X00928032Y01593521D01*
X00928032Y01593522D01*
X00928031Y01593522D01*
X00927903Y01593759D01*
X00927902Y01593760D01*
D01*
X00927897Y01593773D01*
X00927895Y01593771D01*
X00927725Y01593981D01*
X00927722Y01593987D01*
X00927717Y01593990D01*
D01*
X00927714Y01593991D01*
X00927713Y01593989D01*
X00927508Y01594162D01*
X00927506Y01594163D01*
X00927495Y01594167D01*
D01*
X00927496Y01594167D01*
X00927497Y01594166D01*
X00927494Y01594167D01*
X00927495Y01594167D01*
X00927493Y01594168D01*
X00927493Y01594168D01*
X00927257Y01594297D01*
X00927256Y01594297D01*
X00927256D01*
X00927243Y01594303D01*
X00927243Y01594302D01*
X00926980Y01594385D01*
X00926967Y01594390D01*
D01*
X00926966Y01594391D01*
X00926967Y01594389D01*
X00926967Y01594387D01*
X00926967Y01594388D01*
X00926968Y01594387D01*
X00926967Y01594387D01*
X00926965Y01594387D01*
X00926685Y01594416D01*
X00926684Y01594419D01*
X00926677Y01594422D01*
Y01594416D01*
X00922459Y01594422D01*
X00922452Y01594419D01*
D01*
X00922453Y01594419D01*
X00922452Y01594416D01*
X00922452Y01594419D01*
X00922451Y01594418D01*
X00922451Y01594416D01*
X00922171Y01594387D01*
X00922170Y01594387D01*
X00922170Y01594388D01*
X00922168Y01594390D01*
X00922169Y01594390D01*
X00922170Y01594389D01*
X00922170Y01594391D01*
X00922169Y01594390D01*
D01*
X00922156Y01594385D01*
X00922156Y01594384D01*
X00921893Y01594303D01*
X00921881Y01594297D01*
D01*
X00921879Y01594297D01*
X00921880Y01594297D01*
X00921643Y01594168D01*
X00921642Y01594167D01*
X00921642D01*
X00921631Y01594163D01*
X00921631Y01594163D01*
X00921641Y01594167D01*
X00921639Y01594166D01*
X00921631Y01594163D01*
X00921631Y01594163D01*
D01*
X00921628Y01594162D01*
X00921630Y01594159D01*
X00921424Y01593989D01*
X00921423Y01593988D01*
X00921423Y01593989D01*
X00921420Y01593990D01*
X00921420Y01593990D01*
X00921421Y01593990D01*
X00921423Y01593989D01*
X00921422Y01593991D01*
X00921420Y01593990D01*
X00921414Y01593987D01*
X00921412Y01593981D01*
X00921414Y01593979D01*
X00921242Y01593771D01*
X00921235Y01593762D01*
X00921235Y01593761D01*
X00921235Y01593761D01*
X00921234Y01593760D01*
X00921235Y01593761D01*
X00921239Y01593773D01*
X00921234Y01593760D01*
X00921234Y01593760D01*
X00921234Y01593759D01*
X00921234Y01593759D01*
X00921105Y01593522D01*
X00921105Y01593521D01*
X00921105Y01593521D01*
X00921104Y01593520D01*
X00921104Y01593521D01*
X00921105Y01593522D01*
X00921105Y01593522D01*
X00921104Y01593521D01*
D01*
X00921099Y01593509D01*
X00921099Y01593509D01*
X00921017Y01593246D01*
X00921012Y01593233D01*
D01*
X00921012Y01593234D01*
X00921014Y01593232D01*
X00921012Y01593233D01*
X00921011Y01593231D01*
X00921014Y01593231D01*
X00920986Y01592951D01*
X00920986Y01592950D01*
X00920985Y01592950D01*
X00920986Y01592951D01*
X00920984Y01592950D01*
X00920983Y01592951D01*
X00920983Y01592950D01*
X00920983D01*
X00920980Y01592943D01*
X00920982Y01592937D01*
X00920986Y01592937D01*
X00920986Y01592936D01*
X00920986Y01592935D01*
X00921011Y01592655D01*
X00921012Y01592653D01*
D01*
X00921017Y01592640D01*
X00921017Y01592640D01*
X00921099Y01592377D01*
X00921104Y01592365D01*
X00921104D01*
X00921104Y01592366D01*
X00921104Y01592365D01*
X00921104Y01592366D01*
X00921105Y01592365D01*
X00921105Y01592364D01*
X00921234Y01592127D01*
X00921234Y01592126D01*
X00921235Y01592125D01*
X00921235Y01592125D01*
X00921234Y01592126D01*
X00921234Y01592126D01*
X00921239Y01592113D01*
X00921242Y01592115D01*
X00921412Y01591905D01*
X00921414Y01591898D01*
X00921421Y01591895D01*
X00921423Y01591898D01*
X00921629Y01591723D01*
X00921642Y01591718D01*
X00921642Y01591719D01*
X00921643Y01591718D01*
X00921879Y01591589D01*
X00921881Y01591588D01*
X00921882Y01591588D01*
X00921882Y01591588D01*
X00921881Y01591588D01*
X00921881D01*
X00921893Y01591583D01*
X00921893Y01591583D01*
X00922156Y01591501D01*
X00922169Y01591496D01*
D01*
X00922168Y01591496D01*
X00922170Y01591499D01*
X00922169Y01591496D01*
X00922170Y01591495D01*
X00922171Y01591498D01*
X00922451Y01591470D01*
X00922452Y01591467D01*
X00922459Y01591464D01*
Y01591469D01*
X00925204D01*
Y01590198D01*
X00922459Y01590203D01*
X00922452Y01590200D01*
D01*
X00922453Y01590201D01*
X00922452Y01590197D01*
X00922452Y01590200D01*
X00922451Y01590200D01*
X00922451Y01590197D01*
X00922171Y01590169D01*
X00922170Y01590169D01*
X00922170Y01590170D01*
X00922168Y01590171D01*
X00922169Y01590172D01*
X00922170Y01590170D01*
X00922170Y01590172D01*
X00922169Y01590172D01*
D01*
X00922156Y01590166D01*
X00922156Y01590166D01*
X00921893Y01590084D01*
X00921881Y01590079D01*
D01*
X00921879Y01590078D01*
X00921880Y01590078D01*
X00921643Y01589949D01*
X00921642Y01589949D01*
X00921643Y01589949D01*
X00921643Y01589949D01*
X00921643Y01589949D01*
X00921643Y01589949D01*
X00921642Y01589949D01*
X00921642D01*
X00921629Y01589944D01*
X00921631Y01589941D01*
X00921421Y01589772D01*
X00921414Y01589769D01*
X00921412Y01589762D01*
X00921414Y01589760D01*
X00921239Y01589554D01*
X00921234Y01589541D01*
D01*
X00921234Y01589540D01*
X00921234Y01589540D01*
X00921105Y01589303D01*
X00921105Y01589302D01*
X00921105Y01589303D01*
X00921104Y01589301D01*
X00921104Y01589303D01*
X00921105Y01589303D01*
X00921105Y01589304D01*
X00921104Y01589303D01*
D01*
X00921099Y01589290D01*
X00921099Y01589290D01*
X00921017Y01589027D01*
X00921012Y01589014D01*
D01*
X00921012Y01589015D01*
X00921014Y01589014D01*
X00921012Y01589014D01*
X00921011Y01589013D01*
X00921014Y01589012D01*
X00920983Y01588732D01*
X00920983Y01588731D01*
X00920983D01*
X00920980Y01588724D01*
X00920982Y01588730D01*
X00920984Y01588723D01*
X00920983Y01588717D01*
X00920982Y01588718D01*
X00920980Y01588724D01*
X00920983Y01588717D01*
Y01588717D01*
X00920983Y01588716D01*
X00920986Y01588716D01*
X00920984Y01588723D01*
X00920986Y01588730D01*
Y01588719D01*
X00920986Y01588717D01*
X00920986Y01588716D01*
X00921011Y01588436D01*
X00921012Y01588435D01*
D01*
X00921017Y01588422D01*
X00921017Y01588422D01*
X00921099Y01588158D01*
X00921104Y01588146D01*
D01*
X00921104Y01588147D01*
X00921105Y01588146D01*
X00921104Y01588146D01*
X00921105Y01588145D01*
X00921105Y01588145D01*
X00921234Y01587908D01*
X00921234Y01587907D01*
X00921235Y01587906D01*
X00921235Y01587906D01*
X00921234Y01587907D01*
D01*
X00921239Y01587895D01*
X00921242Y01587897D01*
X00921412Y01587686D01*
X00921414Y01587680D01*
X00921421Y01587677D01*
X00921423Y01587679D01*
X00921629Y01587505D01*
X00921642Y01587500D01*
X00921642Y01587500D01*
X00921643Y01587500D01*
X00921879Y01587370D01*
X00921881Y01587370D01*
X00921882Y01587370D01*
X00921882Y01587369D01*
X00921881Y01587370D01*
X00921881D01*
X00921893Y01587365D01*
X00921893Y01587365D01*
X00922156Y01587282D01*
X00922169Y01587277D01*
D01*
X00922168Y01587278D01*
X00922170Y01587280D01*
X00922169Y01587277D01*
X00922170Y01587277D01*
X00922171Y01587280D01*
X00922451Y01587251D01*
X00922452Y01587248D01*
X00922459Y01587245D01*
Y01587251D01*
X00926677Y01587245D01*
X00926684Y01587248D01*
X00926684Y01587251D01*
X00926685Y01587251D01*
X00926966Y01587277D01*
X00926967Y01587277D01*
Y01587277D01*
X00926980Y01587282D01*
X00926980Y01587283D01*
X00927243Y01587365D01*
X00927256Y01587370D01*
X00927256Y01587370D01*
X00927257Y01587371D01*
X00927493Y01587500D01*
X00927494Y01587500D01*
X00927496Y01587500D01*
X00927507Y01587505D01*
X00927505Y01587507D01*
X00927506Y01587508D01*
X00927714Y01587677D01*
X00927715Y01587677D01*
X00927714Y01587680D01*
X00927717Y01587677D01*
X00927716Y01587677D01*
X00927717Y01587677D01*
D01*
X00927722Y01587680D01*
X00927725Y01587686D01*
X00927722Y01587688D01*
X00927897Y01587895D01*
X00927902Y01587907D01*
X00927902Y01587907D01*
X00927902Y01587908D01*
X00928031Y01588145D01*
X00928032Y01588146D01*
X00928037Y01588158D01*
X00928037Y01588158D01*
X00928119Y01588422D01*
X00928125Y01588435D01*
X00928122Y01588435D01*
X00928122Y01588436D01*
X00928144Y01588657D01*
X00929414D01*
X00929354Y01588162D01*
X00929186Y01587641D01*
X00928930Y01587174D01*
X00928595Y01586770D01*
X00928192Y01586439D01*
X00927731Y01586190D01*
X00927223Y01586034D01*
X00926674Y01585979D01*
X00926677D01*
X00926671Y01585979D01*
X00926674Y01585979D01*
X00922462D01*
X00921900Y01586038D01*
X00921382Y01586204D01*
X00920915Y01586464D01*
X00920510Y01586806D01*
X00920177Y01587217D01*
X00919927Y01587682D01*
X00919769Y01588189D01*
X00919714Y01588726D01*
X00919729Y01589027D01*
X00919773Y01589317D01*
X00919846Y01589593D01*
X00919949Y01589857D01*
X00920080Y01590107D01*
X00920240Y01590345D01*
X00920430Y01590570D01*
X00920649Y01590785D01*
X00920653Y01590782D01*
X00920654Y01590782D01*
X00920676Y01590833D01*
X00920654Y01590885D01*
X00920654Y01590885D01*
X00920650Y01590882D01*
X00920653Y01590885D01*
X00920654Y01590885D01*
X00920652Y01590886D01*
X00920649Y01590882D01*
X00920430Y01591097D01*
X00920240Y01591322D01*
X00920080Y01591560D01*
X00919949Y01591811D01*
X00919846Y01592074D01*
X00919773Y01592350D01*
X00919729Y01592640D01*
X00919714Y01592941D01*
X00919773Y01593498D01*
X00919940Y01594014D01*
X00920203Y01594480D01*
X00920546Y01594886D01*
X00920958Y01595221D01*
X00921423Y01595473D01*
X00921928Y01595632D01*
X00922462Y01595688D01*
X00926674D01*
X00927236Y01595629D01*
D02*
G37*
G36*
X01061389Y01594349D02*
X01057171D01*
Y01585912D01*
X01055765D01*
Y01594349D01*
X01051546D01*
Y01595755D01*
X01061389D01*
Y01594349D01*
D02*
G37*
G36*
X01071936Y01585912D02*
X01070530D01*
Y01594349D01*
X01063499D01*
Y01585912D01*
X01062093D01*
Y01595755D01*
X01071936D01*
Y01585912D01*
D02*
G37*
G36*
X01080797Y01595698D02*
X01081324Y01595533D01*
X01081802Y01595273D01*
X01082219Y01594929D01*
X01082563Y01594512D01*
X01082823Y01594035D01*
X01082987Y01593508D01*
X01083045Y01592943D01*
Y01588724D01*
X01082988Y01588155D01*
X01082825Y01587626D01*
X01082566Y01587148D01*
X01082224Y01586733D01*
X01081808Y01586390D01*
X01081330Y01586132D01*
X01080801Y01585969D01*
X01080232Y01585912D01*
X01076014D01*
X01075449Y01585970D01*
X01074922Y01586134D01*
X01074444Y01586394D01*
X01074028Y01586738D01*
X01073683Y01587155D01*
X01073423Y01587632D01*
X01073259Y01588159D01*
X01073201Y01588724D01*
Y01592943D01*
X01073261Y01593504D01*
X01073431Y01594029D01*
X01073698Y01594506D01*
X01074049Y01594924D01*
X01074469Y01595269D01*
X01074946Y01595531D01*
X01075465Y01595697D01*
X01076014Y01595755D01*
X01080232D01*
X01080797Y01595698D01*
D02*
G37*
G36*
X00873946Y01585912D02*
X00872540D01*
Y01595755D01*
X00873946D01*
Y01585912D01*
D02*
G37*
G36*
X00800345Y01594946D02*
X00800343Y01594946D01*
X00800344Y01594948D01*
X00800344Y01594948D01*
X00800345Y01594946D01*
D02*
G37*
G36*
X00800342Y01594945D02*
X00800343Y01594946D01*
X00800343Y01594946D01*
X00800342Y01594945D01*
D02*
G37*
G36*
X01246554Y01731434D02*
X01252744Y01729196D01*
X01259445Y01726000D01*
X01266945Y01721972D01*
X01272806Y01718619D01*
X01278584Y01715090D01*
X01284291Y01711420D01*
X01289940Y01707645D01*
X01295543Y01703799D01*
X01301111Y01699919D01*
X01306656Y01696041D01*
X01312190Y01692200D01*
X01324870Y01683968D01*
X01334375Y01678600D01*
X01341214Y01675247D01*
X01345900Y01673065D01*
X01348945Y01671205D01*
X01350860Y01668821D01*
X01352155Y01665068D01*
X01353344Y01659097D01*
X01342987Y01661512D01*
X01332389Y01664940D01*
X01321643Y01669112D01*
X01310845Y01673760D01*
X01300090Y01678616D01*
X01289471Y01683410D01*
X01279085Y01687874D01*
X01269026Y01691739D01*
X01263278Y01693696D01*
X01257369Y01695533D01*
X01251309Y01697186D01*
X01245109Y01698590D01*
X01238778Y01699682D01*
X01232326Y01700398D01*
X01225762Y01700675D01*
X01219098Y01700448D01*
X01211058Y01699514D01*
X01204361Y01698093D01*
X01198724Y01696286D01*
X01193862Y01694196D01*
X01189490Y01691925D01*
X01185325Y01689574D01*
X01181083Y01687245D01*
X01176479Y01685041D01*
X01177682Y01688318D01*
X01179308Y01691510D01*
X01181261Y01694592D01*
X01183446Y01697543D01*
X01185767Y01700342D01*
X01188131Y01702966D01*
X01190440Y01705395D01*
X01192601Y01707605D01*
X01195106Y01710101D01*
X01197458Y01712316D01*
X01199746Y01714323D01*
X01202055Y01716196D01*
X01204476Y01718009D01*
X01207094Y01719836D01*
X01209999Y01721750D01*
X01213278Y01723825D01*
X01221197Y01728274D01*
X01228198Y01731133D01*
X01234567Y01732529D01*
X01240591Y01732587D01*
X01246554Y01731434D01*
D02*
G37*
G36*
X00809967Y01595698D02*
X00810494Y01595533D01*
X00810972Y01595273D01*
X00811388Y01594929D01*
X00811732Y01594512D01*
X00811992Y01594035D01*
X00812157Y01593508D01*
X00812214Y01592943D01*
Y01588724D01*
X00812158Y01588155D01*
X00811994Y01587626D01*
X00811736Y01587148D01*
X00811394Y01586733D01*
X00810978Y01586390D01*
X00810500Y01586132D01*
X00809971Y01585969D01*
X00809402Y01585912D01*
X00805184D01*
X00804619Y01585970D01*
X00804092Y01586134D01*
X00803614Y01586394D01*
X00803197Y01586738D01*
X00802853Y01587155D01*
X00802593Y01587632D01*
X00802429Y01588159D01*
X00802371Y01588724D01*
Y01592943D01*
X00802431Y01593504D01*
X00802601Y01594029D01*
X00802868Y01594506D01*
X00803218Y01594924D01*
X00803639Y01595269D01*
X00804115Y01595531D01*
X00804635Y01595697D01*
X00805184Y01595755D01*
X00809402D01*
X00809967Y01595698D01*
D02*
G37*
G36*
X01354413Y01622843D02*
X01334137Y01617986D01*
X01314013Y01611723D01*
X01293996Y01604960D01*
X01274043Y01598601D01*
X01254109Y01593552D01*
X01234149Y01590719D01*
X01214122Y01591006D01*
X01193982Y01595320D01*
X01184985Y01598470D01*
X01178126Y01601460D01*
X01173095Y01604605D01*
X01169582Y01608220D01*
X01167277Y01612620D01*
X01165870Y01618119D01*
X01165053Y01625033D01*
X01164514Y01633677D01*
X01193420Y01631872D01*
X01218533Y01631075D01*
X01241033Y01631076D01*
X01262096Y01631665D01*
X01282900Y01632631D01*
X01304624Y01633764D01*
X01328444Y01634853D01*
X01355539Y01635688D01*
X01354413Y01622843D01*
D02*
G37*
G36*
X01254109Y01683739D02*
X01274043Y01678690D01*
X01293996Y01672331D01*
X01314013Y01665567D01*
X01334137Y01659304D01*
X01354413Y01654447D01*
X01355539Y01641602D01*
X01328444Y01642437D01*
X01304624Y01643527D01*
X01282900Y01644659D01*
X01262096Y01645625D01*
X01241033Y01646214D01*
X01218533Y01646215D01*
X01193420Y01645418D01*
X01164514Y01643613D01*
X01165053Y01652257D01*
X01165870Y01659171D01*
X01167277Y01664670D01*
X01169582Y01669070D01*
X01173095Y01672685D01*
X01178126Y01675830D01*
X01184985Y01678820D01*
X01193982Y01681970D01*
X01214122Y01686284D01*
X01234149Y01686572D01*
X01254109Y01683739D01*
D02*
G37*
G36*
X01270542Y01735595D02*
X01279676Y01733994D01*
X01287441Y01731379D01*
X01294267Y01727786D01*
X01300583Y01723252D01*
X01306815Y01717814D01*
X01313394Y01711507D01*
X01320749Y01704370D01*
X01326257Y01699424D01*
X01331044Y01695606D01*
X01335174Y01692540D01*
X01338716Y01689850D01*
X01341737Y01687159D01*
X01344305Y01684090D01*
X01346486Y01680266D01*
X01348347Y01675312D01*
X01340630Y01678839D01*
X01332268Y01683690D01*
X01323488Y01689521D01*
X01314519Y01695988D01*
X01305590Y01702746D01*
X01296928Y01709453D01*
X01288762Y01715764D01*
X01281320Y01721335D01*
X01259611Y01736144D01*
X01270542Y01735595D01*
D02*
G37*
G36*
X00754932Y01597990D02*
X00754931Y01597989D01*
X00754931Y01597990D01*
X00754932Y01597990D01*
D02*
G37*
G36*
X00855525Y01594349D02*
X00851306D01*
Y01585912D01*
X00849900D01*
Y01594349D01*
X00845682D01*
Y01595755D01*
X00855525D01*
Y01594349D01*
D02*
G37*
G36*
X00752222Y01597989D02*
X00752222Y01597989D01*
X00752221Y01597990D01*
X00752222Y01597989D01*
D02*
G37*
G36*
X00951288Y01594532D02*
X00951292Y01594522D01*
X00951292Y01594523D01*
X00951288Y01594532D01*
X00951288Y01594532D01*
D02*
G37*
G36*
X00844979Y01585912D02*
X00835135D01*
Y01587318D01*
X00843572D01*
Y01590130D01*
X00836541D01*
Y01591537D01*
X00843572D01*
Y01594349D01*
X00835135D01*
Y01595755D01*
X00844979D01*
Y01585912D01*
D02*
G37*
%LPC*%
G36*
X00781487Y01588724D02*
X00781490Y01588717D01*
X00781491Y01588719D01*
X00781487Y01588724D01*
D02*
G37*
G36*
X00803844Y01588731D02*
X00803845Y01588724D01*
Y01588728D01*
X00803844Y01588731D01*
D02*
G37*
G36*
X00781606Y01588158D02*
X00781611Y01588146D01*
X00781607Y01588156D01*
X00781606Y01588158D01*
D02*
G37*
G36*
X00788634Y01588442D02*
X00788633D01*
X00788632Y01588436D01*
X00788634Y01588442D01*
D02*
G37*
G36*
X00782388Y01587370D02*
X00782400Y01587365D01*
X00782391Y01587369D01*
X00782388Y01587370D01*
D02*
G37*
G36*
X00787763D02*
X00787763Y01587370D01*
X00787762Y01587369D01*
X00787762Y01587369D01*
X00787755Y01587367D01*
X00787751Y01587365D01*
X00787763Y01587370D01*
D02*
G37*
G36*
X00809402Y01587386D02*
X00809399D01*
X00809395Y01587385D01*
X00809402Y01587386D01*
D02*
G37*
G36*
X00787474Y01587279D02*
X00787473Y01587277D01*
X00787475Y01587278D01*
X00787474Y01587279D01*
D02*
G37*
G36*
X01017222Y01587101D02*
X01017216Y01587093D01*
X01017217Y01587092D01*
X01017218Y01587091D01*
X01017222Y01587101D01*
D02*
G37*
G36*
X01017222Y01587102D02*
X01017222Y01587101D01*
X01017223Y01587102D01*
X01017222Y01587102D01*
D02*
G37*
G36*
X00782675Y01587278D02*
X00782676Y01587277D01*
X00782678Y01587277D01*
X00782677Y01587277D01*
X00782675Y01587278D01*
D02*
G37*
G36*
X01010630Y01587386D02*
X01010627D01*
X01010633Y01587385D01*
X01010630Y01587386D01*
D02*
G37*
G36*
X00788014Y01587505D02*
X00788002Y01587500D01*
X00788002Y01587500D01*
X00788003Y01587500D01*
X00788002Y01587500D01*
X00788002Y01587500D01*
X00788001Y01587500D01*
X00788000Y01587499D01*
X00788002Y01587500D01*
X00788001Y01587500D01*
X00788014Y01587505D01*
D02*
G37*
G36*
X00782135Y01587505D02*
X00782138Y01587504D01*
Y01587504D01*
X00782136Y01587505D01*
X00782138Y01587504D01*
Y01587504D01*
X00782135Y01587505D01*
D02*
G37*
G36*
X00927716Y01587677D02*
X00927715Y01587677D01*
D01*
X00927716Y01587677D01*
D02*
G37*
G36*
X01076021Y01594282D02*
X01076014Y01594282D01*
X01076017D01*
X01075745Y01594254D01*
X01075494Y01594176D01*
X01075267Y01594052D01*
X01075069Y01593888D01*
X01074905Y01593690D01*
X01074781Y01593463D01*
X01074703Y01593212D01*
X01074675Y01592940D01*
Y01588728D01*
X01074703Y01588455D01*
X01074781Y01588204D01*
X01074905Y01587977D01*
X01075069Y01587779D01*
X01075267Y01587615D01*
X01075494Y01587491D01*
X01075745Y01587413D01*
X01076017Y01587386D01*
X01080229D01*
X01080501Y01587413D01*
X01080752Y01587491D01*
X01080979Y01587615D01*
X01081178Y01587779D01*
X01081341Y01587977D01*
X01081465Y01588204D01*
X01081543Y01588455D01*
X01081571Y01588728D01*
Y01592940D01*
X01081543Y01593212D01*
X01081465Y01593463D01*
X01081341Y01593690D01*
X01081178Y01593888D01*
X01080979Y01594052D01*
X01080752Y01594176D01*
X01080501Y01594254D01*
X01080229Y01594282D01*
X01076017D01*
X01076021Y01594282D01*
D02*
G37*
G36*
X01080232Y01587386D02*
X01080229D01*
X01080226Y01587385D01*
X01080232Y01587386D01*
D02*
G37*
G36*
X00805190Y01594282D02*
X00805184Y01594282D01*
X00805187D01*
X00804915Y01594254D01*
X00804664Y01594176D01*
X00804437Y01594052D01*
X00804238Y01593888D01*
X00804074Y01593690D01*
X00803951Y01593463D01*
X00803872Y01593212D01*
X00803845Y01592940D01*
Y01588728D01*
X00803872Y01588455D01*
X00803951Y01588204D01*
X00804074Y01587977D01*
X00804238Y01587779D01*
X00804437Y01587615D01*
X00804664Y01587491D01*
X00804915Y01587413D01*
X00805187Y01587386D01*
X00809399D01*
X00809671Y01587413D01*
X00809922Y01587491D01*
X00810149Y01587615D01*
X00810347Y01587779D01*
X00810511Y01587977D01*
X00810635Y01588204D01*
X00810713Y01588455D01*
X00810741Y01588728D01*
Y01592940D01*
X00810713Y01593212D01*
X00810635Y01593463D01*
X00810511Y01593690D01*
X00810347Y01593888D01*
X00810149Y01594052D01*
X00809922Y01594176D01*
X00809671Y01594254D01*
X00809399Y01594282D01*
X00805187D01*
X00805190Y01594282D01*
D02*
G37*
G36*
X00878171Y01590766D02*
X00878164Y01590766D01*
X00878168D01*
X00877896Y01590738D01*
X00877645Y01590660D01*
X00877417Y01590536D01*
X00877219Y01590373D01*
X00877055Y01590174D01*
X00876931Y01589947D01*
X00876853Y01589696D01*
X00876825Y01589424D01*
Y01588728D01*
X00876853Y01588455D01*
X00876931Y01588204D01*
X00877055Y01587977D01*
X00877219Y01587779D01*
X00877417Y01587615D01*
X00877645Y01587491D01*
X00877896Y01587413D01*
X00878168Y01587386D01*
X00883722D01*
Y01590766D01*
X00878168D01*
X00878171Y01590766D01*
D02*
G37*
G36*
X00876825Y01588731D02*
X00876825Y01588724D01*
Y01588728D01*
X00876825Y01588731D01*
D02*
G37*
G36*
X00782138Y01594163D02*
X00782135Y01594162D01*
X00782138Y01594163D01*
X00782138Y01594163D01*
D02*
G37*
G36*
X00932599Y01594163D02*
X00932596Y01594162D01*
X00932599Y01594163D01*
X00932599Y01594163D01*
D02*
G37*
G36*
X00921423Y01593989D02*
X00921423Y01593989D01*
X00921424Y01593989D01*
X00921423Y01593989D01*
D02*
G37*
G36*
X00938464Y01594167D02*
X00938464Y01594167D01*
X00938473Y01594163D01*
X00938474Y01594163D01*
X00938474Y01594159D01*
X00938475Y01594162D01*
X00938474Y01594163D01*
D01*
X00938476Y01594162D01*
X00938474Y01594163D01*
Y01594163D01*
X00938473Y01594163D01*
X00938473Y01594163D01*
X00938464Y01594167D01*
D02*
G37*
G36*
X00938462Y01594168D02*
X00938462Y01594168D01*
X00938463Y01594167D01*
X00938464Y01594167D01*
X00938462Y01594168D01*
D02*
G37*
G36*
X00932610Y01594167D02*
X00932599Y01594163D01*
X00932599Y01594163D01*
X00932610Y01594167D01*
D02*
G37*
G36*
X00938463D02*
X00938473Y01594163D01*
X00938474Y01594163D01*
X00938463Y01594167D01*
D02*
G37*
G36*
X00921236Y01593763D02*
X00921235Y01593761D01*
X00921235Y01593761D01*
X00921235Y01593762D01*
X00921236Y01593763D01*
D02*
G37*
G36*
X00921105Y01593522D02*
X00921105Y01593522D01*
X00921105Y01593521D01*
X00921105Y01593522D01*
D02*
G37*
G36*
X00788539Y01593521D02*
X00788539Y01593521D01*
X00788539Y01593520D01*
X00788539Y01593520D01*
X00788541Y01593515D01*
X00788544Y01593509D01*
X00788539Y01593521D01*
D02*
G37*
G36*
X00932208Y01593773D02*
X00932203Y01593761D01*
D01*
X00932208Y01593773D01*
D02*
G37*
G36*
X00932389Y01593990D02*
X00932383Y01593987D01*
X00932380Y01593981D01*
X00932386Y01593984D01*
X00932389Y01593990D01*
D02*
G37*
G36*
X00788222D02*
X00788224Y01593987D01*
X00788232Y01593981D01*
X00788229Y01593987D01*
X00788222Y01593990D01*
D02*
G37*
G36*
X00921239Y01593773D02*
X00921236Y01593763D01*
X00921242Y01593771D01*
X00921239Y01593773D01*
D02*
G37*
G36*
X01016460Y01595306D02*
X01016460Y01595306D01*
X01016460Y01595306D01*
X01016460Y01595306D01*
D02*
G37*
G36*
X00950946Y01594949D02*
X00950943Y01594946D01*
X00950946Y01594948D01*
X00950946Y01594948D01*
X00950946Y01594949D01*
D02*
G37*
G36*
X00800690Y01594523D02*
X00800690Y01594522D01*
X00800690Y01594521D01*
X00800691Y01594520D01*
X00800691Y01594521D01*
X00800690Y01594523D01*
D02*
G37*
G36*
X00950031Y01595571D02*
X00950032Y01595570D01*
X00950032D01*
X00950032Y01595571D01*
X00950031Y01595571D01*
D02*
G37*
G36*
X01016150Y01683285D02*
X00979656D01*
X00977213Y01683037D01*
X00974933Y01682325D01*
X00972867Y01681201D01*
X00971065Y01679712D01*
X00969577Y01677910D01*
X00968452Y01675844D01*
X00967740Y01673564D01*
X00967492Y01671121D01*
Y01634627D01*
X00967740Y01632184D01*
X00968452Y01629904D01*
X00969577Y01627838D01*
X00971065Y01626036D01*
X00972867Y01624548D01*
X00974933Y01623423D01*
X00977213Y01622711D01*
X00979656Y01622463D01*
X01016150D01*
X01018593Y01622711D01*
X01020873Y01623423D01*
X01022939Y01624548D01*
X01024741Y01626036D01*
X01026229Y01627838D01*
X01027355Y01629904D01*
X01028066Y01632184D01*
X01028314Y01634627D01*
Y01671121D01*
X01028066Y01673564D01*
X01027355Y01675844D01*
X01026229Y01677910D01*
X01024741Y01679712D01*
X01022939Y01681201D01*
X01020873Y01682325D01*
X01018593Y01683037D01*
X01016150Y01683285D01*
D02*
G37*
G36*
X00752352Y01597752D02*
X00752352Y01597751D01*
X00752351Y01597751D01*
X00752352Y01597750D01*
X00752352Y01597751D01*
X00752352Y01597751D01*
X00752352Y01597752D01*
D02*
G37*
G36*
X00752997Y01597214D02*
X00752998Y01597213D01*
X00752997Y01597213D01*
X00752998Y01597213D01*
X00752998Y01597213D01*
X00752998Y01597213D01*
X00752997Y01597214D01*
D02*
G37*
G36*
X00922170Y01594389D02*
X00922170Y01594388D01*
X00922171Y01594387D01*
X00922170Y01594389D01*
D02*
G37*
G36*
X00933427Y01594422D02*
X00933420Y01594419D01*
X00933420D01*
X00933419Y01594418D01*
X00933419Y01594416D01*
X00933421Y01594417D01*
X00933420Y01594416D01*
X00933419Y01594416D01*
X00933139Y01594387D01*
X00933138Y01594387D01*
X00933124Y01594385D01*
X00933138Y01594390D01*
X00932861Y01594302D01*
X00932855Y01594300D01*
X00932861Y01594303D01*
X00932849Y01594297D01*
X00932849Y01594297D01*
X00932850Y01594298D01*
X00932850Y01594298D01*
X00932855Y01594300D01*
X00932850Y01594298D01*
X00932849Y01594297D01*
X00932850Y01594298D01*
X00932849Y01594297D01*
X00932848Y01594297D01*
X00932849Y01594297D01*
X00932611Y01594168D01*
X00932610Y01594167D01*
X00932599Y01594163D01*
X00932599Y01594163D01*
X00932392Y01593989D01*
X00932391Y01593988D01*
X00932386Y01593984D01*
X00932382Y01593979D01*
X00932210Y01593771D01*
X00932203Y01593761D01*
X00932202Y01593759D01*
X00932203Y01593761D01*
X00932073Y01593522D01*
X00932073Y01593521D01*
X00932071Y01593518D01*
X00931985Y01593246D01*
X00931985Y01593244D01*
X00931983Y01593233D01*
X00931980Y01593232D01*
X00931980Y01593234D01*
X00931985Y01593244D01*
X00931985Y01593246D01*
X00931980Y01593233D01*
X00931980Y01593233D01*
X00931979Y01593231D01*
X00931980Y01593232D01*
X00931954Y01592951D01*
X00931954Y01592950D01*
X00931951Y01592946D01*
X00931954Y01590130D01*
X00931948D01*
X00931969Y01590079D01*
X00932021Y01590058D01*
X00939052Y01590063D01*
Y01590058D01*
X00939103Y01590079D01*
X00939125Y01590130D01*
X00939119Y01592943D01*
X00939121Y01592947D01*
X00939119Y01592949D01*
X00939121Y01592951D01*
X00939122Y01592950D01*
Y01592950D01*
X00939122Y01592949D01*
Y01592949D01*
X00939122Y01592950D01*
X00939121Y01592947D01*
X00939125Y01592943D01*
X00939122Y01592949D01*
X00939090Y01593231D01*
X00939090Y01593232D01*
X00939088Y01593246D01*
X00939093Y01593233D01*
X00939005Y01593509D01*
X00939004Y01593513D01*
X00939005Y01593509D01*
X00939000Y01593521D01*
X00939000Y01593521D01*
X00939001Y01593520D01*
X00939001Y01593520D01*
X00939000Y01593521D01*
X00939000Y01593522D01*
X00938999Y01593522D01*
X00939000Y01593521D01*
X00939001Y01593520D01*
X00939004Y01593513D01*
X00938999Y01593522D01*
X00938871Y01593759D01*
X00938870Y01593759D01*
X00938871Y01593759D01*
X00938870Y01593760D01*
X00938870Y01593760D01*
X00938865Y01593773D01*
X00938869Y01593761D01*
X00938870Y01593760D01*
X00938870Y01593759D01*
X00938870Y01593760D01*
X00938869Y01593761D01*
X00938691Y01593979D01*
X00938687Y01593985D01*
X00938682Y01593988D01*
X00938684Y01593989D01*
X00938687Y01593985D01*
X00938693Y01593981D01*
X00938690Y01593987D01*
X00938685Y01593990D01*
D01*
X00938682Y01593991D01*
X00938681Y01593989D01*
X00938682Y01593988D01*
X00938682Y01593988D01*
X00938681Y01593989D01*
X00938474Y01594159D01*
X00938473Y01594160D01*
X00938472Y01594161D01*
X00938464Y01594167D01*
X00938464Y01594167D01*
X00938463Y01594167D01*
X00938463Y01594167D01*
X00938462Y01594168D01*
X00938225Y01594297D01*
X00938224Y01594297D01*
X00938224Y01594297D01*
X00938221Y01594298D01*
X00937948Y01594384D01*
X00937947Y01594385D01*
X00937934Y01594387D01*
X00937935Y01594387D01*
X00937936Y01594387D01*
X00937934Y01594390D01*
X00937936Y01594390D01*
X00937936Y01594390D01*
X00937934Y01594391D01*
X00937934Y01594390D01*
X00937654Y01594416D01*
X00937653Y01594417D01*
X00937652Y01594416D01*
X00937649Y01594419D01*
X00933427Y01594416D01*
X00933422Y01594418D01*
X00933427Y01594422D01*
D02*
G37*
G36*
X00938212Y01594303D02*
X00938221Y01594298D01*
X00938223Y01594298D01*
X00938223Y01594298D01*
X00938224Y01594297D01*
X00938223Y01594298D01*
X00938224Y01594297D01*
X00938225Y01594297D01*
X00938224Y01594297D01*
X00938224Y01594297D01*
X00938212Y01594303D01*
D02*
G37*
G36*
X00937935Y01594390D02*
X00937936Y01594390D01*
X00937936Y01594390D01*
X00937936D01*
X00937947Y01594385D01*
X00937948Y01594385D01*
X00937935Y01594390D01*
D02*
G37*
G36*
X00787184Y01594422D02*
X00787188Y01594419D01*
X00787191D01*
X00787184Y01594422D01*
D02*
G37*
G36*
X00937646D02*
X00937649Y01594419D01*
X00937652D01*
X00937653Y01594417D01*
X00937654Y01594418D01*
X00937653Y01594419D01*
X00937653D01*
X00937646Y01594422D01*
D02*
G37*
G36*
X00782966D02*
X00782960Y01594419D01*
X00782960D01*
X00782959Y01594419D01*
X00782962Y01594418D01*
X00782960Y01594416D01*
X00782958Y01594418D01*
X00782959Y01594419D01*
X00782959D01*
X00782960Y01594419D01*
X00782678Y01594387D01*
X00782677Y01594387D01*
X00782663Y01594385D01*
X00782676Y01594390D01*
X00782400Y01594302D01*
X00782394Y01594300D01*
X00782389Y01594298D01*
X00782388Y01594297D01*
X00782389Y01594298D01*
X00782394Y01594300D01*
X00782400Y01594303D01*
X00782388Y01594297D01*
X00782388Y01594297D01*
X00782386Y01594297D01*
X00782388Y01594297D01*
X00782150Y01594168D01*
X00782149Y01594167D01*
X00782138Y01594163D01*
X00782149Y01594167D01*
X00782138Y01594163D01*
X00782138Y01594163D01*
X00782138Y01594163D01*
X00781931Y01593989D01*
X00781930Y01593988D01*
X00781922Y01593984D01*
X00781928Y01593990D01*
X00781921Y01593987D01*
X00781919Y01593982D01*
X00781750Y01593772D01*
X00781749Y01593770D01*
X00781742Y01593761D01*
X00781741Y01593759D01*
X00781742Y01593761D01*
Y01593761D01*
X00781746Y01593772D01*
X00781742Y01593761D01*
X00781612Y01593522D01*
X00781612Y01593521D01*
X00781610Y01593518D01*
X00781611Y01593521D01*
X00781606Y01593509D01*
X00781610Y01593518D01*
X00781524Y01593246D01*
X00781524Y01593244D01*
X00781521Y01593231D01*
X00781493Y01592951D01*
X00781493Y01592950D01*
X00781490Y01592946D01*
Y01592950D01*
X00781487Y01592943D01*
X00781490Y01592946D01*
X00781492Y01588724D01*
X00781491Y01588719D01*
X00781493Y01588716D01*
X00781521Y01588436D01*
X00781522Y01588435D01*
X00781524Y01588422D01*
X00781518Y01588435D01*
X00781606Y01588158D01*
X00781607Y01588156D01*
X00781741Y01587908D01*
X00781742Y01587907D01*
X00781742Y01587906D01*
X00781741Y01587907D01*
X00781746Y01587895D01*
X00781742Y01587906D01*
X00781921Y01587688D01*
X00781924Y01587683D01*
X00781918Y01587686D01*
X00781921Y01587680D01*
X00781928Y01587677D01*
X00781924Y01587683D01*
X00781931Y01587679D01*
X00782138Y01587508D01*
X00782138Y01587504D01*
X00782138D01*
X00782138Y01587504D01*
D01*
D01*
D01*
Y01587504D01*
X00782148Y01587500D01*
X00782148Y01587500D01*
X00782138Y01587504D01*
D01*
X00782148Y01587500D01*
X00782148D01*
X00782149Y01587500D01*
D01*
X00782148Y01587500D01*
X00782387Y01587371D01*
X00782388Y01587370D01*
X00782391Y01587369D01*
X00782663Y01587283D01*
X00782664Y01587282D01*
X00782663Y01587282D01*
X00782676Y01587277D01*
X00782676Y01587277D01*
X00782675Y01587278D01*
X00782675D01*
X00782664Y01587282D01*
X00782675Y01587280D01*
X00782677Y01587277D01*
X00782958Y01587251D01*
X00782959Y01587250D01*
X00782958Y01587249D01*
X00782959Y01587248D01*
X00782960D01*
X00782959Y01587250D01*
X00782959Y01587251D01*
X00782963Y01587248D01*
X00782960D01*
X00782960Y01587248D01*
X00782959Y01587248D01*
X00782959D01*
X00782966Y01587245D01*
X00782963Y01587248D01*
X00787184Y01587251D01*
X00787189Y01587249D01*
X00787191Y01587250D01*
X00787193Y01587249D01*
X00787191Y01587248D01*
X00787189Y01587249D01*
X00787184Y01587245D01*
X00787190Y01587248D01*
X00787190D01*
X00787191Y01587248D01*
X00787191D01*
X00787190Y01587248D01*
X00787473Y01587280D01*
X00787474Y01587279D01*
X00787474Y01587280D01*
X00787487Y01587282D01*
X00787474Y01587277D01*
X00787750Y01587365D01*
X00787755Y01587367D01*
X00787764Y01587371D01*
X00787763Y01587370D01*
X00787762Y01587369D01*
X00787763Y01587370D01*
X00787764Y01587370D01*
X00787764Y01587371D01*
X00788000Y01587500D01*
X00788001Y01587500D01*
X00788001Y01587500D01*
X00788002Y01587500D01*
X00788220Y01587679D01*
X00788228Y01587684D01*
X00788222Y01587677D01*
X00788229Y01587680D01*
X00788232Y01587686D01*
X00788228Y01587684D01*
X00788401Y01587897D01*
X00788408Y01587906D01*
X00788404Y01587895D01*
X00788409Y01587907D01*
X00788409Y01587907D01*
X00788409Y01587908D01*
X00788409Y01587908D01*
X00788409Y01587907D01*
X00788409Y01587906D01*
X00788408Y01587906D01*
X00788409Y01587907D01*
X00788409Y01587907D01*
X00788409Y01587908D01*
X00788538Y01588145D01*
X00788539Y01588146D01*
X00788538Y01588145D01*
X00788539Y01588146D01*
X00788539Y01588147D01*
X00788539Y01588147D01*
X00788539Y01588146D01*
X00788539Y01588146D01*
X00788544Y01588158D01*
X00788540Y01588149D01*
X00788626Y01588422D01*
X00788626Y01588423D01*
X00788626Y01588422D01*
X00788632Y01588435D01*
X00788631Y01588434D01*
X00788632Y01588436D01*
X00788629Y01588436D01*
X00788629Y01588442D01*
X00788633D01*
X00788657Y01588716D01*
X00788658Y01588717D01*
X00788660Y01588716D01*
X00788660Y01588717D01*
Y01588717D01*
X00788663Y01588724D01*
X00788660Y01588721D01*
Y01588718D01*
X00788658Y01588717D01*
X00788657Y01588717D01*
X00788660Y01588721D01*
X00788658Y01592943D01*
X00788660Y01592948D01*
X00788663Y01592943D01*
X00788660Y01592950D01*
X00788660Y01592948D01*
X00788657Y01592951D01*
X00788629Y01593231D01*
X00788630Y01593232D01*
X00788629Y01593232D01*
X00788626Y01593246D01*
X00788632Y01593233D01*
X00788544Y01593509D01*
X00788541Y01593515D01*
X00788539Y01593520D01*
X00788539Y01593521D01*
X00788539Y01593520D01*
X00788539Y01593521D01*
X00788538Y01593522D01*
X00788539Y01593521D01*
X00788409Y01593759D01*
X00788409Y01593760D01*
X00788408Y01593761D01*
X00788409Y01593760D01*
X00788404Y01593773D01*
X00788408Y01593761D01*
X00788229Y01593979D01*
X00788224Y01593987D01*
X00788012Y01594160D01*
X00788003Y01594166D01*
X00788002Y01594167D01*
X00788000Y01594168D01*
X00788002Y01594167D01*
X00788003Y01594166D01*
X00788014Y01594162D01*
X00788003Y01594167D01*
X00788003Y01594167D01*
X00788002Y01594167D01*
X00788001Y01594167D01*
X00788003Y01594167D01*
X00787764Y01594297D01*
X00787763Y01594297D01*
X00787759Y01594298D01*
X00787763Y01594297D01*
X00787751Y01594303D01*
X00787759Y01594298D01*
X00787487Y01594384D01*
X00787486Y01594385D01*
X00787475Y01594387D01*
X00787473Y01594390D01*
X00787475Y01594390D01*
X00787486Y01594385D01*
X00787487Y01594385D01*
X00787474Y01594390D01*
X00787475Y01594390D01*
X00787473Y01594391D01*
X00787473Y01594390D01*
X00787192Y01594416D01*
X00787191Y01594416D01*
X00787188Y01594419D01*
X00782966Y01594416D01*
X00782962Y01594418D01*
X00782966Y01594422D01*
D02*
G37*
G36*
X01007821Y01593532D02*
X01007816Y01593522D01*
X01007816Y01593520D01*
X01007819Y01593522D01*
X01007821Y01593532D01*
D02*
G37*
G36*
X00921104Y01592365D02*
X00921104Y01592365D01*
X00921105Y01592363D01*
X00921104Y01592365D01*
D02*
G37*
G36*
X01091127Y01591543D02*
X01091127Y01591537D01*
Y01591540D01*
X01091127Y01591543D01*
D02*
G37*
G36*
X00899043D02*
X00899043Y01591537D01*
Y01591540D01*
X00899043Y01591543D01*
D02*
G37*
G36*
X00810741Y01592943D02*
Y01592940D01*
X00810741Y01592936D01*
X00810741Y01592943D01*
D02*
G37*
G36*
X00799632D02*
Y01592940D01*
Y01592940D01*
X00799632Y01592936D01*
X00799632Y01592943D01*
D02*
G37*
G36*
X00921104Y01592365D02*
X00921104Y01592365D01*
X00921105Y01592365D01*
X00921104Y01592365D01*
D02*
G37*
G36*
X01039566Y01591113D02*
X01039566Y01591111D01*
X01039566Y01591112D01*
X01039566Y01591113D01*
D02*
G37*
G36*
X00922170Y01590170D02*
X00922170Y01590170D01*
X00922171Y01590169D01*
X00922170Y01590170D01*
D02*
G37*
G36*
X00921105Y01589303D02*
X00921105Y01589303D01*
X00921105Y01589303D01*
X00921105Y01589303D01*
D02*
G37*
G36*
X01074675Y01588731D02*
X01074675Y01588724D01*
Y01588728D01*
X01074675Y01588731D01*
D02*
G37*
G36*
X01036922Y01590915D02*
X01036919D01*
X01036915Y01590915D01*
X01036922Y01590915D01*
D02*
G37*
G36*
X01092473Y01594282D02*
X01092466Y01594282D01*
X01092469D01*
X01092197Y01594254D01*
X01091946Y01594176D01*
X01091719Y01594052D01*
X01091521Y01593888D01*
X01091357Y01593690D01*
X01091233Y01593463D01*
X01091155Y01593212D01*
X01091127Y01592940D01*
Y01591540D01*
X01091155Y01591268D01*
X01091233Y01591017D01*
X01091357Y01590790D01*
X01091521Y01590591D01*
X01091719Y01590427D01*
X01091946Y01590304D01*
X01092197Y01590225D01*
X01092469Y01590198D01*
X01098024D01*
Y01594282D01*
X01092469D01*
X01092473Y01594282D01*
D02*
G37*
G36*
X00900389D02*
X00900382Y01594282D01*
X00900385D01*
X00900113Y01594254D01*
X00899862Y01594176D01*
X00899635Y01594052D01*
X00899437Y01593888D01*
X00899273Y01593690D01*
X00899149Y01593463D01*
X00899071Y01593212D01*
X00899043Y01592940D01*
Y01591540D01*
X00899071Y01591268D01*
X00899149Y01591017D01*
X00899273Y01590790D01*
X00899437Y01590591D01*
X00899635Y01590427D01*
X00899862Y01590304D01*
X00900113Y01590225D01*
X00900385Y01590198D01*
X00905939D01*
Y01594282D01*
X00900385D01*
X00900389Y01594282D01*
D02*
G37*
G36*
X00950234Y01592943D02*
Y01592940D01*
Y01592940D01*
X00950234Y01592936D01*
X00950234Y01592943D01*
D02*
G37*
G36*
X00931951Y01592950D02*
X00931948Y01592943D01*
X00931951Y01592946D01*
Y01592950D01*
D02*
G37*
G36*
X00781524Y01593246D02*
X00781518Y01593233D01*
X00781524Y01593244D01*
X00781524Y01593246D01*
D02*
G37*
G36*
X00788631Y01593234D02*
X00788630Y01593232D01*
X00788632Y01593231D01*
X00788631Y01593234D01*
D02*
G37*
G36*
X01081571Y01592943D02*
Y01592940D01*
X01081571Y01592936D01*
X01081571Y01592943D01*
D02*
G37*
G36*
X00932072Y01593521D02*
X00932067Y01593509D01*
X00932071Y01593518D01*
X00932072Y01593521D01*
D02*
G37*
%LPD*%
G36*
X00788631Y01588433D02*
D01*
X00788631Y01588434D01*
X00788631Y01588433D01*
D02*
G37*
G36*
X00788629Y01588435D02*
X00788631Y01588433D01*
X00788626Y01588423D01*
X00788629Y01588436D01*
X00788629Y01588435D01*
D02*
G37*
G36*
X00937653Y01594419D02*
X00937652D01*
X00937652Y01594419D01*
X00937653Y01594419D01*
D02*
G37*
G36*
X00782149Y01587500D02*
X00782149Y01587500D01*
X00782150Y01587499D01*
X00782149Y01587500D01*
D01*
X00782148Y01587500D01*
X00782147Y01587501D01*
X00782149Y01587500D01*
D02*
G37*
G36*
X00788660Y01588717D02*
Y01588718D01*
X00788661Y01588718D01*
X00788660Y01588717D01*
D02*
G37*
G36*
X00931980Y01593234D02*
X00931980Y01593233D01*
X00931980Y01593234D01*
Y01593234D01*
D02*
G37*
G36*
X00938870Y01593760D02*
X00938870Y01593760D01*
X00938870Y01593761D01*
X00938870Y01593760D01*
D02*
G37*
G36*
X00933421Y01594418D02*
X00933422Y01594418D01*
X00933421Y01594417D01*
X00933421Y01594418D01*
X00933420Y01594419D01*
X00933421Y01594419D01*
X00933421Y01594418D01*
D02*
G37*
G36*
X00782147Y01587501D02*
X00782138Y01587504D01*
X00782138Y01587507D01*
X00782147Y01587501D01*
D02*
G37*
G36*
X00782389Y01594298D02*
X00782388Y01594297D01*
X00782389Y01594298D01*
X00782389Y01594298D01*
D02*
G37*
G36*
X00788408Y01587906D02*
X00788409Y01587906D01*
X00788409Y01587907D01*
X00788408Y01587906D01*
D02*
G37*
G36*
X00938685Y01593990D02*
X00938684Y01593989D01*
X00938684Y01593990D01*
X00938685Y01593990D01*
D02*
G37*
G36*
X00787191Y01587250D02*
X00787190Y01587251D01*
X00787191Y01587251D01*
X00787192Y01587251D01*
X00787191Y01587250D01*
D02*
G37*
G36*
X00781918Y01593979D02*
X00781919Y01593982D01*
X00781922Y01593984D01*
X00781918Y01593979D01*
D02*
G37*
G36*
X00782150Y01587500D02*
X00782149Y01587500D01*
X00782149Y01587500D01*
X00782150Y01587500D01*
D02*
G37*
G36*
X00787475Y01594390D02*
X00787475D01*
X00787475Y01594390D01*
X00787475Y01594390D01*
D02*
G37*
G36*
X00788539Y01588147D02*
X00788539Y01588146D01*
X00788539Y01588146D01*
X00788540Y01588149D01*
X00788539Y01588147D01*
D02*
G37*
D56*
X00541020Y00876300D02*
G03*
X00541020Y00876300I-00001270J00000000D01*
G01*
X00515620D02*
G03*
X00515620Y00876300I-00001270J00000000D01*
G01*
X00560070Y00857250D02*
G03*
X00560070Y00857250I-00001270J00000000D01*
G01*
X00521970Y00871220D02*
X00529590D01*
X00521970Y00866140D02*
Y00871220D01*
Y00843280D02*
Y00849630D01*
Y00843280D02*
X00529590D01*
X00524510Y00881380D02*
X00532130D01*
Y00886460D01*
Y00902970D02*
Y00909320D01*
X00524510D02*
X00532130D01*
X00408940Y00800100D02*
X00427990D01*
X00408940D02*
Y00963930D01*
X00427990D01*
X00464820Y00935990D02*
Y00963930D01*
Y00801370D02*
Y00829310D01*
X00568960Y00862330D02*
X00576580D01*
Y00867410D01*
Y00883920D02*
Y00890270D01*
X00568960D02*
X00576580D01*
X00480568Y00979932D02*
Y00995167D01*
X00472951D01*
X00470411Y00992628D01*
Y00987550D01*
X00472951Y00985010D01*
X00480568D01*
X00455176Y00979932D02*
X00465333D01*
X00455176Y00990089D01*
Y00992628D01*
X00457715Y00995167D01*
X00462794D01*
X00465333Y00992628D01*
X00442480Y00979932D02*
Y00995167D01*
X00450098Y00987550D01*
X00439941D01*
D126*
X01130152Y01587318D02*
Y01590130D01*
X01132402Y01587318D02*
X01133808D01*
X01132402Y01584506D02*
Y01587318D01*
Y01584506D02*
X01133808D01*
Y01585912D01*
X01143651D01*
X01135214Y01587318D02*
X01142245D01*
Y01595755D02*
X01143651D01*
X01133808D02*
X01135214D01*
X01131712Y01695450D02*
X01143877D01*
X01104418Y01585912D02*
X01105825D01*
X01112152Y01591537D02*
X01119184D01*
X01110747Y01585912D02*
X01112152D01*
Y01590130D01*
X01119184D01*
Y01585912D02*
Y01590130D01*
Y01585912D02*
X01120590D01*
X01123121Y01590130D02*
Y01591537D01*
X01121715Y01585912D02*
Y01587318D01*
X01105825Y01594349D02*
X01110043D01*
Y01595755D01*
X01110747D02*
X01112152D01*
X01119184D02*
X01120590D01*
X01121715Y01594349D02*
Y01595755D01*
X01089654Y01591537D02*
X01089710Y01590988D01*
X01089872Y01590468D01*
X01090128Y01589992D01*
X01090469Y01589571D01*
X01090884Y01589221D01*
X01091362Y01588954D01*
X01091893Y01588784D01*
X01092466Y01588724D01*
X01098091D01*
Y01585912D02*
Y01588724D01*
Y01585912D02*
X01099497D01*
X01092466Y01590130D02*
X01098091D01*
X01092184Y01590159D02*
X01092466Y01590130D01*
X01091920Y01590241D02*
X01092184Y01590159D01*
X01091681Y01590371D02*
X01091920Y01590241D01*
X01091473Y01590544D02*
X01091681Y01590371D01*
X01091301Y01590752D02*
X01091473Y01590544D01*
X01091171Y01590991D02*
X01091301Y01590752D01*
X01091089Y01591254D02*
X01091171Y01590991D01*
X01091060Y01591537D02*
X01091089Y01591254D01*
X01092466Y01595755D02*
X01099497D01*
X01091915Y01595698D02*
X01092466Y01595755D01*
X01091398Y01595535D02*
X01091915Y01595698D01*
X01090926Y01595277D02*
X01091398Y01595535D01*
X01090512Y01594935D02*
X01090926Y01595277D01*
X01090165Y01594519D02*
X01090512Y01594935D01*
X01089899Y01594041D02*
X01090165Y01594519D01*
X01089725Y01593512D02*
X01089899Y01594041D01*
X01089654Y01592943D02*
X01089725Y01593512D01*
X01091060Y01592943D02*
X01091089Y01593225D01*
X01091171Y01593489D01*
X01091301Y01593728D01*
X01091473Y01593936D01*
X01091681Y01594108D01*
X01091920Y01594238D01*
X01092184Y01594320D01*
X01092466Y01594349D01*
X01098091D01*
X01100200D02*
Y01595755D01*
X01070530Y01585912D02*
X01071936D01*
X01073201Y01588724D02*
X01073259Y01588159D01*
X01073423Y01587632D01*
X01073683Y01587155D01*
X01074028Y01586738D01*
X01074444Y01586394D01*
X01074922Y01586134D01*
X01075449Y01585970D01*
X01076014Y01585912D01*
X01080232D01*
X01080801Y01585969D01*
X01081330Y01586132D01*
X01081808Y01586390D01*
X01082224Y01586733D01*
X01082566Y01587148D01*
X01082825Y01587626D01*
X01082988Y01588155D01*
X01083045Y01588724D01*
X01081610Y01588442D02*
X01081638Y01588724D01*
X01081527Y01588178D02*
X01081610Y01588442D01*
X01081397Y01587939D02*
X01081527Y01588178D01*
X01081225Y01587731D02*
X01081397Y01587939D01*
X01081017Y01587559D02*
X01081225Y01587731D01*
X01080778Y01587429D02*
X01081017Y01587559D01*
X01080515Y01587347D02*
X01080778Y01587429D01*
X01080232Y01587318D02*
X01080515Y01587347D01*
X01076014Y01587318D02*
X01080232D01*
X01075731Y01587347D02*
X01076014Y01587318D01*
X01075468Y01587429D02*
X01075731Y01587347D01*
X01075229Y01587559D02*
X01075468Y01587429D01*
X01075021Y01587731D02*
X01075229Y01587559D01*
X01074849Y01587939D02*
X01075021Y01587731D01*
X01074719Y01588178D02*
X01074849Y01587939D01*
X01074636Y01588442D02*
X01074719Y01588178D01*
X01074608Y01588724D02*
X01074636Y01588442D01*
X01063499Y01594349D02*
X01070530D01*
X01082987Y01593508D02*
X01083045Y01592943D01*
X01082823Y01594035D02*
X01082987Y01593508D01*
X01082563Y01594512D02*
X01082823Y01594035D01*
X01082219Y01594929D02*
X01082563Y01594512D01*
X01081802Y01595273D02*
X01082219Y01594929D01*
X01081324Y01595533D02*
X01081802Y01595273D01*
X01080797Y01595698D02*
X01081324Y01595533D01*
X01080232Y01595755D02*
X01080797Y01595698D01*
X01076014Y01595755D02*
X01080232D01*
X01075465Y01595697D02*
X01076014Y01595755D01*
X01074946Y01595531D02*
X01075465Y01595697D01*
X01074469Y01595269D02*
X01074946Y01595531D01*
X01074049Y01594924D02*
X01074469Y01595269D01*
X01073698Y01594506D02*
X01074049Y01594924D01*
X01073431Y01594029D02*
X01073698Y01594506D01*
X01073261Y01593504D02*
X01073431Y01594029D01*
X01073201Y01592943D02*
X01073261Y01593504D01*
X01074608Y01592943D02*
X01074636Y01593225D01*
X01074719Y01593489D01*
X01074849Y01593728D01*
X01075021Y01593936D01*
X01075229Y01594108D01*
X01075468Y01594238D01*
X01075731Y01594320D01*
X01076014Y01594349D01*
X01080232D01*
X01080515Y01594320D01*
X01080778Y01594238D01*
X01081017Y01594108D01*
X01081225Y01593936D01*
X01081397Y01593728D01*
X01081527Y01593489D01*
X01081610Y01593225D01*
X01081638Y01592943D01*
X01049437Y01585912D02*
X01050843D01*
X01055765D02*
X01057171D01*
X01049437Y01595755D02*
X01050843D01*
X01051546Y01594349D02*
X01055765D01*
X01057171D02*
X01061389D01*
Y01595755D01*
X01051546D02*
X01061389D01*
X01051546Y01594349D02*
Y01595755D01*
X01046561Y01622463D02*
X01058726D01*
X01027079Y01587318D02*
Y01590130D01*
X01031297Y01590848D02*
X01036922D01*
X01029891Y01585912D02*
X01031297D01*
Y01589441D01*
X01036922D01*
X01037475Y01589497D01*
X01037996Y01589657D01*
X01038473Y01589912D01*
X01038892Y01590252D01*
X01039241Y01590666D01*
X01039506Y01591144D01*
X01039675Y01591677D01*
X01038217Y01591708D02*
X01038299Y01591971D01*
X01038087Y01591469D02*
X01038217Y01591708D01*
X01037915Y01591261D02*
X01038087Y01591469D01*
X01037707Y01591089D02*
X01037915Y01591261D01*
X01037468Y01590959D02*
X01037707Y01591089D01*
X01037204Y01590876D02*
X01037468Y01590959D01*
X01036922Y01590848D02*
X01037204Y01590876D01*
X01041000Y01585912D02*
X01042406D01*
X01029891Y01595755D02*
X01031297D01*
X01039734Y01592254D02*
Y01595755D01*
X01038328D02*
X01039734D01*
X01038328Y01592254D02*
Y01595755D01*
X01041000D02*
X01042406D01*
X01027355Y01629904D02*
X01028066Y01632184D01*
X01026229Y01627838D02*
X01027355Y01629904D01*
X01024741Y01626036D02*
X01026229Y01627838D01*
X01022939Y01624548D02*
X01024741Y01626036D01*
X01029781Y01614436D02*
X01033378Y01617400D01*
X01036341Y01620996D01*
X01038576Y01625130D01*
X01039987Y01629705D01*
X01022939Y01681201D02*
X01024741Y01679712D01*
X01026229Y01677910D01*
X01027355Y01675844D01*
X01028066Y01673564D01*
X01038559Y01680567D02*
X01039982Y01676008D01*
X01036309Y01684699D02*
X01038559Y01680567D01*
X01033332Y01688303D02*
X01036309Y01684699D01*
X01029728Y01691280D02*
X01033332Y01688303D01*
X01025596Y01693530D02*
X01029728Y01691280D01*
X01003047Y01590130D02*
X01005283D01*
Y01585912D02*
Y01590130D01*
Y01585912D02*
X01006689D01*
X01003047Y01591537D02*
X01005283D01*
X01016222Y01588442D02*
X01016251Y01588724D01*
X01016140Y01588178D02*
X01016222Y01588442D01*
X01016010Y01587939D02*
X01016140Y01588178D01*
X01015838Y01587731D02*
X01016010Y01587939D01*
X01015630Y01587559D02*
X01015838Y01587731D01*
X01015391Y01587429D02*
X01015630Y01587559D01*
X01015127Y01587347D02*
X01015391Y01587429D01*
X01014845Y01587318D02*
X01015127Y01587347D01*
X01010627Y01587318D02*
X01014845D01*
X01010344Y01587347D02*
X01010627Y01587318D01*
X01010080Y01587429D02*
X01010344Y01587347D01*
X01009842Y01587559D02*
X01010080Y01587429D01*
X01009633Y01587731D02*
X01009842Y01587559D01*
X01009461Y01587939D02*
X01009633Y01587731D01*
X01009331Y01588178D02*
X01009461Y01587939D01*
X01009249Y01588442D02*
X01009331Y01588178D01*
X01009220Y01588724D02*
X01009249Y01588442D01*
X01007814Y01588724D02*
X01009220D01*
X01007814D02*
X01007870Y01588176D01*
X01008032Y01587656D01*
X01008288Y01587180D01*
X01008630Y01586759D01*
X01009044Y01586409D01*
X01009522Y01586142D01*
X01010053Y01585972D01*
X01010627Y01585912D01*
X01014845D01*
X01015398Y01585968D01*
X01015919Y01586128D01*
X01016396Y01586383D01*
X01016815Y01586722D01*
X01017164Y01587136D01*
X01017430Y01587614D01*
X01017598Y01588147D01*
X01017657Y01588724D01*
X01020048Y01590130D02*
Y01591537D01*
X01018642Y01585912D02*
Y01587318D01*
X01005283Y01595755D02*
X01006689D01*
X01010627D02*
X01014845D01*
X01010075Y01595698D02*
X01010627Y01595755D01*
X01009558Y01595535D02*
X01010075Y01595698D01*
X01009087Y01595277D02*
X01009558Y01595535D01*
X01008672Y01594935D02*
X01009087Y01595277D01*
X01008326Y01594519D02*
X01008672Y01594935D01*
X01008060Y01594041D02*
X01008326Y01594519D01*
X01007885Y01593512D02*
X01008060Y01594041D01*
X01007814Y01592943D02*
X01007885Y01593512D01*
X01007814Y01592943D02*
X01009220D01*
X01009249Y01593225D01*
X01009331Y01593489D01*
X01009461Y01593728D01*
X01009633Y01593936D01*
X01009842Y01594108D01*
X01010080Y01594238D01*
X01010344Y01594320D01*
X01010627Y01594349D01*
X01014845D01*
X01015127Y01594320D01*
X01015391Y01594238D01*
X01015630Y01594108D01*
X01015838Y01593936D01*
X01016010Y01593728D01*
X01016140Y01593489D01*
X01016222Y01593225D01*
X01016251Y01592943D01*
X01017601Y01593498D02*
X01017657Y01592943D01*
X01017439Y01594017D02*
X01017601Y01593498D01*
X01017183Y01594489D02*
X01017439Y01594017D01*
X01016842Y01594903D02*
X01017183Y01594489D01*
X01016427Y01595247D02*
X01016842Y01594903D01*
X01015949Y01595511D02*
X01016427Y01595247D01*
X01015418Y01595684D02*
X01015949Y01595511D01*
X01014845Y01595755D02*
X01015418Y01595684D01*
X01018642Y01594349D02*
Y01595755D01*
X01016150Y01610299D02*
X01021072Y01610790D01*
X01018593Y01622711D02*
X01020873Y01623423D01*
X01016150Y01622463D02*
X01018593Y01622711D01*
X01016150Y01683285D02*
X01018593Y01683037D01*
X01020873Y01682325D01*
X01016150Y01695450D02*
X01021037Y01694953D01*
X00983768Y01585912D02*
Y01587290D01*
Y01585912D02*
X00985175D01*
Y01587993D01*
X00986300Y01585912D02*
X00987706D01*
X00994737D02*
X00996143D01*
X00996846D02*
X01001768Y01590833D01*
X00996846Y01585912D02*
X00998829D01*
X00985175Y01593646D02*
Y01595755D01*
X00983768D02*
X00985175D01*
X00983768Y01594349D02*
Y01595755D01*
X00994737D02*
X00996143D01*
X00986300D02*
X00987706D01*
X00996846D02*
X00998829D01*
X00967176Y01585912D02*
X00968582D01*
X00975332Y01587993D02*
X00979086Y01590819D01*
X00975332Y01585912D02*
Y01587993D01*
Y01585912D02*
X00976738D01*
Y01587290D01*
X00980253Y01589934D01*
X00967176Y01595755D02*
X00968582D01*
X00975332D02*
X00976738D01*
X00975332Y01593646D02*
Y01595755D01*
X00976738Y01594349D02*
Y01595755D01*
X00970210Y01612218D02*
X00974769Y01610795D01*
X00979656Y01610299D01*
X00977213Y01622711D02*
X00979656Y01622463D01*
X00974933Y01623423D02*
X00977213Y01622711D01*
X00972867Y01624548D02*
X00974933Y01623423D01*
X00971065Y01626036D02*
X00972867Y01624548D01*
X00969577Y01627838D02*
X00971065Y01626036D01*
X00968452Y01629904D02*
X00969577Y01627838D01*
X00967740Y01632184D02*
X00968452Y01629904D01*
X00962474Y01617445D02*
X00966078Y01614468D01*
X00967740Y01673564D02*
X00968452Y01675844D01*
X00969577Y01677910D01*
X00971065Y01679712D01*
X00972867Y01681201D01*
X00974933Y01682325D01*
X00977213Y01683037D01*
X00979656Y01683285D01*
X00966292Y01691248D02*
X00970415Y01693513D01*
X00962657Y01688258D02*
X00966292Y01691248D01*
X00974909Y01694948D02*
X00979656Y01695450D01*
X00941864Y01585912D02*
X00943270D01*
X00950301D02*
X00951708D01*
X00958739D02*
X00960145D01*
X00941864Y01595755D02*
X00948895D01*
X00943270Y01594349D02*
X00948895D01*
X00949178Y01594320D01*
X00949441Y01594238D01*
X00949680Y01594108D01*
X00949888Y01593936D01*
X00950060Y01593728D01*
X00950190Y01593489D01*
X00950273Y01593225D01*
X00950301Y01592943D01*
X00951651Y01593498D02*
X00951708Y01592943D01*
X00951490Y01594017D02*
X00951651Y01593498D01*
X00951233Y01594489D02*
X00951490Y01594017D01*
X00950892Y01594903D02*
X00951233Y01594489D01*
X00950477Y01595247D02*
X00950892Y01594903D01*
X00949999Y01595511D02*
X00950477Y01595247D01*
X00949468Y01595684D02*
X00949999Y01595511D01*
X00948895Y01595755D02*
X00949468Y01595684D01*
X00958739Y01595755D02*
X00960145D01*
X00955824Y01629740D02*
X00957247Y01625181D01*
X00959497Y01621049D01*
X00957316Y01680516D02*
X00959626Y01684646D01*
X00955844Y01675973D02*
X00957316Y01680516D01*
X00925271Y01590130D02*
Y01591537D01*
X00922459D02*
X00925271D01*
X00922176Y01591565D02*
X00922459Y01591537D01*
X00921913Y01591648D02*
X00922176Y01591565D01*
X00921674Y01591778D02*
X00921913Y01591648D01*
X00921466Y01591950D02*
X00921674Y01591778D01*
X00921355Y01586142D02*
X00921886Y01585972D01*
X00922459Y01585912D01*
X00926677D01*
X00927237Y01585968D01*
X00927758Y01586128D01*
X00928230Y01586383D01*
X00928643Y01586722D01*
X00928986Y01587136D01*
X00929248Y01587614D01*
X00929420Y01588147D01*
X00929490Y01588724D01*
X00928084D02*
X00929490D01*
X00928055Y01588442D02*
X00928084Y01588724D01*
X00927973Y01588178D02*
X00928055Y01588442D01*
X00927843Y01587939D02*
X00927973Y01588178D01*
X00927671Y01587731D02*
X00927843Y01587939D01*
X00927462Y01587559D02*
X00927671Y01587731D01*
X00927223Y01587429D02*
X00927462Y01587559D01*
X00926960Y01587347D02*
X00927223Y01587429D01*
X00926677Y01587318D02*
X00926960Y01587347D01*
X00922459Y01587318D02*
X00926677D01*
X00922176Y01587347D02*
X00922459Y01587318D01*
X00921913Y01587429D02*
X00922176Y01587347D01*
X00921674Y01587559D02*
X00921913Y01587429D01*
X00921466Y01587731D02*
X00921674Y01587559D01*
X00921294Y01587939D02*
X00921466Y01587731D01*
X00921164Y01588178D02*
X00921294Y01587939D01*
X00921081Y01588442D02*
X00921164Y01588178D01*
X00921053Y01588724D02*
X00921081Y01588442D01*
X00921053Y01588724D02*
X00921081Y01589007D01*
X00921164Y01589270D01*
X00921294Y01589509D01*
X00921466Y01589717D01*
X00921674Y01589890D01*
X00921913Y01590020D01*
X00922176Y01590102D01*
X00922459Y01590130D01*
X00925271D01*
X00930615Y01585912D02*
X00932021D01*
Y01588724D01*
X00939052D01*
Y01585912D02*
Y01588724D01*
Y01585912D02*
X00940458D01*
X00932021Y01590130D02*
X00939052D01*
X00921164Y01592397D02*
X00921294Y01592158D01*
X00921081Y01592660D02*
X00921164Y01592397D01*
X00921053Y01592943D02*
X00921081Y01592660D01*
X00921053Y01592943D02*
X00921081Y01593225D01*
X00921164Y01593489D01*
X00921294Y01593728D01*
X00921466Y01593936D01*
X00921674Y01594108D01*
X00921913Y01594238D01*
X00922176Y01594320D01*
X00922459Y01594349D01*
X00926677D01*
X00926960Y01594320D01*
X00927223Y01594238D01*
X00927462Y01594108D01*
X00927671Y01593936D01*
X00927843Y01593728D01*
X00927973Y01593489D01*
X00928055Y01593225D01*
X00928084Y01592943D01*
X00929490D01*
X00929434Y01593492D02*
X00929490Y01592943D01*
X00929272Y01594011D02*
X00929434Y01593492D01*
X00929015Y01594488D02*
X00929272Y01594011D01*
X00928674Y01594908D02*
X00929015Y01594488D01*
X00928259Y01595258D02*
X00928674Y01594908D01*
X00927781Y01595525D02*
X00928259Y01595258D01*
X00927250Y01595695D02*
X00927781Y01595525D01*
X00926677Y01595755D02*
X00927250Y01595695D01*
X00922459Y01595755D02*
X00926677D01*
X00921914Y01595698D02*
X00922459Y01595755D01*
X00921397Y01595535D02*
X00921914Y01595698D01*
X00920920Y01595277D02*
X00921397Y01595535D01*
X00940402Y01593492D02*
X00940458Y01592943D01*
X00940240Y01594011D02*
X00940402Y01593492D01*
X00939984Y01594488D02*
X00940240Y01594011D01*
X00939642Y01594908D02*
X00939984Y01594488D01*
X00939228Y01595258D02*
X00939642Y01594908D01*
X00938750Y01595525D02*
X00939228Y01595258D01*
X00938219Y01595695D02*
X00938750Y01595525D01*
X00937646Y01595755D02*
X00938219Y01595695D01*
X00933427Y01595755D02*
X00937646D01*
X00932876Y01595698D02*
X00933427Y01595755D01*
X00932359Y01595535D02*
X00932876Y01595698D01*
X00931887Y01595277D02*
X00932359Y01595535D01*
X00931473Y01594935D02*
X00931887Y01595277D01*
X00931126Y01594519D02*
X00931473Y01594935D01*
X00930860Y01594041D02*
X00931126Y01594519D01*
X00930686Y01593512D02*
X00930860Y01594041D01*
X00930615Y01592943D02*
X00930686Y01593512D01*
X00933427Y01594349D02*
X00937646D01*
X00937928Y01594320D01*
X00938192Y01594238D01*
X00938430Y01594108D01*
X00938639Y01593936D01*
X00938811Y01593728D01*
X00938941Y01593489D01*
X00939023Y01593225D01*
X00939052Y01592943D01*
X00932021D02*
X00932050Y01593225D01*
X00932132Y01593489D01*
X00932262Y01593728D01*
X00932434Y01593936D01*
X00932642Y01594108D01*
X00932881Y01594238D01*
X00933145Y01594320D01*
X00933427Y01594349D01*
X00926692Y01610299D02*
X00938856D01*
X00921316Y01681201D02*
X00923118Y01679712D01*
X00924607Y01677910D01*
X00925732Y01675844D01*
X00926443Y01673564D01*
X00936971Y01680414D02*
X00938370Y01675923D01*
X00934751Y01684496D02*
X00936971Y01680414D01*
X00931801Y01688075D02*
X00934751Y01684496D01*
X00928212Y01691056D02*
X00931801Y01688075D01*
X00924076Y01693342D02*
X00928212Y01691056D01*
X00906007Y01585912D02*
Y01588724D01*
Y01585912D02*
X00907413D01*
X00909944Y01591537D02*
X00916975D01*
X00909944Y01590130D02*
Y01591537D01*
Y01590130D02*
X00916975D01*
Y01587318D02*
Y01590130D01*
X00908538Y01587318D02*
X00916975D01*
X00908538Y01585912D02*
Y01587318D01*
Y01585912D02*
X00918381D01*
X00919887Y01591783D02*
X00920022Y01591526D01*
X00920186Y01591282D01*
X00920380Y01591051D01*
X00920603Y01590833D01*
X00920380Y01590616D02*
X00920603Y01590833D01*
X00920186Y01590385D02*
X00920380Y01590616D01*
X00920022Y01590141D02*
X00920186Y01590385D01*
X00919887Y01589884D02*
X00920022Y01590141D01*
X00919782Y01589614D02*
X00919887Y01589884D01*
X00919707Y01589331D02*
X00919782Y01589614D01*
X00919662Y01589034D02*
X00919707Y01589331D01*
X00919647Y01588724D02*
X00919662Y01589034D01*
X00919647Y01588724D02*
X00919703Y01588176D01*
X00919865Y01587656D01*
X00920121Y01587180D01*
X00920462Y01586759D01*
X00908538Y01595755D02*
X00918381D01*
X00908538Y01594349D02*
Y01595755D01*
Y01594349D02*
X00916975D01*
X00920147Y01594519D02*
X00920499Y01594935D01*
X00919878Y01594041D02*
X00920147Y01594519D01*
X00919707Y01593512D02*
X00919878Y01594041D01*
X00919647Y01592943D02*
X00919707Y01593512D01*
X00919647Y01592943D02*
X00919662Y01592633D01*
X00919707Y01592336D01*
X00914527Y01683285D02*
X00916971Y01683037D01*
X00919250Y01682325D01*
X00914527Y01695450D02*
X00919484Y01694839D01*
X00883789Y01587318D02*
Y01590833D01*
X00888008Y01591537D02*
X00895039D01*
X00886601Y01585912D02*
X00888008D01*
Y01590130D01*
X00895039D01*
Y01585912D02*
Y01590130D01*
Y01585912D02*
X00896445D01*
X00897570Y01591537D02*
X00897626Y01590988D01*
X00897788Y01590468D01*
X00898044Y01589992D01*
X00898385Y01589571D01*
X00898800Y01589221D01*
X00899278Y01588954D01*
X00899809Y01588784D01*
X00900382Y01588724D01*
X00900099Y01590159D02*
X00900382Y01590130D01*
X00899836Y01590241D02*
X00900099Y01590159D01*
X00899597Y01590371D02*
X00899836Y01590241D01*
X00899389Y01590544D02*
X00899597Y01590371D01*
X00899217Y01590752D02*
X00899389Y01590544D01*
X00899087Y01590991D02*
X00899217Y01590752D01*
X00899005Y01591254D02*
X00899087Y01590991D01*
X00898976Y01591537D02*
X00899005Y01591254D01*
X00883789Y01595755D02*
X00885195D01*
X00883789Y01592240D02*
Y01595755D01*
X00886601D02*
X00888008D01*
X00895039D02*
X00896445D01*
X00899831Y01595698D02*
X00900382Y01595755D01*
X00899314Y01595535D02*
X00899831Y01595698D01*
X00898842Y01595277D02*
X00899314Y01595535D01*
X00898428Y01594935D02*
X00898842Y01595277D01*
X00898081Y01594519D02*
X00898428Y01594935D01*
X00897815Y01594041D02*
X00898081Y01594519D01*
X00897641Y01593512D02*
X00897815Y01594041D01*
X00897570Y01592943D02*
X00897641Y01593512D01*
X00898976Y01592943D02*
X00899005Y01593225D01*
X00899087Y01593489D01*
X00899217Y01593728D01*
X00899389Y01593936D01*
X00899597Y01594108D01*
X00899836Y01594238D01*
X00900099Y01594320D01*
X00900382Y01594349D01*
X00861572Y01587993D02*
X00865326Y01590819D01*
X00861572Y01585912D02*
Y01587993D01*
Y01585912D02*
X00862978D01*
Y01587290D01*
X00866493Y01589934D01*
X00870008Y01587290D01*
Y01585912D02*
Y01587290D01*
Y01585912D02*
X00871415D01*
Y01587993D01*
X00867660Y01590819D02*
X00871415Y01587993D01*
X00872540Y01585912D02*
X00873946D01*
X00875352Y01588724D02*
Y01589427D01*
Y01588724D02*
X00875408Y01588176D01*
X00875570Y01587656D01*
X00875826Y01587180D01*
X00876168Y01586759D01*
X00876582Y01586409D01*
X00877060Y01586142D01*
X00877591Y01585972D01*
X00878164Y01585912D01*
X00876210Y01591419D02*
X00876624Y01591761D01*
X00875863Y01591003D02*
X00876210Y01591419D01*
X00875598Y01590525D02*
X00875863Y01591003D01*
X00875423Y01589996D02*
X00875598Y01590525D01*
X00875352Y01589427D02*
X00875423Y01589996D01*
X00876758Y01588724D02*
Y01589427D01*
X00876787Y01589710D01*
X00876869Y01589973D01*
X00876999Y01590212D01*
X00877171Y01590420D01*
X00877380Y01590592D01*
X00877618Y01590722D01*
X00877882Y01590805D01*
X00878164Y01590833D01*
X00877882Y01587347D02*
X00878164Y01587318D01*
X00877618Y01587429D02*
X00877882Y01587347D01*
X00877380Y01587559D02*
X00877618Y01587429D01*
X00877171Y01587731D02*
X00877380Y01587559D01*
X00876999Y01587939D02*
X00877171Y01587731D01*
X00876869Y01588178D02*
X00876999Y01587939D01*
X00876787Y01588442D02*
X00876869Y01588178D01*
X00876758Y01588724D02*
X00876787Y01588442D01*
X00861572Y01595755D02*
X00862978D01*
X00861572Y01593646D02*
Y01595755D01*
X00871415Y01593646D02*
Y01595755D01*
X00870008D02*
X00871415D01*
X00870008Y01594349D02*
Y01595755D01*
X00862978Y01594349D02*
Y01595755D01*
X00872540D02*
X00873946D01*
X00877613Y01592183D02*
X00878164Y01592240D01*
X00843572Y01587318D02*
Y01590130D01*
X00849900Y01585912D02*
X00851306D01*
X00845682Y01594349D02*
X00849900D01*
X00851306D02*
X00855525D01*
Y01595755D01*
X00845682D02*
X00855525D01*
X00845682Y01594349D02*
Y01595755D01*
X00821917Y01585912D02*
Y01590130D01*
Y01585912D02*
X00823323D01*
X00824448Y01587993D02*
X00828203Y01590819D01*
X00824448Y01585912D02*
Y01587993D01*
Y01585912D02*
X00825854D01*
Y01587290D01*
X00829370Y01589934D01*
X00832885Y01587290D01*
Y01585912D02*
Y01587290D01*
Y01585912D02*
X00834292D01*
Y01587993D01*
X00830537Y01590819D02*
X00834292Y01587993D01*
X00836541Y01590130D02*
Y01591537D01*
X00835135Y01585912D02*
Y01587318D01*
X00821917Y01595755D02*
X00823323D01*
X00824448D02*
X00825854D01*
X00824448Y01593646D02*
Y01595755D01*
X00834292Y01593646D02*
Y01595755D01*
X00832885D02*
X00834292D01*
X00832885Y01594349D02*
Y01595755D01*
X00825854Y01594349D02*
Y01595755D01*
X00835135Y01594349D02*
Y01595755D01*
X00799699Y01585912D02*
X00801106D01*
X00802371Y01588724D02*
X00802429Y01588159D01*
X00802593Y01587632D01*
X00802853Y01587155D01*
X00803197Y01586738D01*
X00803614Y01586394D01*
X00804092Y01586134D01*
X00804619Y01585970D01*
X00805184Y01585912D01*
X00809402D01*
X00809971Y01585969D01*
X00810500Y01586132D01*
X00810978Y01586390D01*
X00811394Y01586733D01*
X00811736Y01587148D01*
X00811994Y01587626D01*
X00812158Y01588155D01*
X00812214Y01588724D01*
X00810779Y01588442D02*
X00810808Y01588724D01*
X00810697Y01588178D02*
X00810779Y01588442D01*
X00810567Y01587939D02*
X00810697Y01588178D01*
X00810395Y01587731D02*
X00810567Y01587939D01*
X00810187Y01587559D02*
X00810395Y01587731D01*
X00809948Y01587429D02*
X00810187Y01587559D01*
X00809685Y01587347D02*
X00809948Y01587429D01*
X00809402Y01587318D02*
X00809685Y01587347D01*
X00805184Y01587318D02*
X00809402D01*
X00804901Y01587347D02*
X00805184Y01587318D01*
X00804638Y01587429D02*
X00804901Y01587347D01*
X00804399Y01587559D02*
X00804638Y01587429D01*
X00804190Y01587731D02*
X00804399Y01587559D01*
X00804018Y01587939D02*
X00804190Y01587731D01*
X00803888Y01588178D02*
X00804018Y01587939D01*
X00803806Y01588442D02*
X00803888Y01588178D01*
X00803777Y01588724D02*
X00803806Y01588442D01*
X00813480Y01585912D02*
X00814886D01*
Y01590130D01*
X00799078Y01594108D02*
X00799286Y01593936D01*
X00799458Y01593728D01*
X00799588Y01593489D01*
X00799671Y01593225D01*
X00799699Y01592943D01*
X00801049Y01593498D02*
X00801106Y01592943D01*
X00800888Y01594017D02*
X00801049Y01593498D01*
X00800631Y01594489D02*
X00800888Y01594017D01*
X00800290Y01594903D02*
X00800631Y01594489D01*
X00799875Y01595247D02*
X00800290Y01594903D01*
X00799397Y01595511D02*
X00799875Y01595247D01*
X00812157Y01593508D02*
X00812214Y01592943D01*
X00811992Y01594035D02*
X00812157Y01593508D01*
X00811732Y01594512D02*
X00811992Y01594035D01*
X00811388Y01594929D02*
X00811732Y01594512D01*
X00810972Y01595273D02*
X00811388Y01594929D01*
X00810494Y01595533D02*
X00810972Y01595273D01*
X00809967Y01595698D02*
X00810494Y01595533D01*
X00809402Y01595755D02*
X00809967Y01595698D01*
X00805184Y01595755D02*
X00809402D01*
X00804635Y01595697D02*
X00805184Y01595755D01*
X00804115Y01595531D02*
X00804635Y01595697D01*
X00803639Y01595269D02*
X00804115Y01595531D01*
X00803218Y01594924D02*
X00803639Y01595269D01*
X00802868Y01594506D02*
X00803218Y01594924D01*
X00802601Y01594029D02*
X00802868Y01594506D01*
X00802431Y01593504D02*
X00802601Y01594029D01*
X00802371Y01592943D02*
X00802431Y01593504D01*
X00803777Y01592943D02*
X00803806Y01593225D01*
X00803888Y01593489D01*
X00804018Y01593728D01*
X00804190Y01593936D01*
X00804399Y01594108D01*
X00804638Y01594238D01*
X00804901Y01594320D01*
X00805184Y01594349D01*
X00809402D01*
X00809685Y01594320D01*
X00809948Y01594238D01*
X00810187Y01594108D01*
X00810395Y01593936D01*
X00810567Y01593728D01*
X00810697Y01593489D01*
X00810779Y01593225D01*
X00810808Y01592943D01*
X00813480Y01595755D02*
X00814886D01*
X00780153Y01588724D02*
X00780211Y01588159D01*
X00780376Y01587632D01*
X00780635Y01587155D01*
X00780979Y01586738D01*
X00781396Y01586394D01*
X00781874Y01586134D01*
X00782401Y01585970D01*
X00782966Y01585912D01*
X00787184D01*
X00787753Y01585969D01*
X00788282Y01586132D01*
X00788760Y01586390D01*
X00789176Y01586733D01*
X00789518Y01587148D01*
X00789777Y01587626D01*
X00789940Y01588155D01*
X00789997Y01588724D01*
X00788562Y01588442D02*
X00788590Y01588724D01*
X00788479Y01588178D02*
X00788562Y01588442D01*
X00788349Y01587939D02*
X00788479Y01588178D01*
X00788177Y01587731D02*
X00788349Y01587939D01*
X00787969Y01587559D02*
X00788177Y01587731D01*
X00787730Y01587429D02*
X00787969Y01587559D01*
X00787467Y01587347D02*
X00787730Y01587429D01*
X00787184Y01587318D02*
X00787467Y01587347D01*
X00782966Y01587318D02*
X00787184D01*
X00782683Y01587347D02*
X00782966Y01587318D01*
X00782420Y01587429D02*
X00782683Y01587347D01*
X00782181Y01587559D02*
X00782420Y01587429D01*
X00781973Y01587731D02*
X00782181Y01587559D01*
X00781801Y01587939D02*
X00781973Y01587731D01*
X00781671Y01588178D02*
X00781801Y01587939D01*
X00781588Y01588442D02*
X00781671Y01588178D01*
X00781560Y01588724D02*
X00781588Y01588442D01*
X00791262Y01585912D02*
X00792668D01*
X00789939Y01593508D02*
X00789997Y01592943D01*
X00789775Y01594035D02*
X00789939Y01593508D01*
X00789515Y01594512D02*
X00789775Y01594035D01*
X00789171Y01594929D02*
X00789515Y01594512D01*
X00788754Y01595273D02*
X00789171Y01594929D01*
X00788276Y01595533D02*
X00788754Y01595273D01*
X00787749Y01595698D02*
X00788276Y01595533D01*
X00787184Y01595755D02*
X00787749Y01595698D01*
X00782966Y01595755D02*
X00787184D01*
X00782417Y01595697D02*
X00782966Y01595755D01*
X00781898Y01595531D02*
X00782417Y01595697D01*
X00781421Y01595269D02*
X00781898Y01595531D01*
X00781001Y01594924D02*
X00781421Y01595269D01*
X00780650Y01594506D02*
X00781001Y01594924D01*
X00780383Y01594029D02*
X00780650Y01594506D01*
X00780213Y01593504D02*
X00780383Y01594029D01*
X00780153Y01592943D02*
X00780213Y01593504D01*
X00781560Y01592943D02*
X00781588Y01593225D01*
X00781671Y01593489D01*
X00781801Y01593728D01*
X00781973Y01593936D01*
X00782181Y01594108D01*
X00782420Y01594238D01*
X00782683Y01594320D01*
X00782966Y01594349D01*
X00787184D01*
X00787467Y01594320D01*
X00787730Y01594238D01*
X00787969Y01594108D01*
X00788177Y01593936D01*
X00788349Y01593728D01*
X00788479Y01593489D01*
X00788562Y01593225D01*
X00788590Y01592943D01*
X00791262Y01595755D02*
X00798293D01*
X00792668Y01594349D02*
X00798293D01*
X00798576Y01594320D01*
X00798839Y01594238D01*
X00785793Y01610299D02*
X00797958D01*
X00759904Y01585912D02*
X00761311D01*
X00768342D02*
X00769748D01*
X00768342Y01595755D02*
X00769748D01*
X00759904D02*
X00761311D01*
X00770451Y01594349D02*
X00777482D01*
X00770451D02*
Y01595755D01*
X00748655Y01585912D02*
X00750061D01*
X00748655Y01595755D02*
X00750061D01*
X00750764Y01598567D02*
X00752170D01*
X00750764D02*
X00750820Y01598019D01*
X00750982Y01597499D01*
X00751239Y01597023D01*
X00751580Y01596602D01*
X00751995Y01596252D01*
X00752473Y01595985D01*
X00753003Y01595815D01*
X00753577Y01595755D01*
X00754136Y01595811D01*
X00754657Y01595971D01*
X00755129Y01596226D01*
X00755542Y01596565D01*
X00755885Y01596979D01*
X00756147Y01597458D01*
X00756319Y01597990D01*
X00756389Y01598567D01*
X00754983D02*
X00756389D01*
X00754954Y01598285D02*
X00754983Y01598567D01*
X00754872Y01598021D02*
X00754954Y01598285D01*
X00754742Y01597783D02*
X00754872Y01598021D01*
X00754570Y01597574D02*
X00754742Y01597783D01*
X00754361Y01597402D02*
X00754570Y01597574D01*
X00754122Y01597272D02*
X00754361Y01597402D01*
X00753859Y01597190D02*
X00754122Y01597272D01*
X00753577Y01597161D02*
X00753859Y01597190D01*
X00753294D02*
X00753577Y01597161D01*
X00753030Y01597272D02*
X00753294Y01597190D01*
X00752792Y01597402D02*
X00753030Y01597272D01*
X00752583Y01597574D02*
X00752792Y01597402D01*
X00752411Y01597783D02*
X00752583Y01597574D01*
X00752281Y01598021D02*
X00752411Y01597783D01*
X00752199Y01598285D02*
X00752281Y01598021D01*
X00752170Y01598567D02*
X00752199Y01598285D01*
X01130152Y01591537D02*
Y01594349D01*
X01131558Y01585912D02*
Y01595755D01*
X01133808Y01587318D02*
Y01595755D01*
X01143651Y01585912D02*
Y01595755D01*
X01142245Y01587318D02*
Y01595755D01*
X01135214Y01587318D02*
Y01595755D01*
X01104418Y01585912D02*
Y01594349D01*
X01105825Y01585912D02*
Y01594349D01*
X01119184Y01591537D02*
Y01595755D01*
X01112152Y01591537D02*
Y01595755D01*
X01110747Y01585912D02*
Y01595755D01*
X01120590Y01585912D02*
Y01595755D01*
X01089654Y01591537D02*
Y01592943D01*
X01099497Y01585912D02*
Y01595755D01*
X01091060Y01591537D02*
Y01592943D01*
X01098091Y01590130D02*
Y01594349D01*
X01063499Y01585912D02*
Y01594349D01*
X01070530Y01585912D02*
Y01594349D01*
X01071936Y01585912D02*
Y01595755D01*
X01073201Y01588724D02*
Y01592943D01*
X01083045Y01588724D02*
Y01592943D01*
X01074608Y01588724D02*
Y01592943D01*
X01081638Y01588724D02*
Y01592943D01*
X01050843Y01585912D02*
Y01595755D01*
X01049437Y01587951D02*
Y01595755D01*
X01055765Y01585912D02*
Y01594349D01*
X01057171Y01585912D02*
Y01594349D01*
X01062093Y01585912D02*
Y01595755D01*
X01046561Y01610243D02*
Y01622463D01*
X01027079Y01591537D02*
Y01594349D01*
X01028485Y01585912D02*
Y01595755D01*
X01031297Y01590848D02*
Y01595755D01*
X01029891Y01585912D02*
Y01595755D01*
X01039675Y01591677D02*
X01039734Y01592254D01*
X01038299Y01591971D02*
X01038328Y01592254D01*
X01041000Y01585912D02*
Y01595755D01*
X01042406Y01585912D02*
Y01593857D01*
X01028066Y01673564D02*
X01028314Y01671121D01*
Y01634627D02*
Y01671121D01*
X01028066Y01632184D02*
X01028314Y01634627D01*
X01025648Y01612201D02*
X01029781Y01614436D01*
X01039987Y01629705D02*
X01040479Y01634627D01*
Y01671121D01*
X01039982Y01676008D02*
X01040479Y01671121D01*
X01006689Y01585912D02*
Y01595755D01*
X01005283Y01591537D02*
Y01595755D01*
X01016251Y01588724D02*
Y01592943D01*
X01017657Y01588724D02*
Y01592943D01*
X00996143Y01585912D02*
Y01595755D01*
X00994737Y01587951D02*
Y01595755D01*
X00987706D02*
X00994737Y01587951D01*
X00986300Y01585912D02*
Y01595755D01*
X00987706Y01585912D02*
Y01593857D01*
X00994737Y01585912D01*
X00996846Y01595755D02*
X01001768Y01590833D01*
X00968582Y01585912D02*
Y01595755D01*
X00967176Y01587951D02*
Y01595755D01*
X00975332Y01593646D02*
X00979086Y01590819D01*
X00976738Y01594349D02*
X00980253Y01591705D01*
X00967492Y01634627D02*
Y01671121D01*
X00967740Y01673564D01*
X00967492Y01634627D02*
X00967740Y01632184D01*
X00966078Y01614468D02*
X00970210Y01612218D01*
X00970415Y01693513D02*
X00974909Y01694948D01*
X00941864Y01585912D02*
Y01595755D01*
X00943270Y01585912D02*
Y01594349D01*
X00950301Y01585912D02*
Y01592943D01*
X00951708Y01585912D02*
Y01592943D01*
X00958739Y01585912D02*
Y01595755D01*
X00960145Y01585912D02*
Y01593857D01*
X00955328Y01634627D02*
Y01671121D01*
Y01634627D02*
X00955824Y01629740D01*
X00955328Y01671121D02*
X00955844Y01675973D01*
X00921294Y01592158D02*
X00921466Y01591950D01*
X00930615Y01585912D02*
Y01592943D01*
X00940458Y01585912D02*
Y01592943D01*
X00939052Y01590130D02*
Y01592943D01*
X00932021Y01590130D02*
Y01592943D01*
X00926443Y01673564D02*
X00926692Y01671121D01*
Y01610299D02*
Y01671121D01*
X00938856Y01610299D02*
Y01671121D01*
X00938370Y01675923D02*
X00938856Y01671121D01*
X00907413Y01585912D02*
Y01595755D01*
X00906007Y01590130D02*
Y01594349D01*
X00916975Y01591537D02*
Y01594349D01*
X00918381Y01585912D02*
Y01595755D01*
X00919707Y01592336D02*
X00919782Y01592053D01*
X00919887Y01591783D01*
X00885195Y01585912D02*
Y01595755D01*
X00895039Y01591537D02*
Y01595755D01*
X00888008Y01591537D02*
Y01595755D01*
X00886601Y01585912D02*
Y01595755D01*
X00896445Y01585912D02*
Y01595755D01*
X00897570Y01591537D02*
Y01592943D01*
X00898976Y01591537D02*
Y01592943D01*
X00861572Y01593646D02*
X00865326Y01590819D01*
X00867660D02*
X00871415Y01593646D01*
X00866493Y01591705D02*
X00870008Y01594349D01*
X00862978D02*
X00866493Y01591705D01*
X00873946Y01585912D02*
Y01595755D01*
X00872540Y01585912D02*
Y01595755D01*
X00877096Y01592020D02*
X00877613Y01592183D01*
X00876624Y01591761D02*
X00877096Y01592020D01*
X00865869Y01610299D02*
Y01683285D01*
X00843572Y01591537D02*
Y01594349D01*
X00844979Y01585912D02*
Y01595755D01*
X00849900Y01585912D02*
Y01594349D01*
X00851306Y01585912D02*
Y01594349D01*
X00821917Y01591537D02*
Y01595755D01*
X00823323Y01585912D02*
Y01595755D01*
X00824448Y01593646D02*
X00828203Y01590819D01*
X00830537D02*
X00834292Y01593646D01*
X00829370Y01591705D02*
X00832885Y01594349D01*
X00825854D02*
X00829370Y01591705D01*
X00799699Y01585912D02*
Y01592943D01*
X00801106Y01585912D02*
Y01592943D01*
X00802371Y01588724D02*
Y01592943D01*
X00812214Y01588724D02*
Y01592943D01*
X00803777Y01588724D02*
Y01592943D01*
X00810808Y01588724D02*
Y01592943D01*
X00814886Y01591537D02*
Y01595755D01*
X00813480Y01585912D02*
Y01595755D01*
X00778888Y01585912D02*
Y01595755D01*
X00780153Y01588724D02*
Y01592943D01*
X00789997Y01588724D02*
Y01592943D01*
X00781560Y01588724D02*
Y01592943D01*
X00788590Y01588724D02*
Y01592943D01*
X00791262Y01585912D02*
Y01595755D01*
X00792668Y01585912D02*
Y01594349D01*
X00785793Y01610299D02*
Y01683285D01*
X00797958Y01610299D02*
Y01683285D01*
X00758498Y01585912D02*
Y01595755D01*
X00769748Y01585912D02*
Y01595755D01*
X00768342Y01587951D02*
Y01595755D01*
X00761311D02*
X00768342Y01587951D01*
X00759904Y01585912D02*
Y01595755D01*
X00761311Y01585912D02*
Y01593857D01*
X00768342Y01585912D01*
X00777482D02*
Y01594349D01*
X00757092Y01587951D02*
Y01595755D01*
X00750061D02*
X00757092Y01587951D01*
X00748655Y01585912D02*
Y01595755D01*
X00750061Y01585912D02*
Y01593857D01*
X00757092Y01585912D01*
X01143877Y01610299D02*
Y01695450D01*
X01131712Y01622463D02*
Y01695450D01*
X01070890Y01622463D02*
Y01695450D01*
X01058726Y01622463D02*
Y01695450D01*
X00853705Y01610299D02*
Y01695450D01*
X00834451Y01683285D02*
Y01695450D01*
X00749300Y01683285D02*
Y01695450D01*
X01123121Y01591537D02*
X01130152D01*
X01123121Y01590130D02*
X01130152D01*
X01121715Y01587318D02*
X01130152D01*
X01121715Y01585912D02*
X01131558D01*
X01100200Y01594349D02*
X01104418D01*
X01100200Y01595755D02*
X01110043D01*
X01121715D02*
X01131558D01*
X01121715Y01594349D02*
X01130152D01*
X00998829Y01585912D02*
X01003047Y01590130D01*
X01020048Y01591537D02*
X01027079D01*
X01020048Y01590130D02*
X01027079D01*
X01018642Y01587318D02*
X01027079D01*
X01018642Y01585912D02*
X01028485D01*
X01062093D02*
X01063499D01*
X01018642Y01595755D02*
X01028485D01*
X01018642Y01594349D02*
X01027079D01*
X01062093Y01595755D02*
X01071936D01*
X01021072Y01610790D02*
X01025648Y01612201D01*
X01020873Y01623423D02*
X01022939Y01624548D01*
X01020873Y01682325D02*
X01022939Y01681201D01*
X01058726Y01695450D02*
X01070890D01*
X00920462Y01586759D02*
X00920877Y01586409D01*
X00921355Y01586142D01*
X00980253Y01589934D02*
X00983768Y01587290D01*
X00981420Y01590819D02*
X00985175Y01587993D01*
X00920499Y01594935D02*
X00920920Y01595277D01*
X00959497Y01621049D02*
X00962474Y01617445D01*
X00919250Y01682325D02*
X00921316Y01681201D01*
X00959626Y01684646D02*
X00962657Y01688258D01*
X00836541Y01591537D02*
X00843572D01*
X00836541Y01590130D02*
X00843572D01*
X00835135Y01587318D02*
X00843572D01*
X00835135Y01585912D02*
X00844979D01*
X00878164D02*
X00885195D01*
X00878164Y01590833D02*
X00883789D01*
X00878164Y01587318D02*
X00883789D01*
X00900382Y01588724D02*
X00906007D01*
X00900382Y01590130D02*
X00906007D01*
X00835135Y01595755D02*
X00844979D01*
X00835135Y01594349D02*
X00843572D01*
X00878164Y01592240D02*
X00883789D01*
X00900382Y01595755D02*
X00907413D01*
X00900382Y01594349D02*
X00906007D01*
X00853705Y01610299D02*
X00865869D01*
X00757092Y01585912D02*
X00758498D01*
X00777482D02*
X00778888D01*
X00814886Y01591537D02*
X00821917D01*
X00814886Y01590130D02*
X00821917D01*
X00757092Y01595755D02*
X00758498D01*
X00770451D02*
X00778888D01*
X00798839Y01594238D02*
X00799078Y01594108D01*
X00798866Y01595684D02*
X00799397Y01595511D01*
X00798293Y01595755D02*
X00798866Y01595684D01*
X00749300Y01683285D02*
X00785793D01*
X00998829Y01595755D02*
X01003047Y01591537D01*
X01042406Y01595755D02*
X01049437Y01587951D01*
X01042406Y01593857D02*
X01049437Y01585912D01*
X01021037Y01694953D02*
X01025596Y01693530D01*
X00960145Y01595755D02*
X00967176Y01587951D01*
X00960145Y01593857D02*
X00967176Y01585912D01*
X00981420Y01590819D02*
X00985175Y01593646D01*
X00980253Y01591705D02*
X00983768Y01594349D01*
X00919484Y01694839D02*
X00924076Y01693342D01*
X00979656Y01610299D02*
X01016150D01*
X01046561Y01610243D02*
X01143877Y01610299D01*
X00979656Y01622463D02*
X01016150D01*
X01070890D02*
X01131712D01*
X00979656Y01683285D02*
X01016150D01*
X00979656Y01695450D02*
X01016150D01*
X00797958Y01683285D02*
X00834451D01*
X00749300Y01695450D02*
X00834451D01*
X00865869Y01683285D02*
X00914527D01*
X00853705Y01695450D02*
X00914527D01*
D129*
X02005600Y01720950D02*
X02007600D01*
X02005600Y01733450D02*
X02007600D01*
X02029730Y01479650D02*
X02031730D01*
X02029730Y01492150D02*
X02031730D01*
X02031000Y01244700D02*
X02033000D01*
X02031000Y01257200D02*
X02033000D01*
X02031000Y01111350D02*
X02033000D01*
X02031000Y01123850D02*
X02033000D01*
X01307100Y01147980D02*
X01309100D01*
X01307100Y01135480D02*
X01309100D01*
X01346100Y01180100D02*
Y01182100D01*
X01333600Y01180100D02*
Y01182100D01*
X01389650Y01187350D02*
X01391650D01*
X01389650Y01174850D02*
X01391650D01*
X01440450Y01187350D02*
X01442450D01*
X01440450Y01174850D02*
X01442450D01*
X01505050Y01155970D02*
Y01157970D01*
X01517550Y01155970D02*
Y01157970D01*
X01464150Y01154650D02*
Y01160650D01*
X01475650Y01154650D02*
Y01160650D01*
X01511200Y01206770D02*
Y01208770D01*
X01498700Y01206770D02*
Y01208770D01*
Y01249950D02*
Y01251950D01*
X01511200Y01249950D02*
Y01251950D01*
X01528080Y01288950D02*
X01530080D01*
X01528080Y01276450D02*
X01530080D01*
X01511200Y01313450D02*
Y01315450D01*
X01498700Y01313450D02*
Y01315450D01*
X01346100Y01294400D02*
Y01296400D01*
X01333600Y01294400D02*
Y01296400D01*
X00951500Y01117700D02*
X00953500D01*
X00951500Y01130200D02*
X00953500D01*
X01370230Y01375680D02*
Y01377680D01*
X01357730Y01375680D02*
Y01377680D01*
X01396000Y01339950D02*
X01398000D01*
X01396000Y01352450D02*
X01398000D01*
X01440450Y01339950D02*
X01442450D01*
X01440450Y01352450D02*
X01442450D01*
X01492520Y01339950D02*
X01494520D01*
X01492520Y01352450D02*
X01494520D01*
X01560160Y01308910D02*
Y01314910D01*
X01571660Y01308910D02*
Y01314910D01*
X01484150Y01154650D02*
Y01160650D01*
X01495650Y01154650D02*
Y01160650D01*
X01892400Y00557800D02*
Y00559800D01*
X01904900Y00557800D02*
Y00559800D01*
X01333600Y01243600D02*
Y01245600D01*
X01346100Y01243600D02*
Y01245600D01*
D130*
X02022001Y01749541D02*
X02023167Y01750708D01*
X02025500D01*
X02026666Y01749541D01*
Y01744876D01*
X02025500Y01743710D01*
X02023167D01*
X02022001Y01744876D01*
X02015003Y01750708D02*
X02017336Y01749541D01*
X02019668Y01747209D01*
Y01744876D01*
X02018502Y01743710D01*
X02016169D01*
X02015003Y01744876D01*
Y01746043D01*
X02016169Y01747209D01*
X02019668D01*
X02009172Y01743710D02*
Y01750708D01*
X02012670Y01747209D01*
X02008005D01*
X02046131Y01508241D02*
X02047297Y01509408D01*
X02049630D01*
X02050796Y01508241D01*
Y01503576D01*
X02049630Y01502410D01*
X02047297D01*
X02046131Y01503576D01*
X02039133Y01509408D02*
X02041466Y01508241D01*
X02043798Y01505909D01*
Y01503576D01*
X02042632Y01502410D01*
X02040299D01*
X02039133Y01503576D01*
Y01504743D01*
X02040299Y01505909D01*
X02043798D01*
X02032135Y01509408D02*
X02036801D01*
Y01505909D01*
X02034468Y01507075D01*
X02033302D01*
X02032135Y01505909D01*
Y01503576D01*
X02033302Y01502410D01*
X02035634D01*
X02036801Y01503576D01*
X02047401Y01273291D02*
X02048567Y01274458D01*
X02050900D01*
X02052066Y01273291D01*
Y01268626D01*
X02050900Y01267460D01*
X02048567D01*
X02047401Y01268626D01*
X02040403Y01274458D02*
X02042736Y01273291D01*
X02045068Y01270959D01*
Y01268626D01*
X02043902Y01267460D01*
X02041569D01*
X02040403Y01268626D01*
Y01269793D01*
X02041569Y01270959D01*
X02045068D01*
X02033405Y01274458D02*
X02035738Y01273291D01*
X02038071Y01270959D01*
Y01268626D01*
X02036904Y01267460D01*
X02034572D01*
X02033405Y01268626D01*
Y01269793D01*
X02034572Y01270959D01*
X02038071D01*
X02047401Y01139941D02*
X02048567Y01141108D01*
X02050900D01*
X02052066Y01139941D01*
Y01135276D01*
X02050900Y01134110D01*
X02048567D01*
X02047401Y01135276D01*
X02040403Y01141108D02*
X02042736Y01139941D01*
X02045068Y01137609D01*
Y01135276D01*
X02043902Y01134110D01*
X02041569D01*
X02040403Y01135276D01*
Y01136443D01*
X02041569Y01137609D01*
X02045068D01*
X02038071Y01141108D02*
X02033405D01*
Y01139941D01*
X02038071Y01135276D01*
Y01134110D01*
X01573530Y01338580D02*
Y01345578D01*
X01570031D01*
X01568865Y01344411D01*
Y01342079D01*
X01570031Y01340913D01*
X01573530D01*
X01571197D02*
X01568865Y01338580D01*
X01566532D02*
X01564200D01*
X01565366D01*
Y01345578D01*
X01566532Y01344411D01*
X01560701Y01339746D02*
X01559534Y01338580D01*
X01557202D01*
X01556036Y01339746D01*
Y01344411D01*
X01557202Y01345578D01*
X01559534D01*
X01560701Y01344411D01*
Y01343245D01*
X01559534Y01342079D01*
X01556036D01*
X01553703Y01345578D02*
X01549038D01*
Y01344411D01*
X01553703Y01339746D01*
Y01338580D01*
X01482090Y01184910D02*
X01489088D01*
Y01188409D01*
X01487921Y01189575D01*
X01485589D01*
X01484423Y01188409D01*
Y01184910D01*
Y01187243D02*
X01482090Y01189575D01*
Y01191908D02*
Y01194240D01*
Y01193074D01*
X01489088D01*
X01487921Y01191908D01*
X01483256Y01197739D02*
X01482090Y01198905D01*
Y01201238D01*
X01483256Y01202404D01*
X01487921D01*
X01489088Y01201238D01*
Y01198905D01*
X01487921Y01197739D01*
X01486755D01*
X01485589Y01198905D01*
Y01202404D01*
X01487921Y01204737D02*
X01489088Y01205903D01*
Y01208236D01*
X01487921Y01209402D01*
X01486755D01*
X01485589Y01208236D01*
X01484423Y01209402D01*
X01483256D01*
X01482090Y01208236D01*
Y01205903D01*
X01483256Y01204737D01*
X01484423D01*
X01485589Y01205903D01*
X01486755Y01204737D01*
X01487921D01*
X01485589Y01205903D02*
Y01208236D01*
X01477010Y01123950D02*
Y01130948D01*
X01473511D01*
X01472345Y01129781D01*
Y01127449D01*
X01473511Y01126283D01*
X01477010D01*
X01474677D02*
X01472345Y01123950D01*
X01470012D02*
X01467680D01*
X01468846D01*
Y01130948D01*
X01470012Y01129781D01*
X01464181Y01125116D02*
X01463015Y01123950D01*
X01460682D01*
X01459516Y01125116D01*
Y01129781D01*
X01460682Y01130948D01*
X01463015D01*
X01464181Y01129781D01*
Y01128615D01*
X01463015Y01127449D01*
X01459516D01*
X01457183Y01125116D02*
X01456017Y01123950D01*
X01453684D01*
X01452518Y01125116D01*
Y01129781D01*
X01453684Y01130948D01*
X01456017D01*
X01457183Y01129781D01*
Y01128615D01*
X01456017Y01127449D01*
X01452518D01*
X00924975Y01125972D02*
X00926141Y01127138D01*
X00928474D01*
X00929640Y01125972D01*
Y01121306D01*
X00928474Y01120140D01*
X00926141D01*
X00924975Y01121306D01*
X00917977Y01127138D02*
X00922642D01*
Y01123639D01*
X00920310Y01124805D01*
X00919143D01*
X00917977Y01123639D01*
Y01121306D01*
X00919143Y01120140D01*
X00921476D01*
X00922642Y01121306D01*
X00915645Y01120140D02*
X00913312D01*
X00914478D01*
Y01127138D01*
X00915645Y01125972D01*
X01323755Y01184391D02*
X01324921Y01185558D01*
X01327254D01*
X01328420Y01184391D01*
Y01179726D01*
X01327254Y01178560D01*
X01324921D01*
X01323755Y01179726D01*
X01316757Y01185558D02*
X01321422D01*
Y01182059D01*
X01319090Y01183225D01*
X01317923D01*
X01316757Y01182059D01*
Y01179726D01*
X01317923Y01178560D01*
X01320256D01*
X01321422Y01179726D01*
X01314424Y01184391D02*
X01313258Y01185558D01*
X01310926D01*
X01309759Y01184391D01*
Y01183225D01*
X01310926Y01182059D01*
X01309759Y01180893D01*
Y01179726D01*
X01310926Y01178560D01*
X01313258D01*
X01314424Y01179726D01*
Y01180893D01*
X01313258Y01182059D01*
X01314424Y01183225D01*
Y01184391D01*
X01313258Y01182059D02*
X01310926D01*
X01394875Y01167881D02*
X01396041Y01169048D01*
X01398374D01*
X01399540Y01167881D01*
Y01163216D01*
X01398374Y01162050D01*
X01396041D01*
X01394875Y01163216D01*
X01387877Y01169048D02*
X01390210Y01167881D01*
X01392542Y01165549D01*
Y01163216D01*
X01391376Y01162050D01*
X01389043D01*
X01387877Y01163216D01*
Y01164383D01*
X01389043Y01165549D01*
X01392542D01*
X01385544Y01162050D02*
X01383212D01*
X01384378D01*
Y01169048D01*
X01385544Y01167881D01*
X01444405D02*
X01445571Y01169048D01*
X01447904D01*
X01449070Y01167881D01*
Y01163216D01*
X01447904Y01162050D01*
X01445571D01*
X01444405Y01163216D01*
X01437407Y01169048D02*
X01439740Y01167881D01*
X01442072Y01165549D01*
Y01163216D01*
X01440906Y01162050D01*
X01438573D01*
X01437407Y01163216D01*
Y01164383D01*
X01438573Y01165549D01*
X01442072D01*
X01435074Y01167881D02*
X01433908Y01169048D01*
X01431576D01*
X01430409Y01167881D01*
Y01163216D01*
X01431576Y01162050D01*
X01433908D01*
X01435074Y01163216D01*
Y01167881D01*
X01535845Y01139941D02*
X01537011Y01141108D01*
X01539344D01*
X01540510Y01139941D01*
Y01135276D01*
X01539344Y01134110D01*
X01537011D01*
X01535845Y01135276D01*
X01528847Y01141108D02*
X01533512D01*
Y01137609D01*
X01531180Y01138775D01*
X01530013D01*
X01528847Y01137609D01*
Y01135276D01*
X01530013Y01134110D01*
X01532346D01*
X01533512Y01135276D01*
X01526514D02*
X01525348Y01134110D01*
X01523016D01*
X01521849Y01135276D01*
Y01139941D01*
X01523016Y01141108D01*
X01525348D01*
X01526514Y01139941D01*
Y01138775D01*
X01525348Y01137609D01*
X01521849D01*
X01530765Y01209791D02*
X01531931Y01210958D01*
X01534264D01*
X01535430Y01209791D01*
Y01205126D01*
X01534264Y01203960D01*
X01531931D01*
X01530765Y01205126D01*
X01523767Y01210958D02*
X01528432D01*
Y01207459D01*
X01526100Y01208625D01*
X01524933D01*
X01523767Y01207459D01*
Y01205126D01*
X01524933Y01203960D01*
X01527266D01*
X01528432Y01205126D01*
X01521434Y01210958D02*
X01516769D01*
Y01209791D01*
X01521434Y01205126D01*
Y01203960D01*
X01567595Y01280912D02*
X01568761Y01282078D01*
X01571094D01*
X01572260Y01280912D01*
Y01276246D01*
X01571094Y01275080D01*
X01568761D01*
X01567595Y01276246D01*
X01560597Y01282078D02*
X01565262D01*
Y01278579D01*
X01562930Y01279745D01*
X01561763D01*
X01560597Y01278579D01*
Y01276246D01*
X01561763Y01275080D01*
X01564096D01*
X01565262Y01276246D01*
X01554766Y01275080D02*
Y01282078D01*
X01558264Y01278579D01*
X01553599D01*
X01530765Y01251982D02*
X01531931Y01253148D01*
X01534264D01*
X01535430Y01251982D01*
Y01247316D01*
X01534264Y01246150D01*
X01531931D01*
X01530765Y01247316D01*
X01523767Y01253148D02*
X01528432D01*
Y01249649D01*
X01526100Y01250815D01*
X01524933D01*
X01523767Y01249649D01*
Y01247316D01*
X01524933Y01246150D01*
X01527266D01*
X01528432Y01247316D01*
X01516769Y01253148D02*
X01521434D01*
Y01249649D01*
X01519102Y01250815D01*
X01517936D01*
X01516769Y01249649D01*
Y01247316D01*
X01517936Y01246150D01*
X01520268D01*
X01521434Y01247316D01*
X01530765Y01317742D02*
X01531931Y01318908D01*
X01534264D01*
X01535430Y01317742D01*
Y01313076D01*
X01534264Y01311910D01*
X01531931D01*
X01530765Y01313076D01*
X01523767Y01318908D02*
X01528432D01*
Y01315409D01*
X01526100Y01316575D01*
X01524933D01*
X01523767Y01315409D01*
Y01313076D01*
X01524933Y01311910D01*
X01527266D01*
X01528432Y01313076D01*
X01516769Y01311910D02*
X01521434D01*
X01516769Y01316575D01*
Y01317742D01*
X01517936Y01318908D01*
X01520268D01*
X01521434Y01317742D01*
X01499015Y01364731D02*
X01500181Y01365898D01*
X01502514D01*
X01503680Y01364731D01*
Y01360066D01*
X01502514Y01358900D01*
X01500181D01*
X01499015Y01360066D01*
X01493183Y01358900D02*
Y01365898D01*
X01496682Y01362399D01*
X01492017D01*
X01489684Y01364731D02*
X01488518Y01365898D01*
X01486186D01*
X01485019Y01364731D01*
Y01363565D01*
X01486186Y01362399D01*
X01485019Y01361233D01*
Y01360066D01*
X01486186Y01358900D01*
X01488518D01*
X01489684Y01360066D01*
Y01361233D01*
X01488518Y01362399D01*
X01489684Y01363565D01*
Y01364731D01*
X01488518Y01362399D02*
X01486186D01*
X01445675Y01364731D02*
X01446841Y01365898D01*
X01449174D01*
X01450340Y01364731D01*
Y01360066D01*
X01449174Y01358900D01*
X01446841D01*
X01445675Y01360066D01*
X01439843Y01358900D02*
Y01365898D01*
X01443342Y01362399D01*
X01438677D01*
X01436344Y01360066D02*
X01435178Y01358900D01*
X01432846D01*
X01431679Y01360066D01*
Y01364731D01*
X01432846Y01365898D01*
X01435178D01*
X01436344Y01364731D01*
Y01363565D01*
X01435178Y01362399D01*
X01431679D01*
X01401225Y01366001D02*
X01402391Y01367168D01*
X01404724D01*
X01405890Y01366001D01*
Y01361336D01*
X01404724Y01360170D01*
X01402391D01*
X01401225Y01361336D01*
X01394227Y01367168D02*
X01398892D01*
Y01363669D01*
X01396560Y01364835D01*
X01395393D01*
X01394227Y01363669D01*
Y01361336D01*
X01395393Y01360170D01*
X01397726D01*
X01398892Y01361336D01*
X01391895Y01366001D02*
X01390728Y01367168D01*
X01388396D01*
X01387229Y01366001D01*
Y01361336D01*
X01388396Y01360170D01*
X01390728D01*
X01391895Y01361336D01*
Y01366001D01*
X01312325Y01128512D02*
X01313491Y01129678D01*
X01315824D01*
X01316990Y01128512D01*
Y01123846D01*
X01315824Y01122680D01*
X01313491D01*
X01312325Y01123846D01*
X01305327Y01129678D02*
X01307660Y01128512D01*
X01309992Y01126179D01*
Y01123846D01*
X01308826Y01122680D01*
X01306493D01*
X01305327Y01123846D01*
Y01125013D01*
X01306493Y01126179D01*
X01309992D01*
X01298329Y01122680D02*
X01302995D01*
X01298329Y01127345D01*
Y01128512D01*
X01299496Y01129678D01*
X01301828D01*
X01302995Y01128512D01*
X01366935Y01405372D02*
X01368101Y01406538D01*
X01370434D01*
X01371600Y01405372D01*
Y01400706D01*
X01370434Y01399540D01*
X01368101D01*
X01366935Y01400706D01*
X01361103Y01399540D02*
Y01406538D01*
X01364602Y01403039D01*
X01359937D01*
X01357605Y01406538D02*
X01352939D01*
Y01405372D01*
X01357605Y01400706D01*
Y01399540D01*
X01321319Y01302165D02*
X01320152Y01303331D01*
Y01305664D01*
X01321319Y01306830D01*
X01325984D01*
X01327150Y01305664D01*
Y01303331D01*
X01325984Y01302165D01*
X01320152Y01295167D02*
Y01299832D01*
X01323651D01*
X01322485Y01297500D01*
Y01296333D01*
X01323651Y01295167D01*
X01325984D01*
X01327150Y01296333D01*
Y01298666D01*
X01325984Y01299832D01*
X01321319Y01292834D02*
X01320152Y01291668D01*
Y01289336D01*
X01321319Y01288169D01*
X01322485D01*
X01323651Y01289336D01*
Y01290502D01*
Y01289336D01*
X01324817Y01288169D01*
X01325984D01*
X01327150Y01289336D01*
Y01291668D01*
X01325984Y01292834D01*
X00590550Y00902348D02*
Y00895350D01*
X00587051D01*
X00585885Y00896516D01*
Y00901181D01*
X00587051Y00902348D01*
X00590550D01*
X00578887Y00895350D02*
X00583552D01*
X00578887Y00900015D01*
Y00901181D01*
X00580053Y00902348D01*
X00582386D01*
X00583552Y00901181D01*
X00573056Y00895350D02*
Y00902348D01*
X00576554Y00898849D01*
X00571889D01*
X00566420Y00911238D02*
Y00904240D01*
X00562921D01*
X00561755Y00905406D01*
Y00910071D01*
X00562921Y00911238D01*
X00566420D01*
X00554757Y00904240D02*
X00559422D01*
X00554757Y00908905D01*
Y00910071D01*
X00555923Y00911238D01*
X00558256D01*
X00559422Y00910071D01*
X00552425D02*
X00551258Y00911238D01*
X00548926D01*
X00547759Y00910071D01*
Y00908905D01*
X00548926Y00907739D01*
X00550092D01*
X00548926D01*
X00547759Y00906573D01*
Y00905406D01*
X00548926Y00904240D01*
X00551258D01*
X00552425Y00905406D01*
X00566420Y00847738D02*
Y00840740D01*
X00562921D01*
X00561755Y00841906D01*
Y00846572D01*
X00562921Y00847738D01*
X00566420D01*
X00554757Y00840740D02*
X00559422D01*
X00554757Y00845405D01*
Y00846572D01*
X00555923Y00847738D01*
X00558256D01*
X00559422Y00846572D01*
X00547759Y00847738D02*
X00552425D01*
Y00844239D01*
X00550092Y00845405D01*
X00548926D01*
X00547759Y00844239D01*
Y00841906D01*
X00548926Y00840740D01*
X00551258D01*
X00552425Y00841906D01*
X01321319Y01250095D02*
X01320152Y01251261D01*
Y01253594D01*
X01321319Y01254760D01*
X01325984D01*
X01327150Y01253594D01*
Y01251261D01*
X01325984Y01250095D01*
X01320152Y01243097D02*
Y01247762D01*
X01323651D01*
X01322485Y01245430D01*
Y01244263D01*
X01323651Y01243097D01*
X01325984D01*
X01327150Y01244263D01*
Y01246596D01*
X01325984Y01247762D01*
X01320152Y01236099D02*
X01321319Y01238432D01*
X01323651Y01240764D01*
X01325984D01*
X01327150Y01239598D01*
Y01237266D01*
X01325984Y01236099D01*
X01324817D01*
X01323651Y01237266D01*
Y01240764D01*
X01902875Y00592318D02*
X01904041Y00593484D01*
X01906374D01*
X01907540Y00592318D01*
Y00587652D01*
X01906374Y00586486D01*
X01904041D01*
X01902875Y00587652D01*
X01895877Y00593484D02*
X01898210Y00592318D01*
X01900542Y00589985D01*
Y00587652D01*
X01899376Y00586486D01*
X01897043D01*
X01895877Y00587652D01*
Y00588819D01*
X01897043Y00589985D01*
X01900542D01*
X01893544Y00592318D02*
X01892378Y00593484D01*
X01890046D01*
X01888879Y00592318D01*
Y00591151D01*
X01890046Y00589985D01*
X01891212D01*
X01890046D01*
X01888879Y00588819D01*
Y00587652D01*
X01890046Y00586486D01*
X01892378D01*
X01893544Y00587652D01*
D212*
X01350860Y01608469D02*
X01352155Y01612223D01*
X01348945Y01606086D02*
X01350860Y01608469D01*
X01352155Y01665068D02*
X01353344Y01659097D01*
X01350860Y01668821D02*
X01352155Y01665068D01*
X01348945Y01671205D02*
X01350860Y01668821D01*
X01338716Y01587440D02*
X01341737Y01590132D01*
X01335174Y01584750D02*
X01338716Y01587440D01*
X01331044Y01581685D02*
X01335174Y01584750D01*
X01332268Y01593600D02*
X01340630Y01598451D01*
X01344305Y01593201D02*
X01346486Y01597024D01*
X01341214Y01602043D02*
X01345900Y01604226D01*
X01334375Y01598691D02*
X01341214Y01602043D01*
X01332389Y01664940D02*
X01342987Y01661512D01*
X01332268Y01683690D02*
X01340630Y01678839D01*
X01344305Y01684090D02*
X01346486Y01680266D01*
X01341737Y01687159D02*
X01344305Y01684090D01*
X01338716Y01689850D02*
X01341737Y01687159D01*
X01335174Y01692540D02*
X01338716Y01689850D01*
X01334375Y01678600D02*
X01341214Y01675247D01*
X01314519Y01581303D02*
X01323488Y01587769D01*
X01320749Y01572921D02*
X01326257Y01577867D01*
X01310845Y01603530D02*
X01321643Y01608178D01*
X01312190Y01692200D02*
X01324870Y01683968D01*
X01320749Y01704370D02*
X01326257Y01699424D01*
X01313394Y01711507D02*
X01320749Y01704370D01*
X01287441Y01545911D02*
X01294267Y01549504D01*
X01288762Y01561526D02*
X01296928Y01567838D01*
X01300583Y01554038D02*
X01306815Y01559477D01*
X01301111Y01577371D02*
X01306656Y01581249D01*
X01295543Y01573491D02*
X01301111Y01577371D01*
X01289471Y01593880D02*
X01300090Y01598674D01*
X01289471Y01683410D02*
X01300090Y01678616D01*
X01296928Y01709453D02*
X01305590Y01702746D01*
X01301111Y01699919D02*
X01306656Y01696041D01*
X01295543Y01703799D02*
X01301111Y01699919D01*
X01289940Y01707645D02*
X01295543Y01703799D01*
X01300583Y01723252D02*
X01306815Y01717814D01*
X01294267Y01727786D02*
X01300583Y01723252D01*
X01287441Y01731379D02*
X01294267Y01727786D01*
X01270542Y01541696D02*
X01279676Y01543296D01*
X01278584Y01562200D02*
X01284291Y01565871D01*
X01272806Y01558671D02*
X01278584Y01562200D01*
X01266945Y01555319D02*
X01272806Y01558671D01*
X01269026Y01585551D02*
X01279085Y01589417D01*
X01269026Y01691739D02*
X01279085Y01687874D01*
X01272806Y01718619D02*
X01278584Y01715090D01*
X01266945Y01721972D02*
X01272806Y01718619D01*
X01252744Y01548094D02*
X01259445Y01551290D01*
X01246554Y01545856D02*
X01252744Y01548094D01*
X01251309Y01580105D02*
X01257369Y01581758D01*
X01263278Y01583594D01*
X01251309Y01697186D02*
X01257369Y01695533D01*
X01252744Y01729196D02*
X01259445Y01726000D01*
X01246554Y01731434D02*
X01252744Y01729196D01*
X01234567Y01544762D02*
X01240591Y01544704D01*
X01228198Y01546157D02*
X01234567Y01544762D01*
X01225762Y01576616D02*
X01232326Y01576892D01*
X01238778Y01577609D01*
X01245109Y01578701D01*
X01225762Y01700675D02*
X01232326Y01700398D01*
X01238778Y01699682D01*
X01245109Y01698590D01*
X01234567Y01732529D02*
X01240591Y01732587D01*
X01228198Y01731133D02*
X01234567Y01732529D01*
X01209999Y01555541D02*
X01213278Y01553466D01*
X01207094Y01557455D02*
X01209999Y01555541D01*
X01211058Y01577776D02*
X01219098Y01576843D01*
X01211058Y01699514D02*
X01219098Y01700448D01*
X01213278Y01723825D02*
X01221197Y01728274D01*
X01209999Y01721750D02*
X01213278Y01723825D01*
X01207094Y01719836D02*
X01209999Y01721750D01*
X01202055Y01561094D02*
X01204476Y01559281D01*
X01199746Y01562967D02*
X01202055Y01561094D01*
X01197458Y01564974D02*
X01199746Y01562967D01*
X01195106Y01567189D02*
X01197458Y01564974D01*
X01192601Y01569686D02*
X01195106Y01567189D01*
X01185325Y01587717D02*
X01189490Y01585366D01*
X01193862Y01583094D01*
X01198724Y01581004D01*
X01204361Y01579198D01*
X01188131Y01574324D02*
X01190440Y01571896D01*
X01185767Y01576949D02*
X01188131Y01574324D01*
X01185325Y01689574D02*
X01189490Y01691925D01*
X01193862Y01694196D02*
X01198724Y01696286D01*
X01204361Y01698093D01*
X01195106Y01710101D02*
X01197458Y01712316D01*
X01192601Y01707605D02*
X01195106Y01710101D01*
X01190440Y01705395D02*
X01192601Y01707605D01*
X01188131Y01702966D02*
X01190440Y01705395D01*
X01185767Y01700342D02*
X01188131Y01702966D01*
X01202055Y01716196D02*
X01204476Y01718009D01*
X01199746Y01714323D02*
X01202055Y01716196D01*
X01181261Y01582699D02*
X01183446Y01579748D01*
X01179308Y01585781D02*
X01181261Y01582699D01*
X01177682Y01588972D02*
X01179308Y01585781D01*
X01173095Y01604605D02*
X01178126Y01601460D01*
X01169582Y01608220D02*
X01173095Y01604605D01*
X01165870Y01618119D02*
X01167277Y01612620D01*
X01165053Y01625033D02*
X01165870Y01618119D01*
X01169582Y01669070D02*
X01173095Y01672685D01*
X01167277Y01664670D02*
X01169582Y01669070D01*
X01165870Y01659171D02*
X01167277Y01664670D01*
X01176479Y01685041D02*
X01181083Y01687245D01*
X01177682Y01688318D02*
X01179308Y01691510D01*
X01176479Y01685041D02*
X01177682Y01688318D01*
X01181261Y01694592D02*
X01183446Y01697543D01*
X01352155Y01612223D02*
X01353344Y01618193D01*
X01354413Y01622843D02*
X01355539Y01635688D01*
X01354413Y01654447D02*
X01355539Y01641602D01*
X01341737Y01590132D02*
X01344305Y01593201D01*
X01332389Y01612351D02*
X01342987Y01615779D01*
X01341214Y01675247D02*
X01345900Y01673065D01*
X01331044Y01695606D02*
X01335174Y01692540D01*
X01313394Y01565783D02*
X01320749Y01572921D01*
X01312190Y01585090D02*
X01324870Y01593322D01*
X01310845Y01673760D02*
X01321643Y01669112D01*
X01314519Y01695988D02*
X01323488Y01689521D01*
X01296928Y01567838D02*
X01305590Y01574544D01*
X01294267Y01549504D02*
X01300583Y01554038D01*
X01289940Y01569646D02*
X01295543Y01573491D01*
X01288762Y01715764D02*
X01296928Y01709453D01*
X01270542Y01735595D02*
X01279676Y01733994D01*
X01278584Y01715090D02*
X01284291Y01711420D01*
X01257369Y01695533D02*
X01263278Y01693696D01*
X01213278Y01553466D02*
X01221197Y01549017D01*
X01190440Y01571896D02*
X01192601Y01569686D01*
X01189490Y01691925D02*
X01193862Y01694196D01*
X01197458Y01712316D02*
X01199746Y01714323D01*
X01176479Y01592250D02*
X01181083Y01590045D01*
X01176479Y01592250D02*
X01177682Y01588972D01*
X01167277Y01612620D02*
X01169582Y01608220D01*
X01173095Y01672685D02*
X01178126Y01675830D01*
X01165053Y01652257D02*
X01165870Y01659171D01*
X01179308Y01691510D02*
X01181261Y01694592D01*
X01326257Y01577867D02*
X01331044Y01581685D01*
X01340630Y01598451D02*
X01348347Y01601978D01*
X01346486Y01597024D02*
X01348347Y01601978D01*
X01345900Y01604226D02*
X01348945Y01606086D01*
X01324870Y01593322D02*
X01334375Y01598691D01*
X01342987Y01615779D02*
X01353344Y01618193D01*
X01334137Y01617986D02*
X01354413Y01622843D01*
X01328444Y01634853D02*
X01355539Y01635688D01*
X01328444Y01642437D02*
X01355539Y01641602D01*
X01321643Y01669112D02*
X01332389Y01664940D01*
X01342987Y01661512D02*
X01353344Y01659097D01*
X01345900Y01673065D02*
X01348945Y01671205D01*
X01334137Y01659304D02*
X01354413Y01654447D01*
X01323488Y01689521D02*
X01332268Y01683690D01*
X01340630Y01678839D02*
X01348347Y01675312D01*
X01346486Y01680266D02*
X01348347Y01675312D01*
X01324870Y01683968D02*
X01334375Y01678600D01*
X01326257Y01699424D02*
X01331044Y01695606D01*
X01279676Y01543296D02*
X01287441Y01545911D01*
X01259611Y01541146D02*
X01270542Y01541696D01*
X01240591Y01544704D02*
X01246554Y01545856D01*
X01281320Y01555955D02*
X01288762Y01561526D01*
X01306815Y01559477D02*
X01313394Y01565783D01*
X01284291Y01565871D02*
X01289940Y01569646D01*
X01305590Y01574544D02*
X01314519Y01581303D01*
X01245109Y01578701D02*
X01251309Y01580105D01*
X01263278Y01583594D02*
X01269026Y01585551D01*
X01306656Y01581249D02*
X01312190Y01585090D01*
X01300090Y01598674D02*
X01310845Y01603530D01*
X01293996Y01604960D02*
X01314013Y01611723D01*
X01274043Y01598601D02*
X01293996Y01604960D01*
X01254109Y01593552D02*
X01274043Y01598601D01*
X01241033Y01631076D02*
X01262096Y01631665D01*
X01241033Y01646214D02*
X01262096Y01645625D01*
X01282900Y01644659D01*
X01304624Y01643527D01*
X01293996Y01672331D02*
X01314013Y01665567D01*
X01279085Y01687874D02*
X01289471Y01683410D01*
X01300090Y01678616D02*
X01310845Y01673760D01*
X01254109Y01683739D02*
X01274043Y01678690D01*
X01305590Y01702746D02*
X01314519Y01695988D01*
X01245109Y01698590D02*
X01251309Y01697186D01*
X01284291Y01711420D02*
X01289940Y01707645D01*
X01281320Y01721335D02*
X01288762Y01715764D01*
X01279676Y01733994D02*
X01287441Y01731379D01*
X01259445Y01726000D02*
X01266945Y01721972D01*
X01240591Y01732587D02*
X01246554Y01731434D01*
X01259611Y01736144D02*
X01270542Y01735595D01*
X01221197Y01549017D02*
X01228198Y01546157D01*
X01204476Y01559281D02*
X01207094Y01557455D01*
X01181083Y01590045D02*
X01185325Y01587717D01*
X01204361Y01579198D02*
X01211058Y01577776D01*
X01219098Y01576843D02*
X01225762Y01576616D01*
X01183446Y01579748D02*
X01185767Y01576949D01*
X01214122Y01591006D02*
X01234149Y01590719D01*
X01184985Y01598470D02*
X01193982Y01595320D01*
X01178126Y01601460D02*
X01184985Y01598470D01*
X01193420Y01631872D02*
X01218533Y01631075D01*
X01164514Y01643613D02*
X01165053Y01652257D01*
X01164514Y01643613D02*
X01193420Y01645418D01*
X01218533Y01646215D01*
X01181083Y01687245D02*
X01185325Y01689574D01*
X01214122Y01686284D02*
X01234149Y01686572D01*
X01193982Y01681970D02*
X01214122Y01686284D01*
X01184985Y01678820D02*
X01193982Y01681970D01*
X01178126Y01675830D02*
X01184985Y01678820D01*
X01204361Y01698093D02*
X01211058Y01699514D01*
X01219098Y01700448D02*
X01225762Y01700675D01*
X01183446Y01697543D02*
X01185767Y01700342D01*
X01221197Y01728274D02*
X01228198Y01731133D01*
X01204476Y01718009D02*
X01207094Y01719836D01*
X01323488Y01587769D02*
X01332268Y01593600D01*
X01321643Y01608178D02*
X01332389Y01612351D01*
X01259611Y01541146D02*
X01281320Y01555955D01*
X01279085Y01589417D02*
X01289471Y01593880D01*
X01259445Y01551290D02*
X01266945Y01555319D01*
X01262096Y01631665D02*
X01282900Y01632631D01*
X01304624Y01633764D01*
X01274043Y01678690D02*
X01293996Y01672331D01*
X01259611Y01736144D02*
X01281320Y01721335D01*
X01306815Y01717814D02*
X01313394Y01711507D01*
X01263278Y01693696D02*
X01269026Y01691739D01*
X01306656Y01696041D02*
X01312190Y01692200D01*
X01193982Y01595320D02*
X01214122Y01591006D01*
X01164514Y01633677D02*
X01165053Y01625033D01*
X01164514Y01633677D02*
X01193420Y01631872D01*
X01218533Y01631075D02*
X01241033Y01631076D01*
X01304624Y01633764D02*
X01328444Y01634853D01*
X01218533Y01646215D02*
X01241033Y01646214D01*
X01304624Y01643527D02*
X01328444Y01642437D01*
X01314013Y01665567D02*
X01334137Y01659304D01*
X01234149Y01686572D02*
X01254109Y01683739D01*
X01234149Y01590719D02*
X01254109Y01593552D01*
X01314013Y01611723D02*
X01334137Y01617986D01*
M02*
