M48
;Layer_Color=9474304
;FILE_FORMAT=4:4
METRIC,LZ
;TYPE=PLATED
T1F00S00C0.4000
T2F00S00C0.9000
%
T01
X00285Y00255
X0028448Y0027305
X00285Y00285
X0029375Y0029375
X0033274Y0028321
Y0027305
Y0026289
X003625Y0025
X0039624Y0026035
Y002794
Y0029845
X00392503Y00357503
X00384663Y00365055
X0037375Y00354719
X0036375Y003575
X0035125
X0035875Y0034881
X0036375Y00375
X0036875Y0039125
X00378753Y00393753
X00355599Y0038862
X00398753Y00383753
X00403753Y00373753
X0040386Y003937
X0040513Y0034798
X0042545Y0032766
X004425Y0033
X00435Y00405
X0042418Y0040513
X0043688Y0043434
X003683Y0043884
X00325736Y00403737
T02
X0044704Y002667
Y002921
Y003175
Y003429
Y003683
Y003937
Y004191
M30
