M48
;Layer_Color=9474304
;FILE_FORMAT=2:4
INCH,LZ
;TYPE=PLATED
T1F00S00C0.0157
T2F00S00C0.0354
%
T01
X-00875Y-0006
X-0065Y-00025
Y0005
X-006035Y001065
X-0045Y00065
Y00025
Y-00015
X-002Y-00025
Y0005
X-00225Y00085
X-002Y00125
X-002147Y003575
X-002456Y003872
X-00305Y00395
X-0036
Y00355
Y003134
X-00275Y00345
X-002688Y005002
X-003082Y004904
X-0036Y0048
X-00675Y0036
X-008742Y00328
X-00875Y00245
X-00165Y0032
X-001704Y004215
X-001901Y004608
X-0017Y005
X0005Y0045
X-00035Y0035
X-00085Y0024
Y00175
X-001711Y000089
X00125Y000492
X001101Y-000657
X0018Y-00065
Y0013
X00183Y0028
X00123Y0054
X0005Y0055
X-0009Y00555
X-0004Y0066
X00165Y0069
X-0029
X-0041Y00585
X-00555Y0067
X-0064Y006
X-007837Y00625
X-00875Y00685
T02
X-00825Y001
Y002
Y003
Y004
Y005
X0
Y004
Y003
Y002
Y001
Y0
Y006
M30
