M48
;Layer_Color=9474304
;FILE_FORMAT=4:4
METRIC,LZ
;TYPE=PLATED
T1F00S00C1.1000
T2F00S00C1.6000
T3F00S00C3.0000
%
T01
X011911Y00473
X009907
X007161Y00416
X00491
X00566Y01036
X00406
X00916Y01013
X01091
T02
X0047625Y011684
X0052705
X009746Y0117
X010254
X012992
X0135
X014008
X014592
X0151
X015608
T03
X0031Y0031
X0166
Y0122
X0031Y0121
M30
