G04 Layer_Physical_Order=2*
G04 Layer_Color=16711680*
%FSLAX44Y44*%
%MOMM*%
G71*
G01*
G75*
%ADD10C,3.0000*%
%ADD11C,2.5400*%
G04:AMPARAMS|DCode=12|XSize=5mm|YSize=5mm|CornerRadius=2.5mm|HoleSize=0mm|Usage=FLASHONLY|Rotation=0.000|XOffset=0mm|YOffset=0mm|HoleType=Round|Shape=RoundedRectangle|*
%AMROUNDEDRECTD12*
21,1,5.0000,0.0000,0,0,0.0*
21,1,0.0000,5.0000,0,0,0.0*
1,1,5.0000,0.0000,0.0000*
1,1,5.0000,0.0000,0.0000*
1,1,5.0000,0.0000,0.0000*
1,1,5.0000,0.0000,0.0000*
%
%ADD12ROUNDEDRECTD12*%
G04:AMPARAMS|DCode=13|XSize=2mm|YSize=2mm|CornerRadius=1mm|HoleSize=0mm|Usage=FLASHONLY|Rotation=270.000|XOffset=0mm|YOffset=0mm|HoleType=Round|Shape=RoundedRectangle|*
%AMROUNDEDRECTD13*
21,1,2.0000,0.0000,0,0,270.0*
21,1,0.0000,2.0000,0,0,270.0*
1,1,2.0000,0.0000,0.0000*
1,1,2.0000,0.0000,0.0000*
1,1,2.0000,0.0000,0.0000*
1,1,2.0000,0.0000,0.0000*
%
%ADD13ROUNDEDRECTD13*%
D10*
X491000Y416000D02*
X637000Y562000D01*
X816081D01*
X960041Y705959D01*
X1131959D01*
X1299200Y873200D01*
Y1170000D01*
X1400800D02*
Y838800D01*
X1189000Y627000D01*
X1015000D01*
X804000Y416000D01*
X716100D01*
X990700Y473000D02*
X1061850Y544150D01*
X1266150D01*
X1459200Y737200D01*
Y1170000D01*
X1560800D02*
Y686800D01*
X1347000Y473000D01*
X1191100D01*
X1091000Y1013000D02*
X1025400Y1078600D01*
Y1170000D01*
X974600D02*
Y1071600D01*
X916000Y1013000D01*
X566000Y1036000D02*
X527050Y1074950D01*
Y1168400D01*
X476250D02*
Y1106250D01*
X406000Y1036000D01*
D11*
X1025400Y1170000D02*
D03*
X974600D02*
D03*
X1299200D02*
D03*
X1350000D02*
D03*
X1400800D02*
D03*
X1459200D02*
D03*
X1510000D02*
D03*
X1560800D02*
D03*
X527050Y1168400D02*
D03*
X476250D02*
D03*
D12*
X310000Y310000D02*
D03*
Y1210000D02*
D03*
X1660000Y310000D02*
D03*
Y1220000D02*
D03*
D13*
X491000Y416000D02*
D03*
X716100D02*
D03*
X990700Y473000D02*
D03*
X1191100D02*
D03*
X1091000Y1013000D02*
D03*
X916000D02*
D03*
X566000Y1036000D02*
D03*
X406000D02*
D03*
M02*
