G04 Layer_Color=8388736*
%FSLAX44Y44*%
%MOMM*%
G71*
G01*
G75*
%ADD15C,2.7432*%
G04:AMPARAMS|DCode=16|XSize=5.2032mm|YSize=5.2032mm|CornerRadius=2.6016mm|HoleSize=0mm|Usage=FLASHONLY|Rotation=0.000|XOffset=0mm|YOffset=0mm|HoleType=Round|Shape=RoundedRectangle|*
%AMROUNDEDRECTD16*
21,1,5.2032,0.0000,0,0,0.0*
21,1,0.0000,5.2032,0,0,0.0*
1,1,5.2032,0.0000,0.0000*
1,1,5.2032,0.0000,0.0000*
1,1,5.2032,0.0000,0.0000*
1,1,5.2032,0.0000,0.0000*
%
%ADD16ROUNDEDRECTD16*%
G04:AMPARAMS|DCode=17|XSize=2.2032mm|YSize=2.2032mm|CornerRadius=1.1016mm|HoleSize=0mm|Usage=FLASHONLY|Rotation=270.000|XOffset=0mm|YOffset=0mm|HoleType=Round|Shape=RoundedRectangle|*
%AMROUNDEDRECTD17*
21,1,2.2032,0.0000,0,0,270.0*
21,1,0.0000,2.2032,0,0,270.0*
1,1,2.2032,0.0000,0.0000*
1,1,2.2032,0.0000,0.0000*
1,1,2.2032,0.0000,0.0000*
1,1,2.2032,0.0000,0.0000*
%
%ADD17ROUNDEDRECTD17*%
D15*
X1025400Y1170000D02*
D03*
X974600D02*
D03*
X1299200D02*
D03*
X1350000D02*
D03*
X1400800D02*
D03*
X1459200D02*
D03*
X1510000D02*
D03*
X1560800D02*
D03*
X527050Y1168400D02*
D03*
X476250D02*
D03*
D16*
X310000Y310000D02*
D03*
Y1210000D02*
D03*
X1660000Y310000D02*
D03*
Y1220000D02*
D03*
D17*
X491000Y416000D02*
D03*
X716100D02*
D03*
X990700Y473000D02*
D03*
X1191100D02*
D03*
X1091000Y1013000D02*
D03*
X916000D02*
D03*
X566000Y1036000D02*
D03*
X406000D02*
D03*
M02*
