M48
;Layer_Color=9474304
;FILE_FORMAT=4:4
METRIC,LZ
;TYPE=PLATED
T1F00S00C0.4000
T2F00S00C0.9000
%
T01
X0028448Y0027305
X0033274
Y0028321
Y0026289
X0039624Y0026035
Y002794
Y0029845
X0038608Y0035687
X00384727Y0036687
X0039497Y0037719
X00394969Y0038735
X003683Y003937
X00355599Y0038862
X0031477Y0037103
X0040386Y003937
X0040513Y0034798
X0042545Y0032766
X0042418Y0040513
X0043688Y0043434
X00381Y0042545
X003683Y0043884
X0032639Y0041275
T02
X0044704Y002667
Y002921
Y003175
Y003429
Y003683
Y003937
Y004191
M30
