G04 Layer_Physical_Order=1*
G04 Layer_Color=255*
%FSLAX44Y44*%
%MOMM*%
G71*
G01*
G75*
%ADD10R,1.4500X1.3500*%
%ADD11R,1.3500X1.4500*%
%ADD12R,0.6000X1.0000*%
%ADD13R,1.8000X0.4500*%
%ADD14R,0.4500X1.8000*%
%ADD15R,0.8890X1.0160*%
%ADD16R,0.9000X1.3000*%
%ADD17R,1.3000X0.9000*%
%ADD18O,2.2000X0.6000*%
%ADD19R,2.4000X1.9000*%
%ADD20C,0.2540*%
%ADD21C,1.5000*%
%ADD22R,1.5000X1.5000*%
%ADD23C,0.8000*%
G36*
X466063Y240187D02*
X240049D01*
Y447451D01*
X466063D01*
Y240187D01*
D02*
G37*
%LPC*%
G36*
X368300Y444957D02*
X365959Y444492D01*
X363974Y443165D01*
X363312Y442174D01*
X327361D01*
X326085Y441920D01*
X325004Y441197D01*
X323320Y439514D01*
X319300D01*
Y443180D01*
X309300D01*
Y434166D01*
X308127Y433680D01*
X303269Y438537D01*
X302188Y439260D01*
X300912Y439514D01*
X300300D01*
Y443180D01*
X290300D01*
Y439514D01*
X283780D01*
X282504Y439260D01*
X281422Y438537D01*
X277069Y434184D01*
X273410D01*
Y439600D01*
X254910D01*
Y422100D01*
X273410D01*
Y427516D01*
X278450D01*
X279726Y427770D01*
X280807Y428493D01*
X285161Y432846D01*
X290300D01*
Y429180D01*
X300300D01*
Y430417D01*
X301473Y430903D01*
X307364Y425013D01*
X308446Y424290D01*
X309722Y424036D01*
X318878D01*
X320154Y424290D01*
X321236Y425013D01*
X322939Y426716D01*
X326939D01*
Y424030D01*
X331625D01*
Y417879D01*
X331516Y417783D01*
X330355Y417317D01*
X328731Y418402D01*
X326390Y418867D01*
X324049Y418402D01*
X322064Y417076D01*
X320738Y415091D01*
X320570Y414246D01*
X319300Y414371D01*
Y419180D01*
X310340D01*
Y419720D01*
X306070D01*
Y412180D01*
X303530D01*
Y419720D01*
X299260D01*
Y419180D01*
X290300D01*
Y405180D01*
X292249D01*
X293275Y404590D01*
X293275Y403910D01*
Y400844D01*
X289560D01*
X288284Y400590D01*
X287202Y399868D01*
X284662Y397327D01*
X283940Y396246D01*
X283686Y394970D01*
Y386330D01*
X273020D01*
Y370524D01*
X265580D01*
Y375690D01*
X252580D01*
Y358690D01*
X265580D01*
Y363856D01*
X273020D01*
Y363330D01*
X301020D01*
Y386330D01*
X290354D01*
Y393589D01*
X290941Y394176D01*
X293275D01*
Y390430D01*
X306165D01*
X306165Y404432D01*
X307340Y404622D01*
X308515Y404432D01*
X308515Y403370D01*
Y390430D01*
X317325D01*
X323083Y384672D01*
X323959Y384086D01*
Y382364D01*
X311720D01*
X310444Y382110D01*
X309362Y381387D01*
X304293Y376317D01*
X303570Y375236D01*
X303316Y373960D01*
Y354841D01*
X293805Y345330D01*
X280235D01*
X276658Y348908D01*
X275576Y349630D01*
X274300Y349884D01*
X265580D01*
Y355050D01*
X252580D01*
Y338050D01*
X265580D01*
Y343216D01*
X271792D01*
X273020Y341988D01*
Y323270D01*
X273020Y322330D01*
X271887Y322000D01*
X266710Y322000D01*
X266120Y323026D01*
Y325280D01*
X260350D01*
Y317510D01*
X265440D01*
X266120Y317510D01*
X266710Y316484D01*
Y316230D01*
X275750D01*
X284790D01*
X284790Y322000D01*
X285923Y322330D01*
X286340D01*
X287250Y321460D01*
Y308460D01*
X292416D01*
Y301150D01*
X292670Y299874D01*
X293393Y298792D01*
X296092Y296092D01*
X297174Y295370D01*
X298450Y295116D01*
X300504D01*
X300685Y294845D01*
X302339Y293740D01*
X304290Y293352D01*
X320290D01*
X322241Y293740D01*
X323895Y294845D01*
X325000Y296499D01*
X325388Y298450D01*
X325000Y300401D01*
X323895Y302055D01*
X322241Y303160D01*
X320290Y303548D01*
X304290D01*
X302339Y303160D01*
X300685Y302055D01*
X299395Y302220D01*
X299084Y302531D01*
Y308460D01*
X304250D01*
Y311769D01*
X304806Y311880D01*
X305888Y312603D01*
X306181Y312896D01*
X325009D01*
X337216Y300689D01*
Y288963D01*
X335946Y288284D01*
X335081Y288862D01*
X332740Y289328D01*
X330399Y288862D01*
X328414Y287536D01*
X327752Y286544D01*
X325230D01*
X325000Y287701D01*
X323895Y289355D01*
X322241Y290460D01*
X320290Y290848D01*
X304290D01*
X302339Y290460D01*
X300685Y289355D01*
X299580Y287701D01*
X299192Y285750D01*
X299580Y283799D01*
X300685Y282145D01*
X302339Y281040D01*
X304290Y280652D01*
X312772D01*
X313554Y280130D01*
X314830Y279876D01*
X327752D01*
X328414Y278884D01*
X328593Y278765D01*
Y277495D01*
X328414Y277376D01*
X327752Y276384D01*
X324076D01*
X323895Y276655D01*
X322241Y277760D01*
X320290Y278148D01*
X304290D01*
X302339Y277760D01*
X300685Y276655D01*
X299580Y275001D01*
X299192Y273050D01*
X299580Y271099D01*
X300685Y269445D01*
X302339Y268340D01*
X304290Y267952D01*
X320290D01*
X322241Y268340D01*
X323895Y269445D01*
X324076Y269716D01*
X327752D01*
X328414Y268724D01*
X328593Y268605D01*
Y267335D01*
X328414Y267216D01*
X327752Y266224D01*
X314830D01*
X313554Y265970D01*
X312772Y265448D01*
X304290D01*
X302339Y265060D01*
X300685Y263955D01*
X299580Y262301D01*
X299192Y260350D01*
X299580Y258399D01*
X300685Y256745D01*
X302339Y255640D01*
X304290Y255252D01*
X320290D01*
X322241Y255640D01*
X323895Y256745D01*
X325000Y258399D01*
X325230Y259556D01*
X327752D01*
X328414Y258564D01*
X330399Y257238D01*
X332740Y256772D01*
X335081Y257238D01*
X337066Y258564D01*
X338392Y260549D01*
X338857Y262890D01*
X338476Y264808D01*
X339646Y265433D01*
X341847Y263232D01*
X342750Y262629D01*
Y257090D01*
X355750D01*
Y262387D01*
X356366Y262510D01*
X357448Y263232D01*
X362511Y268296D01*
X364240Y267952D01*
X380240D01*
X382191Y268340D01*
X383845Y269445D01*
X384950Y271099D01*
X385338Y273050D01*
X384950Y275001D01*
X383845Y276655D01*
X382191Y277760D01*
X380240Y278148D01*
X364240D01*
X362289Y277760D01*
X360635Y276655D01*
X359530Y275001D01*
X359467Y274682D01*
X356923Y272138D01*
X355750Y272624D01*
Y274090D01*
X343884D01*
Y276550D01*
X347980D01*
Y285590D01*
Y294630D01*
X343884D01*
Y302070D01*
X343630Y303346D01*
X342908Y304428D01*
X328747Y318588D01*
X327666Y319310D01*
X326390Y319564D01*
X322000D01*
Y326550D01*
X314960D01*
Y327820D01*
X313690D01*
Y336860D01*
X310374D01*
X309888Y338033D01*
X311175Y339320D01*
X321460D01*
Y356320D01*
X320784D01*
X320298Y357493D01*
X322501Y359696D01*
X323959D01*
Y350780D01*
Y342780D01*
Y334780D01*
X344857Y334780D01*
X344965Y334780D01*
X345063Y334775D01*
X346003Y334574D01*
X346205Y333633D01*
X346209Y333535D01*
X346209Y333427D01*
Y312530D01*
X401669D01*
Y311990D01*
X405189D01*
Y323530D01*
X406459D01*
Y324800D01*
X411249D01*
Y333920D01*
X411249Y334780D01*
X412109Y334780D01*
X421494D01*
X422116Y334158D01*
Y332648D01*
X421124Y331986D01*
X419798Y330001D01*
X419333Y327660D01*
X419798Y325319D01*
X421124Y323334D01*
X423109Y322008D01*
X425450Y321543D01*
X427791Y322008D01*
X429776Y323334D01*
X431102Y325319D01*
X431567Y327660D01*
X431102Y330001D01*
X429776Y331986D01*
X428784Y332648D01*
Y334780D01*
X432959D01*
Y342780D01*
Y350780D01*
Y358780D01*
Y366780D01*
Y374780D01*
Y383695D01*
X435819D01*
X441818Y377697D01*
X441611Y376108D01*
X440265Y375075D01*
X438742Y373091D01*
X437785Y370780D01*
X437458Y368300D01*
X437785Y365820D01*
X438742Y363509D01*
X440265Y361525D01*
X442249Y360002D01*
X444560Y359044D01*
X447040Y358718D01*
X449520Y359044D01*
X451831Y360002D01*
X453815Y361525D01*
X455136Y363245D01*
X456275Y362990D01*
X456406Y362917D01*
Y356981D01*
X450977Y351552D01*
X449520Y352155D01*
X447040Y352482D01*
X444560Y352155D01*
X442249Y351198D01*
X440265Y349675D01*
X438742Y347691D01*
X437785Y345380D01*
X437458Y342900D01*
X437785Y340420D01*
X438742Y338109D01*
X440265Y336124D01*
X442249Y334602D01*
X444560Y333644D01*
X447040Y333318D01*
X449520Y333644D01*
X451831Y334602D01*
X453815Y336124D01*
X455338Y338109D01*
X456296Y340420D01*
X456622Y342900D01*
X456296Y345380D01*
X455692Y346837D01*
X462098Y353242D01*
X462820Y354324D01*
X463074Y355600D01*
Y426720D01*
X462820Y427996D01*
X462098Y429077D01*
X454478Y436698D01*
X453396Y437420D01*
X452120Y437674D01*
X441868D01*
X441206Y438666D01*
X439221Y439992D01*
X436880Y440457D01*
X434539Y439992D01*
X432554Y438666D01*
X431980Y437806D01*
X430710Y438192D01*
Y441050D01*
X413210D01*
Y422550D01*
X430710D01*
Y428466D01*
X434340D01*
X434998Y428597D01*
X436880Y428223D01*
X439221Y428688D01*
X441206Y430014D01*
X441868Y431006D01*
X450739D01*
X456115Y425630D01*
X456115Y425625D01*
X456002Y425112D01*
X454635Y424808D01*
X453815Y425875D01*
X451831Y427398D01*
X449520Y428355D01*
X447040Y428682D01*
X444560Y428355D01*
X442249Y427398D01*
X440265Y425875D01*
X438742Y423891D01*
X437785Y421580D01*
X437458Y419100D01*
X437785Y416620D01*
X438742Y414309D01*
X440265Y412325D01*
X442249Y410802D01*
X444560Y409845D01*
X447040Y409518D01*
X449520Y409845D01*
X451831Y410802D01*
X453815Y412325D01*
X455136Y414045D01*
X456275Y413790D01*
X456406Y413717D01*
Y399083D01*
X456275Y399010D01*
X455136Y398755D01*
X453815Y400475D01*
X451831Y401998D01*
X449520Y402956D01*
X447040Y403282D01*
X444560Y402956D01*
X442249Y401998D01*
X440265Y400475D01*
X438742Y398491D01*
X438689Y398364D01*
X432959D01*
Y399280D01*
X429385D01*
X428975Y400178D01*
X428909Y400550D01*
X429893Y401832D01*
X430552Y403423D01*
X430609Y403860D01*
X417751D01*
X417808Y403423D01*
X418467Y401832D01*
X419451Y400550D01*
X419384Y400178D01*
X418975Y399280D01*
X411876D01*
X410915Y399486D01*
X410709Y400446D01*
Y421530D01*
X408821D01*
X407750Y422010D01*
X407750Y422800D01*
Y430530D01*
X398460D01*
Y431800D01*
D01*
Y430530D01*
X389170D01*
Y422800D01*
X389170Y422010D01*
X388099Y421530D01*
X387124D01*
X386445Y422800D01*
X386652Y423109D01*
X387118Y425450D01*
X386652Y427791D01*
X385326Y429776D01*
X383341Y431102D01*
X381000Y431567D01*
X378659Y431102D01*
X376674Y429776D01*
X375348Y427791D01*
X374883Y425450D01*
X375348Y423109D01*
X375655Y422650D01*
X375056Y421530D01*
X355249D01*
Y422070D01*
X351729D01*
Y410530D01*
X350459D01*
Y409260D01*
X345669D01*
Y399280D01*
X338293D01*
Y412540D01*
Y424030D01*
X343939D01*
Y435506D01*
X346399D01*
Y431800D01*
X355439D01*
X364479D01*
Y432829D01*
X365599Y433428D01*
X365959Y433188D01*
X368300Y432722D01*
X370641Y433188D01*
X372626Y434514D01*
X373952Y436498D01*
X374417Y438840D01*
X373952Y441181D01*
X372626Y443165D01*
X370641Y444492D01*
X368300Y444957D01*
D02*
G37*
G36*
X407750Y441590D02*
X399730D01*
Y433070D01*
X407750D01*
Y441590D01*
D02*
G37*
G36*
X397190D02*
X389170D01*
Y433070D01*
X397190D01*
Y441590D01*
D02*
G37*
G36*
X364479Y429260D02*
X356709D01*
Y423490D01*
X364479D01*
Y429260D01*
D02*
G37*
G36*
X354169D02*
X346399D01*
Y423490D01*
X354169D01*
Y429260D01*
D02*
G37*
G36*
X349189Y422070D02*
X345669D01*
Y411800D01*
X349189D01*
Y422070D01*
D02*
G37*
G36*
X273950Y416640D02*
X265430D01*
Y408620D01*
X273950D01*
Y416640D01*
D02*
G37*
G36*
X262890D02*
X254370D01*
Y408620D01*
X262890D01*
Y416640D01*
D02*
G37*
G36*
X425450Y411559D02*
Y406400D01*
X430609D01*
X430552Y406837D01*
X429893Y408428D01*
X428844Y409794D01*
X427478Y410843D01*
X425887Y411502D01*
X425450Y411559D01*
D02*
G37*
G36*
X422910D02*
X422473Y411502D01*
X420882Y410843D01*
X419516Y409794D01*
X418467Y408428D01*
X417808Y406837D01*
X417751Y406400D01*
X422910D01*
Y411559D01*
D02*
G37*
G36*
X273950Y406080D02*
X265430D01*
Y398060D01*
X273950D01*
Y406080D01*
D02*
G37*
G36*
X262890D02*
X254370D01*
Y398060D01*
X262890D01*
Y406080D01*
D02*
G37*
G36*
X266120Y396230D02*
X260350D01*
Y388460D01*
X266120D01*
Y396230D01*
D02*
G37*
G36*
X257810D02*
X252040D01*
Y388460D01*
X257810D01*
Y396230D01*
D02*
G37*
G36*
X266120Y385920D02*
X260350D01*
Y378150D01*
X266120D01*
Y385920D01*
D02*
G37*
G36*
X257810D02*
X252040D01*
Y378150D01*
X257810D01*
Y385920D01*
D02*
G37*
G36*
X322000Y336860D02*
X316230D01*
Y329090D01*
X322000D01*
Y336860D01*
D02*
G37*
G36*
X266120Y335590D02*
X260350D01*
Y327820D01*
X266120D01*
Y335590D01*
D02*
G37*
G36*
X257810D02*
X252040D01*
Y327820D01*
X257810D01*
Y335590D01*
D02*
G37*
G36*
X448310Y327459D02*
Y318770D01*
X456999D01*
X456822Y320121D01*
X455810Y322563D01*
X454201Y324661D01*
X452103Y326270D01*
X449661Y327282D01*
X448310Y327459D01*
D02*
G37*
G36*
X445770D02*
X444419Y327282D01*
X441977Y326270D01*
X439879Y324661D01*
X438270Y322563D01*
X437258Y320121D01*
X437081Y318770D01*
X445770D01*
Y327459D01*
D02*
G37*
G36*
X257810Y325280D02*
X252040D01*
Y317510D01*
X257810D01*
Y325280D01*
D02*
G37*
G36*
X411249Y322260D02*
X407729D01*
Y311990D01*
X411249D01*
Y322260D01*
D02*
G37*
G36*
X284790Y313690D02*
X277020D01*
Y307920D01*
X284790D01*
Y313690D01*
D02*
G37*
G36*
X274480D02*
X266710D01*
Y307920D01*
X274480D01*
Y313690D01*
D02*
G37*
G36*
X456999Y316230D02*
X448310D01*
Y307541D01*
X449661Y307718D01*
X452103Y308730D01*
X454201Y310339D01*
X455810Y312437D01*
X456822Y314879D01*
X456999Y316230D01*
D02*
G37*
G36*
X445770D02*
X437081D01*
X437258Y314879D01*
X438270Y312437D01*
X439879Y310339D01*
X441977Y308730D01*
X444419Y307718D01*
X445770Y307541D01*
Y316230D01*
D02*
G37*
G36*
X396240Y304568D02*
X393899Y304102D01*
X391914Y302776D01*
X391252Y301784D01*
X384026D01*
X383845Y302055D01*
X382191Y303160D01*
X380240Y303548D01*
X364240D01*
X362289Y303160D01*
X360635Y302055D01*
X359530Y300401D01*
X359142Y298450D01*
X359530Y296499D01*
X360635Y294845D01*
X362289Y293740D01*
X364240Y293352D01*
X380240D01*
X382191Y293740D01*
X383845Y294845D01*
X384026Y295116D01*
X391252D01*
X391914Y294124D01*
X393899Y292798D01*
X396240Y292332D01*
X398581Y292798D01*
X400566Y294124D01*
X401892Y296109D01*
X402357Y298450D01*
X401892Y300791D01*
X400566Y302776D01*
X398581Y304102D01*
X396240Y304568D01*
D02*
G37*
G36*
X272290Y304098D02*
X265560D01*
Y299720D01*
X277686D01*
X277509Y300612D01*
X276284Y302444D01*
X274452Y303669D01*
X272290Y304098D01*
D02*
G37*
G36*
X263020D02*
X256290D01*
X254128Y303669D01*
X252296Y302444D01*
X251071Y300612D01*
X250894Y299720D01*
X263020D01*
Y304098D01*
D02*
G37*
G36*
X277686Y297180D02*
X265560D01*
Y292801D01*
X272290D01*
X274452Y293231D01*
X276284Y294456D01*
X277509Y296288D01*
X277686Y297180D01*
D02*
G37*
G36*
X263020D02*
X250894D01*
X251071Y296288D01*
X252296Y294456D01*
X254128Y293231D01*
X256290Y292801D01*
X263020D01*
Y297180D01*
D02*
G37*
G36*
X380240Y291399D02*
X373510D01*
Y287020D01*
X385636D01*
X385459Y287912D01*
X384234Y289744D01*
X382402Y290969D01*
X380240Y291399D01*
D02*
G37*
G36*
X272290D02*
X265560D01*
Y287020D01*
X277686D01*
X277509Y287912D01*
X276284Y289744D01*
X274452Y290969D01*
X272290Y291399D01*
D02*
G37*
G36*
X370970D02*
X364240D01*
X362078Y290969D01*
X360246Y289744D01*
X359021Y287912D01*
X358844Y287020D01*
X370970D01*
Y291399D01*
D02*
G37*
G36*
X263020D02*
X256290D01*
X254128Y290969D01*
X252296Y289744D01*
X251071Y287912D01*
X250894Y287020D01*
X263020D01*
Y291399D01*
D02*
G37*
G36*
X356290Y294630D02*
X350520D01*
Y286860D01*
X356290D01*
Y294630D01*
D02*
G37*
G36*
X428240Y303548D02*
X412240D01*
X410289Y303160D01*
X408635Y302055D01*
X407530Y300401D01*
X407142Y298450D01*
X407530Y296499D01*
X407968Y295843D01*
X397410Y285285D01*
X396240Y285518D01*
X393899Y285052D01*
X391914Y283726D01*
X390588Y281741D01*
X390122Y279400D01*
X390588Y277059D01*
X391914Y275074D01*
X393899Y273748D01*
X396240Y273283D01*
X398581Y273748D01*
X400566Y275074D01*
X401892Y277059D01*
X402357Y279400D01*
X402125Y280570D01*
X406217Y284662D01*
X407432Y284293D01*
X407530Y283799D01*
X408635Y282145D01*
X410289Y281040D01*
X412240Y280652D01*
X428240D01*
X430191Y281040D01*
X431845Y282145D01*
X432026Y282416D01*
X440690D01*
X441966Y282670D01*
X443047Y283393D01*
X443103Y283448D01*
X444560Y282845D01*
X447040Y282518D01*
X449520Y282845D01*
X451831Y283802D01*
X453815Y285324D01*
X455338Y287309D01*
X456296Y289620D01*
X456622Y292100D01*
X456296Y294580D01*
X455338Y296891D01*
X453815Y298875D01*
X451831Y300398D01*
X449520Y301355D01*
X447040Y301682D01*
X444560Y301355D01*
X442249Y300398D01*
X440265Y298875D01*
X438742Y296891D01*
X437785Y294580D01*
X437458Y292100D01*
X437688Y290354D01*
X436739Y289084D01*
X432026D01*
X431845Y289355D01*
X430191Y290460D01*
X428240Y290848D01*
X414062D01*
X413576Y292021D01*
X414907Y293352D01*
X428240D01*
X430191Y293740D01*
X431845Y294845D01*
X432950Y296499D01*
X433338Y298450D01*
X432950Y300401D01*
X431845Y302055D01*
X430191Y303160D01*
X428240Y303548D01*
D02*
G37*
G36*
X385636Y284480D02*
X373510D01*
Y280102D01*
X380240D01*
X382402Y280531D01*
X384234Y281756D01*
X385459Y283588D01*
X385636Y284480D01*
D02*
G37*
G36*
X370970D02*
X358844D01*
X359021Y283588D01*
X360246Y281756D01*
X362078Y280531D01*
X364240Y280102D01*
X370970D01*
Y284480D01*
D02*
G37*
G36*
X277686D02*
X265560D01*
Y280102D01*
X272290D01*
X274452Y280531D01*
X276284Y281756D01*
X277509Y283588D01*
X277686Y284480D01*
D02*
G37*
G36*
X263020D02*
X250894D01*
X251071Y283588D01*
X252296Y281756D01*
X254128Y280531D01*
X256290Y280102D01*
X263020D01*
Y284480D01*
D02*
G37*
G36*
X356290Y284320D02*
X350520D01*
Y276550D01*
X356290D01*
Y284320D01*
D02*
G37*
G36*
X283210Y279479D02*
X282773Y279422D01*
X281182Y278763D01*
X279816Y277714D01*
X278767Y276348D01*
X278572Y275878D01*
X277146Y275754D01*
X276284Y277044D01*
X274452Y278269D01*
X272290Y278699D01*
X265560D01*
Y273050D01*
Y267402D01*
X272290D01*
X274452Y267831D01*
X276284Y269056D01*
X277146Y270346D01*
X278572Y270222D01*
X278767Y269752D01*
X279816Y268386D01*
X281182Y267337D01*
X282773Y266678D01*
X283210Y266621D01*
Y273050D01*
Y279479D01*
D02*
G37*
G36*
X285750D02*
Y274320D01*
X290909D01*
X290852Y274757D01*
X290193Y276348D01*
X289144Y277714D01*
X287778Y278763D01*
X286187Y279422D01*
X285750Y279479D01*
D02*
G37*
G36*
X263020Y278699D02*
X256290D01*
X254128Y278269D01*
X252296Y277044D01*
X251071Y275212D01*
X250894Y274320D01*
X263020D01*
Y278699D01*
D02*
G37*
G36*
Y271780D02*
X250894D01*
X251071Y270888D01*
X252296Y269056D01*
X254128Y267831D01*
X256290Y267402D01*
X263020D01*
Y271780D01*
D02*
G37*
G36*
X290909D02*
X285750D01*
Y266621D01*
X286187Y266678D01*
X287778Y267337D01*
X289144Y268386D01*
X290193Y269752D01*
X290852Y271343D01*
X290909Y271780D01*
D02*
G37*
G36*
X396240Y266467D02*
X393899Y266002D01*
X391914Y264676D01*
X391252Y263684D01*
X384026D01*
X383845Y263955D01*
X382191Y265060D01*
X380240Y265448D01*
X364240D01*
X362289Y265060D01*
X360635Y263955D01*
X359530Y262301D01*
X359142Y260350D01*
X359530Y258399D01*
X360635Y256745D01*
X362289Y255640D01*
X364240Y255252D01*
X380240D01*
X382191Y255640D01*
X383845Y256745D01*
X384026Y257016D01*
X391252D01*
X391914Y256024D01*
X393899Y254698D01*
X396240Y254233D01*
X398581Y254698D01*
X400566Y256024D01*
X401892Y258009D01*
X402357Y260350D01*
X401892Y262691D01*
X400566Y264676D01*
X398581Y266002D01*
X396240Y266467D01*
D02*
G37*
G36*
X272290Y265998D02*
X265560D01*
Y261620D01*
X277686D01*
X277509Y262512D01*
X276284Y264344D01*
X274452Y265569D01*
X272290Y265998D01*
D02*
G37*
G36*
X263020D02*
X256290D01*
X254128Y265569D01*
X252296Y264344D01*
X251071Y262512D01*
X250894Y261620D01*
X263020D01*
Y265998D01*
D02*
G37*
G36*
X428240Y278148D02*
X412240D01*
X410289Y277760D01*
X408635Y276655D01*
X407530Y275001D01*
X407142Y273050D01*
X407530Y271099D01*
X408635Y269445D01*
X410289Y268340D01*
X412240Y267952D01*
X428240D01*
X430191Y268340D01*
X431845Y269445D01*
X432026Y269716D01*
X437540D01*
Y257200D01*
X456540D01*
Y276200D01*
X447965D01*
X447040Y276384D01*
X432026D01*
X431845Y276655D01*
X430191Y277760D01*
X428240Y278148D01*
D02*
G37*
G36*
Y265448D02*
X412240D01*
X410289Y265060D01*
X408635Y263955D01*
X407530Y262301D01*
X407142Y260350D01*
X407530Y258399D01*
X408635Y256745D01*
X410289Y255640D01*
X412240Y255252D01*
X428240D01*
X430191Y255640D01*
X431845Y256745D01*
X432950Y258399D01*
X433338Y260350D01*
X432950Y262301D01*
X431845Y263955D01*
X430191Y265060D01*
X428240Y265448D01*
D02*
G37*
G36*
X277686Y259080D02*
X265560D01*
Y254701D01*
X272290D01*
X274452Y255131D01*
X276284Y256356D01*
X277509Y258188D01*
X277686Y259080D01*
D02*
G37*
G36*
X263020D02*
X250894D01*
X251071Y258188D01*
X252296Y256356D01*
X254128Y255131D01*
X256290Y254701D01*
X263020D01*
Y259080D01*
D02*
G37*
%LPD*%
G36*
X399884Y398260D02*
X399534Y398026D01*
X398208Y396041D01*
X397821Y394096D01*
X397607Y393637D01*
X396557Y393151D01*
X394969Y393467D01*
X392628Y393002D01*
X390644Y391675D01*
X389317Y389691D01*
X388852Y387350D01*
X389317Y385009D01*
X390644Y383024D01*
X390822Y382905D01*
Y381634D01*
X390644Y381516D01*
X389318Y379531D01*
X388853Y377190D01*
X389318Y374849D01*
X390644Y372864D01*
X392629Y371538D01*
X392951Y371474D01*
X392826Y370204D01*
X389716D01*
X389053Y371196D01*
X387068Y372522D01*
X384727Y372988D01*
X382386Y372522D01*
X380402Y371196D01*
X379076Y369211D01*
X378610Y366870D01*
X379076Y364529D01*
X380402Y362544D01*
X381031Y362124D01*
X381311Y360532D01*
X380428Y359211D01*
X379963Y356870D01*
X380428Y354529D01*
X381754Y352544D01*
X383739Y351218D01*
X386080Y350752D01*
X388421Y351218D01*
X390406Y352544D01*
X391068Y353536D01*
X397796D01*
X398660Y352672D01*
X399256Y352274D01*
X399764Y350749D01*
X399478Y350321D01*
X399012Y347980D01*
X399478Y345639D01*
X400804Y343654D01*
X400917Y343579D01*
X400548Y342364D01*
X398334D01*
X397681Y342234D01*
X392258D01*
X391604Y342364D01*
X375710D01*
X358933Y359141D01*
Y363026D01*
X358934Y363030D01*
X358933Y363034D01*
Y383631D01*
X359925Y384294D01*
X361251Y386278D01*
X361717Y388620D01*
X361251Y390961D01*
X359925Y392945D01*
X357940Y394272D01*
X355599Y394737D01*
X354429Y394505D01*
X351547Y397387D01*
X351049Y397720D01*
X351434Y398990D01*
X355249D01*
Y399530D01*
X363939D01*
X364324Y398260D01*
X363974Y398026D01*
X362648Y396041D01*
X362183Y393700D01*
X362648Y391359D01*
X363974Y389374D01*
X365959Y388048D01*
X368300Y387583D01*
X370641Y388048D01*
X372626Y389374D01*
X373952Y391359D01*
X374417Y393700D01*
X374185Y394870D01*
X376817Y397502D01*
X377539Y398583D01*
X377728Y399530D01*
X399499D01*
X399884Y398260D01*
D02*
G37*
G36*
X352265Y357760D02*
X352519Y356484D01*
X353242Y355402D01*
X371972Y336672D01*
X373053Y335949D01*
X373806Y335800D01*
X373681Y334530D01*
X347312Y334530D01*
X347204Y334530D01*
X347106Y334534D01*
X346165Y334736D01*
X345964Y335676D01*
X345959Y335774D01*
X345959Y335882D01*
Y342780D01*
Y350780D01*
Y359696D01*
X352265D01*
Y357760D01*
D02*
G37*
D10*
X264160Y430850D02*
D03*
Y407350D02*
D03*
D11*
X421960Y431800D02*
D03*
X398460D02*
D03*
D12*
X295300Y436180D02*
D03*
X314300D02*
D03*
Y412180D02*
D03*
X304800D02*
D03*
X295300D02*
D03*
D13*
X334959Y395030D02*
D03*
Y387030D02*
D03*
Y379030D02*
D03*
Y371030D02*
D03*
Y363030D02*
D03*
Y355030D02*
D03*
Y347030D02*
D03*
Y339030D02*
D03*
X421959D02*
D03*
Y347030D02*
D03*
Y355030D02*
D03*
Y363030D02*
D03*
Y371030D02*
D03*
Y379030D02*
D03*
Y387030D02*
D03*
Y395030D02*
D03*
D14*
X350459Y323530D02*
D03*
X358459D02*
D03*
X366459D02*
D03*
X374459D02*
D03*
X382459D02*
D03*
X390459D02*
D03*
X398459D02*
D03*
X406459D02*
D03*
Y410530D02*
D03*
X398459D02*
D03*
X390459D02*
D03*
X382459D02*
D03*
X374459D02*
D03*
X366459D02*
D03*
X358459D02*
D03*
X350459D02*
D03*
D15*
X299720Y397510D02*
D03*
X314960D02*
D03*
D16*
X259080Y346550D02*
D03*
Y326550D02*
D03*
Y367190D02*
D03*
Y387190D02*
D03*
X349250Y265590D02*
D03*
Y285590D02*
D03*
X314960Y347820D02*
D03*
Y327820D02*
D03*
D17*
X275750Y314960D02*
D03*
X295750D02*
D03*
X335439Y430530D02*
D03*
X355439D02*
D03*
D18*
X312290Y260350D02*
D03*
Y273050D02*
D03*
Y285750D02*
D03*
Y298450D02*
D03*
X264290Y260350D02*
D03*
Y273050D02*
D03*
Y285750D02*
D03*
Y298450D02*
D03*
X420240Y260350D02*
D03*
Y273050D02*
D03*
Y285750D02*
D03*
Y298450D02*
D03*
X372240Y260350D02*
D03*
Y273050D02*
D03*
Y285750D02*
D03*
Y298450D02*
D03*
D19*
X287020Y333830D02*
D03*
Y374830D02*
D03*
D20*
X406459Y396299D02*
Y410530D01*
X418150Y431800D02*
X434340D01*
X436880Y434340D01*
X459740Y355600D02*
Y426720D01*
X452120Y434340D02*
X459740Y426720D01*
X436880Y434340D02*
X452120D01*
X424180Y405130D02*
Y416560D01*
X419460Y421280D02*
X424180Y416560D01*
X447040Y368300D02*
Y377190D01*
X437200Y387030D02*
X447040Y377190D01*
X421959Y387030D02*
X437200D01*
X445710Y395030D02*
X447040Y393700D01*
X421959Y395030D02*
X445710D01*
X447040Y342900D02*
X459740Y355600D01*
X403859Y367030D02*
X407859Y363030D01*
X421959Y339030D02*
X425450Y335539D01*
Y327660D02*
Y335539D01*
X420370Y317500D02*
X447040D01*
X414340Y323530D02*
X420370Y317500D01*
X406459Y323530D02*
X414340D01*
X355599Y357760D02*
Y388620D01*
X334959Y412540D02*
Y430050D01*
Y395030D02*
Y412540D01*
X334749Y412750D02*
X334959Y412540D01*
X326390Y412750D02*
X334749D01*
X372240Y298450D02*
X396240D01*
X264290Y285750D02*
Y298450D01*
Y273050D02*
Y285750D01*
Y260350D02*
Y273050D01*
X400883Y377190D02*
X407043Y371030D01*
X398204Y338900D02*
X398334Y339030D01*
X391734Y338900D02*
X398204D01*
X391604Y339030D02*
X391734Y338900D01*
X374329Y339030D02*
X391604D01*
X355599Y357760D02*
X374329Y339030D01*
X362550Y273050D02*
X372240D01*
X355090Y265590D02*
X362550Y273050D01*
X349250Y265590D02*
X355090D01*
X340550Y269245D02*
X344205Y265590D01*
X349250D01*
X340550Y269245D02*
Y302070D01*
X326390Y316230D02*
X340550Y302070D01*
X304800Y316230D02*
X326390D01*
X312290Y273050D02*
X332740D01*
X298450Y298450D02*
X312290D01*
X295750Y301150D02*
X298450Y298450D01*
X295750Y301150D02*
Y314960D01*
X284480Y262890D02*
Y273050D01*
X281940Y260350D02*
X284480Y262890D01*
X264290Y260350D02*
X281940D01*
X275590Y307340D02*
X284480Y298450D01*
Y273050D02*
Y298450D01*
X324701Y436180D02*
X327361Y438840D01*
X314300Y436180D02*
X324701D01*
X355439Y430530D02*
X375798D01*
X321558Y430050D02*
X334959D01*
X318878Y427370D02*
X321558Y430050D01*
X309722Y427370D02*
X318878D01*
X300912Y436180D02*
X309722Y427370D01*
X295300Y436180D02*
X300912D01*
X314960Y397510D02*
X325440Y387030D01*
X334959D01*
X314960Y356870D02*
X321120Y363030D01*
X334959D01*
X326228Y327820D02*
X345439Y308610D01*
X314960Y327820D02*
X326228D01*
X259080Y387190D02*
X264160Y392270D01*
Y407350D01*
X282260Y425450D01*
X302260D01*
X304800Y422910D01*
Y412180D02*
Y422910D01*
X283780Y436180D02*
X295300D01*
X278450Y430850D02*
X283780Y436180D01*
X264160Y430850D02*
X278450D01*
X279380Y367190D02*
X287020Y374830D01*
X259080Y367190D02*
X279380D01*
X274300Y346550D02*
X287020Y333830D01*
X259080Y346550D02*
X274300D01*
X260350Y314960D02*
X275750D01*
X259080Y316230D02*
X260350Y314960D01*
X259080Y316230D02*
Y326550D01*
X334643Y378714D02*
X334959Y379030D01*
X287020Y333830D02*
X306650Y353460D01*
X287020Y374830D02*
Y394970D01*
X289560Y397510D01*
X299720D01*
X304800Y316230D02*
Y337660D01*
X295750Y314960D02*
X303530D01*
X304800Y316230D01*
X314960Y347820D02*
Y356870D01*
X398334Y339030D02*
X421959D01*
X334959Y363030D02*
X355600D01*
X349189Y395030D02*
X355599Y388620D01*
X334959Y395030D02*
X349189D01*
X351789Y430530D02*
X355439D01*
X350459Y429200D02*
X351789Y430530D01*
X350459Y410530D02*
Y429200D01*
X406459Y311210D02*
Y323530D01*
X403859Y308610D02*
X406459Y311210D01*
X349250Y285590D02*
X349410Y285750D01*
X372240D01*
X447040Y266700D02*
Y273050D01*
X440690Y285750D02*
X447040Y292100D01*
X420240Y285750D02*
X440690D01*
X372240Y260350D02*
X396240D01*
X410909Y379030D02*
X421959D01*
X407043Y371030D02*
X421959D01*
X407859Y363030D02*
X421959D01*
X304800Y337660D02*
X314960Y347820D01*
X252570Y387190D02*
X259080D01*
X252570Y326550D02*
X259080D01*
X248920Y330200D02*
X252570Y326550D01*
X248920Y330200D02*
Y383540D01*
X252570Y387190D01*
X345439Y308610D02*
X403859D01*
X349250Y285590D02*
Y308610D01*
X275590Y314800D02*
X275750Y314960D01*
X275590Y307340D02*
Y314800D01*
X415290Y298450D02*
X420240D01*
X396240Y279400D02*
X415290Y298450D01*
X420240Y273050D02*
X447040D01*
X382459Y410530D02*
Y423991D01*
X381000Y425450D02*
X382459Y423991D01*
X374459Y399859D02*
Y410530D01*
X368300Y393700D02*
X374459Y399859D01*
X306650Y353460D02*
Y373960D01*
X311720Y379030D01*
X334959D01*
X314770Y371030D02*
X334959D01*
X403860Y393700D02*
X406459Y396299D01*
X394970Y377190D02*
X400883D01*
X394969Y387350D02*
X402589D01*
X410909Y379030D01*
X386080Y356870D02*
X399177D01*
X401018Y355030D01*
X421009Y347980D02*
X421959Y347030D01*
X405130Y347980D02*
X421009D01*
X401018Y355030D02*
X401898D01*
X402119Y355250D01*
X421739D02*
X421959Y355030D01*
X402119Y355250D02*
X421739D01*
X403699Y366870D02*
X403859Y367030D01*
X384727Y366870D02*
X403699D01*
X312290Y285750D02*
X314830Y283210D01*
X332740D01*
X312290Y260350D02*
X314830Y262890D01*
X332740D01*
X327361Y438840D02*
X368300D01*
X413856Y421280D02*
X419460D01*
X411940Y423195D02*
X413856Y421280D01*
X411940Y423195D02*
Y426260D01*
X406400Y431800D02*
X411940Y426260D01*
X398460Y431800D02*
X406400D01*
X375798Y430530D02*
X377989Y432720D01*
X384011D01*
X386202Y430530D01*
X397190D01*
X398460Y431800D01*
D21*
X447040Y419100D02*
D03*
Y393700D02*
D03*
Y368300D02*
D03*
Y342900D02*
D03*
Y292100D02*
D03*
Y317500D02*
D03*
D22*
Y266700D02*
D03*
D23*
X436880Y434340D02*
D03*
X386080Y356870D02*
D03*
X424180Y405130D02*
D03*
X425450Y327660D02*
D03*
X355599Y388620D02*
D03*
X326390Y412750D02*
D03*
X396240Y298450D02*
D03*
X332740Y273050D02*
D03*
X284480D02*
D03*
X396240Y260350D02*
D03*
Y279400D02*
D03*
X381000Y425450D02*
D03*
X368300Y393700D02*
D03*
X314770Y371030D02*
D03*
X403860Y393700D02*
D03*
X394970Y377190D02*
D03*
X394969Y387350D02*
D03*
X405130Y347980D02*
D03*
X384727Y366870D02*
D03*
X332740Y283210D02*
D03*
Y262890D02*
D03*
X368300Y438840D02*
D03*
M02*
