G04 Layer_Color=8388736*
%FSLAX44Y44*%
%MOMM*%
G71*
G01*
G75*
%ADD30R,1.6532X1.5532*%
%ADD31R,1.5532X1.6532*%
%ADD32R,0.8032X1.2032*%
%ADD33R,2.0032X0.6532*%
%ADD34R,0.6532X2.0032*%
%ADD35R,1.0922X1.2192*%
%ADD36R,1.1032X1.5032*%
%ADD37R,1.5032X1.1032*%
%ADD38O,2.4032X0.8032*%
%ADD39R,2.6032X2.1032*%
%ADD40C,1.7032*%
%ADD41R,1.7032X1.7032*%
D30*
X264160Y430850D02*
D03*
Y407350D02*
D03*
D31*
X421960Y431800D02*
D03*
X398460D02*
D03*
D32*
X295300Y436180D02*
D03*
X314300D02*
D03*
Y412180D02*
D03*
X304800D02*
D03*
X295300D02*
D03*
D33*
X334959Y395030D02*
D03*
Y387030D02*
D03*
Y379030D02*
D03*
Y371030D02*
D03*
Y363030D02*
D03*
Y355030D02*
D03*
Y347030D02*
D03*
Y339030D02*
D03*
X421959D02*
D03*
Y347030D02*
D03*
Y355030D02*
D03*
Y363030D02*
D03*
Y371030D02*
D03*
Y379030D02*
D03*
Y387030D02*
D03*
Y395030D02*
D03*
D34*
X350459Y323530D02*
D03*
X358459D02*
D03*
X366459D02*
D03*
X374459D02*
D03*
X382459D02*
D03*
X390459D02*
D03*
X398459D02*
D03*
X406459D02*
D03*
Y410530D02*
D03*
X398459D02*
D03*
X390459D02*
D03*
X382459D02*
D03*
X374459D02*
D03*
X366459D02*
D03*
X358459D02*
D03*
X350459D02*
D03*
D35*
X299720Y397510D02*
D03*
X314960D02*
D03*
D36*
X259080Y346550D02*
D03*
Y326550D02*
D03*
Y367190D02*
D03*
Y387190D02*
D03*
X349250Y265590D02*
D03*
Y285590D02*
D03*
X314960Y347820D02*
D03*
Y327820D02*
D03*
D37*
X275750Y314960D02*
D03*
X295750D02*
D03*
X335439Y430530D02*
D03*
X355439D02*
D03*
D38*
X312290Y260350D02*
D03*
Y273050D02*
D03*
Y285750D02*
D03*
Y298450D02*
D03*
X264290Y260350D02*
D03*
Y273050D02*
D03*
Y285750D02*
D03*
Y298450D02*
D03*
X420240Y260350D02*
D03*
Y273050D02*
D03*
Y285750D02*
D03*
Y298450D02*
D03*
X372240Y260350D02*
D03*
Y273050D02*
D03*
Y285750D02*
D03*
Y298450D02*
D03*
D39*
X287020Y333830D02*
D03*
Y374830D02*
D03*
D40*
X447040Y419100D02*
D03*
Y393700D02*
D03*
Y368300D02*
D03*
Y342900D02*
D03*
Y292100D02*
D03*
Y317500D02*
D03*
D41*
Y266700D02*
D03*
M02*
