M48
;Layer_Color=9474304
;FILE_FORMAT=4:4
METRIC,LZ
;TYPE=PLATED
T1F00S00C0.4000
T2F00S00C1.0000
T3F00S00C1.0900
T4F00S00C3.2600
%
T01
X004Y0065
X00425
X0045
X00475
X005
X0051054Y0065913
X0049784Y0066802
X0046609Y0067945
X00475Y007
X0045
X00425
X004375Y00725
X004625
X0045Y0075
X00425
X004
X004125Y00725
X004375Y00675
X00525Y0065
X0055
X005461Y0066802
X00575Y0065
X0058166Y0065659
X006Y0065
X00625
X0065
X007
X00725
X0075
X007375Y00675
X007125
X00725Y007
X0075
X007375Y00725
X0075Y0075
X007375Y00775
X0063246Y0078105
X006196Y0076819
X0059309Y0077089
X0054483Y0075565
X0053213Y0076073
X005207Y007493
Y0073406
X0051181Y0072644
X0051054Y0071628
X0052197
X0051181Y0074168
X0051308Y0075692
X0051689Y0077092
X00505085Y00768725
X004625Y00775
X00635Y0074295
X007Y007
X003875Y00725
X003625
X00375Y0075
X0035
X003625Y00775
X003875
X0035Y007
Y0065
X00375
Y008
X0035
X003625Y00825
X003875
X00375Y0085
X0035
X003625Y00875
X003875
X00375Y009
X0035
X003625Y00925
X003875
X00375Y0095
X0035
X003625Y00975
X003875
X00375Y01
X0035
X003625Y01025
X003875
X00375Y0105
X0035
X003625Y01075
X003875
X00375Y011
X0035
Y0115
X00425
X0045
X00475
X005
X00525
X0055
X00575
X005625Y01125
X005375
X005125
X004875
X004625
X004375
X0045Y011
X00475
X005
X00525
X0055
X00575
X006
X00625
X0065
X00675
X007
X00725
X0075
X007375Y01125
X007125
X00725Y0115
X0075
X007375Y01075
X007125
X006875
X00675Y0105
X00725
X0075
X007375Y01025
X0075Y01
X007375Y00975
X0075Y0095
X007375Y00925
X007125
X0070485Y009398
X006375Y00925
X006223Y0093345
X006096
X0058674Y0095885
Y0097663
X0058547Y0099187
X005842Y0100584
X0058674Y0102616
X005625Y01025
X00575Y0105
X006
X006096Y010414
X00625Y0105
X0062992Y0103632
X006375Y01075
X006125
X005875
X005625
X004875
X004625
X004375
X004125
X00425Y011
X004
Y0105
Y01
X00425
X0045
X004625Y01025
X004875
X005Y01
X00525
X005625Y00975
X0055Y0095
X005625Y00925
X005375
X005125
X005Y0095
X004953Y0095885
X004625Y00975
Y00925
Y00875
Y00825
X004375
X004125
X00425Y0085
X004
Y008
X0050165Y0080772
X0051816
X005375Y00825
X0055245Y0085725
X005625Y00875
X005375
X0055Y009
X0056007Y0089789
X0058547Y0090297
Y0088392
X0059055Y0084074
X0060833Y0081534
X0059055Y0079756
X006375Y00825
X00675Y008
X0075
X007375Y00825
X0075Y0085
X007375Y00875
X0075Y009
X0063246Y0095885
Y0097663
X004125Y00975
X004Y0095
X00475Y0105
T02
X0051435Y009652
X0053975
Y009906
X0051435
Y01016
X0053975
Y010414
X0051435
Y010668
X0053975
T03
X0065788Y0074239
Y0077
X0068628Y00783805
Y00756195
Y00811415
Y00839025
Y00866635
Y00894245
Y00921855
Y00949465
Y00977075
Y01004685
Y01032295
Y01059905
X0065788Y0107371
Y010461
Y0101849
Y0099088
Y0096327
Y0093566
Y0090805
Y0088044
Y0085283
Y0082522
Y0079761
X0044575Y00859
Y008867
Y009144
Y009421
Y009698
X0041735Y0095595
Y0092825
Y0090055
Y0087285
T04
X0043155Y0078945
X0067208Y0067279
Y0114331
X0043155Y0103935
M30
