G04 Layer_Physical_Order=3*
G04 Layer_Color=128*
%FSAX44Y44*%
%MOMM*%
G71*
G01*
G75*
%ADD28C,1.0160*%
%ADD29C,2.0160*%
%ADD31C,2.1060*%
%ADD35C,4.0160*%
%ADD36C,1.4160*%
G04:AMPARAMS|DCode=37|XSize=1.924mm|YSize=1.924mm|CornerRadius=0mm|HoleSize=0mm|Usage=FLASHONLY|Rotation=0.000|XOffset=0mm|YOffset=0mm|HoleType=Round|Shape=Relief|Width=0.254mm|Gap=0.254mm|Entries=4|*
%AMTHD37*
7,0,0,1.9240,1.4160,0.2540,45*
%
%ADD37THD37*%
%ADD38C,4.2760*%
D28*
X00336550Y00635000D02*
X00768350D01*
Y01181100D01*
X00336550D02*
X00768350D01*
X00336550Y00635000D02*
Y01181100D01*
D29*
X00514350Y01066800D02*
D03*
X00539750D02*
D03*
X00514350Y01041400D02*
D03*
X00539750D02*
D03*
X00514350Y01016000D02*
D03*
X00539750D02*
D03*
X00514350Y00990600D02*
D03*
X00539750D02*
D03*
X00514350Y00965200D02*
D03*
X00539750D02*
D03*
D31*
X00657880Y00742390D02*
D03*
X00686280Y00756195D02*
D03*
X00657880Y00770000D02*
D03*
X00686280Y00783805D02*
D03*
X00657880Y00797610D02*
D03*
X00686280Y00811415D02*
D03*
X00657880Y00825220D02*
D03*
X00686280Y00839025D02*
D03*
X00657880Y00852830D02*
D03*
X00686280Y00866635D02*
D03*
X00657880Y00880440D02*
D03*
X00686280Y00894245D02*
D03*
X00657880Y00908050D02*
D03*
X00686280Y00921855D02*
D03*
X00657880Y00935660D02*
D03*
X00686280Y00949465D02*
D03*
X00657880Y00963270D02*
D03*
X00686280Y00977075D02*
D03*
X00657880Y00990880D02*
D03*
X00686280Y01004685D02*
D03*
X00657880Y01018490D02*
D03*
X00686280Y01032295D02*
D03*
X00657880Y01046100D02*
D03*
X00686280Y01059905D02*
D03*
X00657880Y01073710D02*
D03*
X00445750Y00859000D02*
D03*
X00417350Y00872850D02*
D03*
X00445750Y00886700D02*
D03*
X00417350Y00900550D02*
D03*
X00445750Y00914400D02*
D03*
X00417350Y00928250D02*
D03*
X00445750Y00942100D02*
D03*
X00417350Y00955950D02*
D03*
X00445750Y00969800D02*
D03*
D35*
X00386550Y01135000D02*
D03*
Y00685000D02*
D03*
X00611550D02*
D03*
Y01135000D02*
D03*
D36*
X00590550Y00797560D02*
D03*
Y00840740D02*
D03*
X00593090Y00770890D02*
D03*
X00608330Y00815340D02*
D03*
X00501650Y00807720D02*
D03*
X00586740Y00976630D02*
D03*
X00609600Y00933450D02*
D03*
X00586740Y00958850D02*
D03*
X00609600Y01041400D02*
D03*
X00584200Y01005840D02*
D03*
X00586740Y01026160D02*
D03*
X00585470Y00991870D02*
D03*
X00560070Y00897890D02*
D03*
X00495300Y00958850D02*
D03*
X00521970Y00716280D02*
D03*
X00510540D02*
D03*
X00466090Y00679450D02*
D03*
X00510540Y00659130D02*
D03*
X00581660Y00656590D02*
D03*
X00629920Y01036320D02*
D03*
X00622300Y00933450D02*
D03*
X00505085Y00768725D02*
D03*
X00516890Y00770920D02*
D03*
X00513080Y00756920D02*
D03*
X00532130Y00760730D02*
D03*
X00520700Y00749300D02*
D03*
X00511810Y00741680D02*
D03*
X00520700Y00734060D02*
D03*
X00544830Y00755650D02*
D03*
X00632460Y00781050D02*
D03*
X00585470Y00883920D02*
D03*
Y00902970D02*
D03*
X00632460Y00976630D02*
D03*
X00704850Y00939800D02*
D03*
X00511810Y00726440D02*
D03*
X00635000Y00742950D02*
D03*
X00350000Y00650000D02*
D03*
Y00700000D02*
D03*
X00362500Y00725000D02*
D03*
X00350000Y00750000D02*
D03*
X00362500Y00775000D02*
D03*
X00350000Y00800000D02*
D03*
X00362500Y00825000D02*
D03*
X00350000Y00850000D02*
D03*
X00362500Y00875000D02*
D03*
X00350000Y00900000D02*
D03*
X00362500Y00925000D02*
D03*
X00350000Y00950000D02*
D03*
X00362500Y00975000D02*
D03*
X00350000Y01000000D02*
D03*
X00362500Y01025000D02*
D03*
X00350000Y01050000D02*
D03*
X00362500Y01075000D02*
D03*
X00350000Y01100000D02*
D03*
Y01150000D02*
D03*
X00375000Y00650000D02*
D03*
X00387500Y00725000D02*
D03*
X00375000Y00750000D02*
D03*
X00387500Y00775000D02*
D03*
X00375000Y00800000D02*
D03*
X00387500Y00825000D02*
D03*
X00375000Y00850000D02*
D03*
X00387500Y00875000D02*
D03*
X00375000Y00900000D02*
D03*
X00387500Y00925000D02*
D03*
X00375000Y00950000D02*
D03*
X00387500Y00975000D02*
D03*
X00375000Y01000000D02*
D03*
X00387500Y01025000D02*
D03*
X00375000Y01050000D02*
D03*
X00387500Y01075000D02*
D03*
X00375000Y01100000D02*
D03*
X00400000Y00650000D02*
D03*
X00412500Y00725000D02*
D03*
X00400000Y00750000D02*
D03*
Y00800000D02*
D03*
X00412500Y00825000D02*
D03*
X00400000Y00850000D02*
D03*
Y00950000D02*
D03*
X00412500Y00975000D02*
D03*
X00400000Y01000000D02*
D03*
Y01050000D02*
D03*
X00412500Y01075000D02*
D03*
X00400000Y01100000D02*
D03*
X00425000Y00650000D02*
D03*
X00437500Y00675000D02*
D03*
X00425000Y00700000D02*
D03*
X00437500Y00725000D02*
D03*
X00425000Y00750000D02*
D03*
X00437500Y00825000D02*
D03*
X00425000Y00850000D02*
D03*
Y01000000D02*
D03*
X00437500Y01075000D02*
D03*
X00425000Y01100000D02*
D03*
X00437500Y01125000D02*
D03*
X00425000Y01150000D02*
D03*
X00450000Y00650000D02*
D03*
Y00700000D02*
D03*
X00462500Y00725000D02*
D03*
X00450000Y00750000D02*
D03*
X00462500Y00775000D02*
D03*
Y00825000D02*
D03*
Y00875000D02*
D03*
Y00925000D02*
D03*
Y00975000D02*
D03*
X00450000Y01000000D02*
D03*
X00462500Y01025000D02*
D03*
Y01075000D02*
D03*
X00450000Y01100000D02*
D03*
X00462500Y01125000D02*
D03*
X00450000Y01150000D02*
D03*
X00475000Y00650000D02*
D03*
Y00700000D02*
D03*
X00487500Y01025000D02*
D03*
X00475000Y01050000D02*
D03*
X00487500Y01075000D02*
D03*
X00475000Y01100000D02*
D03*
X00487500Y01125000D02*
D03*
X00475000Y01150000D02*
D03*
X00500000Y00650000D02*
D03*
X00512500Y00925000D02*
D03*
X00500000Y00950000D02*
D03*
Y01000000D02*
D03*
Y01100000D02*
D03*
X00512500Y01125000D02*
D03*
X00500000Y01150000D02*
D03*
X00525000Y00650000D02*
D03*
X00537500Y00825000D02*
D03*
Y00875000D02*
D03*
Y00925000D02*
D03*
X00525000Y01000000D02*
D03*
Y01100000D02*
D03*
X00537500Y01125000D02*
D03*
X00525000Y01150000D02*
D03*
X00550000Y00650000D02*
D03*
X00562500Y00875000D02*
D03*
X00550000Y00900000D02*
D03*
X00562500Y00925000D02*
D03*
X00550000Y00950000D02*
D03*
X00562500Y00975000D02*
D03*
Y01025000D02*
D03*
Y01075000D02*
D03*
X00550000Y01100000D02*
D03*
X00562500Y01125000D02*
D03*
X00550000Y01150000D02*
D03*
X00575000Y00650000D02*
D03*
Y01050000D02*
D03*
X00587500Y01075000D02*
D03*
X00575000Y01100000D02*
D03*
Y01150000D02*
D03*
X00600000Y00650000D02*
D03*
Y01050000D02*
D03*
X00612500Y01075000D02*
D03*
X00600000Y01100000D02*
D03*
X00625000Y00650000D02*
D03*
X00637500Y00825000D02*
D03*
Y00925000D02*
D03*
X00625000Y01050000D02*
D03*
X00637500Y01075000D02*
D03*
X00625000Y01100000D02*
D03*
X00650000Y00650000D02*
D03*
Y01100000D02*
D03*
X00675000Y00800000D02*
D03*
Y01050000D02*
D03*
X00687500Y01075000D02*
D03*
X00675000Y01100000D02*
D03*
X00700000Y00650000D02*
D03*
X00712500Y00675000D02*
D03*
X00700000Y00700000D02*
D03*
X00712500Y00925000D02*
D03*
Y01075000D02*
D03*
X00700000Y01100000D02*
D03*
X00712500Y01125000D02*
D03*
X00725000Y00650000D02*
D03*
X00737500Y00675000D02*
D03*
X00725000Y00700000D02*
D03*
X00737500Y00725000D02*
D03*
Y00775000D02*
D03*
Y00825000D02*
D03*
Y00875000D02*
D03*
Y00925000D02*
D03*
Y00975000D02*
D03*
Y01025000D02*
D03*
X00725000Y01050000D02*
D03*
X00737500Y01075000D02*
D03*
X00725000Y01100000D02*
D03*
X00737500Y01125000D02*
D03*
X00725000Y01150000D02*
D03*
X00750000Y00650000D02*
D03*
Y00700000D02*
D03*
Y00750000D02*
D03*
Y00800000D02*
D03*
Y00850000D02*
D03*
Y00900000D02*
D03*
Y00950000D02*
D03*
Y01000000D02*
D03*
Y01050000D02*
D03*
Y01100000D02*
D03*
Y01150000D02*
D03*
D37*
X00619600Y00768190D02*
D03*
X00497840Y00668020D02*
D03*
X00518160Y00807720D02*
D03*
X00552450Y00857250D02*
D03*
X00632460Y00958850D02*
D03*
X00546100Y00668020D02*
D03*
D38*
X00672080Y01143310D02*
D03*
Y00672790D02*
D03*
X00431550Y01039350D02*
D03*
Y00789450D02*
D03*
M02*
