G04 Layer_Color=16711935*
%FSAX44Y44*%
%MOMM*%
G71*
G01*
G75*
%ADD19C,0.5000*%
%ADD20C,0.2540*%
%ADD64C,0.1524*%
D19*
X00336550Y01181100D02*
X00768350D01*
Y00635000D02*
Y01181100D01*
X00336550Y00635000D02*
X00768350D01*
X00336550D02*
Y01181100D01*
D20*
X00773390Y00635000D02*
X00947420D01*
X00341590Y01181100D02*
X00947420D01*
X00944880Y00635000D02*
Y00868182D01*
Y00939790D02*
Y01181100D01*
Y00635000D02*
X00949960Y00650240D01*
X00939800D02*
X00944880Y00635000D01*
X00939800Y01165860D02*
X00944880Y01181100D01*
X00949960Y01165860D01*
X00336550Y01186140D02*
Y01303020D01*
X00768350Y01186140D02*
Y01303020D01*
X00336550Y01300480D02*
X00511313D01*
X00585459D02*
X00768350D01*
X00336550D02*
X00351790Y01295400D01*
X00336550Y01300480D02*
X00351790Y01305560D01*
X00753110D02*
X00768350Y01300480D01*
X00753110Y01295400D02*
X00768350Y01300480D01*
D64*
X00938786Y00882403D02*
Y00872246D01*
X00946404D01*
X00943865Y00877325D01*
Y00879864D01*
X00946404Y00882403D01*
X00951482D01*
X00954022Y00879864D01*
Y00874785D01*
X00951482Y00872246D01*
X00954022Y00895099D02*
X00938786D01*
X00946404Y00887481D01*
Y00897638D01*
X00954022Y00902716D02*
X00951482D01*
Y00905256D01*
X00954022D01*
Y00902716D01*
X00938786Y00925569D02*
X00941326Y00920491D01*
X00946404Y00915412D01*
X00951482D01*
X00954022Y00917952D01*
Y00923030D01*
X00951482Y00925569D01*
X00948943D01*
X00946404Y00923030D01*
Y00915412D01*
X00954022Y00930647D02*
Y00935726D01*
Y00933187D01*
X00938786D01*
X00941326Y00930647D01*
X00522994Y01291339D02*
Y01306573D01*
X00515377Y01298956D01*
X00525533D01*
X00530612Y01304034D02*
X00533151Y01306573D01*
X00538229D01*
X00540769Y01304034D01*
Y01301495D01*
X00538229Y01298956D01*
X00535690D01*
X00538229D01*
X00540769Y01296417D01*
Y01293878D01*
X00538229Y01291339D01*
X00533151D01*
X00530612Y01293878D01*
X00545847Y01291339D02*
Y01293878D01*
X00548386D01*
Y01291339D01*
X00545847D01*
X00558543D02*
X00563621D01*
X00561082D01*
Y01306573D01*
X00558543Y01304034D01*
X00571239D02*
X00573778Y01306573D01*
X00578856D01*
X00581395Y01304034D01*
Y01301495D01*
X00578856Y01298956D01*
X00581395Y01296417D01*
Y01293878D01*
X00578856Y01291339D01*
X00573778D01*
X00571239Y01293878D01*
Y01296417D01*
X00573778Y01298956D01*
X00571239Y01301495D01*
Y01304034D01*
X00573778Y01298956D02*
X00578856D01*
M02*
