G04 Layer_Color=16711935*
%FSAX44Y44*%
%MOMM*%
G71*
G01*
G75*
%ADD48R,0.9532X1.1532*%
%ADD49R,1.5032X1.1032*%
%ADD50R,1.5532X1.6532*%
%ADD54C,1.8032*%
%ADD55R,1.8032X1.8032*%
%ADD56C,1.8932*%
%ADD57R,1.8932X1.8932*%
%ADD58C,4.9632*%
%ADD59C,4.7032*%
%ADD60R,1.0532X1.5032*%
%ADD61R,1.1532X0.9532*%
%ADD62R,1.1032X1.5032*%
%ADD63R,2.1032X2.6032*%
D48*
X00637650Y00908050D02*
D03*
X00619650D02*
D03*
X00536050Y00946150D02*
D03*
X00518050D02*
D03*
D49*
X00638650Y00852170D02*
D03*
X00618650D02*
D03*
X00638650Y00797560D02*
D03*
X00618650D02*
D03*
X00530700Y00669290D02*
D03*
X00510700D02*
D03*
X00561500D02*
D03*
X00581500D02*
D03*
X00618650Y01018540D02*
D03*
X00638650D02*
D03*
D50*
X00621350Y00996950D02*
D03*
X00597850D02*
D03*
X00621350Y00883920D02*
D03*
X00597850D02*
D03*
D54*
X00514350Y01066800D02*
D03*
X00539750D02*
D03*
X00514350Y01041400D02*
D03*
X00539750D02*
D03*
X00514350Y01016000D02*
D03*
X00539750D02*
D03*
X00514350Y00990600D02*
D03*
X00539750D02*
D03*
X00514350Y00965200D02*
D03*
D55*
X00539750D02*
D03*
D56*
X00657880Y00742390D02*
D03*
X00686280Y00756195D02*
D03*
X00657880Y00770000D02*
D03*
X00686280Y00783805D02*
D03*
X00657880Y00797610D02*
D03*
X00686280Y00811415D02*
D03*
X00657880Y00825220D02*
D03*
X00686280Y00839025D02*
D03*
X00657880Y00852830D02*
D03*
X00686280Y00866635D02*
D03*
X00657880Y00880440D02*
D03*
X00686280Y00894245D02*
D03*
X00657880Y00908050D02*
D03*
X00686280Y00921855D02*
D03*
X00657880Y00935660D02*
D03*
X00686280Y00949465D02*
D03*
X00657880Y00963270D02*
D03*
X00686280Y00977075D02*
D03*
X00657880Y00990880D02*
D03*
X00686280Y01004685D02*
D03*
X00657880Y01018490D02*
D03*
X00686280Y01032295D02*
D03*
X00657880Y01046100D02*
D03*
X00686280Y01059905D02*
D03*
X00417350Y00872850D02*
D03*
X00445750Y00886700D02*
D03*
X00417350Y00900550D02*
D03*
X00445750Y00914400D02*
D03*
X00417350Y00928250D02*
D03*
X00445750Y00942100D02*
D03*
X00417350Y00955950D02*
D03*
X00445750Y00969800D02*
D03*
D57*
X00657880Y01073710D02*
D03*
X00445750Y00859000D02*
D03*
D58*
X00672080Y01143310D02*
D03*
Y00672790D02*
D03*
X00431550Y01039350D02*
D03*
Y00789450D02*
D03*
D59*
X00386550Y01135000D02*
D03*
Y00685000D02*
D03*
X00611550D02*
D03*
Y01135000D02*
D03*
D60*
X00599100Y00958850D02*
D03*
X00620100D02*
D03*
X00599100Y00976630D02*
D03*
X00620100D02*
D03*
D61*
X00398780Y00900540D02*
D03*
Y00882540D02*
D03*
X00508000Y00684420D02*
D03*
Y00702420D02*
D03*
X00495300Y00968900D02*
D03*
Y00986900D02*
D03*
D62*
X00704850Y00955200D02*
D03*
Y00975200D02*
D03*
D63*
X00572950Y00693420D02*
D03*
X00531950D02*
D03*
M02*
