G04 Layer_Physical_Order=1*
G04 Layer_Color=255*
%FSAX44Y44*%
%MOMM*%
G71*
G01*
G75*
%ADD10R,1.0000X0.6000*%
%ADD11R,0.7500X0.9500*%
%ADD12R,1.3000X0.9000*%
%ADD13R,1.3500X1.4500*%
%ADD14O,0.6000X2.2000*%
%ADD15R,1.8000X0.4500*%
%ADD16R,0.4500X1.8000*%
%ADD17C,0.2000*%
%ADD18C,1.0000*%
%ADD19C,0.5000*%
%ADD20C,0.2540*%
%ADD21C,1.6000*%
%ADD22R,1.6000X1.6000*%
%ADD23C,1.6900*%
%ADD24R,1.6900X1.6900*%
%ADD25C,4.7600*%
%ADD26C,4.5000*%
%ADD27C,0.8000*%
G36*
X00763762Y00639588D02*
X00341138D01*
Y01176512D01*
X00763762D01*
Y00639588D01*
D02*
G37*
%LPC*%
G36*
X00673350Y01169632D02*
Y01144580D01*
X00698401D01*
X00698176Y01147443D01*
X00697208Y01151475D01*
X00695622Y01155305D01*
X00693455Y01158840D01*
X00690763Y01161993D01*
X00687610Y01164685D01*
X00684075Y01166852D01*
X00680245Y01168438D01*
X00676213Y01169406D01*
X00673350Y01169632D01*
D02*
G37*
G36*
X00670810D02*
X00667947Y01169406D01*
X00663915Y01168438D01*
X00660085Y01166852D01*
X00656550Y01164685D01*
X00653397Y01161993D01*
X00650705Y01158840D01*
X00648538Y01155305D01*
X00646952Y01151475D01*
X00645984Y01147443D01*
X00645759Y01144580D01*
X00670810D01*
Y01169632D01*
D02*
G37*
G36*
X00387820Y01160036D02*
Y01136270D01*
X00411586D01*
X00411228Y01139909D01*
X00409796Y01144629D01*
X00407471Y01148979D01*
X00404342Y01152792D01*
X00400529Y01155921D01*
X00396179Y01158246D01*
X00391459Y01159678D01*
X00387820Y01160036D01*
D02*
G37*
G36*
X00385280Y01160036D02*
X00381641Y01159678D01*
X00376921Y01158246D01*
X00372571Y01155921D01*
X00368758Y01152792D01*
X00365629Y01148979D01*
X00363304Y01144629D01*
X00361872Y01139909D01*
X00361514Y01136270D01*
X00385280D01*
Y01160036D01*
D02*
G37*
G36*
X00670810Y01142040D02*
X00645759D01*
X00645984Y01139177D01*
X00646952Y01135145D01*
X00648538Y01131315D01*
X00650705Y01127780D01*
X00653397Y01124627D01*
X00656550Y01121935D01*
X00660085Y01119768D01*
X00663915Y01118182D01*
X00667947Y01117214D01*
X00670810Y01116988D01*
Y01142040D01*
D02*
G37*
G36*
X00698401D02*
X00673350D01*
Y01116988D01*
X00676213Y01117214D01*
X00680245Y01118182D01*
X00684075Y01119768D01*
X00687610Y01121935D01*
X00690763Y01124627D01*
X00693455Y01127780D01*
X00695622Y01131315D01*
X00697208Y01135145D01*
X00698176Y01139177D01*
X00698401Y01142040D01*
D02*
G37*
G36*
X00611550Y01159619D02*
X00606747Y01159146D01*
X00602129Y01157745D01*
X00597873Y01155470D01*
X00594142Y01152408D01*
X00591080Y01148677D01*
X00588806Y01144421D01*
X00587405Y01139803D01*
X00586931Y01135000D01*
X00587405Y01130197D01*
X00588806Y01125579D01*
X00591080Y01121323D01*
X00594142Y01117592D01*
X00597873Y01114530D01*
X00602129Y01112255D01*
X00606747Y01110854D01*
X00611550Y01110381D01*
X00616353Y01110854D01*
X00620971Y01112255D01*
X00625227Y01114530D01*
X00628958Y01117592D01*
X00632020Y01121323D01*
X00634295Y01125579D01*
X00635695Y01130197D01*
X00636169Y01135000D01*
X00635695Y01139803D01*
X00634295Y01144421D01*
X00632020Y01148677D01*
X00628958Y01152408D01*
X00625227Y01155470D01*
X00620971Y01157745D01*
X00616353Y01159146D01*
X00611550Y01159619D01*
D02*
G37*
G36*
X00411586Y01133730D02*
X00387820D01*
Y01109964D01*
X00391459Y01110322D01*
X00396179Y01111754D01*
X00400529Y01114079D01*
X00404342Y01117208D01*
X00407471Y01121021D01*
X00409796Y01125371D01*
X00411228Y01130091D01*
X00411586Y01133730D01*
D02*
G37*
G36*
X00385280D02*
X00361514D01*
X00361872Y01130091D01*
X00363304Y01125371D01*
X00365629Y01121021D01*
X00368758Y01117208D01*
X00372571Y01114079D01*
X00376921Y01111754D01*
X00381641Y01110322D01*
X00385280Y01109964D01*
Y01133730D01*
D02*
G37*
G36*
X00541020Y01077264D02*
Y01068070D01*
X00550214D01*
X00550019Y01069551D01*
X00548957Y01072115D01*
X00547267Y01074317D01*
X00545065Y01076007D01*
X00542501Y01077069D01*
X00541020Y01077264D01*
D02*
G37*
G36*
X00538480D02*
X00536998Y01077069D01*
X00534435Y01076007D01*
X00532233Y01074317D01*
X00530543Y01072115D01*
X00529481Y01069551D01*
X00529286Y01068070D01*
X00538480D01*
Y01077264D01*
D02*
G37*
G36*
X00668330Y01084160D02*
X00647430D01*
Y01063260D01*
X00668330D01*
Y01084160D01*
D02*
G37*
G36*
X00514350Y01076886D02*
X00511740Y01076543D01*
X00509307Y01075535D01*
X00507218Y01073932D01*
X00505615Y01071843D01*
X00504607Y01069410D01*
X00504264Y01066800D01*
X00504607Y01064190D01*
X00505615Y01061757D01*
X00507218Y01059668D01*
X00509307Y01058065D01*
X00511740Y01057057D01*
X00514350Y01056714D01*
X00516960Y01057057D01*
X00519393Y01058065D01*
X00521482Y01059668D01*
X00523085Y01061757D01*
X00524093Y01064190D01*
X00524436Y01066800D01*
X00524093Y01069410D01*
X00523085Y01071843D01*
X00521482Y01073932D01*
X00519393Y01075535D01*
X00516960Y01076543D01*
X00514350Y01076886D01*
D02*
G37*
G36*
X00550214Y01065530D02*
X00541020D01*
Y01056336D01*
X00542501Y01056531D01*
X00545065Y01057593D01*
X00547267Y01059283D01*
X00548957Y01061485D01*
X00550019Y01064048D01*
X00550214Y01065530D01*
D02*
G37*
G36*
X00538480D02*
X00529286D01*
X00529481Y01064048D01*
X00530543Y01061485D01*
X00532233Y01059283D01*
X00534435Y01057593D01*
X00536998Y01056531D01*
X00538480Y01056336D01*
Y01065530D01*
D02*
G37*
G36*
X00686280Y01070445D02*
X00683552Y01070086D01*
X00681010Y01069033D01*
X00678827Y01067358D01*
X00677152Y01065175D01*
X00676099Y01062633D01*
X00675740Y01059905D01*
X00676099Y01057177D01*
X00677152Y01054635D01*
X00678827Y01052452D01*
X00681010Y01050777D01*
X00683552Y01049724D01*
X00686280Y01049365D01*
X00689008Y01049724D01*
X00691550Y01050777D01*
X00693733Y01052452D01*
X00695408Y01054635D01*
X00696461Y01057177D01*
X00696820Y01059905D01*
X00696461Y01062633D01*
X00695408Y01065175D01*
X00693733Y01067358D01*
X00691550Y01069033D01*
X00689008Y01070086D01*
X00686280Y01070445D01*
D02*
G37*
G36*
X00659150Y01057018D02*
Y01047370D01*
X00668798D01*
X00668587Y01048969D01*
X00667480Y01051642D01*
X00665718Y01053938D01*
X00663422Y01055700D01*
X00660749Y01056807D01*
X00659150Y01057018D01*
D02*
G37*
G36*
X00656610D02*
X00655011Y01056807D01*
X00652338Y01055700D01*
X00650042Y01053938D01*
X00648280Y01051642D01*
X00647173Y01048969D01*
X00646962Y01047370D01*
X00656610D01*
Y01057018D01*
D02*
G37*
G36*
X00432820Y01065671D02*
Y01040620D01*
X00457872D01*
X00457646Y01043483D01*
X00456678Y01047515D01*
X00455092Y01051345D01*
X00452925Y01054880D01*
X00450233Y01058033D01*
X00447080Y01060725D01*
X00443545Y01062892D01*
X00439715Y01064478D01*
X00435683Y01065446D01*
X00432820Y01065671D01*
D02*
G37*
G36*
X00430280D02*
X00427417Y01065446D01*
X00423385Y01064478D01*
X00419555Y01062892D01*
X00416020Y01060725D01*
X00412867Y01058033D01*
X00410175Y01054880D01*
X00408008Y01051345D01*
X00406422Y01047515D01*
X00405454Y01043483D01*
X00405229Y01040620D01*
X00430280D01*
Y01065671D01*
D02*
G37*
G36*
X00668798Y01044830D02*
X00659150D01*
Y01035182D01*
X00660749Y01035393D01*
X00663422Y01036500D01*
X00665718Y01038262D01*
X00667480Y01040557D01*
X00668587Y01043231D01*
X00668798Y01044830D01*
D02*
G37*
G36*
X00656610D02*
X00646962D01*
X00647173Y01043231D01*
X00648280Y01040557D01*
X00650042Y01038262D01*
X00652338Y01036500D01*
X00655011Y01035393D01*
X00656610Y01035182D01*
Y01044830D01*
D02*
G37*
G36*
X00539750Y01051486D02*
X00537140Y01051143D01*
X00534707Y01050135D01*
X00532618Y01048532D01*
X00531015Y01046443D01*
X00530007Y01044010D01*
X00529664Y01041400D01*
X00530007Y01038790D01*
X00531015Y01036357D01*
X00532618Y01034268D01*
X00534707Y01032665D01*
X00537140Y01031657D01*
X00539750Y01031314D01*
X00542360Y01031657D01*
X00544793Y01032665D01*
X00546882Y01034268D01*
X00548485Y01036357D01*
X00549493Y01038790D01*
X00549836Y01041400D01*
X00549493Y01044010D01*
X00548485Y01046443D01*
X00546882Y01048532D01*
X00544793Y01050135D01*
X00542360Y01051143D01*
X00539750Y01051486D01*
D02*
G37*
G36*
X00514350D02*
X00511740Y01051143D01*
X00509307Y01050135D01*
X00507218Y01048532D01*
X00505615Y01046443D01*
X00504607Y01044010D01*
X00504264Y01041400D01*
X00504607Y01038790D01*
X00505615Y01036357D01*
X00507218Y01034268D01*
X00509307Y01032665D01*
X00511740Y01031657D01*
X00514350Y01031314D01*
X00516960Y01031657D01*
X00519393Y01032665D01*
X00521482Y01034268D01*
X00523085Y01036357D01*
X00524093Y01038790D01*
X00524436Y01041400D01*
X00524093Y01044010D01*
X00523085Y01046443D01*
X00521482Y01048532D01*
X00519393Y01050135D01*
X00516960Y01051143D01*
X00514350Y01051486D01*
D02*
G37*
G36*
X00608640Y01033200D02*
X00600870D01*
Y01027430D01*
X00608640D01*
Y01033200D01*
D02*
G37*
G36*
X00598330D02*
X00590560D01*
Y01027430D01*
X00598330D01*
Y01033200D01*
D02*
G37*
G36*
X00686280Y01042835D02*
X00683552Y01042476D01*
X00681010Y01041423D01*
X00678827Y01039748D01*
X00677152Y01037565D01*
X00676099Y01035023D01*
X00675740Y01032295D01*
X00676099Y01029567D01*
X00677152Y01027025D01*
X00678827Y01024842D01*
X00681010Y01023167D01*
X00683552Y01022114D01*
X00686280Y01021755D01*
X00689008Y01022114D01*
X00691550Y01023167D01*
X00693733Y01024842D01*
X00695408Y01027025D01*
X00696461Y01029567D01*
X00696820Y01032295D01*
X00696461Y01035023D01*
X00695408Y01037565D01*
X00693733Y01039748D01*
X00691550Y01041423D01*
X00689008Y01042476D01*
X00686280Y01042835D01*
D02*
G37*
G36*
X00608640Y01024890D02*
X00600870D01*
Y01019120D01*
X00608640D01*
Y01024890D01*
D02*
G37*
G36*
X00598330D02*
X00590560D01*
Y01019120D01*
X00598330D01*
Y01024890D01*
D02*
G37*
G36*
X00541020Y01026464D02*
Y01017270D01*
X00550214D01*
X00550019Y01018752D01*
X00548957Y01021316D01*
X00547267Y01023517D01*
X00545065Y01025207D01*
X00542501Y01026269D01*
X00541020Y01026464D01*
D02*
G37*
G36*
X00538480D02*
X00536998Y01026269D01*
X00534435Y01025207D01*
X00532233Y01023517D01*
X00530543Y01021316D01*
X00529481Y01018752D01*
X00529286Y01017270D01*
X00538480D01*
Y01026464D01*
D02*
G37*
G36*
X00457872Y01038080D02*
X00432820D01*
Y01013028D01*
X00435683Y01013254D01*
X00439715Y01014222D01*
X00443545Y01015808D01*
X00447080Y01017975D01*
X00450233Y01020667D01*
X00452925Y01023820D01*
X00455092Y01027355D01*
X00456678Y01031185D01*
X00457646Y01035217D01*
X00457872Y01038080D01*
D02*
G37*
G36*
X00430280D02*
X00405229D01*
X00405454Y01035217D01*
X00406422Y01031185D01*
X00408008Y01027355D01*
X00410175Y01023820D01*
X00412867Y01020667D01*
X00416020Y01017975D01*
X00419555Y01015808D01*
X00423385Y01014222D01*
X00427417Y01013254D01*
X00430280Y01013028D01*
Y01038080D01*
D02*
G37*
G36*
X00514350Y01026086D02*
X00511740Y01025743D01*
X00509307Y01024735D01*
X00507218Y01023132D01*
X00505615Y01021043D01*
X00504607Y01018611D01*
X00504264Y01016000D01*
X00504607Y01013390D01*
X00505615Y01010957D01*
X00507218Y01008868D01*
X00509307Y01007265D01*
X00511740Y01006257D01*
X00514350Y01005914D01*
X00516960Y01006257D01*
X00519393Y01007265D01*
X00521482Y01008868D01*
X00523085Y01010957D01*
X00524093Y01013390D01*
X00524436Y01016000D01*
X00524093Y01018611D01*
X00523085Y01021043D01*
X00521482Y01023132D01*
X00519393Y01024735D01*
X00516960Y01025743D01*
X00514350Y01026086D01*
D02*
G37*
G36*
X00550214Y01014730D02*
X00541020D01*
Y01005536D01*
X00542501Y01005731D01*
X00545065Y01006793D01*
X00547267Y01008483D01*
X00548957Y01010685D01*
X00550019Y01013249D01*
X00550214Y01014730D01*
D02*
G37*
G36*
X00538480D02*
X00529286D01*
X00529481Y01013249D01*
X00530543Y01010685D01*
X00532233Y01008483D01*
X00534435Y01006793D01*
X00536998Y01005731D01*
X00538480Y01005536D01*
Y01014730D01*
D02*
G37*
G36*
X00609600Y01047517D02*
X00607259Y01047052D01*
X00605274Y01045726D01*
X00603948Y01043741D01*
X00603483Y01041400D01*
X00603948Y01039059D01*
X00605274Y01037074D01*
X00607259Y01035748D01*
X00609600Y01035283D01*
X00611941Y01035748D01*
X00613533Y01036812D01*
X00614049D01*
X00615012Y01035850D01*
Y01032660D01*
X00611100D01*
Y01019660D01*
X00628100D01*
Y01019832D01*
X00629273Y01020318D01*
X00631682Y01017909D01*
Y01003931D01*
X00629870Y01002119D01*
X00628600Y01002645D01*
Y01011450D01*
X00614600D01*
Y01001450D01*
Y00991722D01*
X00613330Y00991196D01*
X00611389Y00993137D01*
Y00998463D01*
X00611156Y00999633D01*
X00610493Y01000626D01*
X00610493Y01000626D01*
X00604600Y01006518D01*
Y01011450D01*
X00590600D01*
Y01009509D01*
X00588965D01*
X00588526Y01010166D01*
X00586541Y01011492D01*
X00584200Y01011957D01*
X00581859Y01011492D01*
X00579874Y01010166D01*
X00578548Y01008181D01*
X00578083Y01005840D01*
X00578548Y01003499D01*
X00579874Y01001514D01*
X00581859Y01000188D01*
X00584200Y00999723D01*
X00586541Y01000188D01*
X00588526Y01001514D01*
X00588790Y01001910D01*
X00590060Y01001525D01*
Y00998220D01*
X00597600D01*
Y00995680D01*
X00590060D01*
Y00991410D01*
X00590060Y00991410D01*
X00589922Y00990197D01*
X00589047Y00989613D01*
X00589047Y00989613D01*
X00584577Y00985143D01*
X00583914Y00984150D01*
X00583681Y00982980D01*
X00583681Y00982980D01*
Y00981802D01*
X00582414Y00980956D01*
X00581088Y00978971D01*
X00580622Y00976630D01*
X00581088Y00974289D01*
X00582414Y00972304D01*
X00584399Y00970978D01*
X00586740Y00970512D01*
X00589081Y00970978D01*
X00591066Y00972304D01*
X00592392Y00974289D01*
X00592858Y00976630D01*
X00592392Y00978971D01*
X00591066Y00980956D01*
X00590730Y00981180D01*
X00591115Y00982450D01*
X00604600D01*
Y00989767D01*
X00605870Y00990152D01*
X00606167Y00989707D01*
X00610587Y00985287D01*
X00610587Y00985287D01*
X00611579Y00984624D01*
X00612750Y00984391D01*
X00614600D01*
Y00982450D01*
X00628600D01*
Y00992362D01*
X00631190D01*
X00632946Y00992711D01*
X00634434Y00993706D01*
X00639514Y00998786D01*
X00640509Y01000274D01*
X00640831Y01001895D01*
X00642101Y01001769D01*
Y00882647D01*
X00636273Y00876819D01*
X00629121D01*
X00628100Y00877420D01*
X00628100Y00878089D01*
Y00890420D01*
X00611100D01*
Y00878089D01*
X00611100Y00877420D01*
X00610079Y00876819D01*
X00609885D01*
X00608640Y00876880D01*
X00608640Y00878089D01*
Y00882650D01*
X00599600D01*
X00590560D01*
Y00876880D01*
X00597206D01*
X00597234Y00876844D01*
X00597664Y00875610D01*
X00595437Y00873383D01*
X00594774Y00872391D01*
X00594647Y00871750D01*
X00590600D01*
Y00862790D01*
X00590060D01*
Y00858520D01*
X00597600D01*
Y00855980D01*
X00590060D01*
Y00851710D01*
X00590600D01*
Y00846899D01*
X00590550Y00846858D01*
X00588209Y00846392D01*
X00587460Y00845891D01*
X00586190Y00846570D01*
Y00854340D01*
X00578170D01*
Y00844550D01*
X00576900D01*
Y00843280D01*
X00567610D01*
Y00834760D01*
Y00826770D01*
X00576900D01*
Y00825500D01*
D01*
Y00826770D01*
X00586190D01*
Y00834910D01*
X00587460Y00835589D01*
X00588209Y00835088D01*
X00590550Y00834622D01*
X00592891Y00835088D01*
X00593730Y00835649D01*
X00594850Y00835050D01*
Y00825100D01*
X00606350D01*
Y00828903D01*
X00606960Y00829024D01*
X00607953Y00829687D01*
X00610493Y00832227D01*
X00610493Y00832227D01*
X00611156Y00833219D01*
X00611389Y00834390D01*
Y00862330D01*
X00611389Y00862330D01*
X00611156Y00863501D01*
X00610493Y00864493D01*
X00610493Y00864493D01*
X00606073Y00868913D01*
X00605297Y00869431D01*
X00605409Y00870439D01*
X00605508Y00870701D01*
X00614600D01*
Y00861750D01*
Y00852250D01*
Y00842750D01*
X00615832D01*
X00616261Y00841480D01*
X00615774Y00840751D01*
X00615541Y00839580D01*
X00614785Y00838600D01*
X00612850D01*
Y00825100D01*
X00615541D01*
Y00822090D01*
X00612850D01*
Y00808590D01*
X00624350D01*
Y00822090D01*
X00621659D01*
Y00825100D01*
X00624350D01*
Y00838600D01*
X00623605D01*
X00623119Y00839773D01*
X00623763Y00840417D01*
X00623763Y00840417D01*
X00624426Y00841410D01*
X00624659Y00842580D01*
X00625889Y00842750D01*
X00628600D01*
Y00852662D01*
X00636047D01*
X00636358Y00852258D01*
X00637820Y00851135D01*
X00639523Y00850430D01*
X00641350Y00850190D01*
X00647688D01*
X00647699Y00850102D01*
X00648752Y00847560D01*
X00650427Y00845377D01*
X00650820Y00845076D01*
Y00832974D01*
X00650427Y00832673D01*
X00648752Y00830490D01*
X00647699Y00827948D01*
X00647340Y00825220D01*
X00647699Y00822492D01*
X00648752Y00819950D01*
X00650427Y00817767D01*
X00652610Y00816092D01*
X00655152Y00815039D01*
X00657880Y00814680D01*
X00660608Y00815039D01*
X00663150Y00816092D01*
X00665333Y00817767D01*
X00667008Y00819950D01*
X00668061Y00822492D01*
X00668420Y00825220D01*
X00668061Y00827948D01*
X00667008Y00830490D01*
X00665333Y00832673D01*
X00664940Y00832974D01*
Y00845076D01*
X00665333Y00845377D01*
X00667008Y00847560D01*
X00668061Y00850102D01*
X00668420Y00852830D01*
X00668061Y00855558D01*
X00667008Y00858100D01*
X00665333Y00860283D01*
X00663150Y00861958D01*
X00660608Y00863011D01*
X00657880Y00863370D01*
X00657114Y00863269D01*
X00656990Y00863364D01*
X00655287Y00864070D01*
X00653460Y00864310D01*
X00641350D01*
X00639523Y00864070D01*
X00637820Y00863364D01*
X00636358Y00862242D01*
X00636047Y00861838D01*
X00628600D01*
Y00870701D01*
X00637540D01*
X00637540Y00870701D01*
X00638711Y00870934D01*
X00639703Y00871597D01*
X00646348Y00878242D01*
X00647689Y00877787D01*
X00647699Y00877712D01*
X00648752Y00875170D01*
X00650427Y00872987D01*
X00652610Y00871312D01*
X00655152Y00870259D01*
X00657880Y00869900D01*
X00660608Y00870259D01*
X00663150Y00871312D01*
X00665333Y00872987D01*
X00667008Y00875170D01*
X00668061Y00877712D01*
X00668420Y00880440D01*
X00668061Y00883168D01*
X00667008Y00885710D01*
X00665333Y00887893D01*
X00663150Y00889568D01*
X00660608Y00890621D01*
X00657880Y00890980D01*
X00655152Y00890621D01*
X00652610Y00889568D01*
X00650427Y00887893D01*
X00649489Y00886670D01*
X00648219Y00887101D01*
Y00901388D01*
X00649489Y00901820D01*
X00650427Y00900597D01*
X00652610Y00898922D01*
X00655152Y00897869D01*
X00657880Y00897510D01*
X00660608Y00897869D01*
X00663150Y00898922D01*
X00665333Y00900597D01*
X00667008Y00902780D01*
X00668061Y00905322D01*
X00668420Y00908050D01*
X00668061Y00910778D01*
X00667008Y00913320D01*
X00665333Y00915503D01*
X00663150Y00917178D01*
X00660608Y00918231D01*
X00657880Y00918590D01*
X00655152Y00918231D01*
X00652610Y00917178D01*
X00650427Y00915503D01*
X00649489Y00914280D01*
X00648219Y00914711D01*
Y00928111D01*
X00649489Y00928543D01*
X00650042Y00927822D01*
X00652338Y00926060D01*
X00655011Y00924953D01*
X00656610Y00924742D01*
Y00935660D01*
Y00946578D01*
X00655011Y00946367D01*
X00652338Y00945260D01*
X00650042Y00943498D01*
X00649489Y00942777D01*
X00648219Y00943208D01*
Y00955722D01*
X00649489Y00956153D01*
X00650042Y00955432D01*
X00652338Y00953670D01*
X00655011Y00952563D01*
X00656610Y00952352D01*
Y00963270D01*
Y00974188D01*
X00655011Y00973977D01*
X00652338Y00972870D01*
X00650042Y00971108D01*
X00649489Y00970387D01*
X00648219Y00970818D01*
Y00983331D01*
X00649489Y00983763D01*
X00650042Y00983042D01*
X00652338Y00981280D01*
X00655011Y00980173D01*
X00656610Y00979962D01*
Y00990880D01*
Y01001798D01*
X00655011Y01001587D01*
X00652338Y01000480D01*
X00650042Y00998718D01*
X00649489Y00997997D01*
X00648219Y00998428D01*
Y01004503D01*
X00652941Y01009225D01*
X00655152Y01008309D01*
X00657880Y01007950D01*
X00660608Y01008309D01*
X00663150Y01009362D01*
X00665333Y01011037D01*
X00667008Y01013220D01*
X00668061Y01015762D01*
X00668420Y01018490D01*
X00668061Y01021218D01*
X00667008Y01023760D01*
X00665333Y01025943D01*
X00663150Y01027618D01*
X00660608Y01028671D01*
X00657880Y01029030D01*
X00655152Y01028671D01*
X00652610Y01027618D01*
X00650427Y01025943D01*
X00648752Y01023760D01*
X00647699Y01021218D01*
X00647340Y01018490D01*
X00647699Y01015762D01*
X00648615Y01013551D01*
X00642997Y01007933D01*
X00642334Y01006941D01*
X00642128Y01005906D01*
X00640858Y01006031D01*
Y01019810D01*
X00640509Y01021566D01*
X00639514Y01023054D01*
X00633164Y01029404D01*
X00631676Y01030399D01*
X00629920Y01030748D01*
X00628100D01*
Y01032660D01*
X00624188D01*
Y01037750D01*
X00623839Y01039506D01*
X00622844Y01040994D01*
X00619194Y01044644D01*
X00617706Y01045639D01*
X00615950Y01045988D01*
X00613533D01*
X00611941Y01047052D01*
X00609600Y01047517D01*
D02*
G37*
G36*
X00686280Y01015225D02*
X00683552Y01014866D01*
X00681010Y01013813D01*
X00678827Y01012138D01*
X00677152Y01009955D01*
X00676099Y01007413D01*
X00675740Y01004685D01*
X00676099Y01001957D01*
X00677152Y00999415D01*
X00678827Y00997232D01*
X00681010Y00995557D01*
X00683552Y00994504D01*
X00686280Y00994145D01*
X00689008Y00994504D01*
X00691550Y00995557D01*
X00693733Y00997232D01*
X00695408Y00999415D01*
X00696461Y01001957D01*
X00696820Y01004685D01*
X00696461Y01007413D01*
X00695408Y01009955D01*
X00693733Y01012138D01*
X00691550Y01013813D01*
X00689008Y01014866D01*
X00686280Y01015225D01*
D02*
G37*
G36*
X00659150Y01001798D02*
Y00992150D01*
X00668798D01*
X00668587Y00993749D01*
X00667480Y00996422D01*
X00665718Y00998718D01*
X00663422Y01000480D01*
X00660749Y01001587D01*
X00659150Y01001798D01*
D02*
G37*
G36*
X00541020Y01001064D02*
Y00991870D01*
X00550214D01*
X00550019Y00993352D01*
X00548957Y00995916D01*
X00547267Y00998117D01*
X00545065Y00999807D01*
X00542501Y01000869D01*
X00541020Y01001064D01*
D02*
G37*
G36*
X00538480D02*
X00536998Y01000869D01*
X00534435Y00999807D01*
X00532233Y00998117D01*
X00530543Y00995916D01*
X00529481Y00993352D01*
X00529286Y00991870D01*
X00538480D01*
Y01001064D01*
D02*
G37*
G36*
X00514350Y01000686D02*
X00511740Y01000343D01*
X00509307Y00999335D01*
X00507218Y00997732D01*
X00505615Y00995643D01*
X00504607Y00993211D01*
X00504264Y00990600D01*
X00504607Y00987990D01*
X00505615Y00985557D01*
X00507218Y00983468D01*
X00509307Y00981865D01*
X00511740Y00980857D01*
X00514350Y00980514D01*
X00516960Y00980857D01*
X00519393Y00981865D01*
X00521482Y00983468D01*
X00523085Y00985557D01*
X00524093Y00987990D01*
X00524436Y00990600D01*
X00524093Y00993211D01*
X00523085Y00995643D01*
X00521482Y00997732D01*
X00519393Y00999335D01*
X00516960Y01000343D01*
X00514350Y01000686D01*
D02*
G37*
G36*
X00550214Y00989330D02*
X00541020D01*
Y00980136D01*
X00542501Y00980331D01*
X00545065Y00981393D01*
X00547267Y00983083D01*
X00548957Y00985285D01*
X00550019Y00987849D01*
X00550214Y00989330D01*
D02*
G37*
G36*
X00538480D02*
X00529286D01*
X00529481Y00987849D01*
X00530543Y00985285D01*
X00532233Y00983083D01*
X00534435Y00981393D01*
X00536998Y00980331D01*
X00538480Y00980136D01*
Y00989330D01*
D02*
G37*
G36*
X00668798Y00989610D02*
X00659150D01*
Y00979962D01*
X00660749Y00980173D01*
X00663422Y00981280D01*
X00665718Y00983042D01*
X00667480Y00985338D01*
X00668587Y00988011D01*
X00668798Y00989610D01*
D02*
G37*
G36*
X00686280Y00987615D02*
X00683552Y00987256D01*
X00681010Y00986203D01*
X00678827Y00984528D01*
X00677152Y00982345D01*
X00676099Y00979803D01*
X00675740Y00977075D01*
X00676099Y00974347D01*
X00677152Y00971805D01*
X00678827Y00969622D01*
X00681010Y00967947D01*
X00683552Y00966894D01*
X00686280Y00966535D01*
X00689008Y00966894D01*
X00691550Y00967947D01*
X00693733Y00969622D01*
X00695408Y00971805D01*
X00696461Y00974347D01*
X00696820Y00977075D01*
X00696461Y00979803D01*
X00695408Y00982345D01*
X00693733Y00984528D01*
X00691550Y00986203D01*
X00689008Y00987256D01*
X00686280Y00987615D01*
D02*
G37*
G36*
X00659150Y00974188D02*
Y00964540D01*
X00668798D01*
X00668587Y00966139D01*
X00667480Y00968812D01*
X00665718Y00971108D01*
X00663422Y00972870D01*
X00660749Y00973977D01*
X00659150Y00974188D01*
D02*
G37*
G36*
X00608640Y00965890D02*
X00600870D01*
Y00960120D01*
X00608640D01*
Y00965890D01*
D02*
G37*
G36*
X00598330D02*
X00590560D01*
Y00960120D01*
X00598330D01*
Y00965890D01*
D02*
G37*
G36*
X00445750Y00980340D02*
X00443022Y00979981D01*
X00440480Y00978928D01*
X00438297Y00977253D01*
X00436622Y00975070D01*
X00435569Y00972528D01*
X00435210Y00969800D01*
X00435569Y00967072D01*
X00436622Y00964530D01*
X00438297Y00962347D01*
X00440480Y00960672D01*
X00443022Y00959619D01*
X00445750Y00959260D01*
X00448478Y00959619D01*
X00451020Y00960672D01*
X00453203Y00962347D01*
X00454878Y00964530D01*
X00455931Y00967072D01*
X00456290Y00969800D01*
X00455931Y00972528D01*
X00454878Y00975070D01*
X00453203Y00977253D01*
X00451020Y00978928D01*
X00448478Y00979981D01*
X00445750Y00980340D01*
D02*
G37*
G36*
X00549750Y00975200D02*
X00529750D01*
Y00955200D01*
X00549750D01*
Y00975200D01*
D02*
G37*
G36*
X00514350Y00975286D02*
X00511740Y00974943D01*
X00509307Y00973935D01*
X00507218Y00972332D01*
X00505615Y00970243D01*
X00504607Y00967811D01*
X00504264Y00965200D01*
X00504607Y00962589D01*
X00505615Y00960157D01*
X00507218Y00958068D01*
X00509307Y00956465D01*
X00511740Y00955457D01*
X00514350Y00955114D01*
X00516960Y00955457D01*
X00519393Y00956465D01*
X00521482Y00958068D01*
X00523085Y00960157D01*
X00524093Y00962589D01*
X00524436Y00965200D01*
X00524093Y00967811D01*
X00523085Y00970243D01*
X00521482Y00972332D01*
X00519393Y00973935D01*
X00516960Y00974943D01*
X00514350Y00975286D01*
D02*
G37*
G36*
X00628100Y00965350D02*
X00611100D01*
Y00952350D01*
X00618541D01*
Y00947950D01*
X00614600D01*
Y00937950D01*
X00616563D01*
X00617242Y00936680D01*
X00616648Y00935791D01*
X00616183Y00933450D01*
X00616648Y00931109D01*
X00617242Y00930220D01*
X00616563Y00928950D01*
X00614600D01*
Y00918950D01*
X00617012D01*
Y00912220D01*
X00612600D01*
Y00893720D01*
X00630100D01*
Y00912220D01*
X00626188D01*
Y00918950D01*
X00628600D01*
Y00928950D01*
X00628037D01*
X00627358Y00930220D01*
X00627952Y00931109D01*
X00628418Y00933450D01*
X00627952Y00935791D01*
X00627358Y00936680D01*
X00628037Y00937950D01*
X00628600D01*
Y00947950D01*
X00624659D01*
Y00952350D01*
X00628100D01*
Y00953020D01*
X00629370Y00953699D01*
X00630119Y00953198D01*
X00632460Y00952732D01*
X00634801Y00953198D01*
X00636786Y00954524D01*
X00638112Y00956509D01*
X00638577Y00958850D01*
X00638112Y00961191D01*
X00636786Y00963176D01*
X00634801Y00964502D01*
X00632460Y00964967D01*
X00630119Y00964502D01*
X00629370Y00964001D01*
X00628100Y00964680D01*
Y00965350D01*
D02*
G37*
G36*
X00668798Y00962000D02*
X00659150D01*
Y00952352D01*
X00660749Y00952563D01*
X00663422Y00953670D01*
X00665718Y00955432D01*
X00667480Y00957728D01*
X00668587Y00960401D01*
X00668798Y00962000D01*
D02*
G37*
G36*
X00608640Y00957580D02*
X00600870D01*
Y00951810D01*
X00608640D01*
Y00957580D01*
D02*
G37*
G36*
X00598330D02*
X00590560D01*
Y00951810D01*
X00598330D01*
Y00957580D01*
D02*
G37*
G36*
X00417350Y00966490D02*
X00414622Y00966131D01*
X00412080Y00965078D01*
X00409897Y00963403D01*
X00408222Y00961220D01*
X00407169Y00958678D01*
X00406810Y00955950D01*
X00407169Y00953222D01*
X00408222Y00950680D01*
X00409897Y00948497D01*
X00412080Y00946822D01*
X00414622Y00945769D01*
X00417350Y00945410D01*
X00420078Y00945769D01*
X00422620Y00946822D01*
X00424803Y00948497D01*
X00426478Y00950680D01*
X00427531Y00953222D01*
X00427890Y00955950D01*
X00427531Y00958678D01*
X00426478Y00961220D01*
X00424803Y00963403D01*
X00422620Y00965078D01*
X00420078Y00966131D01*
X00417350Y00966490D01*
D02*
G37*
G36*
X00686280Y00960005D02*
X00683552Y00959646D01*
X00681010Y00958593D01*
X00678827Y00956918D01*
X00677152Y00954735D01*
X00676099Y00952193D01*
X00675740Y00949465D01*
X00676099Y00946737D01*
X00677152Y00944195D01*
X00678827Y00942012D01*
X00681010Y00940337D01*
X00683552Y00939284D01*
X00686280Y00938925D01*
X00689008Y00939284D01*
X00691550Y00940337D01*
X00693733Y00942012D01*
X00695408Y00944195D01*
X00696461Y00946737D01*
X00696820Y00949465D01*
X00696461Y00952193D01*
X00695408Y00954735D01*
X00693733Y00956918D01*
X00691550Y00958593D01*
X00689008Y00959646D01*
X00686280Y00960005D01*
D02*
G37*
G36*
X00659150Y00946578D02*
Y00936930D01*
X00668798D01*
X00668587Y00938529D01*
X00667480Y00941202D01*
X00665718Y00943498D01*
X00663422Y00945260D01*
X00660749Y00946367D01*
X00659150Y00946578D01*
D02*
G37*
G36*
X00604600Y00947950D02*
X00590600D01*
Y00938990D01*
X00590060D01*
Y00934720D01*
X00597600D01*
X00605140D01*
Y00938990D01*
X00604600D01*
Y00947950D01*
D02*
G37*
G36*
X00445750Y00952640D02*
X00443022Y00952281D01*
X00440480Y00951228D01*
X00438297Y00949553D01*
X00436622Y00947370D01*
X00435569Y00944828D01*
X00435210Y00942100D01*
X00435569Y00939372D01*
X00436622Y00936830D01*
X00438297Y00934647D01*
X00440480Y00932972D01*
X00443022Y00931919D01*
X00445750Y00931560D01*
X00448478Y00931919D01*
X00451020Y00932972D01*
X00453203Y00934647D01*
X00454878Y00936830D01*
X00455931Y00939372D01*
X00456290Y00942100D01*
X00455931Y00944828D01*
X00454878Y00947370D01*
X00453203Y00949553D01*
X00451020Y00951228D01*
X00448478Y00952281D01*
X00445750Y00952640D01*
D02*
G37*
G36*
X00668798Y00934390D02*
X00659150D01*
Y00924742D01*
X00660749Y00924953D01*
X00663422Y00926060D01*
X00665718Y00927822D01*
X00667480Y00930118D01*
X00668587Y00932791D01*
X00668798Y00934390D01*
D02*
G37*
G36*
X00605140Y00932180D02*
X00597600D01*
X00590060D01*
Y00927910D01*
X00590600D01*
Y00918950D01*
X00604600D01*
Y00927910D01*
X00605140D01*
Y00932180D01*
D02*
G37*
G36*
X00417350Y00938790D02*
X00414622Y00938431D01*
X00412080Y00937378D01*
X00409897Y00935703D01*
X00408222Y00933520D01*
X00407169Y00930978D01*
X00406810Y00928250D01*
X00407169Y00925522D01*
X00408222Y00922980D01*
X00409897Y00920797D01*
X00412080Y00919122D01*
X00414622Y00918069D01*
X00417350Y00917710D01*
X00420078Y00918069D01*
X00422620Y00919122D01*
X00424803Y00920797D01*
X00426478Y00922980D01*
X00427531Y00925522D01*
X00427890Y00928250D01*
X00427531Y00930978D01*
X00426478Y00933520D01*
X00424803Y00935703D01*
X00422620Y00937378D01*
X00420078Y00938431D01*
X00417350Y00938790D01*
D02*
G37*
G36*
X00447020Y00925318D02*
Y00915670D01*
X00456668D01*
X00456457Y00917269D01*
X00455350Y00919942D01*
X00453588Y00922238D01*
X00451292Y00924000D01*
X00448619Y00925107D01*
X00447020Y00925318D01*
D02*
G37*
G36*
X00444480Y00925318D02*
X00442881Y00925107D01*
X00440208Y00924000D01*
X00437912Y00922238D01*
X00436150Y00919942D01*
X00435043Y00917269D01*
X00434832Y00915670D01*
X00444480D01*
Y00925318D01*
D02*
G37*
G36*
X00686280Y00932395D02*
X00683552Y00932036D01*
X00681010Y00930983D01*
X00678827Y00929308D01*
X00677152Y00927125D01*
X00676099Y00924583D01*
X00675740Y00921855D01*
X00676099Y00919127D01*
X00677152Y00916585D01*
X00678827Y00914402D01*
X00681010Y00912727D01*
X00683552Y00911674D01*
X00686280Y00911315D01*
X00689008Y00911674D01*
X00691550Y00912727D01*
X00693733Y00914402D01*
X00695408Y00916585D01*
X00696461Y00919127D01*
X00696820Y00921855D01*
X00696461Y00924583D01*
X00695408Y00927125D01*
X00693733Y00929308D01*
X00691550Y00930983D01*
X00689008Y00932036D01*
X00686280Y00932395D01*
D02*
G37*
G36*
X00607140Y00912760D02*
X00599120D01*
Y00904240D01*
X00607140D01*
Y00912760D01*
D02*
G37*
G36*
X00596580D02*
X00588560D01*
Y00904240D01*
X00596580D01*
Y00912760D01*
D02*
G37*
G36*
X00607140Y00901700D02*
X00599120D01*
Y00893180D01*
X00607140D01*
Y00901700D01*
D02*
G37*
G36*
X00596580D02*
X00588560D01*
Y00893180D01*
X00596580D01*
Y00901700D01*
D02*
G37*
G36*
X00566470Y00895020D02*
X00561450D01*
Y00889000D01*
X00566470D01*
Y00895020D01*
D02*
G37*
G36*
X00558910D02*
X00553890D01*
Y00889000D01*
X00558910D01*
Y00895020D01*
D02*
G37*
G36*
X00608640Y00890960D02*
X00600870D01*
Y00885190D01*
X00608640D01*
Y00890960D01*
D02*
G37*
G36*
X00598330D02*
X00590560D01*
Y00885190D01*
X00598330D01*
Y00890960D01*
D02*
G37*
G36*
X00686280Y00904785D02*
X00683552Y00904426D01*
X00681010Y00903373D01*
X00678827Y00901698D01*
X00677152Y00899515D01*
X00676099Y00896973D01*
X00675740Y00894245D01*
X00676099Y00891517D01*
X00677152Y00888975D01*
X00678827Y00886792D01*
X00681010Y00885117D01*
X00683552Y00884064D01*
X00686280Y00883705D01*
X00689008Y00884064D01*
X00691550Y00885117D01*
X00693733Y00886792D01*
X00695408Y00888975D01*
X00696461Y00891517D01*
X00696820Y00894245D01*
X00696461Y00896973D01*
X00695408Y00899515D01*
X00693733Y00901698D01*
X00691550Y00903373D01*
X00689008Y00904426D01*
X00686280Y00904785D01*
D02*
G37*
G36*
X00527050Y00900698D02*
X00525099Y00900310D01*
X00523445Y00899205D01*
X00522340Y00897551D01*
X00521952Y00895600D01*
Y00879600D01*
X00522340Y00877649D01*
X00523445Y00875995D01*
X00525099Y00874890D01*
X00527050Y00874502D01*
X00529001Y00874890D01*
X00530655Y00875995D01*
X00531760Y00877649D01*
X00532148Y00879600D01*
Y00884541D01*
X00536430D01*
Y00880980D01*
X00547930D01*
Y00894480D01*
X00536430D01*
Y00890659D01*
X00532148D01*
Y00895600D01*
X00531760Y00897551D01*
X00530655Y00899205D01*
X00529001Y00900310D01*
X00527050Y00900698D01*
D02*
G37*
G36*
X00566470Y00886460D02*
X00561450D01*
Y00880440D01*
X00566470D01*
Y00886460D01*
D02*
G37*
G36*
X00558910D02*
X00553890D01*
Y00880440D01*
X00558910D01*
Y00886460D01*
D02*
G37*
G36*
X00506730Y00919999D02*
X00506730Y00919999D01*
X00474980D01*
X00473809Y00919766D01*
X00472817Y00919103D01*
X00472817Y00919103D01*
X00457323Y00903609D01*
X00452232D01*
X00451393Y00904737D01*
X00451395Y00904879D01*
X00453588Y00906562D01*
X00455350Y00908858D01*
X00456457Y00911531D01*
X00456668Y00913130D01*
X00445750D01*
X00434832D01*
X00435043Y00911531D01*
X00436150Y00908858D01*
X00437912Y00906562D01*
X00440105Y00904879D01*
X00440107Y00904737D01*
X00439268Y00903609D01*
X00427394D01*
X00426478Y00905820D01*
X00424803Y00908003D01*
X00422620Y00909678D01*
X00420078Y00910731D01*
X00417350Y00911090D01*
X00414622Y00910731D01*
X00412080Y00909678D01*
X00409897Y00908003D01*
X00408222Y00905820D01*
X00407169Y00903278D01*
X00406810Y00900550D01*
X00407169Y00897822D01*
X00408222Y00895280D01*
X00409897Y00893097D01*
X00412080Y00891422D01*
X00414622Y00890369D01*
X00417350Y00890010D01*
X00420078Y00890369D01*
X00422620Y00891422D01*
X00424803Y00893097D01*
X00426478Y00895280D01*
X00427394Y00897491D01*
X00441176D01*
X00441429Y00896221D01*
X00440480Y00895828D01*
X00438297Y00894153D01*
X00436622Y00891970D01*
X00435569Y00889428D01*
X00435210Y00886700D01*
X00435569Y00883972D01*
X00436622Y00881430D01*
X00438297Y00879247D01*
X00440480Y00877572D01*
X00443022Y00876519D01*
X00445750Y00876160D01*
X00448478Y00876519D01*
X00451020Y00877572D01*
X00453203Y00879247D01*
X00454878Y00881430D01*
X00455874Y00883835D01*
X00456071Y00883874D01*
X00457063Y00884537D01*
X00480057Y00907531D01*
X00495303D01*
X00498591Y00904243D01*
Y00899570D01*
X00498045Y00899205D01*
X00496940Y00897551D01*
X00496552Y00895600D01*
Y00879600D01*
X00496940Y00877649D01*
X00498045Y00875995D01*
X00499699Y00874890D01*
X00501650Y00874502D01*
X00503601Y00874890D01*
X00505255Y00875995D01*
X00506360Y00877649D01*
X00506748Y00879600D01*
Y00895600D01*
X00506360Y00897551D01*
X00505255Y00899205D01*
X00504709Y00899570D01*
Y00905510D01*
X00504709Y00905510D01*
X00504476Y00906681D01*
X00503813Y00907673D01*
X00503813Y00907673D01*
X00498875Y00912611D01*
X00498966Y00913194D01*
X00499330Y00913881D01*
X00505463D01*
X00511291Y00908053D01*
Y00899570D01*
X00510745Y00899205D01*
X00509640Y00897551D01*
X00509252Y00895600D01*
Y00879600D01*
X00509640Y00877649D01*
X00510745Y00875995D01*
X00512399Y00874890D01*
X00514350Y00874502D01*
X00516301Y00874890D01*
X00517955Y00875995D01*
X00519060Y00877649D01*
X00519448Y00879600D01*
Y00895600D01*
X00519060Y00897551D01*
X00517955Y00899205D01*
X00517409Y00899570D01*
Y00909320D01*
X00517176Y00910490D01*
X00516513Y00911483D01*
X00508893Y00919103D01*
X00507901Y00919766D01*
X00506730Y00919999D01*
D02*
G37*
G36*
X00488950Y00900698D02*
X00486999Y00900310D01*
X00485345Y00899205D01*
X00484240Y00897551D01*
X00483852Y00895600D01*
Y00879600D01*
X00484240Y00877649D01*
X00485345Y00875995D01*
X00486999Y00874890D01*
X00488950Y00874502D01*
X00490901Y00874890D01*
X00492555Y00875995D01*
X00493660Y00877649D01*
X00494048Y00879600D01*
Y00895600D01*
X00493660Y00897551D01*
X00492555Y00899205D01*
X00490901Y00900310D01*
X00488950Y00900698D01*
D02*
G37*
G36*
X00417350Y00883390D02*
X00414622Y00883031D01*
X00412080Y00881978D01*
X00409897Y00880303D01*
X00408222Y00878120D01*
X00407169Y00875578D01*
X00406810Y00872850D01*
X00407169Y00870122D01*
X00408222Y00867580D01*
X00409897Y00865397D01*
X00412080Y00863722D01*
X00414622Y00862669D01*
X00417350Y00862310D01*
X00420078Y00862669D01*
X00422620Y00863722D01*
X00424803Y00865397D01*
X00426478Y00867580D01*
X00427531Y00870122D01*
X00427890Y00872850D01*
X00427531Y00875578D01*
X00426478Y00878120D01*
X00424803Y00880303D01*
X00422620Y00881978D01*
X00420078Y00883031D01*
X00417350Y00883390D01*
D02*
G37*
G36*
X00686280Y00877175D02*
X00683552Y00876816D01*
X00681010Y00875763D01*
X00678827Y00874088D01*
X00677152Y00871905D01*
X00676099Y00869363D01*
X00675740Y00866635D01*
X00676099Y00863907D01*
X00677152Y00861365D01*
X00678827Y00859182D01*
X00681010Y00857507D01*
X00683552Y00856454D01*
X00686280Y00856095D01*
X00689008Y00856454D01*
X00691550Y00857507D01*
X00693733Y00859182D01*
X00695408Y00861365D01*
X00696461Y00863907D01*
X00696820Y00866635D01*
X00696461Y00869363D01*
X00695408Y00871905D01*
X00693733Y00874088D01*
X00691550Y00875763D01*
X00689008Y00876816D01*
X00686280Y00877175D01*
D02*
G37*
G36*
X00456200Y00869450D02*
X00435300D01*
Y00848550D01*
X00456200D01*
Y00869450D01*
D02*
G37*
G36*
X00575630Y00854340D02*
X00567610D01*
Y00845820D01*
X00575630D01*
Y00854340D01*
D02*
G37*
G36*
X00502920Y00852996D02*
Y00840870D01*
X00507299D01*
Y00847600D01*
X00506869Y00849762D01*
X00505644Y00851594D01*
X00503812Y00852819D01*
X00502920Y00852996D01*
D02*
G37*
G36*
X00500380D02*
X00499488Y00852819D01*
X00497656Y00851594D01*
X00496431Y00849762D01*
X00496002Y00847600D01*
Y00840870D01*
X00500380D01*
Y00852996D01*
D02*
G37*
G36*
X00686280Y00849565D02*
X00683552Y00849206D01*
X00681010Y00848153D01*
X00678827Y00846478D01*
X00677152Y00844295D01*
X00676099Y00841753D01*
X00675740Y00839025D01*
X00676099Y00836297D01*
X00677152Y00833755D01*
X00678827Y00831572D01*
X00681010Y00829897D01*
X00683552Y00828844D01*
X00686280Y00828485D01*
X00689008Y00828844D01*
X00691550Y00829897D01*
X00693733Y00831572D01*
X00695408Y00833755D01*
X00696461Y00836297D01*
X00696820Y00839025D01*
X00696461Y00841753D01*
X00695408Y00844295D01*
X00693733Y00846478D01*
X00691550Y00848153D01*
X00689008Y00849206D01*
X00686280Y00849565D01*
D02*
G37*
G36*
X00501650Y00839600D02*
D01*
Y00838330D01*
X00496002D01*
Y00831600D01*
X00496431Y00829438D01*
X00497656Y00827606D01*
X00499488Y00826381D01*
X00500451Y00826190D01*
X00500326Y00824920D01*
X00499270D01*
Y00819150D01*
X00507040D01*
Y00824920D01*
X00502974D01*
X00502849Y00826190D01*
X00503812Y00826381D01*
X00505644Y00827606D01*
X00506869Y00829438D01*
X00507299Y00831600D01*
Y00838330D01*
X00501650D01*
Y00839600D01*
D02*
G37*
G36*
X00606890Y00822630D02*
X00601870D01*
Y00816610D01*
X00606890D01*
Y00822630D01*
D02*
G37*
G36*
X00599330D02*
X00594310D01*
Y00816610D01*
X00599330D01*
Y00822630D01*
D02*
G37*
G36*
X00586190Y00824230D02*
X00578170D01*
Y00815710D01*
X00586190D01*
Y00824230D01*
D02*
G37*
G36*
X00575630D02*
X00567610D01*
Y00815710D01*
X00575630D01*
Y00824230D01*
D02*
G37*
G36*
X00507040Y00816610D02*
X00499270D01*
Y00810840D01*
X00507040D01*
Y00816610D01*
D02*
G37*
G36*
X00606890Y00814070D02*
X00601870D01*
Y00808050D01*
X00606890D01*
Y00814070D01*
D02*
G37*
G36*
X00599330D02*
X00594310D01*
Y00808050D01*
X00599330D01*
Y00814070D01*
D02*
G37*
G36*
X00584190Y00813490D02*
X00576420D01*
Y00807720D01*
X00584190D01*
Y00813490D01*
D02*
G37*
G36*
X00573880D02*
X00566110D01*
Y00807720D01*
X00573880D01*
Y00813490D01*
D02*
G37*
G36*
X00686280Y00821955D02*
X00683552Y00821596D01*
X00681010Y00820543D01*
X00678827Y00818868D01*
X00677152Y00816685D01*
X00676099Y00814143D01*
X00675740Y00811415D01*
X00676099Y00808687D01*
X00677152Y00806145D01*
X00678827Y00803962D01*
X00681010Y00802287D01*
X00683552Y00801234D01*
X00686280Y00800875D01*
X00689008Y00801234D01*
X00691550Y00802287D01*
X00693733Y00803962D01*
X00695408Y00806145D01*
X00696461Y00808687D01*
X00696820Y00811415D01*
X00696461Y00814143D01*
X00695408Y00816685D01*
X00693733Y00818868D01*
X00691550Y00820543D01*
X00689008Y00821596D01*
X00686280Y00821955D01*
D02*
G37*
G36*
X00573880Y00805180D02*
X00566110D01*
Y00799410D01*
X00573880D01*
Y00805180D01*
D02*
G37*
G36*
X00552450Y00863367D02*
X00550109Y00862902D01*
X00548124Y00861576D01*
X00546798Y00859591D01*
X00546333Y00857250D01*
X00546766Y00855070D01*
X00546589Y00854517D01*
X00546205Y00853800D01*
X00544650D01*
Y00835300D01*
X00544650D01*
Y00834750D01*
X00544650D01*
Y00816250D01*
X00550341D01*
Y00812950D01*
X00546650D01*
Y00799950D01*
X00557324D01*
X00558341Y00798933D01*
Y00797450D01*
X00532459D01*
Y00806640D01*
X00532226Y00807811D01*
X00531563Y00808803D01*
X00531563Y00808803D01*
X00530559Y00809807D01*
Y00827931D01*
X00530655Y00827995D01*
X00531760Y00829649D01*
X00532148Y00831600D01*
Y00847600D01*
X00531760Y00849551D01*
X00530655Y00851205D01*
X00529001Y00852310D01*
X00527050Y00852698D01*
X00525099Y00852310D01*
X00523445Y00851205D01*
X00522340Y00849551D01*
X00521952Y00847600D01*
Y00831600D01*
X00522340Y00829649D01*
X00523445Y00827995D01*
X00524441Y00827330D01*
Y00824380D01*
X00517409D01*
Y00827630D01*
X00517955Y00827995D01*
X00519060Y00829649D01*
X00519448Y00831600D01*
Y00847600D01*
X00519060Y00849551D01*
X00517955Y00851205D01*
X00516301Y00852310D01*
X00514350Y00852698D01*
X00512399Y00852310D01*
X00510745Y00851205D01*
X00509640Y00849551D01*
X00509252Y00847600D01*
Y00831600D01*
X00509640Y00829649D01*
X00510745Y00827995D01*
X00511291Y00827630D01*
Y00824380D01*
X00509500D01*
Y00811380D01*
X00512042D01*
X00512641Y00810260D01*
X00512508Y00810061D01*
X00512043Y00807720D01*
X00512508Y00805379D01*
X00513143Y00804429D01*
X00512464Y00803159D01*
X00499107D01*
X00492696Y00809570D01*
X00493222Y00810840D01*
X00496730D01*
Y00817880D01*
Y00824920D01*
X00491559D01*
Y00827330D01*
X00492555Y00827995D01*
X00493660Y00829649D01*
X00494048Y00831600D01*
Y00847600D01*
X00493660Y00849551D01*
X00492555Y00851205D01*
X00490901Y00852310D01*
X00488950Y00852698D01*
X00486999Y00852310D01*
X00485345Y00851205D01*
X00484240Y00849551D01*
X00483852Y00847600D01*
Y00831600D01*
X00484240Y00829649D01*
X00485345Y00827995D01*
X00485441Y00827931D01*
Y00809440D01*
X00485441Y00809440D01*
X00485674Y00808270D01*
X00486337Y00807277D01*
X00495677Y00797937D01*
X00495677Y00797937D01*
X00496669Y00797274D01*
X00497840Y00797041D01*
X00501150D01*
Y00776366D01*
X00500944Y00775406D01*
X00499984Y00775200D01*
X00478900D01*
Y00766700D01*
Y00758700D01*
Y00750700D01*
Y00742700D01*
Y00734700D01*
Y00726700D01*
Y00719740D01*
X00478360D01*
Y00716220D01*
X00489900D01*
Y00714950D01*
X00491170D01*
Y00710160D01*
X00501150D01*
Y00699526D01*
X00496787Y00695163D01*
X00496124Y00694171D01*
X00495891Y00693000D01*
X00495891Y00693000D01*
Y00685950D01*
X00490450D01*
Y00672950D01*
X00492391D01*
X00493069Y00671680D01*
X00492188Y00670361D01*
X00491722Y00668020D01*
X00492188Y00665679D01*
X00493514Y00663694D01*
X00495499Y00662368D01*
X00497840Y00661902D01*
X00500181Y00662368D01*
X00502166Y00663694D01*
X00503492Y00665679D01*
X00503957Y00668020D01*
X00503492Y00670361D01*
X00502611Y00671680D01*
X00503289Y00672950D01*
X00507450D01*
Y00685950D01*
X00502009D01*
Y00688450D01*
X00534534D01*
X00534574Y00688249D01*
X00535237Y00687257D01*
X00535371Y00687123D01*
X00534885Y00685950D01*
X00533950D01*
Y00672950D01*
X00540501D01*
Y00670441D01*
X00540448Y00670361D01*
X00539982Y00668020D01*
X00540448Y00665679D01*
X00541774Y00663694D01*
X00543759Y00662368D01*
X00546100Y00661902D01*
X00548441Y00662368D01*
X00550426Y00663694D01*
X00551752Y00665679D01*
X00552217Y00668020D01*
X00551752Y00670361D01*
X00550871Y00671680D01*
X00550950Y00672950D01*
X00550950Y00672950D01*
X00550950Y00672950D01*
Y00685950D01*
X00545002D01*
X00544613Y00686533D01*
X00543869Y00687277D01*
X00544355Y00688450D01*
X00565650D01*
Y00704715D01*
X00566823Y00705201D01*
X00571877Y00700147D01*
X00572869Y00699484D01*
X00574040Y00699251D01*
X00589335D01*
X00590096Y00697981D01*
X00588304Y00694629D01*
X00586872Y00689909D01*
X00586514Y00686270D01*
X00611550D01*
X00636586D01*
X00636228Y00689909D01*
X00634796Y00694629D01*
X00632471Y00698979D01*
X00629342Y00702792D01*
X00625529Y00705921D01*
X00622288Y00707653D01*
X00622074Y00708905D01*
X00622538Y00709411D01*
X00647700D01*
X00647700Y00709411D01*
X00648870Y00709644D01*
X00649863Y00710307D01*
X00660043Y00720487D01*
X00660043Y00720487D01*
X00660706Y00721479D01*
X00660939Y00722650D01*
Y00732346D01*
X00663150Y00733262D01*
X00665333Y00734937D01*
X00667008Y00737120D01*
X00668061Y00739662D01*
X00668420Y00742390D01*
X00668061Y00745118D01*
X00667008Y00747660D01*
X00665333Y00749843D01*
X00663150Y00751518D01*
X00660608Y00752571D01*
X00657880Y00752930D01*
X00655152Y00752571D01*
X00652610Y00751518D01*
X00650427Y00749843D01*
X00648752Y00747660D01*
X00647699Y00745118D01*
X00647340Y00742390D01*
X00647699Y00739662D01*
X00648752Y00737120D01*
X00650427Y00734937D01*
X00652610Y00733262D01*
X00654821Y00732346D01*
Y00723917D01*
X00646433Y00715529D01*
X00629778D01*
X00628600Y00715750D01*
Y00724710D01*
X00629140D01*
Y00728980D01*
X00621600D01*
Y00731520D01*
X00629140D01*
Y00735790D01*
X00628600D01*
Y00744750D01*
X00624659D01*
Y00749150D01*
X00628100D01*
Y00762150D01*
X00623646D01*
X00623261Y00763420D01*
X00623926Y00763864D01*
X00625252Y00765849D01*
X00625718Y00768190D01*
X00625252Y00770531D01*
X00623926Y00772516D01*
X00623156Y00773030D01*
X00623541Y00774300D01*
X00624350D01*
Y00787800D01*
X00621659D01*
Y00790810D01*
X00624350D01*
Y00804310D01*
X00612850D01*
Y00790810D01*
X00615541D01*
Y00787800D01*
X00612850D01*
Y00779626D01*
X00608160Y00774936D01*
X00606890Y00775462D01*
Y00779780D01*
X00601870D01*
Y00773760D01*
X00605685D01*
X00605744Y00773731D01*
X00606629Y00772490D01*
X00606541Y00772050D01*
X00606541Y00772050D01*
Y00762690D01*
X00600870D01*
Y00755650D01*
Y00748610D01*
X00606541D01*
Y00730007D01*
X00606541Y00730007D01*
X00606774Y00728837D01*
X00607437Y00727844D01*
X00614600Y00720682D01*
Y00715750D01*
X00613422Y00715529D01*
X00605778D01*
X00604600Y00715750D01*
Y00725250D01*
Y00734750D01*
Y00744750D01*
X00596926D01*
X00594239Y00747437D01*
X00594725Y00748610D01*
X00598330D01*
Y00754380D01*
X00590560D01*
Y00750140D01*
X00590400Y00750009D01*
X00590400Y00750009D01*
X00587900D01*
Y00758700D01*
Y00766160D01*
X00588440D01*
Y00769680D01*
X00576900D01*
X00565360D01*
Y00766160D01*
X00565900D01*
Y00758700D01*
Y00752062D01*
X00565217Y00751699D01*
X00564630Y00751606D01*
X00546343Y00769893D01*
X00545350Y00770556D01*
X00544180Y00770789D01*
X00544180Y00770789D01*
X00529230D01*
X00528060Y00770556D01*
X00527068Y00769893D01*
X00527068Y00769893D01*
X00524154Y00766979D01*
X00522820D01*
X00522221Y00768099D01*
X00522542Y00768579D01*
X00523008Y00770920D01*
X00522542Y00773261D01*
X00521928Y00774180D01*
X00522607Y00775450D01*
X00565360D01*
Y00772220D01*
X00575630D01*
Y00775740D01*
X00565650D01*
Y00797450D01*
X00564459D01*
Y00800200D01*
X00564226Y00801370D01*
X00563650Y00802233D01*
Y00812950D01*
X00556459D01*
Y00816250D01*
X00562150D01*
Y00834750D01*
X00562150D01*
Y00835300D01*
X00562150D01*
Y00853800D01*
X00558695D01*
X00558311Y00854517D01*
X00558134Y00855070D01*
X00558568Y00857250D01*
X00558102Y00859591D01*
X00556776Y00861576D01*
X00554791Y00862902D01*
X00552450Y00863367D01*
D02*
G37*
G36*
X00584190Y00805180D02*
X00576420D01*
Y00799410D01*
X00583506D01*
X00584580Y00798301D01*
X00584432Y00797560D01*
X00584898Y00795219D01*
X00586224Y00793234D01*
X00588209Y00791908D01*
X00590550Y00791442D01*
X00592891Y00791908D01*
X00593730Y00792469D01*
X00594850Y00791870D01*
Y00790810D01*
X00606350D01*
Y00804310D01*
X00594850D01*
Y00803250D01*
X00593730Y00802651D01*
X00592891Y00803212D01*
X00590550Y00803678D01*
X00588209Y00803212D01*
X00586224Y00801886D01*
X00585460Y00800742D01*
X00584190Y00801127D01*
Y00805180D01*
D02*
G37*
G36*
X00432820Y00815771D02*
Y00790720D01*
X00457872D01*
X00457646Y00793583D01*
X00456678Y00797615D01*
X00455092Y00801445D01*
X00452925Y00804980D01*
X00450233Y00808133D01*
X00447080Y00810825D01*
X00443545Y00812992D01*
X00439715Y00814578D01*
X00435683Y00815546D01*
X00432820Y00815771D01*
D02*
G37*
G36*
X00430280D02*
X00427417Y00815546D01*
X00423385Y00814578D01*
X00419555Y00812992D01*
X00416020Y00810825D01*
X00412867Y00808133D01*
X00410175Y00804980D01*
X00408008Y00801445D01*
X00406422Y00797615D01*
X00405454Y00793583D01*
X00405229Y00790720D01*
X00430280D01*
Y00815771D01*
D02*
G37*
G36*
X00657880Y00808150D02*
X00655152Y00807791D01*
X00652610Y00806738D01*
X00650427Y00805063D01*
X00648752Y00802880D01*
X00647699Y00800338D01*
X00647340Y00797610D01*
X00647699Y00794882D01*
X00648752Y00792340D01*
X00650427Y00790157D01*
X00652610Y00788482D01*
X00655152Y00787429D01*
X00657880Y00787070D01*
X00660608Y00787429D01*
X00663150Y00788482D01*
X00665333Y00790157D01*
X00667008Y00792340D01*
X00668061Y00794882D01*
X00668420Y00797610D01*
X00668061Y00800338D01*
X00667008Y00802880D01*
X00665333Y00805063D01*
X00663150Y00806738D01*
X00660608Y00807791D01*
X00657880Y00808150D01*
D02*
G37*
G36*
X00606890Y00788340D02*
X00601870D01*
Y00782320D01*
X00606890D01*
Y00788340D01*
D02*
G37*
G36*
X00599330D02*
X00594310D01*
Y00782320D01*
X00599330D01*
Y00788340D01*
D02*
G37*
G36*
Y00779780D02*
X00594310D01*
Y00773760D01*
X00599330D01*
Y00779780D01*
D02*
G37*
G36*
X00686280Y00794345D02*
X00683552Y00793986D01*
X00681010Y00792933D01*
X00678827Y00791258D01*
X00677152Y00789075D01*
X00676099Y00786533D01*
X00675740Y00783805D01*
X00676099Y00781077D01*
X00677152Y00778535D01*
X00678827Y00776352D01*
X00681010Y00774677D01*
X00683552Y00773624D01*
X00686280Y00773265D01*
X00689008Y00773624D01*
X00691550Y00774677D01*
X00693733Y00776352D01*
X00695408Y00778535D01*
X00696461Y00781077D01*
X00696820Y00783805D01*
X00696461Y00786533D01*
X00695408Y00789075D01*
X00693733Y00791258D01*
X00691550Y00792933D01*
X00689008Y00793986D01*
X00686280Y00794345D01*
D02*
G37*
G36*
X00588440Y00775740D02*
X00578170D01*
Y00772220D01*
X00588440D01*
Y00775740D01*
D02*
G37*
G36*
X00430280Y00788180D02*
X00405229D01*
X00405454Y00785317D01*
X00406422Y00781285D01*
X00408008Y00777455D01*
X00410175Y00773920D01*
X00412867Y00770767D01*
X00416020Y00768075D01*
X00419555Y00765908D01*
X00423385Y00764322D01*
X00427417Y00763354D01*
X00430280Y00763129D01*
Y00788180D01*
D02*
G37*
G36*
X00457872D02*
X00432820D01*
Y00763129D01*
X00435683Y00763354D01*
X00439715Y00764322D01*
X00443545Y00765908D01*
X00447080Y00768075D01*
X00450233Y00770767D01*
X00452925Y00773920D01*
X00455092Y00777455D01*
X00456678Y00781285D01*
X00457646Y00785317D01*
X00457872Y00788180D01*
D02*
G37*
G36*
X00657880Y00780540D02*
X00655152Y00780181D01*
X00652610Y00779128D01*
X00650427Y00777453D01*
X00648752Y00775270D01*
X00647699Y00772728D01*
X00647340Y00770000D01*
X00647699Y00767272D01*
X00648752Y00764730D01*
X00650427Y00762547D01*
X00652610Y00760872D01*
X00655152Y00759819D01*
X00657880Y00759460D01*
X00660608Y00759819D01*
X00663150Y00760872D01*
X00665333Y00762547D01*
X00667008Y00764730D01*
X00668061Y00767272D01*
X00668420Y00770000D01*
X00668061Y00772728D01*
X00667008Y00775270D01*
X00665333Y00777453D01*
X00663150Y00779128D01*
X00660608Y00780181D01*
X00657880Y00780540D01*
D02*
G37*
G36*
X00598330Y00762690D02*
X00590560D01*
Y00756920D01*
X00598330D01*
Y00762690D01*
D02*
G37*
G36*
X00686280Y00766735D02*
X00683552Y00766376D01*
X00681010Y00765323D01*
X00678827Y00763648D01*
X00677152Y00761465D01*
X00676099Y00758923D01*
X00675740Y00756195D01*
X00676099Y00753467D01*
X00677152Y00750925D01*
X00678827Y00748742D01*
X00681010Y00747067D01*
X00683552Y00746014D01*
X00686280Y00745655D01*
X00689008Y00746014D01*
X00691550Y00747067D01*
X00693733Y00748742D01*
X00695408Y00750925D01*
X00696461Y00753467D01*
X00696820Y00756195D01*
X00696461Y00758923D01*
X00695408Y00761465D01*
X00693733Y00763648D01*
X00691550Y00765323D01*
X00689008Y00766376D01*
X00686280Y00766735D01*
D02*
G37*
G36*
X00488630Y00713680D02*
X00478360D01*
Y00710160D01*
X00488630D01*
Y00713680D01*
D02*
G37*
G36*
X00487990Y00686490D02*
X00480220D01*
Y00680720D01*
X00487990D01*
Y00686490D01*
D02*
G37*
G36*
X00571490D02*
X00563720D01*
Y00680720D01*
X00571490D01*
Y00686490D01*
D02*
G37*
G36*
X00561180D02*
X00553410D01*
Y00680720D01*
X00561180D01*
Y00686490D01*
D02*
G37*
G36*
X00477680D02*
X00469910D01*
Y00680720D01*
X00477680D01*
Y00686490D01*
D02*
G37*
G36*
X00673350Y00699111D02*
Y00674060D01*
X00698401D01*
X00698176Y00676923D01*
X00697208Y00680955D01*
X00695622Y00684785D01*
X00693455Y00688320D01*
X00690763Y00691473D01*
X00687610Y00694165D01*
X00684075Y00696332D01*
X00680245Y00697918D01*
X00676213Y00698886D01*
X00673350Y00699111D01*
D02*
G37*
G36*
X00670810D02*
X00667947Y00698886D01*
X00663915Y00697918D01*
X00660085Y00696332D01*
X00656550Y00694165D01*
X00653397Y00691473D01*
X00650705Y00688320D01*
X00648538Y00684785D01*
X00646952Y00680955D01*
X00645984Y00676923D01*
X00645759Y00674060D01*
X00670810D01*
Y00699111D01*
D02*
G37*
G36*
X00571490Y00678180D02*
X00563720D01*
Y00672410D01*
X00571490D01*
Y00678180D01*
D02*
G37*
G36*
X00561180D02*
X00553410D01*
Y00672410D01*
X00561180D01*
Y00678180D01*
D02*
G37*
G36*
X00487990D02*
X00480220D01*
Y00672410D01*
X00487990D01*
Y00678180D01*
D02*
G37*
G36*
X00477680D02*
X00469910D01*
Y00672410D01*
X00477680D01*
Y00678180D01*
D02*
G37*
G36*
X00386550Y00709619D02*
X00381747Y00709146D01*
X00377129Y00707745D01*
X00372873Y00705470D01*
X00369142Y00702408D01*
X00366080Y00698677D01*
X00363805Y00694421D01*
X00362405Y00689803D01*
X00361931Y00685000D01*
X00362405Y00680197D01*
X00363805Y00675579D01*
X00366080Y00671323D01*
X00369142Y00667592D01*
X00372873Y00664530D01*
X00377129Y00662255D01*
X00381747Y00660854D01*
X00386550Y00660381D01*
X00391353Y00660854D01*
X00395971Y00662255D01*
X00400227Y00664530D01*
X00403958Y00667592D01*
X00407020Y00671323D01*
X00409295Y00675579D01*
X00410695Y00680197D01*
X00411169Y00685000D01*
X00410695Y00689803D01*
X00409295Y00694421D01*
X00407020Y00698677D01*
X00403958Y00702408D01*
X00400227Y00705470D01*
X00395971Y00707745D01*
X00391353Y00709146D01*
X00386550Y00709619D01*
D02*
G37*
G36*
X00636586Y00683730D02*
X00612820D01*
Y00659964D01*
X00616459Y00660322D01*
X00621179Y00661754D01*
X00625529Y00664079D01*
X00629342Y00667208D01*
X00632471Y00671021D01*
X00634796Y00675371D01*
X00636228Y00680091D01*
X00636586Y00683730D01*
D02*
G37*
G36*
X00610280D02*
X00586514D01*
X00586872Y00680091D01*
X00588304Y00675371D01*
X00590629Y00671021D01*
X00593758Y00667208D01*
X00597571Y00664079D01*
X00601921Y00661754D01*
X00606641Y00660322D01*
X00610280Y00659964D01*
Y00683730D01*
D02*
G37*
G36*
X00670810Y00671520D02*
X00645759D01*
X00645984Y00668657D01*
X00646952Y00664625D01*
X00648538Y00660795D01*
X00650705Y00657260D01*
X00653397Y00654107D01*
X00656550Y00651415D01*
X00660085Y00649248D01*
X00663915Y00647662D01*
X00667947Y00646694D01*
X00670810Y00646469D01*
Y00671520D01*
D02*
G37*
G36*
X00698401D02*
X00673350D01*
Y00646469D01*
X00676213Y00646694D01*
X00680245Y00647662D01*
X00684075Y00649248D01*
X00687610Y00651415D01*
X00690763Y00654107D01*
X00693455Y00657260D01*
X00695622Y00660795D01*
X00697208Y00664625D01*
X00698176Y00668657D01*
X00698401Y00671520D01*
D02*
G37*
%LPD*%
G36*
X00559551Y00748033D02*
Y00713740D01*
X00559551Y00713740D01*
X00559784Y00712570D01*
X00560352Y00711720D01*
X00560092Y00710720D01*
X00559980Y00710450D01*
X00547889D01*
Y00750478D01*
X00549156Y00751324D01*
X00550482Y00753309D01*
X00550813Y00754975D01*
X00552191Y00755393D01*
X00559551Y00748033D01*
D02*
G37*
G36*
X00544573Y00763011D02*
X00544155Y00761633D01*
X00542489Y00761302D01*
X00540504Y00759976D01*
X00539178Y00757991D01*
X00538713Y00755650D01*
X00539178Y00753309D01*
X00540504Y00751324D01*
X00541771Y00750478D01*
Y00710450D01*
X00532459D01*
Y00754678D01*
X00534471Y00755078D01*
X00536456Y00756404D01*
X00537782Y00758389D01*
X00538247Y00760730D01*
X00537782Y00763071D01*
X00537461Y00763551D01*
X00538060Y00764671D01*
X00542913D01*
X00544573Y00763011D01*
D02*
G37*
D10*
X00597600Y01006450D02*
D03*
Y00996950D02*
D03*
Y00987450D02*
D03*
X00621600D02*
D03*
Y01006450D02*
D03*
Y00996950D02*
D03*
X00597600Y00866750D02*
D03*
Y00857250D02*
D03*
Y00847750D02*
D03*
X00621600D02*
D03*
Y00866750D02*
D03*
Y00857250D02*
D03*
Y00720750D02*
D03*
Y00730250D02*
D03*
Y00739750D02*
D03*
X00597600D02*
D03*
Y00720750D02*
D03*
Y00730250D02*
D03*
Y00942950D02*
D03*
Y00933450D02*
D03*
Y00923950D02*
D03*
X00621600D02*
D03*
Y00942950D02*
D03*
D11*
X00618600Y00815340D02*
D03*
X00600600D02*
D03*
X00600600Y00831850D02*
D03*
X00618600D02*
D03*
X00600600Y00797560D02*
D03*
X00618600D02*
D03*
X00618600Y00781050D02*
D03*
X00600600D02*
D03*
X00542180Y00887730D02*
D03*
X00560180D02*
D03*
D12*
X00619600Y01026160D02*
D03*
X00599600D02*
D03*
X00619600Y00883920D02*
D03*
X00599600D02*
D03*
Y00755650D02*
D03*
X00619600D02*
D03*
X00542450Y00679450D02*
D03*
X00562450D02*
D03*
X00555150Y00806450D02*
D03*
X00575150D02*
D03*
X00498950Y00679450D02*
D03*
X00478950D02*
D03*
X00498000Y00817880D02*
D03*
X00518000D02*
D03*
X00619600Y00958850D02*
D03*
X00599600D02*
D03*
D13*
X00553400Y00825500D02*
D03*
X00576900D02*
D03*
X00553400Y00844550D02*
D03*
X00576900D02*
D03*
X00621350Y00902970D02*
D03*
X00597850D02*
D03*
D14*
X00527050Y00887600D02*
D03*
X00514350D02*
D03*
X00501650D02*
D03*
X00488950D02*
D03*
X00527050Y00839600D02*
D03*
X00514350D02*
D03*
X00501650D02*
D03*
X00488950D02*
D03*
D15*
X00489900Y00714950D02*
D03*
Y00722950D02*
D03*
Y00730950D02*
D03*
Y00738950D02*
D03*
Y00746950D02*
D03*
Y00754950D02*
D03*
Y00762950D02*
D03*
Y00770950D02*
D03*
X00576900D02*
D03*
Y00762950D02*
D03*
Y00754950D02*
D03*
Y00746950D02*
D03*
Y00738950D02*
D03*
Y00730950D02*
D03*
Y00722950D02*
D03*
Y00714950D02*
D03*
D16*
X00505400Y00786450D02*
D03*
X00513400D02*
D03*
X00521400D02*
D03*
X00529400D02*
D03*
X00537400D02*
D03*
X00545400D02*
D03*
X00553400D02*
D03*
X00561400D02*
D03*
Y00699450D02*
D03*
X00553400D02*
D03*
X00545400D02*
D03*
X00537400D02*
D03*
X00529400D02*
D03*
X00521400D02*
D03*
X00513400D02*
D03*
X00505400D02*
D03*
D17*
X00576900Y00746950D02*
X00590400D01*
X00597600Y00739750D01*
X00576900Y00730950D02*
X00596900D01*
X00597600Y00730250D01*
X00576900Y00722950D02*
X00587690D01*
X00589890Y00720750D01*
X00597600D01*
X00621600Y00739750D02*
Y00753650D01*
X00619600Y00755650D02*
X00621600Y00753650D01*
X00619600Y00755650D02*
Y00768190D01*
X00498950Y00693000D02*
X00505400Y00699450D01*
X00498950Y00679450D02*
Y00693000D01*
Y00669130D02*
Y00679450D01*
X00497840Y00668020D02*
X00498950Y00669130D01*
X00537400Y00689420D02*
Y00699450D01*
Y00689420D02*
X00542450Y00684370D01*
Y00679450D02*
Y00684370D01*
Y00679450D02*
X00543560Y00678340D01*
X00584810Y01006450D02*
X00597600D01*
X00600343D01*
X00608330Y00998463D01*
Y00991870D02*
Y00998463D01*
Y00991870D02*
X00612750Y00987450D01*
X00621600D01*
X00609600Y00730007D02*
Y00772050D01*
X00618600Y00781050D01*
Y00797560D01*
X00618600Y00797560D01*
X00618857Y00720750D02*
X00621600D01*
X00609600Y00730007D02*
X00618857Y00720750D01*
X00605790Y00831850D02*
X00608330Y00834390D01*
X00600600Y00831850D02*
X00605790D01*
X00597600Y00866750D02*
X00603910D01*
X00608330Y00862330D01*
Y00834390D02*
Y00862330D01*
X00621600Y00842580D02*
Y00847750D01*
X00618600Y00839580D02*
X00621600Y00842580D01*
X00618600Y00831850D02*
Y00839580D01*
Y00815340D02*
Y00831850D01*
X00618600Y00815340D02*
X00618600Y00815340D01*
X00590550Y00797560D02*
X00600600D01*
X00590550Y00840740D02*
X00597560Y00847750D01*
X00597600D01*
X00576900Y00770950D02*
X00593030D01*
X00594360Y00781050D02*
X00600600D01*
X00593030Y00779720D02*
X00594360Y00781050D01*
X00593030Y00770950D02*
Y00779720D01*
X00575150Y00806450D02*
X00588010D01*
X00590550Y00808990D01*
X00576900Y00825500D02*
X00588010D01*
X00590550Y00822960D01*
Y00815340D02*
X00600600D01*
X00590550Y00808990D02*
Y00815340D01*
Y00822960D01*
X00600600Y00815340D02*
X00608330D01*
X00593090Y00770890D02*
X00596900D01*
X00599600Y00768190D01*
Y00755650D02*
Y00768190D01*
X00488500Y00839150D02*
X00488950Y00839600D01*
X00488500Y00809440D02*
Y00839150D01*
X00527050Y00839600D02*
X00527500Y00839150D01*
Y00808540D02*
Y00839150D01*
Y00808540D02*
X00529400Y00806640D01*
Y00786450D02*
Y00806640D01*
X00521400Y00786450D02*
Y00796860D01*
X00488500Y00809440D02*
X00497840Y00800100D01*
X00518160D01*
X00521400Y00796860D01*
X00501650Y00821530D02*
Y00839600D01*
X00498000Y00817880D02*
X00501650Y00821530D01*
X00498000Y00811370D02*
Y00817880D01*
Y00811370D02*
X00501650Y00807720D01*
X00514350Y00821530D02*
Y00839600D01*
Y00821530D02*
X00518000Y00817880D01*
Y00806610D02*
X00518160Y00806770D01*
Y00807720D01*
X00518000Y00806610D02*
Y00817880D01*
X00561400Y00786450D02*
Y00800200D01*
X00555150Y00806450D02*
X00561400Y00800200D01*
X00553400Y00808200D02*
X00555150Y00806450D01*
X00552450Y00845500D02*
X00553400Y00844550D01*
X00552450Y00845500D02*
Y00857250D01*
X00553400Y00808200D02*
Y00825500D01*
Y00844550D01*
X00576900Y00825500D02*
Y00844550D01*
X00575150Y00785020D02*
Y00806450D01*
X00576900Y00770950D02*
Y00783270D01*
X00575150Y00785020D02*
X00576900Y00783270D01*
X00621600Y00942950D02*
Y00956850D01*
X00619600Y00958850D02*
X00621600Y00956850D01*
X00619600Y00958850D02*
X00632460D01*
X00586740Y00976630D02*
Y00982980D01*
X00591210Y00987450D01*
X00597600D01*
Y00933450D02*
X00609600D01*
X00586740Y00958850D02*
X00599600D01*
X00514350Y00887600D02*
Y00909320D01*
X00506730Y00916940D02*
X00514350Y00909320D01*
X00474980Y00916940D02*
X00506730D01*
X00458590Y00900550D02*
X00474980Y00916940D01*
X00417350Y00900550D02*
X00458590D01*
X00501650Y00887600D02*
Y00905510D01*
X00496570Y00910590D02*
X00501650Y00905510D01*
X00478790Y00910590D02*
X00496570D01*
X00454900Y00886700D02*
X00478790Y00910590D01*
X00445750Y00886700D02*
X00454900D01*
X00505400Y00786450D02*
X00505460Y00786390D01*
X00513400Y00771840D02*
Y00786450D01*
X00584200Y01005840D02*
X00584810Y01006450D01*
X00586740Y01026160D02*
X00599600D01*
X00590550Y00996950D02*
X00597600D01*
X00585470Y00991870D02*
X00590550Y00996950D01*
X00645160Y01005770D02*
X00657880Y01018490D01*
X00645160Y00881380D02*
Y01005770D01*
X00637540Y00873760D02*
X00645160Y00881380D01*
X00597600Y00871220D02*
X00600140Y00873760D01*
X00637540D01*
X00597600Y00866750D02*
Y00871220D01*
X00527050Y00887600D02*
X00542050D01*
X00542180Y00887730D01*
X00560180D02*
Y00897780D01*
X00560070Y00897890D02*
X00560180Y00897780D01*
X00521400Y00715710D02*
X00521970Y00716280D01*
X00521400Y00699450D02*
Y00715710D01*
X00513400Y00699450D02*
Y00713420D01*
X00510540Y00716280D02*
X00513400Y00713420D01*
X00543560Y00669565D02*
Y00678340D01*
Y00669565D02*
X00545105Y00668020D01*
X00546100D01*
X00466090Y00679450D02*
X00478950D01*
X00570230Y00656590D02*
X00581660D01*
X00562450Y00664370D02*
X00570230Y00656590D01*
X00562450Y00664370D02*
Y00679450D01*
X00489900Y00703260D02*
Y00714950D01*
X00478950Y00692310D02*
X00489900Y00703260D01*
X00478950Y00679450D02*
Y00692310D01*
X00657880Y00722650D02*
Y00742390D01*
X00489900Y00762950D02*
X00500961D01*
X00505085Y00786015D02*
X00505460Y00786390D01*
X00513400Y00771840D02*
X00514320Y00770920D01*
X00562610Y00713740D02*
Y00749300D01*
X00525420Y00763920D02*
X00529230Y00767730D01*
X00544180D02*
X00562610Y00749300D01*
X00500961Y00762950D02*
X00503101Y00760810D01*
X00529400Y00699450D02*
Y00758000D01*
X00503101Y00760810D02*
X00507071D01*
X00510181Y00763920D01*
X00515979D01*
X00515979Y00763920D01*
X00525420D01*
X00505085Y00768725D02*
Y00786015D01*
X00514320Y00770920D02*
X00516890D01*
X00529230Y00767730D02*
X00544180D01*
X00529400Y00758000D02*
X00532130Y00760730D01*
X00544830Y00700020D02*
X00545400Y00699450D01*
X00544830Y00700020D02*
Y00755650D01*
X00585470Y00883920D02*
X00599600D01*
X00585470Y00902970D02*
X00597850D01*
X00562610Y00713740D02*
X00574040Y00702310D01*
X00590780D01*
X00600940Y00712470D01*
X00647700D01*
X00657880Y00722650D01*
X00621600Y00730250D02*
X00633730D01*
X00635000Y00731520D01*
Y00742950D01*
D18*
X00657880Y00825220D02*
Y00852830D01*
X00653460Y00857250D02*
X00657880Y00852830D01*
X00641350Y00857250D02*
X00653460D01*
D19*
X00621600D02*
X00641350D01*
X00609600Y01041400D02*
X00615950D01*
X00619600Y01037750D01*
Y01026160D02*
Y01037750D01*
Y01026160D02*
X00629920D01*
X00636270Y01019810D01*
Y01002030D02*
Y01019810D01*
X00631190Y00996950D02*
X00636270Y01002030D01*
X00621600Y00996950D02*
X00631190D01*
X00622300Y00924650D02*
Y00933450D01*
X00621600Y00923950D02*
X00622300Y00924650D01*
X00621600Y00903220D02*
Y00923950D01*
X00621350Y00902970D02*
X00621600Y00903220D01*
D20*
X00489900Y00754950D02*
X00513780D01*
X00489900Y00738950D02*
X00500398D01*
X00513080Y00754450D02*
X00513180Y00754350D01*
X00513780Y00754950D01*
X00500398Y00738950D02*
X00503128Y00741680D01*
X00513080Y00754450D02*
Y00756920D01*
X00489900Y00746950D02*
X00506540D01*
X00508890Y00749300D01*
X00520700D01*
X00503128Y00741680D02*
X00511810D01*
X00506929Y00722950D02*
X00511689Y00727710D01*
X00489900Y00722950D02*
X00506929D01*
X00511689Y00727710D02*
X00511810Y00727589D01*
Y00726440D02*
Y00727589D01*
X00506730Y00734060D02*
X00520700D01*
X00503620Y00730950D02*
X00506730Y00734060D01*
X00489900Y00730950D02*
X00503620D01*
D21*
X00514350Y01066800D02*
D03*
X00539750D02*
D03*
X00514350Y01041400D02*
D03*
X00539750D02*
D03*
X00514350Y01016000D02*
D03*
X00539750D02*
D03*
X00514350Y00990600D02*
D03*
X00539750D02*
D03*
X00514350Y00965200D02*
D03*
D22*
X00539750D02*
D03*
D23*
X00657880Y00742390D02*
D03*
X00686280Y00756195D02*
D03*
X00657880Y00770000D02*
D03*
X00686280Y00783805D02*
D03*
X00657880Y00797610D02*
D03*
X00686280Y00811415D02*
D03*
X00657880Y00825220D02*
D03*
X00686280Y00839025D02*
D03*
X00657880Y00852830D02*
D03*
X00686280Y00866635D02*
D03*
X00657880Y00880440D02*
D03*
X00686280Y00894245D02*
D03*
X00657880Y00908050D02*
D03*
X00686280Y00921855D02*
D03*
X00657880Y00935660D02*
D03*
X00686280Y00949465D02*
D03*
X00657880Y00963270D02*
D03*
X00686280Y00977075D02*
D03*
X00657880Y00990880D02*
D03*
X00686280Y01004685D02*
D03*
X00657880Y01018490D02*
D03*
X00686280Y01032295D02*
D03*
X00657880Y01046100D02*
D03*
X00686280Y01059905D02*
D03*
X00417350Y00872850D02*
D03*
X00445750Y00886700D02*
D03*
X00417350Y00900550D02*
D03*
X00445750Y00914400D02*
D03*
X00417350Y00928250D02*
D03*
X00445750Y00942100D02*
D03*
X00417350Y00955950D02*
D03*
X00445750Y00969800D02*
D03*
D24*
X00657880Y01073710D02*
D03*
X00445750Y00859000D02*
D03*
D25*
X00672080Y01143310D02*
D03*
Y00672790D02*
D03*
X00431550Y01039350D02*
D03*
Y00789450D02*
D03*
D26*
X00386550Y01135000D02*
D03*
Y00685000D02*
D03*
X00611550D02*
D03*
Y01135000D02*
D03*
D27*
X00619600Y00768190D02*
D03*
X00497840Y00668020D02*
D03*
X00590550Y00797560D02*
D03*
Y00840740D02*
D03*
X00593090Y00770890D02*
D03*
X00608330Y00815340D02*
D03*
X00501650Y00807720D02*
D03*
X00518160D02*
D03*
X00552450Y00857250D02*
D03*
X00632460Y00958850D02*
D03*
X00586740Y00976630D02*
D03*
X00609600Y00933450D02*
D03*
X00586740Y00958850D02*
D03*
X00609600Y01041400D02*
D03*
X00584200Y01005840D02*
D03*
X00586740Y01026160D02*
D03*
X00585470Y00991870D02*
D03*
X00560070Y00897890D02*
D03*
X00495300Y00958850D02*
D03*
X00521970Y00716280D02*
D03*
X00510540D02*
D03*
X00546100Y00668020D02*
D03*
X00466090Y00679450D02*
D03*
X00510540Y00659130D02*
D03*
X00581660Y00656590D02*
D03*
X00629920Y01036320D02*
D03*
X00622300Y00933450D02*
D03*
X00505085Y00768725D02*
D03*
X00516890Y00770920D02*
D03*
X00513080Y00756920D02*
D03*
X00532130Y00760730D02*
D03*
X00520700Y00749300D02*
D03*
X00511810Y00741680D02*
D03*
X00520700Y00734060D02*
D03*
X00544830Y00755650D02*
D03*
X00632460Y00781050D02*
D03*
X00585470Y00883920D02*
D03*
Y00902970D02*
D03*
X00632460Y00976630D02*
D03*
X00704850Y00939800D02*
D03*
X00511810Y00726440D02*
D03*
X00635000Y00742950D02*
D03*
X00350000Y00650000D02*
D03*
Y00700000D02*
D03*
X00362500Y00725000D02*
D03*
X00350000Y00750000D02*
D03*
X00362500Y00775000D02*
D03*
X00350000Y00800000D02*
D03*
X00362500Y00825000D02*
D03*
X00350000Y00850000D02*
D03*
X00362500Y00875000D02*
D03*
X00350000Y00900000D02*
D03*
X00362500Y00925000D02*
D03*
X00350000Y00950000D02*
D03*
X00362500Y00975000D02*
D03*
X00350000Y01000000D02*
D03*
X00362500Y01025000D02*
D03*
X00350000Y01050000D02*
D03*
X00362500Y01075000D02*
D03*
X00350000Y01100000D02*
D03*
Y01150000D02*
D03*
X00375000Y00650000D02*
D03*
X00387500Y00725000D02*
D03*
X00375000Y00750000D02*
D03*
X00387500Y00775000D02*
D03*
X00375000Y00800000D02*
D03*
X00387500Y00825000D02*
D03*
X00375000Y00850000D02*
D03*
X00387500Y00875000D02*
D03*
X00375000Y00900000D02*
D03*
X00387500Y00925000D02*
D03*
X00375000Y00950000D02*
D03*
X00387500Y00975000D02*
D03*
X00375000Y01000000D02*
D03*
X00387500Y01025000D02*
D03*
X00375000Y01050000D02*
D03*
X00387500Y01075000D02*
D03*
X00375000Y01100000D02*
D03*
X00400000Y00650000D02*
D03*
X00412500Y00725000D02*
D03*
X00400000Y00750000D02*
D03*
Y00800000D02*
D03*
X00412500Y00825000D02*
D03*
X00400000Y00850000D02*
D03*
Y00950000D02*
D03*
X00412500Y00975000D02*
D03*
X00400000Y01000000D02*
D03*
Y01050000D02*
D03*
X00412500Y01075000D02*
D03*
X00400000Y01100000D02*
D03*
X00425000Y00650000D02*
D03*
X00437500Y00675000D02*
D03*
X00425000Y00700000D02*
D03*
X00437500Y00725000D02*
D03*
X00425000Y00750000D02*
D03*
X00437500Y00825000D02*
D03*
X00425000Y00850000D02*
D03*
Y01000000D02*
D03*
X00437500Y01075000D02*
D03*
X00425000Y01100000D02*
D03*
X00437500Y01125000D02*
D03*
X00425000Y01150000D02*
D03*
X00450000Y00650000D02*
D03*
Y00700000D02*
D03*
X00462500Y00725000D02*
D03*
X00450000Y00750000D02*
D03*
X00462500Y00775000D02*
D03*
Y00825000D02*
D03*
Y00875000D02*
D03*
Y00925000D02*
D03*
Y00975000D02*
D03*
X00450000Y01000000D02*
D03*
X00462500Y01025000D02*
D03*
Y01075000D02*
D03*
X00450000Y01100000D02*
D03*
X00462500Y01125000D02*
D03*
X00450000Y01150000D02*
D03*
X00475000Y00650000D02*
D03*
Y00700000D02*
D03*
X00487500Y01025000D02*
D03*
X00475000Y01050000D02*
D03*
X00487500Y01075000D02*
D03*
X00475000Y01100000D02*
D03*
X00487500Y01125000D02*
D03*
X00475000Y01150000D02*
D03*
X00500000Y00650000D02*
D03*
X00512500Y00925000D02*
D03*
X00500000Y00950000D02*
D03*
Y01000000D02*
D03*
Y01100000D02*
D03*
X00512500Y01125000D02*
D03*
X00500000Y01150000D02*
D03*
X00525000Y00650000D02*
D03*
X00537500Y00825000D02*
D03*
Y00875000D02*
D03*
Y00925000D02*
D03*
X00525000Y01000000D02*
D03*
Y01100000D02*
D03*
X00537500Y01125000D02*
D03*
X00525000Y01150000D02*
D03*
X00550000Y00650000D02*
D03*
X00562500Y00875000D02*
D03*
X00550000Y00900000D02*
D03*
X00562500Y00925000D02*
D03*
X00550000Y00950000D02*
D03*
X00562500Y00975000D02*
D03*
Y01025000D02*
D03*
Y01075000D02*
D03*
X00550000Y01100000D02*
D03*
X00562500Y01125000D02*
D03*
X00550000Y01150000D02*
D03*
X00575000Y00650000D02*
D03*
Y01050000D02*
D03*
X00587500Y01075000D02*
D03*
X00575000Y01100000D02*
D03*
Y01150000D02*
D03*
X00600000Y00650000D02*
D03*
Y01050000D02*
D03*
X00612500Y01075000D02*
D03*
X00600000Y01100000D02*
D03*
X00625000Y00650000D02*
D03*
X00637500Y00825000D02*
D03*
Y00925000D02*
D03*
X00625000Y01050000D02*
D03*
X00637500Y01075000D02*
D03*
X00625000Y01100000D02*
D03*
X00650000Y00650000D02*
D03*
Y01100000D02*
D03*
X00675000Y00800000D02*
D03*
Y01050000D02*
D03*
X00687500Y01075000D02*
D03*
X00675000Y01100000D02*
D03*
X00700000Y00650000D02*
D03*
X00712500Y00675000D02*
D03*
X00700000Y00700000D02*
D03*
X00712500Y00925000D02*
D03*
Y01075000D02*
D03*
X00700000Y01100000D02*
D03*
X00712500Y01125000D02*
D03*
X00725000Y00650000D02*
D03*
X00737500Y00675000D02*
D03*
X00725000Y00700000D02*
D03*
X00737500Y00725000D02*
D03*
Y00775000D02*
D03*
Y00825000D02*
D03*
Y00875000D02*
D03*
Y00925000D02*
D03*
Y00975000D02*
D03*
Y01025000D02*
D03*
X00725000Y01050000D02*
D03*
X00737500Y01075000D02*
D03*
X00725000Y01100000D02*
D03*
X00737500Y01125000D02*
D03*
X00725000Y01150000D02*
D03*
X00750000Y00650000D02*
D03*
Y00700000D02*
D03*
Y00750000D02*
D03*
Y00800000D02*
D03*
Y00850000D02*
D03*
Y00900000D02*
D03*
Y00950000D02*
D03*
Y01000000D02*
D03*
Y01050000D02*
D03*
Y01100000D02*
D03*
Y01150000D02*
D03*
M02*
