G04 Layer_Physical_Order=4*
G04 Layer_Color=16711680*
%FSAX44Y44*%
%MOMM*%
G71*
G01*
G75*
%ADD11R,0.7500X0.9500*%
%ADD12R,1.3000X0.9000*%
%ADD13R,1.3500X1.4500*%
%ADD17C,0.2000*%
%ADD19C,0.5000*%
%ADD20C,0.2540*%
%ADD21C,1.6000*%
%ADD22R,1.6000X1.6000*%
%ADD23C,1.6900*%
%ADD24R,1.6900X1.6900*%
%ADD25C,4.7600*%
%ADD26C,4.5000*%
%ADD27C,0.8000*%
%ADD39R,0.8500X1.3000*%
%ADD40R,0.9500X0.7500*%
%ADD41R,0.9000X1.3000*%
%ADD42R,1.9000X2.4000*%
G36*
X00763762Y00639588D02*
X00341138D01*
Y01176512D01*
X00763762D01*
Y00639588D01*
D02*
G37*
%LPC*%
G36*
X00673350Y01169632D02*
Y01144580D01*
X00698401D01*
X00698176Y01147443D01*
X00697208Y01151475D01*
X00695622Y01155305D01*
X00693455Y01158840D01*
X00690763Y01161993D01*
X00687610Y01164685D01*
X00684075Y01166852D01*
X00680245Y01168438D01*
X00676213Y01169406D01*
X00673350Y01169632D01*
D02*
G37*
G36*
X00670810D02*
X00667947Y01169406D01*
X00663915Y01168438D01*
X00660085Y01166852D01*
X00656550Y01164685D01*
X00653397Y01161993D01*
X00650705Y01158840D01*
X00648538Y01155305D01*
X00646952Y01151475D01*
X00645984Y01147443D01*
X00645759Y01144580D01*
X00670810D01*
Y01169632D01*
D02*
G37*
G36*
X00387820Y01160036D02*
Y01136270D01*
X00411586D01*
X00411228Y01139909D01*
X00409796Y01144629D01*
X00407471Y01148979D01*
X00404342Y01152792D01*
X00400529Y01155921D01*
X00396179Y01158246D01*
X00391459Y01159678D01*
X00387820Y01160036D01*
D02*
G37*
G36*
X00385280Y01160036D02*
X00381641Y01159678D01*
X00376921Y01158246D01*
X00372571Y01155921D01*
X00368758Y01152792D01*
X00365629Y01148979D01*
X00363304Y01144629D01*
X00361872Y01139909D01*
X00361514Y01136270D01*
X00385280D01*
Y01160036D01*
D02*
G37*
G36*
X00670810Y01142040D02*
X00645759D01*
X00645984Y01139177D01*
X00646952Y01135145D01*
X00648538Y01131315D01*
X00650705Y01127780D01*
X00653397Y01124627D01*
X00656550Y01121935D01*
X00660085Y01119768D01*
X00663915Y01118182D01*
X00667947Y01117214D01*
X00670810Y01116988D01*
Y01142040D01*
D02*
G37*
G36*
X00698401D02*
X00673350D01*
Y01116988D01*
X00676213Y01117214D01*
X00680245Y01118182D01*
X00684075Y01119768D01*
X00687610Y01121935D01*
X00690763Y01124627D01*
X00693455Y01127780D01*
X00695622Y01131315D01*
X00697208Y01135145D01*
X00698176Y01139177D01*
X00698401Y01142040D01*
D02*
G37*
G36*
X00611550Y01159619D02*
X00606747Y01159146D01*
X00602129Y01157745D01*
X00597873Y01155470D01*
X00594142Y01152408D01*
X00591080Y01148677D01*
X00588806Y01144421D01*
X00587405Y01139803D01*
X00586931Y01135000D01*
X00587405Y01130197D01*
X00588806Y01125579D01*
X00591080Y01121323D01*
X00594142Y01117592D01*
X00597873Y01114530D01*
X00602129Y01112255D01*
X00606747Y01110854D01*
X00611550Y01110381D01*
X00616353Y01110854D01*
X00620971Y01112255D01*
X00625227Y01114530D01*
X00628958Y01117592D01*
X00632020Y01121323D01*
X00634295Y01125579D01*
X00635695Y01130197D01*
X00636169Y01135000D01*
X00635695Y01139803D01*
X00634295Y01144421D01*
X00632020Y01148677D01*
X00628958Y01152408D01*
X00625227Y01155470D01*
X00620971Y01157745D01*
X00616353Y01159146D01*
X00611550Y01159619D01*
D02*
G37*
G36*
X00411586Y01133730D02*
X00387820D01*
Y01109964D01*
X00391459Y01110322D01*
X00396179Y01111754D01*
X00400529Y01114079D01*
X00404342Y01117208D01*
X00407471Y01121021D01*
X00409796Y01125371D01*
X00411228Y01130091D01*
X00411586Y01133730D01*
D02*
G37*
G36*
X00385280D02*
X00361514D01*
X00361872Y01130091D01*
X00363304Y01125371D01*
X00365629Y01121021D01*
X00368758Y01117208D01*
X00372571Y01114079D01*
X00376921Y01111754D01*
X00381641Y01110322D01*
X00385280Y01109964D01*
Y01133730D01*
D02*
G37*
G36*
X00541020Y01077264D02*
Y01068070D01*
X00550214D01*
X00550019Y01069551D01*
X00548957Y01072115D01*
X00547267Y01074317D01*
X00545065Y01076007D01*
X00542501Y01077069D01*
X00541020Y01077264D01*
D02*
G37*
G36*
X00538480D02*
X00536998Y01077069D01*
X00534435Y01076007D01*
X00532233Y01074317D01*
X00530543Y01072115D01*
X00529481Y01069551D01*
X00529286Y01068070D01*
X00538480D01*
Y01077264D01*
D02*
G37*
G36*
X00668330Y01084160D02*
X00647430D01*
Y01063260D01*
X00668330D01*
Y01084160D01*
D02*
G37*
G36*
X00550214Y01065530D02*
X00541020D01*
Y01056336D01*
X00542501Y01056531D01*
X00545065Y01057593D01*
X00547267Y01059283D01*
X00548957Y01061485D01*
X00550019Y01064048D01*
X00550214Y01065530D01*
D02*
G37*
G36*
X00538480D02*
X00529286D01*
X00529481Y01064048D01*
X00530543Y01061485D01*
X00532233Y01059283D01*
X00534435Y01057593D01*
X00536998Y01056531D01*
X00538480Y01056336D01*
Y01065530D01*
D02*
G37*
G36*
X00659150Y01057018D02*
Y01047370D01*
X00668798D01*
X00668587Y01048969D01*
X00667480Y01051642D01*
X00665718Y01053938D01*
X00663422Y01055700D01*
X00660749Y01056807D01*
X00659150Y01057018D01*
D02*
G37*
G36*
X00656610D02*
X00655011Y01056807D01*
X00652338Y01055700D01*
X00650042Y01053938D01*
X00648280Y01051642D01*
X00647173Y01048969D01*
X00646962Y01047370D01*
X00656610D01*
Y01057018D01*
D02*
G37*
G36*
X00432820Y01065671D02*
Y01040620D01*
X00457872D01*
X00457646Y01043483D01*
X00456678Y01047515D01*
X00455092Y01051345D01*
X00452925Y01054880D01*
X00450233Y01058033D01*
X00447080Y01060725D01*
X00443545Y01062892D01*
X00439715Y01064478D01*
X00435683Y01065446D01*
X00432820Y01065671D01*
D02*
G37*
G36*
X00430280D02*
X00427417Y01065446D01*
X00423385Y01064478D01*
X00419555Y01062892D01*
X00416020Y01060725D01*
X00412867Y01058033D01*
X00410175Y01054880D01*
X00408008Y01051345D01*
X00406422Y01047515D01*
X00405454Y01043483D01*
X00405229Y01040620D01*
X00430280D01*
Y01065671D01*
D02*
G37*
G36*
X00668798Y01044830D02*
X00659150D01*
Y01035182D01*
X00660749Y01035393D01*
X00663422Y01036500D01*
X00665718Y01038262D01*
X00667480Y01040557D01*
X00668587Y01043231D01*
X00668798Y01044830D01*
D02*
G37*
G36*
X00656610D02*
X00646962D01*
X00647173Y01043231D01*
X00648280Y01040557D01*
X00650042Y01038262D01*
X00652338Y01036500D01*
X00655011Y01035393D01*
X00656610Y01035182D01*
Y01044830D01*
D02*
G37*
G36*
X00539750Y01051486D02*
X00537140Y01051143D01*
X00534707Y01050135D01*
X00532618Y01048532D01*
X00531015Y01046443D01*
X00530007Y01044010D01*
X00529664Y01041400D01*
X00530007Y01038790D01*
X00531015Y01036357D01*
X00532618Y01034268D01*
X00534707Y01032665D01*
X00537140Y01031657D01*
X00539750Y01031314D01*
X00542360Y01031657D01*
X00544793Y01032665D01*
X00546882Y01034268D01*
X00548485Y01036357D01*
X00549493Y01038790D01*
X00549836Y01041400D01*
X00549493Y01044010D01*
X00548485Y01046443D01*
X00546882Y01048532D01*
X00544793Y01050135D01*
X00542360Y01051143D01*
X00539750Y01051486D01*
D02*
G37*
G36*
X00514350D02*
X00511740Y01051143D01*
X00509307Y01050135D01*
X00507218Y01048532D01*
X00505615Y01046443D01*
X00504607Y01044010D01*
X00504264Y01041400D01*
X00504607Y01038790D01*
X00505615Y01036357D01*
X00507218Y01034268D01*
X00509307Y01032665D01*
X00511740Y01031657D01*
X00514350Y01031314D01*
X00516960Y01031657D01*
X00519393Y01032665D01*
X00521482Y01034268D01*
X00523085Y01036357D01*
X00524093Y01038790D01*
X00524436Y01041400D01*
X00524093Y01044010D01*
X00523085Y01046443D01*
X00521482Y01048532D01*
X00519393Y01050135D01*
X00516960Y01051143D01*
X00514350Y01051486D01*
D02*
G37*
G36*
X00657880Y01029030D02*
X00655152Y01028671D01*
X00652610Y01027618D01*
X00650427Y01025943D01*
X00648752Y01023760D01*
X00648420Y01022959D01*
X00647150Y01023211D01*
Y01025040D01*
X00630150D01*
Y01012040D01*
X00647150D01*
Y01013769D01*
X00648420Y01014021D01*
X00648752Y01013220D01*
X00650427Y01011037D01*
X00652610Y01009362D01*
X00655152Y01008309D01*
X00657880Y01007950D01*
X00660608Y01008309D01*
X00663150Y01009362D01*
X00665333Y01011037D01*
X00667008Y01013220D01*
X00668061Y01015762D01*
X00668420Y01018490D01*
X00668061Y01021218D01*
X00667008Y01023760D01*
X00665333Y01025943D01*
X00663150Y01027618D01*
X00660608Y01028671D01*
X00657880Y01029030D01*
D02*
G37*
G36*
X00686280Y01042835D02*
X00683552Y01042476D01*
X00681010Y01041423D01*
X00678827Y01039748D01*
X00677152Y01037565D01*
X00676099Y01035023D01*
X00675740Y01032295D01*
X00676099Y01029567D01*
X00677152Y01027025D01*
X00678827Y01024842D01*
X00681010Y01023167D01*
X00683552Y01022114D01*
X00686280Y01021755D01*
X00689008Y01022114D01*
X00691550Y01023167D01*
X00693733Y01024842D01*
X00695408Y01027025D01*
X00696461Y01029567D01*
X00696820Y01032295D01*
X00696461Y01035023D01*
X00695408Y01037565D01*
X00693733Y01039748D01*
X00691550Y01041423D01*
X00689008Y01042476D01*
X00686280Y01042835D01*
D02*
G37*
G36*
X00627690Y01025580D02*
X00619920D01*
Y01019810D01*
X00627690D01*
Y01025580D01*
D02*
G37*
G36*
X00617380D02*
X00609610D01*
Y01019810D01*
X00617380D01*
Y01025580D01*
D02*
G37*
G36*
X00541020Y01026464D02*
Y01017270D01*
X00550214D01*
X00550019Y01018752D01*
X00548957Y01021316D01*
X00547267Y01023517D01*
X00545065Y01025207D01*
X00542501Y01026269D01*
X00541020Y01026464D01*
D02*
G37*
G36*
X00538480D02*
X00536998Y01026269D01*
X00534435Y01025207D01*
X00532233Y01023517D01*
X00530543Y01021316D01*
X00529481Y01018752D01*
X00529286Y01017270D01*
X00538480D01*
Y01026464D01*
D02*
G37*
G36*
X00457872Y01038080D02*
X00432820D01*
Y01013028D01*
X00435683Y01013254D01*
X00439715Y01014222D01*
X00443545Y01015808D01*
X00447080Y01017975D01*
X00450233Y01020667D01*
X00452925Y01023820D01*
X00455092Y01027355D01*
X00456678Y01031185D01*
X00457646Y01035217D01*
X00457872Y01038080D01*
D02*
G37*
G36*
X00430280D02*
X00405229D01*
X00405454Y01035217D01*
X00406422Y01031185D01*
X00408008Y01027355D01*
X00410175Y01023820D01*
X00412867Y01020667D01*
X00416020Y01017975D01*
X00419555Y01015808D01*
X00423385Y01014222D01*
X00427417Y01013254D01*
X00430280Y01013028D01*
Y01038080D01*
D02*
G37*
G36*
X00627690Y01017270D02*
X00619920D01*
Y01011500D01*
X00627690D01*
Y01017270D01*
D02*
G37*
G36*
X00514350Y01026086D02*
X00511740Y01025743D01*
X00509307Y01024735D01*
X00507218Y01023132D01*
X00505615Y01021043D01*
X00504607Y01018611D01*
X00504264Y01016000D01*
X00504607Y01013390D01*
X00505615Y01010957D01*
X00507218Y01008868D01*
X00509307Y01007265D01*
X00511740Y01006257D01*
X00514350Y01005914D01*
X00516960Y01006257D01*
X00519393Y01007265D01*
X00521482Y01008868D01*
X00523085Y01010957D01*
X00524093Y01013390D01*
X00524436Y01016000D01*
X00524093Y01018611D01*
X00523085Y01021043D01*
X00521482Y01023132D01*
X00519393Y01024735D01*
X00516960Y01025743D01*
X00514350Y01026086D01*
D02*
G37*
G36*
X00550214Y01014730D02*
X00541020D01*
Y01005536D01*
X00542501Y01005731D01*
X00545065Y01006793D01*
X00547267Y01008483D01*
X00548957Y01010685D01*
X00550019Y01013249D01*
X00550214Y01014730D01*
D02*
G37*
G36*
X00538480D02*
X00529286D01*
X00529481Y01013249D01*
X00530543Y01010685D01*
X00532233Y01008483D01*
X00534435Y01006793D01*
X00536998Y01005731D01*
X00538480Y01005536D01*
Y01014730D01*
D02*
G37*
G36*
X00686280Y01015225D02*
X00683552Y01014866D01*
X00681010Y01013813D01*
X00678827Y01012138D01*
X00677152Y01009955D01*
X00676099Y01007413D01*
X00675740Y01004685D01*
X00676099Y01001957D01*
X00677152Y00999415D01*
X00678827Y00997232D01*
X00681010Y00995557D01*
X00683552Y00994504D01*
X00686280Y00994145D01*
X00689008Y00994504D01*
X00691550Y00995557D01*
X00693733Y00997232D01*
X00695408Y00999415D01*
X00696461Y01001957D01*
X00696820Y01004685D01*
X00696461Y01007413D01*
X00695408Y01009955D01*
X00693733Y01012138D01*
X00691550Y01013813D01*
X00689008Y01014866D01*
X00686280Y01015225D01*
D02*
G37*
G36*
X00659150Y01001798D02*
Y00992150D01*
X00668798D01*
X00668587Y00993749D01*
X00667480Y00996422D01*
X00665718Y00998718D01*
X00663422Y01000480D01*
X00660749Y01001587D01*
X00659150Y01001798D01*
D02*
G37*
G36*
X00656610D02*
X00655011Y01001587D01*
X00652338Y01000480D01*
X00650042Y00998718D01*
X00648280Y00996422D01*
X00647173Y00993749D01*
X00646962Y00992150D01*
X00656610D01*
Y01001798D01*
D02*
G37*
G36*
X00541020Y01001064D02*
Y00991870D01*
X00550214D01*
X00550019Y00993352D01*
X00548957Y00995916D01*
X00547267Y00998117D01*
X00545065Y00999807D01*
X00542501Y01000869D01*
X00541020Y01001064D01*
D02*
G37*
G36*
X00538480D02*
X00536998Y01000869D01*
X00534435Y00999807D01*
X00532233Y00998117D01*
X00530543Y00995916D01*
X00529481Y00993352D01*
X00529286Y00991870D01*
X00538480D01*
Y01001064D01*
D02*
G37*
G36*
X00596580Y00995680D02*
X00588560D01*
Y00987160D01*
X00596580D01*
Y00995680D01*
D02*
G37*
G36*
X00550214Y00989330D02*
X00541020D01*
Y00980136D01*
X00542501Y00980331D01*
X00545065Y00981393D01*
X00547267Y00983083D01*
X00548957Y00985285D01*
X00550019Y00987849D01*
X00550214Y00989330D01*
D02*
G37*
G36*
X00538480D02*
X00529286D01*
X00529481Y00987849D01*
X00530543Y00985285D01*
X00532233Y00983083D01*
X00534435Y00981393D01*
X00536998Y00980331D01*
X00538480Y00980136D01*
Y00989330D01*
D02*
G37*
G36*
X00626890Y00985670D02*
X00621370D01*
Y00977900D01*
X00626890D01*
Y00985670D01*
D02*
G37*
G36*
X00502590Y00975190D02*
X00496570D01*
Y00970170D01*
X00502590D01*
Y00975190D01*
D02*
G37*
G36*
Y00967630D02*
X00496570D01*
Y00962610D01*
X00502590D01*
Y00967630D01*
D02*
G37*
G36*
X00494030D02*
X00488010D01*
Y00962610D01*
X00494030D01*
Y00967630D01*
D02*
G37*
G36*
X00445750Y00980340D02*
X00443022Y00979981D01*
X00440480Y00978928D01*
X00438297Y00977253D01*
X00436622Y00975070D01*
X00435569Y00972528D01*
X00435210Y00969800D01*
X00435569Y00967072D01*
X00436622Y00964530D01*
X00438297Y00962347D01*
X00440480Y00960672D01*
X00443022Y00959619D01*
X00445750Y00959260D01*
X00448478Y00959619D01*
X00451020Y00960672D01*
X00453203Y00962347D01*
X00454878Y00964530D01*
X00455931Y00967072D01*
X00456290Y00969800D01*
X00455931Y00972528D01*
X00454878Y00975070D01*
X00453203Y00977253D01*
X00451020Y00978928D01*
X00448478Y00979981D01*
X00445750Y00980340D01*
D02*
G37*
G36*
X00711890Y00964240D02*
X00706120D01*
Y00956470D01*
X00711890D01*
Y00964240D01*
D02*
G37*
G36*
X00703580D02*
X00697810D01*
Y00956470D01*
X00703580D01*
Y00964240D01*
D02*
G37*
G36*
X00668798Y00962000D02*
X00659150D01*
Y00952352D01*
X00660749Y00952563D01*
X00663422Y00953670D01*
X00665718Y00955432D01*
X00667480Y00957728D01*
X00668587Y00960401D01*
X00668798Y00962000D01*
D02*
G37*
G36*
X00656610D02*
X00646962D01*
X00647173Y00960401D01*
X00648280Y00957728D01*
X00650042Y00955432D01*
X00652338Y00953670D01*
X00655011Y00952563D01*
X00656610Y00952352D01*
Y00962000D01*
D02*
G37*
G36*
X00711890Y00953930D02*
X00706120D01*
Y00946160D01*
X00711890D01*
Y00953930D01*
D02*
G37*
G36*
X00686280Y00960005D02*
X00683552Y00959646D01*
X00681010Y00958593D01*
X00678827Y00956918D01*
X00677152Y00954735D01*
X00676099Y00952193D01*
X00675740Y00949465D01*
X00676099Y00946737D01*
X00677152Y00944195D01*
X00678827Y00942012D01*
X00681010Y00940337D01*
X00683552Y00939284D01*
X00686280Y00938925D01*
X00689008Y00939284D01*
X00691550Y00940337D01*
X00693733Y00942012D01*
X00695408Y00944195D01*
X00696461Y00946737D01*
X00696540Y00947337D01*
X00697810Y00947254D01*
Y00946160D01*
X00703580D01*
Y00953930D01*
X00697810D01*
Y00951676D01*
X00696540Y00951593D01*
X00696461Y00952193D01*
X00695408Y00954735D01*
X00693733Y00956918D01*
X00691550Y00958593D01*
X00689008Y00959646D01*
X00686280Y00960005D01*
D02*
G37*
G36*
X00417350Y00966490D02*
X00414622Y00966131D01*
X00412080Y00965078D01*
X00409897Y00963403D01*
X00408222Y00961220D01*
X00407169Y00958678D01*
X00406810Y00955950D01*
X00407169Y00953222D01*
X00408222Y00950680D01*
X00409897Y00948497D01*
X00412080Y00946822D01*
X00414622Y00945769D01*
X00417350Y00945410D01*
X00420078Y00945769D01*
X00422620Y00946822D01*
X00424803Y00948497D01*
X00426478Y00950680D01*
X00427531Y00953222D01*
X00427890Y00955950D01*
X00427531Y00958678D01*
X00426478Y00961220D01*
X00424803Y00963403D01*
X00422620Y00965078D01*
X00420078Y00966131D01*
X00417350Y00966490D01*
D02*
G37*
G36*
X00549750Y00975200D02*
X00529750D01*
Y00955200D01*
X00533925D01*
X00534411Y00954027D01*
X00533887Y00953503D01*
X00533484Y00952900D01*
X00530300D01*
Y00939400D01*
X00541800D01*
Y00952764D01*
X00541913Y00952877D01*
X00541913Y00952877D01*
X00542576Y00953869D01*
X00542809Y00955040D01*
Y00955200D01*
X00549750D01*
Y00975200D01*
D02*
G37*
G36*
X00659150Y00946578D02*
Y00936930D01*
X00668798D01*
X00668587Y00938529D01*
X00667480Y00941202D01*
X00665718Y00943498D01*
X00663422Y00945260D01*
X00660749Y00946367D01*
X00659150Y00946578D01*
D02*
G37*
G36*
X00656610D02*
X00655011Y00946367D01*
X00652338Y00945260D01*
X00650042Y00943498D01*
X00648280Y00941202D01*
X00647173Y00938529D01*
X00646962Y00936930D01*
X00656610D01*
Y00946578D01*
D02*
G37*
G36*
X00445750Y00952640D02*
X00443022Y00952281D01*
X00440480Y00951228D01*
X00438297Y00949553D01*
X00436622Y00947370D01*
X00435569Y00944828D01*
X00435210Y00942100D01*
X00435569Y00939372D01*
X00436622Y00936830D01*
X00438297Y00934647D01*
X00440480Y00932972D01*
X00443022Y00931919D01*
X00445750Y00931560D01*
X00448478Y00931919D01*
X00451020Y00932972D01*
X00453203Y00934647D01*
X00454878Y00936830D01*
X00455931Y00939372D01*
X00456290Y00942100D01*
X00455931Y00944828D01*
X00454878Y00947370D01*
X00453203Y00949553D01*
X00451020Y00951228D01*
X00448478Y00952281D01*
X00445750Y00952640D01*
D02*
G37*
G36*
X00668798Y00934390D02*
X00659150D01*
Y00924742D01*
X00660749Y00924953D01*
X00663422Y00926060D01*
X00665718Y00927822D01*
X00667480Y00930118D01*
X00668587Y00932791D01*
X00668798Y00934390D01*
D02*
G37*
G36*
X00656610D02*
X00646962D01*
X00647173Y00932791D01*
X00648280Y00930118D01*
X00650042Y00927822D01*
X00652338Y00926060D01*
X00655011Y00924953D01*
X00656610Y00924742D01*
Y00934390D01*
D02*
G37*
G36*
X00417350Y00938790D02*
X00414622Y00938431D01*
X00412080Y00937378D01*
X00409897Y00935703D01*
X00408222Y00933520D01*
X00407169Y00930978D01*
X00406810Y00928250D01*
X00407169Y00925522D01*
X00408222Y00922980D01*
X00409897Y00920797D01*
X00412080Y00919122D01*
X00414622Y00918069D01*
X00417350Y00917710D01*
X00420078Y00918069D01*
X00422620Y00919122D01*
X00424803Y00920797D01*
X00426478Y00922980D01*
X00427531Y00925522D01*
X00427890Y00928250D01*
X00427531Y00930978D01*
X00426478Y00933520D01*
X00424803Y00935703D01*
X00422620Y00937378D01*
X00420078Y00938431D01*
X00417350Y00938790D01*
D02*
G37*
G36*
X00447020Y00925318D02*
Y00915670D01*
X00456668D01*
X00456457Y00917269D01*
X00455350Y00919942D01*
X00453588Y00922238D01*
X00451292Y00924000D01*
X00448619Y00925107D01*
X00447020Y00925318D01*
D02*
G37*
G36*
X00444480Y00925318D02*
X00442881Y00925107D01*
X00440208Y00924000D01*
X00437912Y00922238D01*
X00436150Y00919942D01*
X00435043Y00917269D01*
X00434832Y00915670D01*
X00444480D01*
Y00925318D01*
D02*
G37*
G36*
X00417350Y00911090D02*
X00414622Y00910731D01*
X00412080Y00909678D01*
X00409897Y00908003D01*
X00408222Y00905820D01*
X00407306Y00903609D01*
X00405530D01*
Y00906290D01*
X00392030D01*
Y00894790D01*
X00405530D01*
Y00897491D01*
X00407306D01*
X00408222Y00895280D01*
X00409897Y00893097D01*
X00412080Y00891422D01*
X00413029Y00891029D01*
X00412776Y00889759D01*
X00411720D01*
X00410549Y00889526D01*
X00409557Y00888863D01*
X00409557Y00888863D01*
X00406800Y00886106D01*
X00405530Y00886632D01*
Y00888290D01*
X00392030D01*
Y00876790D01*
X00405530D01*
Y00879481D01*
X00407560D01*
X00407560Y00879481D01*
X00407685Y00879506D01*
X00408401Y00878354D01*
X00408222Y00878120D01*
X00407169Y00875578D01*
X00406810Y00872850D01*
X00407169Y00870122D01*
X00408222Y00867580D01*
X00409897Y00865397D01*
X00412080Y00863722D01*
X00414622Y00862669D01*
X00417350Y00862310D01*
X00420078Y00862669D01*
X00422620Y00863722D01*
X00424803Y00865397D01*
X00426478Y00867580D01*
X00427531Y00870122D01*
X00427890Y00872850D01*
X00427531Y00875578D01*
X00426478Y00878120D01*
X00424803Y00880303D01*
X00422620Y00881978D01*
X00421671Y00882371D01*
X00421923Y00883641D01*
X00435706D01*
X00436622Y00881430D01*
X00438297Y00879247D01*
X00440480Y00877572D01*
X00443022Y00876519D01*
X00445750Y00876160D01*
X00448478Y00876519D01*
X00451020Y00877572D01*
X00453203Y00879247D01*
X00454878Y00881430D01*
X00455931Y00883972D01*
X00456290Y00886700D01*
X00455931Y00889428D01*
X00454878Y00891970D01*
X00453203Y00894153D01*
X00451020Y00895828D01*
X00448478Y00896881D01*
X00445750Y00897240D01*
X00443022Y00896881D01*
X00440480Y00895828D01*
X00438297Y00894153D01*
X00436622Y00891970D01*
X00435706Y00889759D01*
X00421923D01*
X00421671Y00891029D01*
X00422620Y00891422D01*
X00424803Y00893097D01*
X00426478Y00895280D01*
X00427531Y00897822D01*
X00427890Y00900550D01*
X00427531Y00903278D01*
X00426478Y00905820D01*
X00424803Y00908003D01*
X00422620Y00909678D01*
X00420078Y00910731D01*
X00417350Y00911090D01*
D02*
G37*
G36*
X00444480Y00913130D02*
X00434832D01*
X00435043Y00911531D01*
X00436150Y00908858D01*
X00437912Y00906562D01*
X00440208Y00904800D01*
X00442881Y00903693D01*
X00444480Y00903482D01*
Y00913130D01*
D02*
G37*
G36*
X00456668D02*
X00447020D01*
Y00903482D01*
X00448619Y00903693D01*
X00451292Y00904800D01*
X00453588Y00906562D01*
X00455350Y00908858D01*
X00456457Y00911531D01*
X00456668Y00913130D01*
D02*
G37*
G36*
X00596580Y00893710D02*
X00588560D01*
Y00885190D01*
X00596580D01*
Y00893710D01*
D02*
G37*
G36*
X00607140Y00882650D02*
X00599120D01*
Y00874130D01*
X00607140D01*
Y00882650D01*
D02*
G37*
G36*
X00596580D02*
X00588560D01*
Y00874130D01*
X00596580D01*
Y00882650D01*
D02*
G37*
G36*
X00617380Y00859210D02*
X00609610D01*
Y00853440D01*
X00617380D01*
Y00859210D01*
D02*
G37*
G36*
X00552450Y00863367D02*
X00550109Y00862902D01*
X00548124Y00861576D01*
X00546798Y00859591D01*
X00546333Y00857250D01*
X00546798Y00854909D01*
X00548124Y00852924D01*
X00550109Y00851598D01*
X00552450Y00851133D01*
X00554791Y00851598D01*
X00556776Y00852924D01*
X00558102Y00854909D01*
X00558568Y00857250D01*
X00558102Y00859591D01*
X00556776Y00861576D01*
X00554791Y00862902D01*
X00552450Y00863367D01*
D02*
G37*
G36*
X00456200Y00869450D02*
X00435300D01*
Y00848550D01*
X00456200D01*
Y00869450D01*
D02*
G37*
G36*
X00627690Y00850900D02*
X00619920D01*
Y00845130D01*
X00627690D01*
Y00850900D01*
D02*
G37*
G36*
X00617380D02*
X00609610D01*
Y00845130D01*
X00617380D01*
Y00850900D01*
D02*
G37*
G36*
X00518160Y00813838D02*
X00515819Y00813372D01*
X00513834Y00812046D01*
X00512508Y00810061D01*
X00512043Y00807720D01*
X00512508Y00805379D01*
X00513834Y00803394D01*
X00515819Y00802068D01*
X00518160Y00801602D01*
X00520501Y00802068D01*
X00522486Y00803394D01*
X00523812Y00805379D01*
X00524277Y00807720D01*
X00523812Y00810061D01*
X00522486Y00812046D01*
X00520501Y00813372D01*
X00518160Y00813838D01*
D02*
G37*
G36*
X00627690Y00804600D02*
X00619920D01*
Y00798830D01*
X00627690D01*
Y00804600D01*
D02*
G37*
G36*
X00617380D02*
X00609610D01*
Y00798830D01*
X00617380D01*
Y00804600D01*
D02*
G37*
G36*
X00590550Y00846858D02*
X00588209Y00846392D01*
X00586224Y00845066D01*
X00584898Y00843081D01*
X00584432Y00840740D01*
X00584898Y00838399D01*
X00586224Y00836414D01*
X00587491Y00835568D01*
Y00802732D01*
X00586224Y00801886D01*
X00584898Y00799901D01*
X00584432Y00797560D01*
X00584898Y00795219D01*
X00586224Y00793234D01*
X00588209Y00791908D01*
X00590550Y00791442D01*
X00592891Y00791908D01*
X00594876Y00793234D01*
X00596202Y00795219D01*
X00596668Y00797560D01*
X00596202Y00799901D01*
X00594876Y00801886D01*
X00593609Y00802732D01*
Y00835568D01*
X00594876Y00836414D01*
X00596202Y00838399D01*
X00596668Y00840740D01*
X00596202Y00843081D01*
X00594876Y00845066D01*
X00592891Y00846392D01*
X00590550Y00846858D01*
D02*
G37*
G36*
X00432820Y00815771D02*
Y00790720D01*
X00457872D01*
X00457646Y00793583D01*
X00456678Y00797615D01*
X00455092Y00801445D01*
X00452925Y00804980D01*
X00450233Y00808133D01*
X00447080Y00810825D01*
X00443545Y00812992D01*
X00439715Y00814578D01*
X00435683Y00815546D01*
X00432820Y00815771D01*
D02*
G37*
G36*
X00430280D02*
X00427417Y00815546D01*
X00423385Y00814578D01*
X00419555Y00812992D01*
X00416020Y00810825D01*
X00412867Y00808133D01*
X00410175Y00804980D01*
X00408008Y00801445D01*
X00406422Y00797615D01*
X00405454Y00793583D01*
X00405229Y00790720D01*
X00430280D01*
Y00815771D01*
D02*
G37*
G36*
X00627690Y00796290D02*
X00619920D01*
Y00790520D01*
X00627690D01*
Y00796290D01*
D02*
G37*
G36*
X00617380D02*
X00609610D01*
Y00790520D01*
X00617380D01*
Y00796290D01*
D02*
G37*
G36*
X00686280Y00794345D02*
X00683552Y00793986D01*
X00681010Y00792933D01*
X00678827Y00791258D01*
X00677152Y00789075D01*
X00676099Y00786533D01*
X00675740Y00783805D01*
X00676099Y00781077D01*
X00677152Y00778535D01*
X00678827Y00776352D01*
X00681010Y00774677D01*
X00683552Y00773624D01*
X00686280Y00773265D01*
X00689008Y00773624D01*
X00691550Y00774677D01*
X00693733Y00776352D01*
X00695408Y00778535D01*
X00696461Y00781077D01*
X00696820Y00783805D01*
X00696461Y00786533D01*
X00695408Y00789075D01*
X00693733Y00791258D01*
X00691550Y00792933D01*
X00689008Y00793986D01*
X00686280Y00794345D01*
D02*
G37*
G36*
X00430280Y00788180D02*
X00405229D01*
X00405454Y00785317D01*
X00406422Y00781285D01*
X00408008Y00777455D01*
X00410175Y00773920D01*
X00412867Y00770767D01*
X00416020Y00768075D01*
X00419555Y00765908D01*
X00423385Y00764322D01*
X00427417Y00763354D01*
X00430280Y00763129D01*
Y00788180D01*
D02*
G37*
G36*
X00457872D02*
X00432820D01*
Y00763129D01*
X00435683Y00763354D01*
X00439715Y00764322D01*
X00443545Y00765908D01*
X00447080Y00768075D01*
X00450233Y00770767D01*
X00452925Y00773920D01*
X00455092Y00777455D01*
X00456678Y00781285D01*
X00457646Y00785317D01*
X00457872Y00788180D01*
D02*
G37*
G36*
X00619600Y00774307D02*
X00617259Y00773842D01*
X00615274Y00772516D01*
X00613948Y00770531D01*
X00613483Y00768190D01*
X00613948Y00765849D01*
X00615274Y00763864D01*
X00617259Y00762538D01*
X00619600Y00762073D01*
X00621941Y00762538D01*
X00623926Y00763864D01*
X00625252Y00765849D01*
X00625718Y00768190D01*
X00625252Y00770531D01*
X00623926Y00772516D01*
X00621941Y00773842D01*
X00619600Y00774307D01*
D02*
G37*
G36*
X00657880Y00780540D02*
X00655152Y00780181D01*
X00652610Y00779128D01*
X00650427Y00777453D01*
X00648752Y00775270D01*
X00647699Y00772728D01*
X00647340Y00770000D01*
X00647699Y00767272D01*
X00648752Y00764730D01*
X00650427Y00762547D01*
X00652610Y00760872D01*
X00655152Y00759819D01*
X00657880Y00759460D01*
X00660608Y00759819D01*
X00663150Y00760872D01*
X00665333Y00762547D01*
X00667008Y00764730D01*
X00668061Y00767272D01*
X00668420Y00770000D01*
X00668061Y00772728D01*
X00667008Y00775270D01*
X00665333Y00777453D01*
X00663150Y00779128D01*
X00660608Y00780181D01*
X00657880Y00780540D01*
D02*
G37*
G36*
X00514350Y01076886D02*
X00511740Y01076543D01*
X00509307Y01075535D01*
X00507218Y01073932D01*
X00505615Y01071843D01*
X00504607Y01069410D01*
X00504264Y01066800D01*
X00504607Y01064190D01*
X00505429Y01062205D01*
X00470277Y01027053D01*
X00469614Y01026060D01*
X00469381Y01024890D01*
X00469381Y01024890D01*
Y00789940D01*
X00469381Y00789940D01*
X00469614Y00788770D01*
X00470277Y00787777D01*
X00498867Y00759187D01*
X00499860Y00758524D01*
X00501030Y00758291D01*
X00506234D01*
X00507040Y00757309D01*
X00506963Y00756920D01*
X00507428Y00754579D01*
X00508754Y00752594D01*
X00510739Y00751268D01*
X00513080Y00750803D01*
X00513834Y00750953D01*
X00514733Y00750054D01*
X00514582Y00749300D01*
X00514760Y00748407D01*
X00514662Y00748233D01*
X00513660Y00747430D01*
X00511810Y00747797D01*
X00509469Y00747332D01*
X00507484Y00746006D01*
X00506158Y00744021D01*
X00505692Y00741680D01*
X00506158Y00739339D01*
X00507484Y00737354D01*
X00509469Y00736028D01*
X00511810Y00735563D01*
X00513660Y00735930D01*
X00514662Y00735127D01*
X00514760Y00734953D01*
X00514582Y00734060D01*
X00514760Y00733167D01*
X00514662Y00732993D01*
X00513660Y00732190D01*
X00511810Y00732558D01*
X00509469Y00732092D01*
X00507484Y00730766D01*
X00506158Y00728781D01*
X00505692Y00726440D01*
X00506158Y00724099D01*
X00507084Y00722714D01*
X00506922Y00721079D01*
X00506214Y00720606D01*
X00504888Y00718621D01*
X00504422Y00716280D01*
X00504888Y00713939D01*
X00504959Y00713832D01*
X00504941Y00713740D01*
X00504941Y00713740D01*
Y00708170D01*
X00501250D01*
Y00696670D01*
X00514750D01*
Y00708170D01*
X00511059D01*
Y00710266D01*
X00512881Y00710628D01*
X00514866Y00711954D01*
X00515491Y00712890D01*
X00517019D01*
X00517644Y00711954D01*
X00519629Y00710628D01*
X00521970Y00710163D01*
X00524311Y00710628D01*
X00526296Y00711954D01*
X00527142Y00713221D01*
X00534673D01*
X00539301Y00708593D01*
X00538815Y00707420D01*
X00520450D01*
Y00687479D01*
X00514750D01*
Y00690170D01*
X00501250D01*
Y00678670D01*
X00514750D01*
Y00681361D01*
X00520450D01*
Y00679420D01*
X00528891D01*
Y00675790D01*
X00522200D01*
Y00662790D01*
X00539200D01*
Y00665444D01*
X00540448Y00665679D01*
X00541774Y00663694D01*
X00543759Y00662368D01*
X00546100Y00661902D01*
X00548441Y00662368D01*
X00550426Y00663694D01*
X00551752Y00665679D01*
X00553000Y00665444D01*
Y00662790D01*
X00570000D01*
Y00675790D01*
X00564559D01*
Y00679420D01*
X00584450D01*
Y00707420D01*
X00561450D01*
Y00696479D01*
X00560067D01*
X00538103Y00718443D01*
X00537110Y00719106D01*
X00535940Y00719339D01*
X00535940Y00719339D01*
X00527142D01*
X00526296Y00720606D01*
X00524311Y00721932D01*
X00523034Y00722186D01*
X00523159Y00723456D01*
X00526130D01*
X00527406Y00723710D01*
X00528488Y00724433D01*
X00530241Y00726186D01*
X00576987D01*
X00590531Y00712643D01*
X00591613Y00711920D01*
X00592888Y00711666D01*
X00629487D01*
X00636670Y00704482D01*
X00637752Y00703760D01*
X00639028Y00703506D01*
X00687495D01*
X00688771Y00703760D01*
X00689853Y00704482D01*
X00723367Y00737997D01*
X00724090Y00739079D01*
X00724344Y00740355D01*
Y01025175D01*
X00724090Y01026451D01*
X00723367Y01027533D01*
X00695659Y01055241D01*
X00696461Y01057177D01*
X00696820Y01059905D01*
X00696461Y01062633D01*
X00695408Y01065175D01*
X00693733Y01067358D01*
X00691550Y01069033D01*
X00689008Y01070086D01*
X00686280Y01070445D01*
X00683552Y01070086D01*
X00681010Y01069033D01*
X00678827Y01067358D01*
X00677152Y01065175D01*
X00676099Y01062633D01*
X00675740Y01059905D01*
X00676099Y01057177D01*
X00677152Y01054635D01*
X00678827Y01052452D01*
X00681010Y01050777D01*
X00683552Y01049724D01*
X00686280Y01049365D01*
X00689008Y01049724D01*
X00690944Y01050526D01*
X00717676Y01023794D01*
Y00914838D01*
X00716503Y00914352D01*
X00706643Y00924212D01*
X00705561Y00924935D01*
X00704285Y00925189D01*
X00696210D01*
X00695408Y00927125D01*
X00693733Y00929308D01*
X00691550Y00930983D01*
X00689008Y00932036D01*
X00686280Y00932395D01*
X00683552Y00932036D01*
X00681010Y00930983D01*
X00678827Y00929308D01*
X00677152Y00927125D01*
X00676099Y00924583D01*
X00675740Y00921855D01*
X00676099Y00919127D01*
X00677152Y00916585D01*
X00678827Y00914402D01*
X00681010Y00912727D01*
X00681186Y00912654D01*
X00680933Y00911384D01*
X00667810D01*
X00667008Y00913320D01*
X00665333Y00915503D01*
X00663150Y00917178D01*
X00660608Y00918231D01*
X00657880Y00918590D01*
X00655152Y00918231D01*
X00652610Y00917178D01*
X00650427Y00915503D01*
X00648752Y00913320D01*
X00647950Y00911384D01*
X00643400D01*
Y00914800D01*
X00631900D01*
Y00903948D01*
X00630727Y00903462D01*
X00625400Y00908789D01*
Y00914800D01*
X00624238D01*
Y00927718D01*
X00624641Y00927798D01*
X00626626Y00929124D01*
X00627952Y00931109D01*
X00628418Y00933450D01*
X00627952Y00935791D01*
X00626626Y00937776D01*
X00624641Y00939102D01*
X00622300Y00939567D01*
X00619959Y00939102D01*
X00617974Y00937776D01*
X00616648Y00935791D01*
X00616256Y00933821D01*
X00615411Y00932556D01*
X00615062Y00930800D01*
Y00914800D01*
X00613900D01*
Y00901300D01*
X00619911D01*
X00626868Y00894343D01*
X00626382Y00893170D01*
X00618589D01*
X00602758Y00909000D01*
Y00934090D01*
X00612844Y00944176D01*
X00613839Y00945664D01*
X00614188Y00947420D01*
Y00950350D01*
X00626350D01*
Y00954909D01*
X00627620Y00955294D01*
X00628134Y00954524D01*
X00630119Y00953198D01*
X00632460Y00952732D01*
X00634801Y00953198D01*
X00636786Y00954524D01*
X00638112Y00956509D01*
X00638577Y00958850D01*
X00638112Y00961191D01*
X00636786Y00963176D01*
X00634801Y00964502D01*
X00633899Y00964681D01*
X00634025Y00965951D01*
X00641350D01*
X00641350Y00965951D01*
X00642521Y00966184D01*
X00643513Y00966847D01*
X00651507Y00974841D01*
X00653779D01*
X00654031Y00973571D01*
X00652338Y00972870D01*
X00650042Y00971108D01*
X00648280Y00968812D01*
X00647173Y00966139D01*
X00646962Y00964540D01*
X00668798D01*
X00668587Y00966139D01*
X00667480Y00968812D01*
X00665718Y00971108D01*
X00663422Y00972870D01*
X00661729Y00973571D01*
X00661982Y00974841D01*
X00676034D01*
X00676099Y00974347D01*
X00677152Y00971805D01*
X00678827Y00969622D01*
X00681010Y00967947D01*
X00683552Y00966894D01*
X00686280Y00966535D01*
X00689008Y00966894D01*
X00691550Y00967947D01*
X00693733Y00969622D01*
X00695408Y00971805D01*
X00696324Y00974016D01*
X00698350D01*
Y00966700D01*
X00711350D01*
Y00983700D01*
X00698350D01*
Y00980134D01*
X00696324D01*
X00695408Y00982345D01*
X00693733Y00984528D01*
X00691550Y00986203D01*
X00689008Y00987256D01*
X00686280Y00987615D01*
X00683552Y00987256D01*
X00681010Y00986203D01*
X00678827Y00984528D01*
X00677152Y00982345D01*
X00676578Y00980959D01*
X00665090D01*
X00664659Y00982229D01*
X00665718Y00983042D01*
X00667480Y00985338D01*
X00668587Y00988011D01*
X00668798Y00989610D01*
X00646962D01*
X00647173Y00988011D01*
X00648280Y00985338D01*
X00650042Y00983042D01*
X00651101Y00982229D01*
X00650670Y00980959D01*
X00650240D01*
X00650240Y00980959D01*
X00649070Y00980726D01*
X00648077Y00980063D01*
X00648077Y00980063D01*
X00640083Y00972069D01*
X00630260D01*
X00629089Y00971836D01*
X00628160Y00971215D01*
X00627600Y00971331D01*
X00626890Y00971625D01*
Y00975360D01*
X00620100D01*
Y00976630D01*
X00618830D01*
Y00985670D01*
X00618218D01*
X00617732Y00986843D01*
X00618589Y00987700D01*
X00630100D01*
Y01006200D01*
X00618589D01*
X00614462Y01010327D01*
X00614948Y01011500D01*
X00617380D01*
Y01017270D01*
X00609610D01*
Y01016838D01*
X00608437Y01016352D01*
X00605298Y01019491D01*
Y01030610D01*
X00610063Y01035375D01*
X00611941Y01035748D01*
X00613926Y01037074D01*
X00615252Y01039059D01*
X00615718Y01041400D01*
X00615252Y01043741D01*
X00613926Y01045726D01*
X00611941Y01047052D01*
X00609600Y01047517D01*
X00607259Y01047052D01*
X00605274Y01045726D01*
X00603948Y01043741D01*
X00603575Y01041863D01*
X00597466Y01035754D01*
X00596471Y01034266D01*
X00596122Y01032510D01*
Y01017590D01*
X00596471Y01015834D01*
X00597466Y01014346D01*
X00603898Y01007913D01*
X00603412Y01006740D01*
X00599120D01*
Y00996950D01*
Y00987160D01*
X00603822D01*
X00604582Y00986087D01*
X00604130Y00985130D01*
X00592850D01*
Y00980571D01*
X00591580Y00980186D01*
X00591066Y00980956D01*
X00589081Y00982282D01*
X00586740Y00982747D01*
X00584399Y00982282D01*
X00582414Y00980956D01*
X00581088Y00978971D01*
X00580622Y00976630D01*
X00581088Y00974289D01*
X00582414Y00972304D01*
X00584399Y00970978D01*
X00586740Y00970512D01*
X00589081Y00970978D01*
X00591066Y00972304D01*
X00591580Y00973074D01*
X00592850Y00972689D01*
Y00968130D01*
X00592850D01*
Y00967350D01*
X00592850D01*
Y00950350D01*
X00604431D01*
X00604771Y00949080D01*
X00594926Y00939234D01*
X00593931Y00937746D01*
X00593582Y00935990D01*
Y00907100D01*
X00593931Y00905344D01*
X00594926Y00903856D01*
X00603898Y00894883D01*
X00603412Y00893710D01*
X00599120D01*
Y00885190D01*
X00607140D01*
Y00889982D01*
X00608313Y00890468D01*
X00612600Y00886181D01*
Y00874670D01*
X00616442D01*
Y00869790D01*
X00616791Y00868034D01*
X00617786Y00866546D01*
X00623948Y00860383D01*
X00623462Y00859210D01*
X00619920D01*
Y00853440D01*
X00627690D01*
Y00854982D01*
X00628863Y00855468D01*
X00630150Y00854181D01*
Y00845670D01*
X00647150D01*
Y00847582D01*
X00648743D01*
X00648752Y00847560D01*
X00650427Y00845377D01*
X00652610Y00843702D01*
X00655152Y00842649D01*
X00657880Y00842290D01*
X00660608Y00842649D01*
X00663150Y00843702D01*
X00665333Y00845377D01*
X00665972Y00846209D01*
X00667242Y00845778D01*
Y00832272D01*
X00665972Y00831840D01*
X00665333Y00832673D01*
X00663150Y00834348D01*
X00660608Y00835401D01*
X00657880Y00835760D01*
X00655152Y00835401D01*
X00652610Y00834348D01*
X00650427Y00832673D01*
X00648752Y00830490D01*
X00647699Y00827948D01*
X00647340Y00825220D01*
X00647699Y00822492D01*
X00648752Y00819950D01*
X00650427Y00817767D01*
X00652610Y00816092D01*
X00655152Y00815039D01*
X00657880Y00814680D01*
X00660608Y00815039D01*
X00663150Y00816092D01*
X00665333Y00817767D01*
X00665972Y00818599D01*
X00667242Y00818168D01*
Y00813460D01*
X00661290Y00807508D01*
X00660608Y00807791D01*
X00657880Y00808150D01*
X00655152Y00807791D01*
X00652610Y00806738D01*
X00650427Y00805063D01*
X00648752Y00802880D01*
X00648469Y00802198D01*
X00647150D01*
Y00804060D01*
X00630150D01*
Y00791060D01*
X00647150D01*
Y00793022D01*
X00648469D01*
X00648752Y00792340D01*
X00650427Y00790157D01*
X00652610Y00788482D01*
X00655152Y00787429D01*
X00657880Y00787070D01*
X00660608Y00787429D01*
X00663150Y00788482D01*
X00665333Y00790157D01*
X00667008Y00792340D01*
X00668061Y00794882D01*
X00668420Y00797610D01*
X00668061Y00800338D01*
X00667778Y00801020D01*
X00674936Y00808177D01*
X00675584Y00808190D01*
X00676386Y00807993D01*
X00677152Y00806145D01*
X00678827Y00803962D01*
X00681010Y00802287D01*
X00683552Y00801234D01*
X00686280Y00800875D01*
X00689008Y00801234D01*
X00691550Y00802287D01*
X00693733Y00803962D01*
X00695408Y00806145D01*
X00696461Y00808687D01*
X00696820Y00811415D01*
X00696461Y00814143D01*
X00695408Y00816685D01*
X00693733Y00818868D01*
X00691550Y00820543D01*
X00689008Y00821596D01*
X00686280Y00821955D01*
X00683552Y00821596D01*
X00681010Y00820543D01*
X00678827Y00818868D01*
X00677688Y00817384D01*
X00676418Y00817815D01*
Y00832625D01*
X00677688Y00833056D01*
X00678827Y00831572D01*
X00681010Y00829897D01*
X00683552Y00828844D01*
X00686280Y00828485D01*
X00689008Y00828844D01*
X00691550Y00829897D01*
X00693733Y00831572D01*
X00695408Y00833755D01*
X00696461Y00836297D01*
X00696820Y00839025D01*
X00696461Y00841753D01*
X00695408Y00844295D01*
X00693733Y00846478D01*
X00691550Y00848153D01*
X00689008Y00849206D01*
X00686280Y00849565D01*
X00683552Y00849206D01*
X00681010Y00848153D01*
X00678827Y00846478D01*
X00677688Y00844994D01*
X00676418Y00845425D01*
Y00850280D01*
X00676069Y00852036D01*
X00675418Y00853010D01*
Y00858194D01*
X00675069Y00859950D01*
X00674074Y00861438D01*
X00664858Y00870654D01*
X00664393Y00870965D01*
X00664352Y00872234D01*
X00665333Y00872987D01*
X00667008Y00875170D01*
X00667810Y00877106D01*
X00680933D01*
X00681186Y00875836D01*
X00681010Y00875763D01*
X00678827Y00874088D01*
X00677152Y00871905D01*
X00676099Y00869363D01*
X00675740Y00866635D01*
X00676099Y00863907D01*
X00677152Y00861365D01*
X00678827Y00859182D01*
X00681010Y00857507D01*
X00683552Y00856454D01*
X00686280Y00856095D01*
X00689008Y00856454D01*
X00691550Y00857507D01*
X00693733Y00859182D01*
X00695408Y00861365D01*
X00696461Y00863907D01*
X00696820Y00866635D01*
X00696461Y00869363D01*
X00695408Y00871905D01*
X00693733Y00874088D01*
X00691550Y00875763D01*
X00691374Y00875836D01*
X00691627Y00877106D01*
X00696789D01*
X00699516Y00874379D01*
Y00750022D01*
X00677829Y00728334D01*
X00647931D01*
X00640748Y00735518D01*
X00639666Y00736240D01*
X00638390Y00736494D01*
X00601791D01*
X00588248Y00750038D01*
X00587166Y00750760D01*
X00585891Y00751014D01*
X00550476D01*
X00549797Y00752284D01*
X00550482Y00753309D01*
X00550794Y00754878D01*
X00573663Y00777747D01*
X00574326Y00778739D01*
X00574559Y00779910D01*
X00574559Y00779910D01*
Y00991873D01*
X00582705Y01000020D01*
X00584200Y00999723D01*
X00586541Y01000188D01*
X00587290Y01000688D01*
X00588560Y01000010D01*
Y00998220D01*
X00596580D01*
Y01006740D01*
X00590139D01*
X00589852Y01008181D01*
X00588526Y01010166D01*
X00586541Y01011492D01*
X00584200Y01011957D01*
X00581859Y01011492D01*
X00579874Y01010166D01*
X00578548Y01008181D01*
X00578083Y01005840D01*
X00578380Y01004345D01*
X00569337Y00995303D01*
X00568674Y00994311D01*
X00568441Y00993140D01*
X00568441Y00993140D01*
Y00781177D01*
X00548007Y00760743D01*
X00547171Y00761302D01*
X00544830Y00761768D01*
X00542489Y00761302D01*
X00540504Y00759976D01*
X00539178Y00757991D01*
X00538713Y00755650D01*
X00539178Y00753309D01*
X00539863Y00752284D01*
X00539184Y00751014D01*
X00533982D01*
X00531497Y00753499D01*
X00531824Y00754110D01*
X00532172Y00754621D01*
X00534471Y00755078D01*
X00536456Y00756404D01*
X00537782Y00758389D01*
X00538247Y00760730D01*
X00537782Y00763071D01*
X00536456Y00765056D01*
X00534471Y00766382D01*
X00532130Y00766848D01*
X00529789Y00766382D01*
X00527804Y00765056D01*
X00527031Y00763899D01*
X00521129D01*
X00520369Y00764726D01*
X00520530Y00766136D01*
X00521216Y00766594D01*
X00522542Y00768579D01*
X00523008Y00770920D01*
X00522542Y00773261D01*
X00521216Y00775246D01*
X00519231Y00776572D01*
X00516890Y00777038D01*
X00514549Y00776572D01*
X00513617Y00775949D01*
X00484579Y00804987D01*
Y00908353D01*
X00515626Y00939400D01*
X00523800D01*
Y00952900D01*
X00520616D01*
X00520213Y00953503D01*
X00518686Y00955029D01*
X00518934Y00956275D01*
X00519393Y00956465D01*
X00521482Y00958068D01*
X00523085Y00960157D01*
X00524093Y00962589D01*
X00524436Y00965200D01*
X00524093Y00967811D01*
X00523085Y00970243D01*
X00521482Y00972332D01*
X00519393Y00973935D01*
X00516960Y00974943D01*
X00514350Y00975286D01*
X00511740Y00974943D01*
X00509307Y00973935D01*
X00507218Y00972332D01*
X00505615Y00970243D01*
X00504607Y00967811D01*
X00504264Y00965200D01*
X00504607Y00962589D01*
X00505615Y00960157D01*
X00507218Y00958068D01*
X00509307Y00956465D01*
X00511291Y00955643D01*
Y00955040D01*
X00511291Y00955040D01*
X00511524Y00953869D01*
X00512187Y00952877D01*
X00512300Y00952764D01*
Y00944726D01*
X00481752Y00914178D01*
X00480579Y00914664D01*
Y00967853D01*
X00486740Y00974014D01*
X00488010Y00973488D01*
Y00970170D01*
X00494030D01*
Y00975190D01*
X00489712D01*
X00489186Y00976460D01*
X00493876Y00981150D01*
X00502050D01*
Y00987541D01*
X00504793D01*
X00505615Y00985557D01*
X00507218Y00983468D01*
X00509307Y00981865D01*
X00511740Y00980857D01*
X00514350Y00980514D01*
X00516960Y00980857D01*
X00519393Y00981865D01*
X00521482Y00983468D01*
X00523085Y00985557D01*
X00524093Y00987990D01*
X00524436Y00990600D01*
X00524093Y00993211D01*
X00523085Y00995643D01*
X00521482Y00997732D01*
X00519393Y00999335D01*
X00516960Y01000343D01*
X00514350Y01000686D01*
X00511740Y01000343D01*
X00509307Y00999335D01*
X00507218Y00997732D01*
X00505615Y00995643D01*
X00504793Y00993659D01*
X00499000D01*
X00497830Y00993426D01*
X00496837Y00992763D01*
X00496724Y00992650D01*
X00488550D01*
Y00984476D01*
X00476672Y00972598D01*
X00475499Y00973084D01*
Y01023623D01*
X00509755Y01057879D01*
X00511740Y01057057D01*
X00514350Y01056714D01*
X00516960Y01057057D01*
X00519393Y01058065D01*
X00521482Y01059668D01*
X00523085Y01061757D01*
X00524093Y01064190D01*
X00524436Y01066800D01*
X00524093Y01069410D01*
X00523085Y01071843D01*
X00521482Y01073932D01*
X00519393Y01075535D01*
X00516960Y01076543D01*
X00514350Y01076886D01*
D02*
G37*
G36*
X00686280Y00766735D02*
X00683552Y00766376D01*
X00681010Y00765323D01*
X00678827Y00763648D01*
X00677152Y00761465D01*
X00676099Y00758923D01*
X00675740Y00756195D01*
X00676099Y00753467D01*
X00677152Y00750925D01*
X00678827Y00748742D01*
X00681010Y00747067D01*
X00683552Y00746014D01*
X00686280Y00745655D01*
X00689008Y00746014D01*
X00691550Y00747067D01*
X00693733Y00748742D01*
X00695408Y00750925D01*
X00696461Y00753467D01*
X00696820Y00756195D01*
X00696461Y00758923D01*
X00695408Y00761465D01*
X00693733Y00763648D01*
X00691550Y00765323D01*
X00689008Y00766376D01*
X00686280Y00766735D01*
D02*
G37*
G36*
X00657880Y00752930D02*
X00655152Y00752571D01*
X00652610Y00751518D01*
X00650427Y00749843D01*
X00648752Y00747660D01*
X00647699Y00745118D01*
X00647340Y00742390D01*
X00647699Y00739662D01*
X00648752Y00737120D01*
X00650427Y00734937D01*
X00652610Y00733262D01*
X00655152Y00732209D01*
X00657880Y00731850D01*
X00660608Y00732209D01*
X00663150Y00733262D01*
X00665333Y00734937D01*
X00667008Y00737120D01*
X00668061Y00739662D01*
X00668420Y00742390D01*
X00668061Y00745118D01*
X00667008Y00747660D01*
X00665333Y00749843D01*
X00663150Y00751518D01*
X00660608Y00752571D01*
X00657880Y00752930D01*
D02*
G37*
G36*
X00612820Y00710036D02*
Y00686270D01*
X00636586D01*
X00636228Y00689909D01*
X00634796Y00694629D01*
X00632471Y00698979D01*
X00629342Y00702792D01*
X00625529Y00705921D01*
X00621179Y00708246D01*
X00616459Y00709678D01*
X00612820Y00710036D01*
D02*
G37*
G36*
X00610280D02*
X00606641Y00709678D01*
X00601921Y00708246D01*
X00597571Y00705921D01*
X00593758Y00702792D01*
X00590629Y00698979D01*
X00588304Y00694629D01*
X00586872Y00689909D01*
X00586514Y00686270D01*
X00610280D01*
Y00710036D01*
D02*
G37*
G36*
X00673350Y00699111D02*
Y00674060D01*
X00698401D01*
X00698176Y00676923D01*
X00697208Y00680955D01*
X00695622Y00684785D01*
X00693455Y00688320D01*
X00690763Y00691473D01*
X00687610Y00694165D01*
X00684075Y00696332D01*
X00680245Y00697918D01*
X00676213Y00698886D01*
X00673350Y00699111D01*
D02*
G37*
G36*
X00670810D02*
X00667947Y00698886D01*
X00663915Y00697918D01*
X00660085Y00696332D01*
X00656550Y00694165D01*
X00653397Y00691473D01*
X00650705Y00688320D01*
X00648538Y00684785D01*
X00646952Y00680955D01*
X00645984Y00676923D01*
X00645759Y00674060D01*
X00670810D01*
Y00699111D01*
D02*
G37*
G36*
X00509430Y00676330D02*
X00501660D01*
Y00674031D01*
X00500540Y00673432D01*
X00500181Y00673672D01*
X00497840Y00674137D01*
X00495499Y00673672D01*
X00493514Y00672346D01*
X00492188Y00670361D01*
X00491722Y00668020D01*
X00492188Y00665679D01*
X00493514Y00663694D01*
X00495499Y00662368D01*
X00497840Y00661902D01*
X00500181Y00662368D01*
X00500740Y00662742D01*
X00501660Y00662250D01*
Y00662250D01*
X00509430D01*
Y00669290D01*
Y00676330D01*
D02*
G37*
G36*
X00519740D02*
X00511970D01*
Y00670560D01*
X00519740D01*
Y00676330D01*
D02*
G37*
G36*
X00580230D02*
X00572460D01*
Y00670560D01*
X00580230D01*
Y00676330D01*
D02*
G37*
G36*
Y00668020D02*
X00572460D01*
Y00662250D01*
X00580230D01*
Y00668020D01*
D02*
G37*
G36*
X00519740D02*
X00511970D01*
Y00662250D01*
X00519740D01*
Y00668020D01*
D02*
G37*
G36*
X00386550Y00709619D02*
X00381747Y00709146D01*
X00377129Y00707745D01*
X00372873Y00705470D01*
X00369142Y00702408D01*
X00366080Y00698677D01*
X00363805Y00694421D01*
X00362405Y00689803D01*
X00361931Y00685000D01*
X00362405Y00680197D01*
X00363805Y00675579D01*
X00366080Y00671323D01*
X00369142Y00667592D01*
X00372873Y00664530D01*
X00377129Y00662255D01*
X00381747Y00660854D01*
X00386550Y00660381D01*
X00391353Y00660854D01*
X00395971Y00662255D01*
X00400227Y00664530D01*
X00403958Y00667592D01*
X00407020Y00671323D01*
X00409295Y00675579D01*
X00410695Y00680197D01*
X00411169Y00685000D01*
X00410695Y00689803D01*
X00409295Y00694421D01*
X00407020Y00698677D01*
X00403958Y00702408D01*
X00400227Y00705470D01*
X00395971Y00707745D01*
X00391353Y00709146D01*
X00386550Y00709619D01*
D02*
G37*
G36*
X00636586Y00683730D02*
X00612820D01*
Y00659964D01*
X00616459Y00660322D01*
X00621179Y00661754D01*
X00625529Y00664079D01*
X00629342Y00667208D01*
X00632471Y00671021D01*
X00634796Y00675371D01*
X00636228Y00680091D01*
X00636586Y00683730D01*
D02*
G37*
G36*
X00610280D02*
X00586514D01*
X00586872Y00680091D01*
X00587704Y00677350D01*
X00586947Y00676330D01*
X00582770D01*
Y00669290D01*
Y00662250D01*
X00590540D01*
Y00669128D01*
X00591810Y00669583D01*
X00593758Y00667208D01*
X00597571Y00664079D01*
X00601921Y00661754D01*
X00606641Y00660322D01*
X00610280Y00659964D01*
Y00683730D01*
D02*
G37*
G36*
X00670810Y00671520D02*
X00645759D01*
X00645984Y00668657D01*
X00646952Y00664625D01*
X00648538Y00660795D01*
X00650705Y00657260D01*
X00653397Y00654107D01*
X00656550Y00651415D01*
X00660085Y00649248D01*
X00663915Y00647662D01*
X00667947Y00646694D01*
X00670810Y00646469D01*
Y00671520D01*
D02*
G37*
G36*
X00698401D02*
X00673350D01*
Y00646469D01*
X00676213Y00646694D01*
X00680245Y00647662D01*
X00684075Y00649248D01*
X00687610Y00651415D01*
X00690763Y00654107D01*
X00693455Y00657260D01*
X00695622Y00660795D01*
X00697208Y00664625D01*
X00698176Y00668657D01*
X00698401Y00671520D01*
D02*
G37*
%LPD*%
G36*
X00713136Y00908289D02*
Y00899788D01*
X00711963Y00899302D01*
X00700857Y00910407D01*
X00699776Y00911130D01*
X00698500Y00911384D01*
X00691627D01*
X00691374Y00912654D01*
X00691550Y00912727D01*
X00693733Y00914402D01*
X00695408Y00916585D01*
X00696210Y00918521D01*
X00702904D01*
X00713136Y00908289D01*
D02*
G37*
G36*
X00648752Y00902780D02*
X00650427Y00900597D01*
X00652610Y00898922D01*
X00655152Y00897869D01*
X00657880Y00897510D01*
X00660608Y00897869D01*
X00663150Y00898922D01*
X00665333Y00900597D01*
X00667008Y00902780D01*
X00667810Y00904716D01*
X00680933D01*
X00681186Y00903446D01*
X00681010Y00903373D01*
X00678827Y00901698D01*
X00677152Y00899515D01*
X00676099Y00896973D01*
X00675740Y00894245D01*
X00676099Y00891517D01*
X00677152Y00888975D01*
X00678827Y00886792D01*
X00681010Y00885117D01*
X00681186Y00885044D01*
X00680933Y00883774D01*
X00667810D01*
X00667008Y00885710D01*
X00665333Y00887893D01*
X00663150Y00889568D01*
X00660608Y00890621D01*
X00657880Y00890980D01*
X00655152Y00890621D01*
X00652610Y00889568D01*
X00650427Y00887893D01*
X00648752Y00885710D01*
X00647699Y00883168D01*
X00647340Y00880440D01*
X00647699Y00877712D01*
X00648752Y00875170D01*
X00650211Y00873268D01*
X00649793Y00871998D01*
X00643251D01*
X00638208Y00877040D01*
Y00894080D01*
X00637859Y00895836D01*
X00636864Y00897324D01*
X00634062Y00900127D01*
X00634548Y00901300D01*
X00643400D01*
Y00904716D01*
X00647950D01*
X00648752Y00902780D01*
D02*
G37*
G36*
X00556637Y00691257D02*
X00556637Y00691257D01*
X00557630Y00690594D01*
X00558800Y00690361D01*
X00561450D01*
Y00686246D01*
X00559337Y00684133D01*
X00558674Y00683140D01*
X00558441Y00681970D01*
X00558441Y00681970D01*
Y00675790D01*
X00553000D01*
Y00670596D01*
X00551752Y00670361D01*
X00550426Y00672346D01*
X00548441Y00673672D01*
X00546100Y00674137D01*
X00543759Y00673672D01*
X00541774Y00672346D01*
X00540448Y00670361D01*
X00539200Y00670596D01*
Y00675790D01*
X00535009D01*
Y00679420D01*
X00543450D01*
Y00702785D01*
X00544623Y00703271D01*
X00556637Y00691257D01*
D02*
G37*
D11*
X00637650Y00908050D02*
D03*
X00619650D02*
D03*
X00536050Y00946150D02*
D03*
X00518050D02*
D03*
D12*
X00638650Y00852170D02*
D03*
X00618650D02*
D03*
X00638650Y00797560D02*
D03*
X00618650D02*
D03*
X00530700Y00669290D02*
D03*
X00510700D02*
D03*
X00561500D02*
D03*
X00581500D02*
D03*
X00618650Y01018540D02*
D03*
X00638650D02*
D03*
D13*
X00621350Y00996950D02*
D03*
X00597850D02*
D03*
X00621350Y00883920D02*
D03*
X00597850D02*
D03*
D17*
X00497840Y00666750D02*
Y00668020D01*
X00590550Y00797560D02*
Y00840740D01*
X00685455Y00977900D02*
X00686280Y00977075D01*
X00599100Y00958850D02*
Y00976630D01*
X00586740D02*
X00599100D01*
X00411720Y00886700D02*
X00445750D01*
X00407560Y00882540D02*
X00411720Y00886700D01*
X00398780Y00882540D02*
X00407560D01*
X00398790Y00900550D02*
X00417350D01*
X00398780Y00900540D02*
X00398790Y00900550D01*
X00499000Y00990600D02*
X00514350D01*
X00495300Y00986900D02*
X00499000Y00990600D01*
X00477520Y00969120D02*
X00495300Y00986900D01*
X00477520Y00796290D02*
Y00969120D01*
X00514350Y00955040D02*
Y00965200D01*
Y00955040D02*
X00518050Y00951340D01*
Y00946150D02*
Y00951340D01*
X00481520Y00909620D02*
X00518050Y00946150D01*
X00481520Y00803720D02*
Y00909620D01*
X00571500Y00993140D02*
X00584200Y01005840D01*
X00590550Y00996950D02*
X00597850D01*
X00585470Y00991870D02*
X00590550Y00996950D01*
X00638700Y01018490D02*
X00657880D01*
X00638650Y01018540D02*
X00638700Y01018490D01*
X00495300Y00958850D02*
Y00968900D01*
X00539750Y00955040D02*
Y00965200D01*
X00536050Y00951340D02*
X00539750Y00955040D01*
X00536050Y00946150D02*
Y00951340D01*
X00472440Y01024890D02*
X00514350Y01066800D01*
X00521970Y00716280D02*
X00535940D01*
X00558800Y00693420D01*
X00572950D01*
X00508000Y00713740D02*
X00510540Y00716280D01*
X00508000Y00702420D02*
Y00713740D01*
Y00684420D02*
X00522950D01*
X00531950Y00693420D01*
Y00670540D02*
Y00693420D01*
X00530700Y00669290D02*
X00531950Y00670540D01*
X00561500Y00681970D02*
X00572950Y00693420D01*
X00561500Y00669290D02*
Y00681970D01*
X00510700Y00659290D02*
Y00669290D01*
X00510540Y00659130D02*
X00510700Y00659290D01*
X00581500Y00656750D02*
Y00669290D01*
Y00656750D02*
X00581660Y00656590D01*
X00618650Y01018540D02*
Y01025050D01*
X00629920Y01036320D01*
X00571500Y00779910D02*
Y00993140D01*
X00472440Y00789940D02*
Y01024890D01*
Y00789940D02*
X00501030Y00761350D01*
X00477520Y00796290D02*
X00505085Y00768725D01*
X00481520Y00803720D02*
X00514320Y00770920D01*
X00505085Y00768725D02*
Y00768725D01*
X00514320Y00770920D02*
X00516890D01*
X00501030Y00761350D02*
X00507611D01*
X00510181Y00763920D01*
X00515979D01*
X00519059Y00760840D01*
X00532020D01*
X00532130Y00760730D01*
X00547240Y00755650D02*
X00571500Y00779910D01*
X00544830Y00755650D02*
X00547240D01*
X00618650Y00787240D02*
Y00797560D01*
Y00787240D02*
X00624840Y00781050D01*
X00632460D01*
X00597850Y00856300D02*
Y00883920D01*
Y00856300D02*
X00601980Y00852170D01*
X00618650D01*
X00585470Y00883920D02*
X00597850D01*
X00620100Y00958850D02*
X00630260Y00969010D01*
X00641350D01*
X00650240Y00977900D01*
X00685455D01*
X00620100Y00976630D02*
X00632460D01*
X00686280Y00977075D02*
X00702975D01*
X00704850Y00975200D01*
Y00939800D02*
Y00955200D01*
D19*
X00657220Y00852170D02*
X00657880Y00852830D01*
X00638650Y00852170D02*
X00657220D01*
X00598170Y00907100D02*
X00621350Y00883920D01*
X00598170Y00907100D02*
Y00935990D01*
X00609600Y00947420D01*
Y00985200D01*
X00621350Y00996950D01*
X00600710Y01017590D02*
X00621350Y00996950D01*
X00600710Y01017590D02*
Y01032510D01*
X00609600Y01041400D01*
X00638700Y00797610D02*
X00657880D01*
X00638650Y00797560D02*
X00638700Y00797610D01*
X00657880D02*
X00671830Y00811560D01*
X00619650Y00908050D02*
X00633620Y00894080D01*
X00619650Y00908050D02*
Y00930800D01*
X00622300Y00933450D01*
X00670830Y00851280D02*
X00671830Y00850280D01*
X00670830Y00851280D02*
Y00858194D01*
X00661614Y00867410D02*
X00670830Y00858194D01*
X00671830Y00811560D02*
Y00850280D01*
X00621030Y00869790D02*
X00638650Y00852170D01*
X00621030Y00869790D02*
Y00883920D01*
X00633620Y00875140D02*
Y00894080D01*
Y00875140D02*
X00641350Y00867410D01*
X00661614D01*
D20*
X00657880Y00880440D02*
X00698170D01*
X00686280Y00921855D02*
X00704285D01*
X00637650Y00908050D02*
X00657880D01*
X00657880Y00908050D01*
X00698500D01*
X00686280Y00894245D02*
X00698335D01*
X00707390Y00746760D02*
Y00885190D01*
X00698335Y00894245D02*
X00707390Y00885190D01*
X00716470Y00742999D02*
Y00909670D01*
X00704285Y00921855D02*
X00716470Y00909670D01*
X00711930Y00744880D02*
Y00894620D01*
X00698500Y00908050D02*
X00711930Y00894620D01*
X00702850Y00748641D02*
Y00875760D01*
X00698170Y00880440D02*
X00702850Y00875760D01*
X00513080Y00756920D02*
X00513430Y00756570D01*
X00523711D01*
X00511810Y00741680D02*
X00523361D01*
X00520700Y00749300D02*
X00522162D01*
X00523361Y00741680D02*
X00526441Y00738600D01*
X00522162Y00749300D02*
X00528322Y00743140D01*
X00523711Y00756570D02*
X00532601Y00747680D01*
X00528322Y00743140D02*
X00584010D01*
X00526441Y00738600D02*
X00582130D01*
X00520700Y00734060D02*
X00580249D01*
X00532601Y00747680D02*
X00585891D01*
X00528860Y00729520D02*
X00578368D01*
X00526130Y00726790D02*
X00528860Y00729520D01*
X00721010Y00740355D02*
Y01025175D01*
X00686280Y01059905D02*
X00721010Y01025175D01*
X00511810Y00726440D02*
X00512160Y00726790D01*
X00526130D01*
X00578368Y00729520D02*
X00592888Y00715000D01*
X00580249Y00734060D02*
X00594769Y00719540D01*
X00582130Y00738600D02*
X00596650Y00724080D01*
X00584010Y00743140D02*
X00598530Y00728620D01*
X00585891Y00747680D02*
X00600410Y00733160D01*
X00679210Y00725000D02*
X00702850Y00748641D01*
X00681090Y00720460D02*
X00707390Y00746760D01*
X00682971Y00715920D02*
X00711930Y00744880D01*
X00684851Y00711380D02*
X00716470Y00742999D01*
X00687495Y00706840D02*
X00721010Y00740355D01*
X00600410Y00733160D02*
X00638390D01*
X00646550Y00725000D01*
X00679210D01*
X00598530Y00728620D02*
X00636510D01*
X00644669Y00720460D01*
X00596650Y00724080D02*
X00634629D01*
X00642789Y00715920D01*
X00594769Y00719540D02*
X00632748D01*
X00640908Y00711380D01*
X00592888Y00715000D02*
X00630868D01*
X00639028Y00706840D01*
X00644669Y00720460D02*
X00681090D01*
X00642789Y00715920D02*
X00682971D01*
X00640908Y00711380D02*
X00684851D01*
X00639028Y00706840D02*
X00687495D01*
D21*
X00514350Y01066800D02*
D03*
X00539750D02*
D03*
X00514350Y01041400D02*
D03*
X00539750D02*
D03*
X00514350Y01016000D02*
D03*
X00539750D02*
D03*
X00514350Y00990600D02*
D03*
X00539750D02*
D03*
X00514350Y00965200D02*
D03*
D22*
X00539750D02*
D03*
D23*
X00657880Y00742390D02*
D03*
X00686280Y00756195D02*
D03*
X00657880Y00770000D02*
D03*
X00686280Y00783805D02*
D03*
X00657880Y00797610D02*
D03*
X00686280Y00811415D02*
D03*
X00657880Y00825220D02*
D03*
X00686280Y00839025D02*
D03*
X00657880Y00852830D02*
D03*
X00686280Y00866635D02*
D03*
X00657880Y00880440D02*
D03*
X00686280Y00894245D02*
D03*
X00657880Y00908050D02*
D03*
X00686280Y00921855D02*
D03*
X00657880Y00935660D02*
D03*
X00686280Y00949465D02*
D03*
X00657880Y00963270D02*
D03*
X00686280Y00977075D02*
D03*
X00657880Y00990880D02*
D03*
X00686280Y01004685D02*
D03*
X00657880Y01018490D02*
D03*
X00686280Y01032295D02*
D03*
X00657880Y01046100D02*
D03*
X00686280Y01059905D02*
D03*
X00417350Y00872850D02*
D03*
X00445750Y00886700D02*
D03*
X00417350Y00900550D02*
D03*
X00445750Y00914400D02*
D03*
X00417350Y00928250D02*
D03*
X00445750Y00942100D02*
D03*
X00417350Y00955950D02*
D03*
X00445750Y00969800D02*
D03*
D24*
X00657880Y01073710D02*
D03*
X00445750Y00859000D02*
D03*
D25*
X00672080Y01143310D02*
D03*
Y00672790D02*
D03*
X00431550Y01039350D02*
D03*
Y00789450D02*
D03*
D26*
X00386550Y01135000D02*
D03*
Y00685000D02*
D03*
X00611550D02*
D03*
Y01135000D02*
D03*
D27*
X00619600Y00768190D02*
D03*
X00497840Y00668020D02*
D03*
X00590550Y00797560D02*
D03*
Y00840740D02*
D03*
X00593090Y00770890D02*
D03*
X00608330Y00815340D02*
D03*
X00501650Y00807720D02*
D03*
X00518160D02*
D03*
X00552450Y00857250D02*
D03*
X00632460Y00958850D02*
D03*
X00586740Y00976630D02*
D03*
X00609600Y00933450D02*
D03*
X00586740Y00958850D02*
D03*
X00609600Y01041400D02*
D03*
X00584200Y01005840D02*
D03*
X00586740Y01026160D02*
D03*
X00585470Y00991870D02*
D03*
X00560070Y00897890D02*
D03*
X00495300Y00958850D02*
D03*
X00521970Y00716280D02*
D03*
X00510540D02*
D03*
X00546100Y00668020D02*
D03*
X00466090Y00679450D02*
D03*
X00510540Y00659130D02*
D03*
X00581660Y00656590D02*
D03*
X00629920Y01036320D02*
D03*
X00622300Y00933450D02*
D03*
X00505085Y00768725D02*
D03*
X00516890Y00770920D02*
D03*
X00513080Y00756920D02*
D03*
X00532130Y00760730D02*
D03*
X00520700Y00749300D02*
D03*
X00511810Y00741680D02*
D03*
X00520700Y00734060D02*
D03*
X00544830Y00755650D02*
D03*
X00632460Y00781050D02*
D03*
X00585470Y00883920D02*
D03*
Y00902970D02*
D03*
X00632460Y00976630D02*
D03*
X00704850Y00939800D02*
D03*
X00511810Y00726440D02*
D03*
X00635000Y00742950D02*
D03*
X00350000Y00650000D02*
D03*
Y00700000D02*
D03*
X00362500Y00725000D02*
D03*
X00350000Y00750000D02*
D03*
X00362500Y00775000D02*
D03*
X00350000Y00800000D02*
D03*
X00362500Y00825000D02*
D03*
X00350000Y00850000D02*
D03*
X00362500Y00875000D02*
D03*
X00350000Y00900000D02*
D03*
X00362500Y00925000D02*
D03*
X00350000Y00950000D02*
D03*
X00362500Y00975000D02*
D03*
X00350000Y01000000D02*
D03*
X00362500Y01025000D02*
D03*
X00350000Y01050000D02*
D03*
X00362500Y01075000D02*
D03*
X00350000Y01100000D02*
D03*
Y01150000D02*
D03*
X00375000Y00650000D02*
D03*
X00387500Y00725000D02*
D03*
X00375000Y00750000D02*
D03*
X00387500Y00775000D02*
D03*
X00375000Y00800000D02*
D03*
X00387500Y00825000D02*
D03*
X00375000Y00850000D02*
D03*
X00387500Y00875000D02*
D03*
X00375000Y00900000D02*
D03*
X00387500Y00925000D02*
D03*
X00375000Y00950000D02*
D03*
X00387500Y00975000D02*
D03*
X00375000Y01000000D02*
D03*
X00387500Y01025000D02*
D03*
X00375000Y01050000D02*
D03*
X00387500Y01075000D02*
D03*
X00375000Y01100000D02*
D03*
X00400000Y00650000D02*
D03*
X00412500Y00725000D02*
D03*
X00400000Y00750000D02*
D03*
Y00800000D02*
D03*
X00412500Y00825000D02*
D03*
X00400000Y00850000D02*
D03*
Y00950000D02*
D03*
X00412500Y00975000D02*
D03*
X00400000Y01000000D02*
D03*
Y01050000D02*
D03*
X00412500Y01075000D02*
D03*
X00400000Y01100000D02*
D03*
X00425000Y00650000D02*
D03*
X00437500Y00675000D02*
D03*
X00425000Y00700000D02*
D03*
X00437500Y00725000D02*
D03*
X00425000Y00750000D02*
D03*
X00437500Y00825000D02*
D03*
X00425000Y00850000D02*
D03*
Y01000000D02*
D03*
X00437500Y01075000D02*
D03*
X00425000Y01100000D02*
D03*
X00437500Y01125000D02*
D03*
X00425000Y01150000D02*
D03*
X00450000Y00650000D02*
D03*
Y00700000D02*
D03*
X00462500Y00725000D02*
D03*
X00450000Y00750000D02*
D03*
X00462500Y00775000D02*
D03*
Y00825000D02*
D03*
Y00875000D02*
D03*
Y00925000D02*
D03*
Y00975000D02*
D03*
X00450000Y01000000D02*
D03*
X00462500Y01025000D02*
D03*
Y01075000D02*
D03*
X00450000Y01100000D02*
D03*
X00462500Y01125000D02*
D03*
X00450000Y01150000D02*
D03*
X00475000Y00650000D02*
D03*
Y00700000D02*
D03*
X00487500Y01025000D02*
D03*
X00475000Y01050000D02*
D03*
X00487500Y01075000D02*
D03*
X00475000Y01100000D02*
D03*
X00487500Y01125000D02*
D03*
X00475000Y01150000D02*
D03*
X00500000Y00650000D02*
D03*
X00512500Y00925000D02*
D03*
X00500000Y00950000D02*
D03*
Y01000000D02*
D03*
Y01100000D02*
D03*
X00512500Y01125000D02*
D03*
X00500000Y01150000D02*
D03*
X00525000Y00650000D02*
D03*
X00537500Y00825000D02*
D03*
Y00875000D02*
D03*
Y00925000D02*
D03*
X00525000Y01000000D02*
D03*
Y01100000D02*
D03*
X00537500Y01125000D02*
D03*
X00525000Y01150000D02*
D03*
X00550000Y00650000D02*
D03*
X00562500Y00875000D02*
D03*
X00550000Y00900000D02*
D03*
X00562500Y00925000D02*
D03*
X00550000Y00950000D02*
D03*
X00562500Y00975000D02*
D03*
Y01025000D02*
D03*
Y01075000D02*
D03*
X00550000Y01100000D02*
D03*
X00562500Y01125000D02*
D03*
X00550000Y01150000D02*
D03*
X00575000Y00650000D02*
D03*
Y01050000D02*
D03*
X00587500Y01075000D02*
D03*
X00575000Y01100000D02*
D03*
Y01150000D02*
D03*
X00600000Y00650000D02*
D03*
Y01050000D02*
D03*
X00612500Y01075000D02*
D03*
X00600000Y01100000D02*
D03*
X00625000Y00650000D02*
D03*
X00637500Y00825000D02*
D03*
Y00925000D02*
D03*
X00625000Y01050000D02*
D03*
X00637500Y01075000D02*
D03*
X00625000Y01100000D02*
D03*
X00650000Y00650000D02*
D03*
Y01100000D02*
D03*
X00675000Y00800000D02*
D03*
Y01050000D02*
D03*
X00687500Y01075000D02*
D03*
X00675000Y01100000D02*
D03*
X00700000Y00650000D02*
D03*
X00712500Y00675000D02*
D03*
X00700000Y00700000D02*
D03*
X00712500Y00925000D02*
D03*
Y01075000D02*
D03*
X00700000Y01100000D02*
D03*
X00712500Y01125000D02*
D03*
X00725000Y00650000D02*
D03*
X00737500Y00675000D02*
D03*
X00725000Y00700000D02*
D03*
X00737500Y00725000D02*
D03*
Y00775000D02*
D03*
Y00825000D02*
D03*
Y00875000D02*
D03*
Y00925000D02*
D03*
Y00975000D02*
D03*
Y01025000D02*
D03*
X00725000Y01050000D02*
D03*
X00737500Y01075000D02*
D03*
X00725000Y01100000D02*
D03*
X00737500Y01125000D02*
D03*
X00725000Y01150000D02*
D03*
X00750000Y00650000D02*
D03*
Y00700000D02*
D03*
Y00750000D02*
D03*
Y00800000D02*
D03*
Y00850000D02*
D03*
Y00900000D02*
D03*
Y00950000D02*
D03*
Y01000000D02*
D03*
Y01050000D02*
D03*
Y01100000D02*
D03*
Y01150000D02*
D03*
D39*
X00599100Y00958850D02*
D03*
X00620100D02*
D03*
X00599100Y00976630D02*
D03*
X00620100D02*
D03*
D40*
X00398780Y00900540D02*
D03*
Y00882540D02*
D03*
X00508000Y00684420D02*
D03*
Y00702420D02*
D03*
X00495300Y00968900D02*
D03*
Y00986900D02*
D03*
D41*
X00704850Y00955200D02*
D03*
Y00975200D02*
D03*
D42*
X00572950Y00693420D02*
D03*
X00531950D02*
D03*
M02*
