G04 Layer_Color=8421504*
%FSAX44Y44*%
%MOMM*%
G71*
G01*
G75*
%ADD10R,1.0000X0.6000*%
%ADD11R,0.7500X0.9500*%
%ADD12R,1.3000X0.9000*%
%ADD13R,1.3500X1.4500*%
%ADD14O,0.6000X2.2000*%
%ADD15R,1.8000X0.4500*%
%ADD16R,0.4500X1.8000*%
D10*
X00597600Y01006450D02*
D03*
Y00996950D02*
D03*
Y00987450D02*
D03*
X00621600D02*
D03*
Y01006450D02*
D03*
Y00996950D02*
D03*
X00597600Y00866750D02*
D03*
Y00857250D02*
D03*
Y00847750D02*
D03*
X00621600D02*
D03*
Y00866750D02*
D03*
Y00857250D02*
D03*
Y00720750D02*
D03*
Y00730250D02*
D03*
Y00739750D02*
D03*
X00597600D02*
D03*
Y00720750D02*
D03*
Y00730250D02*
D03*
Y00942950D02*
D03*
Y00933450D02*
D03*
Y00923950D02*
D03*
X00621600D02*
D03*
Y00942950D02*
D03*
D11*
X00618600Y00815340D02*
D03*
X00600600D02*
D03*
X00600600Y00831850D02*
D03*
X00618600D02*
D03*
X00600600Y00797560D02*
D03*
X00618600D02*
D03*
X00618600Y00781050D02*
D03*
X00600600D02*
D03*
X00542180Y00887730D02*
D03*
X00560180D02*
D03*
D12*
X00619600Y01026160D02*
D03*
X00599600D02*
D03*
X00619600Y00883920D02*
D03*
X00599600D02*
D03*
Y00755650D02*
D03*
X00619600D02*
D03*
X00542450Y00679450D02*
D03*
X00562450D02*
D03*
X00555150Y00806450D02*
D03*
X00575150D02*
D03*
X00498950Y00679450D02*
D03*
X00478950D02*
D03*
X00498000Y00817880D02*
D03*
X00518000D02*
D03*
X00619600Y00958850D02*
D03*
X00599600D02*
D03*
D13*
X00553400Y00825500D02*
D03*
X00576900D02*
D03*
X00553400Y00844550D02*
D03*
X00576900D02*
D03*
X00621350Y00902970D02*
D03*
X00597850D02*
D03*
D14*
X00527050Y00887600D02*
D03*
X00514350D02*
D03*
X00501650D02*
D03*
X00488950D02*
D03*
X00527050Y00839600D02*
D03*
X00514350D02*
D03*
X00501650D02*
D03*
X00488950D02*
D03*
D15*
X00489900Y00714950D02*
D03*
Y00722950D02*
D03*
Y00730950D02*
D03*
Y00738950D02*
D03*
Y00746950D02*
D03*
Y00754950D02*
D03*
Y00762950D02*
D03*
Y00770950D02*
D03*
X00576900D02*
D03*
Y00762950D02*
D03*
Y00754950D02*
D03*
Y00746950D02*
D03*
Y00738950D02*
D03*
Y00730950D02*
D03*
Y00722950D02*
D03*
Y00714950D02*
D03*
D16*
X00505400Y00786450D02*
D03*
X00513400D02*
D03*
X00521400D02*
D03*
X00529400D02*
D03*
X00537400D02*
D03*
X00545400D02*
D03*
X00553400D02*
D03*
X00561400D02*
D03*
Y00699450D02*
D03*
X00553400D02*
D03*
X00545400D02*
D03*
X00537400D02*
D03*
X00529400D02*
D03*
X00521400D02*
D03*
X00513400D02*
D03*
X00505400D02*
D03*
M02*
