G04 Layer_Color=32896*
%FSAX44Y44*%
%MOMM*%
G71*
G01*
G75*
%ADD17C,0.2000*%
%ADD43C,0.2500*%
%ADD45C,0.1270*%
D17*
X00526450Y00710420D02*
X00578450D01*
X00526450Y00676420D02*
X00578450D01*
X00607100Y00971130D02*
X00612100D01*
X00607100Y00982130D02*
X00612100D01*
X00607100Y00953350D02*
X00612100D01*
X00607100Y00964350D02*
X00612100D01*
X00395030Y00890040D02*
Y00893040D01*
X00402530Y00890040D02*
Y00893040D01*
X00511750Y00691920D02*
Y00694920D01*
X00504250Y00691920D02*
Y00694920D01*
X00499050Y00976400D02*
Y00979400D01*
X00491550Y00976400D02*
Y00979400D01*
X00525550Y00949900D02*
X00528550D01*
X00525550Y00942400D02*
X00528550D01*
X00627150Y00911800D02*
X00630150D01*
X00627150Y00904300D02*
X00630150D01*
X00608600Y01003200D02*
X00610600D01*
X00608600Y00990700D02*
X00610600D01*
X00608600Y00890170D02*
X00610600D01*
X00608600Y00877670D02*
X00610600D01*
D43*
X00521200Y00674920D02*
G03*
X00521200Y00674920I-00001250J00000000D01*
G01*
D45*
X00556260Y00723278D02*
X00551595Y00716280D01*
Y00723278D02*
X00556260Y00716280D01*
X00549262D02*
X00546930D01*
X00548096D01*
Y00723278D01*
X00549262Y00722112D01*
X00590550Y00971550D02*
Y00979547D01*
X00586551D01*
X00585218Y00978214D01*
Y00975549D01*
X00586551Y00974216D01*
X00590550D01*
X00587884D02*
X00585218Y00971550D01*
X00582553D02*
X00579887D01*
X00581220D01*
Y00979547D01*
X00582553Y00978214D01*
X00570556Y00971550D02*
X00575888D01*
X00570556Y00976882D01*
Y00978214D01*
X00571889Y00979547D01*
X00574555D01*
X00575888Y00978214D01*
X00590550Y00955040D02*
Y00963037D01*
X00586551D01*
X00585218Y00961704D01*
Y00959039D01*
X00586551Y00957706D01*
X00590550D01*
X00587884D02*
X00585218Y00955040D01*
X00582553D02*
X00579887D01*
X00581220D01*
Y00963037D01*
X00582553Y00961704D01*
X00575888Y00955040D02*
X00573222D01*
X00574555D01*
Y00963037D01*
X00575888Y00961704D01*
X00405130Y00909320D02*
Y00917317D01*
X00401131D01*
X00399798Y00915984D01*
Y00913319D01*
X00401131Y00911986D01*
X00405130D01*
X00402464D02*
X00399798Y00909320D01*
X00391801Y00917317D02*
X00397133D01*
Y00913319D01*
X00394467Y00914652D01*
X00393134D01*
X00391801Y00913319D01*
Y00910653D01*
X00393134Y00909320D01*
X00395800D01*
X00397133Y00910653D01*
X00514350Y00709930D02*
Y00717927D01*
X00510351D01*
X00509018Y00716594D01*
Y00713929D01*
X00510351Y00712596D01*
X00514350D01*
X00511684D02*
X00509018Y00709930D01*
X00502354D02*
Y00717927D01*
X00506353Y00713929D01*
X00501021D01*
X00501650Y00994410D02*
Y01002407D01*
X00497651D01*
X00496318Y01001075D01*
Y00998409D01*
X00497651Y00997076D01*
X00501650D01*
X00498984D02*
X00496318Y00994410D01*
X00493653Y01001075D02*
X00492320Y01002407D01*
X00489654D01*
X00488321Y01001075D01*
Y00999742D01*
X00489654Y00998409D01*
X00490987D01*
X00489654D01*
X00488321Y00997076D01*
Y00995743D01*
X00489654Y00994410D01*
X00492320D01*
X00493653Y00995743D01*
X00533400Y00927100D02*
Y00935097D01*
X00529401D01*
X00528068Y00933764D01*
Y00931099D01*
X00529401Y00929766D01*
X00533400D01*
X00530734D02*
X00528068Y00927100D01*
X00520071D02*
X00525403D01*
X00520071Y00932432D01*
Y00933764D01*
X00521404Y00935097D01*
X00524070D01*
X00525403Y00933764D01*
X00633730Y00916940D02*
Y00924937D01*
X00629731D01*
X00628398Y00923605D01*
Y00920939D01*
X00629731Y00919606D01*
X00633730D01*
X00631064D02*
X00628398Y00916940D01*
X00625733D02*
X00623067D01*
X00624400D01*
Y00924937D01*
X00625733Y00923605D01*
X00580138Y00998534D02*
X00581471Y00999867D01*
X00584137D01*
X00585470Y00998534D01*
Y00993203D01*
X00584137Y00991870D01*
X00581471D01*
X00580138Y00993203D01*
X00577473Y00991870D02*
X00574807D01*
X00576140D01*
Y00999867D01*
X00577473Y00998534D01*
X00570808Y00993203D02*
X00569475Y00991870D01*
X00566809D01*
X00565476Y00993203D01*
Y00998534D01*
X00566809Y00999867D01*
X00569475D01*
X00570808Y00998534D01*
Y00997202D01*
X00569475Y00995869D01*
X00565476D01*
X00534418Y00658175D02*
X00535751Y00659507D01*
X00538417D01*
X00539750Y00658175D01*
Y00652843D01*
X00538417Y00651510D01*
X00535751D01*
X00534418Y00652843D01*
X00531753Y00651510D02*
X00529087D01*
X00530420D01*
Y00659507D01*
X00531753Y00658175D01*
X00519756Y00659507D02*
X00525088D01*
Y00655509D01*
X00522422Y00656842D01*
X00521089D01*
X00519756Y00655509D01*
Y00652843D01*
X00521089Y00651510D01*
X00523755D01*
X00525088Y00652843D01*
X00569978Y00658175D02*
X00571311Y00659507D01*
X00573977D01*
X00575310Y00658175D01*
Y00652843D01*
X00573977Y00651510D01*
X00571311D01*
X00569978Y00652843D01*
X00567313Y00651510D02*
X00564647D01*
X00565980D01*
Y00659507D01*
X00567313Y00658175D01*
X00556649Y00651510D02*
Y00659507D01*
X00560648Y00655509D01*
X00555316D01*
X00604268Y00902014D02*
X00605601Y00903347D01*
X00608267D01*
X00609600Y00902014D01*
Y00896683D01*
X00608267Y00895350D01*
X00605601D01*
X00604268Y00896683D01*
X00601603Y00895350D02*
X00598937D01*
X00600270D01*
Y00903347D01*
X00601603Y00902014D01*
X00589606Y00895350D02*
X00594938D01*
X00589606Y00900682D01*
Y00902014D01*
X00590939Y00903347D01*
X00593605D01*
X00594938Y00902014D01*
X00629668Y01032824D02*
X00631001Y01034157D01*
X00633667D01*
X00635000Y01032824D01*
Y01027493D01*
X00633667Y01026160D01*
X00631001D01*
X00629668Y01027493D01*
X00621671Y01034157D02*
X00624337Y01032824D01*
X00627003Y01030159D01*
Y01027493D01*
X00625670Y01026160D01*
X00623004D01*
X00621671Y01027493D01*
Y01028826D01*
X00623004Y01030159D01*
X00627003D01*
X00719135Y00964182D02*
X00720467Y00962849D01*
Y00960183D01*
X00719135Y00958850D01*
X00713803D01*
X00712470Y00960183D01*
Y00962849D01*
X00713803Y00964182D01*
X00720467Y00972179D02*
Y00966847D01*
X00716469D01*
X00717802Y00969513D01*
Y00970846D01*
X00716469Y00972179D01*
X00713803D01*
X00712470Y00970846D01*
Y00968180D01*
X00713803Y00966847D01*
X00629668Y00813114D02*
X00631001Y00814447D01*
X00633667D01*
X00635000Y00813114D01*
Y00807783D01*
X00633667Y00806450D01*
X00631001D01*
X00629668Y00807783D01*
X00623004Y00806450D02*
Y00814447D01*
X00627003Y00810449D01*
X00621671D01*
X00629668Y00867725D02*
X00631001Y00869057D01*
X00633667D01*
X00635000Y00867725D01*
Y00862393D01*
X00633667Y00861060D01*
X00631001D01*
X00629668Y00862393D01*
X00627003Y00867725D02*
X00625670Y00869057D01*
X00623004D01*
X00621671Y00867725D01*
Y00866392D01*
X00623004Y00865059D01*
X00624337D01*
X00623004D01*
X00621671Y00863726D01*
Y00862393D01*
X00623004Y00861060D01*
X00625670D01*
X00627003Y00862393D01*
M02*
