G04 Layer_Color=16711935*
%FSLAX44Y44*%
%MOMM*%
G71*
G01*
G75*
%ADD31O,2.4032X0.8032*%
%ADD32R,1.1032X1.5032*%
%ADD34R,1.0922X1.2192*%
%ADD40C,1.7032*%
%ADD41R,1.7032X1.7032*%
%ADD42R,1.7032X2.8032*%
%ADD43R,1.2192X1.0922*%
G36*
X318830Y397460D02*
X308670D01*
Y402540D01*
X318830D01*
Y397460D01*
D02*
G37*
G36*
X303830D02*
X293670D01*
Y402540D01*
X303830D01*
Y397460D01*
D02*
G37*
G36*
X288830D02*
X278670D01*
Y402540D01*
X288830D01*
Y397460D01*
D02*
G37*
G36*
X273830D02*
X263670D01*
Y402540D01*
X273830D01*
Y397460D01*
D02*
G37*
D31*
X378600Y340360D02*
D03*
Y327660D02*
D03*
Y314960D02*
D03*
Y302260D02*
D03*
X330600Y340360D02*
D03*
Y327660D02*
D03*
Y314960D02*
D03*
Y302260D02*
D03*
D32*
X307960Y338930D02*
D03*
Y318930D02*
D03*
X425000Y366250D02*
D03*
Y346250D02*
D03*
D34*
X379730Y278130D02*
D03*
X364490D02*
D03*
X298630Y262500D02*
D03*
X313870D02*
D03*
X298630Y277500D02*
D03*
X313870D02*
D03*
D40*
X447040Y317500D02*
D03*
Y292100D02*
D03*
Y342900D02*
D03*
Y368300D02*
D03*
Y393700D02*
D03*
Y419100D02*
D03*
D41*
Y266700D02*
D03*
D42*
X261250Y363750D02*
D03*
X291250D02*
D03*
X261250Y322000D02*
D03*
X291250D02*
D03*
D43*
X363750Y406130D02*
D03*
Y421370D02*
D03*
X378750Y406130D02*
D03*
Y421370D02*
D03*
X430000Y271130D02*
D03*
Y286370D02*
D03*
X268750Y407620D02*
D03*
Y392380D02*
D03*
X313750D02*
D03*
Y407620D02*
D03*
X283750D02*
D03*
Y392380D02*
D03*
X298750D02*
D03*
Y407620D02*
D03*
M02*
