G04 Layer_Color=8388736*
%FSLAX44Y44*%
%MOMM*%
G71*
G01*
G75*
%ADD30R,2.6032X2.1032*%
%ADD31O,2.4032X0.8032*%
%ADD32R,1.1032X1.5032*%
%ADD33R,1.5032X1.1032*%
%ADD34R,1.0922X1.2192*%
%ADD35R,0.6532X2.0032*%
%ADD36R,2.0032X0.6532*%
%ADD37R,0.8032X1.2032*%
%ADD38R,1.5532X1.6532*%
%ADD39R,1.6532X1.5532*%
%ADD40C,1.7032*%
%ADD41R,1.7032X1.7032*%
D30*
X287020Y374830D02*
D03*
Y333830D02*
D03*
D31*
X372240Y298450D02*
D03*
Y285750D02*
D03*
Y273050D02*
D03*
Y260350D02*
D03*
X420240Y298450D02*
D03*
Y285750D02*
D03*
Y273050D02*
D03*
Y260350D02*
D03*
X264290Y298450D02*
D03*
Y285750D02*
D03*
Y273050D02*
D03*
Y260350D02*
D03*
X312290Y298450D02*
D03*
Y285750D02*
D03*
Y273050D02*
D03*
Y260350D02*
D03*
D32*
X314960Y327820D02*
D03*
Y347820D02*
D03*
X350000Y265000D02*
D03*
Y285000D02*
D03*
X259080Y387190D02*
D03*
Y367190D02*
D03*
Y326550D02*
D03*
Y346550D02*
D03*
D33*
X355439Y430530D02*
D03*
X335439D02*
D03*
X276250Y315000D02*
D03*
X296250D02*
D03*
D34*
X314960Y397510D02*
D03*
X299720D02*
D03*
D35*
X350459Y410530D02*
D03*
X358459D02*
D03*
X366459D02*
D03*
X374459D02*
D03*
X382459D02*
D03*
X390459D02*
D03*
X398459D02*
D03*
X406459D02*
D03*
Y323530D02*
D03*
X398459D02*
D03*
X390459D02*
D03*
X382459D02*
D03*
X374459D02*
D03*
X366459D02*
D03*
X358459D02*
D03*
X350459D02*
D03*
D36*
X421959Y395030D02*
D03*
Y387030D02*
D03*
Y379030D02*
D03*
Y371030D02*
D03*
Y363030D02*
D03*
Y355030D02*
D03*
Y347030D02*
D03*
Y339030D02*
D03*
X334959D02*
D03*
Y347030D02*
D03*
Y355030D02*
D03*
Y363030D02*
D03*
Y371030D02*
D03*
Y379030D02*
D03*
Y387030D02*
D03*
Y395030D02*
D03*
D37*
X295300Y412180D02*
D03*
X304800D02*
D03*
X314300D02*
D03*
Y436180D02*
D03*
X295300D02*
D03*
D38*
X398460Y431800D02*
D03*
X421960D02*
D03*
D39*
X264160Y407350D02*
D03*
Y430850D02*
D03*
D40*
X447040Y317500D02*
D03*
Y292100D02*
D03*
Y342900D02*
D03*
Y368300D02*
D03*
Y393700D02*
D03*
Y419100D02*
D03*
D41*
Y266700D02*
D03*
M02*
